<svg xmlns="http://www.w3.org/2000/svg" xmlns:xlink="http://www.w3.org/1999/xlink" viewBox="0 0 86.63 72.191">
  <defs>
    <style>
      .cls-1, .cls-4 {
        fill: #fff;
      }

      .cls-2 {
        clip-path: url(#clip-path);
      }

      .cls-3, .cls-6, .cls-7 {
        fill: none;
      }

      .cls-4, .cls-6 {
        stroke: #c5c9d0;
        stroke-width: 1.5px;
      }

      .cls-4, .cls-6, .cls-7 {
        stroke-miterlimit: 10;
      }

      .cls-5 {
        clip-path: url(#clip-path-4);
      }

      .cls-7 {
        stroke: #1e2d47;
        stroke-width: 1.609px;
      }

      .cls-8 {
        fill: #ddd;
      }

      .cls-9 {
        fill: #b2e5e6;
      }

      .cls-10 {
        fill: #f38c6f;
      }

      .cls-11 {
        fill: #ffcd0c;
      }

      .cls-12 {
        fill: #b2b4b7;
      }

      .cls-13 {
        fill: #c5c9d0;
      }
    </style>
    <clipPath id="clip-path">
      <rect id="Rectangle_7132" data-name="Rectangle 7132" width="86.63" height="72.191"/>
    </clipPath>
    <clipPath id="clip-path-4">
      <path id="Path_79966" data-name="Path 79966" d="M0,0H86.63V72.191H0Z"/>
    </clipPath>
  </defs>
  <g id="Group_65771" data-name="Group 65771" transform="translate(-1554 -895)">
    <rect id="Rectangle_7671" data-name="Rectangle 7671" class="cls-1" width="84.444" height="56.578" rx="5" transform="translate(1554.844 895)"/>
    <g id="Group_31903" data-name="Group 31903" transform="translate(1554 895)">
      <g id="Group_31859" data-name="Group 31859">
        <g id="Group_31853" data-name="Group 31853" class="cls-2">
          <path id="Path_79621" data-name="Path 79621" class="cls-3" d="M25.888,42.6v8.08A1.853,1.853,0,0,1,23.9,52.932H19V57.7H55.029V53.064H50.393a.993.993,0,0,1-.662-.132c-1.59-.4-1.325-2.252-1.325-2.252V42.6" transform="translate(6.168 13.829)"/>
        </g>
        <g id="Group_31854" data-name="Group 31854" class="cls-2">
          <path id="Path_79622" data-name="Path 79622" class="cls-4" d="M25.888,42.6v8.08A1.853,1.853,0,0,1,23.9,52.932H19V57.7H55.029V53.064H50.393a.993.993,0,0,1-.662-.132c-1.59-.4-1.325-2.252-1.325-2.252V42.6" transform="translate(6.168 13.829)"/>
        </g>
        <g id="Group_31855" data-name="Group 31855" class="cls-2">
          <path id="Path_79623" data-name="Path 79623" class="cls-3" d="M83.421.5H2.884A2.374,2.374,0,0,0,.5,2.884v51.13A2.374,2.374,0,0,0,2.884,56.4h80.4a2.374,2.374,0,0,0,2.384-2.384V2.884A2.19,2.19,0,0,0,83.421.5M81.964,52.557H4.341V4.209H81.964Z" transform="translate(0.162 0.162)"/>
        </g>
        <g id="Mask_Group_805" data-name="Mask Group 805" class="cls-5">
          <path id="Path_79624" data-name="Path 79624" class="cls-6" d="M83.421.5H2.884A2.374,2.374,0,0,0,.5,2.884v51.13A2.374,2.374,0,0,0,2.884,56.4h80.4a2.374,2.374,0,0,0,2.384-2.384V2.884A2.19,2.19,0,0,0,83.421.5ZM81.964,52.557H4.341V4.209H81.964Z" transform="translate(0.162 0.162)"/>
        </g>
        <g id="Group_31857" data-name="Group 31857" class="cls-2">
          <path id="Path_79625" data-name="Path 79625" class="cls-7" d="M64.9,3.2" transform="translate(21.067 1.039)"/>
        </g>
        <g id="Group_31858" data-name="Group 31858" class="cls-2">
          <path id="Path_79626" data-name="Path 79626" class="cls-7" d="M64.9,41.3" transform="translate(21.067 13.407)"/>
        </g>
      </g>
      <g id="Group_32733" data-name="Group 32733" transform="translate(10.338 40.597)">
        <path id="Path_3008" data-name="Path 3008" class="cls-8" d="M52.886,99.535,24.8,99.579v-1.19L52.886,98.3Z" transform="translate(-24.8 -98.3)"/>
        <path id="Path_3009" data-name="Path 3009" class="cls-8" d="M52.886,104.99l-28.086.088v-1.235l28.086-.044Z" transform="translate(-24.8 -101.375)"/>
        <path id="Path_3010" data-name="Path 3010" class="cls-8" d="M39.658,110.79l-14.858.088v-1.19l14.858-.088Z" transform="translate(-24.8 -104.618)"/>
      </g>
      <g id="Group_32734" data-name="Group 32734" transform="translate(8.487 8.984)">
        <g id="Group_2332" data-name="Group 2332" transform="translate(21.252 13.095)">
          <path id="Path_3011" data-name="Path 3011" class="cls-9" d="M92.168,68.689l-2.249-3.571-.75,1.455L69.2,56.3l-.4.838L88.729,67.367l-.75,1.5Z" transform="translate(-68.8 -56.3)"/>
        </g>
        <g id="Group_2336" data-name="Group 2336">
          <g id="Group_2333" data-name="Group 2333" transform="translate(13.041 7.698)">
            <path id="Path_3012" data-name="Path 3012" class="cls-10" d="M50.408,47.869l4.453,2.425a.4.4,0,0,0,.573-.176l1.631-3a.4.4,0,0,0-.176-.573l-4.453-2.425a.4.4,0,0,0-.573.176l-1.631,3A.434.434,0,0,0,50.408,47.869Z" transform="translate(-50.178 -44.059)"/>
            <path id="Path_3013" data-name="Path 3013" class="cls-10" d="M63.6,54.431l.617.794L65.5,52.888,64.482,52.8Z" transform="translate(-57.682 -48.946)"/>
          </g>
          <g id="Group_2335" data-name="Group 2335">
            <g id="Group_2334" data-name="Group 2334">
              <path id="Path_3014" data-name="Path 3014" class="cls-11" d="M83,28a.154.154,0,0,0,.088.044,14.084,14.084,0,0,0,3.086.353,13.483,13.483,0,0,0,3.086-.353c.044,0,.088,0,.088-.044l-.044-.044a14.084,14.084,0,0,0-3.086-.353,13.483,13.483,0,0,0-3.086.353A.193.193,0,0,1,83,28Z" transform="translate(-55.488 -27.159)"/>
              <path id="Path_3015" data-name="Path 3015" class="cls-11" d="M66.3,28a.154.154,0,0,0,.088.044,14.084,14.084,0,0,0,3.086.353,13.483,13.483,0,0,0,3.086-.353c.044,0,.088,0,.088-.044a.154.154,0,0,0-.088-.044,14.084,14.084,0,0,0-3.086-.353,13.483,13.483,0,0,0-3.086.353C66.344,27.953,66.344,28,66.3,28Z" transform="translate(-46.151 -27.159)"/>
              <path id="Path_3016" data-name="Path 3016" class="cls-11" d="M81,27.614h.882c0-.573-.22-1.014-.485-1.014S81,27.085,81,27.614Z" transform="translate(-54.369 -26.6)"/>
              <path id="Path_3017" data-name="Path 3017" class="cls-11" d="M37.4,28a.154.154,0,0,0,.088.044,14.084,14.084,0,0,0,3.086.353,13.483,13.483,0,0,0,3.086-.353c.044,0,.088,0,.088-.044a.154.154,0,0,0-.088-.044,14.084,14.084,0,0,0-3.086-.353,13.483,13.483,0,0,0-3.086.353S37.488,28,37.4,28Z" transform="translate(-29.993 -27.159)"/>
              <path id="Path_3018" data-name="Path 3018" class="cls-11" d="M20.6,28a.154.154,0,0,0,.088.044,14.084,14.084,0,0,0,3.086.353,13.483,13.483,0,0,0,3.086-.353c.044,0,.088,0,.088-.044a.154.154,0,0,0-.088-.044,14.084,14.084,0,0,0-3.086-.353,13.483,13.483,0,0,0-3.086.353S20.688,28,20.6,28Z" transform="translate(-20.6 -27.159)"/>
              <path id="Path_3019" data-name="Path 3019" class="cls-11" d="M35.2,27.614h.882c0-.573-.176-1.014-.441-1.014S35.244,27.085,35.2,27.614Z" transform="translate(-28.763 -26.6)"/>
            </g>
            <path id="Path_3020" data-name="Path 3020" class="cls-12" d="M33.786,35.085a1.279,1.279,0,0,0,.794.353,1.087,1.087,0,0,0,.75-.353,2.865,2.865,0,0,0,.617-1.764h3.836a2.189,2.189,0,0,0-.75,1.235,14.764,14.764,0,0,0-.353,2.16c-.176,1.279-.441,2.734-.529,3.175a.9.9,0,0,0,.132.838.314.314,0,0,0,.265.132h.088c.22-.044.353-.265.485-.617l.441-1.764c.309-1.455.75-3.219.838-3.571a.616.616,0,0,1,.705-.529h1.323c.088.088.132.176.22.265a1.609,1.609,0,0,0,1.058.794,1.654,1.654,0,0,0,.441.044v3.924a.442.442,0,0,0,.441.441h.353a.442.442,0,0,0,.441-.441V35.35h.265a1.609,1.609,0,0,0,1.058-.794c.088-.088.132-.176.22-.265H48.2c.441,0,.617.132.705.529.044.309.441,2.028.794,3.439.22.882.353,1.675.485,1.984.088.353.22.573.485.661a.343.343,0,0,0,.353-.088.874.874,0,0,0,.132-.838c-.088-.485-.309-1.94-.529-3.175-.176-1.014-.265-1.984-.309-2.16a2.411,2.411,0,0,0-.794-1.235h3.792a2.547,2.547,0,0,0,.617,1.764,1.087,1.087,0,0,0,.75.353,1.1,1.1,0,0,0,.794-.353A3.108,3.108,0,0,0,56.1,33.19a1.032,1.032,0,0,0-.926-.882V30.5h-1.1v1.808H50.143a3.506,3.506,0,0,1-1.808-.661,7.27,7.27,0,0,0-3.748-1.058,8.229,8.229,0,0,0-3.748,1.058,4.135,4.135,0,0,1-1.808.661H35.108V30.5h-1.19v1.808h0a.991.991,0,0,0-.926.882h0A2.133,2.133,0,0,0,33.786,35.085Z" transform="translate(-27.525 -28.78)"/>
          </g>
          <rect id="Rectangle_702" data-name="Rectangle 702" class="cls-11" width="0.353" height="1.058" transform="translate(24.602 3.527)"/>
          <rect id="Rectangle_703" data-name="Rectangle 703" class="cls-11" width="0.353" height="1.058" transform="translate(23.809 3.527)"/>
          <rect id="Rectangle_704" data-name="Rectangle 704" class="cls-11" width="0.353" height="1.058" transform="translate(9.744 3.527)"/>
          <rect id="Rectangle_705" data-name="Rectangle 705" class="cls-11" width="0.353" height="1.058" transform="translate(8.95 3.527)"/>
        </g>
      </g>
      <g id="Group_32735" data-name="Group 32735" transform="translate(55.646 24.008)">
        <path id="Path_3022" data-name="Path 3022" class="cls-13" d="M150.417,71.444c-.661-.617-1.279-1.279-1.94-1.9a.381.381,0,0,1-.132-.265V64.742a.538.538,0,0,0-.573-.485h-2.249a.533.533,0,0,0-.573.573v1.323a.043.043,0,0,0-.044.044c-.044-.044-.044-.088-.088-.132l-5.291-5.159a.579.579,0,0,0-.926,0c-.617.617-1.234,1.19-1.852,1.808-.044.044-.088.044-.132.088l-1.146,1.1-.132.132c-2.469,2.381-5.026,4.894-7.539,7.363a.96.96,0,0,0-.22.353.521.521,0,0,0,.485.617h2.2V84.8a.566.566,0,0,0,.441.441H147.86a.566.566,0,0,0,.441-.441V72.414h1.631a.535.535,0,0,0,.573-.353A.4.4,0,0,0,150.417,71.444Zm-4.277-6.129h1.1v3a.043.043,0,0,0-.044.044c-.044-.044-.044-.088-.088-.132-.309-.309-.617-.573-.882-.882a.229.229,0,0,1-.088-.176V65.316Zm-5.115,18.871h-3.395V77.22h3.395Zm6.217-.044h-5.07V76.735c0-.22-.044-.441-.265-.529a.817.817,0,0,0-.309-.088H137.19a.546.546,0,0,0-.617.573V84.1H131.5V72.326h15.784C147.243,76.294,147.243,80.218,147.243,84.142Zm-17.768-12.83c3.219-3.13,6.437-6.261,9.612-9.391,3.219,3.13,6.393,6.261,9.612,9.391Z" transform="translate(-127.561 -60.675)"/>
      </g>
    </g>
  </g>
</svg>
