<svg xmlns="http://www.w3.org/2000/svg" viewBox="1577.06 2020 71.155 67.808">
  <defs>
    <style>
      .cls-1 {
        fill: #fff;
      }

      .cls-2 {
        fill: none;
        stroke: #fff;
        stroke-width: 2px;
      }

      .cls-3 {
        fill: #ffcb05;
      }
    </style>
  </defs>
  <g id="Group_59849" data-name="Group 59849" transform="translate(1507 1968)">
    <g id="Group_30" data-name="Group 30" transform="translate(96.469 80.997)">
      <circle id="Ellipse_1" data-name="Ellipse 1" class="cls-1" cx="2.246" cy="2.246" r="2.246" transform="translate(0)"/>
      <circle id="Ellipse_2" data-name="Ellipse 2" class="cls-1" cx="2.246" cy="2.246" r="2.246" transform="translate(11.981)"/>
    </g>
    <path id="Path_80223" data-name="Path 80223" class="cls-2" d="M3750.84,314.5,3736,318.946" transform="translate(-3637.729 -223.117)"/>
    <g id="Group_41" data-name="Group 41" transform="translate(-80 3)">
      <path id="Path_80241" data-name="Path 80241" class="cls-3" d="M69.159,24.335,47.675,22.36a2.053,2.053,0,0,1-1.729-1.235L37.427,1.246a2.061,2.061,0,0,0-3.828,0L25.08,21a1.857,1.857,0,0,1-1.729,1.235l-21.484,2.1a2.133,2.133,0,0,0-1.235,3.7l16.175,14.2a1.757,1.757,0,0,1,.617,1.976L12.733,65.2a2.043,2.043,0,0,0,3.087,2.222L34.34,56.438a2.121,2.121,0,0,1,2.1,0L54.959,67.426A2.049,2.049,0,0,0,58.046,65.2l-4.692-20.99a2.278,2.278,0,0,1,.617-1.976L70.393,27.916A2.054,2.054,0,0,0,69.159,24.335Z" transform="translate(150.125 49.05)"/>
      <g id="Group_40" data-name="Group 40" transform="translate(-3412.342 -234.348)">
        <g id="Group_22" data-name="Group 22" transform="translate(3588 314.22)">
          <circle id="Ellipse_1-2" data-name="Ellipse 1" class="cls-1" cx="2.644" cy="2.644" r="2.644" transform="translate(0 0)"/>
          <circle id="Ellipse_2-2" data-name="Ellipse 2" class="cls-1" cx="2.644" cy="2.644" r="2.644" transform="translate(14.101 0)"/>
        </g>
        <path id="Path_80204" data-name="Path 80204" class="cls-2" d="M3588,322.233c4.427-6,14.188-5.921,18.037,0" transform="translate(0.882 8.378)"/>
        <path id="Path_80205" data-name="Path 80205" class="cls-2" d="M3588,311.4l7.051,5.884" transform="translate(0 0)"/>
        <path id="Path_80208" data-name="Path 80208" class="cls-2" d="M3595.051,311.4,3588,317.284" transform="translate(13.018 0)"/>
      </g>
    </g>
  </g>
</svg>
