<svg xmlns="http://www.w3.org/2000/svg" viewBox="0 0 14 13.342">
  <defs>
    <style>
      .cls-1 {
        fill: #ffcb05;
      }
    </style>
  </defs>
  <path id="Path_80241" data-name="Path 80241" class="cls-1" d="M13.555,4.748,9.328,4.359a.4.4,0,0,1-.34-.243L7.312.205a.405.405,0,0,0-.753,0L4.883,4.092a.365.365,0,0,1-.34.243L.316,4.748a.42.42,0,0,0-.243.729L3.255,8.27a.346.346,0,0,1,.121.389l-.923,4.13a.4.4,0,0,0,.607.437L6.7,11.064a.417.417,0,0,1,.413,0l3.644,2.162a.4.4,0,0,0,.607-.437l-.923-4.13a.448.448,0,0,1,.121-.389L13.8,5.452A.4.4,0,0,0,13.555,4.748Z" transform="translate(0.065 0.05)"/>
</svg>
