<svg xmlns="http://www.w3.org/2000/svg" viewBox="4234.221 2657.83 155.779 145.67">
  <defs>
    <style>
      .cls-1 {
        fill: #999;
      }

      .cls-10, .cls-14, .cls-2 {
        fill: #fff;
      }

      .cls-2 {
        stroke: #dddcdc;
      }

      .cls-10, .cls-11, .cls-12, .cls-2, .cls-8, .cls-9 {
        stroke-miterlimit: 10;
      }

      .cls-3 {
        fill: #595f68;
      }

      .cls-4 {
        fill: #787878;
      }

      .cls-5 {
        fill: #1e2d47;
      }

      .cls-6 {
        fill: #efd1b5;
      }

      .cls-7 {
        fill: #ababab;
      }

      .cls-8, .cls-9 {
        fill: #dddcdc;
      }

      .cls-10, .cls-11, .cls-12, .cls-8, .cls-9 {
        stroke: #999;
      }

      .cls-9 {
        stroke-width: 0.774px;
      }

      .cls-11, .cls-12 {
        fill: none;
      }

      .cls-11 {
        stroke-width: 0.912px;
      }

      .cls-12 {
        stroke-width: 1.059px;
      }

      .cls-13 {
        fill: #93d5da;
      }
    </style>
  </defs>
  <g id="DroneController" transform="translate(4234.221 2657.816)">
    <path id="Path_234" data-name="Path 234" class="cls-1" d="M108.923,136.085H41.971A18.719,18.719,0,0,1,23.3,117.414V66.371A18.719,18.719,0,0,1,41.971,47.7h66.952a18.719,18.719,0,0,1,18.671,18.671v51.043A18.719,18.719,0,0,1,108.923,136.085Z" transform="translate(2.442 4.958)"/>
    <path id="Path_235" data-name="Path 235" class="cls-2" d="M109.586,129.457H41.2a17.965,17.965,0,0,1-17.9-17.9V65.6A17.965,17.965,0,0,1,41.2,47.7h68.388a17.965,17.965,0,0,1,17.9,17.9v45.85A17.848,17.848,0,0,1,109.586,129.457Z" transform="translate(2.442 4.958)"/>
    <circle id="Ellipse_9" data-name="Ellipse 9" class="cls-1" cx="13.7" cy="13.7" r="13.7" transform="translate(38.89 68.899)"/>
    <circle id="Ellipse_10" data-name="Ellipse 10" class="cls-3" cx="11.822" cy="11.822" r="11.822" transform="translate(39.773 71.771)"/>
    <circle id="Ellipse_11" data-name="Ellipse 11" class="cls-1" cx="13.7" cy="13.7" r="13.7" transform="translate(87.391 68.899)"/>
    <circle id="Ellipse_12" data-name="Ellipse 12" class="cls-4" cx="3.867" cy="3.867" r="3.867" transform="translate(48.391 78.511)"/>
    <path id="Path_236" data-name="Path 236" class="cls-5" d="M38.35,81.4l-.221-.331a1.7,1.7,0,0,1,.552-2.431l8.286-5.414a1.7,1.7,0,0,1,2.431.552l.221.331a1.7,1.7,0,0,1-.552,2.431L40.78,81.957A1.7,1.7,0,0,1,38.35,81.4Z" transform="translate(3.965 7.602)"/>
    <circle id="Ellipse_13" data-name="Ellipse 13" class="cls-1" cx="4.972" cy="4.972" r="4.972" transform="translate(39.221 82.598)"/>
    <path id="Path_237" data-name="Path 237" class="cls-6" d="M18.009,135.578,0,127.954l8.4-20.108c0-.442,3.2-23.2,3.2-23.2.331-3.425,2.762-5.966,3.425-6.739.773-.663,7.181-7.4,10.717-10.606V92.49S35.8,80.779,36.68,79.343c1.326-2.1,3.756-3.646,6.3-2.652s3.093,3.756,1.657,6.96S33.807,100.224,33.7,106.3a11.785,11.785,0,0,1-8.176,10.938Z" transform="translate(0 7.012)"/>
    <circle id="Ellipse_14" data-name="Ellipse 14" class="cls-3" cx="11.822" cy="11.822" r="11.822" transform="translate(89.822 71.771)"/>
    <circle id="Ellipse_15" data-name="Ellipse 15" class="cls-4" cx="3.867" cy="3.867" r="3.867" transform="translate(97.224 78.511)"/>
    <path id="Path_238" data-name="Path 238" class="cls-5" d="M90.318,74.223l.221-.331a1.689,1.689,0,0,1,2.32-.773l8.839,4.419a1.689,1.689,0,0,1,.773,2.32l-.221.331a1.689,1.689,0,0,1-2.32.773l-8.839-4.419A1.689,1.689,0,0,1,90.318,74.223Z" transform="translate(9.447 7.602)"/>
    <circle id="Ellipse_16" data-name="Ellipse 16" class="cls-1" cx="4.972" cy="4.972" r="4.972" transform="translate(105.289 82.598)"/>
    <path id="Path_239" data-name="Path 239" class="cls-6" d="M127.3,138.367l18.009-7.623-8.4-20.108c.11-.331-3.2-23.091-3.2-23.091-.331-3.425-2.762-5.966-3.425-6.739-.773-.663-7.181-7.4-10.717-10.606V95.39s-10.054-11.711-10.938-13.147c-1.326-2.1-3.756-3.646-6.3-2.652s-3.093,3.756-1.657,6.96S111.5,103.124,111.612,109.2a11.785,11.785,0,0,0,8.176,10.938Z" transform="translate(10.471 7.316)"/>
    <path id="Path_240" data-name="Path 240" class="cls-7" d="M40.168,55.139l-1.215.221a2,2,0,0,1-2.431-1.768L30,15.255a2,2,0,0,1,1.768-2.431l1.215-.221a2,2,0,0,1,2.431,1.768l6.518,38.337A2.1,2.1,0,0,1,40.168,55.139Z" transform="translate(3.141 1.275)"/>
    <path id="Path_241" data-name="Path 241" class="cls-7" d="M100.669,55.139l1.215.221a2,2,0,0,0,2.431-1.768l6.518-38.337a2,2,0,0,0-1.768-2.431L107.85,12.6a2,2,0,0,0-2.431,1.768L98.9,52.708A2.285,2.285,0,0,0,100.669,55.139Z" transform="translate(10.365 1.275)"/>
    <circle id="Ellipse_17" data-name="Ellipse 17" class="cls-8" cx="4.861" cy="4.861" r="4.861" transform="translate(57.782 106.463)"/>
    <circle id="Ellipse_18" data-name="Ellipse 18" class="cls-8" cx="4.861" cy="4.861" r="4.861" transform="translate(83.966 106.463)"/>
    <path id="Path_242" data-name="Path 242" class="cls-9" d="M72.187,55.052h-5.3A.871.871,0,0,1,66,54.168V41.684a.871.871,0,0,1,.884-.884h5.3a.871.871,0,0,1,.884.884V54.058A.846.846,0,0,1,72.187,55.052Z" transform="translate(6.918 4.235)"/>
    <g id="Group_256" data-name="Group 256" transform="translate(39.221 4.488)">
      <path id="Path_243" data-name="Path 243" class="cls-10" d="M35.5,39.233V6.31A2.216,2.216,0,0,1,37.71,4.1h70.045a2.216,2.216,0,0,1,2.21,2.21V39.233a2.216,2.216,0,0,1-2.21,2.21H37.71A2.216,2.216,0,0,1,35.5,39.233Z" transform="translate(-35.5 -4.1)"/>
      <circle id="Ellipse_19" data-name="Ellipse 19" class="cls-11" cx="3.314" cy="3.314" r="3.314" transform="translate(2.21 15.357)"/>
      <rect id="Rectangle_124" data-name="Rectangle 124" class="cls-12" width="31.487" height="54.247" transform="translate(65.652 2.924) rotate(90)"/>
      <path id="Path_244" data-name="Path 244" class="cls-1" d="M99.5,24.671V18.042a.475.475,0,0,0-.442-.442h-.221a.475.475,0,0,0-.442.442v6.629a.475.475,0,0,0,.442.442h.221A.475.475,0,0,0,99.5,24.671Z" transform="translate(-28.907 -2.685)"/>
      <path id="Path_245" data-name="Path 245" class="cls-1" d="M98.3,15.763h0a.713.713,0,0,1,.663-.663h0a.713.713,0,0,1,.663.663h0a.713.713,0,0,1-.663.663h0A.637.637,0,0,1,98.3,15.763Z" transform="translate(-28.917 -2.947)"/>
    </g>
    <path id="Path_246" data-name="Path 246" class="cls-9" d="M80.407,42.067H59.084a.871.871,0,0,1-.884-.884v-2.1a.871.871,0,0,1,.884-.884H80.407a.871.871,0,0,1,.884.884v2.1A.951.951,0,0,1,80.407,42.067Z" transform="translate(6.1 3.962)"/>
    <path id="Path_247" data-name="Path 247" class="cls-9" d="M80.407,4.156H59.084a.871.871,0,0,1-.884-.884V1.284A.871.871,0,0,1,59.084.4H80.407a.871.871,0,0,1,.884.884V3.273A.871.871,0,0,1,80.407,4.156Z" transform="translate(6.1)"/>
    <g id="Group_258" data-name="Group 258" transform="translate(51.153 8.023)">
      <rect id="Rectangle_125" data-name="Rectangle 125" class="cls-13" width="53.142" height="30.382"/>
      <g id="Group_257" data-name="Group 257" transform="translate(0 1.989)">
        <path id="Path_248" data-name="Path 248" class="cls-14" d="M91.118,9.21a.484.484,0,0,0-.331-.11H84.931c-.11,0-.331,0-.331.11v1.436h6.408Z" transform="translate(-42.285 -9.1)"/>
        <path id="Path_249" data-name="Path 249" class="cls-14" d="M46.3,15.068h2.983V13.41a.484.484,0,0,0-.331-.11H46.41" transform="translate(-46.3 -8.66)"/>
        <path id="Path_250" data-name="Path 250" class="cls-14" d="M46.3,35.1h4.2V30.9H46.41Z" transform="translate(-46.3 -6.815)"/>
        <path id="Path_251" data-name="Path 251" class="cls-14" d="M46.3,20.782h4.2V16.031a.293.293,0,0,0-.331-.331H46.3m3.093,3.314a.238.238,0,0,1-.221.221H47.957a.238.238,0,0,1-.221-.221V17.357a.238.238,0,0,1,.221-.221h1.215a.238.238,0,0,1,.221.221Z" transform="translate(-46.3 -8.408)"/>
        <path id="Path_252" data-name="Path 252" class="cls-14" d="M46.3,30.982h4.2V25.9H46.3m1.436,1.657a.238.238,0,0,1,.221-.221h1.215a.238.238,0,0,1,.221.221v1.657a.238.238,0,0,1-.221.221H47.957a.238.238,0,0,1-.221-.221Z" transform="translate(-46.3 -7.339)"/>
        <path id="Path_253" data-name="Path 253" class="cls-14" d="M46.4,25.993h4.2V20.8H46.4m1.326,1.768a.238.238,0,0,1,.221-.221h1.215a.238.238,0,0,1,.221.221v1.657a.238.238,0,0,1-.221.221H47.947a.238.238,0,0,1-.221-.221Z" transform="translate(-46.29 -7.874)"/>
        <path id="Path_254" data-name="Path 254" class="cls-14" d="M84.7,26.378h1.1a.238.238,0,0,1,.221.221v2.21a.238.238,0,0,1-.221.221H84.7v2.1H95.417V24.5H84.7Zm7.071.221a.238.238,0,0,1,.221-.221h1.657a.238.238,0,0,1,.221.221v2.21a.238.238,0,0,1-.221.221H91.992a.238.238,0,0,1-.221-.221Zm-3.867,0a.238.238,0,0,1,.221-.221h1.657A.238.238,0,0,1,90,26.6v2.21a.238.238,0,0,1-.221.221H88.125a.238.238,0,0,1-.221-.221Z" transform="translate(-42.275 -7.486)"/>
        <path id="Path_255" data-name="Path 255" class="cls-14" d="M84.7,19.9h1.1a.238.238,0,0,1,.221.221v2.21a.238.238,0,0,1-.221.221H84.7v2.1H95.417V17.8H84.7Zm7.071.221a.238.238,0,0,1,.221-.221h1.657a.238.238,0,0,1,.221.221v2.21a.238.238,0,0,1-.221.221H91.992a.238.238,0,0,1-.221-.221Zm-3.867,0a.238.238,0,0,1,.221-.221h1.657A.238.238,0,0,1,90,20.12v2.21a.238.238,0,0,1-.221.221H88.125a.238.238,0,0,1-.221-.221Z" transform="translate(-42.275 -8.188)"/>
        <path id="Path_256" data-name="Path 256" class="cls-14" d="M95.316,11.4H82.942a.475.475,0,0,0-.442.442V16.7h1.1a1.343,1.343,0,0,1,1.326,1.326v.11H95.647v-6.3C95.758,11.51,95.537,11.4,95.316,11.4Zm-9.06,4.309a.238.238,0,0,1-.221.221H84.378a.238.238,0,0,1-.221-.221V13.5a.238.238,0,0,1,.221-.221h1.657a.238.238,0,0,1,.221.221Zm3.977,0a.238.238,0,0,1-.221.221H88.356a.238.238,0,0,1-.221-.221V13.5a.238.238,0,0,1,.221-.221h1.657a.238.238,0,0,1,.221.221Zm3.867,0a.238.238,0,0,1-.221.221H92.222A.238.238,0,0,1,92,15.709V13.5a.238.238,0,0,1,.221-.221H93.88a.238.238,0,0,1,.221.221Z" transform="translate(-42.506 -8.859)"/>
        <rect id="Rectangle_126" data-name="Rectangle 126" class="cls-14" width="10.717" height="4.088" transform="translate(42.425 24.196)"/>
        <path id="Path_257" data-name="Path 257" class="cls-14" d="M84.512,17h-9.28a.293.293,0,0,0-.331.331v4.751h9.943v-4.64C84.843,17.11,84.622,17,84.512,17Zm-6.96,3.2a.238.238,0,0,1-.221.221H76.115a.238.238,0,0,1-.221-.221V18.547a.238.238,0,0,1,.221-.221h1.215a.238.238,0,0,1,.221.221V20.2Zm3.093,0a.238.238,0,0,1-.221.221H79.209a.238.238,0,0,1-.221-.221V18.547a.238.238,0,0,1,.221-.221h1.215a.238.238,0,0,1,.221.221Zm2.983,0a.238.238,0,0,1-.221.221H82.3a.238.238,0,0,1-.221-.221V18.547a.238.238,0,0,1,.221-.221h1.1a.238.238,0,0,1,.221.221Z" transform="translate(-43.302 -8.272)"/>
        <path id="Path_258" data-name="Path 258" class="cls-14" d="M82.54,27.2H77.9v5.082h6.518V27.2H82.54Zm-2.21,3.314a.238.238,0,0,1-.221.221H78.894a.238.238,0,0,1-.221-.221V28.857a.238.238,0,0,1,.221-.221H80.11a.238.238,0,0,1,.221.221Zm2.983-1.768V30.4a.238.238,0,0,1-.221.221h-1.1a.238.238,0,0,1-.221-.221V28.747a.238.238,0,0,1,.221-.221h1.1A.238.238,0,0,1,83.314,28.747Z" transform="translate(-42.988 -7.203)"/>
        <path id="Path_259" data-name="Path 259" class="cls-14" d="M82.54,32.2H77.9v2.762h6.629V32.2H82.54Z" transform="translate(-42.988 -6.679)"/>
        <path id="Path_260" data-name="Path 260" class="cls-14" d="M82.865,22H74.8v2.762h1.1v-.994a.238.238,0,0,1,.221-.221h1.215a.238.238,0,0,1,.221.221v1.215c.11,0,.221.11.331.221a1.255,1.255,0,0,1,.331.884V27.3h6.518V22H82.865Zm-2.21,3.425a.238.238,0,0,1-.221.221H79.219A.238.238,0,0,1,79,25.425V23.768a.238.238,0,0,1,.221-.221h1.215a.238.238,0,0,1,.221.221Zm2.983-1.657v1.657a.238.238,0,0,1-.221.221h-1.1a.238.238,0,0,1-.221-.221V23.768a.238.238,0,0,1,.221-.221h1.1A.238.238,0,0,1,83.639,23.768Z" transform="translate(-43.313 -7.748)"/>
        <path id="Path_261" data-name="Path 261" class="cls-14" d="M59.318,18.31a.484.484,0,0,0-.331-.11H53.131c-.11,0-.331,0-.331.11v1.215h6.408Z" transform="translate(-45.619 -8.146)"/>
        <path id="Path_262" data-name="Path 262" class="cls-14" d="M55.751,24.951h9.722V20.531c0-.11,0-.11-.11-.221a.386.386,0,0,0-.221-.11H51.221a.238.238,0,0,0-.221.221v15.8h3.535V26.056a1.21,1.21,0,0,1,1.215-1.1Zm6.739-3.425a.238.238,0,0,1,.221-.221h1.547a.238.238,0,0,1,.221.221v1.989a.238.238,0,0,1-.221.221H62.711a.238.238,0,0,1-.221-.221Zm-3.314,0A.238.238,0,0,1,59.4,21.3h1.547a.238.238,0,0,1,.221.221v1.989a.238.238,0,0,1-.221.221H59.4a.238.238,0,0,1-.221-.221Zm-3.314,0a.238.238,0,0,1,.221-.221h1.547a.238.238,0,0,1,.221.221v1.989a.238.238,0,0,1-.221.221H56.082a.238.238,0,0,1-.221-.221Zm-1.436,1.989a.238.238,0,0,1-.221.221H52.657a.238.238,0,0,1-.221-.221V21.526a.238.238,0,0,1,.221-.221H54.2a.238.238,0,0,1,.221.221Z" transform="translate(-45.807 -7.937)"/>
        <path id="Path_263" data-name="Path 263" class="cls-14" d="M79.3,35.675V25.731c0-.11,0-.11-.11-.221a.386.386,0,0,0-.221-.11H55.321a.238.238,0,0,0-.221.221V35.785H64.16V33.244a.238.238,0,0,1,.221-.221h5.745a.238.238,0,0,1,.221.221v2.541h9.06ZM62.281,30.261a.238.238,0,0,1-.221.221H56.2a.238.238,0,0,1-.221-.221V27.5a.238.238,0,0,1,.221-.221H62.06a.238.238,0,0,1,.221.221Zm2.873,0a.238.238,0,0,1-.221.221H63.386a.238.238,0,0,1-.221-.221V27.5a.238.238,0,0,1,.221-.221h1.547a.238.238,0,0,1,.221.221Zm2.983,0a.238.238,0,0,1-.221.221H66.369a.238.238,0,0,1-.221-.221V27.5a.238.238,0,0,1,.221-.221h1.547a.238.238,0,0,1,.221.221Zm2.873,0a.238.238,0,0,1-.221.221H69.242a.238.238,0,0,1-.221-.221V27.5a.238.238,0,0,1,.221-.221h1.547a.238.238,0,0,1,.221.221ZM78.3,28.714v1.547a.238.238,0,0,1-.221.221H72.335a.238.238,0,0,1-.221-.221V27.5a.238.238,0,0,1,.221-.221H78.08c.11,0,.11.11.11.221Z" transform="translate(-45.378 -7.391)"/>
        <path id="Path_264" data-name="Path 264" class="cls-14" d="M54.9,34.8h0Z" transform="translate(-45.399 -6.406)"/>
        <path id="Path_265" data-name="Path 265" class="cls-14" d="M68.194,17.9H74.16a.442.442,0,0,0,0-.884H68.194a2.211,2.211,0,0,1-2.32-1.878,1.91,1.91,0,0,1,.663-1.326,2.714,2.714,0,0,1,1.657-.552h.331a.838.838,0,0,0,.442-.221.386.386,0,0,1,.11-.221V12.7a2.483,2.483,0,0,1,2.652-2.1h0a3,3,0,0,1,1.878.663,2.087,2.087,0,0,1,.773,1.436.391.391,0,0,0,.442.442,3.53,3.53,0,0,1,2.1.663,1.418,1.418,0,0,1,.442,1.1v.552c0,.221.11.552.331.552s.552-.11.552-.331.11-.552.11-.773a2.423,2.423,0,0,0-.773-1.878,3.616,3.616,0,0,0-2.32-.884,3.2,3.2,0,0,0-.994-1.768A3.939,3.939,0,0,0,71.729,9.5h0a3.491,3.491,0,0,0-3.535,2.652,3.488,3.488,0,0,0-2.1.773,2.51,2.51,0,0,0-.994,1.989A2.932,2.932,0,0,0,68.194,17.9Z" transform="translate(-44.33 -9.058)"/>
      </g>
    </g>
  </g>
</svg>
