<svg id="Layer_1" data-name="Layer 1" xmlns="http://www.w3.org/2000/svg" viewBox="0 0 134.51 53.37"><defs><style>.cls-1{fill:#f2674a;}.cls-2{fill:#fff;}</style></defs><title>Artboard 1 copy</title><path class="cls-1" d="M32.35,21H28.59L35.44,3.66a3.68,3.68,0,0,1,1.55-2,5.16,5.16,0,0,1,2.56-.56,5.09,5.09,0,0,1,2.53.56,3.55,3.55,0,0,1,1.52,2L50.17,21H46.39L40.47,5.31a1,1,0,0,0-1-.66,1,1,0,0,0-1,.66Z"/><path class="cls-2" d="M71.34,1.49V21H67.93V1.49Z"/><path class="cls-2" d="M102.12,1.49A7.58,7.58,0,0,1,105,2a5.53,5.53,0,0,1,2,1.27A4.93,4.93,0,0,1,108,5.1a6.91,6.91,0,0,1,.36,2.22,7.43,7.43,0,0,1-.23,1.83,6.07,6.07,0,0,1-.72,1.7,5.3,5.3,0,0,1-1.27,1.4,5.5,5.5,0,0,1-1.91.92L108.8,21H105l-4.45-7.54H95.48a.43.43,0,0,0-.49.49v7H91.58V13.28a3.26,3.26,0,0,1,.72-2.37,3.21,3.21,0,0,1,2.34-.72h7.6a3,3,0,0,0,1.24-.23,2.3,2.3,0,0,0,.84-.61,2.53,2.53,0,0,0,.48-.87,3.28,3.28,0,0,0,.16-1,2.7,2.7,0,0,0-.65-1.81,2.57,2.57,0,0,0-2.07-.77H91.55V1.49Z"/><path class="cls-2" d="M18.29,31.78v3.41H10.75a5.17,5.17,0,0,0-4.12,1.49q-1.29,1.49-1.29,4.87t1.27,4.84a5.16,5.16,0,0,0,4.13,1.49h7.54v3.41H10.75a8.55,8.55,0,0,1-6.54-2.41q-2.27-2.41-2.27-7.32t2.27-7.35a8.55,8.55,0,0,1,6.54-2.41Z"/><path class="cls-1" d="M41.55,31.78a7.58,7.58,0,0,1,2.83.48,5.54,5.54,0,0,1,2,1.27,4.92,4.92,0,0,1,1.13,1.86,6.91,6.91,0,0,1,.36,2.22,7.43,7.43,0,0,1-.23,1.83,6.11,6.11,0,0,1-.72,1.7,5.3,5.3,0,0,1-1.27,1.4,5.5,5.5,0,0,1-1.91.92l4.54,7.8H44.44L40,43.74H34.91a.43.43,0,0,0-.49.49v7H31V43.56a3.26,3.26,0,0,1,.72-2.37,3.21,3.21,0,0,1,2.34-.72h7.6a3,3,0,0,0,1.24-.23,2.3,2.3,0,0,0,.84-.61,2.54,2.54,0,0,0,.48-.87,3.24,3.24,0,0,0,.16-1A2.7,2.7,0,0,0,43.73,36a2.57,2.57,0,0,0-2.07-.77H31V31.78Z"/><path class="cls-2" d="M62.27,51.28H58.51l6.85-17.34a3.68,3.68,0,0,1,1.54-2,5.16,5.16,0,0,1,2.56-.56A5.09,5.09,0,0,1,72,32a3.56,3.56,0,0,1,1.52,2l6.59,17.34H76.31L70.39,35.59a1,1,0,0,0-1-.66,1,1,0,0,0-1,.66Z"/><path class="cls-2" d="M106.76,31.78v3.41H98.9a6.2,6.2,0,0,0-1.94.26,3.22,3.22,0,0,0-1.24.71,2.48,2.48,0,0,0-.65,1,4.23,4.23,0,0,0-.19,1.29v1.85h11.76v3.24H94.89v7.71H91.48V38.51a8.91,8.91,0,0,1,.39-2.7,5.34,5.34,0,0,1,1.26-2.12,5.89,5.89,0,0,1,2.24-1.4,9.59,9.59,0,0,1,3.31-.51Z"/><path class="cls-2" d="M132.76,31.78v3.41h-5.69V51.28h-3.44V35.18h-5.69V31.78Z"/></svg>