<?xml version="1.0" encoding="utf-8"?>
<!-- Generator: Adobe Illustrator 22.0.1, SVG Export Plug-In . SVG Version: 6.00 Build 0)  -->
<svg version="1.1"
	 id="svg2" inkscape:version="0.91 r13725" sodipodi:docname="google-play-badge.svg" xmlns:cc="http://creativecommons.org/ns#" xmlns:dc="http://purl.org/dc/elements/1.1/" xmlns:inkscape="http://www.inkscape.org/namespaces/inkscape" xmlns:rdf="http://www.w3.org/1999/02/22-rdf-syntax-ns#" xmlns:sodipodi="http://sodipodi.sourceforge.net/DTD/sodipodi-0.dtd" xmlns:svg="http://www.w3.org/2000/svg"
	 xmlns="http://www.w3.org/2000/svg" xmlns:xlink="http://www.w3.org/1999/xlink" x="0px" y="0px" viewBox="0 0 135.7 40"
	 style="enable-background:new 0 0 135.7 40;" xml:space="preserve">
<style type="text/css">
	.st0{fill:#FFFFFF;stroke:#FFFFFF;stroke-width:0.16;stroke-miterlimit:10;}
	.st1{fill:#FFFFFF;}
	.st2{fill:url(#path64_1_);}
	.st3{fill:url(#path78_1_);}
	.st4{fill:url(#path88_1_);}
	.st5{fill:url(#path104_1_);}
</style>
<sodipodi:namedview  bordercolor="#666666" borderopacity="1" gridtolerance="10" guidetolerance="10" id="namedview4" inkscape:current-layer="g10" inkscape:cx="93.965168" inkscape:cy="29.61582" inkscape:pageopacity="0" inkscape:pageshadow="2" inkscape:window-height="705" inkscape:window-maximized="1" inkscape:window-width="1366" inkscape:window-x="-8" inkscape:window-y="-8" inkscape:zoom="7.6276974" objecttolerance="10" pagecolor="#ffffff" showgrid="false">
	</sodipodi:namedview>
<g id="g10" transform="matrix(1.25,0,0,-1.25,-9.4247625,49.85025)" inkscape:groupmode="layer" inkscape:label="google-play-badge">
	<g id="g12" transform="matrix(1.0023923,0,0,0.99072975,-0.29664807,0)">
		<path id="path14" inkscape:connector-curvature="0" d="M112,8.1H12c-2.2,0-4,1.8-4,4v24c0,2.2,1.8,4,4,4h100c2.2,0,4-1.8,4-4v-24
			C116,9.9,114.2,8.1,112,8.1z"/>
		<g id="g18" transform="matrix(1,0,0,-1,0,48)">
			<path id="path20" inkscape:connector-curvature="0" class="st0" d="M45.9,16.1c0,0.7-0.2,1.2-0.6,1.6c-0.5,0.5-1,0.7-1.8,0.7
				c-0.7,0-1.3-0.2-1.8-0.7S41,16.6,41,15.9c0-0.7,0.2-1.3,0.7-1.8c0.5-0.5,1.1-0.7,1.8-0.7c0.3,0,0.7,0.1,1,0.2
				c0.3,0.1,0.6,0.3,0.8,0.5l-0.4,0.4c-0.3-0.4-0.8-0.6-1.3-0.6s-0.9,0.2-1.3,0.5c-0.4,0.4-0.6,0.8-0.6,1.4c0,0.6,0.2,1,0.6,1.4
				c0.4,0.4,0.8,0.5,1.3,0.5s1-0.2,1.3-0.5c0.2-0.2,0.4-0.6,0.4-1h-1.7v-0.6h2.3C45.9,15.9,45.9,16,45.9,16.1z"/>
		</g>
		<g id="g22" transform="matrix(1,0,0,-1,0,48)">
			<path id="path24" inkscape:connector-curvature="0" class="st0" d="M49.6,14.1h-2.2v1.5h2v0.6h-2v1.5h2.2v0.6h-2.8v-4.8h2.8
				C49.6,13.5,49.6,14.1,49.6,14.1z"/>
		</g>
		<g id="g26" transform="matrix(1,0,0,-1,0,48)">
			<path id="path28" inkscape:connector-curvature="0" class="st0" d="M52.2,18.3h-0.6v-4.2h-1.3v-0.6h3.3v0.6h-1.3v4.2H52.2z"/>
		</g>
		<g id="g30" transform="matrix(1,0,0,-1,0,48)">
			<path id="path32" inkscape:connector-curvature="0" class="st0" d="M55.9,18.3v-4.8h0.6v4.8H55.9z"/>
		</g>
		<g id="g34" transform="matrix(1,0,0,-1,0,48)">
			<path id="path36" inkscape:connector-curvature="0" class="st0" d="M59.3,18.3h-0.6v-4.2h-1.3v-0.6h3.3v0.6h-1.3
				C59.3,14.1,59.3,18.3,59.3,18.3z"/>
		</g>
		<g id="g38" transform="matrix(1,0,0,-1,0,48)">
			<path id="path40" inkscape:connector-curvature="0" class="st0" d="M66.9,17.7c-0.5,0.5-1.1,0.7-1.8,0.7s-1.3-0.2-1.8-0.7
				s-0.7-1.1-0.7-1.8c0-0.7,0.2-1.3,0.7-1.8c0.5-0.5,1.1-0.7,1.8-0.7c0.7,0,1.3,0.2,1.8,0.7c0.5,0.5,0.7,1.1,0.7,1.8
				C67.6,16.6,67.4,17.2,66.9,17.7z M63.8,17.3c0.4,0.4,0.8,0.5,1.3,0.5c0.5,0,0.9-0.2,1.3-0.5c0.4-0.4,0.6-0.8,0.6-1.4
				c0-0.6-0.2-1-0.5-1.4c-0.4-0.4-0.8-0.5-1.3-0.5c-0.5,0-0.9,0.2-1.3,0.5c-0.4,0.4-0.5,0.8-0.5,1.4C63.3,16.5,63.5,16.9,63.8,17.3z
				"/>
		</g>
		<g id="g42" transform="matrix(1,0,0,-1,0,48)">
			<path id="path44" inkscape:connector-curvature="0" class="st0" d="M68.5,18.3v-4.8h0.8l2.3,3.7l0,0v-0.9v-2.8h0.6v4.8h-0.6
				l-2.4-3.9l0,0v0.9v3C69.1,18.3,68.5,18.3,68.5,18.3z"/>
		</g>
		<path id="path46" inkscape:connector-curvature="0" class="st1" d="M62.5,22.7c-1.9,0-3.4-1.4-3.4-3.4s1.5-3.4,3.4-3.4
			c1.9,0,3.4,1.4,3.4,3.4S64.4,22.7,62.5,22.7z M62.5,17.2c-1,0-1.9,0.9-1.9,2.1s0.9,2.1,1.9,2.1s1.9-0.8,1.9-2.1
			C64.4,18.1,63.5,17.2,62.5,17.2z M55.1,22.7c-1.9,0-3.4-1.4-3.4-3.4s1.5-3.4,3.4-3.4s3.4,1.4,3.4,3.4S56.9,22.7,55.1,22.7z
			 M55.1,17.2c-1,0-1.9,0.9-1.9,2.1s0.9,2.1,1.9,2.1s1.9-0.8,1.9-2.1C57,18.1,56.1,17.2,55.1,17.2z M46.2,21.7v-1.4h3.5
			c-0.1-0.8-0.4-1.4-0.8-1.8c-0.5-0.5-1.3-1.1-2.7-1.1c-2.1,0-3.8,1.7-3.8,3.8s1.7,3.8,3.8,3.8c1.1,0,2-0.4,2.6-1l1,1
			c-0.9,0.8-2,1.5-3.6,1.5c-2.9,0-5.4-2.4-5.4-5.3s2.4-5.3,5.4-5.3c1.6,0,2.8,0.5,3.7,1.5c1,1,1.2,2.3,1.2,3.4c0,0.3,0,0.6-0.1,0.9
			C51.1,21.7,46.2,21.7,46.2,21.7z M82.4,20.5c-0.3,0.8-1.1,2.2-2.9,2.2s-3.2-1.4-3.2-3.4c0-1.9,1.4-3.4,3.4-3.4
			c1.6,0,2.5,1,2.8,1.5l-1.2,0.8c-0.4-0.6-0.9-0.9-1.7-0.9c-0.8,0-1.3,0.3-1.6,1l4.6,1.9C82.6,20.1,82.4,20.5,82.4,20.5z M77.8,19.4
			c0,1.3,1,2,1.8,2c0.6,0,1.1-0.3,1.3-0.7C80.8,20.7,77.8,19.4,77.8,19.4z M74.1,16.1h1.5v10h-1.5V16.1z M71.7,21.9L71.7,21.9
			c-0.4,0.4-1,0.8-1.8,0.8c-1.7,0-3.3-1.5-3.3-3.4s1.6-3.4,3.3-3.4c0.8,0,1.5,0.4,1.8,0.8h0.1v-0.5c0-1.3-0.7-2-1.8-2
			c-0.9,0-1.5,0.7-1.7,1.2L67,14.9c0.4-0.9,1.4-2,3-2c1.8,0,3.2,1,3.2,3.5v6.1h-1.4L71.7,21.9L71.7,21.9z M69.9,17.2
			c-1,0-1.9,0.9-1.9,2.1s0.9,2.1,1.9,2.1s1.8-0.9,1.8-2.1C71.8,18.1,71,17.2,69.9,17.2z M89.4,26.1h-3.6v-10h1.5v3.8h2.1
			c1.7,0,3.3,1.2,3.3,3.1C92.7,24.9,91.1,26.1,89.4,26.1z M89.5,21.3h-2.1v3.4h2.1c1.1,0,1.8-0.9,1.8-1.7
			C91.2,22.2,90.6,21.3,89.5,21.3z M98.7,22.7c-1.1,0-2.2-0.5-2.7-1.5l1.3-0.6c0.3,0.6,0.8,0.7,1.4,0.7c0.8,0,1.6-0.5,1.6-1.3v-0.1
			c-0.3,0.2-0.8,0.4-1.6,0.4c-1.4,0-2.9-0.8-2.9-2.2c0-1.3,1.2-2.2,2.5-2.2c1,0,1.6,0.5,1.9,1h0.1v-0.8h1.4v3.8
			C101.7,21.7,100.4,22.7,98.7,22.7z M98.5,17.2c-0.5,0-1.2,0.2-1.2,0.8c0,0.8,0.8,1.1,1.6,1.1c0.7,0,1-0.1,1.4-0.3
			C100.2,17.9,99.4,17.2,98.5,17.2z M107,22.5l-1.7-4.3h-0.1l-1.8,4.3h-1.6l2.7-6.1l-1.5-3.3h1.6l4.1,9.4H107z M93.5,16.1H95v10
			h-1.5V16.1z"/>
		<g id="g48">
			
				<linearGradient id="path64_1_" gradientUnits="userSpaceOnUse" x1="-34.14" y1="63.272" x2="-50.9224" y2="46.4896" gradientTransform="matrix(1.256 0 0 -1.2269 68.3376 92.7468)">
				<stop  offset="0" style="stop-color:#00A0FF"/>
				<stop  offset="6.599999e-03" style="stop-color:#00A1FF"/>
				<stop  offset="0.2601" style="stop-color:#00BEFF"/>
				<stop  offset="0.5122" style="stop-color:#00D2FF"/>
				<stop  offset="0.7604" style="stop-color:#00DFFF"/>
				<stop  offset="1" style="stop-color:#00E3FF"/>
			</linearGradient>
			<path id="path64" inkscape:connector-curvature="0" class="st2" d="M16.3,34.1c-0.2-0.2-0.4-0.6-0.4-1.1V15.3
				c0-0.5,0.1-0.9,0.4-1.1l0.1-0.1l9.9,9.9v0.2L16.3,34.1L16.3,34.1z"/>
		</g>
		<g id="g66">
			
				<linearGradient id="path78_1_" gradientUnits="userSpaceOnUse" x1="-26.4887" y1="55.9283" x2="-50.6856" y2="55.9283" gradientTransform="matrix(1.256 0 0 -1.2269 68.3376 92.7468)">
				<stop  offset="0" style="stop-color:#FFE000"/>
				<stop  offset="0.4087" style="stop-color:#FFBD00"/>
				<stop  offset="0.7754" style="stop-color:#FFA500"/>
				<stop  offset="1" style="stop-color:#FF9C00"/>
			</linearGradient>
			<path id="path78" inkscape:connector-curvature="0" class="st3" d="M29.6,20.7L26.3,24v0.2l3.3,3.3h0.1l3.9-2.2
				c1.1-0.6,1.1-1.7,0-2.3L29.6,20.7C29.7,20.7,29.6,20.7,29.6,20.7z"/>
		</g>
		<g id="g80">
			
				<linearGradient id="path88_1_" gradientUnits="userSpaceOnUse" x1="-37.5625" y1="59.8902" x2="-60.3208" y2="37.1319" gradientTransform="matrix(1.256 0 0 -1.2269 68.3376 92.7468)">
				<stop  offset="0" style="stop-color:#FF3A44"/>
				<stop  offset="1" style="stop-color:#C31162"/>
			</linearGradient>
			<path id="path88" inkscape:connector-curvature="0" class="st4" d="M29.7,20.7l-3.4,3.4l-10-10c0.4-0.4,1-0.4,1.7,0L29.7,20.7"/>
		</g>
		<g id="g90">
			
				<linearGradient id="path104_1_" gradientUnits="userSpaceOnUse" x1="-48.7493" y1="63.3662" x2="-38.5867" y2="53.2037" gradientTransform="matrix(1.256 0 0 -1.2269 68.3376 92.7468)">
				<stop  offset="0" style="stop-color:#32A071"/>
				<stop  offset="6.850000e-02" style="stop-color:#2DA771"/>
				<stop  offset="0.4762" style="stop-color:#15CF74"/>
				<stop  offset="0.8009" style="stop-color:#06E775"/>
				<stop  offset="1" style="stop-color:#00F076"/>
			</linearGradient>
			<path id="path104" inkscape:connector-curvature="0" class="st5" d="M29.7,27.5L18,34.1c-0.7,0.4-1.3,0.3-1.7-0.1l10-10
				L29.7,27.5z"/>
		</g>
	</g>
</g>
</svg>
