<?xml version="1.0" encoding="utf-8"?>
<!-- Generator: Adobe Illustrator 22.0.1, SVG Export Plug-In . SVG Version: 6.00 Build 0)  -->
<svg version="1.1" id="Layer_1" xmlns="http://www.w3.org/2000/svg" xmlns:xlink="http://www.w3.org/1999/xlink" x="0px" y="0px"
	 viewBox="0 0 20.7 30.4" style="enable-background:new 0 0 20.7 30.4;" xml:space="preserve">
<style type="text/css">
	.st0{fill:#FFCD00;}
	.st1{fill:none;}
</style>
<g id="Group_33139" transform="translate(1314 174)">
	<g id="Group_30646">
		<g id="Group_28577" transform="translate(22 270.947)">
			<g id="Group_3103" transform="translate(0)">
				<g id="Group_3102" transform="translate(0)">
					<path class="st0" d="M-1325.7-414.6l-0.6-0.9c-0.3-0.4-0.6-1-1-1.6c-3.2-4.8-8.7-13-8.7-17.5c0-5.7,4.6-10.4,10.4-10.4l0.1,0
						c2.8,0,5.3,1.1,7.3,3.1c1.9,2,3,4.6,3,7.3c0,5.2-5.8,13.4-8.9,17.9L-1325.7-414.6z M-1325.6-443.4c-4.9,0-8.9,4-8.9,8.9
						c0,4.1,5.5,12.3,8.4,16.7c0.2,0.2,0.3,0.5,0.4,0.7c0.1-0.1,0.1-0.2,0.2-0.3c3-4.3,8.6-12.3,8.6-17c0-2.4-0.9-4.6-2.5-6.3
						c-1.6-1.7-3.9-2.6-6.2-2.6L-1325.6-443.4L-1325.6-443.4z"/>
				</g>
			</g>
		</g>
	</g>
	<g id="Ellipse_2301" transform="translate(27 275.633)">
		<circle class="st1" cx="-1330.6" cy="-439.5" r="4.7"/>
		<path class="st0" d="M-1330.6-434.9c-2.6,0-4.7-2.1-4.7-4.7s2.1-4.7,4.7-4.7s4.7,2.1,4.7,4.7S-1328-434.9-1330.6-434.9z
			 M-1330.6-442.7c-1.7,0-3.2,1.4-3.2,3.2s1.4,3.2,3.2,3.2s3.2-1.4,3.2-3.2S-1328.9-442.7-1330.6-442.7z"/>
	</g>
</g>
</svg>
