<svg xmlns="http://www.w3.org/2000/svg" viewBox="815 591 17.053 19.829">
  <defs>
    <style>
      .cls-1 {
        fill: #fff;
      }
    </style>
  </defs>
  <g id="Group_35" data-name="Group 35" transform="translate(690.083 -289)">
    <g id="Group_34" data-name="Group 34" transform="translate(124.917 880)">
      <path id="Path_37" data-name="Path 37" class="cls-1" d="M0,8.4V20.139a1.338,1.338,0,0,0,1.19,1.428H15.863a1.338,1.338,0,0,0,1.19-1.428V8.4ZM4.124,20.377H1.031V17.283H4.124Zm0-3.886H1.031V13.4H4.124Zm0-3.886H1.031V9.51H4.124Zm3.886,7.773H4.918V17.283H8.011v3.093Zm0-3.886H4.918V13.4H8.011V16.49Zm0-3.886H4.918V9.51H8.011V12.6Zm3.966,7.773H8.883V17.283h3.093Zm0-3.886H8.883V13.4h3.093Zm0-3.886H8.883V9.51h3.093Zm3.886,7.773H12.69V17.283h3.173Zm0-3.886H12.69V13.4h3.173Zm0-3.886H12.69V9.51h3.173Z" transform="translate(0 -1.738)"/>
      <path id="Path_38" data-name="Path 38" class="cls-1" d="M15.863,2.538H12.928V.714A.648.648,0,0,0,12.294,0a.7.7,0,0,0-.635.714V2.538h-6.5V.714A.648.648,0,0,0,4.521,0a.641.641,0,0,0-.555.714V2.538H1.19A1.338,1.338,0,0,0,0,3.966V6.028H16.974V3.966A1.282,1.282,0,0,0,15.863,2.538ZM4.521,5.235a1.134,1.134,0,0,1-1.11-1.11,1.209,1.209,0,0,1,.555-.952v.555a.648.648,0,0,0,.635.714.7.7,0,0,0,.635-.714V3.173a1.038,1.038,0,0,1,.476.952A1.206,1.206,0,0,1,4.521,5.235Zm7.773,0a1.084,1.084,0,0,1-1.11-1.11,1.383,1.383,0,0,1,.476-.952v.555a.648.648,0,0,0,.635.714.7.7,0,0,0,.635-.714V3.173a1.038,1.038,0,0,1,.476.952A1.084,1.084,0,0,1,12.294,5.235Z"/>
    </g>
  </g>
</svg>
