<svg xmlns="http://www.w3.org/2000/svg" viewBox="-9415 -219.917 28.077 28.077">
  <defs>
    <style>
      .cls-1 {
        fill: #3fc0c2;
      }

      .cls-2 {
        fill: #fff;
      }
    </style>
  </defs>
  <g id="Group_5715" data-name="Group 5715" transform="translate(-9884 -1091)">
    <ellipse id="Ellipse_1530" data-name="Ellipse 1530" class="cls-1" cx="14.039" cy="14.039" rx="14.039" ry="14.039" transform="translate(469 871.083)"/>
    <path id="Path_45292" data-name="Path 45292" class="cls-2" d="M20.876,10.817l-7.138,9.068a1.813,1.813,0,0,1-1.392.673H12.3a1.946,1.946,0,0,1-1.347-.584L7.543,16.025a1.81,1.81,0,1,1,2.6-2.514.62.62,0,0,1,.135.18l1.975,2.334L18,8.662a1.835,1.835,0,0,1,2.514-.314,1.671,1.671,0,0,1,.359,2.469Z" transform="translate(468.957 871.336)"/>
  </g>
</svg>
