<svg xmlns="http://www.w3.org/2000/svg" viewBox="-3375.1 -8867.797 115.476 23.394">
  <defs>
    <style>
      .cls-1 {
        fill: #1d2d47;
      }
    </style>
  </defs>
  <g id="dronebase_logo_navy" transform="translate(-3375.1 -8867.797)">
    <path id="Path_34836" data-name="Path 34836" class="cls-1" d="M4.244,3.4H0V26.13H4.244a4.9,4.9,0,0,0,4.9-4.9V8.3A4.906,4.906,0,0,0,4.244,3.4ZM6.813,21.241A2.539,2.539,0,0,1,4.244,23.81H2.329V5.729H4.244A2.539,2.539,0,0,1,6.813,8.3Z" transform="translate(0 -3.073)"/>
    <path id="Path_34837" data-name="Path 34837" class="cls-1" d="M141.28,3.4H137.2V26.13h2.329V15.91h1.751l2.887,10.22H146.5L143.484,15.39a5.853,5.853,0,0,0,.943-.635,4.919,4.919,0,0,0,1.742-3.734V8.3A4.891,4.891,0,0,0,141.28,3.4Zm2.569,7.612a2.539,2.539,0,0,1-2.569,2.569h-1.751V5.729h1.751A2.539,2.539,0,0,1,143.85,8.3Z" transform="translate(-123.997 -3.073)"/>
    <path id="Path_34838" data-name="Path 34838" class="cls-1" d="M274.171,0A4.575,4.575,0,0,0,269.6,4.571V18.823a4.571,4.571,0,0,0,9.142,0V4.571A4.575,4.575,0,0,0,274.171,0Zm2.242,18.823a2.242,2.242,0,1,1-4.484,0V4.571a2.242,2.242,0,1,1,4.484,0Z" transform="translate(-243.656)"/>
    <path id="Path_34839" data-name="Path 34839" class="cls-1" d="M414.833,18.643,410.108,3.4H407.5V26.13h2.329V9.953l5.091,16.176h2.242V3.4h-2.329Z" transform="translate(-368.286 -3.073)"/>
    <path id="Path_34840" data-name="Path 34840" class="cls-1" d="M554.829,15.948h3.965V13.591h-3.965V5.729h5.37V3.4h-7.7V26.13h7.958V23.81h-5.629Z" transform="translate(-499.333 -3.073)"/>
    <path id="Path_34841" data-name="Path 34841" class="cls-1" d="M735.98,3.4H731.9V26.13h4.08a4.9,4.9,0,0,0,4.9-4.9V18.479a4.9,4.9,0,0,0-1.742-3.734,4.919,4.919,0,0,0,1.742-3.734V8.3A4.9,4.9,0,0,0,735.98,3.4Zm2.569,17.841a2.539,2.539,0,0,1-2.569,2.569h-1.751V15.92h1.751a2.539,2.539,0,0,1,2.569,2.569Zm0-10.229a2.539,2.539,0,0,1-2.569,2.569h-1.751V5.729h1.751A2.539,2.539,0,0,1,738.549,8.3Z" transform="translate(-661.469 -3.073)"/>
    <path id="Path_34842" data-name="Path 34842" class="cls-1" d="M857.39,3.4h-5.331l1.54,2.454L850.5,26.13h2.338l2.839-18.659,2.849,18.659h2.329Z" transform="translate(-768.656 -3.073)"/>
    <path id="Path_34843" data-name="Path 34843" class="cls-1" d="M987.671,0A4.575,4.575,0,0,0,983.1,4.571V6.043A5.016,5.016,0,0,0,984.158,9l5.206,6.188a2.676,2.676,0,0,1,.549,1.511v2.127a2.242,2.242,0,1,1-4.484,0V15.031L983.1,15.3v3.522a4.571,4.571,0,1,0,9.142,0V16.7a5.121,5.121,0,0,0-1.087-3.022l-5.206-6.2a2.418,2.418,0,0,1-.52-1.434V4.571a2.242,2.242,0,1,1,4.484,0v3.3l2.329-.269V4.571A4.575,4.575,0,0,0,987.671,0Z" transform="translate(-888.496)"/>
    <path id="Path_34844" data-name="Path 34844" class="cls-1" d="M1119.619,23.81V15.948h3.965V13.591h-3.965V5.729H1125V3.4h-7.7V26.13h7.958V23.81Z" transform="translate(-1009.782 -3.073)"/>
  </g>
</svg>
