<svg xmlns="http://www.w3.org/2000/svg" viewBox="3814 513.904 21.993 19.888">
  <defs>
    <style>
      .cls-1 {
        fill: #777;
      }
    </style>
  </defs>
  <g id="Group_4222" data-name="Group 4222" transform="translate(3814 513.904)">
    <path id="Path_2609" data-name="Path 2609" class="cls-1" d="M17.424,1.926V.672A.689.689,0,0,0,16.752,0H14.737a.689.689,0,0,0-.672.672V1.926H0V3.718H14.02V4.972a.689.689,0,0,0,.672.672h2.016a.689.689,0,0,0,.672-.672V3.718h4.569V1.926Z"/>
    <path id="Path_2610" data-name="Path 2610" class="cls-1" d="M17.424,32.472a.689.689,0,0,0-.672-.672H14.737a.689.689,0,0,0-.672.672v1.254H0v1.792H14.02v1.254a.689.689,0,0,0,.672.672h2.016a.689.689,0,0,0,.672-.672V35.518h4.569V33.726H17.424Z" transform="translate(0 -17.556)"/>
    <path id="Path_2611" data-name="Path 2611" class="cls-1" d="M7.839,16.472a.689.689,0,0,0-.672-.672H5.151a.689.689,0,0,0-.672.672v1.254H0v1.792H4.479v1.254a.689.689,0,0,0,.672.672H7.167a.689.689,0,0,0,.672-.672V19.518H21.993V17.726H7.839Z" transform="translate(0 -8.723)"/>
  </g>
</svg>
