<svg xmlns="http://www.w3.org/2000/svg" viewBox="0 0 134.891 150.587">
  <defs>
    <style>
      .cls-1 {
        fill: #fff;
      }

      .cls-2 {
        fill: #c5c9d0;
      }

      .cls-3, .cls-4 {
        fill: none;
        stroke: #c5c9d0;
        stroke-width: 1.5px;
      }

      .cls-4 {
        stroke-linecap: square;
        fill-rule: evenodd;
      }

      .cls-5 {
        fill: #f6b1a3;
      }
    </style>
  </defs>
  <g id="Group_60222" data-name="Group 60222" transform="translate(-14501.25 -2007)">
    <path id="Path_99204" data-name="Path 99204" class="cls-1" d="M16.541,988.375A6.528,6.528,0,0,0,10,994.916V1124.27a6.588,6.588,0,0,0,6.541,6.61h84.891a6.588,6.588,0,0,0,6.541-6.61V994.916a6.528,6.528,0,0,0-6.541-6.541Z" transform="translate(14528.168 1018.625)"/>
    <g id="noun_iPad_843729_000000" transform="translate(14538.168 2007)">
      <path id="Path_99204-2" data-name="Path 99204" class="cls-2" d="M58.95,1119.683a3.377,3.377,0,0,0,0,6.751,3.376,3.376,0,1,0,0-6.751Zm0,2.3a1.08,1.08,0,1,1,0,2.155,1.077,1.077,0,1,1,0-2.155ZM60.1,996.14a1.113,1.113,0,1,1-1.113-1.113A1.113,1.113,0,0,1,60.1,996.14Zm-45.646,6.68v113.588a1.157,1.157,0,0,0,1.113,1.113h86.839a1.157,1.157,0,0,0,1.113-1.113V1002.82a1.157,1.157,0,0,0-1.113-1.113H15.567A.993.993,0,0,0,14.453,1002.82Zm2.227,1.113h84.613v111.361H16.68Zm-.139-15.558A6.528,6.528,0,0,0,10,994.916V1124.27a6.588,6.588,0,0,0,6.541,6.61h84.891a6.588,6.588,0,0,0,6.541-6.61V994.916a6.528,6.528,0,0,0-6.541-6.541Zm0,2.227h84.891a4.258,4.258,0,0,1,4.314,4.314V1124.27a4.317,4.317,0,0,1-4.314,4.384H16.541a4.317,4.317,0,0,1-4.314-4.384V994.916a4.258,4.258,0,0,1,4.314-4.314Z" transform="translate(-10 -988.375)"/>
    </g>
    <rect id="Rectangle_9484" data-name="Rectangle 9484" class="cls-1" width="47.793" height="99.461" rx="4" transform="translate(14503.292 2057.376)"/>
    <g id="Group_60216" data-name="Group 60216" transform="translate(14502 2057.376)">
      <g id="noun_iPhone_1145318_000000" transform="translate(0 0)">
        <g id="Group_60215" data-name="Group 60215">
          <rect id="Rectangle_9482" data-name="Rectangle 9482" class="cls-3" width="47.793" height="99.461" rx="4" transform="translate(1.292)"/>
          <path id="Path_99200" data-name="Path 99200" class="cls-4" d="M31.5,38.083V35.5" transform="translate(-31.5 -4.499)"/>
          <path id="Path_99201" data-name="Path 99201" class="cls-4" d="M31.5,32.083V29.5" transform="translate(-31.5 -6.249)"/>
          <path id="Path_99203" data-name="Path 99203" class="cls-4" d="M48.5,17.568h6.459" transform="translate(-26.541 -9.73)"/>
          <circle id="Ellipse_2630" data-name="Ellipse 2630" class="cls-2" cx="1.292" cy="1.292" r="1.292" transform="translate(23.896 2.583)"/>
          <rect id="Rectangle_9483" data-name="Rectangle 9483" class="cls-3" width="40.043" height="73.195" transform="translate(5.167 12.917)"/>
          <circle id="Ellipse_2631" data-name="Ellipse 2631" class="cls-3" cx="3.229" cy="3.229" r="3.229" transform="translate(21.959 89.773)"/>
        </g>
      </g>
    </g>
    <g id="Group_60218" data-name="Group 60218" transform="translate(14511.042 2088.203)">
      <path id="Path_99175" data-name="Path 99175" class="cls-5" d="M30.011,45.7H1.446a1.446,1.446,0,0,0,0,2.891H30.011a1.432,1.432,0,0,0,1.446-1.446A1.469,1.469,0,0,0,30.011,45.7Z" transform="translate(0 -19.274)"/>
      <path id="Path_99176" data-name="Path 99176" class="cls-5" d="M14.461,10.293c.116-.058.173-.173.289-.289l4.568-4.568v15.9A1.555,1.555,0,0,0,20.88,22.9a1.58,1.58,0,0,0,1.561-1.561V5.436L27.009,10a1.555,1.555,0,0,0,2.2-.116,1.507,1.507,0,0,0,0-2.024L22.326.983c-.4-.347-.867-.983-1.5-.983s-.867.4-1.33.925L12.553,7.864A1.5,1.5,0,0,0,12.264,10,1.565,1.565,0,0,0,14.461,10.293Z" transform="translate(-5.036)"/>
    </g>
    <g id="Group_60219" data-name="Group 60219" transform="translate(14571.752 2059.786)">
      <path id="Path_99175-2" data-name="Path 99175" class="cls-5" d="M30.011,45.7H1.446a1.446,1.446,0,0,0,0,2.891H30.011a1.432,1.432,0,0,0,1.446-1.446A1.469,1.469,0,0,0,30.011,45.7Z" transform="translate(0 -19.274)"/>
      <path id="Path_99176-2" data-name="Path 99176" class="cls-5" d="M14.461,10.293c.116-.058.173-.173.289-.289l4.568-4.568v15.9A1.555,1.555,0,0,0,20.88,22.9a1.58,1.58,0,0,0,1.561-1.561V5.436L27.009,10a1.555,1.555,0,0,0,2.2-.116,1.507,1.507,0,0,0,0-2.024L22.326.983c-.4-.347-.867-.983-1.5-.983s-.867.4-1.33.925L12.553,7.864A1.5,1.5,0,0,0,12.264,10,1.565,1.565,0,0,0,14.461,10.293Z" transform="translate(-5.036)"/>
    </g>
  </g>
</svg>
