<?xml version="1.0" encoding="utf-8"?>
<!-- Generator: Adobe Illustrator 21.1.0, SVG Export Plug-In . SVG Version: 6.00 Build 0)  -->
<svg version="1.1" id="Layer_1" xmlns="http://www.w3.org/2000/svg" xmlns:xlink="http://www.w3.org/1999/xlink" x="0px" y="0px"
	 viewBox="0 0 86 42" style="enable-background:new 0 0 86 42;" xml:space="preserve">
<style type="text/css">
	.st0{fill:#EEEEEE;}
	.st1{fill:#777777;}
</style>
<g>
	<rect x="12" y="11" class="st0" width="8.8" height="8.8"/>
	<rect x="12" y="22.2" class="st0" width="8.8" height="8.9"/>
	<rect x="23.4" y="11" class="st0" width="8.8" height="8.8"/>
	<rect x="23.4" y="22.2" class="st0" width="8.8" height="8.9"/>
	<rect x="58" y="11" class="st1" width="18" height="4"/>
	<rect x="58" y="19" class="st1" width="18" height="4"/>
	<rect x="58" y="27" class="st1" width="18" height="4"/>
	<rect x="51" y="11" class="st1" width="4" height="4"/>
	<rect x="51" y="19" class="st1" width="4" height="4"/>
	<rect x="51" y="27" class="st1" width="4" height="4"/>
	<path class="st0" d="M84,0H44h-2H2C0.9,0,0,0.9,0,2v38c0,1.1,0.9,2,2,2h32h17h33c1.1,0,2-0.9,2-2V2C86,0.9,85.1,0,84,0z M42,40h-8
		H2c0,0,0,0,0,0L2,2h0c0,0,0,0,0,0l40,0h0V40z M51,40h-7V2h40l0,38c0,0,0,0,0,0H51z"/>
</g>
</svg>
