<svg xmlns="http://www.w3.org/2000/svg" viewBox="-8003.999 -8864.934 26.346 30.935">
  <defs>
    <style>
      .cls-1 {
        fill: #009c9f;
      }

      .cls-2 {
        fill: #fff;
      }
    </style>
  </defs>
  <g id="notification_bell" transform="translate(-8016.6 -8870.934)">
    <path id="Union_1605" data-name="Union 1605" class="cls-1" d="M8025.737,8898.439h-6.422a2.713,2.713,0,0,1-1.521-4.96c.9-.579,2.388-2.569,2.388-9.084,0-6.079,3.693-8.541,6.407-9.517a4.516,4.516,0,0,1-.074-.688,3.257,3.257,0,0,1,6.515,0,4.511,4.511,0,0,1-.071.688c2.714,1.012,6.405,3.438,6.405,9.517,0,6.479,1.483,8.47,2.388,9.084a2.712,2.712,0,0,1-1.52,4.96h-5.7a4.536,4.536,0,0,1-8.8,0Zm4.4,1.981a3.067,3.067,0,0,0,2.788-1.81h-5.574A3.064,3.064,0,0,0,8030.135,8900.421Zm-8.505-15.987c0,5.465-1.012,8.9-3,10.276a1.22,1.22,0,0,0-.579,1.051,1.282,1.282,0,0,0,1.267,1.267h20.917a1.276,1.276,0,0,0,1.267-1.231,1.313,1.313,0,0,0-.579-1.05,3.988,3.988,0,0,1-.979-.94h-15.6a.724.724,0,1,1,0-1.447h14.8a20.4,20.4,0,0,1-1.2-7.889c0-5.5-3.4-7.6-6.224-8.4h-.036a6.13,6.13,0,0,0-1.883-.288,6.955,6.955,0,0,0-1.917.253h-.036C8025.032,8876.833,8021.629,8878.931,8021.629,8884.434Zm9.917-9.953a.811.811,0,0,0,.036-.29,1.792,1.792,0,0,0-1.81-1.81,1.847,1.847,0,0,0-1.845,1.81c0,.109.036.181.036.29a9.5,9.5,0,0,1,1.84-.183A8.193,8.193,0,0,1,8031.546,8874.48Z" transform="translate(-8004 -8864.934)"/>
    <path id="Path_34705" data-name="Path 34705" class="cls-2" d="M28.439,64.434c0-.036-.036-.072-.072-.109s-.036-.072-.072-.109a.7.7,0,0,0-1.013,0c-.036.036-.072.072-.072.109-.036.036-.036.072-.072.109s-.036.072-.036.145v.145a.715.715,0,0,0,.217.507.584.584,0,0,0,.47.217.715.715,0,0,0,.507-.217.757.757,0,0,0,.145-.217.682.682,0,0,0,.072-.29v-.145C28.475,64.543,28.475,64.47,28.439,64.434Z" transform="translate(-9.252 -37.647)"/>
  </g>
</svg>
