<svg xmlns="http://www.w3.org/2000/svg" viewBox="-7954 -8864.934 26.347 27.505">
  <defs>
    <style>
      .cls-1 {
        fill: #1d2d47;
      }
    </style>
  </defs>
  <path id="Path_34703" data-name="Path 34703" class="cls-1" d="M37.753,27.547c-.9-.615-2.389-2.606-2.389-9.084,0-6.08-3.691-8.5-6.406-9.518a4.434,4.434,0,0,0,.072-.688,3.257,3.257,0,1,0-6.514,0,4.434,4.434,0,0,0,.072.688c-2.714.977-6.406,3.438-6.406,9.518,0,6.514-1.484,8.5-2.389,9.084a2.711,2.711,0,0,0,1.52,4.958H36.233a2.711,2.711,0,0,0,1.52-4.958ZM25.774,6.448a1.792,1.792,0,0,1,1.81,1.81.8.8,0,0,1-.036.29,8.958,8.958,0,0,0-3.583,0c0-.109-.036-.181-.036-.29A1.846,1.846,0,0,1,25.774,6.448ZM36.233,31.094H15.314a1.282,1.282,0,0,1-1.267-1.267,1.215,1.215,0,0,1,.579-1.05c1.991-1.375,3-4.813,3-10.278,0-5.5,3.4-7.6,6.225-8.4h.036A6.955,6.955,0,0,1,25.81,9.85a6.119,6.119,0,0,1,1.882.29h.036c2.823.8,6.225,2.9,6.225,8.4a20.383,20.383,0,0,0,1.194,7.89h-14.8a.724.724,0,0,0,0,1.448h15.6a4,4,0,0,0,.977.941,1.31,1.31,0,0,1,.579,1.05A1.276,1.276,0,0,1,36.233,31.094Z" transform="translate(-7966.6 -8869.934)"/>
</svg>
