<svg xmlns="http://www.w3.org/2000/svg" viewBox="8494.001 -8864.934 26.346 30.935">
  <defs>
    <style>
      .cls-1 {
        fill: #1f2b45;
      }
    </style>
  </defs>
  <path id="Union_1606" data-name="Union 1606" class="cls-1" d="M-8472.263,8898.439h-6.423a2.711,2.711,0,0,1-2.714-2.715,2.719,2.719,0,0,1,1.192-2.245c.907-.579,2.391-2.569,2.391-9.084,0-6.079,3.69-8.541,6.405-9.517a4.45,4.45,0,0,1-.071-.688,3.243,3.243,0,0,1,3.257-3.257,3.244,3.244,0,0,1,3.258,3.257,4.456,4.456,0,0,1-.074.688c2.715,1.012,6.405,3.438,6.405,9.517,0,6.479,1.483,8.47,2.391,9.084a2.719,2.719,0,0,1,1.192,2.245,2.733,2.733,0,0,1-2.714,2.715h-5.7a4.552,4.552,0,0,1-4.4,3.429A4.554,4.554,0,0,1-8472.263,8898.439Zm4.4,1.981a3.063,3.063,0,0,0,2.785-1.81h-5.573A3.066,3.066,0,0,0-8467.863,8900.421Zm-8.506-15.987c0,5.465-1.014,8.9-3,10.276a1.22,1.22,0,0,0-.579,1.051,1.282,1.282,0,0,0,1.267,1.267h20.918a1.276,1.276,0,0,0,1.267-1.231,1.312,1.312,0,0,0-.579-1.05,3.96,3.96,0,0,1-.976-.94h-15.6a.726.726,0,0,1-.724-.722.727.727,0,0,1,.724-.726h14.8a20.41,20.41,0,0,1-1.193-7.889c0-5.5-3.4-7.6-6.226-8.4h-.036a6.126,6.126,0,0,0-1.881-.288,6.957,6.957,0,0,0-1.919.253h-.036C-8472.969,8876.833-8476.369,8878.931-8476.369,8884.434Zm9.915-9.953a.762.762,0,0,0,.038-.29,1.794,1.794,0,0,0-1.81-1.81,1.849,1.849,0,0,0-1.848,1.81c0,.109.038.181.038.29a9.466,9.466,0,0,1,1.838-.183A8.189,8.189,0,0,1-8466.454,8874.48Z" transform="translate(16975.4 -17735.867)"/>
</svg>
