<svg xmlns="http://www.w3.org/2000/svg" viewBox="-7686.383 -8787 51 51">
  <defs>
    <style>
      .cls-1 {
        fill: #3fc0c2;
      }

      .cls-2 {
        fill: #fff;
      }
    </style>
  </defs>
  <g id="Group_59677" data-name="Group 59677" transform="translate(-9527 -8804)">
    <circle id="Ellipse_2561" data-name="Ellipse 2561" class="cls-1" cx="25.5" cy="25.5" r="25.5" transform="translate(1840.617 17)"/>
    <g id="pilot_icon_white_stroke" transform="translate(1845 -929.362)">
      <path id="Path_34707" data-name="Path 34707" class="cls-2" d="M20.845,5c-2.767,0-5.724.929-7.322,2.925A.867.867,0,0,0,13.5,8.972l1.3,1.815a17.5,17.5,0,0,0,1.6,7.448c.1.194.2.385.307.569l-4.288,1.869A5.53,5.53,0,0,0,9,25.8v4.333A.867.867,0,0,0,9.867,31H28.934a.867.867,0,1,0,0-1.733H24.447l-1.571-8.125a5.359,5.359,0,0,0,1.074-.9l4.64,2.022A3.646,3.646,0,0,1,30.956,25.8v4.333a.867.867,0,1,0,1.733,0V25.8a5.53,5.53,0,0,0-3.413-5.128L24.988,18.8c.106-.183.21-.374.307-.569a17.5,17.5,0,0,0,1.6-7.448l1.3-1.815a.867.867,0,0,0-.027-1.047C26.569,5.929,23.612,5,20.845,5Zm0,1.733a8.744,8.744,0,0,1,5.489,1.86L25.6,9.622H16.087l-.731-1.029A8.744,8.744,0,0,1,20.845,6.733Zm-3.792,4.622h7.583a2.761,2.761,0,0,1-.822.876,5.572,5.572,0,0,1-5.94,0A2.761,2.761,0,0,1,17.053,11.356Zm-.3,2.2c.04.03.077.062.117.09a6.894,6.894,0,0,0,3.972,1.174,6.894,6.894,0,0,0,3.972-1.174c.041-.029.078-.061.117-.09a13.843,13.843,0,0,1-1.192,3.9c-.862,1.724-1.93,2.564-2.9,2.564s-2.036-.84-2.9-2.564A13.843,13.843,0,0,1,16.755,13.558Zm.984,6.681a5.359,5.359,0,0,0,1.074.9l-1.571,8.125H10.733V25.8A3.646,3.646,0,0,1,13.1,22.261Zm2.726,1.5a3.99,3.99,0,0,0,.758,0l1.453,7.529H19.012Z" transform="translate(0 952.362)"/>
    </g>
  </g>
</svg>
