<?xml version="1.0" encoding="utf-8"?>
<!-- Generator: Adobe Illustrator 23.0.1, SVG Export Plug-In . SVG Version: 6.00 Build 0)  -->
<svg version="1.1" id="Capa_1" xmlns="http://www.w3.org/2000/svg" xmlns:xlink="http://www.w3.org/1999/xlink" x="0px" y="0px"
	 viewBox="0 0 284.9 284.9" style="enable-background:new 0 0 284.9 284.9;" xml:space="preserve">
<style type="text/css">
	.st0{fill:#8D95A2;}
	.st1{fill:none;}
</style>
<g>
	<path class="st0" d="M89.6,282.1l133-133.1c1.9-1.9,2.9-4.1,2.9-6.6s-1-4.7-2.9-6.6l-133-133C87.7,0.9,85.6,0,83.1,0
		c-2.5,0-4.7,1-6.6,2.9L62.2,17.1c-1.9,1.9-2.9,4.1-2.9,6.6c0,2.5,1,4.7,2.9,6.6l112.2,112.2L62.2,254.7c-1.9,1.9-2.8,4.1-2.8,6.6
		c0,2.5,1,4.7,2.8,6.6l14.3,14.3c1.9,1.9,4.1,2.8,6.6,2.8C85.6,284.9,87.7,284,89.6,282.1z"/>
</g>
<rect x="0" y="0" transform="matrix(-3.213177e-07 1 -1 -3.213177e-07 284.929 9.155276e-05)" class="st1" width="284.9" height="284.9"/>
</svg>
