<svg xmlns="http://www.w3.org/2000/svg" viewBox="1329.504 87.439 24.168 25.83">
  <defs>
    <style>
      .cls-1 {
        fill: #1d2d47;
      }
    </style>
  </defs>
  <g id="Group_59738" data-name="Group 59738" transform="translate(1329.507 87.539)">
    <path id="Path_97937" data-name="Path 97937" class="cls-1" d="M37.317,18.238l-1.872-1.872a.626.626,0,0,0-.458-.166,1.386,1.386,0,0,0-.915.458L25.129,25.6,22.8,30.883l5.283-2.329,8.943-8.9a1.6,1.6,0,0,0,.458-.915A.663.663,0,0,0,37.317,18.238Zm-9.692,9.608-2.662,1.165a.87.87,0,0,0-.166-.25l-.083-.083,1.123-2.62.291-.291a.81.81,0,0,1,.79.873.25.25,0,0,1-.042.166s1-.208,1.04.707Zm3.036-5.116-2.5,2.5a.441.441,0,0,1-.624-.624l2.5-2.5a.441.441,0,1,1,.624.624Zm1.955.125-1.789-1.789,1.123-1.123,1.789,1.789ZM34.946,18.4,33.531,19.86a.441.441,0,1,1-.624-.624l1.456-1.456a.428.428,0,1,1,.582.624Z" transform="translate(-13.318 -9.52)"/>
    <path id="Path_97938" data-name="Path 97938" class="cls-1" d="M18.092,8.053a.64.64,0,0,0,.624-.624V6.306A2.672,2.672,0,0,0,16.1,3.644h-2.7a.727.727,0,0,0-.749-.416h-.832s-1,.042-1-.79V.773S10.855-.1,9.149-.1c0,0-1.664.042-1.664.832V2.4a.772.772,0,0,1-.582.832H5.946a.97.97,0,0,0-.707.416h-2.7A2.665,2.665,0,0,0,0,6.347H0V23.11a2.557,2.557,0,0,0,2.5,2.62H16.1a2.61,2.61,0,0,0,2.62-2.62v-4.7a.624.624,0,1,0-1.248,0v4.7A1.444,1.444,0,0,1,16.1,24.483H2.536A1.37,1.37,0,0,1,1.246,23.11V6.347A1.379,1.379,0,0,1,2.536,4.933H4.241a.783.783,0,0,0,.707.832h8.527s.873,0,.873-.79V4.933h1.705a1.482,1.482,0,0,1,1.373,1.414V7.429a.678.678,0,0,0,.666.624ZM9.149,2.479a.832.832,0,1,1,.832-.832A.834.834,0,0,1,9.149,2.479Z" transform="translate(0)"/>
    <path id="Path_97939" data-name="Path 97939" class="cls-1" d="M19.275,23.248H10.124a.624.624,0,0,1,0-1.248h9.151a.624.624,0,1,1,0,1.248Z" transform="translate(-5.55 -12.908)"/>
    <path id="Path_97940" data-name="Path 97940" class="cls-1" d="M15.947,31.248H10.124a.624.624,0,0,1,0-1.248h5.823a.624.624,0,1,1,0,1.248Z" transform="translate(-5.55 -17.58)"/>
    <path id="Path_97941" data-name="Path 97941" class="cls-1" d="M13.452,39.248H10.124a.624.624,0,1,1,0-1.248h3.328a.624.624,0,1,1,0,1.248Z" transform="translate(-5.55 -22.252)"/>
    <path id="Path_97942" data-name="Path 97942" class="cls-1" d="M11.372,47.248H10.124a.624.624,0,0,1,0-1.248h1.248a.624.624,0,0,1,0,1.248Z" transform="translate(-5.55 -26.925)"/>
  </g>
</svg>
