<?xml version="1.0" encoding="utf-8"?>
<!-- Generator: Adobe Illustrator 22.1.0, SVG Export Plug-In . SVG Version: 6.00 Build 0)  -->
<svg version="1.1" id="Layer_1" xmlns="http://www.w3.org/2000/svg" xmlns:xlink="http://www.w3.org/1999/xlink" x="0px" y="0px"
	 viewBox="0 0 15 15" style="enable-background:new 0 0 15 15;" xml:space="preserve">
<style type="text/css">
	.st0{fill:none;}
	.st1{fill:#8E96A3;}
</style>
<g id="Rectangle_5">
	<path class="st0" d="M3,0h9c1.7,0,3,1.3,3,3v9c0,1.7-1.3,3-3,3H3c-1.7,0-3-1.3-3-3V3C0,1.3,1.3,0,3,0z"/>
	<path class="st1" d="M12,15H3c-1.7,0-3-1.3-3-3V3c0-1.7,1.3-3,3-3h9c1.7,0,3,1.3,3,3v9C15,13.7,13.7,15,12,15z M3,1
		C1.9,1,1,1.9,1,3v9c0,1.1,0.9,2,2,2h9c1.1,0,2-0.9,2-2V3c0-1.1-0.9-2-2-2H3z"/>
</g>
</svg>
