<svg xmlns="http://www.w3.org/2000/svg" viewBox="13136 912.5 19.285 16.8">
  <defs>
    <style>
      .cls-1 {
        fill: #356b90;
      }
    </style>
  </defs>
  <g id="Group_44" data-name="Group 44" transform="translate(13136 912.5)">
    <path id="Path_16" data-name="Path 16" class="cls-1" d="M18.543,22a.744.744,0,0,0-.742.742v4.413a1.994,1.994,0,0,1-2,2H3.523a2.019,2.019,0,0,1-2.04-1.966v-4.45a.742.742,0,1,0-1.483,0v4.413a3.482,3.482,0,0,0,3.486,3.486H15.762a3.506,3.506,0,0,0,3.523-3.449v-4.45A.744.744,0,0,0,18.543,22Z" transform="translate(0 -13.841)"/>
    <path id="Path_17" data-name="Path 17" class="cls-1" d="M14.666,5.489c.037-.037.111-.074.148-.148l2.448-2.448v8.122a.823.823,0,0,0,.816.816.738.738,0,0,0,.593-.26.875.875,0,0,0,.26-.593V2.93l2.448,2.448a.819.819,0,0,0,1.15-.074.84.84,0,0,0,0-1.075L18.856.556C18.671.334,18.411,0,18.078,0s-.445.223-.7.482L13.664,4.191a.825.825,0,0,0-.148,1.15A.793.793,0,0,0,14.666,5.489Z" transform="translate(-8.398)"/>
  </g>
</svg>
