<svg xmlns="http://www.w3.org/2000/svg" xmlns:xlink="http://www.w3.org/1999/xlink" viewBox="0 0 226 100">
  <defs>
    <style>
      .cls-1, .cls-3, .cls-9 {
        fill: none;
      }

      .cls-1 {
        stroke: #707070;
      }

      .cls-2 {
        clip-path: url(#clip-path);
      }

      .cls-3, .cls-5 {
        stroke: #8d95a2;
        stroke-width: 2.5px;
      }

      .cls-3 {
        opacity: 0.938;
      }

      .cls-4, .cls-6 {
        fill: #8d95a2;
      }

      .cls-5 {
        fill: #fff;
      }

      .cls-6 {
        font-size: 20px;
        font-family: Roboto-Medium, Roboto;
        font-weight: 500;
      }

      .cls-7 {
        fill: #c5c9d0;
      }

      .cls-8 {
        stroke: none;
      }
    </style>
    <clipPath id="clip-path">
      <rect id="Rectangle_8768" data-name="Rectangle 8768" class="cls-1" width="226" height="100" transform="translate(845 629)"/>
    </clipPath>
  </defs>
  <g id="Mask_Group_1146" data-name="Mask Group 1146" class="cls-2" transform="translate(-845 -629)">
    <g id="Group_65791" data-name="Group 65791">
      <g id="Group_65765" data-name="Group 65765" transform="translate(0)">
        <g id="Group_65683" data-name="Group 65683" transform="translate(20 7)">
          <g id="Ellipse_2633" data-name="Ellipse 2633" class="cls-3" transform="translate(893 627)">
            <circle class="cls-8" cx="45.102" cy="45.102" r="45.102"/>
            <circle class="cls-9" cx="45.102" cy="45.102" r="43.852"/>
          </g>
          <g id="Group_65675" data-name="Group 65675" transform="translate(922.003 646.1)">
            <path id="Path_97937" data-name="Path 97937" class="cls-4" d="M48.664,19.831,45.329,16.5a1.114,1.114,0,0,0-.815-.3,2.47,2.47,0,0,0-1.63.815L26.95,32.948,22.8,42.36l9.412-4.15L48.145,22.351a2.859,2.859,0,0,0,.815-1.63A1.181,1.181,0,0,0,48.664,19.831ZM31.4,36.95l-4.743,2.075a1.55,1.55,0,0,0-.3-.445l-.148-.148,2-4.669.519-.519A1.443,1.443,0,0,1,30.137,34.8a.446.446,0,0,1-.074.3s1.779-.371,1.853,1.26Zm5.41-9.115L32.36,32.282a.786.786,0,0,1-1.112-1.112l4.446-4.447a.786.786,0,0,1,1.112,1.112Zm3.483.222L37.1,24.871l2-2,3.187,3.187Zm4.15-7.93-2.52,2.594a.786.786,0,1,1-1.112-1.112L43.4,19.016a.762.762,0,1,1,1.038,1.112Z" transform="translate(-5.904 -4.22)"/>
            <path id="Path_97938" data-name="Path 97938" class="cls-4" d="M32.236,14.425a1.14,1.14,0,0,0,1.112-1.112v-2A4.761,4.761,0,0,0,28.679,6.57H23.862a1.3,1.3,0,0,0-1.334-.741H21.046s-1.779.074-1.779-1.408V1.456S19.342-.1,16.3-.1c0,0-2.964.074-2.964,1.482V4.346A1.376,1.376,0,0,1,12.3,5.829H10.6a1.729,1.729,0,0,0-1.26.741H4.52A4.749,4.749,0,0,0,0,11.387H0V41.252a4.555,4.555,0,0,0,4.447,4.669H28.679a4.649,4.649,0,0,0,4.669-4.669V32.878a1.112,1.112,0,0,0-2.223,0v8.374A2.572,2.572,0,0,1,28.679,43.7H4.52a2.441,2.441,0,0,1-2.3-2.446V11.387a2.456,2.456,0,0,1,2.3-2.52H7.558a1.4,1.4,0,0,0,1.26,1.482H24.01s1.556,0,1.556-1.408V8.867h3.038a2.641,2.641,0,0,1,2.446,2.52v1.927a1.208,1.208,0,0,0,1.186,1.112ZM16.3,4.495a1.482,1.482,0,1,1,1.482-1.482A1.487,1.487,0,0,1,16.3,4.495Z" transform="translate(0 0)"/>
            <path id="Path_97939" data-name="Path 97939" class="cls-4" d="M26.915,24.223h-16.3a1.112,1.112,0,1,1,0-2.223h16.3a1.112,1.112,0,0,1,0,2.223Z" transform="translate(-2.46 -5.722)"/>
            <path id="Path_97940" data-name="Path 97940" class="cls-4" d="M20.987,32.223H10.612a1.112,1.112,0,0,1,0-2.223H20.987a1.112,1.112,0,1,1,0,2.223Z" transform="translate(-2.46 -7.793)"/>
            <path id="Path_97941" data-name="Path 97941" class="cls-4" d="M16.54,40.223H10.612a1.112,1.112,0,0,1,0-2.223H16.54a1.112,1.112,0,1,1,0,2.223Z" transform="translate(-2.46 -9.865)"/>
            <path id="Path_97942" data-name="Path 97942" class="cls-4" d="M12.835,48.223H10.612a1.112,1.112,0,0,1,0-2.223h2.223a1.112,1.112,0,0,1,0,2.223Z" transform="translate(-2.46 -11.936)"/>
          </g>
        </g>
        <g id="Group_65693" data-name="Group 65693" transform="translate(973.465 688)">
          <path id="Path_98350" data-name="Path 98350" class="cls-5" d="M17.723,35.446A17.723,17.723,0,1,1,35.446,17.723h0A17.69,17.69,0,0,1,17.723,35.446Z" transform="translate(0 0)"/>
        </g>
        <text id="_2" data-name="2" class="cls-6" transform="translate(991 713)"><tspan x="-5.684" y="0">2</tspan></text>
      </g>
      <circle id="Ellipse_2720" data-name="Ellipse 2720" class="cls-7" cx="4" cy="4" r="4" transform="translate(865 673)"/>
      <circle id="Ellipse_2723" data-name="Ellipse 2723" class="cls-7" cx="4" cy="4" r="4" transform="translate(841 673)"/>
      <circle id="Ellipse_2720-2" data-name="Ellipse 2720" class="cls-7" cx="4" cy="4" r="4" transform="translate(889 673)"/>
      <circle id="Ellipse_2720-3" data-name="Ellipse 2720" class="cls-7" cx="4" cy="4" r="4" transform="translate(1019 673)"/>
      <circle id="Ellipse_2720-4" data-name="Ellipse 2720" class="cls-7" cx="4" cy="4" r="4" transform="translate(1043 673)"/>
      <circle id="Ellipse_2720-5" data-name="Ellipse 2720" class="cls-7" cx="4" cy="4" r="4" transform="translate(1067 673)"/>
    </g>
  </g>
</svg>
