<svg xmlns="http://www.w3.org/2000/svg" xmlns:xlink="http://www.w3.org/1999/xlink" viewBox="0 0 226 100">
  <defs>
    <style>
      .cls-1, .cls-3 {
        fill: none;
      }

      .cls-1 {
        stroke: #707070;
      }

      .cls-2 {
        clip-path: url(#clip-path);
      }

      .cls-4, .cls-6, .cls-9 {
        fill: #8d95a2;
      }

      .cls-4 {
        stroke: #fff;
        stroke-width: 0.5px;
      }

      .cls-5 {
        fill: #fff;
      }

      .cls-6 {
        font-size: 20px;
        font-family: Roboto-Medium, Roboto;
        font-weight: 500;
      }

      .cls-7 {
        fill: #c5c9d0;
      }

      .cls-8, .cls-9 {
        stroke: none;
      }
    </style>
    <clipPath id="clip-path">
      <rect id="Rectangle_8767" data-name="Rectangle 8767" class="cls-1" width="226" height="100" transform="translate(619 629)"/>
    </clipPath>
  </defs>
  <g id="Mask_Group_1145" data-name="Mask Group 1145" class="cls-2" transform="translate(-619 -629)">
    <g id="Group_65790" data-name="Group 65790">
      <g id="Group_65764" data-name="Group 65764" transform="translate(-6.617)">
        <g id="Path_98360" data-name="Path 98360" class="cls-3" transform="translate(694.617 634)">
          <path class="cls-8" d="M45.1,0A45.1,45.1,0,1,1,0,45.1,45.1,45.1,0,0,1,45.1,0Z"/>
          <path class="cls-9" d="M 45.10211181640625 87.70423126220703 C 50.85445785522461 87.70423126220703 56.43341827392578 86.57819366455078 61.68401718139648 84.35737609863281 C 66.75673675537109 82.2117919921875 71.31304168701172 79.13967132568359 75.22636413574219 75.22636413574219 C 79.13967132568359 71.31304168701172 82.2117919921875 66.75673675537109 84.35737609863281 61.68401718139648 C 86.57819366455078 56.43341827392578 87.70423126220703 50.85445785522461 87.70423126220703 45.10211181640625 C 87.70423126220703 39.34976577758789 86.57819366455078 33.77080535888672 84.35737609863281 28.52021789550781 C 82.2117919921875 23.44748497009277 79.13967132568359 18.89117813110352 75.22636413574219 14.97787189483643 C 71.31304168701172 11.06456470489502 66.75673675537109 7.99244499206543 61.68401718139648 5.846858501434326 C 56.43341827392578 3.626045227050781 50.85445785522461 2.50000524520874 45.10211181640625 2.50000524520874 C 39.34976577758789 2.50000524520874 33.77080535888672 3.626045227050781 28.52021789550781 5.846858501434326 C 23.44748497009277 7.99244499206543 18.89117813110352 11.06456470489502 14.97787189483643 14.97787189483643 C 11.06456470489502 18.89117813110352 7.99244499206543 23.44748497009277 5.846858501434326 28.52021789550781 C 3.626045227050781 33.77080535888672 2.50000524520874 39.34976577758789 2.50000524520874 45.10211181640625 C 2.50000524520874 50.85445785522461 3.626045227050781 56.43341827392578 5.846858501434326 61.68401718139648 C 7.99244499206543 66.75673675537109 11.06456470489502 71.31304168701172 14.97787189483643 75.22636413574219 C 18.89117813110352 79.13967132568359 23.44748497009277 82.2117919921875 28.52021789550781 84.35737609863281 C 33.77080535888672 86.57819366455078 39.34976577758789 87.70423126220703 45.10211181640625 87.70423126220703 M 45.10211181640625 90.20423126220703 C 20.19289779663086 90.20423126220703 5.149739536136622e-06 70.01132202148438 5.149739536136622e-06 45.10211181640625 C 5.149739536136622e-06 20.19289779663086 20.19289779663086 5.149739536136622e-06 45.10211181640625 5.149739536136622e-06 C 70.01132202148438 5.149739536136622e-06 90.20423126220703 20.19289779663086 90.20423126220703 45.10211181640625 C 90.20423126220703 70.01132202148438 70.01132202148438 90.20423126220703 45.10211181640625 90.20423126220703 Z"/>
        </g>
        <g id="pilot_icon_white_stroke" transform="translate(717.872 653)">
          <path id="Path_34707" data-name="Path 34707" class="cls-4" d="M30.365,5c-4.991,0-10.326,1.675-13.206,5.276a1.563,1.563,0,0,0-.049,1.889l2.345,3.273a31.572,31.572,0,0,0,2.882,13.434c.175.35.362.7.554,1.026l-7.735,3.371A9.975,9.975,0,0,0,9,42.518v7.816A1.563,1.563,0,0,0,10.563,51.9H44.955a1.563,1.563,0,1,0,0-3.127H36.862L34.029,34.116a9.666,9.666,0,0,0,1.938-1.628l8.37,3.648A6.577,6.577,0,0,1,48.6,42.518v7.816a1.563,1.563,0,1,0,3.127,0V42.518a9.975,9.975,0,0,0-6.155-9.249L37.839,29.9c.192-.331.378-.675.554-1.026a31.572,31.572,0,0,0,2.882-13.434l2.345-3.273a1.563,1.563,0,0,0-.049-1.889C40.69,6.675,35.355,5,30.365,5Zm0,3.127a15.772,15.772,0,0,1,9.9,3.355l-1.319,1.856H21.783l-1.319-1.856A15.772,15.772,0,0,1,30.365,8.127Zm-6.839,8.337H37.2a4.981,4.981,0,0,1-1.482,1.58,9.448,9.448,0,0,1-5.357,1.547,9.449,9.449,0,0,1-5.357-1.547A4.981,4.981,0,0,1,23.525,16.464Zm-.537,3.973c.072.054.138.111.212.163a12.434,12.434,0,0,0,7.165,2.117A12.434,12.434,0,0,0,37.53,20.6c.073-.052.14-.109.212-.163a24.969,24.969,0,0,1-2.149,7.035c-1.555,3.11-3.482,4.625-5.227,4.625s-3.672-1.514-5.227-4.625A24.969,24.969,0,0,1,22.988,20.437Zm1.775,12.05A9.666,9.666,0,0,0,26.7,34.116L23.867,48.771H12.127V42.518a6.577,6.577,0,0,1,4.266-6.383Zm4.918,2.7a7.2,7.2,0,0,0,1.368,0L33.67,48.771H27.059Z" transform="translate(-9 -5)"/>
        </g>
        <g id="Group_65686" data-name="Group 65686" transform="translate(755.465 688)">
          <g id="Path_98350" data-name="Path 98350" class="cls-5" transform="translate(0 0)">
            <path class="cls-8" d="M 17.7230224609375 34.19604110717773 C 13.31039237976074 34.19604110717773 9.170212745666504 32.48600387573242 6.065122604370117 29.38092231750488 C 2.960042476654053 26.27583312988281 1.250002503395081 22.13565254211426 1.250002503395081 17.7230224609375 C 1.250002503395081 13.31039237976074 2.960042476654053 9.170212745666504 6.065122604370117 6.065122604370117 C 9.170212745666504 2.960042476654053 13.31039237976074 1.250002503395081 17.7230224609375 1.250002503395081 C 22.13565254211426 1.250002503395081 26.27583312988281 2.960042476654053 29.38092231750488 6.065122604370117 C 32.48600387573242 9.170212745666504 34.19604110717773 13.31039237976074 34.19604110717773 17.7230224609375 C 34.19604110717773 22.13565254211426 32.48600387573242 26.27583312988281 29.38092231750488 29.38092231750488 C 26.27583312988281 32.48600387573242 22.13565254211426 34.19604110717773 17.7230224609375 34.19604110717773 Z"/>
            <path class="cls-9" d="M 17.7230224609375 32.94604110717773 C 21.80176162719727 32.94604110717773 25.6280517578125 31.36602210998535 28.49703216552734 28.49703216552734 C 31.36602210998535 25.6280517578125 32.94604110717773 21.80176162719727 32.94604110717773 17.7230224609375 C 32.94604110717773 13.64428234100342 31.36602210998535 9.817992210388184 28.49703216552734 6.949012279510498 C 25.6280517578125 4.08002233505249 21.80176162719727 2.500002384185791 17.7230224609375 2.500002384185791 C 13.64428234100342 2.500002384185791 9.817992210388184 4.08002233505249 6.949012279510498 6.949012279510498 C 4.08002233505249 9.817992210388184 2.500002384185791 13.64428234100342 2.500002384185791 17.7230224609375 C 2.500002384185791 21.80176162719727 4.08002233505249 25.6280517578125 6.949012279510498 28.49703216552734 C 9.817992210388184 31.36602210998535 13.64428234100342 32.94604110717773 17.7230224609375 32.94604110717773 M 17.7230224609375 35.44604110717773 C 7.908972263336182 35.44604110717773 2.460937594150892e-06 27.53707313537598 2.460937594150892e-06 17.7230224609375 C 2.460937594150892e-06 7.908972263336182 7.908972263336182 2.460937594150892e-06 17.7230224609375 2.460937594150892e-06 C 27.53707313537598 2.460937594150892e-06 35.44604110717773 7.908972263336182 35.44604110717773 17.7230224609375 C 35.44604110717773 27.53707313537598 27.53707313537598 35.44604110717773 17.7230224609375 35.44604110717773 Z"/>
          </g>
        </g>
        <text id="_1" data-name="1" class="cls-6" transform="translate(773 713)"><tspan x="-5.684" y="0">1</tspan></text>
      </g>
      <circle id="Ellipse_2720" data-name="Ellipse 2720" class="cls-7" cx="4" cy="4" r="4" transform="translate(794 673)"/>
      <circle id="Ellipse_2720-2" data-name="Ellipse 2720" class="cls-7" cx="4" cy="4" r="4" transform="translate(818 673)"/>
      <circle id="Ellipse_2720-3" data-name="Ellipse 2720" class="cls-7" cx="4" cy="4" r="4" transform="translate(841 673)"/>
    </g>
  </g>
</svg>
