<?xml version="1.0" encoding="utf-8"?>
<!-- Generator: Adobe Illustrator 22.0.1, SVG Export Plug-In . SVG Version: 6.00 Build 0)  -->
<svg version="1.1" id="Layer_1" xmlns="http://www.w3.org/2000/svg" xmlns:xlink="http://www.w3.org/1999/xlink" x="0px" y="0px"
	 viewBox="0 0 27 39.6" style="enable-background:new 0 0 27 39.6;" xml:space="preserve">
<style type="text/css">
	.st0{fill:#E36E4D;}
	.st1{fill:none;}
</style>
<g id="Group_33108" transform="translate(11001 -8893)">
	<g id="Group_33039" transform="translate(141 1740)">
		<g id="Group_3103" transform="translate(0)">
			<g id="Group_3102" transform="translate(0)">
				<path class="st0" d="M-11128.5,7192.6l-0.8-1.2c-0.4-0.6-0.8-1.3-1.4-2c-4.2-6.3-11.3-16.9-11.3-22.8c0-7.4,6.1-13.5,13.5-13.5
					l0.2,0c7.4,0.1,13.4,6.2,13.3,13.6c0,6.8-7.5,17.5-11.6,23.2c-0.4,0.6-0.8,1.1-1.1,1.6L-11128.5,7192.6z M-11128.5,7155
					c-6.3,0-11.5,5.2-11.5,11.5c0,5.3,7.1,16,11,21.7c0.2,0.3,0.4,0.6,0.6,0.8c0.1-0.1,0.2-0.2,0.3-0.4c3.9-5.6,11.2-15.9,11.2-22.1
					c0.1-6.3-5-11.5-11.3-11.6L-11128.5,7155z"/>
			</g>
		</g>
	</g>
	<g id="Path_80187" transform="translate(147.506 1746.098)">
		<path class="st1" d="M-11134.9,7154c3.3,0,6.1,2.7,6.1,6.1s-2.7,6.1-6.1,6.1c-3.3,0-6.1-2.7-6.1-6.1c0,0,0,0,0,0
			C-11141,7156.7-11138.3,7154-11134.9,7154z"/>
		<path class="st0" d="M-11134.9,7164.1c2.2,0,4.1-1.8,4.1-4.1s-1.8-4.1-4.1-4.1c-2.2,0-4.1,1.8-4.1,4.1
			S-11137.2,7164.1-11134.9,7164.1 M-11134.9,7166.1c-3.3,0-6.1-2.7-6.1-6.1c0-3.3,2.7-6.1,6.1-6.1s6.1,2.7,6.1,6.1
			C-11128.9,7163.4-11131.6,7166.1-11134.9,7166.1z"/>
	</g>
</g>
</svg>
