<svg xmlns="http://www.w3.org/2000/svg" xmlns:xlink="http://www.w3.org/1999/xlink" viewBox="-12766.053 -7707.356 216.428 183.384">
  <defs>
    <style>
      .cls-1 {
        opacity: 0.5;
      }

      .cls-2, .cls-3, .cls-5 {
        fill: #fff;
      }

      .cls-10, .cls-11, .cls-2, .cls-3, .cls-4, .cls-6, .cls-9 {
        stroke: #1d2d47;
      }

      .cls-2, .cls-3, .cls-4 {
        stroke-linecap: round;
        stroke-linejoin: round;
      }

      .cls-2, .cls-3, .cls-4, .cls-6, .cls-9 {
        stroke-miterlimit: 10;
      }

      .cls-2, .cls-6 {
        stroke-width: 1.5px;
      }

      .cls-3 {
        stroke-width: 1.421px;
      }

      .cls-4, .cls-6, .cls-9 {
        fill: none;
      }

      .cls-4 {
        stroke-width: 2.75px;
      }

      .cls-10, .cls-11, .cls-7 {
        fill: #1d2d47;
      }

      .cls-8 {
        clip-path: url(#clip-path);
      }

      .cls-10 {
        stroke-width: 0.348px;
        font-size: 12px;
      }

      .cls-10, .cls-11 {
        font-family: Dense-Regular, Dense;
      }

      .cls-11 {
        stroke-width: 0.225px;
        font-size: 6px;
      }
    </style>
    <clipPath id="clip-path">
      <rect id="Rectangle_7620" data-name="Rectangle 7620" width="156.093" height="31.569"/>
    </clipPath>
  </defs>
  <g id="Group_32984" data-name="Group 32984" class="cls-1" transform="translate(-13651.678 -11575.646)">
    <g id="Group_32526" data-name="Group 32526" transform="translate(887 3869)">
      <g id="Group_32523" data-name="Group 32523" transform="translate(0 0)">
        <path id="Path_79481" data-name="Path 79481" class="cls-2" d="M106.292,102.208H68L79.4,72.1H95.331Z" transform="translate(29.339 32.254)"/>
        <rect id="Rectangle_7619" data-name="Rectangle 7619" class="cls-2" width="5.115" height="46.039" transform="translate(139.755 128.851) rotate(90)"/>
        <g id="Group_32511" data-name="Group 32511" transform="translate(37.854)">
          <path id="Path_79482" data-name="Path 79482" class="cls-3" d="M184.854,104.47a7.113,7.113,0,0,1-7.015,7.015H34.315A7.113,7.113,0,0,1,27.3,104.47V7.715A7.113,7.113,0,0,1,34.315.7H177.839a7.113,7.113,0,0,1,7.015,7.015V104.47Z" transform="translate(-27.3 -0.7)"/>
        </g>
        <line id="Line_4095" data-name="Line 4095" class="cls-2" x2="154.778" transform="translate(39.316 99.385)"/>
        <line id="Line_4096" data-name="Line 4096" class="cls-4" x2="213.678" transform="translate(0 134.462)"/>
        <g id="Group_32512" data-name="Group 32512" transform="translate(38.585 12.862)">
          <line id="Line_4097" data-name="Line 4097" class="cls-2" x1="156.824"/>
          <line id="Line_4098" data-name="Line 4098" class="cls-2" x1="156.824" transform="translate(0 38.731)"/>
        </g>
        <g id="Group_32513" data-name="Group 32513" transform="translate(38.585 51.008)">
          <line id="Line_4099" data-name="Line 4099" class="cls-5" x2="154.778"/>
        </g>
        <circle id="Ellipse_2469" data-name="Ellipse 2469" class="cls-6" cx="2.192" cy="2.192" r="2.192" transform="translate(46.185 4.385)"/>
        <circle id="Ellipse_2470" data-name="Ellipse 2470" class="cls-6" cx="2.192" cy="2.192" r="2.192" transform="translate(53.639 4.385)"/>
        <circle id="Ellipse_2471" data-name="Ellipse 2471" class="cls-6" cx="2.192" cy="2.192" r="2.192" transform="translate(61.239 4.385)"/>
        <g id="Group_32515" data-name="Group 32515" transform="translate(142.062 59.485)">
          <g id="Group_32514" data-name="Group 32514">
            <path id="Path_79483" data-name="Path 79483" class="cls-7" d="M141.862,43.592V71.654H100.792V43.592h41.069m2.192-2.192H98.6V73.846h45.454V41.4Z" transform="translate(-98.6 -41.4)"/>
          </g>
        </g>
        <g id="Group_32517" data-name="Group 32517" transform="translate(38.585 19)">
          <g id="Group_32516" data-name="Group 32516" class="cls-8">
            <path id="Path_79484" data-name="Path 79484" class="cls-7" d="M67.538,50.223a.438.438,0,0,1,0-.877h1.169l.146-24.115a.388.388,0,0,1,.438-.438h8.915a.388.388,0,0,1,.438.438v6.577l7.454.146.146-16.515A.388.388,0,0,1,86.685,15h8.769a.388.388,0,0,1,.438.438V29.908l1.754.146.146-2.777a.388.388,0,0,1,.438-.438H107a.388.388,0,0,1,.438.438V49.346l1.462.146a.438.438,0,1,1,0,.877H67.538ZM98.816,49.2l7.746.146.146-21.631-7.892-.146Zm-8.769,0,7.6.146.146-18.415-7.746-.146Zm-11.4,0,7.454.146.146-16.369-7.6-.146Zm-8.915,0,7.892.146.146-23.531-7.892-.146V49.2ZM87.123,15.877V49.054l1.9.146V30.346c0-.146,0-.292.146-.292.146-.146.146-.146.292-.146h5.408l.146-13.885H87.123Z" transform="translate(-9.661 -13.1)"/>
            <path id="Path_79485" data-name="Path 79485" class="cls-7" d="M70.338,25.692a.388.388,0,0,1-.438-.438V23.938a.438.438,0,0,1,.877,0v1.315A.467.467,0,0,1,70.338,25.692Z" transform="translate(-8.369 -9.177)"/>
            <path id="Path_79486" data-name="Path 79486" class="cls-7" d="M71.738,25.692a.388.388,0,0,1-.438-.438V23.938a.438.438,0,0,1,.877,0v1.315C72.323,25.4,72.031,25.692,71.738,25.692Z" transform="translate(-7.723 -9.177)"/>
            <path id="Path_79487" data-name="Path 79487" class="cls-7" d="M73.238,25.692a.388.388,0,0,1-.438-.438V23.938a.438.438,0,0,1,.877,0v1.315C73.823,25.4,73.531,25.692,73.238,25.692Z" transform="translate(-7.03 -9.177)"/>
            <path id="Path_79488" data-name="Path 79488" class="cls-7" d="M70.338,27.992a.388.388,0,0,1-.438-.438V26.238a.438.438,0,1,1,.877,0v1.315A.388.388,0,0,1,70.338,27.992Z" transform="translate(-8.369 -8.115)"/>
            <path id="Path_79489" data-name="Path 79489" class="cls-7" d="M71.738,27.992a.388.388,0,0,1-.438-.438V26.238a.438.438,0,1,1,.877,0v1.315C72.323,27.846,72.031,27.992,71.738,27.992Z" transform="translate(-7.723 -8.115)"/>
            <path id="Path_79490" data-name="Path 79490" class="cls-7" d="M73.238,27.992a.388.388,0,0,1-.438-.438V26.238a.438.438,0,1,1,.877,0v1.315C73.823,27.846,73.531,27.992,73.238,27.992Z" transform="translate(-7.03 -8.115)"/>
            <path id="Path_79491" data-name="Path 79491" class="cls-7" d="M70.338,30.392a.388.388,0,0,1-.438-.438V28.638a.388.388,0,0,1,.438-.438.467.467,0,0,1,.438.438v1.315A.388.388,0,0,1,70.338,30.392Z" transform="translate(-8.369 -7.008)"/>
            <path id="Path_79492" data-name="Path 79492" class="cls-7" d="M71.738,30.392a.388.388,0,0,1-.438-.438V28.638a.388.388,0,0,1,.438-.438.467.467,0,0,1,.438.438v1.315C72.323,30.246,72.031,30.392,71.738,30.392Z" transform="translate(-7.723 -7.008)"/>
            <path id="Path_79493" data-name="Path 79493" class="cls-7" d="M73.238,30.392a.388.388,0,0,1-.438-.438V28.638a.388.388,0,0,1,.438-.438.467.467,0,0,1,.438.438v1.315C73.823,30.246,73.531,30.392,73.238,30.392Z" transform="translate(-7.03 -7.008)"/>
            <path id="Path_79494" data-name="Path 79494" class="cls-7" d="M70.338,32.792a.388.388,0,0,1-.438-.438V31.038a.388.388,0,0,1,.438-.438.652.652,0,0,1,.438.585V32.5C70.777,32.646,70.631,32.792,70.338,32.792Z" transform="translate(-8.369 -5.9)"/>
            <path id="Path_79495" data-name="Path 79495" class="cls-7" d="M71.738,32.792a.388.388,0,0,1-.438-.438V31.038a.388.388,0,0,1,.438-.438c.292,0,.438.292.438.585V32.5C72.323,32.646,72.031,32.792,71.738,32.792Z" transform="translate(-7.723 -5.9)"/>
            <path id="Path_79496" data-name="Path 79496" class="cls-7" d="M73.238,32.792a.388.388,0,0,1-.438-.438V31.038a.388.388,0,0,1,.438-.438c.292,0,.438.292.438.585V32.5C73.823,32.646,73.531,32.792,73.238,32.792Z" transform="translate(-7.03 -5.9)"/>
            <path id="Path_79497" data-name="Path 79497" class="cls-7" d="M70.338,35.192a.388.388,0,0,1-.438-.438V33.438A.388.388,0,0,1,70.338,33a.467.467,0,0,1,.438.438v1.315A.467.467,0,0,1,70.338,35.192Z" transform="translate(-8.369 -4.792)"/>
            <path id="Path_79498" data-name="Path 79498" class="cls-7" d="M71.738,35.192a.388.388,0,0,1-.438-.438V33.438A.388.388,0,0,1,71.738,33a.467.467,0,0,1,.438.438v1.315C72.323,34.9,72.031,35.192,71.738,35.192Z" transform="translate(-7.723 -4.792)"/>
            <path id="Path_79499" data-name="Path 79499" class="cls-7" d="M73.238,35.192a.388.388,0,0,1-.438-.438V33.438A.388.388,0,0,1,73.238,33a.467.467,0,0,1,.438.438v1.315C73.823,34.9,73.531,35.192,73.238,35.192Z" transform="translate(-7.03 -4.792)"/>
            <path id="Path_79500" data-name="Path 79500" class="cls-7" d="M70.338,37.592a.388.388,0,0,1-.438-.438V35.838a.438.438,0,1,1,.877,0v1.315A.467.467,0,0,1,70.338,37.592Z" transform="translate(-8.369 -3.684)"/>
            <path id="Path_79501" data-name="Path 79501" class="cls-7" d="M71.738,37.592a.388.388,0,0,1-.438-.438V35.838a.438.438,0,1,1,.877,0v1.315C72.323,37.3,72.031,37.592,71.738,37.592Z" transform="translate(-7.723 -3.684)"/>
            <path id="Path_79502" data-name="Path 79502" class="cls-7" d="M73.238,37.592a.388.388,0,0,1-.438-.438V35.838a.438.438,0,1,1,.877,0v1.315C73.823,37.3,73.531,37.592,73.238,37.592Z" transform="translate(-7.03 -3.684)"/>
            <path id="Path_79503" data-name="Path 79503" class="cls-7" d="M76.238,30.392a.388.388,0,0,1-.438-.438V28.638a.438.438,0,0,1,.877,0v1.315A.467.467,0,0,1,76.238,30.392Z" transform="translate(-5.646 -7.008)"/>
            <path id="Path_79504" data-name="Path 79504" class="cls-7" d="M77.638,30.392a.388.388,0,0,1-.438-.438V28.638a.438.438,0,0,1,.877,0v1.315A.388.388,0,0,1,77.638,30.392Z" transform="translate(-5 -7.008)"/>
            <path id="Path_79505" data-name="Path 79505" class="cls-7" d="M79.138,30.392a.388.388,0,0,1-.438-.438V28.638a.438.438,0,0,1,.877,0v1.315C79.723,30.246,79.431,30.392,79.138,30.392Z" transform="translate(-4.307 -7.008)"/>
            <path id="Path_79506" data-name="Path 79506" class="cls-7" d="M76.238,32.792a.467.467,0,0,1-.438-.438V31.038a.438.438,0,0,1,.877,0v1.315A.467.467,0,0,1,76.238,32.792Z" transform="translate(-5.646 -5.9)"/>
            <path id="Path_79507" data-name="Path 79507" class="cls-7" d="M77.638,32.792a.467.467,0,0,1-.438-.438V31.038a.438.438,0,0,1,.877,0v1.315A.388.388,0,0,1,77.638,32.792Z" transform="translate(-5 -5.9)"/>
            <path id="Path_79508" data-name="Path 79508" class="cls-7" d="M79.138,32.792a.467.467,0,0,1-.438-.438V31.038a.438.438,0,0,1,.877,0v1.315C79.723,32.646,79.431,32.792,79.138,32.792Z" transform="translate(-4.307 -5.9)"/>
            <path id="Path_79509" data-name="Path 79509" class="cls-7" d="M76.238,35.192a.467.467,0,0,1-.438-.438V33.438a.438.438,0,0,1,.877,0v1.315A.467.467,0,0,1,76.238,35.192Z" transform="translate(-5.646 -4.792)"/>
            <path id="Path_79510" data-name="Path 79510" class="cls-7" d="M77.638,35.192a.467.467,0,0,1-.438-.438V33.438a.438.438,0,0,1,.877,0v1.315A.388.388,0,0,1,77.638,35.192Z" transform="translate(-5 -4.792)"/>
            <path id="Path_79511" data-name="Path 79511" class="cls-7" d="M79.138,35.192a.467.467,0,0,1-.438-.438V33.438a.438.438,0,0,1,.877,0v1.315C79.723,35.046,79.431,35.192,79.138,35.192Z" transform="translate(-4.307 -4.792)"/>
            <path id="Path_79512" data-name="Path 79512" class="cls-7" d="M76.238,37.592a.467.467,0,0,1-.438-.438V35.838a.438.438,0,0,1,.877,0v1.315A.659.659,0,0,1,76.238,37.592Z" transform="translate(-5.646 -3.684)"/>
            <path id="Path_79513" data-name="Path 79513" class="cls-7" d="M77.638,37.592a.467.467,0,0,1-.438-.438V35.838a.438.438,0,1,1,.877,0v1.315A.467.467,0,0,1,77.638,37.592Z" transform="translate(-5 -3.684)"/>
            <path id="Path_79514" data-name="Path 79514" class="cls-7" d="M79.138,37.592a.467.467,0,0,1-.438-.438V35.838a.438.438,0,1,1,.877,0v1.315C79.723,37.3,79.431,37.592,79.138,37.592Z" transform="translate(-4.307 -3.684)"/>
            <path id="Path_79515" data-name="Path 79515" class="cls-7" d="M90.138,34.023a.467.467,0,0,1-.438-.438V29.638a.438.438,0,0,1,.877,0v3.946A.388.388,0,0,1,90.138,34.023Z" transform="translate(0.77 -6.546)"/>
            <path id="Path_79516" data-name="Path 79516" class="cls-7" d="M91.538,34.023a.467.467,0,0,1-.438-.438V29.638a.438.438,0,0,1,.877,0v3.946C92.123,33.877,91.831,34.023,91.538,34.023Z" transform="translate(1.416 -6.546)"/>
            <path id="Path_79517" data-name="Path 79517" class="cls-7" d="M93.038,34.023a.467.467,0,0,1-.438-.438V29.638a.438.438,0,0,1,.877,0v3.946A.388.388,0,0,1,93.038,34.023Z" transform="translate(2.108 -6.546)"/>
            <path id="Path_79518" data-name="Path 79518" class="cls-7" d="M90.138,29.723a.467.467,0,0,1-.438-.438V25.338a.438.438,0,0,1,.877,0v3.946A.467.467,0,0,1,90.138,29.723Z" transform="translate(0.77 -8.531)"/>
            <path id="Path_79519" data-name="Path 79519" class="cls-7" d="M91.538,29.723a.467.467,0,0,1-.438-.438V25.338a.438.438,0,0,1,.877,0v3.946C92.123,29.431,91.831,29.723,91.538,29.723Z" transform="translate(1.416 -8.531)"/>
            <path id="Path_79520" data-name="Path 79520" class="cls-7" d="M93.038,29.723a.467.467,0,0,1-.438-.438V25.338a.438.438,0,1,1,.877,0v3.946A.467.467,0,0,1,93.038,29.723Z" transform="translate(2.108 -8.531)"/>
            <path id="Path_79521" data-name="Path 79521" class="cls-7" d="M90.138,38.223a.388.388,0,0,1-.438-.438V33.838a.438.438,0,1,1,.877,0v3.946A.388.388,0,0,1,90.138,38.223Z" transform="translate(0.77 -4.608)"/>
            <path id="Path_79522" data-name="Path 79522" class="cls-7" d="M91.538,38.223a.388.388,0,0,1-.438-.438V33.838a.438.438,0,0,1,.877,0v3.946C92.123,38.077,91.831,38.223,91.538,38.223Z" transform="translate(1.416 -4.608)"/>
            <path id="Path_79523" data-name="Path 79523" class="cls-7" d="M93.038,38.223a.388.388,0,0,1-.438-.438V33.838a.438.438,0,1,1,.877,0v3.946A.388.388,0,0,1,93.038,38.223Z" transform="translate(2.108 -4.608)"/>
            <path id="Path_79524" data-name="Path 79524" class="cls-7" d="M82.238,26.023a.388.388,0,0,1-.438-.438V21.638a.438.438,0,0,1,.877,0v3.946A.659.659,0,0,1,82.238,26.023Z" transform="translate(-2.877 -10.238)"/>
            <path id="Path_79525" data-name="Path 79525" class="cls-7" d="M83.638,26.023a.388.388,0,0,1-.438-.438V21.638a.438.438,0,0,1,.877,0v3.946A.467.467,0,0,1,83.638,26.023Z" transform="translate(-2.23 -10.238)"/>
            <path id="Path_79526" data-name="Path 79526" class="cls-7" d="M85.038,26.023a.388.388,0,0,1-.438-.438V21.638a.438.438,0,1,1,.877,0v3.946A.467.467,0,0,1,85.038,26.023Z" transform="translate(-1.584 -10.238)"/>
            <path id="Path_79527" data-name="Path 79527" class="cls-7" d="M82.238,21.623a.388.388,0,0,1-.438-.438V17.238a.438.438,0,0,1,.877,0v3.946A.467.467,0,0,1,82.238,21.623Z" transform="translate(-2.877 -12.269)"/>
            <path id="Path_79528" data-name="Path 79528" class="cls-7" d="M83.638,21.623a.388.388,0,0,1-.438-.438V17.238a.438.438,0,0,1,.877,0v3.946A.388.388,0,0,1,83.638,21.623Z" transform="translate(-2.23 -12.269)"/>
            <path id="Path_79529" data-name="Path 79529" class="cls-7" d="M85.038,21.623a.388.388,0,0,1-.438-.438V17.238a.438.438,0,1,1,.877,0v3.946A.388.388,0,0,1,85.038,21.623Z" transform="translate(-1.584 -12.269)"/>
            <path id="Path_79530" data-name="Path 79530" class="cls-7" d="M83.938,30.392a.388.388,0,0,1-.438-.438V28.638a.438.438,0,0,1,.877,0v1.315A.388.388,0,0,1,83.938,30.392Z" transform="translate(-2.092 -7.008)"/>
            <path id="Path_79531" data-name="Path 79531" class="cls-7" d="M85.438,30.392A.388.388,0,0,1,85,29.954V28.638a.438.438,0,0,1,.877,0v1.315C86.023,30.246,85.731,30.392,85.438,30.392Z" transform="translate(-1.4 -7.008)"/>
            <path id="Path_79532" data-name="Path 79532" class="cls-7" d="M86.938,30.392a.388.388,0,0,1-.438-.438V28.638a.438.438,0,0,1,.877,0v1.315C87.523,30.246,87.231,30.392,86.938,30.392Z" transform="translate(-0.707 -7.008)"/>
            <path id="Path_79533" data-name="Path 79533" class="cls-7" d="M83.938,32.792a.467.467,0,0,1-.438-.438V31.038a.438.438,0,0,1,.877,0v1.315A.388.388,0,0,1,83.938,32.792Z" transform="translate(-2.092 -5.9)"/>
            <path id="Path_79534" data-name="Path 79534" class="cls-7" d="M85.438,32.792A.467.467,0,0,1,85,32.354V31.038a.438.438,0,0,1,.877,0v1.315C86.023,32.646,85.731,32.792,85.438,32.792Z" transform="translate(-1.4 -5.9)"/>
            <path id="Path_79535" data-name="Path 79535" class="cls-7" d="M86.938,32.792a.467.467,0,0,1-.438-.438V31.038a.438.438,0,0,1,.877,0v1.315C87.523,32.646,87.231,32.792,86.938,32.792Z" transform="translate(-0.707 -5.9)"/>
            <path id="Path_79536" data-name="Path 79536" class="cls-7" d="M83.938,35.192a.467.467,0,0,1-.438-.438V33.438a.438.438,0,0,1,.877,0v1.315A.388.388,0,0,1,83.938,35.192Z" transform="translate(-2.092 -4.792)"/>
            <path id="Path_79537" data-name="Path 79537" class="cls-7" d="M85.438,35.192A.467.467,0,0,1,85,34.754V33.438a.438.438,0,0,1,.877,0v1.315C86.023,35.046,85.731,35.192,85.438,35.192Z" transform="translate(-1.4 -4.792)"/>
            <path id="Path_79538" data-name="Path 79538" class="cls-7" d="M86.938,35.192a.467.467,0,0,1-.438-.438V33.438a.438.438,0,0,1,.877,0v1.315C87.523,35.046,87.231,35.192,86.938,35.192Z" transform="translate(-0.707 -4.792)"/>
            <path id="Path_79539" data-name="Path 79539" class="cls-7" d="M83.938,37.592a.467.467,0,0,1-.438-.438V35.838a.438.438,0,0,1,.877,0v1.315A.467.467,0,0,1,83.938,37.592Z" transform="translate(-2.092 -3.684)"/>
            <path id="Path_79540" data-name="Path 79540" class="cls-7" d="M85.438,37.592A.467.467,0,0,1,85,37.154V35.838a.438.438,0,0,1,.877,0v1.315C86.023,37.3,85.731,37.592,85.438,37.592Z" transform="translate(-1.4 -3.684)"/>
            <path id="Path_79541" data-name="Path 79541" class="cls-7" d="M86.938,37.592a.467.467,0,0,1-.438-.438V35.838a.438.438,0,0,1,.877,0v1.315C87.523,37.3,87.231,37.592,86.938,37.592Z" transform="translate(-0.707 -3.684)"/>
            <path id="Path_79542" data-name="Path 79542" class="cls-7" d="M41.538,49.254a.438.438,0,0,1,0-.877h1.169l.146-24.115a.388.388,0,0,1,.438-.438h.877c.292-1.462,1.169-2.631,2.046-2.631h.877l.146-3.654a.438.438,0,0,1,.877,0v3.654l1.023.146c.877,0,1.9,1.169,2.046,2.631h.877a.388.388,0,0,1,.438.438v6.577l7.454.146L60.1,20.754a.388.388,0,0,1,.438-.438h8.769a.388.388,0,0,1,.438.438v8.331l1.754.146.146-2.777a.388.388,0,0,1,.438-.438h8.769a.388.388,0,0,1,.438.438V48.523l1.462.146a.438.438,0,1,1,0,.877H41.538Zm31.277-1.023,7.746.146.146-21.631L72.816,26.6Zm-8.623,0,7.6.146.146-18.415-7.746-.146Zm-11.4,0,7.454.146.146-16.369-7.746-.146Zm-9.062,0,7.892.146.146-23.531L43.877,24.7V48.231ZM61.123,21.046V48.231l1.9.146V29.523c0-.146,0-.292.146-.292.146-.146.146-.146.292-.146h5.408l.146-7.892H61.123ZM46.362,22.069c-.292,0-.877.731-1.023,1.608l4.969.146c0-1.023-.585-1.754-.877-1.754Z" transform="translate(-21.661 -12.131)"/>
            <path id="Path_79543" data-name="Path 79543" class="cls-7" d="M44.338,25.692a.388.388,0,0,1-.438-.438V23.938a.438.438,0,1,1,.877,0v1.315A.467.467,0,0,1,44.338,25.692Z" transform="translate(-20.369 -9.177)"/>
            <path id="Path_79544" data-name="Path 79544" class="cls-7" d="M45.838,25.692a.388.388,0,0,1-.438-.438V23.938a.438.438,0,1,1,.877,0v1.315A.467.467,0,0,1,45.838,25.692Z" transform="translate(-19.677 -9.177)"/>
            <path id="Path_79545" data-name="Path 79545" class="cls-7" d="M47.338,25.692a.388.388,0,0,1-.438-.438V23.938a.438.438,0,1,1,.877,0v1.315A.467.467,0,0,1,47.338,25.692Z" transform="translate(-18.984 -9.177)"/>
            <path id="Path_79546" data-name="Path 79546" class="cls-7" d="M44.338,27.992a.388.388,0,0,1-.438-.438V26.238a.438.438,0,1,1,.877,0v1.315A.388.388,0,0,1,44.338,27.992Z" transform="translate(-20.369 -8.115)"/>
            <path id="Path_79547" data-name="Path 79547" class="cls-7" d="M45.838,27.992a.388.388,0,0,1-.438-.438V26.238a.438.438,0,1,1,.877,0v1.315A.388.388,0,0,1,45.838,27.992Z" transform="translate(-19.677 -8.115)"/>
            <path id="Path_79548" data-name="Path 79548" class="cls-7" d="M47.338,27.992a.388.388,0,0,1-.438-.438V26.238a.438.438,0,1,1,.877,0v1.315A.388.388,0,0,1,47.338,27.992Z" transform="translate(-18.984 -8.115)"/>
            <path id="Path_79549" data-name="Path 79549" class="cls-7" d="M44.338,30.392a.388.388,0,0,1-.438-.438V28.638a.388.388,0,0,1,.438-.438.467.467,0,0,1,.438.438v1.315A.388.388,0,0,1,44.338,30.392Z" transform="translate(-20.369 -7.008)"/>
            <path id="Path_79550" data-name="Path 79550" class="cls-7" d="M45.838,30.392a.388.388,0,0,1-.438-.438V28.638a.388.388,0,0,1,.438-.438.467.467,0,0,1,.438.438v1.315A.388.388,0,0,1,45.838,30.392Z" transform="translate(-19.677 -7.008)"/>
            <path id="Path_79551" data-name="Path 79551" class="cls-7" d="M47.338,30.392a.388.388,0,0,1-.438-.438V28.638a.388.388,0,0,1,.438-.438.467.467,0,0,1,.438.438v1.315A.388.388,0,0,1,47.338,30.392Z" transform="translate(-18.984 -7.008)"/>
            <path id="Path_79552" data-name="Path 79552" class="cls-7" d="M44.338,32.792a.388.388,0,0,1-.438-.438V31.038a.388.388,0,0,1,.438-.438.652.652,0,0,1,.438.585V32.5C44.777,32.646,44.631,32.792,44.338,32.792Z" transform="translate(-20.369 -5.9)"/>
            <path id="Path_79553" data-name="Path 79553" class="cls-7" d="M45.838,32.792a.388.388,0,0,1-.438-.438V31.038a.388.388,0,0,1,.438-.438c.292,0,.438.292.438.585V32.5C46.277,32.646,46.131,32.792,45.838,32.792Z" transform="translate(-19.677 -5.9)"/>
            <path id="Path_79554" data-name="Path 79554" class="cls-7" d="M47.338,32.792a.388.388,0,0,1-.438-.438V31.038a.388.388,0,0,1,.438-.438c.292,0,.438.292.438.585V32.5C47.777,32.646,47.631,32.792,47.338,32.792Z" transform="translate(-18.984 -5.9)"/>
            <path id="Path_79555" data-name="Path 79555" class="cls-7" d="M44.338,35.192a.388.388,0,0,1-.438-.438V33.438A.388.388,0,0,1,44.338,33a.467.467,0,0,1,.438.438v1.315A.467.467,0,0,1,44.338,35.192Z" transform="translate(-20.369 -4.792)"/>
            <path id="Path_79556" data-name="Path 79556" class="cls-7" d="M45.838,35.192a.388.388,0,0,1-.438-.438V33.438A.388.388,0,0,1,45.838,33a.467.467,0,0,1,.438.438v1.315A.467.467,0,0,1,45.838,35.192Z" transform="translate(-19.677 -4.792)"/>
            <path id="Path_79557" data-name="Path 79557" class="cls-7" d="M47.338,35.192a.388.388,0,0,1-.438-.438V33.438A.388.388,0,0,1,47.338,33a.467.467,0,0,1,.438.438v1.315A.467.467,0,0,1,47.338,35.192Z" transform="translate(-18.984 -4.792)"/>
            <path id="Path_79558" data-name="Path 79558" class="cls-7" d="M44.338,37.592a.388.388,0,0,1-.438-.438V35.838a.438.438,0,1,1,.877,0v1.315A.467.467,0,0,1,44.338,37.592Z" transform="translate(-20.369 -3.684)"/>
            <path id="Path_79559" data-name="Path 79559" class="cls-7" d="M45.838,37.592a.388.388,0,0,1-.438-.438V35.838a.438.438,0,1,1,.877,0v1.315A.467.467,0,0,1,45.838,37.592Z" transform="translate(-19.677 -3.684)"/>
            <path id="Path_79560" data-name="Path 79560" class="cls-7" d="M47.338,37.592a.388.388,0,0,1-.438-.438V35.838a.438.438,0,1,1,.877,0v1.315A.467.467,0,0,1,47.338,37.592Z" transform="translate(-18.984 -3.684)"/>
            <path id="Path_79561" data-name="Path 79561" class="cls-7" d="M50.238,30.392a.388.388,0,0,1-.438-.438V28.638a.438.438,0,0,1,.877,0v1.315A.388.388,0,0,1,50.238,30.392Z" transform="translate(-17.646 -7.008)"/>
            <path id="Path_79562" data-name="Path 79562" class="cls-7" d="M51.738,30.392a.388.388,0,0,1-.438-.438V28.638a.438.438,0,0,1,.877,0v1.315A.388.388,0,0,1,51.738,30.392Z" transform="translate(-16.954 -7.008)"/>
            <path id="Path_79563" data-name="Path 79563" class="cls-7" d="M53.238,30.392a.388.388,0,0,1-.438-.438V28.638a.438.438,0,1,1,.877,0v1.315A.388.388,0,0,1,53.238,30.392Z" transform="translate(-16.261 -7.008)"/>
            <path id="Path_79564" data-name="Path 79564" class="cls-7" d="M50.238,32.792a.467.467,0,0,1-.438-.438V31.038a.438.438,0,1,1,.877,0v1.315A.388.388,0,0,1,50.238,32.792Z" transform="translate(-17.646 -5.9)"/>
            <path id="Path_79565" data-name="Path 79565" class="cls-7" d="M51.738,32.792a.467.467,0,0,1-.438-.438V31.038a.438.438,0,1,1,.877,0v1.315A.388.388,0,0,1,51.738,32.792Z" transform="translate(-16.954 -5.9)"/>
            <path id="Path_79566" data-name="Path 79566" class="cls-7" d="M53.238,32.792a.467.467,0,0,1-.438-.438V31.038a.438.438,0,1,1,.877,0v1.315A.388.388,0,0,1,53.238,32.792Z" transform="translate(-16.261 -5.9)"/>
            <path id="Path_79567" data-name="Path 79567" class="cls-7" d="M50.238,35.192a.467.467,0,0,1-.438-.438V33.438a.438.438,0,0,1,.877,0v1.315A.388.388,0,0,1,50.238,35.192Z" transform="translate(-17.646 -4.792)"/>
            <path id="Path_79568" data-name="Path 79568" class="cls-7" d="M51.738,35.192a.467.467,0,0,1-.438-.438V33.438a.438.438,0,0,1,.877,0v1.315A.388.388,0,0,1,51.738,35.192Z" transform="translate(-16.954 -4.792)"/>
            <path id="Path_79569" data-name="Path 79569" class="cls-7" d="M53.238,35.192a.467.467,0,0,1-.438-.438V33.438a.438.438,0,1,1,.877,0v1.315A.388.388,0,0,1,53.238,35.192Z" transform="translate(-16.261 -4.792)"/>
            <path id="Path_79570" data-name="Path 79570" class="cls-7" d="M50.238,37.592a.467.467,0,0,1-.438-.438V35.838a.438.438,0,1,1,.877,0v1.315A.467.467,0,0,1,50.238,37.592Z" transform="translate(-17.646 -3.684)"/>
            <path id="Path_79571" data-name="Path 79571" class="cls-7" d="M51.738,37.592a.467.467,0,0,1-.438-.438V35.838a.438.438,0,1,1,.877,0v1.315A.467.467,0,0,1,51.738,37.592Z" transform="translate(-16.954 -3.684)"/>
            <path id="Path_79572" data-name="Path 79572" class="cls-7" d="M53.238,37.592a.467.467,0,0,1-.438-.438V35.838a.438.438,0,1,1,.877,0v1.315A.467.467,0,0,1,53.238,37.592Z" transform="translate(-16.261 -3.684)"/>
            <path id="Path_79573" data-name="Path 79573" class="cls-7" d="M64.238,34.023a.467.467,0,0,1-.438-.438V29.638a.438.438,0,0,1,.877,0v3.946A.467.467,0,0,1,64.238,34.023Z" transform="translate(-11.184 -6.546)"/>
            <path id="Path_79574" data-name="Path 79574" class="cls-7" d="M65.638,34.023a.467.467,0,0,1-.438-.438V29.638a.438.438,0,0,1,.877,0v3.946A.388.388,0,0,1,65.638,34.023Z" transform="translate(-10.538 -6.546)"/>
            <path id="Path_79575" data-name="Path 79575" class="cls-7" d="M67.038,34.023a.467.467,0,0,1-.438-.438V29.638a.438.438,0,0,1,.877,0v3.946A.388.388,0,0,1,67.038,34.023Z" transform="translate(-9.892 -6.546)"/>
            <path id="Path_79576" data-name="Path 79576" class="cls-7" d="M64.238,29.723a.467.467,0,0,1-.438-.438V25.338a.438.438,0,0,1,.877,0v3.946A.659.659,0,0,1,64.238,29.723Z" transform="translate(-11.184 -8.531)"/>
            <path id="Path_79577" data-name="Path 79577" class="cls-7" d="M65.638,29.723a.467.467,0,0,1-.438-.438V25.338a.438.438,0,0,1,.877,0v3.946A.467.467,0,0,1,65.638,29.723Z" transform="translate(-10.538 -8.531)"/>
            <path id="Path_79578" data-name="Path 79578" class="cls-7" d="M67.038,29.723a.467.467,0,0,1-.438-.438V25.338a.438.438,0,0,1,.877,0v3.946A.467.467,0,0,1,67.038,29.723Z" transform="translate(-9.892 -8.531)"/>
            <path id="Path_79579" data-name="Path 79579" class="cls-7" d="M64.238,38.223a.388.388,0,0,1-.438-.438V33.838a.438.438,0,0,1,.877,0v3.946A.467.467,0,0,1,64.238,38.223Z" transform="translate(-11.184 -4.608)"/>
            <path id="Path_79580" data-name="Path 79580" class="cls-7" d="M65.638,38.223a.388.388,0,0,1-.438-.438V33.838a.438.438,0,1,1,.877,0v3.946A.388.388,0,0,1,65.638,38.223Z" transform="translate(-10.538 -4.608)"/>
            <path id="Path_79581" data-name="Path 79581" class="cls-7" d="M67.038,38.223a.388.388,0,0,1-.438-.438V33.838a.438.438,0,0,1,.877,0v3.946A.388.388,0,0,1,67.038,38.223Z" transform="translate(-9.892 -4.608)"/>
            <path id="Path_79582" data-name="Path 79582" class="cls-7" d="M56.238,26.023a.388.388,0,0,1-.438-.438V21.638a.438.438,0,1,1,.877,0v3.946A.467.467,0,0,1,56.238,26.023Z" transform="translate(-14.877 -10.238)"/>
            <path id="Path_79583" data-name="Path 79583" class="cls-7" d="M57.638,26.023a.388.388,0,0,1-.438-.438V21.638a.438.438,0,1,1,.877,0v3.946A.467.467,0,0,1,57.638,26.023Z" transform="translate(-14.231 -10.238)"/>
            <path id="Path_79584" data-name="Path 79584" class="cls-7" d="M59.138,26.023a.388.388,0,0,1-.438-.438V21.638a.438.438,0,1,1,.877,0v3.946A.467.467,0,0,1,59.138,26.023Z" transform="translate(-13.538 -10.238)"/>
            <path id="Path_79585" data-name="Path 79585" class="cls-7" d="M58.038,30.392a.388.388,0,0,1-.438-.438V28.638a.438.438,0,0,1,.877,0v1.315A.388.388,0,0,1,58.038,30.392Z" transform="translate(-14.046 -7.008)"/>
            <path id="Path_79586" data-name="Path 79586" class="cls-7" d="M59.538,30.392a.388.388,0,0,1-.438-.438V28.638a.438.438,0,0,1,.877,0v1.315A.388.388,0,0,1,59.538,30.392Z" transform="translate(-13.354 -7.008)"/>
            <path id="Path_79587" data-name="Path 79587" class="cls-7" d="M61.038,30.392a.388.388,0,0,1-.438-.438V28.638a.438.438,0,0,1,.877,0v1.315A.388.388,0,0,1,61.038,30.392Z" transform="translate(-12.661 -7.008)"/>
            <path id="Path_79588" data-name="Path 79588" class="cls-7" d="M58.038,32.792a.467.467,0,0,1-.438-.438V31.038a.438.438,0,1,1,.877,0v1.315A.388.388,0,0,1,58.038,32.792Z" transform="translate(-14.046 -5.9)"/>
            <path id="Path_79589" data-name="Path 79589" class="cls-7" d="M59.538,32.792a.467.467,0,0,1-.438-.438V31.038a.438.438,0,0,1,.877,0v1.315A.388.388,0,0,1,59.538,32.792Z" transform="translate(-13.354 -5.9)"/>
            <path id="Path_79590" data-name="Path 79590" class="cls-7" d="M61.038,32.792a.467.467,0,0,1-.438-.438V31.038a.438.438,0,1,1,.877,0v1.315A.388.388,0,0,1,61.038,32.792Z" transform="translate(-12.661 -5.9)"/>
            <path id="Path_79591" data-name="Path 79591" class="cls-7" d="M58.038,35.192a.467.467,0,0,1-.438-.438V33.438a.438.438,0,0,1,.877,0v1.315A.388.388,0,0,1,58.038,35.192Z" transform="translate(-14.046 -4.792)"/>
            <path id="Path_79592" data-name="Path 79592" class="cls-7" d="M59.538,35.192a.467.467,0,0,1-.438-.438V33.438a.438.438,0,0,1,.877,0v1.315A.388.388,0,0,1,59.538,35.192Z" transform="translate(-13.354 -4.792)"/>
            <path id="Path_79593" data-name="Path 79593" class="cls-7" d="M61.038,35.192a.467.467,0,0,1-.438-.438V33.438a.438.438,0,1,1,.877,0v1.315A.388.388,0,0,1,61.038,35.192Z" transform="translate(-12.661 -4.792)"/>
            <path id="Path_79594" data-name="Path 79594" class="cls-7" d="M58.038,37.592a.467.467,0,0,1-.438-.438V35.838a.438.438,0,1,1,.877,0v1.315A.467.467,0,0,1,58.038,37.592Z" transform="translate(-14.046 -3.684)"/>
            <path id="Path_79595" data-name="Path 79595" class="cls-7" d="M59.538,37.592a.467.467,0,0,1-.438-.438V35.838a.438.438,0,1,1,.877,0v1.315A.467.467,0,0,1,59.538,37.592Z" transform="translate(-13.354 -3.684)"/>
            <path id="Path_79596" data-name="Path 79596" class="cls-7" d="M61.038,37.592a.467.467,0,0,1-.438-.438V35.838a.438.438,0,1,1,.877,0v1.315A.467.467,0,0,1,61.038,37.592Z" transform="translate(-12.661 -3.684)"/>
            <path id="Path_79597" data-name="Path 79597" class="cls-7" d="M93.438,49.254a.438.438,0,0,1,0-.877h1.169l.146-24.115a.388.388,0,0,1,.438-.438h.877c.292-1.462,1.169-2.631,2.046-2.631h.877l.146-3.654a.438.438,0,0,1,.877,0v3.654l1.023.146c.877,0,1.9,1.169,2.046,2.631h.877a.388.388,0,0,1,.438.438v6.577l7.454.146L112,20.754a.388.388,0,0,1,.438-.438h8.769a.388.388,0,0,1,.438.438v8.331l1.754.146.146-2.777a.388.388,0,0,1,.438-.438h8.769a.388.388,0,0,1,.438.438V48.523l1.462.146a.438.438,0,1,1,0,.877H93.438Zm31.277-1.023,7.746.146.146-21.631-7.892-.146Zm-8.623,0,7.6.146.146-18.415-7.746-.146Zm-11.4,0,7.454.146.146-16.369-7.6-.146Zm-9.062,0,7.892.146.146-23.531L95.777,24.7V48.231Zm17.392-27.185V48.231l1.9.146V29.523c0-.146,0-.292.146-.292.146-.146.146-.146.292-.146h5.408l.146-7.892h-7.892ZM98.262,22.069c-.292,0-.877.731-1.023,1.608l4.969.146c0-1.023-.585-1.754-.877-1.754Z" transform="translate(2.293 -12.131)"/>
            <path id="Path_79598" data-name="Path 79598" class="cls-7" d="M96.238,25.692a.388.388,0,0,1-.438-.438V23.938a.438.438,0,0,1,.877,0v1.315A.467.467,0,0,1,96.238,25.692Z" transform="translate(3.585 -9.177)"/>
            <path id="Path_79599" data-name="Path 79599" class="cls-7" d="M97.738,25.692a.388.388,0,0,1-.438-.438V23.938a.438.438,0,0,1,.877,0v1.315A.467.467,0,0,1,97.738,25.692Z" transform="translate(4.277 -9.177)"/>
            <path id="Path_79600" data-name="Path 79600" class="cls-7" d="M99.238,25.692a.388.388,0,0,1-.438-.438V23.938a.438.438,0,0,1,.877,0v1.315A.467.467,0,0,1,99.238,25.692Z" transform="translate(4.97 -9.177)"/>
            <path id="Path_79601" data-name="Path 79601" class="cls-7" d="M96.238,27.992a.388.388,0,0,1-.438-.438V26.238a.438.438,0,0,1,.877,0v1.315A.388.388,0,0,1,96.238,27.992Z" transform="translate(3.585 -8.115)"/>
            <path id="Path_79602" data-name="Path 79602" class="cls-7" d="M97.738,27.992a.388.388,0,0,1-.438-.438V26.238a.438.438,0,0,1,.877,0v1.315A.388.388,0,0,1,97.738,27.992Z" transform="translate(4.277 -8.115)"/>
            <path id="Path_79603" data-name="Path 79603" class="cls-7" d="M99.238,27.992a.388.388,0,0,1-.438-.438V26.238a.438.438,0,0,1,.877,0v1.315A.388.388,0,0,1,99.238,27.992Z" transform="translate(4.97 -8.115)"/>
            <path id="Path_79604" data-name="Path 79604" class="cls-7" d="M96.238,30.392a.388.388,0,0,1-.438-.438V28.638a.388.388,0,0,1,.438-.438.467.467,0,0,1,.438.438v1.315A.388.388,0,0,1,96.238,30.392Z" transform="translate(3.585 -7.008)"/>
            <path id="Path_79605" data-name="Path 79605" class="cls-7" d="M97.738,30.392a.388.388,0,0,1-.438-.438V28.638a.388.388,0,0,1,.438-.438.467.467,0,0,1,.438.438v1.315A.388.388,0,0,1,97.738,30.392Z" transform="translate(4.277 -7.008)"/>
            <path id="Path_79606" data-name="Path 79606" class="cls-7" d="M99.238,30.392a.388.388,0,0,1-.438-.438V28.638a.388.388,0,0,1,.438-.438.467.467,0,0,1,.438.438v1.315A.388.388,0,0,1,99.238,30.392Z" transform="translate(4.97 -7.008)"/>
            <path id="Path_79607" data-name="Path 79607" class="cls-7" d="M96.238,32.792a.388.388,0,0,1-.438-.438V31.038a.388.388,0,0,1,.438-.438.652.652,0,0,1,.438.585V32.5C96.677,32.646,96.531,32.792,96.238,32.792Z" transform="translate(3.585 -5.9)"/>
            <path id="Path_79608" data-name="Path 79608" class="cls-7" d="M97.738,32.792a.388.388,0,0,1-.438-.438V31.038a.388.388,0,0,1,.438-.438c.292,0,.438.292.438.585V32.5C98.177,32.646,98.031,32.792,97.738,32.792Z" transform="translate(4.277 -5.9)"/>
            <path id="Path_79609" data-name="Path 79609" class="cls-7" d="M99.238,32.792a.388.388,0,0,1-.438-.438V31.038a.388.388,0,0,1,.438-.438c.292,0,.438.292.438.585V32.5C99.677,32.646,99.531,32.792,99.238,32.792Z" transform="translate(4.97 -5.9)"/>
            <path id="Path_79610" data-name="Path 79610" class="cls-7" d="M96.238,35.192a.388.388,0,0,1-.438-.438V33.438A.388.388,0,0,1,96.238,33a.467.467,0,0,1,.438.438v1.315A.467.467,0,0,1,96.238,35.192Z" transform="translate(3.585 -4.792)"/>
            <path id="Path_79611" data-name="Path 79611" class="cls-7" d="M97.738,35.192a.388.388,0,0,1-.438-.438V33.438A.388.388,0,0,1,97.738,33a.467.467,0,0,1,.438.438v1.315A.467.467,0,0,1,97.738,35.192Z" transform="translate(4.277 -4.792)"/>
            <path id="Path_79612" data-name="Path 79612" class="cls-7" d="M99.238,35.192a.388.388,0,0,1-.438-.438V33.438A.388.388,0,0,1,99.238,33a.467.467,0,0,1,.438.438v1.315A.467.467,0,0,1,99.238,35.192Z" transform="translate(4.97 -4.792)"/>
            <path id="Path_79613" data-name="Path 79613" class="cls-7" d="M96.238,37.592a.388.388,0,0,1-.438-.438V35.838a.438.438,0,0,1,.877,0v1.315A.467.467,0,0,1,96.238,37.592Z" transform="translate(3.585 -3.684)"/>
            <path id="Path_79614" data-name="Path 79614" class="cls-7" d="M97.738,37.592a.388.388,0,0,1-.438-.438V35.838a.438.438,0,0,1,.877,0v1.315A.467.467,0,0,1,97.738,37.592Z" transform="translate(4.277 -3.684)"/>
            <path id="Path_79615" data-name="Path 79615" class="cls-7" d="M99.238,37.592a.388.388,0,0,1-.438-.438V35.838a.438.438,0,0,1,.877,0v1.315A.467.467,0,0,1,99.238,37.592Z" transform="translate(4.97 -3.684)"/>
            <path id="Path_79616" data-name="Path 79616" class="cls-7" d="M102.138,30.392a.388.388,0,0,1-.438-.438V28.638a.438.438,0,0,1,.877,0v1.315A.388.388,0,0,1,102.138,30.392Z" transform="translate(6.308 -7.008)"/>
            <path id="Path_79617" data-name="Path 79617" class="cls-7" d="M103.638,30.392a.388.388,0,0,1-.438-.438V28.638a.438.438,0,0,1,.877,0v1.315A.388.388,0,0,1,103.638,30.392Z" transform="translate(7 -7.008)"/>
            <path id="Path_79618" data-name="Path 79618" class="cls-7" d="M105.138,30.392a.388.388,0,0,1-.438-.438V28.638a.438.438,0,0,1,.877,0v1.315A.388.388,0,0,1,105.138,30.392Z" transform="translate(7.693 -7.008)"/>
            <path id="Path_79619" data-name="Path 79619" class="cls-7" d="M102.138,32.792a.467.467,0,0,1-.438-.438V31.038a.438.438,0,0,1,.877,0v1.315A.388.388,0,0,1,102.138,32.792Z" transform="translate(6.308 -5.9)"/>
            <path id="Path_79620" data-name="Path 79620" class="cls-7" d="M103.638,32.792a.467.467,0,0,1-.438-.438V31.038a.438.438,0,0,1,.877,0v1.315A.388.388,0,0,1,103.638,32.792Z" transform="translate(7 -5.9)"/>
            <path id="Path_79621" data-name="Path 79621" class="cls-7" d="M105.138,32.792a.467.467,0,0,1-.438-.438V31.038a.438.438,0,0,1,.877,0v1.315A.388.388,0,0,1,105.138,32.792Z" transform="translate(7.693 -5.9)"/>
            <path id="Path_79622" data-name="Path 79622" class="cls-7" d="M102.138,35.192a.467.467,0,0,1-.438-.438V33.438a.438.438,0,0,1,.877,0v1.315A.388.388,0,0,1,102.138,35.192Z" transform="translate(6.308 -4.792)"/>
            <path id="Path_79623" data-name="Path 79623" class="cls-7" d="M103.638,35.192a.467.467,0,0,1-.438-.438V33.438a.438.438,0,0,1,.877,0v1.315A.388.388,0,0,1,103.638,35.192Z" transform="translate(7 -4.792)"/>
            <path id="Path_79624" data-name="Path 79624" class="cls-7" d="M105.138,35.192a.467.467,0,0,1-.438-.438V33.438a.438.438,0,0,1,.877,0v1.315A.388.388,0,0,1,105.138,35.192Z" transform="translate(7.693 -4.792)"/>
            <path id="Path_79625" data-name="Path 79625" class="cls-7" d="M102.138,37.592a.467.467,0,0,1-.438-.438V35.838a.438.438,0,0,1,.877,0v1.315A.467.467,0,0,1,102.138,37.592Z" transform="translate(6.308 -3.684)"/>
            <path id="Path_79626" data-name="Path 79626" class="cls-7" d="M103.638,37.592a.467.467,0,0,1-.438-.438V35.838a.438.438,0,0,1,.877,0v1.315A.467.467,0,0,1,103.638,37.592Z" transform="translate(7 -3.684)"/>
            <path id="Path_79627" data-name="Path 79627" class="cls-7" d="M105.138,37.592a.467.467,0,0,1-.438-.438V35.838a.438.438,0,0,1,.877,0v1.315A.467.467,0,0,1,105.138,37.592Z" transform="translate(7.693 -3.684)"/>
            <path id="Path_79628" data-name="Path 79628" class="cls-7" d="M116.038,34.023a.467.467,0,0,1-.438-.438V29.638a.438.438,0,0,1,.877,0v3.946C116.623,33.877,116.331,34.023,116.038,34.023Z" transform="translate(12.724 -6.546)"/>
            <path id="Path_79629" data-name="Path 79629" class="cls-7" d="M117.538,34.023a.467.467,0,0,1-.438-.438V29.638a.438.438,0,0,1,.877,0v3.946A.388.388,0,0,1,117.538,34.023Z" transform="translate(13.416 -6.546)"/>
            <path id="Path_79630" data-name="Path 79630" class="cls-7" d="M118.938,34.023a.467.467,0,0,1-.438-.438V29.638a.438.438,0,0,1,.877,0v3.946A.388.388,0,0,1,118.938,34.023Z" transform="translate(14.062 -6.546)"/>
            <path id="Path_79631" data-name="Path 79631" class="cls-7" d="M116.038,29.723a.467.467,0,0,1-.438-.438V25.338a.438.438,0,0,1,.877,0v3.946C116.623,29.431,116.331,29.723,116.038,29.723Z" transform="translate(12.724 -8.531)"/>
            <path id="Path_79632" data-name="Path 79632" class="cls-7" d="M117.538,29.723a.467.467,0,0,1-.438-.438V25.338a.438.438,0,0,1,.877,0v3.946A.467.467,0,0,1,117.538,29.723Z" transform="translate(13.416 -8.531)"/>
            <path id="Path_79633" data-name="Path 79633" class="cls-7" d="M118.938,29.723a.467.467,0,0,1-.438-.438V25.338a.438.438,0,0,1,.877,0v3.946A.467.467,0,0,1,118.938,29.723Z" transform="translate(14.062 -8.531)"/>
            <path id="Path_79634" data-name="Path 79634" class="cls-7" d="M116.038,38.223a.388.388,0,0,1-.438-.438V33.838a.438.438,0,1,1,.877,0v3.946C116.623,38.077,116.331,38.223,116.038,38.223Z" transform="translate(12.724 -4.608)"/>
            <path id="Path_79635" data-name="Path 79635" class="cls-7" d="M117.538,38.223a.388.388,0,0,1-.438-.438V33.838a.438.438,0,1,1,.877,0v3.946A.388.388,0,0,1,117.538,38.223Z" transform="translate(13.416 -4.608)"/>
            <path id="Path_79636" data-name="Path 79636" class="cls-7" d="M118.938,38.223a.388.388,0,0,1-.438-.438V33.838a.438.438,0,1,1,.877,0v3.946A.388.388,0,0,1,118.938,38.223Z" transform="translate(14.062 -4.608)"/>
            <path id="Path_79637" data-name="Path 79637" class="cls-7" d="M108.138,26.023a.388.388,0,0,1-.438-.438V21.638a.438.438,0,1,1,.877,0v3.946A.467.467,0,0,1,108.138,26.023Z" transform="translate(9.077 -10.238)"/>
            <path id="Path_79638" data-name="Path 79638" class="cls-7" d="M109.538,26.023a.388.388,0,0,1-.438-.438V21.638a.438.438,0,1,1,.877,0v3.946A.467.467,0,0,1,109.538,26.023Z" transform="translate(9.724 -10.238)"/>
            <path id="Path_79639" data-name="Path 79639" class="cls-7" d="M111.038,26.023a.388.388,0,0,1-.438-.438V21.638a.438.438,0,0,1,.877,0v3.946A.467.467,0,0,1,111.038,26.023Z" transform="translate(10.416 -10.238)"/>
            <path id="Path_79640" data-name="Path 79640" class="cls-7" d="M109.938,30.392a.388.388,0,0,1-.438-.438V28.638a.438.438,0,0,1,.877,0v1.315A.388.388,0,0,1,109.938,30.392Z" transform="translate(9.908 -7.008)"/>
            <path id="Path_79641" data-name="Path 79641" class="cls-7" d="M111.438,30.392a.388.388,0,0,1-.438-.438V28.638a.438.438,0,0,1,.877,0v1.315A.388.388,0,0,1,111.438,30.392Z" transform="translate(10.601 -7.008)"/>
            <path id="Path_79642" data-name="Path 79642" class="cls-7" d="M112.938,30.392a.388.388,0,0,1-.438-.438V28.638a.438.438,0,0,1,.877,0v1.315A.388.388,0,0,1,112.938,30.392Z" transform="translate(11.293 -7.008)"/>
            <path id="Path_79643" data-name="Path 79643" class="cls-7" d="M109.938,32.792a.467.467,0,0,1-.438-.438V31.038a.438.438,0,1,1,.877,0v1.315A.388.388,0,0,1,109.938,32.792Z" transform="translate(9.908 -5.9)"/>
            <path id="Path_79644" data-name="Path 79644" class="cls-7" d="M111.438,32.792a.467.467,0,0,1-.438-.438V31.038a.438.438,0,1,1,.877,0v1.315A.388.388,0,0,1,111.438,32.792Z" transform="translate(10.601 -5.9)"/>
            <path id="Path_79645" data-name="Path 79645" class="cls-7" d="M112.938,32.792a.467.467,0,0,1-.438-.438V31.038a.438.438,0,0,1,.877,0v1.315A.388.388,0,0,1,112.938,32.792Z" transform="translate(11.293 -5.9)"/>
            <path id="Path_79646" data-name="Path 79646" class="cls-7" d="M109.938,35.192a.467.467,0,0,1-.438-.438V33.438a.438.438,0,1,1,.877,0v1.315A.388.388,0,0,1,109.938,35.192Z" transform="translate(9.908 -4.792)"/>
            <path id="Path_79647" data-name="Path 79647" class="cls-7" d="M111.438,35.192a.467.467,0,0,1-.438-.438V33.438a.438.438,0,1,1,.877,0v1.315A.388.388,0,0,1,111.438,35.192Z" transform="translate(10.601 -4.792)"/>
            <path id="Path_79648" data-name="Path 79648" class="cls-7" d="M112.938,35.192a.467.467,0,0,1-.438-.438V33.438a.438.438,0,0,1,.877,0v1.315A.388.388,0,0,1,112.938,35.192Z" transform="translate(11.293 -4.792)"/>
            <path id="Path_79649" data-name="Path 79649" class="cls-7" d="M109.938,37.592a.467.467,0,0,1-.438-.438V35.838a.438.438,0,1,1,.877,0v1.315A.467.467,0,0,1,109.938,37.592Z" transform="translate(9.908 -3.684)"/>
            <path id="Path_79650" data-name="Path 79650" class="cls-7" d="M111.438,37.592a.467.467,0,0,1-.438-.438V35.838a.438.438,0,1,1,.877,0v1.315A.467.467,0,0,1,111.438,37.592Z" transform="translate(10.601 -3.684)"/>
            <path id="Path_79651" data-name="Path 79651" class="cls-7" d="M112.938,37.592a.467.467,0,0,1-.438-.438V35.838a.438.438,0,1,1,.877,0v1.315A.467.467,0,0,1,112.938,37.592Z" transform="translate(11.293 -3.684)"/>
          </g>
        </g>
        <g id="Group_32518" data-name="Group 32518" transform="translate(43.992 77.754)">
          <path id="Path_79652" data-name="Path 79652" class="cls-7" d="M120.947,56.092v4.969H33.692V56.092h87.254m2.192-2.192H31.5v9.354h91.493V53.9Z" transform="translate(-31.5 -53.9)"/>
        </g>
        <path id="Path_79653" data-name="Path 79653" class="cls-2" d="M53,115.893H16.9a1.935,1.935,0,0,1-1.9-1.9V43.4a1.935,1.935,0,0,1,1.9-1.9H53a1.935,1.935,0,0,1,1.9,1.9v70.446A1.969,1.969,0,0,1,53,115.893Z" transform="translate(4.877 18.131)"/>
        <rect id="Rectangle_7621" data-name="Rectangle 7621" class="cls-2" width="31.569" height="51.885" transform="translate(24.115 67.67)"/>
        <path id="Path_79654" data-name="Path 79654" class="cls-7" d="M32.677,45.554h-5.7a.943.943,0,0,1-.877-.877h0a.943.943,0,0,1,.877-.877h5.7a.943.943,0,0,1,.877.877h0A.943.943,0,0,1,32.677,45.554Z" transform="translate(10 19.193)"/>
        <circle id="Ellipse_2472" data-name="Ellipse 2472" class="cls-9" cx="3.8" cy="3.8" r="3.8" transform="translate(36.1 123.354)"/>
        <g id="Group_32519" data-name="Group 32519" transform="translate(26.6 90.616)">
          <rect id="Rectangle_7622" data-name="Rectangle 7622" class="cls-5" width="25.431" height="2.192" transform="translate(0.585 0.438)"/>
          <path id="Path_79655" data-name="Path 79655" class="cls-7" d="M45.031,63.723v1.169H20.769V63.723H45.031M46.054,62.7H19.6v3.362H46.054V62.7Z" transform="translate(-19.6 -62.7)"/>
        </g>
        <g id="Group_32522" data-name="Group 32522" transform="translate(33.177 99.093)">
          <g id="Group_32520" data-name="Group 32520" transform="translate(0 11.108)">
            <path id="Path_79656" data-name="Path 79656" class="cls-7" d="M36.669,76.1H24.685a.585.585,0,0,0,0,1.169H36.669a.629.629,0,0,0,.585-.585A.535.535,0,0,0,36.669,76.1Z" transform="translate(-24.1 -76.1)"/>
          </g>
          <g id="Group_32521" data-name="Group 32521" transform="translate(2.681)">
            <path id="Path_79657" data-name="Path 79657" class="cls-7" d="M27.2,72.885c.146,0,.146-.146,0,0l2.046-2.046v6.723a.629.629,0,0,0,.585.585.517.517,0,0,0,.585-.585V70.838l1.9,1.9a.66.66,0,0,0,.877,0,.932.932,0,0,0,0-.877l-2.923-2.923c-.146-.146-.292-.438-.585-.438s-.292.146-.585.438l-2.923,2.923a.689.689,0,0,0-.146.877C26.615,73.031,27.053,73.031,27.2,72.885Z" transform="translate(-25.934 -68.5)"/>
          </g>
        </g>
        <g id="outdoor-mountains_1_" transform="translate(148.201 65.696)">
          <path id="Path_79658" data-name="Path 79658" class="cls-7" d="M104.72,65.01h0a.586.586,0,0,1-.292-.877h0l9.939-18.123a.7.7,0,0,1,.877-.292c.146,0,.146.146.292.292l10.231,18.708a.7.7,0,0,1-.292.877c-.292.146-.585,0-.877-.292l-9.646-17.685-9.354,17.1C105.3,65.01,105.012,65.157,104.72,65.01Z" transform="translate(-102.089 -45.645)"/>
          <path id="Path_79659" data-name="Path 79659" class="cls-7" d="M110.869,55.561a.314.314,0,0,1-.292-.292l-2.046-3.362c-.146-.292-.146-.731.146-.877s.731-.146.877.146h0l2.046,3.362a.7.7,0,0,1-.292.877A.537.537,0,0,1,110.869,55.561Z" transform="translate(-100.199 -43.211)"/>
          <path id="Path_79660" data-name="Path 79660" class="cls-7" d="M110.21,56.038h0a.651.651,0,0,1-.292-.877h0l1.9-4.823a.8.8,0,0,1,.731-.438h0a.651.651,0,0,1,.292.877h0l-1.9,4.823a.493.493,0,0,1-.731.438Z" transform="translate(-99.541 -43.688)"/>
          <path id="Path_79661" data-name="Path 79661" class="cls-7" d="M113.223,55.284h-.146c-.292-.146-.292-.585-.146-.877h0l2.046-2.631c.146-.292.585-.292.877-.146s.292.585.146.877h0l-2.046,2.631A.643.643,0,0,1,113.223,55.284Z" transform="translate(-98.169 -42.934)"/>
          <path id="Path_79662" data-name="Path 79662" class="cls-7" d="M114,56.01a.314.314,0,0,1-.292-.292L111.218,50.9a.654.654,0,1,1,1.169-.585l2.485,4.823a.7.7,0,0,1-.292.877Z" transform="translate(-98.941 -43.66)"/>
          <path id="Path_79663" data-name="Path 79663" class="cls-7" d="M126.734,63.757a.314.314,0,0,1-.292-.292l-6.285-11.546-3.069,5.554a.7.7,0,0,1-.877.292h0a.7.7,0,0,1-.292-.877h0l3.654-6.577a.7.7,0,0,1,.877-.292c.146,0,.146.146.292.292L127.61,62.88a.7.7,0,0,1-.292.877Z" transform="translate(-96.772 -43.66)"/>
          <path id="Path_79664" data-name="Path 79664" class="cls-7" d="M117.61,59.254h0a.651.651,0,0,1-.292-.877h0l1.754-4.238a.8.8,0,0,1,.731-.438h0a.651.651,0,0,1,.292.877h0l-1.754,4.238a.493.493,0,0,1-.731.438Z" transform="translate(-96.126 -41.935)"/>
          <path id="Path_79665" data-name="Path 79665" class="cls-7" d="M120.338,58.638a.884.884,0,0,1-.438-.877.143.143,0,0,1,.146-.146l1.754-2.338c.146-.292.585-.292.877-.146s.292.585.146.877l-1.754,2.338A.534.534,0,0,1,120.338,58.638Z" transform="translate(-94.908 -41.319)"/>
          <path id="Path_79666" data-name="Path 79666" class="cls-7" d="M121,59.226a.314.314,0,0,1-.292-.292L118.518,54.7a.654.654,0,1,1,1.169-.585h0l2.192,4.238a.7.7,0,0,1-.292.877A.445.445,0,0,1,121,59.226Z" transform="translate(-95.572 -41.907)"/>
          <path id="Path_79667" data-name="Path 79667" class="cls-7" d="M115.346,51.715a.884.884,0,0,1-.438-.877c.146-.292.292-.438.585-.438h2.631a1.111,1.111,0,0,0,1.169-.877.759.759,0,0,0-.292-.585,2.077,2.077,0,0,0-.877-.292h-.146c-.292,0-.731-.146-.731-.585h0a1.116,1.116,0,0,0-.292-.731,1.756,1.756,0,0,0-2.046,0c-.292.146-.292.438-.438.731a.585.585,0,0,1-1.169,0h0a2.284,2.284,0,0,1,.877-1.754,2.866,2.866,0,0,1,3.654,0,2.621,2.621,0,0,1,.731,1.023,2.177,2.177,0,0,1,1.315.585,2.347,2.347,0,0,1,.731,1.608,2.41,2.41,0,0,1-2.485,2.192h-2.777Z" transform="translate(-97.954 -45.65)"/>
          <path id="Path_79668" data-name="Path 79668" class="cls-7" d="M103.238,59.715a.884.884,0,0,1-.438-.877c.146-.292.292-.438.585-.438h30.4a.585.585,0,0,1,0,1.169h-30.4C103.385,59.715,103.385,59.715,103.238,59.715Z" transform="translate(-102.8 -39.765)"/>
        </g>
      </g>
      <text id="_100_" data-name="100%" class="cls-10" transform="translate(78.338 70.221)"><tspan x="0" y="0">100%</tspan></text>
      <g id="Group_32524" data-name="Group 32524" transform="translate(59.777 77.754)">
        <rect id="Rectangle_7623" data-name="Rectangle 7623" class="cls-7" width="75.708" height="9.354"/>
      </g>
      <text id="_100_2" data-name="100%" class="cls-11" transform="translate(32.64 84.133)"><tspan x="0" y="0">100%</tspan></text>
      <g id="Group_32525" data-name="Group 32525" transform="translate(26.6 90.616)">
        <rect id="Rectangle_7624" data-name="Rectangle 7624" class="cls-7" width="26.454" height="3.362"/>
      </g>
      <path id="Path_79669" data-name="Path 79669" class="cls-3" d="M143.592,83.6h-.877a4.277,4.277,0,0,0-3.946,2.777v-.146a4.242,4.242,0,0,0-4.238-4.238h-.877a4.277,4.277,0,0,0-3.946,2.777v-.146a4.242,4.242,0,0,0-4.238-4.238h-.877a4.277,4.277,0,0,0-3.946,2.777V61.238A4.242,4.242,0,0,0,116.408,57h-.877a4.242,4.242,0,0,0-4.238,4.238h0l-.146,41.508-8.623-9.5a4.2,4.2,0,0,0-5.992-.292h0l-.585.585a4.372,4.372,0,0,0-.292,6.138l17.977,19.731.146.146a10.739,10.739,0,0,0,7.308,3.946v7.308h20.9V119.993a11.218,11.218,0,0,0,5.262-8.185,5.193,5.193,0,0,0,.292-1.462V87.692A3.874,3.874,0,0,0,143.592,83.6Z" transform="translate(41.585 25.285)"/>
      <path id="Path_79670" data-name="Path 79670" class="cls-2" d="M138.662,118.954V107.7H110.746l-.146,11.254" transform="translate(49.001 48.685)"/>
      <path id="Path_79671" data-name="Path 79671" class="cls-3" d="M145.346,130.092V114.746L107.2,114.6v15.492" transform="translate(47.431 51.87)"/>
    </g>
  </g>
</svg>
