<svg xmlns="http://www.w3.org/2000/svg" viewBox="6685 295 100 65">
  <defs>
    <style>
      .cls-1, .cls-2 {
        fill: #fff;
        stroke: #fff;
      }

      .cls-2 {
        stroke-width: 0.5px;
      }

      .cls-3 {
        fill: none;
      }
    </style>
  </defs>
  <g id="Group_60070" data-name="Group 60070" transform="translate(6048 -6)">
    <g id="Group_60048" data-name="Group 60048" transform="translate(1186.425 -7030.057)">
      <g id="Group_29247" data-name="Group 29247" transform="translate(-518.425 7344.057)">
        <path id="Path_32903" data-name="Path 32903" class="cls-1" d="M34.932,47.133a1.223,1.223,0,0,1-.838-.381l-3.581-4.114a1.178,1.178,0,0,1,.076-1.6,1.354,1.354,0,0,1,.762-.3,1.223,1.223,0,0,1,.838.381l2.743,3.124,6.552-8.38A1.086,1.086,0,0,1,42.4,35.4a1.229,1.229,0,0,1,.686.229,1.1,1.1,0,0,1,.229,1.524L35.923,46.6a1.43,1.43,0,0,1-.99.533Z" transform="translate(-7.201 -8.43)"/>
        <path id="Path_32904" data-name="Path 32904" class="cls-2" d="M10.362,14.324a.762.762,0,0,1,0-1.524H27.58a.762.762,0,0,1,0,1.524Z" transform="translate(-2.286 -3.048)"/>
        <path id="Path_32905" data-name="Path 32905" class="cls-2" d="M29.712,46.549a13.356,13.356,0,0,1-10.818-5.485l-.229-.3H3.352A3.382,3.382,0,0,1,0,37.407V3.352A3.382,3.382,0,0,1,3.352,0H29.941a3.382,3.382,0,0,1,3.352,3.352V19.961l.533.152a13.534,13.534,0,0,1-4.114,26.436Zm0-25.6A11.922,11.922,0,0,0,17.98,30.4a10.429,10.429,0,0,0-.3,2.59,12.357,12.357,0,0,0,1.752,6.323,10.851,10.851,0,0,0,2.438,2.819,12.041,12.041,0,0,0,19.961-9.142A11.977,11.977,0,0,0,31.541,21.1c-.381-.076-.686-.076-.99-.152h-.838ZM3.352,1.143A2.211,2.211,0,0,0,1.143,3.352V37.483a2.211,2.211,0,0,0,2.209,2.209H17.827l-.457-1.067a12.853,12.853,0,0,1-1.219-5.562A13.02,13.02,0,0,1,16.38,30.7l.152-.914H8.076a.762.762,0,0,1,0-1.524h8.914l.229-.457a13.2,13.2,0,0,1,4.723-5.866l1.981-1.371H8.076a.762.762,0,1,1,0-1.524H25.294a.8.8,0,0,1,.686.381l.3.533.533-.152a13.121,13.121,0,0,1,2.971-.3,12.367,12.367,0,0,1,1.6.076l.838.076V3.352a2.211,2.211,0,0,0-2.209-2.209Z" transform="translate(0)"/>
      </g>
    </g>
    <rect id="Rectangle_8268" data-name="Rectangle 8268" class="cls-3" width="100" height="65" transform="translate(637 301)"/>
  </g>
</svg>
