<svg xmlns="http://www.w3.org/2000/svg" viewBox="1936 1370 55 40">
  <defs>
    <style>
      .cls-1, .cls-2, .cls-4 {
        fill: none;
      }

      .cls-2 {
        stroke: #8f95a2;
      }

      .cls-3, .cls-6 {
        fill: #8f95a2;
      }

      .cls-5, .cls-6 {
        stroke: none;
      }
    </style>
  </defs>
  <g id="Group_60073" data-name="Group 60073" transform="translate(1649 935)">
    <g id="Group_60059" data-name="Group 60059" transform="translate(-625 95.702)">
      <g id="Path_97959" data-name="Path 97959" class="cls-1" transform="translate(929 340.717)">
        <path class="cls-5" d="M2.957,0H17.464a2.846,2.846,0,0,1,2.957,2.721V33.649a2.846,2.846,0,0,1-2.957,2.721H2.957A2.846,2.846,0,0,1,0,33.649V2.721A2.846,2.846,0,0,1,2.957,0Z"/>
        <path class="cls-6" d="M 17.46401214599609 35.12053298950195 C 18.40512084960938 35.12053298950195 19.17076110839844 34.46049499511719 19.17076110839844 33.64920425415039 L 19.17076110839844 2.721324682235718 C 19.17076110839844 1.910034537315369 18.40512084960938 1.250004529953003 17.46401214599609 1.250004529953003 L 2.956751585006714 1.250004529953003 C 2.015641450881958 1.250004529953003 1.250001549720764 1.910034537315369 1.250001549720764 2.721324682235718 L 1.250001549720764 33.64920425415039 C 1.250001549720764 34.46049499511719 2.015641450881958 35.12053298950195 2.956751585006714 35.12053298950195 L 17.46401214599609 35.12053298950195 M 17.46401214599609 36.37053298950195 L 2.956751585006714 36.37053298950195 C 1.323781490325928 36.37053298950195 1.507873548689531e-06 35.15215301513672 1.507873548689531e-06 33.64920425415039 L 1.507873548689531e-06 2.721324682235718 C 1.507873548689531e-06 1.218384623527527 1.323781490325928 4.587402145261876e-06 2.956751585006714 4.587402145261876e-06 L 17.46401214599609 4.587402145261876e-06 C 19.09698104858398 4.587402145261876e-06 20.42076110839844 1.218384623527527 20.42076110839844 2.721324682235718 L 20.42076110839844 33.64920425415039 C 20.42076110839844 35.15215301513672 19.09698104858398 36.37053298950195 17.46401214599609 36.37053298950195 Z"/>
      </g>
      <g id="Rectangle_7902" data-name="Rectangle 7902" class="cls-2" transform="translate(931.041 345.743)">
        <rect class="cls-5" width="15.903" height="26.196"/>
        <rect class="cls-4" x="0.5" y="0.5" width="14.903" height="25.196"/>
      </g>
      <rect id="Rectangle_8144" data-name="Rectangle 8144" class="cls-3" width="3.822" height="0.488" rx="0.244" transform="translate(937.8 343.707)"/>
      <ellipse id="Ellipse_2620" data-name="Ellipse 2620" class="cls-3" cx="0.378" cy="0.377" rx="0.378" ry="0.377" transform="translate(935.982 343.44)"/>
      <ellipse id="Ellipse_2621" data-name="Ellipse 2621" class="cls-3" cx="0.228" cy="0.228" rx="0.228" ry="0.228" transform="translate(939.205 342.349)"/>
      <g id="Path_97956" data-name="Path 97956" class="cls-1" transform="translate(937.844 372.485)">
        <path class="cls-5" d="M1.394,0A1.394,1.394,0,1,1,0,1.394,1.394,1.394,0,0,1,1.394,0Z"/>
        <path class="cls-6" d="M 1.394213557243347 2.288403511047363 C 1.887283563613892 2.288403511047363 2.288423538208008 1.887263417243958 2.288423538208008 1.394203424453735 C 2.288423538208008 0.9011434316635132 1.887283563613892 0.5000033974647522 1.394213557243347 0.5000033974647522 C 0.9011435508728027 0.5000033974647522 0.5000035762786865 0.9011434316635132 0.5000035762786865 1.394203424453735 C 0.5000035762786865 1.887263417243958 0.9011435508728027 2.288403511047363 1.394213557243347 2.288403511047363 M 1.394213557243347 2.788403511047363 C 0.6242135763168335 2.788403511047363 3.557243417162681e-06 2.164203405380249 3.557243417162681e-06 1.394203424453735 C 3.557243417162681e-06 0.6242034435272217 0.6242135763168335 3.424453780098702e-06 1.394213557243347 3.424453780098702e-06 C 2.16421365737915 3.424453780098702e-06 2.788423538208008 0.6242034435272217 2.788423538208008 1.394203424453735 C 2.788423538208008 2.164203405380249 2.16421365737915 2.788403511047363 1.394213557243347 2.788403511047363 Z"/>
      </g>
      <g id="Group_59666" data-name="Group 59666" transform="translate(933.082 352.777)">
        <path id="Path_97957" data-name="Path 97957" class="cls-3" d="M11.322,45.7H.545a.545.545,0,1,0,0,1.091H11.322a.54.54,0,0,0,.545-.545A.554.554,0,0,0,11.322,45.7Z" transform="translate(0 -35.731)"/>
        <path id="Path_97958" data-name="Path 97958" class="cls-3" d="M14.668,8.246c.131.131.327.393.545.371.24,0,.327-.153.5-.349l2.618-2.639a.576.576,0,1,0-.7-.916c-.044.022-.065.065-.109.109L15.8,6.544V.589A.587.587,0,0,0,15.213,0a.6.6,0,0,0-.589.589v6L12.9,4.865a.587.587,0,0,0-.829.044.568.568,0,0,0,0,.763Z" transform="translate(-9.324)"/>
      </g>
    </g>
    <rect id="Rectangle_8274" data-name="Rectangle 8274" class="cls-4" width="55" height="40" transform="translate(287 435)"/>
  </g>
</svg>
