<svg xmlns="http://www.w3.org/2000/svg" viewBox="7056 295 100 65">
  <defs>
    <style>
      .cls-1, .cls-2, .cls-4 {
        fill: none;
      }

      .cls-2 {
        stroke: #fff;
      }

      .cls-3, .cls-6 {
        fill: #fff;
      }

      .cls-5, .cls-6 {
        stroke: none;
      }
    </style>
  </defs>
  <g id="Group_60067" data-name="Group 60067" transform="translate(6048 -6)">
    <g id="Group_60049" data-name="Group 60049" transform="translate(113 -32.717)">
      <g id="Path_97959" data-name="Path 97959" class="cls-1" transform="translate(929 340.717)">
        <path class="cls-5" d="M4.651,0H27.469A4.477,4.477,0,0,1,32.12,4.28V52.927a4.477,4.477,0,0,1-4.651,4.28H4.651A4.477,4.477,0,0,1,0,52.927V4.28A4.477,4.477,0,0,1,4.651,0Z"/>
        <path class="cls-6" d="M 27.4694881439209 55.95791625976562 C 29.34465789794922 55.95791625976562 30.87021827697754 54.59846878051758 30.87021827697754 52.92748641967773 L 30.87021827697754 4.280427932739258 C 30.87021827697754 2.609448194503784 29.34465789794922 1.249998092651367 27.4694881439209 1.249998092651367 L 4.650728225708008 1.249998092651367 C 2.775558233261108 1.249998092651367 1.249998211860657 2.609448194503784 1.249998211860657 4.280427932739258 L 1.249998211860657 52.92748641967773 C 1.249998211860657 54.59846878051758 2.775558233261108 55.95791625976562 4.650728225708008 55.95791625976562 L 27.4694881439209 55.95791625976562 M 27.4694881439209 57.20791625976562 L 4.650728225708008 57.20791625976562 C 2.082198143005371 57.20791625976562 -1.815185555642529e-06 55.29149627685547 -1.815185555642529e-06 52.92748641967773 L -1.815185555642529e-06 4.280427932739258 C -1.815185555642529e-06 1.916418075561523 2.082198143005371 -1.87011721664021e-06 4.650728225708008 -1.87011721664021e-06 L 27.4694881439209 -1.87011721664021e-06 C 30.03801727294922 -1.87011721664021e-06 32.12021636962891 1.916418075561523 32.12021636962891 4.280427932739258 L 32.12021636962891 52.92748641967773 C 32.12021636962891 55.29149627685547 30.03801727294922 57.20791625976562 27.4694881439209 57.20791625976562 Z"/>
      </g>
      <g id="Rectangle_7902" data-name="Rectangle 7902" class="cls-2" transform="translate(932.21 348.623)">
        <rect class="cls-5" width="25.015" height="41.204"/>
        <rect class="cls-4" x="0.5" y="0.5" width="24.015" height="40.204"/>
      </g>
      <rect id="Rectangle_8144" data-name="Rectangle 8144" class="cls-3" width="6.011" height="0.767" rx="0.384" transform="translate(941.841 345.42)"/>
      <ellipse id="Ellipse_2620" data-name="Ellipse 2620" class="cls-3" cx="0.594" cy="0.594" rx="0.594" ry="0.594" transform="translate(943.982 345)"/>
      <ellipse id="Ellipse_2621" data-name="Ellipse 2621" class="cls-3" cx="0.359" cy="0.359" rx="0.359" ry="0.359" transform="translate(945.052 343.284)"/>
      <g id="Path_97956" data-name="Path 97956" class="cls-1" transform="translate(942.911 390.685)">
        <path class="cls-5" d="M2.193,0A2.193,2.193,0,1,1,0,2.193,2.193,2.193,0,0,1,2.193,0Z"/>
        <path class="cls-6" d="M 2.192985773086548 3.885939836502075 C 3.126505851745605 3.885939836502075 3.88597583770752 3.126479864120483 3.88597583770752 2.192969799041748 C 3.88597583770752 1.259459853172302 3.126505851745605 0.4999997913837433 2.192985773086548 0.4999997913837433 C 1.25946581363678 0.4999997913837433 0.4999957680702209 1.259459853172302 0.4999957680702209 2.192969799041748 C 0.4999957680702209 3.126479864120483 1.25946581363678 3.885939836502075 2.192985773086548 3.885939836502075 M 2.192985773086548 4.385939598083496 C 0.9818357825279236 4.385939598083496 -4.226913461025106e-06 3.404109716415405 -4.226913461025106e-06 2.192969799041748 C -4.226913461025106e-06 0.981829822063446 0.9818357825279236 -2.009582544815203e-07 2.192985773086548 -2.009582544815203e-07 C 3.404135704040527 -2.009582544815203e-07 4.38597583770752 0.981829822063446 4.38597583770752 2.192969799041748 C 4.38597583770752 3.404109716415405 3.404135704040527 4.385939598083496 2.192985773086548 4.385939598083496 Z"/>
      </g>
      <g id="Group_59666" data-name="Group 59666" transform="translate(935.421 359.686)">
        <path id="Path_97957" data-name="Path 97957" class="cls-3" d="M17.808,45.7H.858a.858.858,0,1,0,0,1.716h16.95a.849.849,0,0,0,.858-.858A.872.872,0,0,0,17.808,45.7Z" transform="translate(0 -30.02)"/>
        <path id="Path_97958" data-name="Path 97958" class="cls-3" d="M16.24,12.97c.206.206.515.618.858.583.377,0,.515-.24.789-.549L22,8.852a.906.906,0,1,0-1.1-1.441c-.069.034-.1.1-.172.172l-2.711,2.711V.926A.923.923,0,0,0,17.1,0a.937.937,0,0,0-.926.926v9.436L13.46,7.652a.923.923,0,0,0-1.3.069.894.894,0,0,0,0,1.2Z" transform="translate(-7.833)"/>
      </g>
    </g>
    <rect id="Rectangle_8271" data-name="Rectangle 8271" class="cls-4" width="100" height="65" transform="translate(1008 301)"/>
  </g>
</svg>
