<svg xmlns="http://www.w3.org/2000/svg" viewBox="1936 1425 55 40">
  <defs>
    <style>
      .cls-1, .cls-3, .cls-4 {
        fill: none;
      }

      .cls-1, .cls-3 {
        stroke: #8f95a2;
      }

      .cls-1 {
        stroke-width: 0.75px;
      }

      .cls-2 {
        fill: #8f95a2;
      }
    </style>
  </defs>
  <g id="Group_60074" data-name="Group 60074" transform="translate(1649 935)">
    <g id="Group_60060" data-name="Group 60060" transform="translate(-682.88 720.907)">
      <path id="Path_97644" data-name="Path 97644" class="cls-1" d="M192.536,365.07h-3.5a1.326,1.326,0,0,0-1.3,1.3v3.5a1.326,1.326,0,0,0,1.3,1.3h3.5a1.326,1.326,0,0,0,1.3-1.3v-3.5a1.326,1.326,0,0,0-1.3-1.3Zm-1.768,4.862a1.806,1.806,0,1,1,.022,0Z" transform="translate(806.363 -572.581)"/>
      <path id="Path_97645" data-name="Path 97645" class="cls-2" d="M193.06,369.264h-.066a.756.756,0,1,1-1.14.911,1.246,1.246,0,0,0-.053.345,1.26,1.26,0,1,0,1.26-1.26Z" transform="translate(804.098 -574.919)"/>
      <path id="Path_97646" data-name="Path 97646" class="cls-3" d="M190.094,348.733h0a1.512,1.512,0,0,0-1.414-1.326V344.68h-1.286v2.705h-6.245a6.6,6.6,0,0,1-2.78-.95,10.711,10.711,0,0,0-11.191,0,6.556,6.556,0,0,1-2.78.95h-6.245V344.68h-1.286v2.727a1.516,1.516,0,0,0-1.414,1.326,4.42,4.42,0,0,0,.884,2.917,1.454,1.454,0,0,0,2.281.022,4.34,4.34,0,0,0,.928-2.683h5.87a3.129,3.129,0,0,0-1.145,1.794c-.084.336-.287,1.684-.522,3.249-.292,1.927-.619,4.111-.782,4.787a1.326,1.326,0,0,0,.212,1.291.614.614,0,0,0,.606.164,1.189,1.189,0,0,0,.712-.933l.712-2.944c.513-2.126,1.118-4.632,1.229-5.083a.907.907,0,0,1,1.043-.747h1.914c.119.128.23.265.349.407a2.478,2.478,0,0,0,1.657,1.154,9.876,9.876,0,0,0,1.4,0,10.205,10.205,0,0,0,1.428,0,2.494,2.494,0,0,0,1.657-1.154c.119-.146.234-.283.349-.407h1.954c.619,0,.911.208,1.043.747s.769,3.178,1.3,5.357l.645,2.652a1.189,1.189,0,0,0,.712.928.61.61,0,0,0,.606-.164,1.326,1.326,0,0,0,.212-1.291c-.164-.681-.5-2.86-.782-4.787-.234-1.565-.442-2.917-.522-3.253a3.129,3.129,0,0,0-1.14-1.794H186a4.341,4.341,0,0,0,.928,2.683,1.454,1.454,0,0,0,2.28-.022,4.42,4.42,0,0,0,.884-2.891Z" transform="translate(824.385 -561.203)"/>
      <path id="path8811" class="cls-1" d="M142.15,340.33a19.346,19.346,0,0,0-4.606.539.086.086,0,0,0-.084.071c0,.027.035.057.084.071a19.891,19.891,0,0,0,9.211,0,.086.086,0,0,0,.084-.071c0-.027-.035-.057-.084-.071A19.324,19.324,0,0,0,142.15,340.33Z" transform="translate(834.42 -558.776)"/>
      <path id="path8811-2" data-name="path8811" class="cls-1" d="M167.31,340.33a19.346,19.346,0,0,0-4.606.539.086.086,0,0,0-.084.071c0,.027.035.057.084.071a19.891,19.891,0,0,0,9.211,0,.086.086,0,0,0,.084-.071c0-.027-.035-.057-.084-.071A19.324,19.324,0,0,0,167.31,340.33Z" transform="translate(820.381 -558.776)"/>
      <path id="Path_97647" data-name="Path 97647" class="cls-1" d="M159.15,340.483c0-.853.292-1.543.654-1.543s.654.69.654,1.543Z" transform="translate(822.317 -558)"/>
      <path id="path8811-3" data-name="path8811" class="cls-1" d="M210.41,340.33a19.347,19.347,0,0,0-4.606.539.086.086,0,0,0-.084.071c0,.027.035.057.084.071a19.891,19.891,0,0,0,9.211,0,.086.086,0,0,0,.084-.071c0-.027-.035-.057-.084-.071A19.324,19.324,0,0,0,210.41,340.33Z" transform="translate(796.331 -558.776)"/>
      <path id="path8811-4" data-name="path8811" class="cls-1" d="M235.57,340.33a19.346,19.346,0,0,0-4.606.539.086.086,0,0,0-.084.071c0,.027.035.057.084.071a19.891,19.891,0,0,0,9.211,0,.086.086,0,0,0,.084-.071c0-.027-.035-.057-.084-.071A19.324,19.324,0,0,0,235.57,340.33Z" transform="translate(782.291 -558.776)"/>
      <path id="Path_97648" data-name="Path 97648" class="cls-1" d="M227.41,340.483c0-.853.292-1.543.654-1.543s.654.69.654,1.543Z" transform="translate(784.227 -558)"/>
      <rect id="Rectangle_7818" data-name="Rectangle 7818" class="cls-2" width="0.592" height="1.631" transform="translate(985.224 -213.84)"/>
      <rect id="Rectangle_7819" data-name="Rectangle 7819" class="cls-2" width="0.592" height="1.631" transform="translate(986.448 -213.84)"/>
      <rect id="Rectangle_7820" data-name="Rectangle 7820" class="cls-2" width="0.592" height="1.631" transform="translate(1007.438 -213.84)"/>
      <rect id="Rectangle_7821" data-name="Rectangle 7821" class="cls-2" width="0.592" height="1.631" transform="translate(1008.663 -213.84)"/>
    </g>
    <rect id="Rectangle_8277" data-name="Rectangle 8277" class="cls-4" width="55" height="40" transform="translate(287 490)"/>
  </g>
</svg>
