<svg xmlns="http://www.w3.org/2000/svg" viewBox="1936 1312 55 40">
  <defs>
    <style>
      .cls-1, .cls-4, .cls-5 {
        fill: none;
      }

      .cls-1, .cls-2, .cls-4 {
        stroke: #8f95a2;
      }

      .cls-1, .cls-2 {
        stroke-width: 1.25px;
      }

      .cls-2 {
        fill: #fff;
      }

      .cls-3 {
        fill: #8f95a2;
      }

      .cls-4 {
        stroke-width: 1.5px;
      }

      .cls-6 {
        stroke: none;
      }
    </style>
  </defs>
  <g id="Group_60075" data-name="Group 60075" transform="translate(1649 935)">
    <g id="Group_60058" data-name="Group 60058" transform="translate(273.001 -36.406)">
      <g id="Rectangle_6664" data-name="Rectangle 6664" class="cls-1" transform="translate(25 423.918)">
        <rect class="cls-6" width="32.507" height="21.671" rx="2"/>
        <rect class="cls-5" x="0.625" y="0.625" width="31.257" height="20.421" rx="1.375"/>
      </g>
      <g id="Rectangle_6665" data-name="Rectangle 6665" class="cls-2" transform="translate(44.865 418.5) rotate(90)">
        <rect class="cls-6" width="9.632" height="6.02" rx="2"/>
        <rect class="cls-5" x="0.625" y="0.625" width="8.382" height="4.77" rx="1.375"/>
      </g>
      <path id="Path_32895" data-name="Path 32895" class="cls-3" d="M12.561,12.948a.362.362,0,0,1-.361-.31l-.567-3.276a.784.784,0,0,0-.516-.671L8.254,7.557a.28.28,0,0,1-.206-.206L7.79,6.784A.421.421,0,0,1,7.841,6.4a2.986,2.986,0,0,0,.516-1.032.412.412,0,0,1,.181-.232l.052-.026V5.081A3.654,3.654,0,0,0,8.8,3.792V3.74L8.77,3.714a.4.4,0,0,1-.129-.361,2.961,2.961,0,0,0,0-.954,1.363,1.363,0,0,1-.026-.31C8.486,1.186,7.4.774,6.448.774s-2.038.413-2.167,1.315v.335a5.892,5.892,0,0,0,0,.954.379.379,0,0,1-.129.361l-.026.026v.052a4.351,4.351,0,0,0,.206,1.29v.026l.052.026a.412.412,0,0,1,.181.232,2.986,2.986,0,0,0,.516,1.032.411.411,0,0,1,.052.387L4.9,7.377a.528.528,0,0,1-.206.206L1.806,8.692a.857.857,0,0,0-.542.7l-.542,3.25a.362.362,0,0,1-.361.31H.31a.384.384,0,0,1-.31-.31v-.1l.49-3.3A1.546,1.546,0,0,1,1.522,7.97L4.23,6.913l.1-.232-.026-.052a3.881,3.881,0,0,1-.413-.877L3.869,5.7H3.817a.347.347,0,0,1-.155-.181,5.174,5.174,0,0,1-.31-1.986.384.384,0,0,1,.1-.232l.026-.026V3.25a5.282,5.282,0,0,1,.026-.9,1.256,1.256,0,0,0,.026-.31V1.986C3.688.619,5.133,0,6.474,0s2.76.619,2.94,1.986V2.3a5.356,5.356,0,0,1,.026.9v.026l.026.026a.463.463,0,0,1,.1.232,5.044,5.044,0,0,1-.31,1.96.273.273,0,0,1-.155.181H9.079l-.052.129a3.983,3.983,0,0,1-.438.877l-.026.026.077.232,2.708,1.058a1.589,1.589,0,0,1,1.006,1.264l.155.877v.026l.1.593.31,1.857a.263.263,0,0,1-.052.232.342.342,0,0,1-.258.155Z" transform="translate(28.917 428.816)"/>
      <path id="Path_32897" data-name="Path 32897" class="cls-4" d="M-431.449,7415.8h10.026" transform="translate(475.172 -6984.057)"/>
      <path id="Path_32898" data-name="Path 32898" class="cls-4" d="M-431.449,7415.8h7.365" transform="translate(475.172 -6980.447)"/>
      <path id="Path_32900" data-name="Path 32900" class="cls-4" d="M-431.449,7415.8h8.231" transform="translate(475.172 -6976.834)"/>
    </g>
    <rect id="Rectangle_8275" data-name="Rectangle 8275" class="cls-5" width="55" height="40" transform="translate(287 377)"/>
  </g>
</svg>
