<svg xmlns="http://www.w3.org/2000/svg" viewBox="7228 295 100 65">
  <defs>
    <style>
      .cls-1, .cls-3, .cls-4 {
        fill: none;
      }

      .cls-1, .cls-3 {
        stroke: #fff;
      }

      .cls-2 {
        fill: #fff;
      }

      .cls-3 {
        stroke-width: 1.5px;
      }
    </style>
  </defs>
  <g id="Group_60068" data-name="Group 60068" transform="translate(6048 -6)">
    <g id="Group_60051" data-name="Group 60051" transform="translate(212.12 544.06)">
      <path id="Path_97644" data-name="Path 97644" class="cls-1" d="M196.471,365.07h-6.366a2.414,2.414,0,0,0-2.366,2.366V373.8a2.414,2.414,0,0,0,2.366,2.366h6.366a2.414,2.414,0,0,0,2.366-2.366v-6.374a2.414,2.414,0,0,0-2.366-2.358Zm-3.219,8.852a3.288,3.288,0,1,1,.04,0Z" transform="translate(824.603 -563.102)"/>
      <path id="Path_97645" data-name="Path 97645" class="cls-2" d="M194.094,369.268h-.121a1.376,1.376,0,1,1-2.076,1.658,2.269,2.269,0,0,0-.1.628,2.294,2.294,0,1,0,2.294-2.293Z" transform="translate(823.81 -563.92)"/>
      <path id="Path_97646" data-name="Path 97646" class="cls-3" d="M218.533,352.06h0a2.752,2.752,0,0,0-2.575-2.414V344.68h-2.342v4.925H202.245c-1.609,0-3.219-.8-5.062-1.73a19.5,19.5,0,0,0-20.376,0c-1.843.925-3.436,1.73-5.062,1.73H160.374V344.68h-2.342v4.965a2.76,2.76,0,0,0-2.575,2.414,8.047,8.047,0,0,0,1.609,5.311,2.648,2.648,0,0,0,4.153.04,7.9,7.9,0,0,0,1.69-4.885H173.6a5.7,5.7,0,0,0-2.084,3.267c-.153.612-.523,3.066-.95,5.915-.531,3.509-1.127,7.484-1.424,8.715a2.414,2.414,0,0,0,.386,2.35,1.119,1.119,0,0,0,1.1.3,2.165,2.165,0,0,0,1.3-1.7l1.3-5.36c.934-3.871,2.036-8.434,2.237-9.255a1.652,1.652,0,0,1,1.9-1.36h3.485c.217.233.418.483.636.74.8.982,1.658,2,3.018,2.1a17.991,17.991,0,0,0,2.551,0,18.584,18.584,0,0,0,2.6,0c1.352-.1,2.2-1.111,3.018-2.1.217-.266.427-.515.636-.74h3.557c1.127,0,1.658.378,1.9,1.36s1.4,5.786,2.358,9.754l1.175,4.828a2.165,2.165,0,0,0,1.3,1.69,1.111,1.111,0,0,0,1.1-.3,2.414,2.414,0,0,0,.386-2.35c-.3-1.239-.9-5.207-1.424-8.715-.426-2.849-.8-5.311-.95-5.923a5.7,5.7,0,0,0-2.076-3.267h10.462a7.9,7.9,0,0,0,1.69,4.885,2.648,2.648,0,0,0,4.152-.041,8.047,8.047,0,0,0,1.609-5.263Z" transform="translate(830.909 -559.121)"/>
      <path id="path8811" class="cls-1" d="M146,340.33a35.223,35.223,0,0,0-8.385.982.157.157,0,0,0-.153.129c0,.048.064.1.153.129a36.214,36.214,0,0,0,16.771,0,.157.157,0,0,0,.153-.129c0-.048-.064-.1-.153-.129A35.184,35.184,0,0,0,146,340.33Z" transform="translate(834.42 -558.272)"/>
      <path id="path8811-2" data-name="path8811" class="cls-1" d="M171.158,340.33a35.223,35.223,0,0,0-8.385.982.157.157,0,0,0-.153.129c0,.048.064.1.153.129a36.214,36.214,0,0,0,16.771,0,.157.157,0,0,0,.153-.129c0-.048-.064-.1-.153-.129A35.184,35.184,0,0,0,171.158,340.33Z" transform="translate(829.507 -558.272)"/>
      <path id="Path_97647" data-name="Path 97647" class="cls-1" d="M159.15,341.749c0-1.553.531-2.809,1.191-2.809s1.191,1.255,1.191,2.809Z" transform="translate(830.185 -558)"/>
      <path id="path8811-3" data-name="path8811" class="cls-1" d="M214.258,340.33a35.223,35.223,0,0,0-8.385.982.157.157,0,0,0-.153.129c0,.048.064.1.153.129a36.214,36.214,0,0,0,16.771,0,.157.157,0,0,0,.153-.129c0-.048-.064-.1-.153-.129A35.184,35.184,0,0,0,214.258,340.33Z" transform="translate(821.092 -558.272)"/>
      <path id="path8811-4" data-name="path8811" class="cls-1" d="M239.418,340.33a35.223,35.223,0,0,0-8.385.982.157.157,0,0,0-.153.129c0,.048.064.1.153.129a36.214,36.214,0,0,0,16.771,0,.157.157,0,0,0,.153-.129c0-.048-.064-.1-.153-.129A35.184,35.184,0,0,0,239.418,340.33Z" transform="translate(816.179 -558.272)"/>
      <path id="Path_97648" data-name="Path 97648" class="cls-1" d="M227.41,341.749c0-1.553.531-2.809,1.191-2.809s1.191,1.255,1.191,2.809Z" transform="translate(816.857 -558)"/>
      <rect id="Rectangle_7818" data-name="Rectangle 7818" class="cls-2" width="1.078" height="2.97" transform="translate(996.175 -209.556)"/>
      <rect id="Rectangle_7819" data-name="Rectangle 7819" class="cls-2" width="1.078" height="2.97" transform="translate(998.404 -209.556)"/>
      <rect id="Rectangle_7820" data-name="Rectangle 7820" class="cls-2" width="1.078" height="2.97" transform="translate(1036.622 -209.556)"/>
      <rect id="Rectangle_7821" data-name="Rectangle 7821" class="cls-2" width="1.078" height="2.97" transform="translate(1038.851 -209.556)"/>
    </g>
    <rect id="Rectangle_8269" data-name="Rectangle 8269" class="cls-4" width="100" height="65" transform="translate(1180 301)"/>
  </g>
</svg>
