<svg xmlns="http://www.w3.org/2000/svg" viewBox="6684.699 3383.019 613.792 197.517">
  <defs>
    <style>
      .cls-1, .cls-9 {
        fill: #f8b1a3;
      }

      .cls-2 {
        fill: #fff;
      }

      .cls-3 {
        fill: #1d2d47;
      }

      .cls-4 {
        fill: #8e96a3;
      }

      .cls-5 {
        fill: #8f95a2;
      }

      .cls-6, .cls-7 {
        fill: none;
      }

      .cls-7 {
        stroke: #8e96a3;
        stroke-width: 4px;
      }

      .cls-8, .cls-9 {
        stroke: none;
      }
    </style>
  </defs>
  <g id="Group_59939" data-name="Group 59939" transform="translate(6027 -638)">
    <g id="Group_59677" data-name="Group 59677" transform="translate(799.995 4061.816)">
      <path id="Path_98005" data-name="Path 98005" class="cls-1" d="M214.834,104.062a1.121,1.121,0,0,1-.915-.305L122.7,17.727a4.64,4.64,0,0,0-6.1,0L40.943,84.232A1.51,1.51,0,1,1,38.808,82.1l75.658-66.811c3.051-2.746,7.322-2.441,10.372.305l91.216,86.03a1.475,1.475,0,0,1,0,2.135C215.749,104.062,215.444,104.062,214.834,104.062Z" transform="translate(-38.35 -13.373)"/>
    </g>
    <g id="Group_59678" data-name="Group 59678" transform="translate(848.654 4021.019)">
      <path id="Path_98006" data-name="Path 98006" class="cls-2" d="M207.751,79.014H172.363a1.441,1.441,0,0,0-1.525,1.525v41.49h-7.627V63.455h0V36.914a1.441,1.441,0,0,0-1.525-1.525H160.16V18.609a1.441,1.441,0,0,0-1.525-1.525h-2.441V1.525A1.441,1.441,0,0,0,154.669,0H132.7a1.441,1.441,0,0,0-1.525,1.525V17.084h-2.135a1.441,1.441,0,0,0-1.525,1.525V35.388h-1.83a1.441,1.441,0,0,0-1.525,1.525V63.455h0V95.793H93.044V72.912a1.441,1.441,0,0,0-1.525-1.525H55.825A1.441,1.441,0,0,0,54.3,72.912V195.856H209.887V80.844A2.017,2.017,0,0,0,207.751,79.014ZM127.212,38.744Z" transform="translate(-54.3)"/>
    </g>
    <g id="Group_59679" data-name="Group 59679" transform="translate(911.471 4029.674)">
      <path id="Path_98007" data-name="Path 98007" class="cls-1" d="M321.416,112.855a1.121,1.121,0,0,1-.915-.305L200.608,7.3a5.979,5.979,0,0,0-7.627,0L77.359,101.567a1.525,1.525,0,1,1-1.83-2.441L191.151,4.86a8.822,8.822,0,0,1,11.593.305l119.588,105.25a1.475,1.475,0,0,1,0,2.135C322.332,112.855,321.721,112.855,321.416,112.855Z" transform="translate(-74.891 -2.837)"/>
    </g>
    <path id="Path_98008" data-name="Path 98008" class="cls-1" d="M101.591,73.09a5.326,5.326,0,0,0-3.661,1.22,39.594,39.594,0,0,0-7.017-17.389,7.272,7.272,0,0,0,3.356-1.83,7.02,7.02,0,0,0,0-9.457c-2.441-2.746-6.712-2.441-9.457,0a7.272,7.272,0,0,0-1.83,3.356,38.178,38.178,0,0,0-17.389-7.017,7.474,7.474,0,0,0,1.22-3.661,6.712,6.712,0,1,0-13.423,0,5.326,5.326,0,0,0,1.22,3.661,39.594,39.594,0,0,0-17.389,7.017,7.272,7.272,0,0,0-1.83-3.356,7.02,7.02,0,0,0-9.457,0c-2.746,2.441-2.441,6.712,0,9.457a7.272,7.272,0,0,0,3.356,1.83A38.178,38.178,0,0,0,22.272,74.31a7.474,7.474,0,0,0-3.661-1.22,6.712,6.712,0,0,0,0,13.423,5.326,5.326,0,0,0,3.661-1.22,39.594,39.594,0,0,0,7.017,17.389,7.272,7.272,0,0,0-3.356,1.83,7.02,7.02,0,0,0,0,9.457,7.02,7.02,0,0,0,9.457,0,7.272,7.272,0,0,0,1.83-3.356,31.911,31.911,0,0,0,7.017,3.966l-6.712,16.779H30.509v3.356H90v-3.356H82.982L76.27,114.579a52.16,52.16,0,0,0,7.017-3.966,7.272,7.272,0,0,0,1.83,3.356,6.687,6.687,0,1,0,9.457-9.457,7.272,7.272,0,0,0-3.356-1.83,38.178,38.178,0,0,0,7.017-17.389,7.474,7.474,0,0,0,3.661,1.22,6.771,6.771,0,0,0,6.712-6.712A7.042,7.042,0,0,0,101.591,73.09Zm-15.864,29.9-21.66-21.66H94.574A32.95,32.95,0,0,1,85.727,102.987Zm-22.27,18A3.356,3.356,0,1,1,60.1,117.63,3.386,3.386,0,0,1,63.457,120.986Zm-28.677-18a34.548,34.548,0,0,1-8.847-21.66H56.44Zm0-46.676,21.66,21.66H25.933A31.505,31.505,0,0,1,34.78,56.311ZM83.592,53.87,61.932,75.53V45.023A34.549,34.549,0,0,1,83.592,53.87Zm-46.676,0a34.549,34.549,0,0,1,21.66-8.847V75.53Zm21.66,60.4a34.879,34.879,0,0,1-9.762-2.135l9.762-24.1Zm3.356,0V88.038l9.762,24.1A34.879,34.879,0,0,1,61.932,114.274Zm2.441-36.3,21.66-21.66a34.549,34.549,0,0,1,8.847,21.66Zm22.575-29.9a3.236,3.236,0,1,1,0,4.576A3.318,3.318,0,0,1,86.948,48.074Zm-29.9-9.762a3.356,3.356,0,1,1,3.356,3.356A3.386,3.386,0,0,1,57.051,38.312ZM28.679,48.074a3.236,3.236,0,1,1,0,4.576A3.318,3.318,0,0,1,28.679,48.074ZM18.917,82.852A3.356,3.356,0,1,1,22.272,79.5,3.386,3.386,0,0,1,18.917,82.852Zm14.338,28.372a3.236,3.236,0,1,1,0-4.576C34.78,107.868,34.78,109.7,33.255,111.224Zm3.661-6.1L55.525,86.513,45.458,110.919A38.413,38.413,0,0,1,36.916,105.122Zm42.4,25.626H41.187l6.407-15.254a32.18,32.18,0,0,0,7.322,1.83,7.474,7.474,0,0,0-1.22,3.661,6.712,6.712,0,1,0,13.423,0,5.326,5.326,0,0,0-1.22-3.661,32.18,32.18,0,0,0,7.322-1.83ZM64.677,86.513l18.609,18.609a29.656,29.656,0,0,1-8.847,5.8Zm27.151,24.711a3.236,3.236,0,1,1,0-4.576A3.318,3.318,0,0,1,91.829,111.224Zm9.762-28.372a3.356,3.356,0,1,1,3.356-3.356A3.386,3.386,0,0,1,101.591,82.852Z" transform="translate(707.404 4083.821)"/>
    <g id="Group_59681" data-name="Group 59681" transform="translate(787.335 4153.725)">
      <path id="Path_98009" data-name="Path 98009" class="cls-3" d="M34.2,43.5" transform="translate(-34.2 -43.5)"/>
    </g>
    <g id="Group_59688" data-name="Group 59688" transform="translate(848.654 4059.153)">
      <g id="Group_59682" data-name="Group 59682" transform="translate(72.607)">
        <path id="Path_98010" data-name="Path 98010" class="cls-2" d="M83.286,96.7a1.585,1.585,0,0,1,1.22-.61h25.931V12.5H78.405c-.305,0-.305,27.762-.305,27.762V170.832h4.881l-.305-72.607C82.981,97.31,82.981,97,83.286,96.7Z" transform="translate(-78.1 -12.5)"/>
      </g>
      <g id="Group_59683" data-name="Group 59683" transform="translate(80.844 86.945)">
        <path id="Path_98011" data-name="Path 98011" class="cls-2" d="M80.8,41l.305,71.082h35.083V41Z" transform="translate(-80.8 -41)"/>
      </g>
      <g id="Group_59684" data-name="Group 59684" transform="translate(119.588 44.235)">
        <rect id="Rectangle_8162" data-name="Rectangle 8162" class="cls-2" width="32.033" height="113.487"/>
      </g>
      <g id="Group_59685" data-name="Group 59685" transform="translate(38.744 61.014)">
        <path id="Path_98012" data-name="Path 98012" class="cls-2" d="M67,32.5l.305,97.013H97.812V32.5Z" transform="translate(-67 -32.5)"/>
      </g>
      <g id="Group_59686" data-name="Group 59686" transform="translate(3.051 36.609)">
        <rect id="Rectangle_8163" data-name="Rectangle 8163" class="cls-2" width="32.338" height="121.419"/>
      </g>
      <g id="Group_59687" data-name="Group 59687" transform="translate(0 23.796)">
        <path id="Path_98013" data-name="Path 98013" class="cls-4" d="M207.751,37.384H172.363a1.441,1.441,0,0,0-1.525,1.525V80.4h-7.627V21.825a1.441,1.441,0,0,0-1.525-1.525h-36a1.441,1.441,0,0,0-1.525,1.525V54.163H93.044V31.283a1.441,1.441,0,0,0-1.525-1.525H55.825A1.441,1.441,0,0,0,54.3,31.283V154.226h3.356V33.113H89.993V154.532h3.661l-.61-97.013h30.812v97.013h3.051V23.961s0-.61.305-.61h32.033V80.094H133.314c-.61,0-.915,0-1.22.61a1.585,1.585,0,0,0-.61,1.22l.305,72.607h3.661l-.305-71.082h35.083v71.082h3.661V40.74h32.033V154.226h3.356V39.214C209.581,37.994,208.971,37.384,207.751,37.384Z" transform="translate(-54.3 -20.3)"/>
      </g>
    </g>
    <path id="Union_1473" data-name="Union 1473" class="cls-4" d="M168.624,6471.893v-5.186a1.525,1.525,0,1,1,3.049,0v5.186c.305.915-.609,1.526-1.526,1.526A1.633,1.633,0,0,1,168.624,6471.893Zm-8.848,0v-5.186a1.526,1.526,0,0,1,3.051,0v5.186a1.442,1.442,0,0,1-1.526,1.526A1.635,1.635,0,0,1,159.776,6471.893Zm-8.848,0v-5.186a1.526,1.526,0,0,1,3.051,0v5.186a1.441,1.441,0,0,1-1.526,1.526A1.635,1.635,0,0,1,150.928,6471.893Zm-27.151,0v-5.186a1.526,1.526,0,0,1,3.051,0v5.186c.3.915-.305,1.526-1.526,1.526A1.633,1.633,0,0,1,123.778,6471.893Zm-8.848,0v-5.186a1.526,1.526,0,0,1,3.051,0v5.186c.305.915-.305,1.526-1.526,1.526A1.635,1.635,0,0,1,114.93,6471.893Zm-8.542,0v-5.186a1.526,1.526,0,0,1,3.051,0v5.186a1.441,1.441,0,0,1-1.526,1.526A1.635,1.635,0,0,1,106.388,6471.893Zm-17.084-4.88v-2.136a1.526,1.526,0,0,1,3.051,0v2.136a1.526,1.526,0,0,1-3.051,0Zm-6.1,0v-2.136a1.525,1.525,0,1,1,3.049,0v2.136c-.3.915-.913,1.524-1.524,1.524A1.44,1.44,0,0,1,83.2,6467.013Zm-6.1,0v-2.136a1.442,1.442,0,0,1,1.526-1.525,1.634,1.634,0,0,1,1.526,1.525v2.136a1.526,1.526,0,0,1-3.051,0Zm-6.1,0v-2.136a1.441,1.441,0,0,1,1.526-1.525,1.636,1.636,0,0,1,1.526,1.525v2.136a1.634,1.634,0,0,1-1.526,1.524A1.44,1.44,0,0,1,71,6467.013Zm18.3-6.407v-2.136a1.526,1.526,0,1,1,3.051,0v2.136a1.526,1.526,0,0,1-3.051,0Zm-6.1,0v-2.136a1.525,1.525,0,1,1,3.049,0v2.136c-.3.917-.913,1.525-1.524,1.525A1.441,1.441,0,0,1,83.2,6460.605Zm-6.1,0v-2.136a1.442,1.442,0,0,1,1.526-1.526,1.635,1.635,0,0,1,1.526,1.526v2.136a1.526,1.526,0,0,1-3.051,0Zm-6.1,0v-2.136a1.526,1.526,0,1,1,3.051,0v2.136a1.634,1.634,0,0,1-1.526,1.525A1.44,1.44,0,0,1,71,6460.605Zm97.623-2.746v-5.186a1.525,1.525,0,1,1,3.049,0v5.186c.305.917-.609,1.525-1.526,1.525A1.633,1.633,0,0,1,168.624,6457.86Zm-8.848,0v-5.186a1.526,1.526,0,1,1,3.051,0v5.186a1.441,1.441,0,0,1-1.526,1.525A1.634,1.634,0,0,1,159.776,6457.86Zm-8.848,0v-5.186a1.526,1.526,0,1,1,3.051,0v5.186a1.44,1.44,0,0,1-1.526,1.525A1.634,1.634,0,0,1,150.928,6457.86Zm-27.151,0v-5.186a1.526,1.526,0,1,1,3.051,0v5.186c.3.917-.305,1.525-1.526,1.525A1.633,1.633,0,0,1,123.778,6457.86Zm-8.848,0v-5.186a1.526,1.526,0,1,1,3.051,0v5.186c.305.917-.305,1.525-1.526,1.525A1.634,1.634,0,0,1,114.93,6457.86Zm-8.542,0v-5.186a1.526,1.526,0,1,1,3.051,0v5.186a1.44,1.44,0,0,1-1.526,1.525A1.634,1.634,0,0,1,106.388,6457.86ZM89.3,6453.894v-2.135a1.526,1.526,0,0,1,3.051,0v2.135a1.526,1.526,0,1,1-3.051,0Zm-6.1,0v-2.135a1.525,1.525,0,1,1,3.049,0v2.135c-.3.917-.913,1.526-1.524,1.526A1.441,1.441,0,0,1,83.2,6453.894Zm-6.1,0v-2.135a1.441,1.441,0,0,1,1.526-1.525,1.633,1.633,0,0,1,1.526,1.525v2.135a1.526,1.526,0,1,1-3.051,0Zm-6.1,0v-2.135a1.44,1.44,0,0,1,1.526-1.525,1.634,1.634,0,0,1,1.526,1.525v2.135a1.635,1.635,0,0,1-1.526,1.526A1.44,1.44,0,0,1,71,6453.894Zm18.3-6.407v-2.135a1.526,1.526,0,0,1,3.051,0v2.135a1.526,1.526,0,0,1-3.051,0Zm-6.1,0v-2.135a1.525,1.525,0,1,1,3.049,0v2.135c-.3.916-.913,1.525-1.524,1.525A1.441,1.441,0,0,1,83.2,6447.487Zm-6.1,0v-2.135a1.442,1.442,0,0,1,1.526-1.525,1.634,1.634,0,0,1,1.526,1.525v2.135a1.526,1.526,0,0,1-3.051,0Zm-6.1,0v-2.135a1.526,1.526,0,0,1,3.051,0v2.135a1.634,1.634,0,0,1-1.526,1.525A1.44,1.44,0,0,1,71,6447.487Zm97.623-3.355v-5.491a1.525,1.525,0,1,1,3.049,0v5.186a1.527,1.527,0,0,1-1.526,1.831A1.633,1.633,0,0,1,168.624,6444.132Zm-8.848,0v-5.491a1.526,1.526,0,0,1,3.051,0v5.186a1.709,1.709,0,0,1-1.526,1.831A1.634,1.634,0,0,1,159.776,6444.132Zm-8.848,0v-5.491a1.526,1.526,0,0,1,3.051,0v5.186a1.707,1.707,0,0,1-1.526,1.831A1.634,1.634,0,0,1,150.928,6444.132Zm-27.151,0v-5.491a1.526,1.526,0,0,1,3.051,0v5.186a1.4,1.4,0,0,1-1.526,1.831A1.633,1.633,0,0,1,123.778,6444.132Zm-8.848,0v-5.491a1.526,1.526,0,0,1,3.051,0v5.186a1.4,1.4,0,0,1-1.526,1.831A1.634,1.634,0,0,1,114.93,6444.132Zm-8.542,0v-5.491a1.526,1.526,0,0,1,3.051,0v5.186a1.707,1.707,0,0,1-1.526,1.831A1.634,1.634,0,0,1,106.388,6444.132ZM89.3,6441.081v-2.135a1.526,1.526,0,1,1,3.051,0v2.135a1.526,1.526,0,0,1-3.051,0Zm-6.1,0v-2.135a1.525,1.525,0,1,1,3.049,0v2.135c-.3.916-.913,1.525-1.524,1.525A1.441,1.441,0,0,1,83.2,6441.081Zm-6.1,0v-2.135a1.441,1.441,0,0,1,1.526-1.526,1.633,1.633,0,0,1,1.526,1.526v2.135a1.526,1.526,0,0,1-3.051,0Zm-6.1,0v-2.135a1.44,1.44,0,0,1,1.526-1.526,1.635,1.635,0,0,1,1.526,1.526v2.135a1.634,1.634,0,0,1-1.526,1.525A1.44,1.44,0,0,1,71,6441.081Zm18.3-6.711v-2.136a1.526,1.526,0,1,1,3.051,0v2.136a1.526,1.526,0,0,1-3.051,0Zm-6.1,0v-2.136a1.525,1.525,0,1,1,3.049,0v2.136c-.3.915-.913,1.524-1.524,1.524A1.441,1.441,0,0,1,83.2,6434.37Zm-6.1,0v-2.136a1.442,1.442,0,0,1,1.526-1.526,1.635,1.635,0,0,1,1.526,1.526v2.136a1.526,1.526,0,0,1-3.051,0Zm-6.1,0v-2.136a1.526,1.526,0,1,1,3.051,0v2.136a1.634,1.634,0,0,1-1.526,1.524A1.44,1.44,0,0,1,71,6434.37Zm97.623-4.577v-5.186a1.525,1.525,0,1,1,3.049,0v5.186c.305.917-.609,1.525-1.526,1.525A1.44,1.44,0,0,1,168.624,6429.793Zm-8.848,0v-5.186a1.526,1.526,0,1,1,3.051,0v5.186a1.526,1.526,0,0,1-3.051,0Zm-8.848,0v-5.186a1.526,1.526,0,1,1,3.051,0v5.186a1.526,1.526,0,0,1-3.051,0Zm-27.151,0v-5.186a1.526,1.526,0,1,1,3.051,0v5.186c.3.917-.305,1.525-1.526,1.525A1.44,1.44,0,0,1,123.778,6429.793Zm-8.848,0v-5.186a1.526,1.526,0,1,1,3.051,0v5.186c.305.917-.305,1.525-1.526,1.525A1.441,1.441,0,0,1,114.93,6429.793Zm-8.542,0v-5.186a1.526,1.526,0,1,1,3.051,0v5.186a1.526,1.526,0,0,1-3.051,0ZM89.3,6427.964v-2.137a1.526,1.526,0,0,1,3.051,0v2.137a1.526,1.526,0,0,1-3.051,0Zm-6.1,0v-2.137a1.525,1.525,0,1,1,3.049,0v2.137c-.3.915-.913,1.524-1.524,1.524A1.441,1.441,0,0,1,83.2,6427.964Zm-6.1,0v-2.137a1.442,1.442,0,0,1,1.526-1.525,1.634,1.634,0,0,1,1.526,1.525v2.137a1.526,1.526,0,0,1-3.051,0Zm-6.1,0v-2.137a1.441,1.441,0,0,1,1.526-1.525,1.636,1.636,0,0,1,1.526,1.525v2.137a1.634,1.634,0,0,1-1.526,1.524A1.44,1.44,0,0,1,71,6427.964Zm18.3-6.408v-2.135a1.526,1.526,0,0,1,3.051,0v2.135a1.526,1.526,0,0,1-3.051,0Zm-6.1,0v-2.135a1.525,1.525,0,1,1,3.049,0v2.135c-.3.917-.913,1.525-1.524,1.525A1.441,1.441,0,0,1,83.2,6421.556Zm-6.1,0v-2.135a1.441,1.441,0,0,1,1.526-1.525,1.633,1.633,0,0,1,1.526,1.525v2.135a1.526,1.526,0,0,1-3.051,0Zm-6.1,0v-2.135a1.526,1.526,0,0,1,3.051,0v2.135a1.634,1.634,0,0,1-1.526,1.525A1.44,1.44,0,0,1,71,6421.556Zm18.3-6.711v-2.136a1.526,1.526,0,0,1,3.051,0v2.136a1.526,1.526,0,0,1-3.051,0Zm-6.1,0v-2.136a1.525,1.525,0,1,1,3.049,0v2.136c-.3.915-.913,1.524-1.524,1.524A1.44,1.44,0,0,1,83.2,6414.845Zm-6.1,0v-2.136a1.442,1.442,0,0,1,1.526-1.525,1.634,1.634,0,0,1,1.526,1.525v2.136a1.526,1.526,0,0,1-3.051,0Zm-6.1,0v-2.136a1.441,1.441,0,0,1,1.526-1.525,1.636,1.636,0,0,1,1.526,1.525v2.136a1.634,1.634,0,0,1-1.526,1.524A1.44,1.44,0,0,1,71,6414.845Zm52.777-.305v-5.186a1.526,1.526,0,0,1,3.051,0v4.88c.3,1.222-.305,1.831-1.526,1.831A1.633,1.633,0,0,1,123.778,6414.54Zm-8.848,0v-5.186a1.526,1.526,0,0,1,3.051,0v4.88c.305,1.222-.305,1.831-1.526,1.831A1.634,1.634,0,0,1,114.93,6414.54Zm-8.542,0v-5.186a1.526,1.526,0,0,1,3.051,0v4.88c0,1.222-.609,1.831-1.526,1.831A1.634,1.634,0,0,1,106.388,6414.54ZM89.3,6408.134V6406a1.526,1.526,0,0,1,3.051,0v2.137a1.526,1.526,0,0,1-3.051,0Zm-6.1,0V6406a1.525,1.525,0,1,1,3.049,0v2.137c-.3.915-.913,1.524-1.524,1.524A1.441,1.441,0,0,1,83.2,6408.134Zm-6.1,0V6406a1.442,1.442,0,0,1,1.526-1.525A1.634,1.634,0,0,1,80.152,6406v2.137a1.526,1.526,0,0,1-3.051,0Zm-6.1,0V6406a1.526,1.526,0,0,1,3.051,0v2.137a1.634,1.634,0,0,1-1.526,1.524A1.44,1.44,0,0,1,71,6408.134Zm18.3-6.408v-2.135a1.526,1.526,0,0,1,3.051,0v2.135a1.526,1.526,0,0,1-3.051,0Zm-6.1,0v-2.135a1.525,1.525,0,1,1,3.049,0v2.135c-.3.917-.913,1.525-1.524,1.525A1.441,1.441,0,0,1,83.2,6401.726Zm-6.1,0v-2.135a1.441,1.441,0,0,1,1.526-1.525,1.633,1.633,0,0,1,1.526,1.525v2.135a1.526,1.526,0,0,1-3.051,0Zm-6.1,0v-2.135a1.44,1.44,0,0,1,1.526-1.525,1.634,1.634,0,0,1,1.526,1.525v2.135a1.634,1.634,0,0,1-1.526,1.525A1.44,1.44,0,0,1,71,6401.726Zm88.775-.609v-2.137a1.526,1.526,0,0,1,3.051,0v2.137a1.526,1.526,0,0,1-3.051,0Zm-6.1,0v-2.137a1.526,1.526,0,0,1,3.051,0v2.137a1.526,1.526,0,0,1-3.051,0Zm-6.1,0v-2.137a1.441,1.441,0,0,1,1.524-1.525,1.634,1.634,0,0,1,1.526,1.525v2.137a1.525,1.525,0,0,1-3.049,0Zm-6.1,0v-2.137a1.442,1.442,0,0,1,1.526-1.525,1.634,1.634,0,0,1,1.526,1.525v2.137a1.526,1.526,0,0,1-3.051,0Zm-17.694-.917v-5.186a1.526,1.526,0,1,1,3.051,0v5.186c.305.917-.307,1.527-1.526,1.527A1.442,1.442,0,0,1,123.778,6400.2Zm-8.849,0v-5.186a1.527,1.527,0,0,1,3.054,0v5.186c.3.917-.307,1.527-1.527,1.527A1.444,1.444,0,0,1,114.928,6400.2Zm-8.539,0v-5.186a1.526,1.526,0,1,1,3.051,0v5.186a1.526,1.526,0,1,1-3.051,0ZM89.3,6395.32v-2.136a1.526,1.526,0,1,1,3.051,0v2.136a1.526,1.526,0,0,1-3.051,0Zm-6.1,0v-2.136a1.525,1.525,0,1,1,3.049,0v2.136c-.3.917-.913,1.525-1.524,1.525A1.441,1.441,0,0,1,83.2,6395.32Zm-6.1,0v-2.136a1.442,1.442,0,0,1,1.526-1.526,1.635,1.635,0,0,1,1.526,1.526v2.136a1.526,1.526,0,0,1-3.051,0Zm-6.1,0v-2.136a1.526,1.526,0,1,1,3.051,0v2.136a1.634,1.634,0,0,1-1.526,1.525A1.44,1.44,0,0,1,71,6395.32Zm88.775-.611v-2.135a1.526,1.526,0,0,1,3.051,0v2.135a1.526,1.526,0,0,1-3.051,0Zm-6.1,0v-2.135a1.526,1.526,0,0,1,3.051,0v2.135a1.526,1.526,0,0,1-3.051,0Zm-6.1,0v-2.135a1.44,1.44,0,0,1,1.524-1.525,1.633,1.633,0,0,1,1.526,1.525v2.135a1.525,1.525,0,1,1-3.049,0Zm-6.1,0v-2.135a1.526,1.526,0,0,1,3.051,0v2.135a1.526,1.526,0,0,1-3.051,0Zm-52.168-6.1v-2.136a1.526,1.526,0,0,1,3.051,0v2.136a1.526,1.526,0,1,1-3.051,0Zm-6.1,0v-2.136a1.525,1.525,0,1,1,3.049,0v2.136c-.3.915-.913,1.526-1.524,1.526A1.442,1.442,0,0,1,83.2,6388.609Zm-6.1,0v-2.136a1.442,1.442,0,0,1,1.526-1.525,1.634,1.634,0,0,1,1.526,1.525v2.136a1.526,1.526,0,1,1-3.051,0Zm-6.1,0v-2.136a1.441,1.441,0,0,1,1.526-1.525,1.636,1.636,0,0,1,1.526,1.525v2.136a1.636,1.636,0,0,1-1.526,1.526A1.441,1.441,0,0,1,71,6388.609Zm88.775-.611v-2.135a1.526,1.526,0,0,1,3.051,0V6388a1.526,1.526,0,1,1-3.051,0Zm-6.1,0v-2.135a1.526,1.526,0,0,1,3.051,0V6388a1.526,1.526,0,1,1-3.051,0Zm-6.1,0v-2.135a1.44,1.44,0,0,1,1.524-1.525,1.633,1.633,0,0,1,1.526,1.525V6388a1.525,1.525,0,1,1-3.049,0Zm-6.1,0v-2.135a1.441,1.441,0,0,1,1.526-1.525,1.633,1.633,0,0,1,1.526,1.525V6388a1.526,1.526,0,1,1-3.051,0ZM89.3,6382.2v-2.135a1.526,1.526,0,0,1,3.051,0v2.135a1.526,1.526,0,0,1-3.051,0Zm-6.1,0v-2.135a1.525,1.525,0,1,1,3.049,0v2.135c-.3.916-.913,1.525-1.524,1.525A1.441,1.441,0,0,1,83.2,6382.2Zm-6.1,0v-2.135a1.442,1.442,0,0,1,1.526-1.525,1.634,1.634,0,0,1,1.526,1.525v2.135a1.526,1.526,0,0,1-3.051,0Zm-6.1,0v-2.135a1.526,1.526,0,0,1,3.051,0v2.135a1.634,1.634,0,0,1-1.526,1.525A1.44,1.44,0,0,1,71,6382.2Zm88.775-.609v-2.136a1.526,1.526,0,0,1,3.051,0v2.136a1.526,1.526,0,0,1-3.051,0Zm-6.1,0v-2.136a1.526,1.526,0,0,1,3.051,0v2.136a1.526,1.526,0,0,1-3.051,0Zm-6.1,0v-2.136a1.441,1.441,0,0,1,1.524-1.525,1.634,1.634,0,0,1,1.526,1.525v2.136a1.525,1.525,0,0,1-3.049,0Zm-6.1,0v-2.136a1.526,1.526,0,0,1,3.051,0v2.136a1.526,1.526,0,0,1-3.051,0ZM89.3,6375.8v-2.135a1.526,1.526,0,1,1,3.051,0v2.135a1.526,1.526,0,0,1-3.051,0Zm-6.1,0v-2.135a1.525,1.525,0,1,1,3.049,0v2.135c-.3.916-.913,1.525-1.524,1.525A1.441,1.441,0,0,1,83.2,6375.8Zm-6.1,0v-2.135a1.441,1.441,0,0,1,1.526-1.526,1.633,1.633,0,0,1,1.526,1.526v2.135a1.526,1.526,0,0,1-3.051,0Zm-6.1,0v-2.135a1.44,1.44,0,0,1,1.526-1.526,1.635,1.635,0,0,1,1.526,1.526v2.135a1.634,1.634,0,0,1-1.526,1.525A1.44,1.44,0,0,1,71,6375.8Zm88.775-.611v-2.135a1.526,1.526,0,1,1,3.051,0v2.135a1.526,1.526,0,0,1-3.051,0Zm-6.1,0v-2.135a1.526,1.526,0,1,1,3.051,0v2.135a1.526,1.526,0,0,1-3.051,0Zm-6.1,0v-2.135a1.441,1.441,0,0,1,1.524-1.526,1.635,1.635,0,0,1,1.526,1.526v2.135a1.525,1.525,0,1,1-3.049,0Zm-6.1,0v-2.135a1.442,1.442,0,0,1,1.526-1.526,1.635,1.635,0,0,1,1.526,1.526v2.135a1.526,1.526,0,0,1-3.051,0Zm-52.168-6.1v-2.136a1.526,1.526,0,1,1,3.051,0v2.136a1.526,1.526,0,0,1-3.051,0Zm-6.1,0v-2.136a1.525,1.525,0,1,1,3.049,0v2.136c-.3.915-.913,1.524-1.524,1.524A1.441,1.441,0,0,1,83.2,6369.084Zm-6.1,0v-2.136a1.442,1.442,0,0,1,1.526-1.526,1.635,1.635,0,0,1,1.526,1.526v2.136a1.526,1.526,0,0,1-3.051,0Zm-6.1,0v-2.136a1.526,1.526,0,1,1,3.051,0v2.136a1.634,1.634,0,0,1-1.526,1.524A1.44,1.44,0,0,1,71,6369.084Zm88.775-.611v-2.135a1.526,1.526,0,0,1,3.051,0v2.135a1.526,1.526,0,0,1-3.051,0Zm-6.1,0v-2.135a1.526,1.526,0,0,1,3.051,0v2.135a1.526,1.526,0,0,1-3.051,0Zm-6.1,0v-2.135a1.44,1.44,0,0,1,1.524-1.525,1.633,1.633,0,0,1,1.526,1.525v2.135a1.525,1.525,0,1,1-3.049,0Zm-6.1,0v-2.135a1.526,1.526,0,0,1,3.051,0v2.135a1.526,1.526,0,0,1-3.051,0Zm18.3-6.406v-2.137a1.526,1.526,0,0,1,3.051,0v2.137a1.526,1.526,0,0,1-3.051,0Zm-6.1,0v-2.137a1.526,1.526,0,0,1,3.051,0v2.137a1.526,1.526,0,0,1-3.051,0Zm-6.1,0v-2.137a1.441,1.441,0,0,1,1.524-1.525,1.634,1.634,0,0,1,1.526,1.525v2.137a1.525,1.525,0,0,1-3.049,0Zm-6.1,0v-2.137a1.442,1.442,0,0,1,1.526-1.525,1.634,1.634,0,0,1,1.526,1.525v2.137a1.526,1.526,0,0,1-3.051,0Zm18.3-6.406v-2.136a1.526,1.526,0,0,1,3.051,0v2.136a1.526,1.526,0,0,1-3.051,0Zm-6.1,0v-2.136a1.526,1.526,0,0,1,3.051,0v2.136a1.526,1.526,0,0,1-3.051,0Zm-6.1,0v-2.136A1.441,1.441,0,0,1,149.1,6352a1.634,1.634,0,0,1,1.526,1.525v2.136a1.525,1.525,0,0,1-3.049,0Zm-6.1,0v-2.136a1.526,1.526,0,0,1,3.051,0v2.136a1.526,1.526,0,0,1-3.051,0Z" transform="translate(785.891 -2262.035)"/>
    <g id="Group_59707" data-name="Group 59707" transform="translate(974.343 4166.843)">
      <path id="Path_98032" data-name="Path 98032" class="cls-3" d="M97.025,66.714A1.634,1.634,0,0,1,95.5,65.189V49.325a1.525,1.525,0,0,1,3.051,0V65.189A1.441,1.441,0,0,1,97.025,66.714Z" transform="translate(-95.5 -47.8)"/>
    </g>
    <g id="Group_59708" data-name="Group 59708" transform="translate(982.58 4166.843)">
      <path id="Path_98033" data-name="Path 98033" class="cls-3" d="M99.725,66.714A1.634,1.634,0,0,1,98.2,65.189V49.325a1.525,1.525,0,0,1,3.051,0V65.189C101.556,66.1,100.946,66.714,99.725,66.714Z" transform="translate(-98.2 -47.8)"/>
    </g>
    <g id="Group_59709" data-name="Group 59709" transform="translate(991.122 4166.843)">
      <path id="Path_98034" data-name="Path 98034" class="cls-3" d="M102.525,66.714A1.634,1.634,0,0,1,101,65.189V49.325a1.525,1.525,0,0,1,3.051,0V65.189C104.356,66.1,103.441,66.714,102.525,66.714Z" transform="translate(-101 -47.8)"/>
    </g>
    <g id="Group_59710" data-name="Group 59710" transform="translate(974.343 4141.217)">
      <path id="Path_98035" data-name="Path 98035" class="cls-3" d="M97.025,58.314A1.634,1.634,0,0,1,95.5,56.789V40.925a1.525,1.525,0,0,1,3.051,0V56.789A1.441,1.441,0,0,1,97.025,58.314Z" transform="translate(-95.5 -39.4)"/>
    </g>
    <g id="Group_59711" data-name="Group 59711" transform="translate(982.58 4141.217)">
      <path id="Path_98036" data-name="Path 98036" class="cls-3" d="M99.725,58.314A1.634,1.634,0,0,1,98.2,56.789V40.925a1.525,1.525,0,0,1,3.051,0V56.789C101.556,57.7,100.946,58.314,99.725,58.314Z" transform="translate(-98.2 -39.4)"/>
    </g>
    <path id="Union_1475" data-name="Union 1475" class="cls-4" d="M87.237,6369.39v-15.864a1.525,1.525,0,1,1,3.051,0v15.864c.305.915-.305,1.525-1.525,1.525A1.635,1.635,0,0,1,87.237,6369.39Zm-8,0v-15.864a1.525,1.525,0,1,1,3.051,0v15.864c.305.915-.305,1.525-1.527,1.525A1.634,1.634,0,0,1,79.238,6369.39Zm-8.237,0v-15.864a1.525,1.525,0,1,1,3.051,0v15.864a1.441,1.441,0,0,1-1.525,1.525A1.635,1.635,0,0,1,71,6369.39Z" transform="translate(903.343 -2236.104)"/>
    <g id="Group_59716" data-name="Group 59716" transform="translate(974.343 4191.554)">
      <path id="Path_98041" data-name="Path 98041" class="cls-3" d="M97.025,74.814A1.441,1.441,0,0,1,95.5,73.289V57.425a1.525,1.525,0,0,1,3.051,0V73.289A1.441,1.441,0,0,1,97.025,74.814Z" transform="translate(-95.5 -55.9)"/>
    </g>
    <g id="Group_59717" data-name="Group 59717" transform="translate(982.58 4191.554)">
      <path id="Path_98042" data-name="Path 98042" class="cls-3" d="M99.725,74.814A1.441,1.441,0,0,1,98.2,73.289V57.425a1.525,1.525,0,0,1,3.051,0V73.289C101.556,74.2,100.946,74.814,99.725,74.814Z" transform="translate(-98.2 -55.9)"/>
    </g>
    <g id="Group_59718" data-name="Group 59718" transform="translate(991.122 4191.554)">
      <path id="Path_98043" data-name="Path 98043" class="cls-3" d="M102.525,74.814A1.441,1.441,0,0,1,101,73.289V57.425a1.525,1.525,0,0,1,3.051,0V73.289C104.356,74.2,103.441,74.814,102.525,74.814Z" transform="translate(-101 -55.9)"/>
    </g>
    <path id="Union_1478" data-name="Union 1478" class="cls-4" d="M89.3,6379.762v-2.136a1.525,1.525,0,0,1,3.051,0v2.136a1.525,1.525,0,0,1-3.051,0Zm-6.1,0v-2.136a1.525,1.525,0,0,1,3.051,0v2.136a1.525,1.525,0,0,1-3.051,0Zm-6.1,0v-2.136a1.44,1.44,0,0,1,1.525-1.524,1.633,1.633,0,0,1,1.525,1.524v2.136a1.525,1.525,0,1,1-3.049,0Zm-6.1,0v-2.136a1.441,1.441,0,0,1,1.525-1.524,1.635,1.635,0,0,1,1.526,1.524v2.136a1.525,1.525,0,0,1-3.051,0Zm18.3-6.1v-2.136a1.525,1.525,0,0,1,3.051,0v2.136a1.525,1.525,0,0,1-3.051,0Zm-6.1,0v-2.136a1.525,1.525,0,0,1,3.051,0v2.136a1.525,1.525,0,0,1-3.051,0Zm-6.1,0v-2.136A1.44,1.44,0,0,1,78.627,6370a1.634,1.634,0,0,1,1.525,1.525v2.136a1.525,1.525,0,0,1-3.049,0Zm-6.1,0v-2.136a1.525,1.525,0,0,1,3.051,0v2.136a1.525,1.525,0,0,1-3.051,0Zm14.642-11.593v-2.135a1.525,1.525,0,1,1,3.051,0v2.135a1.525,1.525,0,0,1-3.051,0Zm-5.492,0v-2.135a1.442,1.442,0,0,1,1.526-1.526,1.634,1.634,0,0,1,1.525,1.526v2.135c-.3.916-.914,1.525-1.525,1.525A1.441,1.441,0,0,1,80.151,6362.067Zm-5.8,0v-2.135a1.525,1.525,0,1,1,3.051,0v2.135a1.525,1.525,0,0,1-3.051,0Zm11.287-6.71v-1.833a1.525,1.525,0,0,1,3.051,0v2.137a1.4,1.4,0,0,1-1.525,1.22A1.441,1.441,0,0,1,85.643,6355.357Zm-5.492,0v-1.833A1.441,1.441,0,0,1,81.678,6352a1.4,1.4,0,0,1,1.22,1.524v2.137a1.312,1.312,0,0,1-1.22,1.22A1.441,1.441,0,0,1,80.151,6355.357Zm-5.8,0v-1.833a1.525,1.525,0,0,1,3.051,0v2.137a1.4,1.4,0,0,1-1.525,1.22A1.441,1.441,0,0,1,74.356,6355.357Z" transform="translate(856.362 -2326.405)"/>
    <g id="Group_59859" data-name="Group 59859" transform="translate(936.209 4061.899)">
      <path id="Path_98160" data-name="Path 98160" class="cls-1" d="M84.525,31.094A1.441,1.441,0,0,1,83,29.569V14.925a1.525,1.525,0,1,1,3.051,0V29.569A1.441,1.441,0,0,1,84.525,31.094Z" transform="translate(-83 -13.4)"/>
    </g>
    <g id="Group_59860" data-name="Group 59860" transform="translate(941.701 4061.899)">
      <path id="Path_98161" data-name="Path 98161" class="cls-1" d="M86.325,31.094A1.441,1.441,0,0,1,84.8,29.569V14.925a1.525,1.525,0,0,1,3.051,0V29.569A1.441,1.441,0,0,1,86.325,31.094Z" transform="translate(-84.8 -13.4)"/>
    </g>
    <g id="Group_59861" data-name="Group 59861" transform="translate(947.497 4061.899)">
      <path id="Path_98162" data-name="Path 98162" class="cls-1" d="M88.225,31.094A1.441,1.441,0,0,1,86.7,29.569V14.925a1.525,1.525,0,1,1,3.051,0V29.569A1.441,1.441,0,0,1,88.225,31.094Z" transform="translate(-86.7 -13.4)"/>
    </g>
    <g id="Group_59862" data-name="Group 59862" transform="translate(924.922 4061.899)">
      <path id="Path_98163" data-name="Path 98163" class="cls-1" d="M80.825,31.094A1.441,1.441,0,0,1,79.3,29.569V14.925a1.525,1.525,0,0,1,3.051,0V29.569A1.441,1.441,0,0,1,80.825,31.094Z" transform="translate(-79.3 -13.4)"/>
    </g>
    <g id="Group_59863" data-name="Group 59863" transform="translate(930.718 4061.899)">
      <path id="Path_98164" data-name="Path 98164" class="cls-1" d="M82.725,31.094A1.441,1.441,0,0,1,81.2,29.569V14.925a1.525,1.525,0,1,1,3.051,0V29.569A1.634,1.634,0,0,1,82.725,31.094Z" transform="translate(-81.2 -13.4)"/>
    </g>
    <g id="Group_59870" data-name="Group 59870" transform="translate(918.21 4021.019)">
      <path id="Path_98171" data-name="Path 98171" class="cls-4" d="M112.488,64.98V38.439H80.151V64.98H77.1V36.914a1.441,1.441,0,0,1,1.525-1.525h1.83V18.609a1.441,1.441,0,0,1,1.525-1.525h2.136V1.525A1.933,1.933,0,0,1,85.947,0h21.66a1.441,1.441,0,0,1,1.525,1.525V17.084h2.441a1.441,1.441,0,0,1,1.525,1.525V35.388h1.525a1.441,1.441,0,0,1,1.525,1.525V64.98Zm-2.441-29.592V20.135H83.812V35.388Zm-3.966-18.3V3.051H87.472V17.084Z" transform="translate(-77.1 0)"/>
    </g>
    <g id="Group_59935" data-name="Group 59935" transform="translate(0 54)">
      <g id="Group_59872" data-name="Group 59872" transform="translate(802.283 4112.538)">
        <path id="Path_98172" data-name="Path 98172" class="cls-4" d="M54.964,98.054h3.661V59.9h0c.305,0,.61.305.915.61s.61.305.915.61l.915.915.915.915.915.915.915.915,1.83,1.83.61.61.61.61a.3.3,0,0,0,.305.305v.61l.305.305c.305,0,.61,0,.61-.305V66.92a1.834,1.834,0,0,0-.305-1.22,2.313,2.313,0,0,0-.61-1.22c-.305-.305-.305-.915-.61-1.525a16.765,16.765,0,0,0-2.136-2.746l-1.22-1.22c-.61-.305-.915-.61-1.525-.915-.305-.305-.61-.305-1.22-.61h.61a10.839,10.839,0,0,1,3.051.61c2.136.61,4.271,1.22,5.8,1.83.305.305.61.305,1.22.61.305,0,.61.305.915.305a.3.3,0,0,1,.305.305h.915c.305,0,.305-.305.305-.61V59.9a.3.3,0,0,0-.305-.305c-.305-.305-.305-.61-.61-.915l-.915-.915A10.722,10.722,0,0,0,69.3,55.632a13.2,13.2,0,0,0-3.661-1.525,3.869,3.869,0,0,0-1.83-.305c-.61,0-1.22-.305-1.83-.305H60.455c.305-.305.61-.305,1.22-.61.305-.305.915-.305,1.22-.61s.915-.305,1.22-.61.915-.305,1.22-.61c.915-.305,1.525-.61,2.441-.915.305,0,.61-.305.915-.305s.61,0,.61-.305h.915a.3.3,0,0,0,.305-.305.423.423,0,0,0,0-.61h-.305a1.065,1.065,0,0,0-.61-.305c-.305,0-.61-.305-.915-.305s-.61-.305-1.22-.305H64.421a12.974,12.974,0,0,0-3.356.61c-.61.305-1.22.305-1.525.61-.61.305-.915.61-1.525.915-.305.305-.915.61-1.22,1.22-.305.305-.61.915-.915,1.22,0,.305-.305.305-.305.61,0-.305-.305-.305-.305-.61l-.915-.915a6.643,6.643,0,0,0-2.441-1.525c-.305-.305-.915-.305-1.525-.61-.61,0-.915-.305-1.525-.305H46.422a1.121,1.121,0,0,0-.915.305c-.305,0-.61.305-.915.305s-.305.305-.61.305h0l-.305.305c0,.305,0,.61.305.61H44.9c.305,0,.305,0,.61.305.305,0,.61.305.915.305,1.22.61,2.441,1.22,3.966,2.135.305,0,.61.305.915.305h-.915a3.869,3.869,0,0,0-1.83.305,4.336,4.336,0,0,0-1.83.61c-.61.305-1.22.305-1.83.61a6.668,6.668,0,0,0-1.525.915,17.438,17.438,0,0,0-2.441,2.135l-.915.915c-.305.305-.305.61-.61.915a1.065,1.065,0,0,1-.305.61v.61c0,.305.305.305.61,0h.305a1.065,1.065,0,0,1,.61-.305c.305,0,.61-.305.915-.305s.61-.305.915-.61a23.153,23.153,0,0,1,5.491-1.83,8.908,8.908,0,0,1,2.746-.61c-.305,0-.305.305-.61.305-.61.305-.915.915-1.525,1.22a6.655,6.655,0,0,0-1.22,1.525,8.128,8.128,0,0,0-1.83,3.051,5.154,5.154,0,0,0-.61,1.525,2.75,2.75,0,0,0-.305,1.525c0,.61-.305.915-.305,1.22v1.83a.3.3,0,0,0,.305.305h.61V69.97a1.065,1.065,0,0,0,.305-.61,18.068,18.068,0,0,0,1.22-1.83c.61-.61.915-1.525,1.83-2.136.305-.305.61-.915.915-1.22s.61-.915.915-1.22a14.094,14.094,0,0,1,2.136-2.136,8.089,8.089,0,0,1,1.83-1.525.945.945,0,0,1,.61-.305h0V98.054Z" transform="translate(-39.1 -47.7)"/>
      </g>
      <g id="Group_59873" data-name="Group 59873" transform="translate(816.927 4092.403)">
        <path id="Path_98173" data-name="Path 98173" class="cls-4" d="M59.459,110.046H63.12V53.3h0c.305,0,.61.305.915.61s.61.305.915.61l.915.915.915.915.915.915.915.915,1.83,1.83.61.61.61.61a.3.3,0,0,0,.305.305v.61l.305.305c.305,0,.61,0,.61-.305v-1.83a1.834,1.834,0,0,0-.305-1.22,2.313,2.313,0,0,0-.61-1.22c-.305-.305-.305-.915-.61-1.525a16.767,16.767,0,0,0-2.135-2.746L68,52.388c-.61-.305-.915-.61-1.525-.915-.305-.305-.61-.305-1.22-.61h.61a10.839,10.839,0,0,1,3.051.61c2.136.61,4.271,1.22,5.8,1.83.305.305.61.305,1.22.61.305,0,.61.305.915.305a.3.3,0,0,1,.305.305h.915c.305,0,.305-.305.305-.61V53.3A.3.3,0,0,0,78.068,53c-.305-.305-.305-.61-.61-.915l-.915-.915A10.722,10.722,0,0,0,73.8,49.032a13.2,13.2,0,0,0-3.661-1.525,3.869,3.869,0,0,0-1.83-.305c-.61,0-1.22-.305-1.83-.305H64.95c.305-.305.61-.305,1.22-.61.305-.305.915-.305,1.22-.61s.915-.305,1.22-.61.915-.305,1.22-.61c.915-.305,1.525-.61,2.441-.915.305,0,.61-.305.915-.305s.61,0,.61-.305h.915a.3.3,0,0,0,.305-.305.423.423,0,0,0,0-.61h-.305a1.065,1.065,0,0,0-.61-.305c-.305,0-.61-.305-.915-.305s-.61-.305-1.22-.305H68.916a12.974,12.974,0,0,0-3.356.61c-.61.305-1.22.305-1.525.61-.61.305-.915.61-1.525.915-.305.305-.915.61-1.22,1.22-.305.305-.61.915-.915,1.22,0,.305-.305.305-.305.61,0-.305-.305-.305-.305-.61l-.915-.915a6.642,6.642,0,0,0-2.441-1.525c-.305-.305-.915-.305-1.525-.61-.61,0-.915-.305-1.525-.305H50.917a1.121,1.121,0,0,0-.915.305c-.305,0-.61.305-.915.305s-.305.305-.61.305h0l-.305.305c0,.305,0,.61.305.61h.915c.305,0,.305,0,.61.305.305,0,.61.305.915.305,1.22.61,2.441,1.22,3.966,2.135.305,0,.61.305.915.305h-.915a3.869,3.869,0,0,0-1.83.305,4.336,4.336,0,0,0-1.83.61c-.61.305-1.22.305-1.83.61a6.668,6.668,0,0,0-1.525.915,17.438,17.438,0,0,0-2.441,2.135l-.915.915a2.306,2.306,0,0,0-.305,1.22,1.065,1.065,0,0,1-.305.61v.61c0,.305.305.305.61,0h.305a1.065,1.065,0,0,1,.61-.305c.305,0,.61-.305.915-.305s.61-.305.915-.61a23.153,23.153,0,0,1,5.491-1.83,8.907,8.907,0,0,1,2.746-.61c-.305,0-.305.305-.61.305-.61.305-.915.915-1.525,1.22a6.655,6.655,0,0,0-1.22,1.525,8.128,8.128,0,0,0-1.83,3.051A5.154,5.154,0,0,0,49.7,59.1a2.75,2.75,0,0,0-.305,1.525c0,.61-.305.915-.305,1.22v1.83a.3.3,0,0,0,.305.305H50v-.305a1.065,1.065,0,0,0,.305-.61,18.07,18.07,0,0,0,1.22-1.83c.61-.61.915-1.525,1.83-2.136.305-.305.61-.915.915-1.22s.61-.915.915-1.22a14.094,14.094,0,0,1,2.135-2.135A8.089,8.089,0,0,1,59.154,53a.945.945,0,0,1,.61-.305h0v.61Z" transform="translate(-43.9 -41.1)"/>
      </g>
      <g id="Group_59874" data-name="Group 59874" transform="translate(701.304 4115.589)">
        <path id="Path_98174" data-name="Path 98174" class="cls-5" d="M21.559,96.444H25.22V60.9h0c.305,0,.61.305.915.61s.61.305.915.61l.915.915.915.915.915.915.915.915,1.83,1.83.61.61.61.61a.3.3,0,0,0,.305.305v.61l.305.305c.305,0,.61,0,.61-.305v-1.83a1.834,1.834,0,0,0-.305-1.22,2.313,2.313,0,0,0-.61-1.22c-.305-.305-.305-.915-.61-1.525a16.767,16.767,0,0,0-2.135-2.746l-1.22-1.22c-.61-.305-.915-.61-1.525-.915-.305-.305-.61-.305-1.22-.61h.61a10.839,10.839,0,0,1,3.051.61c2.135.61,4.271,1.22,5.8,1.83.305.305.61.305,1.22.61a8.558,8.558,0,0,0,1.525.305.3.3,0,0,1,.305.305h.915c.305,0,.305-.305.305-.61V60.9a.3.3,0,0,0-.305-.305c-.305-.305-.305-.61-.61-.915l-.915-.915a10.722,10.722,0,0,0-2.746-2.136,13.2,13.2,0,0,0-3.661-1.525,3.869,3.869,0,0,0-1.83-.305c-.61,0-1.22-.305-1.83-.305H27.66c.305-.305.61-.305,1.22-.61.305-.305.915-.305,1.22-.61s.915-.305,1.22-.61.915-.305,1.22-.61c.915-.305,1.525-.61,2.441-.915.305,0,.61-.305.915-.305s.61,0,.61-.305h.915a.3.3,0,0,0,.305-.305.423.423,0,0,0,0-.61h-.305a1.065,1.065,0,0,0-.61-.305c-.305,0-.61-.305-.915-.305s-.61-.305-1.22-.305H31.626a12.973,12.973,0,0,0-3.356.61c-.61.305-1.22.305-1.525.61-.61.305-.915.61-1.525.915-.305.305-.915.61-1.22,1.22-.305.305-.61.915-.915,1.22,0,.305-.305.305-.305.61,0-.305-.305-.305-.305-.61l-.915-.915a6.643,6.643,0,0,0-2.441-1.525c-.305-.305-.915-.305-1.525-.61-.61,0-.915-.305-1.525-.305H13.627a1.121,1.121,0,0,0-.915.305c-.305,0-.61.305-.915.305s-.305.305-.61.305h0l-.305.305c0,.305,0,.61.305.61H12.1c0,.61,0,.915.305.915s.61.305.915.305c1.22.61,2.441,1.22,3.966,2.135.305,0,.61.305.915.305h-.915a3.869,3.869,0,0,0-1.83.305,4.336,4.336,0,0,0-1.83.61c-.61.305-1.22.305-1.83.61a6.669,6.669,0,0,0-1.525.915A17.44,17.44,0,0,0,7.83,59.988l-.915.915c-.305.305-.305.61-.61.915a.945.945,0,0,0-.305.61v.61c0,.305.305.305.61,0h.305a1.065,1.065,0,0,1,.61-.305c.305,0,.61-.305.915-.305s.61-.305.915-.61a23.153,23.153,0,0,1,5.491-1.83,8.908,8.908,0,0,1,2.746-.61c-.305,0-.305.305-.61.305-.61.305-.915.915-1.525,1.22a6.654,6.654,0,0,0-1.22,1.525,8.128,8.128,0,0,0-1.83,3.051A5.154,5.154,0,0,0,11.8,67a2.75,2.75,0,0,0-.305,1.525c0,.61-.305.915-.305,1.22v1.83a.3.3,0,0,0,.305.305h.61V71.58a1.065,1.065,0,0,0,.305-.61c-.305,0,.305-.61.61-1.525.61-.61.915-1.525,1.83-2.136.305-.305.61-.915.915-1.22s.61-.915.915-1.22a14.094,14.094,0,0,1,2.136-2.136,8.088,8.088,0,0,1,1.83-1.525.945.945,0,0,1,.61-.305h0v.61Z" transform="translate(-6 -48.7)"/>
      </g>
    </g>
    <g id="Group_59895" data-name="Group 59895" transform="translate(961.836 4131.76)">
      <path id="Path_98210" data-name="Path 98210" class="cls-2" d="M196.65,120.5h-.915V72.6a1.441,1.441,0,0,0,1.525-1.525v-6.1a1.634,1.634,0,0,0-1.525-1.525V59.791a1.441,1.441,0,0,0-1.525-1.525H174.685V55.52c.61,0,.915-.61.915-1.22V48.2c0-.61-.305-1.22-.915-1.22V42.706a1.441,1.441,0,0,0-1.525-1.525H148.448a1.441,1.441,0,0,0-1.525,1.525v4.881c-.61,0-.915.61-.915,1.22v2.441H122.517V49.723c.61,0,.915-.61.915-1.22V43.012a2.027,2.027,0,0,0-1.22-1.525V37.825a1.441,1.441,0,0,0-1.525-1.525H95.976a1.441,1.441,0,0,0-1.525,1.525v3.661c-.61.305-1.22.61-1.22,1.525V48.5a2.027,2.027,0,0,0,1.22,1.525V120.8H92.925a1.525,1.525,0,1,0,0,3.051H196.04a1.441,1.441,0,0,0,1.525-1.525Q198.023,120.5,196.65,120.5Z" transform="translate(-92.4 -37.3)"/>
    </g>
    <g id="Group_59921" data-name="Group 59921" transform="translate(962.446 4130.76)">
      <path id="Union_1476" data-name="Union 1476" class="cls-4" d="M-829.211,2329.763a1.44,1.44,0,0,1-1.525-1.525v-6.1a1.441,1.441,0,0,1,1.525-1.526h3.966a1.441,1.441,0,0,1,1.526,1.526v6.1a1.441,1.441,0,0,1-1.526,1.525Zm1.22-3.051h1.22v-3.356h-1.22Zm-9.762,3.051a1.441,1.441,0,0,1-1.526-1.525v-6.1a1.441,1.441,0,0,1,1.526-1.526h3.966a1.441,1.441,0,0,1,1.526,1.526v6.1a1.441,1.441,0,0,1-1.526,1.525Zm1.22-3.051h1.22v-3.356h-1.22Zm-44.54,3.051a1.441,1.441,0,0,1-1.526-1.525v-5.492c0-.915.305-1.525,1.526-1.525h3.965a1.441,1.441,0,0,1,1.526,1.525v5.492a1.441,1.441,0,0,1-1.526,1.525Zm1.22-3.051h1.219v-2.441h-1.219Zm-10.067,3.051a1.441,1.441,0,0,1-1.525-1.525v-5.492a1.441,1.441,0,0,1,1.525-1.525h3.965a1.441,1.441,0,0,1,1.526,1.525v5.492a1.441,1.441,0,0,1-1.526,1.525Zm1.22-3.051h1.22v-2.441h-1.22Zm59.488-12.508a1.441,1.441,0,0,1-1.525-1.526v-6.1a1.44,1.44,0,0,1,1.525-1.525h3.966a1.441,1.441,0,0,1,1.526,1.525v6.1a1.441,1.441,0,0,1-1.526,1.526Zm1.22-3.05h1.22V2307.8h-1.22Zm-9.762,3.05a1.441,1.441,0,0,1-1.526-1.526v-6.1a1.441,1.441,0,0,1,1.526-1.525h3.966a1.441,1.441,0,0,1,1.526,1.525v6.1a1.441,1.441,0,0,1-1.526,1.526Zm1.22-3.05h1.22V2307.8h-1.22Zm29.9,2.745c-.915,0-1.22-.61-1.526-1.526v-6.1a1.441,1.441,0,0,1,1.526-1.525h3.966a1.44,1.44,0,0,1,1.525,1.525v6.1a1.441,1.441,0,0,1-1.525,1.526Zm1.526-2.745h1.22V2307.8h-1.22Zm-10.067,2.745a1.441,1.441,0,0,1-1.526-1.526v-6.1a1.441,1.441,0,0,1,1.526-1.525h3.966a1.441,1.441,0,0,1,1.525,1.525v6.1a1.441,1.441,0,0,1-1.525,1.526Zm1.22-2.745h1.22V2307.8h-1.22Zm-67.116,2.135a1.441,1.441,0,0,1-1.526-1.525v-5.492c0-.915.305-1.525,1.526-1.525h3.965a1.441,1.441,0,0,1,1.526,1.525v5.492a1.441,1.441,0,0,1-1.526,1.525Zm1.22-3.05h1.219V2307.8h-1.219Zm-10.067,3.05a1.441,1.441,0,0,1-1.525-1.525v-5.492a1.441,1.441,0,0,1,1.525-1.525h3.965a1.441,1.441,0,0,1,1.526,1.525v5.492a1.441,1.441,0,0,1-1.526,1.525Zm1.22-3.05h1.22V2307.8h-1.22Zm33.252-11.288a1.441,1.441,0,0,1-1.526-1.526v-5.8a1.441,1.441,0,0,1,1.526-1.526h3.661a1.441,1.441,0,0,1,1.526,1.526v5.8a1.441,1.441,0,0,1-1.526,1.526Zm1.526-2.746h.915v-3.05h-.915Zm-9.152,2.746a1.441,1.441,0,0,1-1.526-1.526v-5.8a1.441,1.441,0,0,1,1.526-1.526h3.661a1.441,1.441,0,0,1,1.525,1.526v5.8c-.305.915-.915,1.526-1.525,1.526Zm1.22-2.746h.915v-3.05h-.915Zm55.218,2.441a1.441,1.441,0,0,1-1.526-1.526v-6.1a1.441,1.441,0,0,1,1.526-1.525h3.966a1.44,1.44,0,0,1,1.525,1.525v6.1c0,.61-.914,1.22-1.525,1.526Zm1.22-3.051h1.22v-3.356h-1.22Zm-9.762,3.051a1.441,1.441,0,0,1-1.526-1.526v-6.1a1.441,1.441,0,0,1,1.526-1.525h3.966a1.441,1.441,0,0,1,1.525,1.525v6.1c0,.61-.61,1.22-1.525,1.526Zm1.22-3.051h1.22v-3.356h-1.22Zm-15.254,3.051a1.441,1.441,0,0,1-1.525-1.526v-6.1a1.634,1.634,0,0,1,1.525-1.525h3.966a1.441,1.441,0,0,1,1.526,1.525v6.1a1.441,1.441,0,0,1-1.526,1.526Zm1.22-2.746h1.22v-3.355h-1.22Zm-9.762,2.746a1.441,1.441,0,0,1-1.526-1.526v-6.1a1.634,1.634,0,0,1,1.526-1.525h3.966a1.441,1.441,0,0,1,1.526,1.525v6.1a1.441,1.441,0,0,1-1.526,1.526Zm1.22-2.746h1.22v-3.355h-1.22Zm-44.54,2.441a1.441,1.441,0,0,1-1.526-1.525v-5.491a1.423,1.423,0,0,1,1.526-1.525h3.965a1.441,1.441,0,0,1,1.526,1.525v5.491a1.441,1.441,0,0,1-1.526,1.525Zm1.22-3.051h1.219v-2.44h-1.219Zm-10.067,3.051a1.441,1.441,0,0,1-1.525-1.525v-5.491a1.634,1.634,0,0,1,1.525-1.525h3.965a1.441,1.441,0,0,1,1.526,1.525v5.491a1.441,1.441,0,0,1-1.526,1.525Zm1.22-3.051h1.22v-2.44h-1.22Zm33.252-11.592a1.442,1.442,0,0,1-1.526-1.525v-5.8a1.441,1.441,0,0,1,1.526-1.526h3.661a1.441,1.441,0,0,1,1.526,1.526v5.8a1.442,1.442,0,0,1-1.526,1.525Zm1.526-2.746h.915V2277.9h-.915Zm-9.152,2.746a1.442,1.442,0,0,1-1.526-1.525v-5.8a1.441,1.441,0,0,1,1.526-1.526h3.661a1.441,1.441,0,0,1,1.525,1.526v5.8c-.305.914-.915,1.525-1.525,1.525Zm1.22-2.746h.915V2277.9h-.915Zm32.642,2.441a1.441,1.441,0,0,1-1.525-1.526v-6.1c0-.609.609-1.219,1.525-1.524h3.966a1.44,1.44,0,0,1,1.526,1.524v6.1a1.441,1.441,0,0,1-1.526,1.526Zm1.22-2.746h1.22v-3.356h-1.22Zm-9.762,2.746a1.441,1.441,0,0,1-1.526-1.526v-6.1c0-.609.61-1.219,1.526-1.524h3.966a1.44,1.44,0,0,1,1.526,1.524v6.1a1.441,1.441,0,0,1-1.526,1.526Zm1.22-2.746h1.22v-3.356h-1.22Zm-44.54,2.746a1.441,1.441,0,0,1-1.526-1.526v-5.492c0-.61.305-1.219,1.526-1.526h3.965a1.441,1.441,0,0,1,1.526,1.526v5.492a1.441,1.441,0,0,1-1.526,1.526Zm1.22-2.746h1.219v-2.441h-1.219Zm-10.067,2.746a1.441,1.441,0,0,1-1.525-1.526v-5.492c0-.61.61-1.219,1.525-1.526h3.965a1.441,1.441,0,0,1,1.526,1.526v5.492a1.441,1.441,0,0,1-1.526,1.526Zm1.22-2.746h1.22v-2.441h-1.22Z" transform="translate(899.598 -2250.445)"/>
      <g id="Group_59900" data-name="Group 59900" transform="translate(-1)">
        <path id="Path_98215" data-name="Path 98215" class="cls-1" d="M91.6,122.025a1.441,1.441,0,0,0,1.525,1.525H196.24a1.525,1.525,0,1,0,0-3.051h-.915V72.6a1.441,1.441,0,0,0,1.525-1.525v-6.1a1.634,1.634,0,0,0-1.525-1.525V59.791a1.441,1.441,0,0,0-1.525-1.525H174.274V55.52c.61,0,.915-.61.915-1.22V48.2c0-.61-.305-1.22-.915-1.22V42.706a1.441,1.441,0,0,0-1.525-1.525H148.038a1.441,1.441,0,0,0-1.525,1.525v4.881c-.61,0-.915.61-.915,1.22v2.441H122.107V49.723c.61,0,.915-.61.915-1.22V43.012a2.027,2.027,0,0,0-1.22-1.525V37.825a1.441,1.441,0,0,0-1.525-1.525H95.566a1.441,1.441,0,0,0-1.525,1.525v3.661c-.61.305-1.22.61-1.22,1.525V48.5a2.027,2.027,0,0,0,1.22,1.525V120.8H92.515C92.515,120.5,91.6,121.11,91.6,122.025Zm37.829-1.525v-8.847a5.142,5.142,0,0,1,5.186-5.186,4.965,4.965,0,0,1,5.186,5.186V120.5Zm-3.051-8.847V120.5h-3.966V93.653h24.711V120.5h-4.881v-8.847a8.077,8.077,0,0,0-7.932-7.932A7.877,7.877,0,0,0,126.378,111.653Zm47.9-41.795V66.5H193.8v3.356Zm-1.83-19.83v3.356h-23.8V50.028Zm-.915,70.472h-21.66V56.13h21.66ZM120.582,44.232v2.746h-24.1V44.232Zm-.915,76.573H97.7V50.028h21.965Zm0-81.454v2.135H97.7V39.351Zm26.541,14.643v.915c0,.61.305,1.22.915,1.22V90.908H122.412V53.994Zm25.321-9.457v2.746h-21.66V44.537Zm20.745,17.084v2.136h-18V61.621Zm0,58.879H187.7V107.992a1.441,1.441,0,0,0-1.525-1.525h-6.407a1.441,1.441,0,0,0-1.525,1.525V120.5h-4.271V72.6h18v47.9Zm-10.678,0V109.517h3.661V120.5H181.6Z" transform="translate(-91.6 -36.3)"/>
      </g>
    </g>
    <g id="Path_98258" data-name="Path 98258" class="cls-6" transform="translate(885 4117)">
      <path class="cls-8" d="M-.565-.341H36.3V101.378H-.565Z"/>
      <path class="cls-9" d="M 32.79912948608398 97.87769317626953 L 32.79912948608398 3.158943891525269 L 2.934696197509766 3.158943891525269 L 2.934696197509766 97.87769317626953 L 32.79912948608398 97.87769317626953 M 36.29912948608398 101.3776931762695 L -0.5653038024902344 101.3776931762695 L -0.5653038024902344 -0.3410561084747314 L 36.29912948608398 -0.3410561084747314 L 36.29912948608398 101.3776931762695 Z"/>
    </g>
    <path id="Path_98257" data-name="Path 98257" class="cls-7" d="M-32.358,103.114H581.433" transform="translate(690.057 4113.421)"/>
    <g id="Group_59934" data-name="Group 59934" transform="translate(0 54)">
      <g id="Group_59923" data-name="Group 59923" transform="translate(1077.458 4097.099)">
        <path id="Path_98237" data-name="Path 98237" class="cls-2" d="M142.308,79.324,129.8,45.156s3.356-2.746,13.118-1.83S166.1,53.7,166.1,53.7l3.051,30.812Z" transform="translate(-128.275 -41.614)"/>
        <path id="Path_98238" data-name="Path 98238" class="cls-4" d="M172.01,87.671l-29.592-6.1-13.118-36,.915-.61c.305-.305,3.966-3.051,14.338-2.135,10.067.915,23.49,10.372,23.8,10.678l.61.305Zm-27.456-8.847,23.8,4.881L165.6,55.638c-2.746-1.83-13.728-8.847-21.965-9.762-6.1-.61-9.457.305-10.983.915Z" transform="translate(-129.3 -42.639)"/>
      </g>
      <g id="Group_59924" data-name="Group 59924" transform="translate(1164.403 4097.318)">
        <path id="Path_98239" data-name="Path 98239" class="cls-2" d="M161.961,43.382a138.816,138.816,0,0,1,16.779,0,66.762,66.762,0,0,1,12.813,2.441L180.265,85.482H158.3Z" transform="translate(-156.775 -41.891)"/>
        <path id="Path_98240" data-name="Path 98240" class="cls-4" d="M182.511,87.828H157.8l4.271-44.846h1.22a145.746,145.746,0,0,1,17.084,0,81.248,81.248,0,0,1,13.118,2.441l1.525.305Zm-21.66-3.051h19.22l10.677-36.914a87.355,87.355,0,0,0-10.983-2.136,83.7,83.7,0,0,0-15.254,0Z" transform="translate(-157.8 -42.711)"/>
      </g>
      <g id="Group_59925" data-name="Group 59925" transform="translate(1112.846 4071.963)">
        <path id="Path_98241" data-name="Path 98241" class="cls-2" d="M141.4,78.32V63.677s9.457-15.559,19.525-21.66S178.619,35,178.619,35s8.542,15.864,14.338,21.965a88.022,88.022,0,0,0,12.508,10.678l-9.457,27.151" transform="translate(-139.875 -33.17)"/>
        <path id="Path_98242" data-name="Path 98242" class="cls-4" d="M198.559,96.33l-2.746-.915,8.847-25.931a86.585,86.585,0,0,1-11.9-10.372c-5.186-5.491-11.9-17.694-14.033-21.355a52.963,52.963,0,0,0-15.864,6.712c-8.847,5.186-17.389,18.3-18.914,20.745V79.551H140.9V64.3l.305-.305c.305-.61,9.762-15.864,20.135-22.27a64.217,64.217,0,0,1,18.3-7.322h.915l.61.915c0,.305,8.542,15.864,14.033,21.66a85.888,85.888,0,0,0,12.2,10.372l.915.61Z" transform="translate(-140.9 -34.4)"/>
      </g>
      <g id="Group_59926" data-name="Group 59926" transform="translate(1142.991 4074.962)">
        <line id="Line_4095" data-name="Line 4095" class="cls-2" x1="6.101" y2="47.286" transform="translate(1.277 0.052)"/>
        <rect id="Rectangle_8165" data-name="Rectangle 8165" class="cls-4" width="47.591" height="3.051" transform="translate(0 47.206) rotate(-82.709)"/>
      </g>
      <g id="Group_59927" data-name="Group 59927" transform="translate(1176.911 4127.792)">
        <path id="Path_98243" data-name="Path 98243" class="cls-2" d="M162.4,66.013V55.03l25.626-1.83L184.67,66.928" transform="translate(-160.875 -51.675)"/>
        <path id="Path_98244" data-name="Path 98244" class="cls-4" d="M187.221,68.259l-3.051-.61,2.746-11.9-21.965,1.83v9.457H161.9V54.53l28.982-1.83Z" transform="translate(-161.9 -52.7)"/>
      </g>
      <g id="Group_59928" data-name="Group 59928" transform="translate(1098.203 4140.604)">
        <path id="Path_98245" data-name="Path 98245" class="cls-2" d="M136.6,76.62V57.4H240.935V76.62" transform="translate(-135.075 -55.875)"/>
        <path id="Path_98246" data-name="Path 98246" class="cls-4" d="M243.485,77.645h-3.051V59.951H139.151V77.645H136.1V56.9H243.485Z" transform="translate(-136.1 -56.9)"/>
      </g>
      <g id="Group_59929" data-name="Group 59929" transform="translate(1177.826 4138.774)">
        <path id="Path_98247" data-name="Path 98247" class="cls-2" d="M163.715,71.443h27.456L187.206,56.8H162.8Z" transform="translate(-160.97 -55.275)"/>
        <path id="Path_98248" data-name="Path 98248" class="cls-4" d="M194.538,73.994H163.42L162.2,56.3h27.151Zm-28.067-3.051h24.1l-3.356-11.593h-21.66Z" transform="translate(-162.2 -56.3)"/>
      </g>
      <g id="Group_59930" data-name="Group 59930" transform="translate(1076.542 4129.012)">
        <path id="Path_98249" data-name="Path 98249" class="cls-2" d="M136.207,76.991s.305-9.762,0-12.508-6.407-6.712-6.407-6.712,3.051-4.271,11.288-4.271,16.169,5.8,16.169,5.8V69.669" transform="translate(-127.359 -52.28)"/>
        <path id="Path_98250" data-name="Path 98250" class="cls-4" d="M139.372,77.811h-3.051s.305-9.457,0-12.2c0-1.22-3.051-3.966-5.8-5.491L129,59.2l.915-1.22c0-.305,3.661-4.881,12.508-4.881,8.542,0,16.779,6.1,17.084,6.1l.61.61V70.794h-3.051V61.337c-1.83-1.22-8.237-5.186-14.643-5.186a15.249,15.249,0,0,0-8.847,2.441c2.135,1.525,5.186,4.271,5.491,6.712C139.677,68.049,139.372,77.506,139.372,77.811Z" transform="translate(-129 -53.1)"/>
      </g>
      <g id="Group_59931" data-name="Group 59931" transform="translate(1074.712 4136.639)">
        <path id="Path_98251" data-name="Path 98251" class="cls-2" d="M135.607,79.491s.305-9.762,0-12.508-6.407-6.712-6.407-6.712S132.251,56,140.488,56s16.169,5.8,16.169,5.8V79.185" transform="translate(-126.759 -54.78)"/>
        <path id="Path_98252" data-name="Path 98252" class="cls-4" d="M138.772,80.311h-3.051s.305-9.457,0-12.2c0-1.22-3.051-3.966-5.8-5.491L128.4,61.7l.915-1.22c0-.305,3.661-4.881,12.508-4.881,8.542,0,16.779,6.1,17.084,6.1l.61.61v18.3h-3.051V64.142c-1.83-1.22-8.237-5.186-14.643-5.186a15.249,15.249,0,0,0-8.847,2.441c2.135,1.525,5.186,4.271,5.491,6.712C139.077,70.549,138.772,80.006,138.772,80.311Z" transform="translate(-128.4 -55.6)"/>
      </g>
      <g id="Group_59932" data-name="Group 59932" transform="translate(1149.455 4140.604)">
        <path id="Path_98253" data-name="Path 98253" class="cls-2" d="M153.4,76.62V57.4h29.592V76.62" transform="translate(-151.875 -55.875)"/>
        <path id="Path_98254" data-name="Path 98254" class="cls-4" d="M185.543,77.645h-3.051V59.951H155.951V77.645H152.9V56.9h32.643Z" transform="translate(-152.9 -56.9)"/>
      </g>
      <g id="Group_59933" data-name="Group 59933" transform="translate(1103.389 4115.589)">
        <path id="Path_98255" data-name="Path 98255" class="cls-2" d="M141.756,49.2c.305.61-3.356,32.948-3.356,32.948a202.385,202.385,0,0,1,46.676,1.22,53.9,53.9,0,0,1,14.033,4.271l7.322-19.22s-15.559-10.372-30.507-14.338S141.756,49.2,141.756,49.2Z" transform="translate(-136.57 -47.675)"/>
        <path id="Path_98256" data-name="Path 98256" class="cls-4" d="M200.95,90.495l-1.525-.61A49.979,49.979,0,0,0,186,85.614a222.9,222.9,0,0,0-46.371-1.22l-1.83.305.305-1.83c1.22-11.9,3.356-30.2,3.356-32.338l-.61-1.83h2.136c.305,0,19.525.915,34.473,4.881s30.2,14.033,30.812,14.643l.915.61Zm-43.625-9.762a210.209,210.209,0,0,1,28.982,1.83c5.491.61,10.372,2.746,12.813,3.661l6.407-16.474c-3.661-2.441-16.779-10.372-28.982-13.423s-27.762-4.271-32.338-4.576c-.305,3.051-.915,10.372-3.051,29.592C144.206,81.038,149.7,80.733,157.325,80.733Z" transform="translate(-137.8 -48.7)"/>
      </g>
    </g>
    <g id="Group_59938" data-name="Group 59938" transform="translate(4.55 8.256)">
      <path id="Path_97644" data-name="Path 97644" class="cls-4" d="M197.477,365.07h-7.1a2.692,2.692,0,0,0-2.638,2.638v7.1a2.692,2.692,0,0,0,2.638,2.638h7.1a2.692,2.692,0,0,0,2.638-2.638V367.7a2.692,2.692,0,0,0-2.638-2.629Zm-3.59,9.872a3.666,3.666,0,1,1,.045,0Z" transform="translate(596.295 3690.348)"/>
      <path id="Path_97645" data-name="Path 97645" class="cls-1" d="M194.358,369.269h-.135a1.535,1.535,0,1,1-2.315,1.849,2.532,2.532,0,0,0-.108.7,2.558,2.558,0,1,0,2.558-2.558Z" transform="translate(595.879 3689.918)"/>
      <path id="Path_97646" data-name="Path 97646" class="cls-4" d="M225.8,352.909h0a3.069,3.069,0,0,0-2.872-2.692V344.68h-2.612v5.492h-12.68c-1.795,0-3.59-.9-5.645-1.929-2.836-1.427-6.363-3.2-11.361-3.2s-8.525,1.795-11.361,3.2c-2.055,1.032-3.832,1.929-5.645,1.929h-12.68V344.68H158.33v5.537a3.078,3.078,0,0,0-2.872,2.692,8.974,8.974,0,0,0,1.795,5.923,2.952,2.952,0,0,0,4.631.045,8.813,8.813,0,0,0,1.885-5.447h11.918a6.354,6.354,0,0,0-2.324,3.643c-.171.682-.583,3.419-1.059,6.6-.592,3.913-1.256,8.346-1.588,9.719a2.692,2.692,0,0,0,.431,2.62,1.248,1.248,0,0,0,1.229.332,2.414,2.414,0,0,0,1.445-1.894l1.445-5.977c1.041-4.317,2.27-9.4,2.495-10.32a1.842,1.842,0,0,1,2.118-1.517h3.886c.242.26.467.538.709.826.9,1.095,1.849,2.235,3.365,2.342a20.061,20.061,0,0,0,2.845,0,20.714,20.714,0,0,0,2.9,0c1.508-.108,2.45-1.238,3.365-2.342.242-.3.476-.574.709-.826h3.967c1.256,0,1.849.422,2.118,1.517s1.562,6.452,2.629,10.877l1.31,5.384a2.414,2.414,0,0,0,1.445,1.885,1.238,1.238,0,0,0,1.229-.332,2.692,2.692,0,0,0,.431-2.62c-.332-1.382-1.005-5.806-1.588-9.719-.476-3.177-.9-5.923-1.059-6.6a6.354,6.354,0,0,0-2.315-3.644h11.666a8.813,8.813,0,0,0,1.885,5.448,2.952,2.952,0,0,0,4.63-.045,8.974,8.974,0,0,0,1.795-5.869Z" transform="translate(599.608 3692.44)"/>
      <path id="path8811" class="cls-1" d="M146.982,340.33a39.277,39.277,0,0,0-9.351,1.095.175.175,0,0,0-.171.144c0,.054.072.117.171.144a40.382,40.382,0,0,0,18.7,0,.175.175,0,0,0,.171-.144c0-.054-.072-.117-.171-.144A39.232,39.232,0,0,0,146.982,340.33Z" transform="translate(601.453 3692.886)"/>
      <path id="path8811-2" data-name="path8811" class="cls-1" d="M172.142,340.33a39.276,39.276,0,0,0-9.351,1.095.175.175,0,0,0-.171.144c0,.054.072.117.171.144a40.382,40.382,0,0,0,18.7,0,.175.175,0,0,0,.171-.144c0-.054-.072-.117-.171-.144A39.232,39.232,0,0,0,172.142,340.33Z" transform="translate(598.872 3692.886)"/>
      <path id="Path_97647" data-name="Path 97647" class="cls-1" d="M159.15,342.072c0-1.732.592-3.132,1.328-3.132s1.328,1.4,1.328,3.132Z" transform="translate(599.228 3693.029)"/>
      <path id="path8811-3" data-name="path8811" class="cls-1" d="M215.242,340.33a39.277,39.277,0,0,0-9.351,1.095.175.175,0,0,0-.17.144c0,.054.072.117.17.144a40.382,40.382,0,0,0,18.7,0,.175.175,0,0,0,.171-.144c0-.054-.072-.117-.171-.144A39.232,39.232,0,0,0,215.242,340.33Z" transform="translate(594.451 3692.886)"/>
      <path id="path8811-4" data-name="path8811" class="cls-1" d="M240.4,340.33a39.277,39.277,0,0,0-9.351,1.095.175.175,0,0,0-.171.144c0,.054.072.117.171.144a40.382,40.382,0,0,0,18.7,0,.175.175,0,0,0,.171-.144c0-.054-.072-.117-.171-.144A39.232,39.232,0,0,0,240.4,340.33Z" transform="translate(591.87 3692.886)"/>
      <path id="Path_97648" data-name="Path 97648" class="cls-1" d="M227.41,342.072c0-1.732.592-3.132,1.328-3.132s1.328,1.4,1.328,3.132Z" transform="translate(592.226 3693.029)"/>
      <rect id="Rectangle_7818" data-name="Rectangle 7818" class="cls-1" width="1.203" height="3.311" transform="translate(766.006 4042.567)"/>
      <rect id="Rectangle_7819" data-name="Rectangle 7819" class="cls-1" width="1.203" height="3.311" transform="translate(768.492 4042.567)"/>
      <rect id="Rectangle_7820" data-name="Rectangle 7820" class="cls-1" width="1.203" height="3.311" transform="translate(811.11 4042.567)"/>
      <rect id="Rectangle_7821" data-name="Rectangle 7821" class="cls-1" width="1.203" height="3.311" transform="translate(813.596 4042.567)"/>
    </g>
  </g>
</svg>
