<svg xmlns="http://www.w3.org/2000/svg" viewBox="6735.736 1021.83 500.385 231.401">
  <defs>
    <style>
      .cls-1 {
        fill: #ddd;
      }

      .cls-2 {
        fill: #c6cad0;
        stroke: #c6cad0;
      }

      .cls-10, .cls-3, .cls-6, .cls-8 {
        fill: none;
      }

      .cls-3, .cls-4 {
        stroke: #f8b1a3;
        stroke-width: 5px;
      }

      .cls-4 {
        fill: #fff;
      }

      .cls-5 {
        fill: #8e96a3;
        font-size: 10px;
        font-family: Roboto-Bold, Roboto;
        font-weight: 700;
        letter-spacing: 0.05em;
      }

      .cls-6 {
        stroke: #3fc0c2;
      }

      .cls-6, .cls-8 {
        stroke-width: 3px;
      }

      .cls-7 {
        fill: #3fc0c2;
      }

      .cls-8 {
        stroke: #e2e4e7;
      }

      .cls-9 {
        stroke: none;
      }
    </style>
  </defs>
  <g id="Group_59676" data-name="Group 59676" transform="translate(6030 -11)">
    <rect id="Rectangle_8152" data-name="Rectangle 8152" class="cls-1" width="34" height="5" transform="translate(806 1218)"/>
    <rect id="Rectangle_8153" data-name="Rectangle 8153" class="cls-1" width="34" height="5" transform="translate(926 1187)"/>
    <rect id="Rectangle_8155" data-name="Rectangle 8155" class="cls-1" width="34" height="5" transform="translate(1026 1136)"/>
    <rect id="Rectangle_8154" data-name="Rectangle 8154" class="cls-1" width="25" height="5" transform="translate(926 1201)"/>
    <rect id="Rectangle_8156" data-name="Rectangle 8156" class="cls-1" width="25" height="5" transform="translate(1026 1150)"/>
    <rect id="Rectangle_8157" data-name="Rectangle 8157" class="cls-1" width="30" height="5" transform="translate(1026 1164)"/>
    <path id="Path_97982" data-name="Path 97982" class="cls-2" d="M35.471,36.564a1.021,1.021,0,0,1-1.02-.874l-1.6-9.25a2.215,2.215,0,0,0-1.457-1.894l-8.085-3.2a.79.79,0,0,1-.583-.583L22,19.156a1.188,1.188,0,0,1,.146-1.093A8.431,8.431,0,0,0,23.6,15.15a1.162,1.162,0,0,1,.51-.656l.146-.073v-.073a10.317,10.317,0,0,0,.583-3.642v-.146l-.073-.073a1.131,1.131,0,0,1-.364-1.02,8.361,8.361,0,0,0,0-2.695,3.849,3.849,0,0,1-.073-.874C23.963,3.35,20.9,2.185,18.209,2.185S12.455,3.35,12.091,5.9v.947a16.64,16.64,0,0,0,0,2.695,1.07,1.07,0,0,1-.364,1.02l-.073.073v.146a12.287,12.287,0,0,0,.583,3.642v.073l.146.073a1.162,1.162,0,0,1,.51.656,8.431,8.431,0,0,0,1.457,2.913,1.162,1.162,0,0,1,.146,1.093l-.656,1.6a1.491,1.491,0,0,1-.583.583L5.1,24.546a2.419,2.419,0,0,0-1.53,1.967L2.039,35.69a1.021,1.021,0,0,1-1.02.874H.874A1.085,1.085,0,0,1,0,35.69V35.4l1.384-9.323A4.365,4.365,0,0,1,4.3,22.507l7.648-2.986.291-.656-.073-.146A10.959,10.959,0,0,1,11,16.243l-.073-.146H10.78a.979.979,0,0,1-.437-.51,14.61,14.61,0,0,1-.874-5.608,1.085,1.085,0,0,1,.291-.656l.073-.073V9.177a14.916,14.916,0,0,1,.073-2.549,3.546,3.546,0,0,0,.073-.874V5.608C10.416,1.748,14.494,0,18.282,0s7.794,1.748,8.3,5.608v.874a15.124,15.124,0,0,1,.073,2.549V9.1l.073.073a1.309,1.309,0,0,1,.291.656,14.245,14.245,0,0,1-.874,5.536.77.77,0,0,1-.437.51h-.073l-.146.364a11.248,11.248,0,0,1-1.238,2.476l-.073.073.219.656,7.648,2.986A4.487,4.487,0,0,1,34.889,26l.437,2.476v.073l.291,1.675.874,5.244a.743.743,0,0,1-.146.656.966.966,0,0,1-.728.437Z" transform="translate(916.204 1113.801)"/>
    <path id="Path_97989" data-name="Path 97989" class="cls-2" d="M35.471,36.564a1.021,1.021,0,0,1-1.02-.874l-1.6-9.25a2.215,2.215,0,0,0-1.457-1.894l-8.085-3.2a.79.79,0,0,1-.583-.583L22,19.156a1.188,1.188,0,0,1,.146-1.093A8.431,8.431,0,0,0,23.6,15.15a1.162,1.162,0,0,1,.51-.656l.146-.073v-.073a10.317,10.317,0,0,0,.583-3.642v-.146l-.073-.073a1.131,1.131,0,0,1-.364-1.02,8.361,8.361,0,0,0,0-2.695,3.849,3.849,0,0,1-.073-.874C23.963,3.35,20.9,2.185,18.209,2.185S12.455,3.35,12.091,5.9v.947a16.64,16.64,0,0,0,0,2.695,1.07,1.07,0,0,1-.364,1.02l-.073.073v.146a12.287,12.287,0,0,0,.583,3.642v.073l.146.073a1.162,1.162,0,0,1,.51.656,8.431,8.431,0,0,0,1.457,2.913,1.162,1.162,0,0,1,.146,1.093l-.656,1.6a1.491,1.491,0,0,1-.583.583L5.1,24.546a2.419,2.419,0,0,0-1.53,1.967L2.039,35.69a1.021,1.021,0,0,1-1.02.874H.874A1.085,1.085,0,0,1,0,35.69V35.4l1.384-9.323A4.365,4.365,0,0,1,4.3,22.507l7.648-2.986.291-.656-.073-.146A10.959,10.959,0,0,1,11,16.243l-.073-.146H10.78a.979.979,0,0,1-.437-.51,14.61,14.61,0,0,1-.874-5.608,1.085,1.085,0,0,1,.291-.656l.073-.073V9.177a14.916,14.916,0,0,1,.073-2.549,3.546,3.546,0,0,0,.073-.874V5.608C10.416,1.748,14.494,0,18.282,0s7.794,1.748,8.3,5.608v.874a15.124,15.124,0,0,1,.073,2.549V9.1l.073.073a1.309,1.309,0,0,1,.291.656,14.245,14.245,0,0,1-.874,5.536.77.77,0,0,1-.437.51h-.073l-.146.364a11.248,11.248,0,0,1-1.238,2.476l-.073.073.219.656,7.648,2.986A4.487,4.487,0,0,1,34.889,26l.437,2.476v.073l.291,1.675.874,5.244a.743.743,0,0,1-.146.656.966.966,0,0,1-.728.437Z" transform="translate(797.204 1143.801)"/>
    <path id="Path_97985" data-name="Path 97985" class="cls-2" d="M35.471,36.564a1.021,1.021,0,0,1-1.02-.874l-1.6-9.25a2.215,2.215,0,0,0-1.457-1.894l-8.085-3.2a.79.79,0,0,1-.583-.583L22,19.156a1.188,1.188,0,0,1,.146-1.093A8.431,8.431,0,0,0,23.6,15.15a1.162,1.162,0,0,1,.51-.656l.146-.073v-.073a10.317,10.317,0,0,0,.583-3.642v-.146l-.073-.073a1.131,1.131,0,0,1-.364-1.02,8.361,8.361,0,0,0,0-2.695,3.849,3.849,0,0,1-.073-.874C23.963,3.35,20.9,2.185,18.209,2.185S12.455,3.35,12.091,5.9v.947a16.64,16.64,0,0,0,0,2.695,1.07,1.07,0,0,1-.364,1.02l-.073.073v.146a12.287,12.287,0,0,0,.583,3.642v.073l.146.073a1.162,1.162,0,0,1,.51.656,8.431,8.431,0,0,0,1.457,2.913,1.162,1.162,0,0,1,.146,1.093l-.656,1.6a1.491,1.491,0,0,1-.583.583L5.1,24.546a2.419,2.419,0,0,0-1.53,1.967L2.039,35.69a1.021,1.021,0,0,1-1.02.874H.874A1.085,1.085,0,0,1,0,35.69V35.4l1.384-9.323A4.365,4.365,0,0,1,4.3,22.507l7.648-2.986.291-.656-.073-.146A10.959,10.959,0,0,1,11,16.243l-.073-.146H10.78a.979.979,0,0,1-.437-.51,14.61,14.61,0,0,1-.874-5.608,1.085,1.085,0,0,1,.291-.656l.073-.073V9.177a14.916,14.916,0,0,1,.073-2.549,3.546,3.546,0,0,0,.073-.874V5.608C10.416,1.748,14.494,0,18.282,0s7.794,1.748,8.3,5.608v.874a15.124,15.124,0,0,1,.073,2.549V9.1l.073.073a1.309,1.309,0,0,1,.291.656,14.245,14.245,0,0,1-.874,5.536.77.77,0,0,1-.437.51h-.073l-.146.364a11.248,11.248,0,0,1-1.238,2.476l-.073.073.219.656,7.648,2.986A4.487,4.487,0,0,1,34.889,26l.437,2.476v.073l.291,1.675.874,5.244a.743.743,0,0,1-.146.656.966.966,0,0,1-.728.437Z" transform="translate(1014.204 1060.801)"/>
    <path id="Path_97968" data-name="Path 97968" class="cls-3" d="M662.973-5138.1l100.576-56.758,119.87-25.593,99.2-55.842,105.571-34.458" transform="translate(55 6389)"/>
    <g id="Ellipse_2622" data-name="Ellipse 2622" class="cls-4" transform="translate(806 1185)">
      <circle class="cls-9" cx="11" cy="11" r="11"/>
      <circle class="cls-10" cx="11" cy="11" r="8.5"/>
    </g>
    <g id="Ellipse_2627" data-name="Ellipse 2627" class="cls-4" transform="translate(923 1156)">
      <circle class="cls-9" cx="11" cy="11" r="11"/>
      <circle class="cls-10" cx="11" cy="11" r="8.5"/>
    </g>
    <g id="Ellipse_2628" data-name="Ellipse 2628" class="cls-4" transform="translate(1023 1103)">
      <circle class="cls-9" cx="11" cy="11" r="11"/>
      <circle class="cls-10" cx="11" cy="11" r="8.5"/>
    </g>
    <g id="Group_59674" data-name="Group 59674" transform="translate(-53.66 453.214)">
      <text id="CLIENT_MISSION" data-name="CLIENT
MISSION" class="cls-5" transform="translate(1203.66 653.786)"><tspan x="-18.052" y="0">CLIENT</tspan><tspan x="-21.925" y="12">MISSION</tspan></text>
    </g>
    <path id="Path_97981" data-name="Path 97981" class="cls-6" d="M773.59,479.114l-1.039-.994,4.006,3.961,8.578-9.346" transform="translate(15.881 741.919)"/>
    <path id="Path_97983" data-name="Path 97983" class="cls-6" d="M773.59,479.114l-1.039-.994,4.006,3.961,8.578-9.346" transform="translate(135.881 710.919)"/>
    <path id="Path_97987" data-name="Path 97987" class="cls-6" d="M773.59,479.114l-1.039-.994,4.006,3.961,8.578-9.346" transform="translate(235.881 659.919)"/>
    <path id="Path_97984" data-name="Path 97984" class="cls-6" d="M773.59,479.114l-1.039-.994,4.006,3.961,8.578-9.346" transform="translate(135.881 724.919)"/>
    <path id="Path_97986" data-name="Path 97986" class="cls-6" d="M773.59,479.114l-1.039-.994,4.006,3.961,8.578-9.346" transform="translate(235.881 673.919)"/>
    <path id="Path_97988" data-name="Path 97988" class="cls-6" d="M773.59,479.114l-1.039-.994,4.006,3.961,8.578-9.346" transform="translate(235.881 687.919)"/>
    <path id="Path_97973" data-name="Path 97973" class="cls-7" d="M14.871,2.385A12.513,12.513,0,0,1,27.356,14.871c0,6.594-8.067,18.308-12.486,24.621C10.8,33.319,2.385,20.693,2.385,14.871A12.513,12.513,0,0,1,14.871,2.385m-.14,20.131A7.716,7.716,0,1,0,7.014,14.8a7.694,7.694,0,0,0,7.716,7.716M14.871,0A14.878,14.878,0,0,0,0,14.871C0,22.446,11.013,37.878,14.871,43.7c4.139-5.892,14.871-20.342,14.871-28.829A14.878,14.878,0,0,0,14.871,0Zm-.14,20.272A5.471,5.471,0,1,1,20.2,14.8a5.478,5.478,0,0,1-5.471,5.471Z" transform="translate(1135 1047.3)"/>
    <path id="Path_97966" data-name="Path 97966" class="cls-8" d="M687.439-5297.9v215.3h484.737" transform="translate(29.884 6335.313)"/>
    <path id="Path_98280" data-name="Path 98280" class="cls-8" d="M703.781,1060.8l10.29-11.681,9.969,11.681" transform="translate(3.08 -14)"/>
    <path id="Path_98281" data-name="Path 98281" class="cls-8" d="M703.781,1060.8l10.29-11.681,9.969,11.681" transform="translate(2252.952 539.05) rotate(90)"/>
  </g>
</svg>
