<svg xmlns="http://www.w3.org/2000/svg" viewBox="7124.515 1786.093 250.016 202.399">
  <defs>
    <style>
      .cls-1, .cls-5 {
        fill: #fff;
      }

      .cls-1 {
        stroke: #f8b1a3;
      }

      .cls-1, .cls-6 {
        stroke-width: 3px;
      }

      .cls-2 {
        fill: #f8b1a3;
      }

      .cls-3, .cls-6, .cls-7 {
        fill: none;
      }

      .cls-3, .cls-6 {
        stroke: #8e96a3;
      }

      .cls-3, .cls-7 {
        stroke-width: 5px;
        opacity: 0.5;
      }

      .cls-4 {
        fill: #8e96a3;
        font-size: 15px;
        font-family: Roboto-Bold, Roboto;
        font-weight: 700;
        letter-spacing: 0.01em;
      }

      .cls-7 {
        stroke: #f26649;
      }
    </style>
  </defs>
  <g id="Group_59578" data-name="Group 59578" transform="translate(6032 134)">
    <g id="Group_59573" data-name="Group 59573" transform="translate(-503.576 274.392)">
      <path id="Path_97876" data-name="Path 97876" class="cls-1" d="M146.9,80.025c0,3.9-3.583,7.807-7.166,7.807H7.166C3.583,87.832,0,85.88,0,80.025V7.807C0,3.9,3.583,0,7.166,0H139.735c3.583,0,7.166,3.9,7.166,7.807Z" transform="translate(1636.445 1415.843)"/>
      <path id="Path_32895" data-name="Path 32895" class="cls-2" d="M46.881,48.325a1.35,1.35,0,0,1-1.348-1.155L43.415,34.944a2.928,2.928,0,0,0-1.925-2.5L30.8,28.206a1.045,1.045,0,0,1-.77-.77l-.963-2.118a1.571,1.571,0,0,1,.193-1.444,11.143,11.143,0,0,0,1.925-3.851,1.536,1.536,0,0,1,.674-.866l.193-.1v-.1a13.636,13.636,0,0,0,.77-4.813v-.193l-.1-.1a1.5,1.5,0,0,1-.481-1.348,11.05,11.05,0,0,0,0-3.562,5.087,5.087,0,0,1-.1-1.155c-.481-3.369-4.524-4.909-8.086-4.909s-7.6,1.54-8.086,4.909V9.049a21.992,21.992,0,0,0,0,3.562,1.415,1.415,0,0,1-.481,1.348l-.1.1v.193a16.239,16.239,0,0,0,.77,4.813v.1l.193.1a1.536,1.536,0,0,1,.674.866,11.143,11.143,0,0,0,1.925,3.851,1.536,1.536,0,0,1,.193,1.444l-.866,2.118a1.97,1.97,0,0,1-.77.77L6.739,32.441a3.2,3.2,0,0,0-2.022,2.6L2.7,47.17a1.35,1.35,0,0,1-1.348,1.155H1.155A1.435,1.435,0,0,1,0,47.17v-.385L1.829,34.463A5.769,5.769,0,0,1,5.68,29.746L15.787,25.8l.385-.866-.1-.193a14.484,14.484,0,0,1-1.54-3.273l-.1-.193h-.193a1.294,1.294,0,0,1-.578-.674,19.31,19.31,0,0,1-1.155-7.412,1.434,1.434,0,0,1,.385-.866l.1-.1v-.1a19.714,19.714,0,0,1,.1-3.369,4.687,4.687,0,0,0,.1-1.155V7.412C13.766,2.31,19.157,0,24.162,0s10.3,2.31,10.974,7.412V8.568a19.989,19.989,0,0,1,.1,3.369v.1l.1.1a1.73,1.73,0,0,1,.385.866,18.826,18.826,0,0,1-1.155,7.316,1.018,1.018,0,0,1-.578.674h-.1l-.193.481a14.866,14.866,0,0,1-1.637,3.273l-.1.1.289.866L42.356,29.65a5.931,5.931,0,0,1,3.754,4.717l.578,3.273v.1l.385,2.214,1.155,6.931a.982.982,0,0,1-.193.866,1.277,1.277,0,0,1-.963.578Z" transform="translate(1645.781 1435.528)"/>
      <path id="Path_32897" data-name="Path 32897" class="cls-3" d="M-431.45,7415.8h52.923" transform="translate(2133.218 -5961.012)"/>
      <path id="Path_32898" data-name="Path 32898" class="cls-3" d="M-431.45,7415.8h38.872" transform="translate(2133.218 -5946.347)"/>
      <path id="Path_32900" data-name="Path 32900" class="cls-3" d="M-431.45,7415.8H-388" transform="translate(2133.218 -5931.948)"/>
      <text id="Settings" class="cls-4" transform="translate(1699.754 1437.627)"><tspan x="0" y="0">LICENSE</tspan></text>
      <path id="Path_97882" data-name="Path 97882" class="cls-5" d="M3666.655,1573.068c-.075-.338-15.42-42.293-15.42-42.293s-18.778-5.967-18.506-27.626c-4.3-24.07-8.423-51.939-8.85-55.865s1.271-11.011,8.85-12.219,9.623,3.644,10.979,8.181,9.751,39.479,9.751,39.479v-60.532s16.663,16.723,20.932,21.053,7.342,8.248,8.652,20.45,6.387,48.365,6.387,48.365l18.244,44.762Z" transform="translate(-1868.857 1.379)"/>
      <path id="Path_97883" data-name="Path 97883" class="cls-6" d="M3654.531,1479.19c.036-.616-7.789-31.476-9.713-38s-5.774-10.989-13.735-8.456-7.856,8.478-7.688,12.343,8.569,55,8.569,55-2.327,20.866,18.572,28.9c6.86,19.162,9.638,26.293,9.638,26.293" transform="translate(-1868.959 3.512)"/>
      <path id="Path_97884" data-name="Path 97884" class="cls-6" d="M3647.251,1420.452s21.771,21.248,24.725,24.66,5.97,9.372,6.879,18.511,5.177,52.549,5.177,52.549l10.125,27.332" transform="translate(-1863.769 1.001)"/>
      <path id="Path_97885" data-name="Path 97885" class="cls-6" d="M3733.725,1557.121s-3.479-10-4.636-13.359-.134-6.032,2.986-7.026,40.591-15.626,44.151-16.785,6.932-.66,8.338,3.36,4.82,13.424,4.82,13.424" transform="translate(-1944.688 22.487)"/>
    </g>
    <g id="Group_59574" data-name="Group 59574" transform="translate(1095 1654.589)">
      <path id="Path_34280" data-name="Path 34280" class="cls-7" d="M8039.86-4137.176l-18.223-13.608" transform="translate(-8008.899 4163.397)"/>
      <path id="Path_34281" data-name="Path 34281" class="cls-7" d="M15.284,13.28.37.425" transform="translate(41.982 -0.563) rotate(44)"/>
      <path id="Path_34282" data-name="Path 34282" class="cls-7" d="M18.112,18.282-.477.494" transform="translate(0.047 37.122) rotate(-40)"/>
    </g>
  </g>
</svg>
