<svg xmlns="http://www.w3.org/2000/svg" xmlns:xlink="http://www.w3.org/1999/xlink" viewBox="7304.2 2785.047 271.252 130.653">
  <defs>
    <style>
      .cls-1, .cls-10, .cls-11, .cls-16, .cls-19, .cls-3 {
        fill: none;
      }

      .cls-12, .cls-13, .cls-14, .cls-2, .cls-9 {
        fill: #fff;
      }

      .cls-3, .cls-9 {
        stroke: #8e96a3;
        stroke-width: 2px;
      }

      .cls-14, .cls-16, .cls-17, .cls-19, .cls-3 {
        opacity: 0.5;
      }

      .cls-4, .cls-5, .cls-6 {
        fill: #3fc0c2;
      }

      .cls-4, .cls-7 {
        opacity: 0.35;
      }

      .cls-5 {
        opacity: 0.19;
      }

      .cls-6 {
        opacity: 0.2;
      }

      .cls-18, .cls-21, .cls-7, .cls-8 {
        fill: #8e96a3;
      }

      .cls-10, .cls-11, .cls-16 {
        stroke: #fff;
      }

      .cls-10, .cls-13 {
        opacity: 0.7;
      }

      .cls-12 {
        stroke: #707070;
        opacity: 0.366;
      }

      .cls-15 {
        clip-path: url(#clip-path);
      }

      .cls-18 {
        opacity: 0.15;
      }

      .cls-20, .cls-21 {
        stroke: none;
      }
    </style>
    <clipPath id="clip-path">
      <rect class="cls-1" width="70.923" height="81"/>
    </clipPath>
  </defs>
  <g id="Group_60064" data-name="Group 60064" transform="translate(6032)">
    <g id="Group_59584" data-name="Group 59584" transform="translate(-12 148)">
      <g id="Group_59514" data-name="Group 59514">
        <path id="Path_97849" data-name="Path 97849" class="cls-2" d="M17,0h96.653a17,17,0,0,1,17,17V254.253a17,17,0,0,1-17,17H17a17,17,0,0,1-17-17V17A17,17,0,0,1,17,0Z" transform="translate(1284.2 2767.7) rotate(-90)"/>
        <g id="Rectangle_7970" data-name="Rectangle 7970" class="cls-3" transform="translate(1284.2 2767.7) rotate(-90)">
          <rect class="cls-20" width="130.653" height="271.253" rx="17"/>
          <rect class="cls-1" x="1" y="1" width="128.653" height="269.253" rx="16"/>
        </g>
        <g id="Path_97848" data-name="Path 97848" class="cls-4" transform="translate(1316 2761.639) rotate(-90)">
          <path class="cls-20" d="M 116.1386337280273 205.6519927978516 L 0.500001072883606 205.6519927978516 L 0.500001072883606 0.4999963939189911 L 116.1386337280273 0.4999963939189911 L 116.1386337280273 205.6519927978516 Z"/>
          <path class="cls-21" d="M 115.6386337280273 205.1519927978516 L 115.6386337280273 0.9999964237213135 L 1.000001072883606 0.9999964237213135 L 1.000001072883606 205.1519927978516 L 115.6386337280273 205.1519927978516 M 116.6386337280273 206.1519927978516 L 1.074540023182635e-06 206.1519927978516 L 1.074540023182635e-06 -3.601074240577873e-06 L 116.6386337280273 -3.601074240577873e-06 L 116.6386337280273 206.1519927978516 Z"/>
        </g>
        <path id="Path_97790" data-name="Path 97790" class="cls-5" d="M1245,2728.872l57.395-47.659,90.373,80.721H1245Z" transform="translate(71)"/>
        <path id="Path_97791" data-name="Path 97791" class="cls-6" d="M1410.023,2741.223l-64.1-60.01L1245,2782.852h165.023Z" transform="translate(110.92 -20.919)"/>
        <rect id="Rectangle_7918" data-name="Rectangle 7918" class="cls-7" width="76" height="115" transform="translate(1423 2646)"/>
        <rect id="Rectangle_7913" data-name="Rectangle 7913" class="cls-8" width="21.248" height="2.713" rx="1.356" transform="translate(1300.023 2712.998) rotate(-90)"/>
        <circle id="Ellipse_2586" data-name="Ellipse 2586" class="cls-8" cx="2.26" cy="2.26" r="2.26" transform="translate(1299.119 2725.656) rotate(-90)"/>
        <ellipse id="Ellipse_2587" data-name="Ellipse 2587" class="cls-8" cx="1.582" cy="1.582" rx="1.582" ry="1.582" transform="translate(1290.982 2703.956) rotate(-90)"/>
        <g id="Ellipse_2588" data-name="Ellipse 2588" class="cls-9" transform="translate(1526.519 2712.998) rotate(-90)">
          <ellipse class="cls-20" cx="10.398" cy="10.398" rx="10.398" ry="10.398"/>
          <ellipse class="cls-1" cx="10.398" cy="10.398" rx="9.398" ry="9.398"/>
        </g>
        <g id="Ellipse_2589" data-name="Ellipse 2589" class="cls-10" transform="translate(1321.302 2741.85)">
          <circle class="cls-20" cx="6.143" cy="6.143" r="6.143"/>
          <circle class="cls-1" cx="6.143" cy="6.143" r="5.643"/>
        </g>
        <g id="Symbol_280" data-name="Symbol 280" transform="translate(1501.82 2696.163)">
          <g id="Group_5177" data-name="Group 5177" transform="translate(0 3.366)">
            <g id="Ellipse_299" data-name="Ellipse 299" class="cls-11">
              <circle class="cls-20" cx="8.243" cy="8.243" r="8.243"/>
              <circle class="cls-1" cx="8.243" cy="8.243" r="7.743"/>
            </g>
            <circle id="Ellipse_300" data-name="Ellipse 300" class="cls-2" cx="5.935" cy="5.935" r="5.935" transform="translate(2.308 2.308)"/>
          </g>
          <path id="Path_6436" data-name="Path 6436" class="cls-2" d="M5184.083,4580.171l2.319-2.842,2.333,2.842a8.7,8.7,0,0,0-2.333-.379A8.535,8.535,0,0,0,5184.083,4580.171Z" transform="translate(-5178.203 -4577.329)"/>
        </g>
        <g id="Group_59505" data-name="Group 59505" transform="translate(1505.117 2725.905)">
          <path id="Path_6437" data-name="Path 6437" class="cls-2" d="M6.342,6.432H.865A.85.85,0,0,1,0,5.585V.865A.854.854,0,0,1,.865,0h5.5a.85.85,0,0,1,.847.865V1.946c.216-.126.5-.288.7-.414L8.883.955A.648.648,0,0,1,9.531.919a.63.63,0,0,1,.306.577V4.937a.611.611,0,0,1-.306.577.647.647,0,0,1-.649-.036L7.207,4.468V5.585A.85.85,0,0,1,6.342,6.432ZM.865.667a.2.2,0,0,0-.2.2V5.585a.2.2,0,0,0,.2.2h5.5a.2.2,0,0,0,.2-.2V4.414A.671.671,0,0,1,6.865,3.8a.555.555,0,0,1,.577.018l1.73,1.045v-3.3l-.919.541c-.252.144-.613.378-.829.5a.555.555,0,0,1-.577.018.652.652,0,0,1-.306-.613V.865a.2.2,0,0,0-.2-.2ZM7.207,4.324Zm0-2.234Z" transform="translate(0 0)"/>
        </g>
        <path id="Union_208" data-name="Union 208" class="cls-2" d="M1.423,6.811A1.432,1.432,0,0,1,0,5.388V2.321A1.429,1.429,0,0,1,1.407.9H2.593A1.219,1.219,0,0,1,3.762,0H5.49A1.184,1.184,0,0,1,6.642.9H7.828A1.421,1.421,0,0,1,9.252,2.321V5.388A1.432,1.432,0,0,1,7.828,6.811Zm1.22-2.949A1.985,1.985,0,0,0,4.626,5.846,1.964,1.964,0,0,0,6.608,3.863a1.982,1.982,0,0,0-3.965,0Zm.593,0a1.389,1.389,0,0,1,2.779,0,1.374,1.374,0,0,1-1.39,1.389A1.389,1.389,0,0,1,3.237,3.863Z" transform="translate(1505.447 2682.892)"/>
        <rect id="Rectangle_7914" data-name="Rectangle 7914" class="cls-1" width="19.123" height="12.529" transform="translate(1501.82 2680.076)"/>
        <rect id="Rectangle_7915" data-name="Rectangle 7915" class="cls-1" width="19.123" height="12.529" transform="translate(1501.82 2722.608)"/>
        <g id="Symbol_157" data-name="Symbol 157" transform="translate(1487.468 2652.985)">
          <path id="DB_icon_ArrowStroke_left" class="cls-2" d="M0,2.022,2.035,0l.32.32L.64,2.009l1.7,1.638-.307.32Z" transform="translate(0 2.354) rotate(-90)"/>
        </g>
        <rect id="Rectangle_7916" data-name="Rectangle 7916" class="cls-1" width="47.477" height="14.177" transform="translate(1453.024 2646.117)"/>
        <g id="Rectangle_7917" data-name="Rectangle 7917" class="cls-12" transform="translate(1503 2651)">
          <rect class="cls-20" width="14" height="14"/>
          <rect class="cls-1" x="0.5" y="0.5" width="13" height="13"/>
        </g>
        <rect id="Rectangle_7919" data-name="Rectangle 7919" class="cls-13" width="34" height="5" transform="translate(1447 2652)"/>
        <rect id="Rectangle_7927" data-name="Rectangle 7927" class="cls-14" width="10" height="5" transform="translate(1335 2651)"/>
        <rect id="Rectangle_7928" data-name="Rectangle 7928" class="cls-14" width="10" height="5" transform="translate(1360 2651)"/>
        <rect id="Rectangle_7920" data-name="Rectangle 7920" class="cls-13" width="34" height="5" transform="translate(1429 2670)"/>
        <rect id="Rectangle_7923" data-name="Rectangle 7923" class="cls-13" width="34" height="5" transform="translate(1429 2730)"/>
        <rect id="Rectangle_7924" data-name="Rectangle 7924" class="cls-13" width="34" height="5" transform="translate(1442 2749)"/>
        <rect id="Rectangle_7921" data-name="Rectangle 7921" class="cls-13" width="52" height="5" transform="translate(1429 2691)"/>
        <rect id="Rectangle_7922" data-name="Rectangle 7922" class="cls-13" width="39" height="5" transform="translate(1429 2710)"/>
        <g id="Repeat_Grid_1256" data-name="Repeat Grid 1256" class="cls-15" transform="translate(1425.602 2662.904)">
          <g transform="translate(-1425.602 -2679.904)">
            <path id="Path_97789" data-name="Path 97789" class="cls-16" d="M1354.6,2662.9h70.923" transform="translate(71 17)"/>
          </g>
          <g transform="translate(-1425.602 -2659.904)">
            <path id="Path_97789-2" data-name="Path 97789" class="cls-16" d="M1354.6,2662.9h70.923" transform="translate(71 17)"/>
          </g>
          <g transform="translate(-1425.602 -2639.904)">
            <path id="Path_97789-3" data-name="Path 97789" class="cls-16" d="M1354.6,2662.9h70.923" transform="translate(71 17)"/>
          </g>
          <g transform="translate(-1425.602 -2619.904)">
            <path id="Path_97789-4" data-name="Path 97789" class="cls-16" d="M1354.6,2662.9h70.923" transform="translate(71 17)"/>
          </g>
          <g transform="translate(-1425.602 -2599.904)">
            <path id="Path_97789-5" data-name="Path 97789" class="cls-16" d="M1354.6,2662.9h70.923" transform="translate(71 17)"/>
          </g>
        </g>
        <g id="Group_59509" data-name="Group 59509" class="cls-17" transform="translate(898 2433.374)">
          <g id="Ellipse_2435" data-name="Ellipse 2435" class="cls-11" transform="translate(532 314)">
            <circle class="cls-20" cx="4.363" cy="4.363" r="4.363"/>
            <circle class="cls-1" cx="4.363" cy="4.363" r="3.863"/>
          </g>
          <path id="Union_1448" data-name="Union 1448" class="cls-2" d="M1.909,4.364V2.455H0V1.909H1.909V0h.544V1.909H4.362v.547H2.453V4.364Z" transform="translate(534.182 316.18)"/>
        </g>
        <g id="Group_59513" data-name="Group 59513" transform="translate(2 -1)">
          <rect id="Rectangle_2624" data-name="Rectangle 2624" class="cls-2" width="6.032" height="1.273" transform="translate(1374.872 2651.948) rotate(90)"/>
          <rect id="Rectangle_2625" data-name="Rectangle 2625" class="cls-2" width="6.032" height="1.273" transform="translate(1372.216 2651.948) rotate(90)"/>
          <rect id="Rectangle_2624-2" data-name="Rectangle 2624" class="cls-14" width="6.032" height="1.273" transform="translate(1380.184 2651.948) rotate(90)"/>
          <rect id="Rectangle_7926" data-name="Rectangle 7926" class="cls-14" width="2.213" height="1.273" transform="translate(1382.84 2653.765) rotate(90)"/>
          <rect id="Rectangle_2625-2" data-name="Rectangle 2625" class="cls-14" width="6.032" height="1.273" transform="translate(1377.528 2651.948) rotate(90)"/>
        </g>
        <g id="Group_59511" data-name="Group 59511" transform="translate(1349.408 2649)">
          <path id="Path_10083" data-name="Path 10083" class="cls-2" d="M1.654,4.487A4.892,4.892,0,0,1,.189,8,.574.574,0,0,0,.58,8.98.486.486,0,0,0,.971,8.81,6.076,6.076,0,0,0,2.753,4.487,6.076,6.076,0,0,0,.971.165a.575.575,0,0,0-.806,0,.575.575,0,0,0,0,.806A4.859,4.859,0,0,1,1.654,4.487Z" transform="translate(3.199 0)"/>
          <path id="Path_10084" data-name="Path 10084" class="cls-2" d="M.189,5.537a.576.576,0,0,0,.391.171.486.486,0,0,0,.391-.171,3.765,3.765,0,0,0,1.1-2.686A3.807,3.807,0,0,0,.971.165a.575.575,0,0,0-.806,0,.575.575,0,0,0,0,.806,2.622,2.622,0,0,1,.781,1.88,2.655,2.655,0,0,1-.757,1.9A.545.545,0,0,0,.189,5.537Z" transform="translate(1.563 1.636)"/>
          <path id="Path_10085" data-name="Path 10085" class="cls-2" d="M.189,2.363a.576.576,0,0,0,.391.171.486.486,0,0,0,.391-.171,1.554,1.554,0,0,0,.464-1.1A1.554,1.554,0,0,0,.971.165a.575.575,0,0,0-.806,0,.575.575,0,0,0,0,.806.464.464,0,0,1,.122.317.514.514,0,0,1-.122.317A.539.539,0,0,0,.189,2.363Z" transform="translate(0 3.248)"/>
        </g>
        <g id="noun_933312_FFFFFF" transform="translate(1313 1681.059)">
          <path id="Path_18748" data-name="Path 18748" class="cls-2" d="M8.659,968.362a.659.659,0,0,0,0,1.319h7.913a.659.659,0,0,0,0-1.319Zm0,3.077a.659.659,0,0,0,0,1.319h7.913a.659.659,0,0,0,0-1.319Zm0,3.077a.659.659,0,1,0,0,1.319h7.913a.659.659,0,1,0,0-1.319Z"/>
        </g>
        <rect id="Rectangle_7929" data-name="Rectangle 7929" class="cls-18" width="39" height="8" rx="4" transform="translate(1391 2650)"/>
        <path id="Path_97792" data-name="Path 97792" class="cls-2" d="M1327.445,2743.423v4.965h4.7a4.985,4.985,0,0,0-1.613-3.681A5.059,5.059,0,0,0,1327.445,2743.423Z"/>
      </g>
    </g>
    <g id="Path_97897" data-name="Path 97897" class="cls-19" transform="translate(1304 2909.639) rotate(-90)">
      <path class="cls-20" d="M0,0H116.639V206.152H0Z"/>
      <path class="cls-21" d="M 115.6386337280273 205.1519927978516 L 115.6386337280273 0.9999964237213135 L 1.000001072883606 0.9999964237213135 L 1.000001072883606 205.1519927978516 L 115.6386337280273 205.1519927978516 M 116.6386337280273 206.1519927978516 L 1.074540023182635e-06 206.1519927978516 L 1.074540023182635e-06 -3.601074240577873e-06 L 116.6386337280273 -3.601074240577873e-06 L 116.6386337280273 206.1519927978516 Z"/>
    </g>
  </g>
</svg>
