<svg id="Symbol_160_2" data-name="Symbol 160 – 2" xmlns="http://www.w3.org/2000/svg" viewBox="9909 -3587 55 55">
  <defs>
    <style>
      .cls-1 {
        fill: #8d95a2;
      }

      .cls-2 {
        fill: none;
      }
    </style>
  </defs>
  <path id="Path_28926" data-name="Path 28926" class="cls-1" d="M109.4,23.5a1.213,1.213,0,0,0-1.3-.3,16.094,16.094,0,0,1-4.8.8A14.937,14.937,0,0,1,88.4,9.1a15.584,15.584,0,0,1,.8-4.8A1.26,1.26,0,0,0,88.9,3a1.213,1.213,0,0,0-1.3-.3,17.362,17.362,0,1,0,22,22.1A1.039,1.039,0,0,0,109.4,23.5Zm-3.1,2.7A14.86,14.86,0,1,1,86.2,6a16.279,16.279,0,0,0-.3,3.1,17.413,17.413,0,0,0,17.4,17.4A15.263,15.263,0,0,0,106.3,26.2Z" transform="translate(9844 -3579)"/>
  <rect id="Rectangle_6051" data-name="Rectangle 6051" class="cls-2" width="55" height="55" transform="translate(9909 -3587)"/>
</svg>
