<svg xmlns="http://www.w3.org/2000/svg" viewBox="9834 -3426 55 55">
  <defs>
    <style>
      .cls-1 {
        fill: #3fc0c2;
      }

      .cls-2 {
        fill: none;
      }
    </style>
  </defs>
  <g id="Group_14586" data-name="Group 14586" transform="translate(0 161)">
    <g id="Group_14585" data-name="Group 14585" transform="translate(9841.001 -3580)">
      <path id="Union_1448" data-name="Union 1448" class="cls-1" d="M-9820.1,3618v-4.2a1.365,1.365,0,0,1,1.4-1.4,1.341,1.341,0,0,1,1.4,1.5v4.1a1.367,1.367,0,0,1-1.4,1.4A1.365,1.365,0,0,1-9820.1,3618Zm-12.9-4.5a1.335,1.335,0,0,1,0-2l2.9-2.9a1.419,1.419,0,0,1,2,.1,1.284,1.284,0,0,1,.4,1,1.287,1.287,0,0,1-.4,1l-2.9,2.9a1.279,1.279,0,0,1-1,.4A1.393,1.393,0,0,1-9833,3613.5Zm26.6-.2-2.9-2.9a1.286,1.286,0,0,1-.4-1,1.289,1.289,0,0,1,.4-1,1.336,1.336,0,0,1,2,0l2.9,2.9a1.282,1.282,0,0,1,.4,1,1.285,1.285,0,0,1-.4,1,1.283,1.283,0,0,1-1,.4A1.293,1.293,0,0,1-9806.4,3613.3Zm-22.9-14.1a10.5,10.5,0,0,1,10.5-10.5,10.5,10.5,0,0,1,10.5,10.5,10.5,10.5,0,0,1-10.5,10.5A10.5,10.5,0,0,1-9829.3,3599.2Zm2.9,0a7.6,7.6,0,0,0,7.6,7.6,7.6,7.6,0,0,0,7.6-7.6,7.6,7.6,0,0,0-7.6-7.6A7.6,7.6,0,0,0-9826.4,3599.2Zm-7.1,1.5h-4.1a1.368,1.368,0,0,1-1.4-1.4,1.367,1.367,0,0,1,1.4-1.4h4.2a1.367,1.367,0,0,1,1.4,1.4,1.4,1.4,0,0,1-1.345,1.41A1.224,1.224,0,0,1-9833.5,3600.7Zm29.4-.3a1.365,1.365,0,0,1-1.4-1.4,1.367,1.367,0,0,1,1.4-1.4h4.1a1.506,1.506,0,0,1,1.4,1.4,1.367,1.367,0,0,1-1.4,1.4Zm-26.2-10.5-2.9-2.9a1.29,1.29,0,0,1-.4-1,1.384,1.384,0,0,1,.5-1,1.336,1.336,0,0,1,2,0l2.8,2.9a1.339,1.339,0,0,1,0,2,1.285,1.285,0,0,1-1,.4A1.278,1.278,0,0,1-9830.3,3589.9Zm20.7-.1a1.282,1.282,0,0,1-.4-1,1.233,1.233,0,0,1,.5-1l2.9-2.9a1.286,1.286,0,0,1,1-.4,1.294,1.294,0,0,1,1,.4,1.287,1.287,0,0,1,.4,1,1.284,1.284,0,0,1-.4,1l-2.9,2.9a1.287,1.287,0,0,1-1,.4A2.089,2.089,0,0,1-9809.6,3589.8Zm-10.7-5.3v-4.1a1.367,1.367,0,0,1,1.4-1.4,1.366,1.366,0,0,1,1.4,1.4v4.2a1.366,1.366,0,0,1-1.4,1.4A1.393,1.393,0,0,1-9820.3,3584.5Z" transform="translate(9839 -3579)"/>
    </g>
    <rect id="Rectangle_6060" data-name="Rectangle 6060" class="cls-2" width="55" height="55" transform="translate(9834 -3587)"/>
  </g>
</svg>
