<svg id="Symbol_163_2" data-name="Symbol 163 – 2" xmlns="http://www.w3.org/2000/svg" viewBox="10134 -3587 55 55">
  <defs>
    <style>
      .cls-1 {
        fill: #8d95a2;
      }

      .cls-2 {
        fill: none;
      }
    </style>
  </defs>
  <path id="Path_28928" data-name="Path 28928" class="cls-1" d="M318.8,13.6a8.329,8.329,0,0,0-2.2.3,11.823,11.823,0,0,0-10.2-5.7A12.021,12.021,0,0,0,294.5,19a6.512,6.512,0,0,0-6.3,6.5,6.594,6.594,0,0,0,6.6,6.6h23.9a9.347,9.347,0,0,0,9.3-9.3A9.176,9.176,0,0,0,318.8,13.6Zm6.9,9.3a7.02,7.02,0,0,1-7,7H294.8a4.3,4.3,0,0,1,0-8.6,1.952,1.952,0,0,1,.7.1l1.3.1V20.2a9.672,9.672,0,0,1,18.3-4.4l.5.9,1-.3a6.2,6.2,0,0,1,2.3-.4A6.829,6.829,0,0,1,325.7,22.9Z" transform="translate(9853 -3577.2)"/>
  <rect id="Rectangle_6054" data-name="Rectangle 6054" class="cls-2" width="55" height="55" transform="translate(10134 -3587)"/>
</svg>
