<svg id="Group_14600" data-name="Group 14600" xmlns="http://www.w3.org/2000/svg" viewBox="10134 -3346 55 55">
  <defs>
    <style>
      .cls-1 {
        fill: #3fc0c2;
      }

      .cls-2 {
        fill: none;
      }
    </style>
  </defs>
  <path id="Path_28996" data-name="Path 28996" class="cls-1" d="M6.9,23.9H30.5a9.548,9.548,0,0,0,9.3-9.3,9.347,9.347,0,0,0-9.3-9.3,8.329,8.329,0,0,0-2.2.3,11.938,11.938,0,0,0-22,5.2A6.6,6.6,0,0,0,0,17.4a4.831,4.831,0,0,0,1.3,3.4,1.193,1.193,0,0,0,.9.5,1.854,1.854,0,0,0,.7-.2,1.127,1.127,0,0,0,.2-1.6,3.283,3.283,0,0,1-.7-2.9,4.288,4.288,0,0,1,4.2-3.5,1.952,1.952,0,0,1,.7.1l1.3.1V12A9.672,9.672,0,0,1,26.9,7.6l.5.9,1-.3a6.2,6.2,0,0,1,2.3-.4,7,7,0,0,1,0,14H6.9C4.3,21.8,3,23.5,3,25.3a3.646,3.646,0,0,0,3.9,3.5H31.4c1.1,0,1.5.6,1.5,1.2s-.4,1.2-1.6,1.2H10.7a3.374,3.374,0,0,0-3.5,3.3,3.238,3.238,0,0,0,3.5,3.2H25.5a1.1,1.1,0,1,0,0-2.2H10.7c-1.1,0-1.2-.7-1.2-1,0-.5.3-1,1.2-1H31.3A3.553,3.553,0,0,0,35.1,30a3.481,3.481,0,0,0-3.8-3.4H6.9c-1.2,0-1.7-.6-1.7-1.3C5.2,24.5,5.6,23.9,6.9,23.9Z" transform="translate(10142 -3338)"/>
  <rect id="Rectangle_6068" data-name="Rectangle 6068" class="cls-2" width="55" height="55" transform="translate(10134 -3346)"/>
</svg>
