<svg id="Symbol_161_2" data-name="Symbol 161 – 2" xmlns="http://www.w3.org/2000/svg" viewBox="9984 -3587 55 55">
  <defs>
    <style>
      .cls-1 {
        fill: none;
      }

      .cls-2 {
        fill: #8d95a2;
      }
    </style>
  </defs>
  <g id="Group_14571" data-name="Group 14571" transform="translate(9847 -3582.4)">
    <path id="Path_28938" data-name="Path 28938" class="cls-1" d="M172.6,18.9a12,12,0,0,1,2-.3h.2a6.051,6.051,0,0,0,.4-2.4,5.668,5.668,0,0,0-5.6-5.3h-.4a5.526,5.526,0,0,0-4.3,2.5c.2,0,.4.1.6.1A12.162,12.162,0,0,1,172.6,18.9Z"/>
    <path id="Union_1444" data-name="Union 1444" class="cls-2" d="M-9832.4,3614.7a6.594,6.594,0,0,1-6.6-6.6,6.511,6.511,0,0,1,6.3-6.5,12.083,12.083,0,0,1,11.8-10.8,8,8,0,0,1,6.7-4.5,8,8,0,0,1,5.7,2,7.665,7.665,0,0,1,2.7,5.4,6.541,6.541,0,0,1-.3,2.8,9.238,9.238,0,0,1,6.9,8.9,9.347,9.347,0,0,1-9.3,9.3Zm-4.2-6.6a4.331,4.331,0,0,0,4.3,4.3h23.9a7.415,7.415,0,0,0,7.2-7.1,6.97,6.97,0,0,0-5.7-6.8,5.765,5.765,0,0,0-1.3-.1,7.788,7.788,0,0,0-2.1.4c0,.1-.1.1-.2.1l-1,.3-.5-.9a9.617,9.617,0,0,0-7.1-5.1,7.462,7.462,0,0,0-1.5-.1h-.8a9.49,9.49,0,0,0-3,.8,9.145,9.145,0,0,0-3.4,2.4,9.167,9.167,0,0,0-2.5,6.4v1.3l-1.3-.1a1.929,1.929,0,0,0-.7-.1A4.271,4.271,0,0,0-9836.6,3608.1Zm18.1-16.9c.2,0,.4.1.6.1a11.8,11.8,0,0,1,7.2,5.3,6.934,6.934,0,0,1,2-.3h.2a5.045,5.045,0,0,0,.4-2.4,5.6,5.6,0,0,0-5.6-5.3h-.4A5.591,5.591,0,0,0-9818.5,3591.2Zm15.8,3.3a1.137,1.137,0,0,1-.8-.3,1.237,1.237,0,0,1-.4-.8,1.145,1.145,0,0,1,.3-.8,1.24,1.24,0,0,1,.8-.4l3.1-.2a1.139,1.139,0,0,1,.8.3,2.175,2.175,0,0,1,.5.8,1.132,1.132,0,0,1-.3.8,1.235,1.235,0,0,1-.8.4l-3.1.2Zm-19.3-6.3a1.139,1.139,0,0,1-.8-.3l-2.2-2a1.116,1.116,0,0,1-.1-1.6,1.24,1.24,0,0,1,.8-.4,1.133,1.133,0,0,1,.8.3l2.3,2a1.231,1.231,0,0,1,.4.8,1.142,1.142,0,0,1-.3.8,1.233,1.233,0,0,1-.8.4Zm14.8-1.5a1.225,1.225,0,0,1-.4-.8,1.138,1.138,0,0,1,.3-.8l2-2.3a1.115,1.115,0,0,1,1.6-.1,1.237,1.237,0,0,1,.4.8,1.134,1.134,0,0,1-.3.8l-2,2.3a1.26,1.26,0,0,1-.9.4A.778.778,0,0,1-9807.2,3586.7Zm-8.5-3.4-.2-3.1a1.2,1.2,0,0,1,1.1-1.2h.1a1.109,1.109,0,0,1,1.1,1.1l.2,3.1a1.074,1.074,0,0,1-1.1,1.2A1.281,1.281,0,0,1-9815.7,3583.3Z" transform="translate(9983.2 -3577.6)"/>
  </g>
  <rect id="Rectangle_6052" data-name="Rectangle 6052" class="cls-1" width="55" height="55" transform="translate(9984 -3587)"/>
</svg>
