<svg xmlns="http://www.w3.org/2000/svg" viewBox="10059 -3426 55 55">
  <defs>
    <style>
      .cls-1 {
        fill: #3fc0c2;
      }

      .cls-2 {
        fill: none;
      }
    </style>
  </defs>
  <g id="Group_14598" data-name="Group 14598" transform="translate(0 161)">
    <path id="Path_28995" data-name="Path 28995" class="cls-1" d="M253.1,21.2a10.929,10.929,0,0,0,2.9-4.4,1.2,1.2,0,0,0-1.5-1.5,8.523,8.523,0,0,1-11.4-8.1,9.185,9.185,0,0,1,.5-2.8,1.314,1.314,0,0,0-.3-1.2,1.314,1.314,0,0,0-1.2-.3,10.971,10.971,0,0,0-7.4,10.3v.1h-.3a12.021,12.021,0,0,0-11.9,10.8,6.553,6.553,0,0,0,.3,13.1h23.9a9.347,9.347,0,0,0,9.3-9.3A9.218,9.218,0,0,0,253.1,21.2Zm-16-7.9a8.861,8.861,0,0,1,3.8-7.2c0,.4-.1.7-.1,1.1a10.926,10.926,0,0,0,10.9,10.9,3.4,3.4,0,0,0,1-.1,6.9,6.9,0,0,1-1.6,1.8,9.257,9.257,0,0,0-4.4-1.1,8.329,8.329,0,0,0-2.2.3,11.76,11.76,0,0,0-7.5-5.4A.367.367,0,0,0,237.1,13.3Zm7.3,8.1a6.2,6.2,0,0,1,2.3-.4,7,7,0,0,1,0,14H222.8a4.3,4.3,0,1,1,0-8.6,1.952,1.952,0,0,1,.7.1l1.3.1V25.3a9.672,9.672,0,0,1,18.3-4.4l.5.9Z" transform="translate(9850 -3581.863)"/>
    <rect id="Rectangle_6067" data-name="Rectangle 6067" class="cls-2" width="55" height="55" transform="translate(10059 -3587)"/>
  </g>
</svg>
