<svg id="Symbol_164_2" data-name="Symbol 164 – 2" xmlns="http://www.w3.org/2000/svg" viewBox="9834 -3507 55 55">
  <defs>
    <style>
      .cls-1 {
        fill: #8d95a2;
      }

      .cls-2 {
        fill: none;
      }
    </style>
  </defs>
  <g id="Group_14572" data-name="Group 14572" transform="translate(9841.601 -3584.8)">
    <path id="Union_1445" data-name="Union 1445" class="cls-1" d="M-9820,3616.9a1.138,1.138,0,0,1-.3-.8,1.133,1.133,0,0,1,.3-.8l2.8-2.8a1.214,1.214,0,0,1,1.6,0,1.132,1.132,0,0,1,.3.8,1.136,1.136,0,0,1-.3.8l-2.8,2.8a1.138,1.138,0,0,1-.8.3A1.134,1.134,0,0,1-9820,3616.9Zm-11,0a1.138,1.138,0,0,1-.3-.8,1.134,1.134,0,0,1,.3-.8l2.8-2.8a1.216,1.216,0,0,1,1.6,0,1.218,1.218,0,0,1,0,1.6l-2.8,2.8a1.137,1.137,0,0,1-.8.3A1.137,1.137,0,0,1-9831,3616.9Zm19-6.3a1.135,1.135,0,0,1-.3-.8,1.138,1.138,0,0,1,.3-.8l2.8-2.8a1.212,1.212,0,0,1,1.6,0,1.211,1.211,0,0,1,0,1.6l-2.8,2.8a1.142,1.142,0,0,1-.8.3A1.128,1.128,0,0,1-9812,3610.6Zm-10.9,0a1.218,1.218,0,0,1,0-1.6l2.8-2.8a1.216,1.216,0,0,1,1.6,0,1.216,1.216,0,0,1,0,1.6l-2.8,2.8a1.135,1.135,0,0,1-.8.3A1.141,1.141,0,0,1-9822.9,3610.6Zm-11,0a1.125,1.125,0,0,1-.3-.8,1.129,1.129,0,0,1,.3-.8l2.8-2.8a1.22,1.22,0,0,1,1.6,0,1.042,1.042,0,0,1,0,1.6l-2.8,2.8a1.13,1.13,0,0,1-.8.3A1.134,1.134,0,0,1-9833.9,3610.6Zm1.5-7.7a6.594,6.594,0,0,1-6.6-6.6,6.513,6.513,0,0,1,6.3-6.5,12.017,12.017,0,0,1,11.9-10.8,11.819,11.819,0,0,1,10.2,5.7,8.332,8.332,0,0,1,2.2-.3,9.2,9.2,0,0,1,9.3,9.2,9.347,9.347,0,0,1-9.3,9.3Zm-4.2-6.6a4.331,4.331,0,0,0,4.3,4.3h23.9a7.018,7.018,0,0,0,7-7,6.893,6.893,0,0,0-6.8-6.9,6.228,6.228,0,0,0-2.3.4l-1,.3-.5-.9a9.654,9.654,0,0,0-8.6-5.3,9.711,9.711,0,0,0-9.7,9.7v1.3l-1.3-.1a1.98,1.98,0,0,0-.7-.1A4.268,4.268,0,0,0-9836.6,3596.3Z" transform="translate(9839.4 -3492.2)"/>
  </g>
  <rect id="Rectangle_6055" data-name="Rectangle 6055" class="cls-2" width="55" height="55" transform="translate(9834 -3507)"/>
</svg>
