<svg xmlns="http://www.w3.org/2000/svg" viewBox="9909 -3346 55 55">
  <defs>
    <style>
      .cls-1 {
        fill: #3fc0c2;
      }

      .cls-2 {
        fill: none;
      }
    </style>
  </defs>
  <g id="Group_14591" data-name="Group 14591" transform="translate(0 161)">
    <g id="Group_14590" data-name="Group 14590" transform="translate(5 -6)">
      <path id="Path_28978" data-name="Path 28978" class="cls-1" d="M12.7,36.3,9.9,39.1a1.132,1.132,0,0,0,1.6,1.6l2.8-2.8a1.131,1.131,0,0,0-1.6-1.6Z" transform="translate(9911 -3492)"/>
      <path id="Path_28979" data-name="Path 28979" class="cls-1" d="M13.1,27.2a1.217,1.217,0,0,0-1.6,0L8.7,30a1.217,1.217,0,0,0,0,1.6,1.235,1.235,0,0,0,.8.4,1.136,1.136,0,0,0,.8-.3l2.8-2.8A1.354,1.354,0,0,0,13.1,27.2Z" transform="translate(9911 -3492)"/>
      <path id="Path_28980" data-name="Path 28980" class="cls-1" d="M26.9,32.6l-2.8,2.8A1.132,1.132,0,0,0,25.7,37l2.8-2.8a1.217,1.217,0,0,0,0-1.6A1.041,1.041,0,0,0,26.9,32.6Z" transform="translate(9911 -3492)"/>
      <path id="Path_28981" data-name="Path 28981" class="cls-1" d="M24,27.2a1.217,1.217,0,0,0-1.6,0L19.6,30a1.217,1.217,0,0,0,0,1.6,1.217,1.217,0,0,0,1.6,0L24,28.8A1.04,1.04,0,0,0,24,27.2Z" transform="translate(9911 -3492)"/>
      <path id="Path_28982" data-name="Path 28982" class="cls-1" d="M30.5,5.4a8.329,8.329,0,0,0-2.2.3A11.781,11.781,0,0,0,18.2,0,12.021,12.021,0,0,0,6.3,10.8,6.6,6.6,0,0,0,6.6,24H30.5a9.3,9.3,0,0,0,0-18.6Zm7,9.3a7.02,7.02,0,0,1-7,7H6.6a4.332,4.332,0,0,1-4.3-4.3,4.268,4.268,0,0,1,4.3-4.3,1.952,1.952,0,0,1,.7.1l1.3.1V12A9.672,9.672,0,0,1,26.9,7.6l.5.9,1-.3a6.2,6.2,0,0,1,2.3-.4A6.828,6.828,0,0,1,37.5,14.7Z" transform="translate(9912 -3492)"/>
      <circle id="Ellipse_2325" data-name="Ellipse 2325" class="cls-1" cx="1.6" cy="1.6" r="1.6" transform="translate(9940.5 -3464.6)"/>
      <circle id="Ellipse_2326" data-name="Ellipse 2326" class="cls-1" cx="1.6" cy="1.6" r="1.6" transform="translate(9926.3 -3459.8)"/>
      <circle id="Ellipse_2327" data-name="Ellipse 2327" class="cls-1" cx="1.6" cy="1.6" r="1.6" transform="translate(9915.5 -3458.8)"/>
    </g>
    <rect id="Rectangle_6063" data-name="Rectangle 6063" class="cls-2" width="55" height="55" transform="translate(9909 -3507)"/>
  </g>
</svg>
