<svg id="Symbol_166_1" data-name="Symbol 166 – 1" xmlns="http://www.w3.org/2000/svg" viewBox="9984 -3507 55 55">
  <defs>
    <style>
      .cls-1 {
        fill: #8d95a2;
      }

      .cls-2 {
        fill: none;
      }
    </style>
  </defs>
  <g id="Group_14573" data-name="Group 14573" transform="translate(9848 -3587.3)">
    <path id="Union_1446" data-name="Union 1446" class="cls-1" d="M-9825.1,3613.3a1.6,1.6,0,0,1,1.6-1.6,1.6,1.6,0,0,1,1.6,1.6,1.6,1.6,0,0,1-1.6,1.6A1.6,1.6,0,0,1-9825.1,3613.3Zm9.2,0a1.4,1.4,0,0,1,1.4-1.4,1.4,1.4,0,0,1,1.4,1.4,1.4,1.4,0,0,1-1.4,1.4A1.4,1.4,0,0,1-9815.9,3613.3Zm4.3-5.5a1.6,1.6,0,0,1,1.6-1.6,1.6,1.6,0,0,1,1.6,1.6,1.6,1.6,0,0,1-1.6,1.6A1.6,1.6,0,0,1-9811.6,3607.8Zm-9,0a1.6,1.6,0,0,1,1.6-1.6,1.6,1.6,0,0,1,1.6,1.6,1.6,1.6,0,0,1-1.6,1.6A1.6,1.6,0,0,1-9820.6,3607.8Zm-9,0a1.6,1.6,0,0,1,1.6-1.6,1.6,1.6,0,0,1,1.6,1.6,1.6,1.6,0,0,1-1.6,1.6A1.6,1.6,0,0,1-9829.6,3607.8Zm-2.8-4.9a6.6,6.6,0,0,1-6.6-6.6,6.514,6.514,0,0,1,6.3-6.5,12.021,12.021,0,0,1,11.9-10.8,11.822,11.822,0,0,1,10.2,5.7,8.31,8.31,0,0,1,2.2-.3,9.241,9.241,0,0,1,9.2,9.2,9.347,9.347,0,0,1-9.3,9.3Zm-4.3-6.5a4.331,4.331,0,0,0,4.3,4.3h23.9a7.02,7.02,0,0,0,7-7,6.765,6.765,0,0,0-6.8-6.9,6.172,6.172,0,0,0-2.3.4l-1,.3-.5-.9a9.647,9.647,0,0,0-8.6-5.3,9.711,9.711,0,0,0-9.7,9.7v1.3l-1.3-.1a1.94,1.94,0,0,0-.7-.1A4.331,4.331,0,0,0-9836.7,3596.4Z" transform="translate(9983.1 -3489.7)"/>
  </g>
  <rect id="Rectangle_6057" data-name="Rectangle 6057" class="cls-2" width="55" height="55" transform="translate(9984 -3507)"/>
</svg>
