<svg id="Symbol_167_2" data-name="Symbol 167 – 2" xmlns="http://www.w3.org/2000/svg" viewBox="10059 -3507 55 55">
  <defs>
    <style>
      .cls-1 {
        fill: #8d95a2;
      }

      .cls-2 {
        fill: none;
      }
    </style>
  </defs>
  <g id="Group_14574" data-name="Group 14574" transform="translate(9854.801 -3589)">
    <path id="Union_1447" data-name="Union 1447" class="cls-1" d="M-9832.1,3603.3a1.29,1.29,0,0,1-1.2-1.2,1.214,1.214,0,0,1,1.2-1.2h18.2a1.215,1.215,0,0,1,1.2,1.2,1.215,1.215,0,0,1-1.2,1.2Zm22.9-.1a1.291,1.291,0,0,1-1.2-1.2,1.213,1.213,0,0,1,1.2-1.2h11.4a7.128,7.128,0,0,0,7.1-7.1,7.128,7.128,0,0,0-7.1-7.1,5.543,5.543,0,0,0-1.8.2,1.35,1.35,0,0,1-1.4-.6,9.773,9.773,0,0,0-8.3-4.7,9.684,9.684,0,0,0-9.6,8.9,1.217,1.217,0,0,1-1.2,1.2,4.47,4.47,0,0,0-3.2,1.4,1.273,1.273,0,0,1-1.8,0,1.271,1.271,0,0,1,0-1.8,6.693,6.693,0,0,1,3.9-2,12.313,12.313,0,0,1,12-10.2,11.926,11.926,0,0,1,9.9,5.2,9.022,9.022,0,0,1,1.6-.1,9.372,9.372,0,0,1,9.5,9.5,9.6,9.6,0,0,1-9.6,9.6Zm-25.725-4.8a1.253,1.253,0,0,1-1.129-1.2,1.182,1.182,0,0,1,1.129-1.2h12.694a1.179,1.179,0,0,1,1.129,1.2,1.123,1.123,0,0,1-1.129,1.2Zm16.924-.1a1.29,1.29,0,0,1-1.2-1.2,1.215,1.215,0,0,1,1.2-1.2h4.3a1.29,1.29,0,0,1,1.2,1.2,1.215,1.215,0,0,1-1.2,1.2Zm-9.9-4.9h-9.9a1.291,1.291,0,0,1-1.2-1.2,1.217,1.217,0,0,1,1.2-1.2h9.9a1.214,1.214,0,0,1,1.2,1.2,1.185,1.185,0,0,1-1.068,1.211A.828.828,0,0,1-9827.9,3593.4Z" transform="translate(10045.2 -3488.2)"/>
  </g>
  <rect id="Rectangle_6058" data-name="Rectangle 6058" class="cls-2" width="55" height="55" transform="translate(10059 -3507)"/>
</svg>
