<svg xmlns="http://www.w3.org/2000/svg" viewBox="1936 1256 55 40">
  <defs>
    <style>
      .cls-1, .cls-2 {
        fill: #8f95a2;
        stroke: #8f95a2;
      }

      .cls-2 {
        stroke-width: 0.5px;
      }

      .cls-3 {
        fill: none;
      }
    </style>
  </defs>
  <g id="Group_60073" data-name="Group 60073" transform="translate(1649 935)">
    <g id="Group_60057" data-name="Group 60057" transform="translate(820.424 -7014.995)">
      <g id="Group_29247" data-name="Group 29247" transform="translate(-518.425 7344.057)">
        <path id="Path_32903" data-name="Path 32903" class="cls-1" d="M33.1,42.565a.747.747,0,0,1-.512-.233L30.406,39.82a.72.72,0,0,1,.047-.977.827.827,0,0,1,.465-.186.747.747,0,0,1,.512.233L33.1,40.8l4-5.118a.663.663,0,0,1,.558-.279.75.75,0,0,1,.419.14.671.671,0,0,1,.14.93l-4.513,5.769a.873.873,0,0,1-.6.326Z" transform="translate(-16.169 -18.93)"/>
        <path id="Path_32904" data-name="Path 32904" class="cls-2" d="M10.065,13.73a.465.465,0,0,1,0-.931H20.58a.465.465,0,0,1,0,.931Z" transform="translate(-5.134 -6.845)"/>
        <path id="Path_32905" data-name="Path 32905" class="cls-2" d="M18.145,28.427a8.156,8.156,0,0,1-6.607-3.35l-.14-.186H2.047A2.065,2.065,0,0,1,0,22.844V2.047A2.065,2.065,0,0,1,2.047,0H18.284a2.065,2.065,0,0,1,2.047,2.047V12.19l.326.093a8.265,8.265,0,0,1-2.512,16.144Zm0-15.632a7.28,7.28,0,0,0-7.165,5.769,6.369,6.369,0,0,0-.186,1.582,7.546,7.546,0,0,0,1.07,3.862,6.627,6.627,0,0,0,1.489,1.721,7.353,7.353,0,0,0,12.19-5.583,7.314,7.314,0,0,0-6.281-7.258c-.233-.047-.419-.047-.6-.093h-.512ZM2.047.7A1.35,1.35,0,0,0,.7,2.047V22.89a1.35,1.35,0,0,0,1.349,1.349h8.84l-.279-.651a7.849,7.849,0,0,1-.744-3.4A7.951,7.951,0,0,1,10,18.75l.093-.558H4.932a.465.465,0,0,1,0-.931h5.443l.14-.279A8.058,8.058,0,0,1,13.4,13.4l1.21-.837H4.932a.465.465,0,0,1,0-.93H15.446a.489.489,0,0,1,.419.233l.186.326.326-.093a8.013,8.013,0,0,1,1.814-.186,7.552,7.552,0,0,1,.977.047L19.68,12V2.047A1.35,1.35,0,0,0,18.331.7Z" transform="translate(0)"/>
      </g>
    </g>
    <rect id="Rectangle_8276" data-name="Rectangle 8276" class="cls-3" width="55" height="40" transform="translate(287 321)"/>
  </g>
</svg>
