<svg xmlns="http://www.w3.org/2000/svg" viewBox="6869 295 100 65">
  <defs>
    <style>
      .cls-1, .cls-4 {
        fill: none;
      }

      .cls-1, .cls-2, .cls-3 {
        stroke: #fff;
      }

      .cls-1, .cls-3 {
        stroke-width: 1.5px;
      }

      .cls-2, .cls-3 {
        fill: #fff;
      }

      .cls-2 {
        stroke-width: 0.5px;
      }

      .cls-5 {
        stroke: none;
      }
    </style>
  </defs>
  <g id="Group_60069" data-name="Group 60069" transform="translate(6048 -6)">
    <g id="Group_60047" data-name="Group 60047" transform="translate(821 -101.5)">
      <g id="Rectangle_6665" data-name="Rectangle 6665" class="cls-1" transform="translate(55.172 418.5) rotate(90)">
        <rect class="cls-5" width="14.676" height="9.172" rx="2"/>
        <rect class="cls-4" x="0.75" y="0.75" width="13.176" height="7.672" rx="1.25"/>
      </g>
      <path id="Path_32895" data-name="Path 32895" class="cls-2" d="M19.14,19.73a.551.551,0,0,1-.55-.472l-.865-4.991a1.2,1.2,0,0,0-.786-1.022l-4.363-1.729a.427.427,0,0,1-.314-.314l-.393-.865a.641.641,0,0,1,.079-.59,4.549,4.549,0,0,0,.786-1.572.627.627,0,0,1,.275-.354l.079-.039V7.742A5.567,5.567,0,0,0,13.4,5.777V5.7l-.039-.039a.61.61,0,0,1-.2-.55,4.511,4.511,0,0,0,0-1.454,2.077,2.077,0,0,1-.039-.472c-.2-1.376-1.847-2-3.3-2s-3.1.629-3.3,2v.511a8.978,8.978,0,0,0,0,1.454.578.578,0,0,1-.2.55l-.039.039v.079A6.63,6.63,0,0,0,6.6,7.782v.039l.079.039a.627.627,0,0,1,.275.354,4.549,4.549,0,0,0,.786,1.572.627.627,0,0,1,.079.59l-.354.865a.8.8,0,0,1-.314.314l-4.4,1.69a1.305,1.305,0,0,0-.825,1.061L1.1,19.258a.551.551,0,0,1-.55.472H.472A.586.586,0,0,1,0,19.258V19.1L.747,14.07a2.355,2.355,0,0,1,1.572-1.926l4.127-1.611.157-.354L6.563,10.1a5.913,5.913,0,0,1-.629-1.336L5.9,8.686H5.817a.528.528,0,0,1-.236-.275,7.884,7.884,0,0,1-.472-3.026.585.585,0,0,1,.157-.354l.039-.039V4.952a8.049,8.049,0,0,1,.039-1.376A1.913,1.913,0,0,0,5.384,3.1V3.026C5.62.943,7.821,0,9.865,0s4.205.943,4.48,3.026V3.5a8.161,8.161,0,0,1,.039,1.376v.039l.039.039a.706.706,0,0,1,.157.354,7.686,7.686,0,0,1-.472,2.987.416.416,0,0,1-.236.275h-.039l-.079.2a6.069,6.069,0,0,1-.668,1.336l-.039.039.118.354L17.293,12.1a2.421,2.421,0,0,1,1.533,1.926l.236,1.336v.039l.157.9.472,2.83a.4.4,0,0,1-.079.354.521.521,0,0,1-.393.236Z" transform="translate(30.969 434.219)"/>
      <path id="Path_32897" data-name="Path 32897" class="cls-3" d="M-431.449,7415.8h15.278" transform="translate(484.977 -6977.122)"/>
      <path id="Path_32898" data-name="Path 32898" class="cls-3" d="M-431.449,7415.8h11.221" transform="translate(484.977 -6971.62)"/>
      <path id="Path_32900" data-name="Path 32900" class="cls-3" d="M-431.449,7415.8h12.542" transform="translate(484.977 -6966.115)"/>
      <path id="Path_98307" data-name="Path 98307" class="cls-1" d="M45.53,426.755H27.737c-2.741,0-2.789,1.175-2.789,2.847v26.789c0,2.152,1.184,2.7,2.789,2.7H71.2c2.046,0,2.248-1.492,2.248-3.128V429.6c0-1.874-.963-2.9-2.709-2.847s-16.485,0-16.485,0" transform="translate(0.552 0.396)"/>
    </g>
    <rect id="Rectangle_8270" data-name="Rectangle 8270" class="cls-4" width="100" height="65" transform="translate(821 301)"/>
  </g>
</svg>
