<svg xmlns="http://www.w3.org/2000/svg" viewBox="6917 2659.747 131.031 271.253">
  <defs>
    <style>
      .cls-1, .cls-2, .cls-9 {
        fill: #fff;
      }

      .cls-12, .cls-2 {
        stroke: #ddd;
      }

      .cls-3 {
        fill: #e1f5f5;
      }

      .cls-11, .cls-12, .cls-16, .cls-4, .cls-6, .cls-7 {
        fill: none;
      }

      .cls-4 {
        stroke: #fff;
        stroke-width: 5px;
      }

      .cls-10, .cls-5 {
        fill: #3fc0c2;
      }

      .cls-11, .cls-5 {
        stroke: #3fc0c2;
      }

      .cls-5 {
        opacity: 0.35;
      }

      .cls-6 {
        stroke: #8e96a3;
      }

      .cls-6, .cls-7 {
        opacity: 0.5;
      }

      .cls-17, .cls-8 {
        fill: #8e96a3;
      }

      .cls-11 {
        stroke-width: 1.5px;
      }

      .cls-13 {
        fill: #ddd;
      }

      .cls-14 {
        fill: #f26649;
        opacity: 0.3;
      }

      .cls-15, .cls-17 {
        stroke: none;
      }
    </style>
  </defs>
  <g id="Group_60063" data-name="Group 60063" transform="translate(6032)">
    <g id="Group_59580" data-name="Group 59580" transform="translate(20.5 93)">
      <rect id="Rectangle_7900" data-name="Rectangle 7900" class="cls-1" width="130.653" height="271.253" rx="17" transform="translate(864.5 2566.747)"/>
      <g id="Rectangle_7902" data-name="Rectangle 7902" class="cls-2" transform="translate(871 2598.845)">
        <rect class="cls-15" width="116.639" height="206.152"/>
        <rect class="cls-16" x="0.5" y="0.5" width="115.639" height="205.152"/>
      </g>
      <rect id="Rectangle_7903" data-name="Rectangle 7903" class="cls-3" width="117" height="54" transform="translate(871 2616)"/>
      <path id="Path_97780" data-name="Path 97780" class="cls-4" d="M844,2621.219l29.881,59.926" transform="translate(46.69 -7.412)"/>
      <path id="Path_97783" data-name="Path 97783" class="cls-4" d="M844,2621.219l21.622,41.622" transform="translate(111.69 10.588)"/>
      <path id="Path_97784" data-name="Path 97784" class="cls-4" d="M844,2621.219l21.622,41.622" transform="translate(127.69 -10.412)"/>
      <path id="Path_97781" data-name="Path 97781" class="cls-4" d="M846.123,2625.064l49.9,92.222" transform="matrix(0.035, -0.999, 0.999, 0.035, -1784.578, 3412.111)"/>
      <path id="Path_97782" data-name="Path 97782" class="cls-4" d="M844,2621.219l35.755,66.591" transform="matrix(0.035, -0.999, 0.999, 0.035, -1729.578, 3423.111)"/>
      <path id="Path_97779" data-name="Path 97779" class="cls-5" d="M843.155,2637.932l5.38,10.845,20.522-10.845,4.083,7.277,11.469-6.172-9.933-16.883Z" transform="translate(67.91 5.153)"/>
      <path id="Path_97785" data-name="Path 97785" class="cls-4" d="M800,2627.307s25.944,7.987,30.994,42.8" transform="translate(68)"/>
      <g id="Rectangle_7904" data-name="Rectangle 7904" class="cls-6" transform="translate(871 2598.845)">
        <rect class="cls-15" width="116.639" height="206.152"/>
        <rect class="cls-16" x="0.5" y="0.5" width="115.639" height="205.152"/>
      </g>
    </g>
    <g id="Path_97888" data-name="Path 97888" class="cls-7" transform="translate(885 2659.747)">
      <path class="cls-15" d="M17,0h96.653a17,17,0,0,1,17,17V254.253a17,17,0,0,1-17,17H17a17,17,0,0,1-17-17V17A17,17,0,0,1,17,0Z"/>
      <path class="cls-17" d="M 113.6533508300781 269.2526245117188 C 117.6599960327148 269.2526245117188 121.4268188476562 267.6923522949219 124.2599639892578 264.8592529296875 C 127.0930709838867 262.0260925292969 128.6533508300781 258.25927734375 128.6533508300781 254.2526397705078 L 128.6533508300781 16.99999046325684 C 128.6533508300781 12.99334812164307 127.0930709838867 9.226526260375977 124.2599639892578 6.393383502960205 C 121.4268188476562 3.560276508331299 117.6599960327148 1.999990820884705 113.6533508300781 1.999990820884705 L 16.99999618530273 1.999990820884705 C 12.99335384368896 1.999990820884705 9.226532936096191 3.560276508331299 6.393389701843262 6.393383502960205 C 3.560282468795776 9.226526260375977 1.999996900558472 12.99334812164307 1.999996900558472 16.99999046325684 L 1.999996900558472 254.2526397705078 C 1.999996900558472 258.25927734375 3.560282468795776 262.0260925292969 6.393389701843262 264.8592529296875 C 9.226532936096191 267.6923522949219 12.99335384368896 269.2526245117188 16.99999618530273 269.2526245117188 L 113.6533508300781 269.2526245117188 M 113.6533508300781 271.2526245117188 L 16.99999618530273 271.2526245117188 C 7.611175537109375 271.2526245117188 -3.156389539071824e-06 263.6414794921875 -3.156389539071824e-06 254.2526397705078 L -3.156389539071824e-06 16.99999046325684 C -3.156389539071824e-06 7.611169338226318 7.611175537109375 -9.172712452709675e-06 16.99999618530273 -9.172712452709675e-06 L 113.6533508300781 -9.172712452709675e-06 C 123.0421752929688 -9.172712452709675e-06 130.6533508300781 7.611169338226318 130.6533508300781 16.99999046325684 L 130.6533508300781 254.2526397705078 C 130.6533508300781 263.6414794921875 123.0421752929688 271.2526245117188 113.6533508300781 271.2526245117188 Z"/>
    </g>
    <rect id="Rectangle_8002" data-name="Rectangle 8002" class="cls-8" width="21.248" height="2.713" rx="1.356" transform="translate(939.203 2675.57)"/>
    <circle id="Ellipse_2600" data-name="Ellipse 2600" class="cls-8" cx="2.26" cy="2.26" r="2.26" transform="translate(926.544 2674.666)"/>
    <ellipse id="Ellipse_2601" data-name="Ellipse 2601" class="cls-8" cx="1.582" cy="1.582" rx="1.582" ry="1.582" transform="translate(948.244 2666.529)"/>
    <g id="Path_97892" data-name="Path 97892" class="cls-9" transform="translate(939.203 2902.066)">
      <path class="cls-15" d="M 10.39801788330078 19.7960376739502 C 5.215928077697754 19.7960376739502 0.9999978542327881 15.58010673522949 0.9999978542327881 10.39801692962646 C 0.9999978542327881 5.215927124023438 5.215928077697754 0.9999969005584717 10.39801788330078 0.9999969005584717 C 15.58010768890381 0.9999969005584717 19.7960376739502 5.215927124023438 19.7960376739502 10.39801692962646 C 19.7960376739502 15.58010673522949 15.58010768890381 19.7960376739502 10.39801788330078 19.7960376739502 Z"/>
      <path class="cls-17" d="M 10.39801788330078 18.7960376739502 C 15.0286979675293 18.7960376739502 18.7960376739502 15.02869701385498 18.7960376739502 10.39801692962646 C 18.7960376739502 5.767336845397949 15.0286979675293 1.999996900558472 10.39801788330078 1.999996900558472 C 5.767337799072266 1.999996900558472 1.999997854232788 5.767336845397949 1.999997854232788 10.39801692962646 C 1.999997854232788 15.02869701385498 5.767337799072266 18.7960376739502 10.39801788330078 18.7960376739502 M 10.39801788330078 20.7960376739502 C 4.65534782409668 20.7960376739502 -2.116699306498049e-06 16.14068603515625 -2.116699306498049e-06 10.39801692962646 C -2.116699306498049e-06 4.655346870422363 4.65534782409668 -3.070373622904299e-06 10.39801788330078 -3.070373622904299e-06 C 16.14068794250488 -3.070373622904299e-06 20.7960376739502 4.655346870422363 20.7960376739502 10.39801692962646 C 20.7960376739502 16.14068603515625 16.14068794250488 20.7960376739502 10.39801788330078 20.7960376739502 Z"/>
    </g>
    <g id="Group_59581" data-name="Group 59581" transform="translate(901 2801.537)">
      <g id="Group_8879" data-name="Group 8879" transform="translate(0 0)">
        <path id="Path_22571" data-name="Path 22571" class="cls-10" d="M0,8.4v9.812a1.118,1.118,0,0,0,.994,1.193H13.259a1.118,1.118,0,0,0,.994-1.193V8.4ZM3.447,18.411H.862V15.825H3.447Zm0-3.249H.862V12.577H3.447Zm0-3.249H.862V9.328H3.447Zm3.249,6.5H4.11V15.825H6.7v2.586Zm0-3.249H4.11V12.577H6.7v2.586Zm0-3.249H4.11V9.328H6.7v2.586Zm3.315,6.5H7.425V15.825h2.586Zm0-3.249H7.425V12.577h2.586Zm0-3.249H7.425V9.328h2.586Zm3.249,6.5H10.607V15.825h2.652Zm0-3.249H10.607V12.577h2.652Zm0-3.249H10.607V9.328h2.652Z" transform="translate(0 -2.831)"/>
        <path id="Path_22572" data-name="Path 22572" class="cls-10" d="M13.259,2.122H10.806V.6a.541.541,0,0,0-.53-.6.584.584,0,0,0-.53.6V2.122H4.309V.6a.541.541,0,0,0-.53-.6.536.536,0,0,0-.464.6V2.122H.994A1.118,1.118,0,0,0,0,3.315V5.039H14.188V3.315A1.071,1.071,0,0,0,13.259,2.122ZM3.779,4.376a.948.948,0,0,1-.928-.928,1.011,1.011,0,0,1,.464-.8v.464a.541.541,0,0,0,.53.6.584.584,0,0,0,.53-.6V2.652a.868.868,0,0,1,.4.8A1.008,1.008,0,0,1,3.779,4.376Zm6.5,0a.906.906,0,0,1-.928-.928,1.156,1.156,0,0,1,.4-.8v.464a.541.541,0,0,0,.53.6.584.584,0,0,0,.53-.6V2.652a.868.868,0,0,1,.4.8A.906.906,0,0,1,10.276,4.376Z" transform="translate(0 0)"/>
      </g>
    </g>
    <g id="Group_59582" data-name="Group 59582" transform="translate(902 2771.125)">
      <g id="Group_29164" data-name="Group 29164" transform="translate(0 0)">
        <g id="Group_3103" data-name="Group 3103" transform="translate(0)">
          <g id="Group_3102" data-name="Group 3102">
            <path id="Path_4076" data-name="Path 4076" class="cls-11" d="M5.311,0A5.314,5.314,0,0,0,0,5.311c0,2.706,3.933,8.217,5.311,10.322,1.478-2.13,5.311-7.265,5.311-10.3A5.288,5.288,0,0,0,5.311,0Z"/>
          </g>
        </g>
      </g>
      <g id="Ellipse_2333" data-name="Ellipse 2333" class="cls-11" transform="translate(2.764 2.591)">
        <circle class="cls-15" cx="2.574" cy="2.574" r="2.574"/>
        <circle class="cls-16" cx="2.574" cy="2.574" r="1.824"/>
      </g>
    </g>
    <path id="Path_97895" data-name="Path 97895" class="cls-12" d="M804.247,2702.374H910.886" transform="translate(91 93)"/>
    <path id="Path_97896" data-name="Path 97896" class="cls-12" d="M804.247,2702.374H910.886" transform="translate(91 126)"/>
    <rect id="Rectangle_8004" data-name="Rectangle 8004" class="cls-13" width="46" height="4" transform="translate(924 2772)"/>
    <rect id="Rectangle_8005" data-name="Rectangle 8005" class="cls-14" width="12" height="4" transform="translate(988 2772)"/>
    <rect id="Rectangle_8006" data-name="Rectangle 8006" class="cls-13" width="29" height="4" transform="translate(924 2781)"/>
    <rect id="Rectangle_8007" data-name="Rectangle 8007" class="cls-13" width="38" height="4" transform="translate(937 2849)"/>
    <rect id="Rectangle_8008" data-name="Rectangle 8008" class="cls-13" width="29" height="4" transform="translate(935 2699)"/>
    <rect id="Rectangle_8009" data-name="Rectangle 8009" class="cls-13" width="60" height="4" transform="translate(924 2810)"/>
    <g id="Rectangle_8010" data-name="Rectangle 8010" class="cls-2" transform="translate(901 2838)">
      <rect class="cls-15" width="29" height="29"/>
      <rect class="cls-16" x="0.5" y="0.5" width="28" height="28"/>
    </g>
    <g id="Group_59583" data-name="Group 59583" transform="translate(1001.54 2869.357)">
      <rect id="Rectangle_6651" data-name="Rectangle 6651" class="cls-10" width="106" height="15.667" rx="2" transform="translate(-105.54 6.643)"/>
    </g>
  </g>
</svg>
