<svg xmlns="http://www.w3.org/2000/svg" viewBox="6907.403 1010.472 202.082 182.615">
  <defs>
    <style>
      .cls-1 {
        opacity: 0.5;
      }

      .cls-2 {
        fill: #fff;
      }

      .cls-2, .cls-4 {
        stroke: #1d2d47;
        stroke-linecap: round;
        stroke-linejoin: round;
        stroke-miterlimit: 10;
        stroke-width: 1.5px;
      }

      .cls-3 {
        fill: #1d2d47;
      }

      .cls-4 {
        fill: none;
      }
    </style>
  </defs>
  <g id="Group_32645" data-name="Group 32645" class="cls-1" transform="translate(6908.158 1011.222)">
    <g id="Group_32542" data-name="Group 32542" transform="translate(0 55.585)">
      <g id="Group_32529" data-name="Group 32529" transform="translate(151.38 37.037)">
        <g id="Group_32528" data-name="Group 32528">
          <path id="Path_79672" data-name="Path 79672" class="cls-2" d="M90.4,61.5v7.1c.507,2.2,2.365,4.393,5.069,6.082,6.589,3.886,16.557,3.717,22.3-.507,2.027-1.521,3.379-3.21,3.717-5.069V62.176" transform="translate(-90.368 -51.569)"/>
          <path id="Path_79673" data-name="Path 79673" class="cls-2" d="M117.614,72.649c-5.744,4.055-15.543,4.224-21.964.507C89.23,69.27,88.554,62.85,94.3,58.8s15.543-4.224,21.964-.507C122.683,62.174,123.358,68.594,117.614,72.649Z" transform="translate(-90.381 -55.622)"/>
        </g>
        <path id="Path_79674" data-name="Path 79674" class="cls-3" d="M105.706,68.268c-1.69.676-3.548.676-4.562-.169l-4.731-3.886c-.845-.676-.845-2.027.169-3.21L95.4,60.158,97.09,58.3l1.352,1.014c1.69-1.014,3.548-1.014,4.393-.338l1.352,1.014-2.027,1.858-1.352-1.014a1.881,1.881,0,0,0-2.027.338c-.676.507-.845,1.352-.507,1.69l5.069,4.055a2.1,2.1,0,0,0,2.2-.169c.845-.507,1.014-1.352.507-1.69l-1.352-1.014,2.365-1.69,1.352,1.014c1.014.845.845,2.365-.507,3.548l1.352,1.014-2.365,1.69Z" transform="translate(-86.921 -53.775)"/>
      </g>
      <g id="Group_32531" data-name="Group 32531" transform="translate(169.458 55.284)">
        <g id="Group_32530" data-name="Group 32530">
          <path id="Path_79675" data-name="Path 79675" class="cls-2" d="M101.1,72.3v7.1c.507,2.2,2.365,4.393,5.069,6.082,6.589,3.886,16.557,3.717,22.3-.507,2.027-1.521,3.379-3.21,3.717-5.069V72.976" transform="translate(-101.068 -62.369)"/>
          <path id="Path_79676" data-name="Path 79676" class="cls-2" d="M128.314,83.449c-5.744,4.055-15.543,4.224-21.964.507C99.93,80.07,99.254,73.65,105,69.6s15.543-4.224,21.964-.507C133.383,72.974,133.889,79.225,128.314,83.449Z" transform="translate(-101.081 -66.422)"/>
        </g>
        <path id="Path_79677" data-name="Path 79677" class="cls-3" d="M116.475,79.137c-1.69.676-3.548.676-4.562-.169l-4.9-4.055c-.845-.676-.845-2.027.169-3.21L106,70.858,107.69,69l1.352,1.014c1.69-1.014,3.548-1.014,4.393-.338l1.352,1.014-2.027,1.858-1.352-1.014a1.881,1.881,0,0,0-2.027.338c-.676.507-.845,1.352-.507,1.69l5.069,4.055a2.1,2.1,0,0,0,2.2-.169c.845-.507,1.014-1.352.507-1.69l-1.352-1.014,2.365-1.69,1.352,1.014c1.014.845.845,2.365-.507,3.548l1.352,1.014-2.365,1.69Z" transform="translate(-97.69 -64.644)"/>
      </g>
      <g id="Group_32535" data-name="Group 32535" transform="translate(20.475)">
        <g id="Group_32534" data-name="Group 32534">
          <g id="Group_32533" data-name="Group 32533">
            <path id="Path_79678" data-name="Path 79678" class="cls-2" d="M55.307,110.066l82.11-43.42L96.024,33.7,12.9,76.276Z" transform="translate(-12.9 -33.7)"/>
            <g id="Group_32532" data-name="Group 32532" transform="translate(8.448 5.069)">
              <path id="Path_79679" data-name="Path 79679" class="cls-2" d="M51.352,102.084l74-38.014L91.732,36.7,17.9,74.883Z" transform="translate(-17.9 -36.7)"/>
              <path id="Path_79680" data-name="Path 79680" class="cls-4" d="M55.8,40.1a16.549,16.549,0,0,0,7.941,2.872A17.317,17.317,0,0,0,72.7,41.621" transform="translate(8.232 -34.356)"/>
              <path id="Path_79681" data-name="Path 79681" class="cls-4" d="M77.952,49.2a8,8,0,0,0-4.393,5.069c-.507,2.027.338,4.055,2.2,5.913" transform="translate(20.378 -28.081)"/>
              <path id="Path_79682" data-name="Path 79682" class="cls-4" d="M23.1,67.651c2.365-1.352,3.886-3.21,4.055-5.406a6.673,6.673,0,0,0-2.7-5.744" transform="translate(-14.315 -23.048)"/>
              <path id="Path_79683" data-name="Path 79683" class="cls-4" d="M50.064,73.116a16.072,16.072,0,0,0-8.279-2.7A16.749,16.749,0,0,0,33,72.1" transform="translate(-7.488 -13.476)"/>
            </g>
            <path id="Path_79684" data-name="Path 79684" class="cls-4" d="M42.865,68.7c6.589,5.237,18.416,6.251,26.525,2.027S78.514,58.905,71.925,53.5c-6.589-5.237-18.416-6.251-26.525-2.027S36.276,63.3,42.865,68.7Z" transform="translate(4.779 -23.257)"/>
          </g>
        </g>
        <path id="Path_79685" data-name="Path 79685" class="cls-3" d="M57.378,64.709a6.627,6.627,0,0,1-3.041.676A3.8,3.8,0,0,1,51.8,64.54l-2.027-1.858L51.8,61.161,53.83,63.02a1.811,1.811,0,0,0,1.014.338,3.716,3.716,0,0,0,2.2-.676c.676-.507,1.183-1.014,1.183-1.521a.675.675,0,0,0-.338-.676L56.7,59.472a1.822,1.822,0,0,0-1.183-.338l-7.6.338h-.169a4.09,4.09,0,0,1-2.2-.676l-.676-.676A2.142,2.142,0,0,1,44.2,56.6a3.336,3.336,0,0,1,1.014-2.365l-.845-.845,1.858-1.69,1.014.845a7.579,7.579,0,0,1,3.21-.845,3.406,3.406,0,0,1,1.858.507L54,53.9l-2.027,1.69-1.69-1.352c-.169-.169-.338-.169-.676-.169a4.8,4.8,0,0,0-2.027.676c-.507.507-1.014,1.014-1.014,1.352a.621.621,0,0,0,.169.507l.676.676a1.266,1.266,0,0,0,.845.169l7.772-.507h.338a5.187,5.187,0,0,1,2.534.676l1.352,1.014a2.713,2.713,0,0,1,.845,1.858,4.138,4.138,0,0,1-1.352,2.7L60.926,64.2l-2.2,1.69Z" transform="translate(8.682 -21.289)"/>
      </g>
      <g id="Group_32539" data-name="Group 32539" transform="translate(32.47 49.165)">
        <g id="Group_32538" data-name="Group 32538">
          <g id="Group_32537" data-name="Group 32537">
            <path id="Path_79686" data-name="Path 79686" class="cls-2" d="M62.407,139.166l81.941-43.589L103.124,62.8,20,105.376Z" transform="translate(-20 -62.8)"/>
            <g id="Group_32536" data-name="Group 32536" transform="translate(8.279 5.069)">
              <path id="Path_79687" data-name="Path 79687" class="cls-2" d="M58.521,131.184,132.353,93,98.9,65.8l-74,38.014Z" transform="translate(-24.9 -65.8)"/>
              <path id="Path_79688" data-name="Path 79688" class="cls-4" d="M62.9,69.2a16.549,16.549,0,0,0,7.941,2.872A17.317,17.317,0,0,0,79.8,70.721" transform="translate(1.301 -63.456)"/>
              <path id="Path_79689" data-name="Path 79689" class="cls-4" d="M84.952,78.3a8,8,0,0,0-4.393,5.069c-.507,2.027.338,4.055,2.2,5.913" transform="translate(13.378 -57.181)"/>
              <path id="Path_79690" data-name="Path 79690" class="cls-4" d="M30.1,96.751c2.365-1.352,3.886-3.21,4.055-5.406a6.673,6.673,0,0,0-2.7-5.744" transform="translate(-21.315 -52.148)"/>
              <path id="Path_79691" data-name="Path 79691" class="cls-4" d="M57.164,102.216a16.072,16.072,0,0,0-8.279-2.7A16.748,16.748,0,0,0,40.1,101.2" transform="translate(-14.419 -42.576)"/>
            </g>
            <path id="Path_79692" data-name="Path 79692" class="cls-4" d="M49.843,97.7c6.589,5.237,18.416,6.251,26.525,2.027S85.491,87.905,78.9,82.5c-6.589-5.237-18.416-6.251-26.525-2.027C44.436,84.7,43.254,92.467,49.843,97.7Z" transform="translate(-2.368 -52.426)"/>
          </g>
        </g>
        <path id="Path_79693" data-name="Path 79693" class="cls-3" d="M64.378,93.809a6.627,6.627,0,0,1-3.041.676A3.8,3.8,0,0,1,58.8,93.64l-2.027-1.858L58.8,90.261,60.83,92.12a1.811,1.811,0,0,0,1.014.338,3.716,3.716,0,0,0,2.2-.676c.676-.507,1.183-1.014,1.183-1.521a.675.675,0,0,0-.338-.676L63.7,88.572a1.822,1.822,0,0,0-1.183-.338l-7.6.338h-.169a4.09,4.09,0,0,1-2.2-.676l-.676-.676A2.142,2.142,0,0,1,51.2,85.7a3.336,3.336,0,0,1,1.014-2.365l-.845-.845,1.858-1.69,1.014.845a7.578,7.578,0,0,1,3.21-.845,3.406,3.406,0,0,1,1.858.507l1.858,1.521-2.027,1.69-1.69-1.352C57.282,83,57.113,83,56.775,83a4.8,4.8,0,0,0-2.027.676c-.507.507-1.014,1.014-1.014,1.352a.621.621,0,0,0,.169.507l.676.676a1.266,1.266,0,0,0,.845.169l7.772-.507h.338a5.188,5.188,0,0,1,2.534.676l1.352,1.014a2.713,2.713,0,0,1,.845,1.858,4.138,4.138,0,0,1-1.352,2.7L68.1,93.133l-2.2,1.69Z" transform="translate(1.513 -50.389)"/>
      </g>
      <g id="Group_32541" data-name="Group 32541" transform="translate(0 50.722)">
        <g id="Group_32540" data-name="Group 32540">
          <path id="Path_79694" data-name="Path 79694" class="cls-2" d="M.8,69.6v7.1c.507,2.2,2.365,4.393,5.069,6.082,6.589,3.886,16.557,3.717,22.3-.507,2.027-1.521,3.379-3.21,3.717-5.069V70.276" transform="translate(-0.768 -59.669)"/>
          <path id="Path_79695" data-name="Path 79695" class="cls-2" d="M28.014,80.749C22.27,84.8,12.471,84.973,6.05,81.256-.37,77.37-1.046,70.95,4.7,66.9s15.543-4.224,21.964-.507C33.083,70.274,33.758,76.694,28.014,80.749Z" transform="translate(-0.781 -63.722)"/>
        </g>
        <path id="Path_79696" data-name="Path 79696" class="cls-3" d="M16.175,76.537c-1.69.676-3.548.676-4.562-.169l-4.9-4.055c-.845-.676-.845-2.027.169-3.21L5.7,68.258,7.39,66.4,8.91,67.414C10.6,66.4,12.458,66.4,13.3,67.076l1.352,1.014-2.027,1.858-1.352-1.183a1.881,1.881,0,0,0-2.027.338c-.676.507-.845,1.352-.507,1.69l5.069,4.055a2.1,2.1,0,0,0,2.2-.169c.845-.507,1.014-1.352.507-1.69l-1.352-1.014,2.365-1.69L18.878,71.3c1.014.845.845,2.365-.507,3.548l1.352,1.014-2.365,1.69Z" transform="translate(2.61 -61.875)"/>
      </g>
    </g>
    <g id="Group_32544" data-name="Group 32544" transform="translate(151.38 87.046)">
      <g id="Group_32543" data-name="Group 32543">
        <path id="Path_79697" data-name="Path 79697" class="cls-2" d="M90.4,58.2v7.1c.507,2.2,2.365,4.393,5.069,6.082,6.589,3.886,16.557,3.717,22.3-.507,2.027-1.521,3.379-3.21,3.717-5.069V58.876" transform="translate(-90.368 -48.269)"/>
        <path id="Path_79698" data-name="Path 79698" class="cls-2" d="M117.614,69.349c-5.744,4.055-15.543,4.224-21.964.507C89.23,65.97,88.554,59.55,94.3,55.5s15.543-4.224,21.964-.507S123.358,65.125,117.614,69.349Z" transform="translate(-90.381 -52.322)"/>
      </g>
      <path id="Path_79699" data-name="Path 79699" class="cls-3" d="M105.637,65.037c-1.69.676-3.548.676-4.562-.169l-4.731-3.886c-.845-.676-.845-2.027.169-3.21L95.5,56.758,97.19,54.9l1.352,1.014c1.69-1.014,3.548-1.014,4.393-.338l1.352,1.014-2.2,1.858-1.352-1.014a1.881,1.881,0,0,0-2.027.338c-.676.507-.845,1.352-.507,1.69l5.069,4.055a2.1,2.1,0,0,0,2.2-.169c.845-.507,1.014-1.352.507-1.69l-1.352-1.014,2.365-1.69,1.352,1.014c1.014.845.845,2.365-.507,3.548l1.352,1.014-2.365,1.69Z" transform="translate(-86.852 -50.544)"/>
    </g>
    <g id="Group_32546" data-name="Group 32546" transform="translate(151.38 81.302)">
      <g id="Group_32545" data-name="Group 32545">
        <path id="Path_79700" data-name="Path 79700" class="cls-2" d="M90.4,54.8v7.1c.507,2.2,2.365,4.393,5.069,6.082,6.589,3.886,16.557,3.717,22.3-.507,2.027-1.521,3.379-3.21,3.717-5.069V55.476" transform="translate(-90.368 -44.869)"/>
        <path id="Path_79701" data-name="Path 79701" class="cls-2" d="M117.614,65.949c-5.744,4.055-15.543,4.224-21.964.507C89.23,62.57,88.554,56.15,94.3,52.1s15.543-4.224,21.964-.507C122.683,55.474,123.358,61.894,117.614,65.949Z" transform="translate(-90.381 -48.922)"/>
      </g>
      <path id="Path_79702" data-name="Path 79702" class="cls-3" d="M105.706,61.737c-1.69.676-3.548.676-4.562-.169l-4.731-4.055c-.845-.676-.845-2.027.169-3.21L95.4,53.458,97.09,51.6l1.352,1.014c1.69-1.014,3.548-1.014,4.393-.338l1.352,1.014-2.027,1.858-1.352-1.014a1.881,1.881,0,0,0-2.027.338c-.676.507-.845,1.352-.507,1.69l5.069,4.055a2.1,2.1,0,0,0,2.2-.169c.845-.507,1.014-1.352.507-1.69l-1.352-1.014,2.365-1.69,1.352,1.014c1.014.845.845,2.365-.507,3.548l1.352,1.014-2.365,1.69Z" transform="translate(-86.921 -47.075)"/>
    </g>
    <g id="Group_32548" data-name="Group 32548" transform="translate(151.38 75.727)">
      <g id="Group_32547" data-name="Group 32547">
        <path id="Path_79703" data-name="Path 79703" class="cls-2" d="M90.4,51.5v7.1c.507,2.2,2.365,4.393,5.069,6.082,6.589,3.886,16.557,3.717,22.3-.507,2.027-1.521,3.379-3.21,3.717-5.069V52.176" transform="translate(-90.368 -41.569)"/>
        <path id="Path_79704" data-name="Path 79704" class="cls-2" d="M117.614,62.649c-5.744,4.055-15.543,4.224-21.964.507S88.554,52.85,94.3,48.8s15.543-4.224,21.964-.507C122.683,52.174,123.358,58.594,117.614,62.649Z" transform="translate(-90.381 -45.622)"/>
      </g>
      <path id="Path_79705" data-name="Path 79705" class="cls-3" d="M105.706,58.437c-1.69.676-3.548.676-4.562-.169l-4.731-4.055c-.845-.676-.845-2.027.169-3.21L95.4,50.158,97.09,48.3l1.352,1.014c1.69-1.014,3.548-1.014,4.393-.338l1.352,1.014-2.027,1.858-1.352-1.014a1.881,1.881,0,0,0-2.027.338c-.676.507-.845,1.352-.507,1.69l5.069,4.055a2.1,2.1,0,0,0,2.2-.169c.845-.507,1.014-1.352.507-1.69l-1.352-1.014,2.365-1.69,1.352,1.014c1.014.845.845,2.365-.507,3.548l1.352,1.014-2.365,1.69Z" transform="translate(-86.921 -43.775)"/>
    </g>
    <g id="Group_32550" data-name="Group 32550" transform="translate(151.38 70.151)">
      <g id="Group_32549" data-name="Group 32549">
        <path id="Path_79706" data-name="Path 79706" class="cls-2" d="M90.4,48.2v7.1c.507,2.2,2.365,4.393,5.069,6.082,6.589,3.886,16.557,3.717,22.3-.507,2.027-1.521,3.379-3.21,3.717-5.069V48.876" transform="translate(-90.368 -38.269)"/>
        <path id="Path_79707" data-name="Path 79707" class="cls-2" d="M117.614,59.349c-5.744,4.055-15.543,4.224-21.964.507C89.23,55.97,88.554,49.55,94.3,45.5s15.543-4.224,21.964-.507C122.683,48.874,123.358,55.125,117.614,59.349Z" transform="translate(-90.381 -42.322)"/>
      </g>
      <path id="Path_79708" data-name="Path 79708" class="cls-3" d="M105.637,55.037c-1.69.676-3.548.676-4.562-.169l-4.731-3.886c-.845-.676-.845-2.027.169-3.21L95.5,46.758,97.19,44.9l1.352,1.014c1.69-1.014,3.548-1.014,4.393-.338l1.352,1.014-2.2,1.858-1.352-1.014a1.881,1.881,0,0,0-2.027.338c-.676.507-.845,1.352-.507,1.69l5.069,4.055a2.1,2.1,0,0,0,2.2-.169c.845-.507,1.014-1.352.507-1.69l-1.352-1.014,2.365-1.69,1.352,1.014c1.014.845.845,2.365-.507,3.548l1.352,1.014-2.365,1.69Z" transform="translate(-86.852 -40.544)"/>
    </g>
    <g id="Group_32552" data-name="Group 32552" transform="translate(151.38 64.407)">
      <g id="Group_32551" data-name="Group 32551">
        <path id="Path_79709" data-name="Path 79709" class="cls-2" d="M90.4,44.9V52c.507,2.2,2.365,4.393,5.069,6.082,6.589,3.886,16.557,3.717,22.3-.507,2.027-1.521,3.379-3.21,3.717-5.069V45.576" transform="translate(-90.368 -34.8)"/>
        <path id="Path_79710" data-name="Path 79710" class="cls-2" d="M117.614,55.949c-5.744,4.055-15.543,4.224-21.964.507S88.554,46.15,94.3,42.1s15.543-4.224,21.964-.507C122.683,45.474,123.358,51.894,117.614,55.949Z" transform="translate(-90.381 -38.922)"/>
      </g>
      <path id="Path_79711" data-name="Path 79711" class="cls-3" d="M105.706,51.737c-1.69.676-3.548.676-4.562-.169l-4.731-4.055c-.845-.676-.845-2.027.169-3.21L95.4,43.458,97.09,41.6l1.352,1.014c1.69-1.014,3.548-1.014,4.393-.338l1.352,1.014-2.027,1.858-1.352-1.014a1.881,1.881,0,0,0-2.027.338c-.676.507-.845,1.352-.507,1.69l5.069,4.055a2.1,2.1,0,0,0,2.2-.169c.845-.507,1.014-1.352.507-1.69l-1.352-1.014,2.365-1.69,1.352,1.014c1.014.845.845,2.365-.507,3.548l1.352,1.014-2.365,1.69Z" transform="translate(-86.921 -37.075)"/>
    </g>
    <g id="Group_32554" data-name="Group 32554" transform="translate(151.38 58.832)">
      <g id="Group_32553" data-name="Group 32553">
        <path id="Path_79712" data-name="Path 79712" class="cls-2" d="M90.4,41.5v7.1c.507,2.2,2.365,4.393,5.069,6.082,6.589,3.886,16.557,3.717,22.3-.507,2.027-1.521,3.379-3.21,3.717-5.069V42.176" transform="translate(-90.368 -31.569)"/>
        <path id="Path_79713" data-name="Path 79713" class="cls-2" d="M117.614,52.649c-5.744,4.055-15.543,4.224-21.964.507C89.23,49.27,88.554,42.85,94.3,38.8s15.543-4.224,21.964-.507C122.683,42.174,123.358,48.594,117.614,52.649Z" transform="translate(-90.381 -35.622)"/>
      </g>
      <path id="Path_79714" data-name="Path 79714" class="cls-3" d="M105.706,48.437c-1.69.676-3.548.676-4.562-.169l-4.731-4.055c-.845-.676-.845-2.027.169-3.21L95.4,40.158,97.09,38.3l1.352,1.014c1.69-1.014,3.548-1.014,4.393-.338l1.352,1.014-2.027,1.858-1.352-1.014a1.881,1.881,0,0,0-2.027.338c-.676.507-.845,1.352-.507,1.69l5.069,4.055a2.1,2.1,0,0,0,2.2-.169c.845-.507,1.014-1.352.507-1.69l-1.352-1.014,2.365-1.69,1.352,1.014c1.014.845.845,2.365-.507,3.548l1.352,1.014-2.365,1.69Z" transform="translate(-86.921 -33.775)"/>
    </g>
    <g id="Group_32556" data-name="Group 32556" transform="translate(151.38 53.256)">
      <g id="Group_32555" data-name="Group 32555">
        <path id="Path_79715" data-name="Path 79715" class="cls-2" d="M90.4,38.2v7.1c.507,2.2,2.365,4.393,5.069,6.082,6.589,3.886,16.557,3.717,22.3-.507,2.027-1.521,3.379-3.21,3.717-5.069V38.876" transform="translate(-90.368 -28.269)"/>
        <path id="Path_79716" data-name="Path 79716" class="cls-2" d="M117.614,49.349c-5.744,4.055-15.543,4.224-21.964.507S88.554,39.55,94.3,35.5s15.543-4.224,21.964-.507C122.683,38.874,123.358,45.294,117.614,49.349Z" transform="translate(-90.381 -32.322)"/>
      </g>
      <path id="Path_79717" data-name="Path 79717" class="cls-3" d="M105.637,45.037c-1.69.676-3.548.676-4.562-.169l-4.731-3.886c-.845-.676-.845-2.027.169-3.21L95.5,36.758,97.19,34.9l1.352,1.014c1.69-1.014,3.548-1.014,4.393-.338l1.352,1.014-2.2,1.858-1.352-1.014a1.881,1.881,0,0,0-2.027.338c-.676.507-.845,1.352-.507,1.69l5.069,4.055a2.1,2.1,0,0,0,2.2-.169c.845-.507,1.014-1.352.507-1.69l-1.352-1.014,2.365-1.69,1.352,1.014c1.014.845.845,2.365-.507,3.548l1.352,1.014-2.365,1.69Z" transform="translate(-86.852 -30.544)"/>
    </g>
    <g id="Group_32558" data-name="Group 32558" transform="translate(151.38 47.512)">
      <g id="Group_32557" data-name="Group 32557">
        <path id="Path_79718" data-name="Path 79718" class="cls-2" d="M90.4,34.9V42c.507,2.2,2.365,4.393,5.069,6.082,6.589,3.886,16.557,3.717,22.3-.507,2.027-1.521,3.379-3.21,3.717-5.069V35.576" transform="translate(-90.368 -24.8)"/>
        <path id="Path_79719" data-name="Path 79719" class="cls-2" d="M117.614,45.949c-5.744,4.055-15.543,4.224-21.964.507C89.23,42.57,88.554,36.15,94.3,32.1s15.543-4.224,21.964-.507C122.683,35.474,123.358,41.894,117.614,45.949Z" transform="translate(-90.381 -28.922)"/>
      </g>
      <path id="Path_79720" data-name="Path 79720" class="cls-3" d="M105.706,41.737c-1.69.676-3.548.676-4.562-.169l-4.731-4.055c-.845-.676-.845-2.027.169-3.21L95.4,33.458,97.09,31.6l1.352,1.014c1.69-1.014,3.548-1.014,4.393-.338l1.352,1.014-2.027,1.858-1.352-1.014a1.881,1.881,0,0,0-2.027.338c-.676.507-.845,1.352-.507,1.69l5.069,4.055a2.1,2.1,0,0,0,2.2-.169c.845-.507,1.014-1.352.507-1.69l-1.352-1.014,2.365-1.69,1.352,1.014c1.014.845.845,2.365-.507,3.548l1.352,1.014-2.365,1.69Z" transform="translate(-86.921 -27.075)"/>
    </g>
    <g id="Group_32560" data-name="Group 32560" transform="translate(151.38 41.937)">
      <g id="Group_32559" data-name="Group 32559">
        <path id="Path_79721" data-name="Path 79721" class="cls-2" d="M90.4,31.5v7.1c.507,2.2,2.365,4.393,5.069,6.082,6.589,3.886,16.557,3.717,22.3-.507,2.027-1.521,3.379-3.21,3.717-5.069V32.176" transform="translate(-90.368 -21.569)"/>
        <path id="Path_79722" data-name="Path 79722" class="cls-2" d="M117.614,42.649c-5.744,4.055-15.543,4.224-21.964.507S88.554,32.85,94.3,28.8s15.543-4.224,21.964-.507C122.683,32.174,123.358,38.594,117.614,42.649Z" transform="translate(-90.381 -25.622)"/>
      </g>
      <path id="Path_79723" data-name="Path 79723" class="cls-3" d="M105.706,38.437c-1.69.676-3.548.676-4.562-.169l-4.731-4.055c-.845-.676-.845-2.027.169-3.21L95.4,30.158,97.09,28.3l1.352,1.014c1.69-1.014,3.548-1.014,4.393-.338l1.352,1.014-2.027,1.858-1.352-1.014a1.881,1.881,0,0,0-2.027.338c-.676.507-.845,1.352-.507,1.69l5.069,4.055a2.1,2.1,0,0,0,2.2-.169c.845-.507,1.014-1.352.507-1.69l-1.352-1.014,2.365-1.69,1.352,1.014c1.014.845.845,2.365-.507,3.548l1.352,1.014-2.365,1.69Z" transform="translate(-86.921 -23.775)"/>
    </g>
    <g id="Group_32561" data-name="Group 32561" transform="translate(151.38 36.361)">
      <path id="Path_79724" data-name="Path 79724" class="cls-2" d="M90.4,28.2v7.1c.507,2.2,2.365,4.393,5.069,6.082,6.589,3.886,16.557,3.717,22.3-.507,2.027-1.521,3.379-3.21,3.717-5.069V28.876" transform="translate(-90.368 -18.269)"/>
      <path id="Path_79725" data-name="Path 79725" class="cls-2" d="M117.614,39.349c-5.744,4.055-15.543,4.224-21.964.507S88.554,29.55,94.3,25.5s15.543-4.224,21.964-.507C122.683,28.874,123.358,35.294,117.614,39.349Z" transform="translate(-90.381 -22.322)"/>
    </g>
    <path id="Path_79726" data-name="Path 79726" class="cls-3" d="M105.706,34.868c-1.69.676-3.548.676-4.562-.169l-4.731-3.886c-.845-.676-.845-2.027.169-3.21L95.4,26.758,97.09,24.9l1.352,1.014c1.69-1.014,3.548-1.014,4.393-.338l1.352,1.014-2.027,1.858-1.352-1.014a1.881,1.881,0,0,0-2.027.338c-.676.507-.845,1.352-.507,1.69l5.069,4.055a2.1,2.1,0,0,0,2.2-.169c.845-.507,1.014-1.352.507-1.69l-1.352-1.014,2.365-1.69,1.352,1.014c1.014.845.845,2.365-.507,3.548l1.352,1.014-2.365,1.69Z" transform="translate(64.459 15.817)"/>
    <g id="Group_32563" data-name="Group 32563" transform="translate(169.458 105.124)">
      <g id="Group_32562" data-name="Group 32562">
        <path id="Path_79727" data-name="Path 79727" class="cls-2" d="M101.1,69v7.1c.507,2.2,2.365,4.393,5.069,6.082,6.589,3.886,16.557,3.717,22.3-.507,2.027-1.521,3.379-3.21,3.717-5.069V69.676" transform="translate(-101.068 -58.9)"/>
        <path id="Path_79728" data-name="Path 79728" class="cls-2" d="M128.314,80.049c-5.744,4.055-15.543,4.224-21.964.507C99.93,76.67,99.254,70.25,105,66.2s15.543-4.224,21.964-.507C133.383,69.574,133.889,75.994,128.314,80.049Z" transform="translate(-101.081 -63.022)"/>
      </g>
      <path id="Path_79729" data-name="Path 79729" class="cls-3" d="M116.475,75.837c-1.69.676-3.548.676-4.562-.169l-4.9-4.055c-.845-.676-.845-2.027.169-3.21L106,67.558l1.69-1.858,1.352,1.014c1.69-1.014,3.548-1.014,4.393-.338l1.352,1.014-2.027,1.858-1.352-1.014a1.881,1.881,0,0,0-2.027.338c-.676.507-.845,1.352-.507,1.69l5.069,4.055a2.1,2.1,0,0,0,2.2-.169c.845-.507,1.014-1.352.507-1.69l-1.352-1.014,2.365-1.69,1.352,1.014c1.014.845.845,2.365-.507,3.548l1.352,1.014-2.365,1.69Z" transform="translate(-97.69 -61.175)"/>
    </g>
    <g id="Group_32565" data-name="Group 32565" transform="translate(169.458 99.549)">
      <g id="Group_32564" data-name="Group 32564">
        <path id="Path_79730" data-name="Path 79730" class="cls-2" d="M101.1,65.6v7.1c.507,2.2,2.365,4.393,5.069,6.082,6.589,3.886,16.557,3.717,22.3-.507,2.027-1.521,3.379-3.21,3.717-5.069V66.276" transform="translate(-101.068 -55.669)"/>
        <path id="Path_79731" data-name="Path 79731" class="cls-2" d="M128.314,76.749c-5.744,4.055-15.543,4.224-21.964.507C99.93,73.37,99.254,66.95,105,62.9s15.543-4.224,21.964-.507C133.383,66.274,133.889,72.694,128.314,76.749Z" transform="translate(-101.081 -59.722)"/>
      </g>
      <path id="Path_79732" data-name="Path 79732" class="cls-3" d="M116.475,72.537c-1.69.676-3.548.676-4.562-.169l-4.9-4.055c-.845-.676-.845-2.027.169-3.21L106,64.258l1.69-1.858,1.352,1.014c1.69-1.014,3.548-1.014,4.393-.338l1.352,1.014-2.027,1.858-1.352-1.014a1.881,1.881,0,0,0-2.027.338c-.676.507-.845,1.352-.507,1.69l5.069,4.055a2.1,2.1,0,0,0,2.2-.169c.845-.507,1.014-1.352.507-1.69l-1.352-1.014,2.365-1.69,1.352,1.014c1.014.845.845,2.365-.507,3.548l1.352,1.014-2.365,1.69Z" transform="translate(-97.69 -57.875)"/>
    </g>
    <g id="Group_32567" data-name="Group 32567" transform="translate(169.458 93.973)">
      <g id="Group_32566" data-name="Group 32566">
        <path id="Path_79733" data-name="Path 79733" class="cls-2" d="M101.1,62.3v7.1c.507,2.2,2.365,4.393,5.069,6.082,6.589,3.886,16.557,3.717,22.3-.507,2.027-1.521,3.379-3.21,3.717-5.069V62.976" transform="translate(-101.068 -52.369)"/>
        <path id="Path_79734" data-name="Path 79734" class="cls-2" d="M128.314,73.449c-5.744,4.055-15.543,4.224-21.964.507C99.93,70.07,99.254,63.65,105,59.6s15.543-4.224,21.964-.507C133.383,62.974,133.889,69.394,128.314,73.449Z" transform="translate(-101.081 -56.422)"/>
      </g>
      <path id="Path_79735" data-name="Path 79735" class="cls-3" d="M116.475,69.137c-1.69.676-3.548.676-4.562-.169l-4.9-4.055c-.845-.676-.845-2.027.169-3.21L106,60.858,107.69,59l1.352,1.014c1.69-1.014,3.548-1.014,4.393-.338l1.352,1.014-2.027,1.858-1.352-1.014a1.881,1.881,0,0,0-2.027.338c-.676.507-.845,1.352-.507,1.69l5.069,4.055a2.1,2.1,0,0,0,2.2-.169c.845-.507,1.014-1.352.507-1.69l-1.352-1.014,2.365-1.69,1.352,1.014c1.014.845.845,2.365-.507,3.548l1.352,1.014-2.365,1.69Z" transform="translate(-97.69 -54.644)"/>
    </g>
    <g id="Group_32569" data-name="Group 32569" transform="translate(169.458 88.229)">
      <g id="Group_32568" data-name="Group 32568">
        <path id="Path_79736" data-name="Path 79736" class="cls-2" d="M101.1,59v7.1c.507,2.2,2.365,4.393,5.069,6.082,6.589,3.886,16.557,3.717,22.3-.507,2.027-1.521,3.379-3.21,3.717-5.069V59.676" transform="translate(-101.068 -48.9)"/>
        <path id="Path_79737" data-name="Path 79737" class="cls-2" d="M128.314,70.049c-5.744,4.055-15.543,4.224-21.964.507C99.93,66.67,99.254,60.25,105,56.2s15.543-4.224,21.964-.507C133.383,59.574,133.889,65.994,128.314,70.049Z" transform="translate(-101.081 -53.022)"/>
      </g>
      <path id="Path_79738" data-name="Path 79738" class="cls-3" d="M116.475,65.837c-1.69.676-3.548.676-4.562-.169l-4.9-4.055c-.845-.676-.845-2.027.169-3.21L106,57.558l1.69-1.858,1.352,1.014c1.69-1.014,3.548-1.014,4.393-.338l1.352,1.014-2.027,1.858-1.352-1.014a1.881,1.881,0,0,0-2.027.338c-.676.507-.845,1.352-.507,1.69l5.069,4.055a2.1,2.1,0,0,0,2.2-.169c.845-.507,1.014-1.352.507-1.69l-1.352-1.014,2.365-1.69,1.352,1.014c1.014.845.845,2.365-.507,3.548l1.352,1.014-2.365,1.69Z" transform="translate(-97.69 -51.175)"/>
    </g>
    <g id="Group_32571" data-name="Group 32571" transform="translate(169.458 82.823)">
      <g id="Group_32570" data-name="Group 32570">
        <path id="Path_79739" data-name="Path 79739" class="cls-2" d="M101.1,55.7v7.1c.507,2.2,2.365,4.393,5.069,6.082,6.589,3.886,16.557,3.717,22.3-.507,2.027-1.521,3.379-3.21,3.717-5.069V56.376" transform="translate(-101.068 -45.769)"/>
        <path id="Path_79740" data-name="Path 79740" class="cls-2" d="M128.314,66.849c-5.744,4.055-15.543,4.224-21.964.507C99.93,63.47,99.254,57.05,105,53s15.543-4.224,21.964-.507C133.383,56.374,133.889,62.794,128.314,66.849Z" transform="translate(-101.081 -49.822)"/>
      </g>
      <path id="Path_79741" data-name="Path 79741" class="cls-3" d="M116.475,62.637c-1.69.676-3.548.676-4.562-.169l-4.9-4.055c-.845-.676-.845-2.027.169-3.21L106,54.358l1.69-1.858,1.352,1.014c1.69-1.014,3.548-1.014,4.393-.338l1.352,1.014-2.027,1.858-1.352-1.014a1.881,1.881,0,0,0-2.027.338c-.676.507-.845,1.352-.507,1.69l5.069,4.055a2.1,2.1,0,0,0,2.2-.169c.845-.507,1.014-1.352.507-1.69l-1.352-1.014,2.365-1.69,1.352,1.014c1.014.845.845,2.365-.507,3.548l1.352,1.014-2.365,1.69Z" transform="translate(-97.69 -47.975)"/>
    </g>
    <g id="Group_32572" data-name="Group 32572" transform="translate(169.458 77.247)">
      <path id="Path_79742" data-name="Path 79742" class="cls-2" d="M101.1,52.5v7.1c.507,2.2,2.365,4.393,5.069,6.082,6.589,3.886,16.557,3.717,22.3-.507,2.027-1.521,3.379-3.21,3.717-5.069V53.176" transform="translate(-101.068 -42.4)"/>
      <path id="Path_79743" data-name="Path 79743" class="cls-2" d="M128.314,63.549c-5.744,4.055-15.543,4.224-21.964.507C99.93,60.17,99.254,53.75,105,49.7s15.543-4.224,21.964-.507C133.383,53.074,133.889,59.494,128.314,63.549Z" transform="translate(-101.081 -46.522)"/>
    </g>
    <path id="Path_79744" data-name="Path 79744" class="cls-3" d="M107.558,57.241c-.845-1.352-.676-2.872.338-3.548l5.237-3.717c.845-.676,2.534-.507,4.055.169l1.183-.845,2.2,1.521-1.352,1.014c1.183,1.352,1.352,2.7.338,3.548L118.2,56.4l-2.365-1.69,1.352-1.014c.507-.338.338-1.014-.338-1.69a1.881,1.881,0,0,0-2.027-.338l-5.406,3.886c-.507.338-.338,1.183.169,1.69a1.7,1.7,0,0,0,2.027.507l1.352-1.014,2.027,1.858-1.352,1.014c-1.014.845-2.872.676-4.562-.507l-1.352,1.014L105.7,58.254Z" transform="translate(71.561 32.641)"/>
    <g id="Group_32576" data-name="Group 32576" transform="translate(20.813 50.516)">
      <g id="Group_32575" data-name="Group 32575">
        <g id="Group_32574" data-name="Group 32574">
          <path id="Path_79745" data-name="Path 79745" class="cls-2" d="M55.507,107.066l81.941-43.42L96.224,30.7,13.1,73.445Z" transform="translate(-13.1 -30.7)"/>
          <g id="Group_32573" data-name="Group 32573" transform="translate(8.279 5.069)">
            <path id="Path_79746" data-name="Path 79746" class="cls-2" d="M51.621,99.084l74-38.014L92,33.7,18,71.883Z" transform="translate(-18 -33.7)"/>
            <path id="Path_79747" data-name="Path 79747" class="cls-4" d="M56,37.1a16.549,16.549,0,0,0,7.941,2.872A17.317,17.317,0,0,0,72.9,38.621" transform="translate(8.201 -31.356)"/>
            <path id="Path_79748" data-name="Path 79748" class="cls-4" d="M78.052,46.2a8,8,0,0,0-4.393,5.069c-.507,2.027.338,4.055,2.2,5.913" transform="translate(20.278 -25.081)"/>
            <path id="Path_79749" data-name="Path 79749" class="cls-4" d="M23.2,64.651c2.365-1.352,3.886-3.21,4.055-5.406a6.673,6.673,0,0,0-2.7-5.744" transform="translate(-14.415 -20.048)"/>
            <path id="Path_79750" data-name="Path 79750" class="cls-4" d="M50.264,70.216a16.072,16.072,0,0,0-8.279-2.7A16.749,16.749,0,0,0,33.2,69.2" transform="translate(-7.519 -10.407)"/>
          </g>
          <path id="Path_79751" data-name="Path 79751" class="cls-4" d="M42.965,65.7c6.589,5.237,18.416,6.251,26.525,2.027S78.614,55.905,72.025,50.5c-6.589-5.237-18.416-6.251-26.525-2.027S36.376,60.3,42.965,65.7Z" transform="translate(4.51 -20.257)"/>
        </g>
      </g>
      <path id="Path_79752" data-name="Path 79752" class="cls-3" d="M57.478,61.709a6.627,6.627,0,0,1-3.041.676A3.8,3.8,0,0,1,51.9,61.54l-2.027-1.858L51.9,58.161,53.93,60.02a1.811,1.811,0,0,0,1.014.338,3.716,3.716,0,0,0,2.2-.676c.676-.507,1.183-1.014,1.183-1.521a.675.675,0,0,0-.338-.676L56.8,56.472a1.822,1.822,0,0,0-1.183-.338l-7.6.338h-.169a4.09,4.09,0,0,1-2.2-.676l-.676-.676A2.142,2.142,0,0,1,44.3,53.6a3.336,3.336,0,0,1,1.014-2.365l-.845-.845,1.858-1.69,1.014.845a7.579,7.579,0,0,1,3.21-.845,3.406,3.406,0,0,1,1.858.507l1.858,1.521-2.027,1.858-1.69-1.352c-.169-.169-.338-.169-.676-.169a4.8,4.8,0,0,0-2.027.676c-.507.507-1.014,1.014-1.014,1.352A.621.621,0,0,0,47,53.6l.676.676a1.266,1.266,0,0,0,.845.169l7.772-.507h.338a5.188,5.188,0,0,1,2.534.676l1.352,1.014a2.713,2.713,0,0,1,.845,1.858,4.138,4.138,0,0,1-1.352,2.7L61.2,61.2,59,62.892Z" transform="translate(8.413 -18.289)"/>
    </g>
    <g id="Group_32580" data-name="Group 32580" transform="translate(21.15 45.448)">
      <g id="Group_32579" data-name="Group 32579">
        <g id="Group_32578" data-name="Group 32578">
          <path id="Path_79753" data-name="Path 79753" class="cls-2" d="M55.707,104.066l81.941-43.42L96.424,27.7,13.3,70.445Z" transform="translate(-13.3 -27.7)"/>
          <g id="Group_32577" data-name="Group 32577" transform="translate(8.279 5.069)">
            <path id="Path_79754" data-name="Path 79754" class="cls-2" d="M51.652,96.084l74-38.014L92.2,30.7l-74,38.183Z" transform="translate(-18.2 -30.7)"/>
            <path id="Path_79755" data-name="Path 79755" class="cls-4" d="M56.1,34.2a16.549,16.549,0,0,0,7.941,2.872A17.317,17.317,0,0,0,73,35.721" transform="translate(7.932 -28.287)"/>
            <path id="Path_79756" data-name="Path 79756" class="cls-4" d="M78.252,43.2a8,8,0,0,0-4.393,5.069c-.507,2.027.338,4.055,2.2,5.913" transform="translate(20.078 -22.081)"/>
            <path id="Path_79757" data-name="Path 79757" class="cls-4" d="M23.4,61.651c2.365-1.352,3.886-3.21,4.055-5.406a6.673,6.673,0,0,0-2.7-5.744" transform="translate(-14.615 -17.048)"/>
            <path id="Path_79758" data-name="Path 79758" class="cls-4" d="M50.364,67.216a16.072,16.072,0,0,0-8.279-2.7A16.749,16.749,0,0,0,33.3,66.2" transform="translate(-7.788 -7.407)"/>
          </g>
          <path id="Path_79759" data-name="Path 79759" class="cls-4" d="M43.165,62.7c6.589,5.237,18.416,6.251,26.525,2.027S78.814,52.905,72.225,47.5c-6.589-5.237-18.416-6.251-26.525-2.027S36.576,57.3,43.165,62.7Z" transform="translate(4.31 -17.257)"/>
        </g>
      </g>
      <path id="Path_79760" data-name="Path 79760" class="cls-3" d="M57.678,58.709a6.627,6.627,0,0,1-3.041.676A3.8,3.8,0,0,1,52.1,58.54l-2.027-1.858L52.1,55.161,54.13,57.02a1.811,1.811,0,0,0,1.014.338,3.716,3.716,0,0,0,2.2-.676c.676-.507,1.183-1.014,1.183-1.521a.675.675,0,0,0-.338-.676L57,53.472a1.822,1.822,0,0,0-1.183-.338l-7.6.338h-.169a4.09,4.09,0,0,1-2.2-.676l-.676-.676A2.142,2.142,0,0,1,44.5,50.6a3.336,3.336,0,0,1,1.014-2.365l-.845-.845,1.858-1.69,1.014.845a7.578,7.578,0,0,1,3.21-.845,3.406,3.406,0,0,1,1.858.507l1.858,1.521-2.027,1.69-1.69-1.352c-.338,0-.507-.169-.845-.169a4.8,4.8,0,0,0-2.027.676c-.507.507-1.014,1.014-1.014,1.352a.621.621,0,0,0,.169.507l.676.676a1.266,1.266,0,0,0,.845.169l7.772-.507h.338a5.188,5.188,0,0,1,2.534.676l1.352,1.014a2.713,2.713,0,0,1,.845,1.858,4.138,4.138,0,0,1-1.352,2.7l1.183,1.014-2.2,1.69Z" transform="translate(8.213 -15.289)"/>
    </g>
    <g id="Group_32584" data-name="Group 32584" transform="translate(21.319 40.379)">
      <g id="Group_32583" data-name="Group 32583">
        <g id="Group_32582" data-name="Group 32582">
          <path id="Path_79761" data-name="Path 79761" class="cls-2" d="M55.807,101.066l82.11-43.42L96.524,24.7,13.4,67.445Z" transform="translate(-13.4 -24.7)"/>
          <g id="Group_32581" data-name="Group 32581" transform="translate(8.279 5.069)">
            <path id="Path_79762" data-name="Path 79762" class="cls-2" d="M51.921,93.084l74-38.014L92.3,27.7l-74,38.183Z" transform="translate(-18.3 -27.7)"/>
            <path id="Path_79763" data-name="Path 79763" class="cls-4" d="M56.3,31.2a16.549,16.549,0,0,0,7.941,2.872A17.317,17.317,0,0,0,73.2,32.721" transform="translate(7.901 -25.287)"/>
            <path id="Path_79764" data-name="Path 79764" class="cls-4" d="M78.352,40.3a8,8,0,0,0-4.393,5.069c-.507,2.027.338,4.055,2.2,5.913" transform="translate(19.978 -19.012)"/>
            <path id="Path_79765" data-name="Path 79765" class="cls-4" d="M23.6,58.651c2.365-1.352,3.886-3.21,4.055-5.406a6.673,6.673,0,0,0-2.7-5.744" transform="translate(-14.646 -14.048)"/>
            <path id="Path_79766" data-name="Path 79766" class="cls-4" d="M50.564,64.216a16.072,16.072,0,0,0-8.279-2.7A16.749,16.749,0,0,0,33.5,63.2" transform="translate(-7.819 -4.407)"/>
          </g>
          <path id="Path_79767" data-name="Path 79767" class="cls-4" d="M43.265,59.726c6.589,5.237,18.416,6.251,26.525,2.027s9.123-11.827,2.534-17.233S53.909,38.269,45.8,42.493,36.676,54.319,43.265,59.726Z" transform="translate(4.21 -14.278)"/>
        </g>
      </g>
      <path id="Path_79768" data-name="Path 79768" class="cls-3" d="M57.778,55.709a6.627,6.627,0,0,1-3.041.676A3.8,3.8,0,0,1,52.2,55.54l-2.027-1.858L52.2,52.161,54.23,54.02a1.811,1.811,0,0,0,1.014.338,3.716,3.716,0,0,0,2.2-.676c.676-.507,1.183-1.014,1.183-1.521a.675.675,0,0,0-.338-.676L57.1,50.472a1.822,1.822,0,0,0-1.183-.338l-7.6.338h-.169a4.09,4.09,0,0,1-2.2-.676l-.676-.676A2.141,2.141,0,0,1,44.6,47.6a3.336,3.336,0,0,1,1.014-2.365l-.845-.845,1.858-1.69,1.014.845a7.579,7.579,0,0,1,3.21-.845,3.406,3.406,0,0,1,1.858.507l1.858,1.521-2.027,1.69-1.69-1.352c-.169,0-.507-.169-.676-.169a4.8,4.8,0,0,0-2.027.676c-.507.507-1.014,1.014-1.014,1.352a.621.621,0,0,0,.169.507l.676.676a1.266,1.266,0,0,0,.845.169l7.772-.507h.338a5.188,5.188,0,0,1,2.534.676l1.352,1.014a2.713,2.713,0,0,1,.845,1.858,4.138,4.138,0,0,1-1.352,2.7L61.5,55.033l-2.2,1.69Z" transform="translate(8.113 -12.289)"/>
    </g>
    <g id="Group_32588" data-name="Group 32588" transform="translate(21.657 35.311)">
      <g id="Group_32587" data-name="Group 32587">
        <g id="Group_32586" data-name="Group 32586">
          <path id="Path_79769" data-name="Path 79769" class="cls-2" d="M56.007,98.066l81.941-43.42L96.724,21.7,13.6,64.445Z" transform="translate(-13.6 -21.7)"/>
          <g id="Group_32585" data-name="Group 32585" transform="translate(8.279 5.069)">
            <path id="Path_79770" data-name="Path 79770" class="cls-2" d="M52.121,90.084,125.953,52.07,92.5,24.7l-74,38.183Z" transform="translate(-18.5 -24.7)"/>
            <path id="Path_79771" data-name="Path 79771" class="cls-4" d="M56.4,28.2a16.549,16.549,0,0,0,7.941,2.872A17.317,17.317,0,0,0,73.3,29.721" transform="translate(7.632 -22.287)"/>
            <path id="Path_79772" data-name="Path 79772" class="cls-4" d="M78.552,37.3a8,8,0,0,0-4.393,5.069c-.507,2.027.338,4.055,2.2,5.913" transform="translate(19.778 -16.012)"/>
            <path id="Path_79773" data-name="Path 79773" class="cls-4" d="M23.7,55.651c2.365-1.352,3.886-3.21,4.055-5.406a6.673,6.673,0,0,0-2.7-5.744" transform="translate(-14.915 -11.048)"/>
            <path id="Path_79774" data-name="Path 79774" class="cls-4" d="M50.764,61.216a16.072,16.072,0,0,0-8.279-2.7A16.749,16.749,0,0,0,33.7,60.2" transform="translate(-8.019 -1.407)"/>
          </g>
          <path id="Path_79775" data-name="Path 79775" class="cls-4" d="M43.465,56.726c6.589,5.237,18.416,6.251,26.525,2.027s9.123-11.827,2.534-17.233S54.109,35.269,46,39.493,36.876,51.319,43.465,56.726Z" transform="translate(4.01 -11.278)"/>
        </g>
      </g>
      <path id="Path_79776" data-name="Path 79776" class="cls-3" d="M57.978,52.64a6.627,6.627,0,0,1-3.041.676,3.8,3.8,0,0,1-2.534-.845l-2.027-1.858L52.4,49.092l2.027,1.858a1.811,1.811,0,0,0,1.014.338,3.716,3.716,0,0,0,2.2-.676c.676-.507,1.183-1.014,1.183-1.521a.675.675,0,0,0-.338-.676L57.3,47.4a1.822,1.822,0,0,0-1.183-.338l-7.6.338h-.169a4.09,4.09,0,0,1-2.2-.676l-.676-.676a2.142,2.142,0,0,1-.676-1.521,3.336,3.336,0,0,1,1.014-2.365l-.676-.676L47,39.8l1.014.845a7.579,7.579,0,0,1,3.21-.845,3.406,3.406,0,0,1,1.858.507l1.858,1.521-2.027,1.69-1.69-1.352c-.507-.169-.676-.338-1.014-.338a4.8,4.8,0,0,0-2.027.676c-.507.507-1.014,1.014-1.014,1.352a.621.621,0,0,0,.169.507l.676.676a1.266,1.266,0,0,0,.845.169l7.772-.507h.338a5.188,5.188,0,0,1,2.534.676l1.352,1.014a2.713,2.713,0,0,1,.845,1.858,4.138,4.138,0,0,1-1.352,2.7l1.183,1.014-2.2,1.69Z" transform="translate(7.913 -9.22)"/>
    </g>
    <g id="Group_32592" data-name="Group 32592" transform="translate(21.826 30.242)">
      <g id="Group_32591" data-name="Group 32591">
        <g id="Group_32590" data-name="Group 32590">
          <path id="Path_79777" data-name="Path 79777" class="cls-2" d="M56.107,95.066l82.11-43.42L96.824,18.7,13.7,61.445Z" transform="translate(-13.7 -18.7)"/>
          <g id="Group_32589" data-name="Group 32589" transform="translate(8.448 5.069)">
            <path id="Path_79778" data-name="Path 79778" class="cls-2" d="M52.152,87.084l74-38.014L92.532,21.7,18.7,59.883Z" transform="translate(-18.7 -21.7)"/>
            <path id="Path_79779" data-name="Path 79779" class="cls-4" d="M56.6,25.2a16.549,16.549,0,0,0,7.941,2.872A17.317,17.317,0,0,0,73.5,26.721" transform="translate(7.432 -19.287)"/>
            <path id="Path_79780" data-name="Path 79780" class="cls-4" d="M78.752,34.3a8,8,0,0,0-4.393,5.069c-.507,2.027.338,4.055,2.2,5.913" transform="translate(19.578 -13.012)"/>
            <path id="Path_79781" data-name="Path 79781" class="cls-4" d="M23.9,52.651c2.365-1.352,3.886-3.21,4.055-5.406a6.673,6.673,0,0,0-2.7-5.744" transform="translate(-15.115 -8.048)"/>
            <path id="Path_79782" data-name="Path 79782" class="cls-4" d="M50.864,58.216a16.072,16.072,0,0,0-8.279-2.7A16.749,16.749,0,0,0,33.8,57.2" transform="translate(-8.288 1.593)"/>
          </g>
          <path id="Path_79783" data-name="Path 79783" class="cls-4" d="M43.665,53.726c6.589,5.237,18.416,6.251,26.525,2.027s9.123-11.827,2.534-17.233S54.309,32.269,46.2,36.493,37.076,48.319,43.665,53.726Z" transform="translate(3.979 -8.278)"/>
        </g>
      </g>
      <path id="Path_79784" data-name="Path 79784" class="cls-3" d="M58.178,49.64a6.627,6.627,0,0,1-3.041.676,3.8,3.8,0,0,1-2.534-.845l-2.027-1.858L52.6,46.092l2.027,1.858a1.811,1.811,0,0,0,1.014.338,3.716,3.716,0,0,0,2.2-.676c.676-.507,1.183-1.014,1.183-1.521a.675.675,0,0,0-.338-.676L57.5,44.4a1.822,1.822,0,0,0-1.183-.338l-7.6.338h-.169a4.09,4.09,0,0,1-2.2-.676l-.676-.676A2.086,2.086,0,0,1,45,41.7a3.336,3.336,0,0,1,1.014-2.365l-.845-.845,1.858-1.69,1.014.845a7.579,7.579,0,0,1,3.21-.845,3.406,3.406,0,0,1,1.858.507l1.858,1.521-2.027,1.69-1.69-1.352C51.082,39,50.913,39,50.575,39a4.8,4.8,0,0,0-2.027.676c-.507.507-1.014,1.014-1.014,1.352a.621.621,0,0,0,.169.507l.676.676a1.266,1.266,0,0,0,.845.169L57,41.869h.338a5.188,5.188,0,0,1,2.534.676l1.352,1.014a2.713,2.713,0,0,1,.845,1.858,4.138,4.138,0,0,1-1.352,2.7L61.9,49.133l-2.2,1.69Z" transform="translate(7.882 -6.22)"/>
    </g>
    <g id="Group_32596" data-name="Group 32596" transform="translate(22.164 25.174)">
      <g id="Group_32595" data-name="Group 32595">
        <g id="Group_32594" data-name="Group 32594">
          <path id="Path_79785" data-name="Path 79785" class="cls-2" d="M56.307,92.066l81.941-43.42L97.024,15.7,13.9,58.445Z" transform="translate(-13.9 -15.7)"/>
          <g id="Group_32593" data-name="Group 32593" transform="translate(8.279 5.069)">
            <path id="Path_79786" data-name="Path 79786" class="cls-2" d="M52.421,84.084l74-38.014L92.8,18.7l-74,38.183Z" transform="translate(-18.8 -18.7)"/>
            <path id="Path_79787" data-name="Path 79787" class="cls-4" d="M56.8,22.2a16.549,16.549,0,0,0,7.941,2.872A17.317,17.317,0,0,0,73.7,23.721" transform="translate(7.401 -16.287)"/>
            <path id="Path_79788" data-name="Path 79788" class="cls-4" d="M78.852,31.3a8,8,0,0,0-4.393,5.069c-.507,2.027.338,4.055,2.2,5.913" transform="translate(19.478 -10.012)"/>
            <path id="Path_79789" data-name="Path 79789" class="cls-4" d="M24,49.651c2.365-1.352,3.886-3.21,4.055-5.406a6.673,6.673,0,0,0-2.7-5.744" transform="translate(-15.215 -5.048)"/>
            <path id="Path_79790" data-name="Path 79790" class="cls-4" d="M51.064,55.216a16.072,16.072,0,0,0-8.279-2.7A16.749,16.749,0,0,0,34,54.2" transform="translate(-8.319 4.593)"/>
          </g>
          <path id="Path_79791" data-name="Path 79791" class="cls-4" d="M43.765,50.7c6.589,5.237,18.416,6.251,26.525,2.027S79.414,40.905,72.825,35.5c-6.589-5.237-18.416-6.251-26.525-2.027S37.176,45.3,43.765,50.7Z" transform="translate(3.71 -5.257)"/>
        </g>
      </g>
      <path id="Path_79792" data-name="Path 79792" class="cls-3" d="M58.278,46.709a6.627,6.627,0,0,1-3.041.676A3.8,3.8,0,0,1,52.7,46.54l-2.027-1.858L52.7,43.161,54.73,45.02a1.811,1.811,0,0,0,1.014.338,3.716,3.716,0,0,0,2.2-.676c.676-.507,1.183-1.014,1.183-1.521a.675.675,0,0,0-.338-.676L57.6,41.472a1.822,1.822,0,0,0-1.183-.338l-7.6.338h-.169a4.09,4.09,0,0,1-2.2-.676l-.676-.676A2.141,2.141,0,0,1,45.1,38.6a3.336,3.336,0,0,1,1.014-2.365l-.845-.845,1.858-1.69,1.014.845a7.579,7.579,0,0,1,3.21-.845,3.406,3.406,0,0,1,1.858.507l1.858,1.69-2.027,1.69-1.69-1.352c-.169-.169-.338-.169-.676-.169a4.8,4.8,0,0,0-2.027.676c-.507.507-1.014,1.014-1.014,1.352a.621.621,0,0,0,.169.507l.676.676a1.266,1.266,0,0,0,.845.169l7.772-.507h.338a5.188,5.188,0,0,1,2.534.676l1.352,1.014a2.713,2.713,0,0,1,.845,1.858,4.138,4.138,0,0,1-1.352,2.7L62,46.2l-2.2,1.69Z" transform="translate(7.613 -3.289)"/>
    </g>
    <g id="Group_32600" data-name="Group 32600" transform="translate(22.502 20.105)">
      <g id="Group_32599" data-name="Group 32599">
        <g id="Group_32598" data-name="Group 32598">
          <path id="Path_79793" data-name="Path 79793" class="cls-2" d="M56.507,89.066l81.941-43.42L97.224,12.7,14.1,55.445Z" transform="translate(-14.1 -12.7)"/>
          <g id="Group_32597" data-name="Group 32597" transform="translate(8.279 5.069)">
            <path id="Path_79794" data-name="Path 79794" class="cls-2" d="M52.452,81.084l74-38.014L93,15.7,19,53.883Z" transform="translate(-19 -15.7)"/>
            <path id="Path_79795" data-name="Path 79795" class="cls-4" d="M56.9,19.2a16.549,16.549,0,0,0,7.941,2.872A17.317,17.317,0,0,0,73.8,20.721" transform="translate(7.132 -13.287)"/>
            <path id="Path_79796" data-name="Path 79796" class="cls-4" d="M79.052,28.3a8,8,0,0,0-4.393,5.069c-.507,2.027.338,4.055,2.2,5.913" transform="translate(19.278 -7.012)"/>
            <path id="Path_79797" data-name="Path 79797" class="cls-4" d="M24.2,46.651c2.365-1.352,3.886-3.21,4.055-5.406a6.673,6.673,0,0,0-2.7-5.744" transform="translate(-15.415 -2.048)"/>
            <path id="Path_79798" data-name="Path 79798" class="cls-4" d="M51.164,52.216a16.072,16.072,0,0,0-8.279-2.7A16.749,16.749,0,0,0,34.1,51.2" transform="translate(-8.588 7.593)"/>
          </g>
          <path id="Path_79799" data-name="Path 79799" class="cls-4" d="M43.965,47.726c6.589,5.237,18.416,6.251,26.525,2.027s9.123-11.827,2.534-17.233S54.609,26.269,46.5,30.493,37.376,42.319,43.965,47.726Z" transform="translate(3.51 -2.278)"/>
        </g>
      </g>
      <path id="Path_79800" data-name="Path 79800" class="cls-3" d="M58.478,43.809a6.627,6.627,0,0,1-3.041.676A3.8,3.8,0,0,1,52.9,43.64l-2.027-1.858L52.9,40.261,54.93,42.12a1.811,1.811,0,0,0,1.014.338,3.716,3.716,0,0,0,2.2-.676c.676-.507,1.183-1.014,1.183-1.521a.675.675,0,0,0-.338-.676L57.8,38.572a1.822,1.822,0,0,0-1.183-.338l-7.6.338h-.169a4.09,4.09,0,0,1-2.2-.676l-.676-.676A2.142,2.142,0,0,1,45.3,35.7a3.336,3.336,0,0,1,1.014-2.365l-.845-.845,1.858-1.69,1.014.845a7.579,7.579,0,0,1,3.21-.845,3.406,3.406,0,0,1,1.858.507l1.858,1.521-2.027,1.69-1.69-1.352C51.382,33,51.213,33,50.875,33a4.8,4.8,0,0,0-2.027.676c-.507.507-1.014,1.014-1.014,1.352a.621.621,0,0,0,.169.507l.676.676a1.266,1.266,0,0,0,.845.169l7.772-.507h.338a5.187,5.187,0,0,1,2.534.676l1.352,1.014a2.713,2.713,0,0,1,.845,1.858,4.138,4.138,0,0,1-1.352,2.7L62.2,43.133,60,44.823Z" transform="translate(7.413 -0.22)"/>
    </g>
    <g id="Group_32604" data-name="Group 32604" transform="translate(22.671 15.037)">
      <g id="Group_32603" data-name="Group 32603">
        <g id="Group_32602" data-name="Group 32602">
          <path id="Path_79801" data-name="Path 79801" class="cls-2" d="M56.607,86.235l82.11-43.589L97.324,9.7,14.2,52.445Z" transform="translate(-14.2 -9.7)"/>
          <g id="Group_32601" data-name="Group 32601" transform="translate(8.279 5.069)">
            <path id="Path_79802" data-name="Path 79802" class="cls-2" d="M52.721,78.084l74-38.014L93.1,12.7l-74,38.183Z" transform="translate(-19.1 -12.7)"/>
            <path id="Path_79803" data-name="Path 79803" class="cls-4" d="M57.1,16.2a16.549,16.549,0,0,0,7.941,2.872A17.317,17.317,0,0,0,74,17.721" transform="translate(7.101 -10.287)"/>
            <path id="Path_79804" data-name="Path 79804" class="cls-4" d="M79.152,25.3a8,8,0,0,0-4.393,5.069c-.507,2.027.338,4.055,2.2,5.913" transform="translate(19.178 -4.012)"/>
            <path id="Path_79805" data-name="Path 79805" class="cls-4" d="M24.4,43.751c2.365-1.352,3.886-3.21,4.055-5.406a6.673,6.673,0,0,0-2.7-5.744" transform="translate(-15.446 1.021)"/>
            <path id="Path_79806" data-name="Path 79806" class="cls-4" d="M51.364,49.216a16.072,16.072,0,0,0-8.279-2.7A16.749,16.749,0,0,0,34.3,48.2" transform="translate(-8.619 10.593)"/>
          </g>
          <path id="Path_79807" data-name="Path 79807" class="cls-4" d="M44.065,44.726c6.589,5.237,18.416,6.251,26.525,2.027s9.123-11.827,2.534-17.233S54.709,23.269,46.6,27.493,37.476,39.319,44.065,44.726Z" transform="translate(3.41 0.722)"/>
        </g>
      </g>
      <path id="Path_79808" data-name="Path 79808" class="cls-3" d="M58.578,40.809a6.627,6.627,0,0,1-3.041.676A3.8,3.8,0,0,1,53,40.64l-2.027-1.858L53,37.261,55.03,39.12a1.811,1.811,0,0,0,1.014.338,3.716,3.716,0,0,0,2.2-.676c.676-.507,1.183-1.014,1.183-1.521a.675.675,0,0,0-.338-.676L57.9,35.572a1.822,1.822,0,0,0-1.183-.338l-7.6.338h-.169a4.09,4.09,0,0,1-2.2-.676l-.676-.676A2.142,2.142,0,0,1,45.4,32.7a3.336,3.336,0,0,1,1.014-2.365l-.845-.845,1.858-1.69,1.014.845a7.578,7.578,0,0,1,3.21-.845,3.406,3.406,0,0,1,1.858.507l1.858,1.521-2.027,1.69-1.69-1.352C51.482,30,51.313,30,50.975,30a4.8,4.8,0,0,0-2.027.676c-.507.507-1.014,1.014-1.014,1.352a.621.621,0,0,0,.169.507l.676.676a1.266,1.266,0,0,0,.845.169l7.772-.507h.338a5.188,5.188,0,0,1,2.534.676l1.352,1.014a2.713,2.713,0,0,1,.845,1.858,4.138,4.138,0,0,1-1.352,2.7L62.3,40.133l-2.2,1.69Z" transform="translate(7.313 2.78)"/>
    </g>
    <g id="Group_32608" data-name="Group 32608" transform="translate(23.009 9.968)">
      <g id="Group_32607" data-name="Group 32607">
        <g id="Group_32606" data-name="Group 32606">
          <path id="Path_79809" data-name="Path 79809" class="cls-2" d="M56.807,83.235l81.941-43.589L97.524,6.7,14.4,49.445Z" transform="translate(-14.4 -6.7)"/>
          <g id="Group_32605" data-name="Group 32605" transform="translate(8.279 5.069)">
            <path id="Path_79810" data-name="Path 79810" class="cls-2" d="M52.921,75.084,126.753,37.07,93.3,9.7l-74,38.183Z" transform="translate(-19.3 -9.7)"/>
            <path id="Path_79811" data-name="Path 79811" class="cls-4" d="M57.2,13.2a16.549,16.549,0,0,0,7.941,2.872A17.317,17.317,0,0,0,74.1,14.721" transform="translate(6.832 -7.287)"/>
            <path id="Path_79812" data-name="Path 79812" class="cls-4" d="M79.352,22.3a8,8,0,0,0-4.393,5.069c-.507,2.027.338,4.055,2.2,5.913" transform="translate(18.978 -1.012)"/>
            <path id="Path_79813" data-name="Path 79813" class="cls-4" d="M24.5,40.751c2.365-1.352,3.886-3.21,4.055-5.406a6.673,6.673,0,0,0-2.7-5.744" transform="translate(-15.715 4.021)"/>
            <path id="Path_79814" data-name="Path 79814" class="cls-4" d="M51.564,46.216a16.072,16.072,0,0,0-8.279-2.7A16.749,16.749,0,0,0,34.5,45.2" transform="translate(-8.819 13.593)"/>
          </g>
          <path id="Path_79815" data-name="Path 79815" class="cls-4" d="M44.265,41.726c6.589,5.237,18.416,6.251,26.525,2.027s9.123-11.827,2.534-17.233S54.909,20.269,46.8,24.493,37.676,36.488,44.265,41.726Z" transform="translate(3.21 3.722)"/>
        </g>
      </g>
      <path id="Path_79816" data-name="Path 79816" class="cls-3" d="M58.778,37.878a6.627,6.627,0,0,1-3.041.676,3.8,3.8,0,0,1-2.534-.845l-2.027-1.858L53.2,34.33l2.027,1.858a1.811,1.811,0,0,0,1.014.338,3.716,3.716,0,0,0,2.2-.676c.676-.507,1.183-1.014,1.183-1.521a.675.675,0,0,0-.338-.676L58.1,32.472a1.822,1.822,0,0,0-1.183-.338l-7.6.338h-.169a4.09,4.09,0,0,1-2.2-.676l-.676-.676A2.142,2.142,0,0,1,45.6,29.6a3.336,3.336,0,0,1,1.014-2.365l-.845-.845,1.858-1.69,1.014.845a7.578,7.578,0,0,1,3.21-.845,3.406,3.406,0,0,1,1.858.507l1.858,1.521-2.027,1.69-1.69-1.352c-.169-.169-.338-.169-.676-.169a4.8,4.8,0,0,0-2.027.676c-.507.507-1.014,1.014-1.014,1.352a.621.621,0,0,0,.169.507l.676.676a1.266,1.266,0,0,0,.845.169l7.772-.507h.338a5.188,5.188,0,0,1,2.534.676l1.352,1.014a2.713,2.713,0,0,1,.845,1.858,4.138,4.138,0,0,1-1.352,2.7L62.5,37.033l-2.2,1.69Z" transform="translate(7.113 5.711)"/>
    </g>
    <g id="Group_32612" data-name="Group 32612" transform="translate(23.178 4.9)">
      <g id="Group_32611" data-name="Group 32611">
        <g id="Group_32610" data-name="Group 32610">
          <path id="Path_79817" data-name="Path 79817" class="cls-2" d="M56.907,80.235l82.11-43.589L97.624,3.7,14.5,46.445Z" transform="translate(-14.5 -3.7)"/>
          <g id="Group_32609" data-name="Group 32609" transform="translate(8.448 5.237)">
            <path id="Path_79818" data-name="Path 79818" class="cls-2" d="M52.952,72.015l74-38.014L93.332,6.8,19.5,44.814Z" transform="translate(-19.5 -6.8)"/>
            <path id="Path_79819" data-name="Path 79819" class="cls-4" d="M57.4,10.2a16.549,16.549,0,0,0,7.941,2.872A17.317,17.317,0,0,0,74.3,11.721" transform="translate(6.632 -4.456)"/>
            <path id="Path_79820" data-name="Path 79820" class="cls-4" d="M79.552,19.3a8,8,0,0,0-4.393,5.069c-.507,2.027.338,4.055,2.2,5.913" transform="translate(18.778 1.819)"/>
            <path id="Path_79821" data-name="Path 79821" class="cls-4" d="M24.7,37.751c2.365-1.352,3.886-3.21,4.055-5.406a6.673,6.673,0,0,0-2.7-5.744" transform="translate(-15.915 6.852)"/>
            <path id="Path_79822" data-name="Path 79822" class="cls-4" d="M51.664,43.216a16.072,16.072,0,0,0-8.279-2.7A16.749,16.749,0,0,0,34.6,42.2" transform="translate(-9.088 16.424)"/>
          </g>
          <path id="Path_79823" data-name="Path 79823" class="cls-4" d="M44.465,38.726c6.589,5.237,18.416,6.251,26.525,2.027s9.123-11.827,2.534-17.233S55.109,17.269,47,21.493,37.876,33.488,44.465,38.726Z" transform="translate(3.179 6.722)"/>
        </g>
      </g>
      <path id="Path_79824" data-name="Path 79824" class="cls-3" d="M58.978,34.878a6.627,6.627,0,0,1-3.041.676,3.8,3.8,0,0,1-2.534-.845l-2.027-1.858L53.4,31.33l2.027,1.858a1.811,1.811,0,0,0,1.014.338,3.716,3.716,0,0,0,2.2-.676c.676-.507,1.183-1.014,1.183-1.521a.675.675,0,0,0-.338-.676L58.3,29.641A1.822,1.822,0,0,0,57.12,29.3l-7.6.169h-.169a4.09,4.09,0,0,1-2.2-.676l-.676-.676A2.142,2.142,0,0,1,45.8,26.6a3.336,3.336,0,0,1,1.014-2.365l-.845-.845,1.858-1.69,1.014.845a7.578,7.578,0,0,1,3.21-.845,3.406,3.406,0,0,1,1.858.507l1.858,1.521-2.027,1.69-1.69-1.352c-.169-.169-.338-.169-.676-.169a4.8,4.8,0,0,0-2.027.676c-.507.507-1.014,1.014-1.014,1.352a.621.621,0,0,0,.169.507l.676.676a1.266,1.266,0,0,0,.845.169l7.772-.507h.338a5.188,5.188,0,0,1,2.534.676l1.352,1.014a2.713,2.713,0,0,1,.845,1.858,4.138,4.138,0,0,1-1.352,2.7L62.7,34.033l-2.2,1.69Z" transform="translate(7.082 8.711)"/>
    </g>
    <g id="Group_32616" data-name="Group 32616" transform="translate(23.516 0)">
      <g id="Group_32615" data-name="Group 32615">
        <g id="Group_32614" data-name="Group 32614">
          <path id="Path_79825" data-name="Path 79825" class="cls-2" d="M57.107,77.166l81.941-43.589L97.824.8,14.7,43.376Z" transform="translate(-14.7 -0.8)"/>
          <g id="Group_32613" data-name="Group 32613" transform="translate(8.279 5.069)">
            <path id="Path_79826" data-name="Path 79826" class="cls-2" d="M53.221,69.184l74-38.183L93.6,3.8l-74,38.014Z" transform="translate(-19.6 -3.8)"/>
            <path id="Path_79827" data-name="Path 79827" class="cls-4" d="M57.6,7.2a16.549,16.549,0,0,0,7.941,2.872A17.317,17.317,0,0,0,74.5,8.721" transform="translate(6.601 -1.456)"/>
            <path id="Path_79828" data-name="Path 79828" class="cls-4" d="M79.652,16.3a8,8,0,0,0-4.393,5.069c-.507,2.027.338,4.055,2.2,5.913" transform="translate(18.678 4.819)"/>
            <path id="Path_79829" data-name="Path 79829" class="cls-4" d="M24.8,34.751c2.365-1.352,3.886-3.21,4.055-5.406a6.673,6.673,0,0,0-2.7-5.744" transform="translate(-16.015 9.852)"/>
            <path id="Path_79830" data-name="Path 79830" class="cls-4" d="M51.864,40.216a16.072,16.072,0,0,0-8.279-2.7A16.749,16.749,0,0,0,34.8,39.2" transform="translate(-9.119 19.424)"/>
          </g>
          <path id="Path_79831" data-name="Path 79831" class="cls-4" d="M44.565,35.726c6.589,5.237,18.416,6.251,26.525,2.027s9.123-11.827,2.534-17.233S55.209,14.269,47.1,18.493,37.976,30.488,44.565,35.726Z" transform="translate(2.91 9.553)"/>
        </g>
      </g>
      <path id="Path_79832" data-name="Path 79832" class="cls-3" d="M59.009,31.809a6.627,6.627,0,0,1-3.041.676,3.8,3.8,0,0,1-2.534-.845l-2.027-1.858,2.027-1.521,2.027,1.858a1.811,1.811,0,0,0,1.014.338,3.716,3.716,0,0,0,2.2-.676c.676-.507,1.183-1.014,1.183-1.521a.675.675,0,0,0-.338-.676l-1.183-1.014a1.822,1.822,0,0,0-1.183-.338l-7.6.338h-.169a4.09,4.09,0,0,1-2.2-.676l-.676-.676A2.725,2.725,0,0,1,46,23.7a3.336,3.336,0,0,1,1.014-2.365l-.845-.845,1.858-1.69,1.014.845a7.579,7.579,0,0,1,3.21-.845,3.406,3.406,0,0,1,1.858.507l1.858,1.521-2.027,1.69-1.69-1.352C52.082,21,51.913,21,51.575,21a4.8,4.8,0,0,0-2.027.676c-.507.507-1.014,1.014-1.014,1.352a.621.621,0,0,0,.169.507l.676.676a1.266,1.266,0,0,0,.845.169L58,23.869h.338a5.188,5.188,0,0,1,2.534.676l1.352,1.014a2.713,2.713,0,0,1,.845,1.858,4.138,4.138,0,0,1-1.352,2.7L62.9,31.133l-2.2,1.69Z" transform="translate(6.882 11.611)"/>
    </g>
    <g id="Group_32620" data-name="Group 32620" transform="translate(32.808 99.681)">
      <g id="Group_32619" data-name="Group 32619">
        <g id="Group_32618" data-name="Group 32618">
          <path id="Path_79833" data-name="Path 79833" class="cls-2" d="M62.438,136.166l82.11-43.42L103.324,59.8,20.2,102.376Z" transform="translate(-20.2 -59.8)"/>
          <g id="Group_32617" data-name="Group 32617" transform="translate(8.279 5.069)">
            <path id="Path_79834" data-name="Path 79834" class="cls-2" d="M58.552,128.184l74-38.183L99.1,62.8l-74,38.014Z" transform="translate(-25.1 -62.8)"/>
            <path id="Path_79835" data-name="Path 79835" class="cls-4" d="M63,66.2a16.549,16.549,0,0,0,7.941,2.872A17.317,17.317,0,0,0,79.9,67.721" transform="translate(1.032 -60.456)"/>
            <path id="Path_79836" data-name="Path 79836" class="cls-4" d="M85.152,75.3a8,8,0,0,0-4.393,5.069c-.507,2.027.338,4.055,2.2,5.913" transform="translate(13.178 -54.181)"/>
            <path id="Path_79837" data-name="Path 79837" class="cls-4" d="M30.3,93.751c2.365-1.352,3.886-3.21,4.055-5.406a6.673,6.673,0,0,0-2.7-5.744" transform="translate(-21.515 -49.148)"/>
            <path id="Path_79838" data-name="Path 79838" class="cls-4" d="M57.264,99.216a16.072,16.072,0,0,0-8.279-2.7A16.749,16.749,0,0,0,40.2,98.2" transform="translate(-14.688 -39.576)"/>
          </g>
          <path id="Path_79839" data-name="Path 79839" class="cls-4" d="M50.043,94.684c6.589,5.237,18.416,6.251,26.525,2.027S85.691,84.885,79.1,79.479,60.687,73.4,52.577,77.62C44.636,81.675,43.454,89.447,50.043,94.684Z" transform="translate(-2.568 -49.405)"/>
        </g>
      </g>
      <path id="Path_79840" data-name="Path 79840" class="cls-3" d="M64.578,90.809a6.627,6.627,0,0,1-3.041.676A3.8,3.8,0,0,1,59,90.64l-2.027-1.858L59,87.261,61.03,89.12a1.811,1.811,0,0,0,1.014.338,3.716,3.716,0,0,0,2.2-.676c.676-.507,1.183-1.014,1.183-1.521a.675.675,0,0,0-.338-.676L63.9,85.572a1.822,1.822,0,0,0-1.183-.338l-7.6.338h-.169a4.09,4.09,0,0,1-2.2-.676l-.676-.676A2.141,2.141,0,0,1,51.4,82.7a3.336,3.336,0,0,1,1.014-2.365l-.845-.845,1.858-1.69,1.014.845a7.578,7.578,0,0,1,3.21-.845,3.406,3.406,0,0,1,1.858.507l1.858,1.521-2.027,1.69-1.69-1.352C57.482,80,57.313,80,56.975,80a4.8,4.8,0,0,0-2.027.676c-.507.507-1.014,1.014-1.014,1.352a.621.621,0,0,0,.169.507l.676.676a1.266,1.266,0,0,0,.845.169l7.772-.507h.338a5.188,5.188,0,0,1,2.534.676l1.352,1.014a2.713,2.713,0,0,1,.845,1.858,4.138,4.138,0,0,1-1.352,2.7L68.3,90.133l-2.2,1.69Z" transform="translate(1.313 -47.389)"/>
    </g>
    <g id="Group_32624" data-name="Group 32624" transform="translate(32.977 94.613)">
      <g id="Group_32623" data-name="Group 32623">
        <g id="Group_32622" data-name="Group 32622">
          <path id="Path_79841" data-name="Path 79841" class="cls-2" d="M62.707,133.166l81.941-43.42L103.424,56.8,20.3,99.376Z" transform="translate(-20.3 -56.8)"/>
          <g id="Group_32621" data-name="Group 32621" transform="translate(8.279 5.069)">
            <path id="Path_79842" data-name="Path 79842" class="cls-2" d="M58.821,125.184l74-38.183L99.2,59.8l-74,38.014Z" transform="translate(-25.2 -59.8)"/>
            <path id="Path_79843" data-name="Path 79843" class="cls-4" d="M63.2,63.2a16.549,16.549,0,0,0,7.941,2.872A17.317,17.317,0,0,0,80.1,64.721" transform="translate(1.001 -57.456)"/>
            <path id="Path_79844" data-name="Path 79844" class="cls-4" d="M85.252,72.3a8,8,0,0,0-4.393,5.069c-.507,2.027.338,4.055,2.2,5.913" transform="translate(13.078 -51.181)"/>
            <path id="Path_79845" data-name="Path 79845" class="cls-4" d="M30.4,90.751c2.365-1.352,3.886-3.21,4.055-5.406a6.673,6.673,0,0,0-2.7-5.744" transform="translate(-21.615 -46.148)"/>
            <path id="Path_79846" data-name="Path 79846" class="cls-4" d="M57.464,96.216a16.072,16.072,0,0,0-8.279-2.7A16.749,16.749,0,0,0,40.4,95.2" transform="translate(-14.719 -36.576)"/>
          </g>
          <path id="Path_79847" data-name="Path 79847" class="cls-4" d="M50.137,91.662c6.589,5.237,18.416,6.251,26.525,2.027S85.786,81.863,79.2,76.457c-6.42-5.237-18.416-6.082-26.356-1.858C44.731,78.653,43.548,86.425,50.137,91.662Z" transform="translate(-2.662 -46.383)"/>
        </g>
      </g>
      <path id="Path_79848" data-name="Path 79848" class="cls-3" d="M64.609,87.809a6.627,6.627,0,0,1-3.041.676,3.8,3.8,0,0,1-2.534-.845l-2.027-1.858,2.027-1.521,2.027,1.858a1.812,1.812,0,0,0,1.014.338,3.716,3.716,0,0,0,2.2-.676c.676-.507,1.183-1.014,1.183-1.521a.675.675,0,0,0-.338-.676L64.1,82.4a1.822,1.822,0,0,0-1.183-.338l-7.6.338h-.169a4.09,4.09,0,0,1-2.2-.676l-.676-.507A2.142,2.142,0,0,1,51.6,79.7a3.336,3.336,0,0,1,1.014-2.365l-.845-.845,1.858-1.69,1.014.845a7.579,7.579,0,0,1,3.21-.845,3.406,3.406,0,0,1,1.858.507l1.858,1.521-2.027,1.69-1.69-1.352C57.682,77,57.513,77,57.175,77a4.8,4.8,0,0,0-2.027.676c-.507.507-1.014,1.014-1.014,1.352a.621.621,0,0,0,.169.507l.676.676a1.266,1.266,0,0,0,.845.169l7.772-.507h.338a5.187,5.187,0,0,1,2.534.676l1.352,1.014a2.713,2.713,0,0,1,.845,1.858,4.138,4.138,0,0,1-1.352,2.7L68.5,87.133l-2.2,1.69Z" transform="translate(1.282 -44.389)"/>
    </g>
    <g id="Group_32628" data-name="Group 32628" transform="translate(33.315 89.544)">
      <g id="Group_32627" data-name="Group 32627">
        <g id="Group_32626" data-name="Group 32626">
          <path id="Path_79849" data-name="Path 79849" class="cls-2" d="M62.907,130.166l81.941-43.42L103.624,53.8,20.5,96.376Z" transform="translate(-20.5 -53.8)"/>
          <g id="Group_32625" data-name="Group 32625" transform="translate(8.279 5.069)">
            <path id="Path_79850" data-name="Path 79850" class="cls-2" d="M58.852,122.184l74-38.183L99.4,56.8l-74,38.014Z" transform="translate(-25.4 -56.8)"/>
            <path id="Path_79851" data-name="Path 79851" class="cls-4" d="M63.3,60.2a16.549,16.549,0,0,0,7.941,2.872A17.317,17.317,0,0,0,80.2,61.721" transform="translate(0.732 -54.456)"/>
            <path id="Path_79852" data-name="Path 79852" class="cls-4" d="M85.452,69.3a8,8,0,0,0-4.393,5.069c-.507,2.027.338,4.055,2.2,5.913" transform="translate(12.878 -48.181)"/>
            <path id="Path_79853" data-name="Path 79853" class="cls-4" d="M30.6,87.751c2.365-1.352,3.886-3.21,4.055-5.406a6.673,6.673,0,0,0-2.7-5.744" transform="translate(-21.815 -43.148)"/>
            <path id="Path_79854" data-name="Path 79854" class="cls-4" d="M57.664,93.216a16.072,16.072,0,0,0-8.279-2.7A16.748,16.748,0,0,0,40.6,92.2" transform="translate(-14.919 -33.576)"/>
          </g>
          <path id="Path_79855" data-name="Path 79855" class="cls-4" d="M50.343,88.7c6.589,5.237,18.416,6.251,26.525,2.027S85.991,78.905,79.4,73.5c-6.589-5.237-18.416-6.251-26.525-2.027C44.936,75.7,43.754,83.467,50.343,88.7Z" transform="translate(-2.868 -43.426)"/>
        </g>
      </g>
      <path id="Path_79856" data-name="Path 79856" class="cls-3" d="M64.878,84.878a6.626,6.626,0,0,1-3.041.676,3.8,3.8,0,0,1-2.534-.845l-2.027-2.027L59.3,81.161,61.33,83.02a1.811,1.811,0,0,0,1.014.338,3.716,3.716,0,0,0,2.2-.676c.676-.507,1.183-1.014,1.183-1.521a.675.675,0,0,0-.338-.676L64.2,79.472a1.822,1.822,0,0,0-1.183-.338l-7.6.338h-.169a4.09,4.09,0,0,1-2.2-.676l-.676-.676A2.142,2.142,0,0,1,51.7,76.6a3.336,3.336,0,0,1,1.014-2.365l-.845-.845,1.858-1.69,1.014.845a7.578,7.578,0,0,1,3.21-.845,3.406,3.406,0,0,1,1.858.507l1.858,1.521-2.027,1.69-1.69-1.352c-.169-.169-.338-.169-.676-.169a4.8,4.8,0,0,0-2.027.676c-.507.507-1.014,1.014-1.014,1.352a.621.621,0,0,0,.169.507l.676.676a1.266,1.266,0,0,0,.845.169l7.772-.507h.338a5.187,5.187,0,0,1,2.534.676l1.352,1.014a2.713,2.713,0,0,1,.845,1.858,4.138,4.138,0,0,1-1.352,2.7L68.6,84.033l-2.2,1.69Z" transform="translate(1.013 -41.458)"/>
    </g>
    <g id="Group_32632" data-name="Group 32632" transform="translate(33.484 84.475)">
      <g id="Group_32631" data-name="Group 32631">
        <g id="Group_32630" data-name="Group 32630">
          <path id="Path_79857" data-name="Path 79857" class="cls-2" d="M63.007,127.166l82.11-43.42L103.724,50.8,20.6,93.376Z" transform="translate(-20.6 -50.8)"/>
          <g id="Group_32629" data-name="Group 32629" transform="translate(8.448 5.069)">
            <path id="Path_79858" data-name="Path 79858" class="cls-2" d="M59.052,119.184l74-38.183L99.432,53.8,25.6,91.983Z" transform="translate(-25.6 -53.8)"/>
            <path id="Path_79859" data-name="Path 79859" class="cls-4" d="M63.5,57.2a16.549,16.549,0,0,0,7.941,2.872A17.317,17.317,0,0,0,80.4,58.721" transform="translate(0.532 -51.456)"/>
            <path id="Path_79860" data-name="Path 79860" class="cls-4" d="M85.652,66.3a8,8,0,0,0-4.393,5.069c-.507,2.027.338,4.055,2.2,5.913" transform="translate(12.678 -45.181)"/>
            <path id="Path_79861" data-name="Path 79861" class="cls-4" d="M30.8,84.751c2.365-1.352,3.886-3.21,4.055-5.406a6.673,6.673,0,0,0-2.7-5.744" transform="translate(-22.015 -40.148)"/>
            <path id="Path_79862" data-name="Path 79862" class="cls-4" d="M57.764,90.216a16.072,16.072,0,0,0-8.279-2.7A16.749,16.749,0,0,0,40.7,89.2" transform="translate(-15.188 -30.576)"/>
          </g>
          <path id="Path_79863" data-name="Path 79863" class="cls-4" d="M50.565,85.684c6.589,5.237,18.416,6.251,26.525,2.027s9.123-11.827,2.534-17.233S61.209,64.4,53.1,68.62,43.976,80.447,50.565,85.684Z" transform="translate(-2.921 -40.405)"/>
        </g>
      </g>
      <path id="Path_79864" data-name="Path 79864" class="cls-3" d="M65.078,81.809a6.627,6.627,0,0,1-3.041.676A3.8,3.8,0,0,1,59.5,81.64l-2.027-1.858L59.5,78.261,61.53,80.12a1.811,1.811,0,0,0,1.014.338,3.716,3.716,0,0,0,2.2-.676c.676-.507,1.183-1.014,1.183-1.521a.675.675,0,0,0-.338-.676L64.4,76.572a1.822,1.822,0,0,0-1.183-.338l-7.6.338h-.169a4.09,4.09,0,0,1-2.2-.676l-.676-.676A2.141,2.141,0,0,1,51.9,73.7a3.336,3.336,0,0,1,1.014-2.365l-.845-.845,1.858-1.69,1.014.845a7.578,7.578,0,0,1,3.21-.845,3.406,3.406,0,0,1,1.858.507l1.858,1.521-2.027,1.69-1.69-1.352C57.982,71,57.813,71,57.475,71a4.8,4.8,0,0,0-2.027.676c-.507.507-1.014,1.014-1.014,1.352a.621.621,0,0,0,.169.507l.676.676a1.266,1.266,0,0,0,.845.169l7.772-.507h.338a5.188,5.188,0,0,1,2.534.676l1.352,1.014a2.713,2.713,0,0,1,.845,1.858,4.138,4.138,0,0,1-1.352,2.7L68.8,81.133l-2.2,1.69Z" transform="translate(0.982 -38.389)"/>
    </g>
    <g id="Group_32636" data-name="Group 32636" transform="translate(33.822 79.407)">
      <g id="Group_32635" data-name="Group 32635">
        <g id="Group_32634" data-name="Group 32634">
          <path id="Path_79865" data-name="Path 79865" class="cls-2" d="M63.207,124.166l81.941-43.42L103.924,47.8,20.8,90.376Z" transform="translate(-20.8 -47.8)"/>
          <g id="Group_32633" data-name="Group 32633" transform="translate(8.279 5.069)">
            <path id="Path_79866" data-name="Path 79866" class="cls-2" d="M59.321,116.184,133.153,78.17,99.7,50.8l-74,38.183Z" transform="translate(-25.7 -50.8)"/>
            <path id="Path_79867" data-name="Path 79867" class="cls-4" d="M63.7,54.2a16.549,16.549,0,0,0,7.941,2.872A17.317,17.317,0,0,0,80.6,55.721" transform="translate(0.501 -48.456)"/>
            <path id="Path_79868" data-name="Path 79868" class="cls-4" d="M85.752,63.3a8,8,0,0,0-4.393,5.069c-.507,2.027.338,4.055,2.2,5.913" transform="translate(12.578 -42.181)"/>
            <path id="Path_79869" data-name="Path 79869" class="cls-4" d="M30.9,81.751c2.365-1.352,3.886-3.21,4.055-5.406a6.673,6.673,0,0,0-2.7-5.744" transform="translate(-22.115 -37.148)"/>
            <path id="Path_79870" data-name="Path 79870" class="cls-4" d="M57.964,87.216a16.072,16.072,0,0,0-8.279-2.7A16.749,16.749,0,0,0,40.9,86.2" transform="translate(-15.219 -27.576)"/>
          </g>
          <path id="Path_79871" data-name="Path 79871" class="cls-4" d="M50.637,82.684c6.589,5.237,18.416,6.251,26.525,2.027S86.286,72.885,79.7,67.479,61.281,61.4,53.34,65.62C45.231,69.844,44.048,77.447,50.637,82.684Z" transform="translate(-3.162 -37.405)"/>
        </g>
      </g>
      <path id="Path_79872" data-name="Path 79872" class="cls-3" d="M65.178,78.809a6.627,6.627,0,0,1-3.041.676A3.8,3.8,0,0,1,59.6,78.64l-2.027-1.858L59.6,75.261,61.63,77.12a1.811,1.811,0,0,0,1.014.338,3.716,3.716,0,0,0,2.2-.676c.676-.507,1.183-1.014,1.183-1.521a.675.675,0,0,0-.338-.676L64.5,73.572a1.822,1.822,0,0,0-1.183-.338l-7.6.338h-.169a4.09,4.09,0,0,1-2.2-.676l-.676-.676A2.141,2.141,0,0,1,52,70.7a3.336,3.336,0,0,1,1.014-2.365l-.845-.845,1.858-1.69,1.014.845a7.579,7.579,0,0,1,3.21-.845,3.406,3.406,0,0,1,1.858.507l1.858,1.521-2.027,1.69-1.69-1.352C58.082,68,57.913,68,57.575,68a4.8,4.8,0,0,0-2.027.676c-.507.507-1.014,1.014-1.014,1.352a.621.621,0,0,0,.169.507l.676.676a1.266,1.266,0,0,0,.845.169L64,70.869h.338a5.187,5.187,0,0,1,2.534.676l1.352,1.014a2.713,2.713,0,0,1,.845,1.858,4.138,4.138,0,0,1-1.352,2.7L68.9,78.133l-2.2,1.69Z" transform="translate(0.713 -35.389)"/>
    </g>
    <g id="Group_32638" data-name="Group 32638" transform="translate(0 100.731)">
      <g id="Group_32637" data-name="Group 32637">
        <path id="Path_79873" data-name="Path 79873" class="cls-2" d="M.8,66.3v7.1c.507,2.2,2.365,4.393,5.069,6.082,6.589,3.886,16.557,3.717,22.3-.507,2.027-1.521,3.379-3.21,3.717-5.069V66.976" transform="translate(-0.768 -56.369)"/>
        <path id="Path_79874" data-name="Path 79874" class="cls-2" d="M28.014,77.449C22.27,81.5,12.471,81.673,6.05,77.956-.37,74.07-1.046,67.65,4.7,63.6s15.543-4.224,21.964-.507S33.758,73.394,28.014,77.449Z" transform="translate(-0.781 -60.422)"/>
      </g>
      <path id="Path_79875" data-name="Path 79875" class="cls-3" d="M16.175,73.237c-1.69.676-3.548.676-4.562-.169l-4.9-4.055c-.845-.676-.845-2.027.169-3.21L5.7,64.958,7.39,63.1l1.352,1.014c1.69-1.014,3.548-1.014,4.393-.338l1.352,1.014-2.027,1.858-1.183-1.183a1.881,1.881,0,0,0-2.027.338c-.676.507-.845,1.352-.507,1.69l5.069,4.055a2.1,2.1,0,0,0,2.2-.169c.845-.507,1.014-1.352.507-1.69l-1.352-1.014,2.365-1.69L18.878,68c1.014.845.845,2.365-.507,3.548l1.352,1.014-2.365,1.69Z" transform="translate(2.61 -58.575)"/>
    </g>
    <g id="Group_32640" data-name="Group 32640" transform="translate(0 95.156)">
      <g id="Group_32639" data-name="Group 32639">
        <path id="Path_79876" data-name="Path 79876" class="cls-2" d="M.8,63v7.1c.507,2.2,2.365,4.393,5.069,6.082,6.589,3.886,16.557,3.717,22.3-.507,2.027-1.521,3.379-3.21,3.717-5.069V63.676" transform="translate(-0.768 -53.069)"/>
        <path id="Path_79877" data-name="Path 79877" class="cls-2" d="M28.014,74.149C22.27,78.2,12.471,78.373,6.05,74.656-.37,70.77-1.046,64.35,4.7,60.3s15.543-4.224,21.964-.507C33.083,63.674,33.758,69.925,28.014,74.149Z" transform="translate(-0.781 -57.122)"/>
      </g>
      <path id="Path_79878" data-name="Path 79878" class="cls-3" d="M16.175,69.837c-1.69.676-3.548.676-4.562-.169l-4.9-4.055c-.845-.676-.845-2.027.169-3.21L5.7,61.558,7.39,59.7l1.352,1.014c1.69-1.014,3.548-1.014,4.393-.338l1.352,1.014-2.027,1.858-1.183-1.014a1.881,1.881,0,0,0-2.027.338c-.676.507-.845,1.352-.507,1.69l5.069,4.055a2.1,2.1,0,0,0,2.2-.169c.845-.507,1.014-1.352.507-1.69l-1.352-1.014,2.365-1.69,1.352,1.014c1.014.845.845,2.365-.507,3.548l1.352,1.014-2.365,1.69Z" transform="translate(2.61 -55.344)"/>
    </g>
    <g id="Group_32642" data-name="Group 32642" transform="translate(0 89.412)">
      <g id="Group_32641" data-name="Group 32641">
        <path id="Path_79879" data-name="Path 79879" class="cls-2" d="M.8,59.7v7.1c.507,2.2,2.365,4.393,5.069,6.082,6.589,3.886,16.557,3.717,22.3-.507,2.027-1.521,3.379-3.21,3.717-5.069V60.376" transform="translate(-0.768 -49.6)"/>
        <path id="Path_79880" data-name="Path 79880" class="cls-2" d="M28.014,70.749C22.27,74.8,12.471,74.973,6.05,71.256-.37,67.37-1.046,60.95,4.7,56.9s15.543-4.224,21.964-.507C33.083,60.274,33.758,66.694,28.014,70.749Z" transform="translate(-0.781 -53.722)"/>
      </g>
      <path id="Path_79881" data-name="Path 79881" class="cls-3" d="M16.175,66.537c-1.69.676-3.548.676-4.562-.169l-4.9-4.055c-.845-.676-.845-2.027.169-3.21L5.7,58.258,7.39,56.4,8.91,57.414C10.6,56.4,12.458,56.4,13.3,57.076l1.352,1.014-2.027,1.858-1.352-1.014a1.881,1.881,0,0,0-2.027.338c-.676.507-.845,1.352-.507,1.69l5.069,4.055a2.1,2.1,0,0,0,2.2-.169c.845-.507,1.014-1.352.507-1.69l-1.352-1.014,2.365-1.69,1.352,1.014c1.014.845.845,2.365-.507,3.548l1.352,1.014-2.365,1.69Z" transform="translate(2.61 -51.875)"/>
    </g>
    <g id="Group_32644" data-name="Group 32644" transform="translate(0 83.836)">
      <g id="Group_32643" data-name="Group 32643">
        <path id="Path_79882" data-name="Path 79882" class="cls-2" d="M.8,56.3v7.1c.507,2.2,2.365,4.393,5.069,6.082,6.589,3.886,16.557,3.717,22.3-.507,2.027-1.521,3.379-3.21,3.717-5.069V56.976" transform="translate(-0.768 -46.369)"/>
        <path id="Path_79883" data-name="Path 79883" class="cls-2" d="M28.014,67.449C22.27,71.5,12.471,71.673,6.05,67.956-.37,64.07-1.046,57.65,4.7,53.6s15.543-4.224,21.964-.507S33.758,63.394,28.014,67.449Z" transform="translate(-0.781 -50.422)"/>
      </g>
      <path id="Path_79884" data-name="Path 79884" class="cls-3" d="M20.043,60.9a4.113,4.113,0,0,1-4.055,1.69L8.555,60.9A3.288,3.288,0,0,1,6.19,57.854L4.5,57.516l.169-2.2,2.027.338a3.416,3.416,0,0,1,3.717-2.027l1.858.338L11.765,56.5,9.737,56a1.316,1.316,0,0,0-1.521,1.183,1.394,1.394,0,0,0,.845,1.69l7.772,1.69a1.821,1.821,0,0,0,1.858-1.014,1.129,1.129,0,0,0-.845-1.69l-2.027-.338.845-2.365,2.027.338a2.9,2.9,0,0,1,2.365,3.379l2.027.338-.845,2.2Z" transform="translate(1.783 -48.26)"/>
    </g>
  </g>
</svg>
