<?xml version="1.0" encoding="utf-8"?>
<!-- Generator: Adobe Illustrator 22.0.1, SVG Export Plug-In . SVG Version: 6.00 Build 0)  -->
<svg version="1.1" id="Group_59721" xmlns="http://www.w3.org/2000/svg" xmlns:xlink="http://www.w3.org/1999/xlink" x="0px"
	 y="0px" viewBox="0 0 36 36" style="enable-background:new 0 0 36 36;" xml:space="preserve">
<style type="text/css">
	.st0{fill:#8D95A2;}
	.st1{fill:none;}
</style>
<path id="Union_1609" class="st0" d="M5.9,30C5.4,30,5,29.6,5,29.1l0,0c0-0.5,0.4-0.9,0.9-0.9l0,0h22.9c0.5,0,0.9,0.4,0.9,0.9
	S29.3,30,28.8,30l0,0H5.9z M16.3,25.4l-5.9-6c-0.3-0.4-0.3-0.9,0-1.2c0.4-0.4,1-0.4,1.4-0.1l4.5,4.6V6.9c0-0.6,0.5-1,1-1
	c0.5,0,0.9,0.4,0.9,1l0,0v15.8l4.8-4.6c0.1-0.1,0.1-0.1,0.2-0.2c0.4-0.3,1-0.2,1.3,0.2l0,0c0.3,0.4,0.2,1-0.2,1.3l0,0l-6,5.9
	c-0.3,0.3-0.6,0.7-1,0.7l0,0C16.8,26,16.5,25.6,16.3,25.4L16.3,25.4z"/>
<g id="Group_59708" transform="translate(12915 -9527)">
	<g id="Group_59718">
		<rect id="Rectangle_6660" x="-12915" y="9527" class="st1" width="36" height="36"/>
	</g>
</g>
</svg>
