<svg id="Group_59721" data-name="Group 59721" xmlns="http://www.w3.org/2000/svg" viewBox="12935 -9345 36 36">
  <defs>
    <style>
      .cls-1 {
        fill: #1d2d47;
      }

      .cls-2 {
        fill: none;
      }
    </style>
  </defs>
  <path id="Union_1609" data-name="Union 1609" class="cls-1" d="M-3067.012,26.172a.882.882,0,0,1-.891-.891.882.882,0,0,1,.891-.891h22.925a.9.9,0,0,1,.89.891.882.882,0,0,1-.89.891Zm10.434-4.595-5.88-5.981a.929.929,0,0,1,0-1.247.961.961,0,0,1,1.354-.071l4.454,4.592V3.1a.972.972,0,0,1,.285-.676.973.973,0,0,1,.677-.285.958.958,0,0,1,.962.961V18.8l4.766-4.521c.071-.071.107-.143.178-.178a.927.927,0,0,1,1.317.178.927.927,0,0,1-.177,1.319l-6.227,6.016c-.285.319-.428.569-.82.569l-.042,0C-3056.069,22.185-3056.373,21.782-3056.578,21.578Z" transform="translate(16007.903 -9341.207)"/>
  <g id="Group_59708" data-name="Group 59708" transform="translate(12915 -9527)">
    <g id="Group_59718" data-name="Group 59718">
      <rect id="Rectangle_6660" data-name="Rectangle 6660" class="cls-2" width="36" height="36" transform="translate(20 182)"/>
    </g>
  </g>
</svg>
