<?xml version="1.0" encoding="utf-8"?>
<!-- Generator: Adobe Illustrator 22.0.1, SVG Export Plug-In . SVG Version: 6.00 Build 0)  -->
<svg version="1.1" id="Group_59720" xmlns="http://www.w3.org/2000/svg" xmlns:xlink="http://www.w3.org/1999/xlink" x="0px"
	 y="0px" viewBox="0 0 36 36" style="enable-background:new 0 0 36 36;" xml:space="preserve">
<style type="text/css">
	.st0{fill:none;}
	.st1{fill:#1D2D47;}
</style>
<g>
	<g id="Group_59707" transform="translate(12915 -9584)">
		<g id="Group_59719">
			<rect id="Rectangle_6660" x="-12915" y="9584" class="st0" width="36" height="36"/>
		</g>
	</g>
	<g id="Group_30859" transform="translate(-211.966 -274)">
		<g id="Group_30858" transform="translate(239.966 368.048)">
			<g id="Group_30857" transform="translate(0)">
				<g id="Group_30856">
					<path class="st1" d="M-9.9-60.6c0,0-1.4-1.9-1.8-2.5C-15-68-20.6-76.3-20.6-81c0-5.8,4.7-10.6,10.5-10.6h0.1
						C-4.2-91.5,0.6-86.8,0.5-81c0,5.4-5.7,13.8-8.9,18.3C-8.7-62.2-9.9-60.6-9.9-60.6z M-10-90c-5,0-9,4.1-9,9.1
						c0,4.2,5.6,12.5,8.6,17c0.1,0.1,0.3,0.5,0.5,0.7c0.1-0.1,0.3-0.4,0.4-0.5c3-4.4,8.5-12.4,8.5-17.2c0-5-4-9-8.9-9.1H-10z"/>
				</g>
			</g>
		</g>
		<g id="Ellipse_2393" transform="translate(245.066 372.828)">
			<circle class="st0" cx="-15.1" cy="-86" r="4.7"/>
			<path class="st1" d="M-15.1-81.3c-2.6,0-4.7-2.1-4.7-4.7s2.1-4.7,4.7-4.7s4.7,2.1,4.7,4.7S-12.4-81.3-15.1-81.3z M-15.1-89.3
				c-1.8,0-3.2,1.5-3.2,3.2s1.5,3.2,3.2,3.2c1.8,0,3.2-1.5,3.2-3.2S-13.3-89.3-15.1-89.3z"/>
		</g>
	</g>
</g>
</svg>
