<?xml version="1.0" encoding="utf-8"?>
<!-- Generator: Adobe Illustrator 22.0.1, SVG Export Plug-In . SVG Version: 6.00 Build 0)  -->
<svg version="1.1" id="Group_59720" xmlns="http://www.w3.org/2000/svg" xmlns:xlink="http://www.w3.org/1999/xlink" x="0px"
	 y="0px" viewBox="0 0 36 36" style="enable-background:new 0 0 36 36;" xml:space="preserve">
<style type="text/css">
	.st0{fill:#8D95A2;}
	.st1{enable-background:new    ;}
	.st2{fill:none;}
</style>
<g>
	<g id="Group_59681" transform="translate(12914.5 -9985.938)">
		<g>
			<path class="st0" d="M-12896.5,10019.7c-8.7,0-15.8-7.1-15.8-15.8s7.1-15.8,15.8-15.8s15.8,7.1,15.8,15.8
				S-12887.8,10019.7-12896.5,10019.7z M-12896.5,9989.7c-7.9,0-14.2,6.4-14.2,14.2s6.4,14.2,14.2,14.2s14.2-6.4,14.2-14.2
				S-12888.6,9989.7-12896.5,9989.7z"/>
		</g>
		<g class="st1">
			<path class="st0" d="M-12900.4,10009.9v-12.8h4.2c1.4,0,2.4,0.3,3.1,0.9c0.7,0.6,1,1.4,1,2.5c0,0.6-0.2,1.1-0.5,1.6
				c-0.3,0.5-0.8,0.8-1.4,1.1c0.7,0.2,1.2,0.6,1.6,1.1c0.4,0.5,0.6,1.2,0.6,1.9c0,1.1-0.4,2.1-1.1,2.7s-1.8,1-3.2,1H-12900.4z
				 M-12898.7,10002.5h2.5c0.7,0,1.3-0.2,1.8-0.6c0.4-0.4,0.7-0.9,0.7-1.5c0-0.7-0.2-1.2-0.6-1.5c-0.4-0.3-1-0.5-1.9-0.5h-2.5
				V10002.5z M-12898.7,10003.9v4.6h2.8c0.8,0,1.4-0.2,1.9-0.6c0.5-0.4,0.7-1,0.7-1.7c0-1.5-0.8-2.3-2.5-2.3H-12898.7z"/>
		</g>
	</g>
	<g id="Group_59707" transform="translate(12915 -9584)">
		<g id="Group_59719">
			<rect id="Rectangle_6660" x="-12915" y="9584" class="st2" width="36" height="36"/>
		</g>
	</g>
</g>
</svg>
