<?xml version="1.0" encoding="utf-8"?>
<!-- Generator: Adobe Illustrator 22.0.1, SVG Export Plug-In . SVG Version: 6.00 Build 0)  -->
<svg version="1.1" id="Group_59715" xmlns="http://www.w3.org/2000/svg" xmlns:xlink="http://www.w3.org/1999/xlink" x="0px"
	 y="0px" viewBox="0 0 36 36" style="enable-background:new 0 0 36 36;" xml:space="preserve">
<style type="text/css">
	.st0{fill:#1D2D47;}
	.st1{fill:none;}
</style>
<g>
	<g id="Group_59696" transform="translate(95 58)">
		<g id="Group_59701">
			<g id="Group_59695" transform="translate(12819.5 -9745.938)">
				<path class="st0" d="M-12896.5,9721.7c-8.7,0-15.8-7.1-15.8-15.8s7.1-15.8,15.8-15.8s15.8,7.1,15.8,15.8
					S-12887.8,9721.7-12896.5,9721.7z M-12896.5,9691.7c-7.9,0-14.2,6.4-14.2,14.2s6.4,14.2,14.2,14.2s14.2-6.4,14.2-14.2
					S-12888.6,9691.7-12896.5,9691.7z"/>
			</g>
			<path id="Path_97976" class="st0" d="M-79.2-33.4c-0.4,0-0.7-0.2-0.9-0.4l-2.8-3.3c-0.4-0.5-0.4-1.3,0.1-1.7c0,0,0,0,0,0
				c0.5-0.4,1.3-0.4,1.7,0.1l0,0l1.9,2.2l7.2-8.8c0.4-0.5,1.1-0.6,1.7-0.2c0,0,0,0,0,0c0.5,0.4,0.6,1.2,0.2,1.7c0,0,0,0,0,0l0,0
				l-8.2,10C-78.5-33.6-78.9-33.4-79.2-33.4L-79.2-33.4z"/>
		</g>
	</g>
	<g id="Group_59711" transform="translate(12915 -9286)">
		<rect id="Rectangle_6660" x="-12915" y="9286" class="st1" width="36" height="36"/>
	</g>
</g>
</svg>
