<?xml version="1.0" encoding="utf-8"?>
<!-- Generator: Adobe Illustrator 22.0.1, SVG Export Plug-In . SVG Version: 6.00 Build 0)  -->
<svg version="1.1" id="Group_59714" xmlns="http://www.w3.org/2000/svg" xmlns:xlink="http://www.w3.org/1999/xlink" x="0px"
	 y="0px" viewBox="0 0 36 36" style="enable-background:new 0 0 36 36;" xml:space="preserve">
<style type="text/css">
	.st0{fill:#1D2D47;}
	.st1{fill:none;}
</style>
<g id="Group_59697" transform="translate(103 233.062)">
	<g id="Group_59692" transform="translate(12811.5 -9873)">
		<path class="st0" d="M-12896.5,9673.7c-8.7,0-15.8-7.1-15.8-15.8s7.1-15.8,15.8-15.8s15.8,7.1,15.8,15.8
			S-12887.8,9673.7-12896.5,9673.7z M-12896.5,9643.7c-7.9,0-14.2,6.4-14.2,14.2s6.4,14.2,14.2,14.2s14.2-6.4,14.2-14.2
			S-12888.6,9643.7-12896.5,9643.7z"/>
	</g>
	<g id="Group_59694" transform="translate(12847 -9280.834)">
		<path id="Path_97974" class="st0" d="M-12928.4,9071.5h-1.9v-9.7c0-0.2,0-0.3-0.1-0.3h-4.5c-0.1,0-0.1,0-0.2,0.1
			c0,0-0.1,0.1-0.1,0.2v1.7c0,0.1,0,0.1,0.1,0.2c0,0,0.1,0.1,0.2,0.1h1.9v7.9h-1.9c-0.1,0-0.2,0.1-0.2,0.3v1.7c0,0.1,0,0.1,0.1,0.2
			l0,0h6.5c0.1,0,0.1,0,0.2-0.1c0.1-0.1,0.1-0.1,0.1-0.1v-1.7C-12928.2,9071.6-12928.3,9071.5-12928.4,9071.5z"/>
		<path id="Path_97975" class="st0" d="M-12929.8,9057.8c0-1-0.8-1.8-1.8-1.8h-0.1c-0.9,0-1.7,0.8-1.7,1.7c0,0.5,0.1,0.9,0.5,1.3
			c0.3,0.4,0.8,0.5,1.3,0.5h0.1C-12930.6,9059.5-12929.8,9058.7-12929.8,9057.8C-12929.8,9057.8-12929.8,9057.8-12929.8,9057.8z"/>
	</g>
</g>
<g id="Group_59712" transform="translate(12915 -9238)">
	<g id="Group_59713">
		<rect id="Rectangle_6660" x="-12915" y="9238" class="st1" width="36" height="36"/>
	</g>
</g>
</svg>
