<?xml version="1.0" encoding="utf-8"?>
<!-- Generator: Adobe Illustrator 22.0.1, SVG Export Plug-In . SVG Version: 6.00 Build 0)  -->
<svg version="1.1" id="Layer_1" xmlns="http://www.w3.org/2000/svg" xmlns:xlink="http://www.w3.org/1999/xlink" x="0px" y="0px"
	 viewBox="0 0 36 36" style="enable-background:new 0 0 36 36;" xml:space="preserve">
<style type="text/css">
	.st0{fill:none;}
	.st1{fill:#1D2D47;}
</style>
<g id="Group_59683" transform="translate(12915 -9634)">
	<g id="Group_29225" transform="translate(0 207)">
		<rect id="Rectangle_6660" x="-12915" y="9427" class="st0" width="36" height="36"/>
	</g>
	<path id="Union_1470" class="st1" d="M-12909.5,9663c-1.4,0-2.5-1.1-2.5-2.5l0,0v-15.9c0-1.4,1.1-2.5,2.5-2.5l0,0h24.7
		c1.4,0,2.5,1.1,2.5,2.5l0,0v15.9c0,1.4-1.1,2.5-2.5,2.5l0,0H-12909.5z M-12910.7,9660.4c0,0.6,0.7,1.1,1.3,1.1h24.7
		c0.6,0,1.1-0.5,1.1-1.1v-10.1h-27.1V9660.4L-12910.7,9660.4z M-12910.7,9644.5v1.9h27v-1.9c0-0.6-0.5-1.1-1.1-1.1h-24.9
		C-12910.3,9643.5-12910.7,9643.9-12910.7,9644.5z M-12898.7,9658.7l-2.3-2.6c0-0.1-0.1-0.1-0.1-0.2c-0.4-0.4-0.3-1.1,0.1-1.5
		c0,0,0,0,0.1,0c0.4-0.4,1.1-0.3,1.5,0.1c0,0,0,0,0.1,0.1l1.6,1.7l4.5-4.5c0.4-0.4,1.1-0.4,1.5,0s0.4,1.1,0,1.5l0,0l-5.3,5.4
		c-0.2,0.2-0.5,0.3-0.8,0.4C-12898.2,9659.1-12898.5,9658.9-12898.7,9658.7L-12898.7,9658.7z"/>
</g>
</svg>
