<?xml version="1.0" encoding="utf-8"?>
<!-- Generator: Adobe Illustrator 22.0.1, SVG Export Plug-In . SVG Version: 6.00 Build 0)  -->
<svg version="1.1" id="Group_59727" xmlns="http://www.w3.org/2000/svg" xmlns:xlink="http://www.w3.org/1999/xlink" x="0px"
	 y="0px" viewBox="0 0 36 36" style="enable-background:new 0 0 36 36;" xml:space="preserve">
<style type="text/css">
	.st0{fill:none;}
	.st1{fill:#1D2D47;}
</style>
<g id="Group_29233" transform="translate(12924 -8988)">
	<g id="Group_59726">
		<rect id="Rectangle_6659" x="-12924" y="8988" class="st0" width="36" height="36"/>
	</g>
</g>
<g id="Group_59725" transform="translate(12943.196 -8893.9)">
	<path id="Path_97937" class="st1" d="M-12909.2,8906.8l-2.3-2.3c-0.2-0.1-0.4-0.2-0.6-0.2c-0.4,0-0.8,0.2-1.1,0.6l-11.1,11.1
		l-2.9,6.6l6.6-2.9l11.1-11c0.3-0.3,0.5-0.7,0.6-1.1C-12909,8907.2-12909.1,8907-12909.2,8906.8z M-12921.2,8918.8l-3.3,1.4
		c-0.1-0.1-0.1-0.2-0.2-0.3l-0.1-0.1l1.4-3.3l0.4-0.4c0.6,0,1,0.5,1,1c0,0,0,0,0,0.1c0,0.1,0,0.1-0.1,0.2c0,0,1.2-0.3,1.3,0.9
		L-12921.2,8918.8z M-12917.5,8912.4l-3.1,3.1c-0.2,0.2-0.6,0.2-0.8,0c-0.2-0.2-0.2-0.5,0-0.7l3.1-3.1c0.2-0.2,0.6-0.2,0.8,0
		C-12917.3,8911.9-12917.3,8912.2-12917.5,8912.4z M-12915,8912.6l-2.2-2.2l1.4-1.4l2.2,2.2L-12915,8912.6z M-12912.2,8907.1
		l-1.8,1.8c-0.2,0.2-0.6,0.2-0.8,0c-0.2-0.2-0.2-0.5,0-0.7l1.8-1.8c0.2-0.2,0.5-0.2,0.8,0
		C-12911.9,8906.4-12911.9,8906.8-12912.2,8907.1C-12912.1,8907-12912.1,8907-12912.2,8907.1z"/>
	<path id="Path_97938" class="st1" d="M-12916.5,8906c0.4,0,0.8-0.4,0.8-0.8v-1.4c0-1.8-1.5-3.3-3.3-3.3h-3.4
		c-0.2-0.4-0.5-0.6-0.9-0.5h-1c0,0-1.2,0.1-1.2-1v-2.1c0,0,0.1-1.1-2.1-1.1c0,0-2.1,0.1-2.1,1v2.1c0,0.5-0.3,0.9-0.7,1h-1.2
		c-0.4,0-0.7,0.2-0.9,0.5h-3.4c-1.8,0.1-3.2,1.6-3.1,3.4l0,0v20.8c0,1.8,1.3,3.2,3.1,3.3c0,0,0,0,0,0h16.9c1.8,0,3.2-1.4,3.3-3.2
		c0,0,0,0,0,0v-5.8c0-0.4-0.3-0.8-0.8-0.8s-0.8,0.3-0.8,0.8v5.8c0,0.9-0.8,1.7-1.7,1.7h-16.8c-0.9-0.1-1.6-0.8-1.6-1.7v-20.8
		c0-0.9,0.7-1.7,1.6-1.8h2.1c0,0.5,0.4,1,0.9,1h10.6c0,0,1.1,0,1.1-1v-0.1h2.1c0.9,0.1,1.7,0.8,1.7,1.8v1.3
		C-12917.3,8905.7-12917,8906-12916.5,8906L-12916.5,8906z M-12927.6,8899.1c-0.6,0-1-0.5-1-1c0-0.6,0.5-1,1-1c0.6,0,1,0.5,1,1
		C-12926.6,8898.6-12927.1,8899.1-12927.6,8899.1z"/>
	<path id="Path_97939" class="st1" d="M-12922,8908.9h-11.4c-0.4,0-0.8-0.3-0.8-0.8s0.3-0.8,0.8-0.8h11.4c0.4,0,0.8,0.3,0.8,0.8
		S-12921.5,8908.9-12922,8908.9L-12922,8908.9z"/>
	<path id="Path_97940" class="st1" d="M-12926.1,8913h-7.2c-0.4,0-0.8-0.3-0.8-0.8s0.3-0.8,0.8-0.8h7.2c0.4,0,0.8,0.3,0.8,0.8
		S-12925.7,8913-12926.1,8913z"/>
	<path id="Path_97941" class="st1" d="M-12929.2,8917.1h-4.1c-0.4,0-0.8-0.3-0.8-0.8s0.3-0.8,0.8-0.8h4.1c0.4,0,0.8,0.3,0.8,0.8
		S-12928.8,8917.1-12929.2,8917.1z"/>
	<path id="Path_97942" class="st1" d="M-12931.8,8921.3h-1.5c-0.4,0-0.8-0.3-0.8-0.8s0.3-0.8,0.8-0.8h1.5c0.4,0,0.8,0.3,0.8,0.8
		S-12931.3,8921.3-12931.8,8921.3z"/>
</g>
</svg>
