<?xml version="1.0" encoding="utf-8"?>
<!-- Generator: Adobe Illustrator 22.0.1, SVG Export Plug-In . SVG Version: 6.00 Build 0)  -->
<svg version="1.1" id="Group_59727" xmlns="http://www.w3.org/2000/svg" xmlns:xlink="http://www.w3.org/1999/xlink" x="0px"
	 y="0px" viewBox="0 0 36 36" style="enable-background:new 0 0 36 36;" xml:space="preserve">
<style type="text/css">
	.st0{fill:none;}
	.st1{fill:#8D95A2;}
</style>
<g id="Group_29233" transform="translate(12924 -8988)">
	<g id="Group_59726">
		<rect id="Rectangle_6659" x="-12924" y="8988" class="st0" width="36" height="36"/>
	</g>
</g>
<g>
	<path class="st1" d="M34,12.9l-2.3-2.3c-0.2-0.1-0.4-0.2-0.6-0.2c-0.4,0-0.8,0.2-1.1,0.6L18.9,22.1L16,28.6l6.6-2.9l11.1-11
		c0.3-0.3,0.5-0.7,0.6-1.1C34.2,13.3,34.1,13.1,34,12.9z M22,24.9l-3.3,1.4c-0.1-0.1-0.1-0.2-0.2-0.3l-0.1-0.1l1.4-3.3l0.4-0.4
		c0.6,0,1,0.5,1,1c0,0,0,0,0,0.1c0,0.1,0,0.1-0.1,0.2c0,0,1.2-0.3,1.3,0.9L22,24.9z M25.7,18.5l-3.1,3.1c-0.2,0.2-0.6,0.2-0.8,0
		c-0.2-0.2-0.2-0.5,0-0.7l3.1-3.1c0.2-0.2,0.6-0.2,0.8,0C25.9,18,25.9,18.3,25.7,18.5z M28.2,18.7l-2.2-2.2l1.4-1.4l2.2,2.2
		L28.2,18.7z M31.1,13.1C31.1,13.1,31.1,13.1,31.1,13.1L29.3,15c-0.2,0.2-0.6,0.2-0.8,0c-0.2-0.2-0.2-0.5,0-0.7l1.8-1.8
		c0.2-0.2,0.5-0.2,0.8,0S31.3,12.9,31.1,13.1z"/>
	<path class="st1" d="M26.7,24.2c-0.4,0-0.8,0.3-0.8,0.8v5.8c0,0.9-0.8,1.7-1.7,1.7H7.3c-0.9-0.1-1.6-0.8-1.6-1.7V10
		c0-0.9,0.7-1.7,1.6-1.8h2.1c0,0.5,0.4,1,0.9,1h10.6c0,0,1.1,0,1.1-1V8.2h2.1c0.9,0.1,1.7,0.8,1.7,1.8v1.3c0,0.4,0.4,0.8,0.8,0.8h0
		c0.4,0,0.8-0.4,0.8-0.8V10c0-1.8-1.5-3.3-3.3-3.3h-3.4c-0.2-0.4-0.5-0.6-0.9-0.5h-1c0,0-1.2,0.1-1.2-1V3.1c0,0,0.1-1.1-2.1-1.1
		c0,0-2.1,0.1-2.1,1v2.1c0,0.5-0.3,0.9-0.7,1h-1.2c-0.4,0-0.7,0.2-0.9,0.5H7.3C5.6,6.7,4.2,8.2,4.2,10v20.8c0,1.8,1.3,3.2,3.1,3.3
		c0,0,0,0,0,0h16.9c1.8,0,3.2-1.4,3.3-3.2c0,0,0,0,0,0V25C27.4,24.5,27.1,24.2,26.7,24.2z M15.6,3.1c0.6,0,1,0.5,1,1
		c0,0.6-0.5,1-1,1c-0.6,0-1-0.5-1-1C14.5,3.6,15,3.1,15.6,3.1z"/>
	<path class="st1" d="M22,14.2c0-0.4-0.3-0.8-0.8-0.8H9.9c-0.4,0-0.8,0.3-0.8,0.8S9.4,15,9.9,15h11.4C21.7,15,22,14.6,22,14.2z"/>
	<path class="st1" d="M17.9,18.3c0-0.4-0.3-0.8-0.8-0.8H9.9c-0.4,0-0.8,0.3-0.8,0.8s0.3,0.8,0.8,0.8h7.2
		C17.5,19.1,17.9,18.7,17.9,18.3z"/>
	<path class="st1" d="M14.8,22.4c0-0.4-0.3-0.8-0.8-0.8H9.9c-0.4,0-0.8,0.3-0.8,0.8s0.3,0.8,0.8,0.8H14
		C14.4,23.2,14.8,22.9,14.8,22.4z"/>
	<path class="st1" d="M9.9,25.8c-0.4,0-0.8,0.3-0.8,0.8s0.3,0.8,0.8,0.8h1.5c0.4,0,0.8-0.3,0.8-0.8s-0.3-0.8-0.8-0.8H9.9z"/>
</g>
</svg>
