<?xml version="1.0" encoding="utf-8"?>
<!-- Generator: Adobe Illustrator 22.0.1, SVG Export Plug-In . SVG Version: 6.00 Build 0)  -->
<svg version="1.1" id="Layer_1" xmlns="http://www.w3.org/2000/svg" xmlns:xlink="http://www.w3.org/1999/xlink" x="0px" y="0px"
	 viewBox="0 0 36 36" style="enable-background:new 0 0 36 36;" xml:space="preserve">
<style type="text/css">
	.st0{fill:none;}
	.st1{fill:#8D95A2;}
</style>
<g id="Group_59724" transform="translate(12924 -9047)">
	<g id="Group_29233">
		<rect id="Rectangle_6659" x="-12924" y="9047" class="st0" width="36" height="36"/>
	</g>
	<path class="st1" d="M-12893,9054.2c-4.4-4.3-10.3-2.5-12.8-0.6c-1.4-1.3-3.8-2.6-6.7-2.6c-2.6,0-5,1.1-7,3.3
		c-1.7,2.1-2.4,4.5-2.1,7c0.4,3.5,2.7,6.2,4,7.3c-0.1,0.7,0.1,1.5,0.5,2.1c0.5,0.7,1.3,1,2.1,1c0,0,0.1,0,0.1,0
		c0,0.6,0.2,1.2,0.6,1.8c0.5,0.7,1.3,1,2.1,1c0,0,0.1,0,0.1,0c0,0.6,0.2,1.2,0.6,1.8c0.5,0.7,1.3,1,2.1,1c0,0,0.1,0,0.1,0
		c0,0.6,0.2,1.2,0.6,1.8c0.5,0.7,1.3,1,2.1,1c0.6,0,1.2-0.2,1.8-0.6l0.9-0.9c0.5-0.5,0.9-0.9,1.4-1.4c0.3-0.4,0.5-0.8,0.5-1.2
		c0.2,0.1,0.5,0.1,0.7,0.1c0.2,0,0.5,0,0.7-0.1c1-0.3,1.8-1.1,2.1-2.1c0-0.2,0.1-0.4,0.1-0.5c0,0,0.1,0,0.1,0c0.7,0,1.4-0.3,1.9-0.8
		c0.5-0.5,0.8-1.2,0.8-1.9c0,0,0,0,0,0c0.4,0,0.7-0.1,1-0.2c0.9-0.4,1.5-1.4,1.6-2.4c1.3-1.1,2.6-3.6,2.8-6.4
		C-12890.2,9059.3-12890.6,9056.6-12893,9054.2z M-12915.9,9069.6c-0.4-0.5-0.3-1.2,0.2-1.6l0.6-0.6c0.5-0.6,0.9-0.9,1.4-1.3
		c0.2-0.2,0.5-0.3,0.8-0.3c0.3,0,0.6,0.1,0.8,0.3c0.4,0.4,0.5,1.1,0.1,1.5c-0.4,0.4-0.9,0.9-1.3,1.3c-0.3,0.3-0.7,0.6-0.9,0.9
		C-12914.8,9070.2-12915.5,9070.1-12915.9,9069.6z M-12913.2,9072.4c-0.4-0.5-0.3-1.2,0.2-1.6l0.6-0.6c0.5-0.6,0.9-0.9,1.4-1.3
		c0.2-0.2,0.5-0.3,0.8-0.3c0.3,0,0.6,0.1,0.8,0.3c0.4,0.4,0.5,1.1,0.1,1.5c-0.4,0.4-0.9,0.9-1.3,1.3c-0.3,0.3-0.7,0.6-0.9,0.9
		C-12912,9073-12912.8,9072.9-12913.2,9072.4z M-12910.4,9075.1c-0.4-0.5-0.3-1.2,0.2-1.6l0.6-0.6c0.5-0.6,0.9-0.9,1.4-1.3
		c0.2-0.2,0.5-0.3,0.8-0.3c0.3,0,0.6,0.1,0.8,0.3c0.4,0.4,0.5,1.1,0.1,1.5c-0.4,0.4-0.9,0.9-1.3,1.3c-0.3,0.3-0.7,0.6-0.9,0.9
		C-12909.3,9075.7-12910,9075.6-12910.4,9075.1z M-12903.8,9075.9c-0.4,0.4-0.9,0.9-1.3,1.3l-0.9,0.9c-0.5,0.4-1.2,0.3-1.6-0.2
		c-0.4-0.5-0.3-1.2,0.2-1.6l0.6-0.6c0.5-0.5,0.9-0.9,1.4-1.3c0.2-0.2,0.5-0.3,0.8-0.3c0.3,0,0.6,0.1,0.8,0.3
		C-12903.5,9074.8-12903.4,9075.4-12903.8,9075.9z M-12895.3,9068.7c-0.4,0.2-0.7,0.1-1.1-0.2l-0.3-0.2c-0.6-0.6-1.3-1.3-2.1-2
		l-3.6-3.4l-0.1,0.1c-0.1-0.1-0.1-0.1-0.2-0.1l-1,1.1c0,0,2,1.9,3.8,3.6l2,1.9c0,0,0.1,0.1,0.1,0.1c0.7,0.7,0.3,1.4,0,1.7
		c-0.1,0.1-0.8,0.8-1.5,0l-0.3-0.3c-0.5-0.5-1.2-1.1-1.9-1.8l-3.7-3.6l-0.1,0.1c-0.1-0.1-0.1-0.1-0.2-0.1l-1,1.1c0,0,2.1,2,4,3.7
		l1.8,1.7c0.1,0.1,0.1,0.1,0.2,0.2c0.3,0.3,0.4,0.6,0.3,1c-0.1,0.5-0.6,0.9-1,1c-0.5,0.1-1,0-1.4-0.5l0,0c-0.1-0.2-0.2-0.4-0.4-0.5
		l0,0c-0.5-0.5-1.2-0.7-1.9-0.7c0-0.7-0.2-1.5-0.8-2l0,0c-0.5-0.5-1.2-0.7-1.9-0.7c0-0.7-0.2-1.5-0.8-2l0,0
		c-0.5-0.5-1.2-0.7-1.9-0.7c0-0.7-0.2-1.5-0.8-2l0,0c-1-0.9-2.5-0.9-3.5-0.1c-0.6,0.5-0.9,0.9-1.5,1.4l-0.6,0.6
		c-0.1,0.1-0.1,0.1-0.2,0.2c-1.3-1.2-2.9-3.5-3.2-6.1c-0.2-2.1,0.4-4.1,1.8-5.8c1.7-1.8,3.7-2.8,5.9-2.7c2.2,0,4.3,1,5.6,2.2
		c-1.9,1.9-5.8,5.9-5.8,5.9l-0.6,0.6l0.7,0.5c1.4,1,4.6,2.2,6.9-0.1l2.9-2.9l8.1,8.1c0.1,0.1,0.3,0.3,0.3,0.4
		C-12894.4,9067.9-12894.9,9068.5-12895.3,9068.7z M-12891.8,9061.1c-0.1,2.1-1,3.9-1.7,4.8c-0.1-0.1-0.2-0.2-0.3-0.3l-9.1-9.1l-4,4
		c-1.4,1.4-3.2,0.9-4.2,0.4c1.3-1.4,4.3-4.4,5.6-5.7c1.2-1.2,7.1-4.2,11.4,0C-12892,9057.3-12891.7,9059.5-12891.8,9061.1z"/>
</g>
</svg>
