<?xml version="1.0" encoding="utf-8"?>
<!-- Generator: Adobe Illustrator 21.1.0, SVG Export Plug-In . SVG Version: 6.00 Build 0)  -->
<svg version="1.1" id="Layer_1" xmlns="http://www.w3.org/2000/svg" xmlns:xlink="http://www.w3.org/1999/xlink" x="0px" y="0px"
	 viewBox="0 0 21 16.6" style="enable-background:new 0 0 21 16.6;" xml:space="preserve">
<style type="text/css">
	.st0{fill:#FFFFFF;}
</style>
<g>
	<path class="st0" d="M14.3,4.6c-0.1-0.1-0.3-0.2-0.5-0.2c-0.2,0-0.4,0.2-0.4,0.4c0,0.2,0,0.4,0.2,0.5C15,7,15,9.5,13.5,11.1
		c-0.1,0.1-0.1,0.3-0.1,0.4c0,0.1,0.1,0.3,0.2,0.4c0.2,0.1,0.3,0.2,0.5,0.1V12l0.2-0.2C16.2,9.8,16.2,6.6,14.3,4.6z"/>
	<path class="st0" d="M16,3c-0.1-0.1-0.3-0.2-0.5-0.2c-0.2,0-0.4,0.2-0.4,0.4c0,0.2,0,0.4,0.2,0.5c2.4,2.4,2.4,6.4,0,8.9
		c-0.2,0.2-0.2,0.4-0.2,0.6c0.1,0.2,0.2,0.4,0.4,0.4c0.1,0,0.2,0,0.3,0v0.1l0.2-0.2C18.9,10.5,18.9,5.9,16,3z"/>
	<path class="st0" d="M18.4,1.9c-0.1-0.1-0.3-0.2-0.5-0.2c-0.2,0-0.4,0.2-0.4,0.4c0,0.2,0,0.4,0.2,0.5c3.1,3.2,3.1,8.1,0,11.3
		c-0.2,0.2-0.3,0.5-0.1,0.8c0.1,0.1,0.2,0.2,0.4,0.2c0,0,0,0,0.1,0c0.1,0,0.2,0,0.3-0.1c0,0,0,0,0,0v0C21.9,11.2,21.9,5.4,18.4,1.9z
		 M18.3,14.7L18.3,14.7L18.3,14.7L18.3,14.7z"/>
	<path class="st0" d="M11.1,0.1c-0.3-0.1-0.6,0-0.9,0.1L4.5,4H1c0,0,0,0,0,0C0.5,4,0,4.4,0,5v6.7c0,0.3,0.1,0.5,0.3,0.7
		c0.2,0.2,0.5,0.3,0.7,0.3c0,0,0,0,0,0h3.4l5.8,3.7c0.2,0.1,0.4,0.2,0.6,0.2c0,0,0,0,0,0c0.3,0,0.5-0.1,0.7-0.3
		c0.2-0.2,0.3-0.5,0.3-0.8L12,1c0-0.1-0.1-0.3-0.1-0.4C11.7,0.3,11.4,0.1,11.1,0.1z M1,11.7V5c0,0,0,0,0,0H4v6.8L1,11.7z M10.9,15.5
		c0,0,0,0.1-0.1,0.1L5,11.9v-0.1V4.9V4.9L10.8,1l-0.3-0.4L11,1L10.9,15.5z"/>
</g>
</svg>
