<svg xmlns="http://www.w3.org/2000/svg" xmlns:xlink="http://www.w3.org/1999/xlink" viewBox="-5516 647 81.118 81.118">
  <defs>
    <style>
      .cls-1 {
        opacity: 0.3;
      }

      .cls-2 {
        fill: #fff;
        opacity: 0.8;
      }

      .cls-3 {
        filter: url(#Union_46);
      }

      .cls-4 {
        filter: url(#Path_32459);
      }
    </style>
    <filter id="Path_32459" x="-5516" y="647" width="81.118" height="81.118" filterUnits="userSpaceOnUse">
      <feOffset dy="3" input="SourceAlpha"/>
      <feGaussianBlur stdDeviation="3" result="blur"/>
      <feFlood flood-opacity="0.161"/>
      <feComposite operator="in" in2="blur"/>
      <feComposite in="SourceGraphic"/>
    </filter>
    <filter id="Union_46" x="-5516" y="647" width="81.118" height="81.118" filterUnits="userSpaceOnUse">
      <feOffset dy="3" input="SourceAlpha"/>
      <feGaussianBlur stdDeviation="3" result="blur-2"/>
      <feFlood flood-opacity="0.161"/>
      <feComposite operator="in" in2="blur-2"/>
      <feComposite in="SourceGraphic"/>
    </filter>
  </defs>
  <g id="Group_47265" data-name="Group 47265" transform="translate(-6435)">
    <g class="cls-4" transform="matrix(1, 0, 0, 1, 6435, 0)">
      <path id="Path_32459-2" data-name="Path 32459" class="cls-1" d="M31.559,0A31.559,31.559,0,1,0,63.118,31.559,31.531,31.531,0,0,0,31.559,0Z" transform="translate(-5507 653)"/>
    </g>
    <g id="Symbol_299" data-name="Symbol 299" transform="translate(277 246)">
      <g class="cls-3" transform="matrix(1, 0, 0, 1, 6158, -246)">
        <path id="Union_46-2" data-name="Union 46" class="cls-2" d="M343,354.56a31.559,31.559,0,1,1,31.559,31.559A31.531,31.531,0,0,1,343,354.56Zm3.135,0a28.424,28.424,0,1,0,28.425-28.425A28.454,28.454,0,0,0,346.135,354.56Zm21.005-14,21.632,13.793L367.14,368.144Z" transform="translate(-5850 330)"/>
      </g>
    </g>
  </g>
</svg>
