<?xml version="1.0" encoding="utf-8"?>
<!-- Generator: Adobe Illustrator 21.1.0, SVG Export Plug-In . SVG Version: 6.00 Build 0)  -->
<svg version="1.1" id="Layer_1" xmlns="http://www.w3.org/2000/svg" xmlns:xlink="http://www.w3.org/1999/xlink" x="0px" y="0px"
	 viewBox="0 0 13.1 13" style="enable-background:new 0 0 13.1 13;" xml:space="preserve">
<style type="text/css">
	.st0{fill:#FFFFFF;}
</style>
<g id="Group_47262" transform="translate(-5233.006 809.655)">
	<path id="Path_55984" class="st0" d="M5245.5-802.7c-0.3,0-0.6,0.3-0.6,0.6c0,0,0,0,0,0v3.8c0,0.2-0.2,0.4-0.4,0.4h-9.9
		c-0.2,0-0.4-0.2-0.4-0.4v-9.8c0-0.2,0.2-0.4,0.4-0.4h3.9c0.3,0,0.6-0.3,0.6-0.6c0,0,0,0,0,0c0-0.3-0.3-0.6-0.6-0.6c0,0,0,0,0,0
		h-3.9c-0.9,0-1.6,0.7-1.6,1.6c0,0,0,0,0,0v9.8c0,0.9,0.7,1.6,1.6,1.6c0,0,0,0,0,0h9.9c0.9,0,1.6-0.7,1.6-1.6c0,0,0,0,0,0v-3.9
		C5246.1-802.4,5245.9-802.7,5245.5-802.7z"/>
	<path id="Path_55985" class="st0" d="M5246.2-809v-0.1c0,0,0,0,0,0c0,0,0,0,0-0.1s0,0,0,0c0,0,0,0,0-0.1c0,0,0-0.1-0.1-0.1l0,0l0,0
		c0,0,0,0-0.1,0c0,0,0,0-0.1,0c0,0,0,0,0,0c0,0,0,0,0,0c0,0,0,0-0.1,0h-4.3c-0.3,0-0.6,0.3-0.6,0.6c0,0,0,0,0,0
		c0,0.3,0.3,0.6,0.6,0.6h2.7l-4.4,4.4c-0.2,0.2-0.2,0.6,0,0.9c0.1,0.1,0.3,0.2,0.5,0.2c0.2,0,0.3-0.1,0.4-0.2l4.4-4.4v2.6
		c0,0.3,0.3,0.6,0.6,0.6s0.6-0.3,0.6-0.6V-809z"/>
</g>
</svg>
