<?xml version="1.0" encoding="utf-8"?>
<!-- Generator: Adobe Illustrator 21.1.0, SVG Export Plug-In . SVG Version: 6.00 Build 0)  -->
<svg version="1.1" id="Layer_1" xmlns="http://www.w3.org/2000/svg" xmlns:xlink="http://www.w3.org/1999/xlink" x="0px" y="0px"
	 viewBox="0 0 21.9 16.6" style="enable-background:new 0 0 21.9 16.6;" xml:space="preserve">
<style type="text/css">
	.st0{fill:#FFFFFF;}
</style>
<path class="st0" d="M21.9,15.2l-2.4-1.9c2.3-3.5,1.9-8.3-1.1-11.4c-0.1-0.1-0.3-0.2-0.5-0.2c-0.2,0-0.4,0.2-0.4,0.4
	c0,0.2,0,0.4,0.2,0.5c2.7,2.8,3,6.9,1,10l-1.3-1c1.4-2.8,1-6.3-1.3-8.6c-0.1-0.1-0.3-0.2-0.5-0.2c-0.2,0-0.4,0.2-0.4,0.4
	c0,0.2,0,0.4,0.2,0.5c1.9,2,2.3,4.9,1.1,7.2l-1.1-0.8c0.7-1.8,0.4-4-1.1-5.5c-0.1-0.1-0.3-0.2-0.5-0.2c-0.2,0-0.4,0.2-0.4,0.4
	c0,0.2,0,0.4,0.2,0.5c1.1,1.1,1.3,2.7,0.9,4.1l-2.5-1.9L12,1c0-0.1-0.1-0.3-0.1-0.4c-0.2-0.3-0.4-0.4-0.7-0.5
	c-0.3-0.1-0.6,0-0.9,0.1L6.1,2.9L2.5,0.1L1.9,0.9l3.3,2.6L4.5,4H1c0,0,0,0,0,0C0.5,4,0,4.4,0,5v6.7c0,0.3,0.1,0.5,0.3,0.7
	c0.2,0.2,0.5,0.3,0.7,0.3c0,0,0,0,0,0h3.4l5.8,3.7c0.2,0.1,0.4,0.2,0.6,0.2c0,0,0,0,0,0c0.3,0,0.5-0.1,0.7-0.3
	c0.2-0.2,0.3-0.5,0.3-0.8l0-6.8l2.1,1.6c-0.2,0.3-0.3,0.5-0.6,0.7c-0.1,0.1-0.1,0.3-0.1,0.4c0,0.1,0.1,0.3,0.2,0.4
	c0.2,0.1,0.3,0.2,0.5,0.1V12l0.2-0.2c0.2-0.2,0.4-0.5,0.6-0.8l1,0.8c-0.2,0.3-0.4,0.5-0.6,0.8c-0.2,0.2-0.2,0.4-0.2,0.6
	c0.1,0.2,0.2,0.4,0.4,0.4c0.1,0,0.2,0,0.3,0v0.1l0.2-0.2c0.3-0.3,0.5-0.6,0.7-0.9l1.3,1c-0.1,0.2-0.3,0.3-0.4,0.5
	c-0.2,0.2-0.3,0.5-0.1,0.8c0.1,0.1,0.2,0.2,0.4,0.2c0,0,0,0,0.1,0c0.1,0,0.2,0,0.3-0.1c0,0,0,0,0,0v0c0.2-0.2,0.4-0.4,0.5-0.6
	l2.4,1.9L21.9,15.2z M10.8,1l-0.3-0.4L11,1l0,5.6l-4-3.1L10.8,1z M1,11.7V5c0,0,0,0,0,0H4v6.8L1,11.7z M10.9,15.5c0,0,0,0.1-0.1,0.1
	L5,11.9v-0.1V4.9V4.9L6,4.1L10.9,8L10.9,15.5z M18.3,14.7L18.3,14.7L18.3,14.7L18.3,14.7z"/>
</svg>
