<svg id="Layer_1" data-name="Layer 1" xmlns="http://www.w3.org/2000/svg" viewBox="0 0 300 300"><defs><style>.cls-1{fill:#fff;}.cls-2{fill:#dadbdb;}.cls-3{fill:#979797;}.cls-4{fill:#e3e5e5;}</style></defs><title>Infog</title><rect class="cls-1" x="69.47" y="101.93" width="148.94" height="81.27"/><rect class="cls-1" x="69.47" y="97.94" width="148.94" height="3.99"/><path class="cls-2" d="M84.36,139.73A4.36,4.36,0,0,0,80,144.09c0,2.2,3.22,6.52,4.36,8.23,1.2-1.73,4.36-5.75,4.36-8.23A4.36,4.36,0,0,0,84.36,139.73Zm0,6.56a2.22,2.22,0,1,1,2.22-2.22A2.22,2.22,0,0,1,84.36,146.29Z"/><polygon class="cls-1" points="198.38 107.25 201.05 113.44 207.77 114.07 202.7 118.52 204.18 125.1 198.38 121.66 192.58 125.1 194.06 118.52 188.99 114.07 195.71 113.44 198.38 107.25"/><path class="cls-3" d="M205.66,127.14l-7.29-4.32-7.28,4.32,1.85-8.26-6.36-5.59,8.43-.79,3.36-7.77,3.36,7.77,8.43,0.79-6.36,5.59Zm-14.27-12.3,3.77,3.32-1.1,4.9,4.32-2.56,4.32,2.56-1.1-4.9,3.77-3.32-5-.47-2-4.61-2,4.61Z"/><path class="cls-4" d="M219,182V77h-2V97H70V77H68V182h0v20H220V182h-1ZM70,103H217v79H70V103Z"/><rect class="cls-4" x="79" y="118" width="58" height="9"/><rect class="cls-4" x="79" y="109" width="36" height="4"/><rect class="cls-4" x="96" y="142" width="77" height="6"/><rect class="cls-4" x="96" y="154" width="35" height="6"/><rect class="cls-1" x="98.76" y="185.58" width="1" height="12.33"/><rect class="cls-1" x="188.12" y="185.58" width="1" height="12.33"/><rect class="cls-1" x="158.33" y="185.58" width="1" height="12.33"/><rect class="cls-1" x="128.54" y="185.58" width="1" height="12.33"/><path class="cls-1" d="M235.31,157.85h-1a5.19,5.19,0,0,0-4.91,3.51v-0.16a5.21,5.21,0,0,0-5.21-5.2h-1a5.21,5.21,0,0,0-4.91,3.53v-0.17a5.19,5.19,0,0,0-5.2-5.22h-1a5.2,5.2,0,0,0-4.91,3.52v-27a5.2,5.2,0,0,0-5.21-5.2h-1a5.21,5.21,0,0,0-5.21,5.2V181.9L185,170.12a5.3,5.3,0,0,0-7.5-.34l-0.76.69a5.34,5.34,0,0,0-.34,7.51l22.25,24.39a1.93,1.93,0,0,1,.17.14,13.52,13.52,0,0,0,9,4.93v9h26V203a13.57,13.57,0,0,0,6.41-10.16,5,5,0,0,0,.35-1.84v-28A5.22,5.22,0,0,0,235.31,157.85Z"/><polyline class="cls-1" points="202.82 223.84 202.82 212.18 239.34 212.18 239.34 223.84"/><path class="cls-3" d="M235.32,156h0l-1,.19a6.76,6.76,0,0,0-4.28,1.65,8,8,0,0,0-1.11-1.66c-1.27-1.27-3-1.18-4.72-2.18h-1a6.9,6.9,0,0,0-4.27,1.82,5.26,5.26,0,0,0-1.11-1.16A6.36,6.36,0,0,0,213.1,153h-1a5.19,5.19,0,0,0-3.07.61v-23a6.75,6.75,0,0,0-2.15-4.71A7,7,0,0,0,202,124h-1a6.67,6.67,0,0,0-6.7,6.66v47.42l-8.17-9a6.79,6.79,0,0,0-9.6-.44l-0.76.69a6.83,6.83,0,0,0-.43,9.61l22.25,24.39,0.17,0.16,0,0a15,15,0,0,0,8.58,5.23V211h-3.49a1.69,1.69,0,0,0-1.82,1.33V224a1.5,1.5,0,0,0,3,0V214h34v10a1.5,1.5,0,0,0,3,0V212.33a1.52,1.52,0,0,0-1.66-1.33h-4.1v-7.09a15.22,15.22,0,0,0,6.38-10.66A6.82,6.82,0,0,0,242,191v-28A7,7,0,0,0,235.32,156ZM239,191.06a3.54,3.54,0,0,1-.23,1.29,1.45,1.45,0,0,0-.08.38,12.16,12.16,0,0,1-5.71,9,1.62,1.62,0,0,0-.7,1.34V211h-23v-3.49A1.53,1.53,0,0,0,208,206a12,12,0,0,1-8-4.41l-0.11-.13-0.21-.18L177.49,177a3.85,3.85,0,0,1,.24-5.41l0.76-.69a3.84,3.84,0,0,1,2.75-1,3.79,3.79,0,0,1,2.65,1.24l10.76,11.78a1.49,1.49,0,0,0,2.59-1V130.67a3.68,3.68,0,0,1,3.73-3.67h1a4,4,0,0,1,2.78,1,3.76,3.76,0,0,1,1.26,2.59v27a1.35,1.35,0,0,0,1.08,1.47,1.28,1.28,0,0,0,1.57-.8,3.46,3.46,0,0,1,3.42-2.34h1a3.76,3.76,0,0,1,2.72.9,3.4,3.4,0,0,1,1.19,2.46v0.17a1.4,1.4,0,0,0,1.14,1.47,1.43,1.43,0,0,0,1.6-1,3.94,3.94,0,0,1,3.46-2.78l1-.24h0a4,4,0,0,1,2.65,1.33,4.34,4.34,0,0,1,1.14,2.88v0.16a1.45,1.45,0,0,0,2.83.48,3.7,3.7,0,0,1,3.51-2.5h1a3.72,3.72,0,0,1,3.7,3.73v28Z"/></svg>