<svg id="Layer_1" data-name="Layer 1" xmlns="http://www.w3.org/2000/svg" viewBox="0 0 150 150"><defs><style>.cls-1{fill:#dcddde;}.cls-2{fill:#f28c6e;}.cls-3{fill:#3fc0c2;}.cls-4{fill:#ffcc08;}.cls-5{fill:#b1b3b6;}.cls-6{fill:none;}</style></defs><title>Infographic_PanoInstructions_150x150</title><g id="Layer_1-2" data-name="Layer 1"><path class="cls-1" d="M119.1,134.4V98.2a1.58,1.58,0,0,0-1.6-1.6H32.8a1.58,1.58,0,0,0-1.6,1.6v36.2H63.9v-8.9a.68.68,0,0,1,.7-.7H85.5a.68.68,0,0,1,.7.7v8.9h32.9ZM57.7,114.9a.68.68,0,0,1-.7.7H35.9a.68.68,0,0,1-.7-.7V105a.68.68,0,0,1,.7-.7h21a.68.68,0,0,1,.7.7l.1,9.9Zm10.3,0a.68.68,0,0,1-.7.7H61.9a.68.68,0,0,1-.7-.7V105a.68.68,0,0,1,.7-.7h5.5a.68.68,0,0,1,.7.7v9.9Zm10.5,0a.68.68,0,0,1-.7.7H72.3a.68.68,0,0,1-.7-.7V105a.68.68,0,0,1,.7-.7h5.6a.68.68,0,0,1,.7.7v9.9Zm10.2,0a.68.68,0,0,1-.7.7H82.5a.68.68,0,0,1-.7-.7V105a.68.68,0,0,1,.7-.7H88a.68.68,0,0,1,.7.7Zm26,0a.68.68,0,0,1-.7.7H93.1a.68.68,0,0,1-.7-.7V105a.68.68,0,0,1,.7-.7H114a.68.68,0,0,1,.7.7Z"/><polygon class="cls-1" points="113.4 93.6 103.7 87.1 21.2 87.1 30.9 93.6 113.4 93.6"/><polygon class="cls-1" points="21 124.5 28.1 131.7 28.1 95.5 21 90.7 21 124.5"/></g><path class="cls-2" d="M101.1,28.9H93.8a.9.9,0,0,0-.9.9V40.6a.9.9,0,0,0,.9.9h7.3a.9.9,0,0,0,.9-.9V29.8A1,1,0,0,0,101.1,28.9Z"/><polygon class="cls-2" points="95.4 42.2 94.6 44.2 100.2 44.2 99.4 42.2 95.4 42.2"/><polygon class="cls-3" points="75.4 94.5 72.3 92.7 97.7 48.9 96 47.9 70.6 91.7 67.6 90 67.6 99 75.4 94.5"/><path class="cls-4" d="M74.8,14.5a27.12,27.12,0,0,0-6.6-.8,28.4,28.4,0,0,0-6.6.8l-.1.1c0,.1.1.1.2.1a27.12,27.12,0,0,0,6.6.8,28.4,28.4,0,0,0,6.6-.8.35.35,0,0,0,.2-.1A.44.44,0,0,1,74.8,14.5Z"/><path class="cls-4" d="M90.6,14.5a27.12,27.12,0,0,0-6.6-.8,28.4,28.4,0,0,0-6.6.8.35.35,0,0,0-.2.1c0,.1.1.1.2.1a27.12,27.12,0,0,0,6.6.8,28.4,28.4,0,0,0,6.6-.8.35.35,0,0,0,.2-.1C90.7,14.6,90.7,14.5,90.6,14.5Z"/><path class="cls-4" d="M76.1,12.8c-.5,0-1,1-1,2.2H77C77,13.8,76.6,12.8,76.1,12.8Z"/><path class="cls-4" d="M117.8,14.5a27.12,27.12,0,0,0-6.6-.8,28.4,28.4,0,0,0-6.6.8.35.35,0,0,0-.2.1c0,.1.1.1.2.1a27.12,27.12,0,0,0,6.6.8,28.4,28.4,0,0,0,6.6-.8.35.35,0,0,0,.2-.1C117.8,14.6,117.8,14.5,117.8,14.5Z"/><path class="cls-4" d="M133.6,14.5a27.12,27.12,0,0,0-6.6-.8,28.4,28.4,0,0,0-6.6.8.35.35,0,0,0-.2.1c0,.1.1.1.2.1a27.12,27.12,0,0,0,6.6.8,28.4,28.4,0,0,0,6.6-.8.35.35,0,0,0,.2-.1C133.7,14.6,133.7,14.5,133.6,14.5Z"/><path class="cls-4" d="M119.1,12.8c-.5,0-.9,1-.9,2.2h1.9C120,13.8,119.6,12.8,119.1,12.8Z"/><path class="cls-5" d="M122.2,22.2h0a2.23,2.23,0,0,0-2-1.9h0V16.4h-2.3v3.9h-8.4a8.06,8.06,0,0,1-3.9-1.4,16.87,16.87,0,0,0-8-2.3,15.81,15.81,0,0,0-8,2.3,8.42,8.42,0,0,1-3.9,1.4H77.3V16.4H74.9v3.9a2.23,2.23,0,0,0-2,1.9,6.72,6.72,0,0,0,1.3,4.2,2.29,2.29,0,0,0,1.7.8,2.25,2.25,0,0,0,1.6-.8,5.84,5.84,0,0,0,1.3-3.8h8.1a4.77,4.77,0,0,0-1.7,2.6c-.1.4-.3,2.4-.7,4.6-.4,2.7-.9,5.8-1.1,6.8a1.79,1.79,0,0,0,.3,1.8.78.78,0,0,0,.8.2,1.75,1.75,0,0,0,1-1.4c.2-.6.5-2.3,1-4.2.8-3,1.6-6.6,1.7-7.3s.6-1.1,1.5-1.1h2.7c.2.2.3.4.5.6a3.55,3.55,0,0,0,2.3,1.7h.6v8.7a.9.9,0,0,0,.9.9h.8a.9.9,0,0,0,.9-.9V27.2a3.44,3.44,0,0,0,.9-.1,3.33,3.33,0,0,0,2.3-1.7c.2-.2.3-.4.5-.6h2.8c.9,0,1.3.3,1.5,1.1s1.1,4.5,1.8,7.6l.9,3.8c.2.7.5,1.2,1,1.3h.2a.71.71,0,0,0,.6-.3,1.84,1.84,0,0,0,.3-1.8c-.2-1-.7-4.1-1.1-6.8a31.8,31.8,0,0,0-.8-4.6,4.64,4.64,0,0,0-1.6-2.6h8.2a6.24,6.24,0,0,0,1.3,3.8,2.25,2.25,0,0,0,1.6.8,2.67,2.67,0,0,0,1.7-.8A4.75,4.75,0,0,0,122.2,22.2Z"/><rect class="cls-4" x="80.5" y="20.3" width="0.8" height="2.3"/><rect class="cls-4" x="82.2" y="20.3" width="0.8" height="2.3"/><rect class="cls-4" x="112.2" y="20.3" width="0.8" height="2.3"/><rect class="cls-4" x="113.9" y="20.3" width="0.8" height="2.3"/><rect class="cls-6" x="0.1" width="150" height="150"/></svg>