<svg id="Layer_1" data-name="Layer 1" xmlns="http://www.w3.org/2000/svg" viewBox="0 0 300 300"><defs><style>.cls-1{fill:#aaa;}</style></defs><title>Infog</title><path class="cls-1" d="M118,191.2l-44.11,2.89a0.56,0.56,0,0,1-.6-0.53l-6-91.16a0.56,0.56,0,0,1,.14-0.41,0.58,0.58,0,0,1,.4-0.2l27.14-2a2.27,2.27,0,0,0,2.1-2.43,2.24,2.24,0,0,0-2.43-2.1l-27.12,2a5.12,5.12,0,0,0-4.77,5.43l6,91.16a5.12,5.12,0,0,0,5.1,4.78h0.34l44.11-2.89A2.27,2.27,0,0,0,118,191.2Z"/><path class="cls-1" d="M247.47,102.85a5.07,5.07,0,0,0-3.4-1.94L107.23,83.77a5.12,5.12,0,0,0-5.71,4.44L90.16,178.85a5.12,5.12,0,0,0,4.43,5.71l136.85,17.15a5.24,5.24,0,0,0,.64,0,5.12,5.12,0,0,0,5.07-4.48l11.36-90.65A5.07,5.07,0,0,0,247.47,102.85ZM101.74,124.14l17.37,2.18L117.65,138l-17.52-2.19,1.46-11.65h0.15ZM115.62,172l1-8.14L148,167.75l-1,8.14Zm-1.32-7.18-17.52-2.2,1.42-11.35,17.52,2.2ZM116,151.55l-17.52-2.2,1.46-11.68,17.52,2.19ZM96.54,164.46l17.52,2.2-0.63,5-17.52-2.19Zm51.74,1.24-31.39-3.93,1.87-15,31.39,3.93Zm2.13-17L119,144.76,121,129.37l31.39,3.93Zm2.18-17.43-31.39-3.93L123,112.8a1,1,0,0,1,1.11-.87l29.41,3.69a1,1,0,0,1,.87,1.11ZM232,197.2L95.16,180.05a0.57,0.57,0,0,1-.38-0.22,0.56,0.56,0,0,1-.12-0.42l1-7.93,138,17.29-1,7.93A0.56,0.56,0,0,1,232,197.2Zm4.71-64.1-0.29,2.36-8.54-1.07,0.3-2.36Zm2.89,5a0.81,0.81,0,0,1,.36.15l-1.44,11.45-23.47-2.94L216.41,136a0.84,0.84,0,0,1,.93-0.72Zm-14.74,15.87,2.83,0.33-0.47,3.93-2.69-.31c0-.08-0.1-0.16-0.15-0.23Zm10.31,22.52L223,174.94l0.33-2.67,2.11,0.26h0.14a1.08,1.08,0,0,0,1.07-.94l0.5-4a1.08,1.08,0,0,0-.93-1.2l-2.11-.26,0.29-2.34,12.18,1.53ZM224,167.26l2.09,0.24-0.46,3.93-2.12-.24Zm-1.23,9.8,12.18,1.53-1,8.19-12.18-1.53Zm-7.93-28.21,23.47,2.94-1.43,11.43-12.18-1.53,0.25-2a3,3,0,0,0,0-.69l2.2,0.28h0.14a1.08,1.08,0,0,0,1.07-.94l0.5-4a1.08,1.08,0,0,0-.94-1.2l-2.88-.36a1.08,1.08,0,0,0-1.2.94l-0.37,2.93a3,3,0,0,0-1.14-.39l-1-.13,0.34-2.69a1.08,1.08,0,0,0-.94-1.2l-2.88-.36a1.08,1.08,0,0,0-1.2.93l-0.34,2.69-2.22-.28Zm5.35,7.2-2.84-.36,0.31-2.66,2.86,0.33Zm1.85,2.46a0.83,0.83,0,0,1,.72.93L219.52,185l-23.2-2.91,0.68-5.44a1.08,1.08,0,0,0-.94-1.2l-15.38-1.93a1.08,1.08,0,0,0-1.2.94l-0.68,5.44L155.59,177l3.2-25.53a0.84,0.84,0,0,1,.93-0.72Zm-26.78,23.42L179.89,180l0.66-5.42,15.36,1.9Zm45-46a3,3,0,0,0-.37-0.08l-1.27-.16,0.41-3.25,0-.5-0.28-.36a2,2,0,0,0-1.48-.66l-9.16-1.15a2,2,0,0,0-1.6.28l-0.39.32-0.46,3.71-8.08-1a3,3,0,0,0-3.39,2.63L211.8,155,160,148.52a3,3,0,0,0-3.39,2.64l-3.2,25.53-4.21-.53L156.61,117a3.21,3.21,0,0,0-2.78-3.58l-29.41-3.69a3.15,3.15,0,0,0-2.36.65,3.18,3.18,0,0,0-1.21,2.13l-1.45,11.6L102,121.95h-0.15L106,88.77a0.58,0.58,0,0,1,.57-0.5h0.07l136.85,17.15a0.57,0.57,0,0,1,.38.22,0.56,0.56,0,0,1,.12.42Z"/><path class="cls-1" d="M175.83,109c-0.17-3.33-3.11-6.26-7-6.78s-7.57,1.54-8.59,4.73a8.46,8.46,0,0,0-5.82,1.68,5.26,5.26,0,0,0-1.13,1.4,1.1,1.1,0,0,0,1.93,1.07,3.07,3.07,0,0,1,.66-0.82c1.76-1.55,5-1.07,5-1.06a1.08,1.08,0,0,0,.83-0.2,1.1,1.1,0,0,0,.43-0.74c0.34-2.56,3.18-4.29,6.35-3.87s5.39,2.78,5.12,5.34c0,0,0,.08,0,0.12a1.1,1.1,0,0,0,.11.64,1.12,1.12,0,0,0,1,.61h0.17a3.53,3.53,0,0,1,.4,0c2.78,0.37,4.8,2.5,4.5,4.74a3.71,3.71,0,0,1-1.79,2.62,5.7,5.7,0,0,1-3.8.77l-0.34-.07-0.25-.06-0.18,0h-0.24l-0.35,0-12-1.6a1.1,1.1,0,1,0-.29,2.19l12,1.6a5.1,5.1,0,0,0,.6,0l0.19,0a5.25,5.25,0,0,0,.58.12,8.38,8.38,0,0,0,1.12.08,7.73,7.73,0,0,0,4.15-1.17,5.87,5.87,0,0,0,2.79-4.19C182.36,112.82,179.65,109.66,175.83,109Z"/><path class="cls-1" d="M218.69,144.48l2.88,0.36h0.14a1.08,1.08,0,0,0,1.07-.94l0.5-4a1.08,1.08,0,0,0-.94-1.2l-2.88-.36a1.08,1.08,0,0,0-1.2.94l-0.5,4A1.08,1.08,0,0,0,218.69,144.48Zm0.63-5,2.86,0.33-0.48,3.93-2.84-.33Z"/><path class="cls-1" d="M225.92,145.38l2.88,0.36h0.14a1.08,1.08,0,0,0,1.07-.94l0.5-4a1.08,1.08,0,0,0-.93-1.2l-2.88-.36a1.08,1.08,0,0,0-1.2.93l-0.5,4A1.08,1.08,0,0,0,225.92,145.38Zm0.65-5,2.83,0.33-0.47,3.93-2.86-.33Z"/><path class="cls-1" d="M233.15,146.29l2.88,0.36h0.14a1.08,1.08,0,0,0,1.07-.94l0.5-4a1.08,1.08,0,0,0-.93-1.2l-2.88-.36a1.08,1.08,0,0,0-1.2.94l-0.5,4A1.08,1.08,0,0,0,233.15,146.29Zm0.65-5,2.83,0.33-0.46,3.93-2.86-.33Z"/><path class="cls-1" d="M231.45,159.85l2.88,0.36h0.14a1.08,1.08,0,0,0,1.07-.94l0.5-4a1.08,1.08,0,0,0-.93-1.2l-2.89-.36h0a1.09,1.09,0,0,0-1.2.94l-0.5,4A1.08,1.08,0,0,0,231.45,159.85Zm0.65-5,2.83,0.33-0.46,3.93-2.86-.33Z"/><path class="cls-1" d="M229.79,173.08l2.89,0.36h0.13a1.08,1.08,0,0,0,1.07-.94l0.5-4a1.08,1.08,0,0,0-.94-1.2l-2.88-.36h0a1.08,1.08,0,0,0-1.2.94l-0.5,4A1.08,1.08,0,0,0,229.79,173.08Zm0.65-5,2.84,0.33-0.47,3.93L230,172Z"/><path class="cls-1" d="M131,116.92l-4-.5a1.08,1.08,0,0,0-1.2.94l-0.67,5.38a1.08,1.08,0,0,0,.94,1.2l4,0.5h0.14a1.08,1.08,0,0,0,1.07-.94l0.67-5.38A1.08,1.08,0,0,0,131,116.92Zm-0.82,6.42-4-.47,0.64-5.36,4,0.47Z"/><path class="cls-1" d="M140.34,118.09l-4-.5a1.08,1.08,0,0,0-1.2.93l-0.67,5.38a1.08,1.08,0,0,0,.94,1.2l4,0.5h0.13a1.08,1.08,0,0,0,1.07-.94l0.67-5.38A1.08,1.08,0,0,0,140.34,118.09Zm-0.81,6.42-4-.47,0.67-5.35,4,0.47Z"/><path class="cls-1" d="M149.64,119.25l-4-.5a1.08,1.08,0,0,0-1.2.94l-0.67,5.38a1.08,1.08,0,0,0,.94,1.2l4,0.5h0.14a1.08,1.08,0,0,0,1.07-.94l0.67-5.38A1.08,1.08,0,0,0,149.64,119.25Zm-0.81,6.42-4-.47,0.67-5.36,4,0.47Z"/><path class="cls-1" d="M128.87,134.36l-4-.5a1.08,1.08,0,0,0-1.2.94L123,140.17a1.08,1.08,0,0,0,.94,1.2l4,0.5h0.14a1.08,1.08,0,0,0,1.07-.94l0.67-5.38A1.08,1.08,0,0,0,128.87,134.36ZM128,140.78l-4-.47,0.64-5.36,4,0.47Z"/><path class="cls-1" d="M138.16,135.52l-4-.5a1.08,1.08,0,0,0-1.2.93l-0.67,5.38a1.08,1.08,0,0,0,.94,1.2l4,0.5h0.13a1.08,1.08,0,0,0,1.07-.94l0.67-5.38A1.08,1.08,0,0,0,138.16,135.52Zm-0.8,6.42-4-.47,0.66-5.36,4,0.47Z"/><path class="cls-1" d="M148.17,137.09a1.07,1.07,0,0,0-.72-0.41l-4-.5a1.08,1.08,0,0,0-1.2.94l-0.67,5.38a1.08,1.08,0,0,0,.94,1.2l4,0.5h0.14a1.08,1.08,0,0,0,1.07-.94l0.67-5.38A1.07,1.07,0,0,0,148.17,137.09Zm-1.52,6-4-.47,0.66-5.36,4,0.47Z"/><path class="cls-1" d="M126.73,151.37l-4-.5a1.08,1.08,0,0,0-1.2.93l-0.67,5.38a1.08,1.08,0,0,0,.94,1.2l4,0.5h0.14A1.08,1.08,0,0,0,127,158l0.67-5.38A1.08,1.08,0,0,0,126.73,151.37Zm-0.82,6.42-4-.47,0.64-5.36,4,0.47Z"/><path class="cls-1" d="M136,152.53l-4-.5h0a1.09,1.09,0,0,0-1.2.94l-0.67,5.38a1.08,1.08,0,0,0,.94,1.2l4,0.5h0.14a1.08,1.08,0,0,0,1.07-.94l0.67-5.38A1.08,1.08,0,0,0,136,152.53Zm-0.8,6.42-4-.47,0.67-5.36,4,0.47Z"/><path class="cls-1" d="M146,154.11a1.07,1.07,0,0,0-.72-0.41l-4-.5a1.08,1.08,0,0,0-1.2.93l-0.67,5.38a1.08,1.08,0,0,0,.94,1.2l4,0.5h0.14a1.08,1.08,0,0,0,1.07-.94l0.67-5.38A1.07,1.07,0,0,0,146,154.11Zm-1.52,6-4-.47,0.67-5.35,4,0.47Z"/><path class="cls-1" d="M179.37,167.56l4,0.5h0.14a1.08,1.08,0,0,0,1.07-.94l0.92-7.31a1.08,1.08,0,0,0-.93-1.2l-4-.5a1.08,1.08,0,0,0-1.2.93l-0.92,7.31A1.08,1.08,0,0,0,179.37,167.56Zm1.07-8.35,4,0.47L183.51,167l-4-.47Z"/><path class="cls-1" d="M187.08,168.52l4,0.5h0.14a1.08,1.08,0,0,0,1.07-.94l0.92-7.31a1.08,1.08,0,0,0-.93-1.2l-4-.5h0a1.08,1.08,0,0,0-1.2.94l-0.92,7.31A1.08,1.08,0,0,0,187.08,168.52Zm1.07-8.35,4,0.47-0.89,7.28-4-.47Z"/><path class="cls-1" d="M194.57,169.46l4,0.5h0.14a1.08,1.08,0,0,0,1.07-.94l0.92-7.31a1.08,1.08,0,0,0-.93-1.2l-4-.5h0a1.08,1.08,0,0,0-1.2.94l-0.92,7.31A1.08,1.08,0,0,0,194.57,169.46Zm1.07-8.35,4,0.47-0.89,7.28-4-.47Z"/><path class="cls-1" d="M202.28,170.43l15.38,1.93h0.14a1.08,1.08,0,0,0,1.07-.94l0.92-7.31a1.08,1.08,0,0,0-.93-1.2L203.46,161a1.09,1.09,0,0,0-1.2.93l-0.92,7.31A1.08,1.08,0,0,0,202.28,170.43Zm1.07-8.35L218.68,164l-0.89,7.28-15.36-1.9Z"/><path class="cls-1" d="M159.57,164.76a1.07,1.07,0,0,0,.72.41l15.38,1.93h0.14a1.08,1.08,0,0,0,1.07-.94l0.92-7.31a1.08,1.08,0,0,0-.93-1.2l-15.38-1.93a1.08,1.08,0,0,0-1.2.94L159.35,164A1.07,1.07,0,0,0,159.57,164.76Zm1.79-7.94,15.33,1.89L175.8,166l-15.36-1.9Z"/><path class="cls-1" d="M104.17,133.46l2.88,0.36h0.14a1.08,1.08,0,0,0,1.07-.94l0.5-4a1.08,1.08,0,0,0-.94-1.2l-2.89-.36a1.09,1.09,0,0,0-1.2.94l-0.5,4A1.08,1.08,0,0,0,104.17,133.46Zm0.63-5,2.86,0.33-0.49,3.93-2.84-.33Z"/><path class="cls-1" d="M111.4,134.37l2.88,0.36h0.14a1.08,1.08,0,0,0,1.07-.94l0.5-4a1.08,1.08,0,0,0-.93-1.2l-2.88-.36a1.07,1.07,0,0,0-1.2.93l-0.5,4A1.08,1.08,0,0,0,111.4,134.37Zm0.65-5,2.83,0.33-0.46,3.93-2.86-.33Z"/><path class="cls-1" d="M106.12,141.29l-2.88-.36a1.07,1.07,0,0,0-1.2.93l-0.5,4a1.08,1.08,0,0,0,.94,1.2l2.88,0.36h0.14a1.08,1.08,0,0,0,1.07-.94l0.5-4A1.08,1.08,0,0,0,106.12,141.29Zm-0.65,5-2.84-.33L103.1,142l2.86,0.33Z"/><path class="cls-1" d="M114.06,142.6a1.07,1.07,0,0,0-.71-0.41l-2.89-.36h0a1.09,1.09,0,0,0-1.2.94l-0.5,4a1.08,1.08,0,0,0,.93,1.2l2.89,0.36h0.13a1.08,1.08,0,0,0,1.07-.94l0.5-4A1.07,1.07,0,0,0,114.06,142.6Zm-1.34,4.59-2.86-.33,0.49-3.93,2.83,0.33Z"/><path class="cls-1" d="M104.46,154.52l-2.88-.36a1.07,1.07,0,0,0-1.2.93l-0.5,4a1.08,1.08,0,0,0,.93,1.2l2.88,0.36h0.14a1.08,1.08,0,0,0,1.07-.94l0.5-4A1.08,1.08,0,0,0,104.46,154.52Zm-0.65,5-2.83-.33,0.46-3.93,2.86,0.33Z"/><path class="cls-1" d="M111.69,155.43l-2.88-.36h0a1.08,1.08,0,0,0-1.2.94l-0.5,4a1.08,1.08,0,0,0,.93,1.2l2.88,0.36h0.14a1.08,1.08,0,0,0,1.07-.94l0.5-4A1.08,1.08,0,0,0,111.69,155.43Zm-0.63,5-2.86-.33,0.49-3.93,2.84,0.33Z"/></svg>