<svg id="Layer_1" data-name="Layer 1" xmlns="http://www.w3.org/2000/svg" viewBox="0 0 150 150"><defs><style>.cls-1{fill:#3fc0c2;}.cls-2{fill:#cadace;}.cls-3{fill:#f28c6e;}.cls-4{fill:#b1b3b6;}.cls-5{fill:#f6cd24;}.cls-6{fill:none;}</style></defs><title>Infographic_PanoInstructions_150x150</title><path class="cls-1" d="M125.28,90.3c0-8.13-25.76-13-50.68-13-3.91,0-7.82.08-11.58.31-19.47,1.15-39.1,5.52-39.1,12.65s19.17,11.42,38.18,12.65l.08-1.53c-17.86-1.15-36.8-5.37-36.8-11.12,0-5.14,16.18-9.89,37.64-11.12,3.76-.23,7.59-.31,11.5-.31,29.44,0,49.14,5.9,49.14,11.5,0,4.83-15.41,10.27-41.25,11.27l-.08-3.83-7.82,4.75,8,4.45-.08-3.76C104,102.34,125.28,97.66,125.28,90.3Z"/><rect class="cls-2" x="86.94" y="74.35" width="1.15" height="0.77" transform="translate(-21.25 37.14) rotate(-21.43)"/><rect class="cls-2" x="94.31" y="71.23" width="2.3" height="0.77" transform="translate(-19.56 39.82) rotate(-21.43)"/><rect class="cls-2" x="98.6" y="69.53" width="2.3" height="0.77" transform="translate(-18.65 41.27) rotate(-21.43)"/><rect class="cls-2" x="90.09" y="72.89" width="2.3" height="0.77" transform="translate(-20.46 38.39) rotate(-21.43)"/><rect class="cls-2" x="102.88" y="67.84" width="2.3" height="0.77" transform="translate(-17.73 42.72) rotate(-21.43)"/><rect class="cls-2" x="107.1" y="66.17" width="2.3" height="0.77" transform="translate(-16.83 44.14) rotate(-21.43)"/><rect class="cls-2" x="111.42" y="64.55" width="2.3" height="0.77" transform="translate(-15.94 45.61) rotate(-21.43)"/><rect class="cls-2" x="115.69" y="63.02" width="1.15" height="0.77" transform="translate(-15.13 46.85) rotate(-21.43)"/><polygon class="cls-2" points="87.02 81.1 88.09 81.49 88.33 80.8 87.25 80.41 87.02 81.1"/><polygon class="cls-2" points="90.17 82.33 92.31 83.25 92.62 82.48 90.47 81.64 90.17 82.33"/><rect class="cls-2" x="107.97" y="88.09" width="0.77" height="2.3" transform="translate(-14.79 156.62) rotate(-68.16)"/><rect class="cls-2" x="112.17" y="89.8" width="0.77" height="2.3" transform="translate(-13.76 161.57) rotate(-68.15)"/><rect class="cls-2" x="103.73" y="86.38" width="0.77" height="2.3" transform="matrix(0.37, -0.93, 0.93, 0.37, -15.87, 151.58)"/><polygon class="cls-2" points="98.67 85.78 100.82 86.62 101.05 85.93 98.98 85.01 98.67 85.78"/><polygon class="cls-2" points="94.46 84.09 96.53 84.94 96.83 84.17 94.69 83.33 94.46 84.09"/><rect class="cls-2" x="115.92" y="91.83" width="0.77" height="1.15" transform="translate(-12.82 165.83) rotate(-68.09)"/><path class="cls-3" d="M82.88,70.22H64.48a1.54,1.54,0,0,0-1.53,1.53V84.4a1.54,1.54,0,0,0,1.53,1.53h18.4a1.54,1.54,0,0,0,1.53-1.53V71.75A1.54,1.54,0,0,0,82.88,70.22Z"/><polygon class="cls-3" points="85.8 74.51 85.8 81.56 89.09 82.87 89.09 73.21 85.8 74.51"/><path class="cls-4" d="M116.61,52.51h0a3.76,3.76,0,0,0-3.45-3.3v-.08h0V42.62h-4v6.59H94.84c-2.15,0-4.29-1.07-6.75-2.3-3.37-1.69-7.67-3.83-13.65-3.83s-10.2,2.15-13.65,3.83c-2.45,1.23-4.6,2.3-6.75,2.3H39.64V42.62h-4v6.67a3.7,3.7,0,0,0-3.45,3.3,10.68,10.68,0,0,0,2.22,7.13,4.18,4.18,0,0,0,2.84,1.38A3.9,3.9,0,0,0,40,59.79c1.61-1.76,2.22-4.75,2.3-6.52H56.59a7.47,7.47,0,0,0-2.76,4.37c-.23.84-.69,4.14-1.3,7.9-.69,4.68-.69,6.44-1.07,8A3.25,3.25,0,0,0,52,76.73a1.46,1.46,0,0,0,1.46.38,3,3,0,0,0,1.76-2.3c.23-1.07.15-.38.92-3.6,1.23-5.21,2.76-11.27,3-12.42A2.21,2.21,0,0,1,61.65,57h4.6a11.47,11.47,0,0,1,.84,1c1.07,1.3,2.22,2.68,4.06,2.84.46,0,.84.08,1.23.08V77.5A1.62,1.62,0,0,0,74,79.11h1.15a1.62,1.62,0,0,0,1.61-1.61V60.94a7.88,7.88,0,0,0,1.3-.08c1.84-.15,2.91-1.46,4.06-2.84A11.47,11.47,0,0,1,83,57h4.75c1.53,0,2.22.54,2.53,1.84.31,1.15,1.84,7.74,3.14,13L94.23,75A2.87,2.87,0,0,0,96,77.35a3.32,3.32,0,0,1,.38.08A1.51,1.51,0,0,0,97.45,77c.69-.69.84-1.53.54-3.14s-.46-3.6-1.15-8.28c-.61-3.83-1.07-7.13-1.3-7.9a7.47,7.47,0,0,0-2.76-4.37h14a10.13,10.13,0,0,0,2.3,6.52,3.64,3.64,0,0,0,2.76,1.3,3.48,3.48,0,0,0,2.76-1.38A11.79,11.79,0,0,0,116.61,52.51Z"/><path class="cls-5" d="M35.43,39.32A46.7,46.7,0,0,0,24.23,38,46.7,46.7,0,0,0,13,39.32c-.15,0-.23.08-.23.15s.08.15.23.15a47.17,47.17,0,0,0,11.19,1.3,46.7,46.7,0,0,0,11.19-1.3c.15,0,.23-.08.23-.15S35.58,39.32,35.43,39.32Z"/><path class="cls-5" d="M62.57,39.32a49,49,0,0,0-22.46,0c-.15,0-.23.08-.23.15s.08.15.23.15a47.17,47.17,0,0,0,11.19,1.3,46.7,46.7,0,0,0,11.19-1.3c.15,0,.23-.08.23-.15S62.72,39.32,62.57,39.32Z"/><path class="cls-5" d="M37.8,36.48c-.84,0-1.61,1.69-1.61,3.76h3.22C39.34,38.17,38.65,36.48,37.8,36.48Z"/><path class="cls-5" d="M108.95,39.32a48.72,48.72,0,0,0-22.39,0c-.15,0-.23.08-.23.15s.08.15.23.15a47.17,47.17,0,0,0,11.19,1.3,46.7,46.7,0,0,0,11.19-1.3c.15,0,.23-.08.23-.15S109.1,39.32,108.95,39.32Z"/><path class="cls-5" d="M136.09,39.32A47.17,47.17,0,0,0,124.89,38a46.7,46.7,0,0,0-11.19,1.3c-.15,0-.23.08-.23.15s.08.15.23.15a47.17,47.17,0,0,0,11.19,1.3,46.7,46.7,0,0,0,11.19-1.3c.15,0,.23-.08.23-.15S136.16,39.32,136.09,39.32Z"/><path class="cls-5" d="M111.25,36.48c-.84,0-1.61,1.69-1.61,3.76h3.22C112.86,38.17,112.17,36.48,111.25,36.48Z"/><rect class="cls-5" x="45.32" y="49.21" width="1.46" height="3.99"/><rect class="cls-5" x="48.31" y="49.21" width="1.46" height="3.99"/><rect class="cls-5" x="99.44" y="49.21" width="1.46" height="3.99"/><rect class="cls-5" x="102.43" y="49.21" width="1.46" height="3.99"/><rect class="cls-6" width="150" height="150"/></svg>