<svg id="Layer_1" data-name="Layer 1" xmlns="http://www.w3.org/2000/svg" viewBox="0 0 300 300"><defs><style>.cls-1{fill:#dbdcdd;fill-rule:evenodd;}.cls-2{fill:#929497;}.cls-3{fill:#919395;}.cls-4{fill:#f6cd21;}.cls-5{fill:#f5cc23;}.cls-6{fill:#ed6a4c;stroke:#f28c6e;stroke-miterlimit:10;opacity:0.7;}</style></defs><title>Infog</title><path class="cls-1" d="M248.23,165.87h0ZM153,169.52h0Zm-2.88-4.22h0Zm7.87-.38a0.11,0.11,0,0,1,.06.06,0.13,0.13,0,0,1-.06-0.06h0Zm-0.38-.19a0.13,0.13,0,0,1,.06.06s-0.08-.06-0.06-0.06h0Zm-7.49-.38h0Zm2.88-4a0.13,0.13,0,0,1,.06.06S153,160.3,153,160.3h0Zm-2.88,4c0.14,0.52,0,.35-0.39.38s0.08-.18,0-0.19a0.23,0.23,0,0,0-.22.16c0,0.08.3-.27,0.22,0s0,0.31.39,0.58-0.74.16-.41,0.55a2.14,2.14,0,0,0,2,.65c0.66-.25,1-1.52,1.7-1.39s0.27,0.61.76,1.73,1.09,1.2.77,1.73-0.73-.5-1,0.19,1,0.24.38,1-0.85-.77-0.79-1.07a1.21,1.21,0,0,0,0-.46,0.82,0.82,0,1,1,0-.12c-0.08-.38.31-0.74,0.06-1.23s-0.69.32-1,.51,0.32-.4-0.35.23,0.18,2.4.14,2.93-0.41.38-.82,0.47a4.47,4.47,0,1,0-.54.16c-1.59.47-1.18,1.14-2.76,2.25s-0.4.67-1.17,1.14-0.1.13-.57,0.58-0.94-.71-1.34-0.38,1,0.63.19,1-1.27-1-2.11,0,0.67,0.61,1.37,1.13,0,0,.51.63,0.51,0,.62.86,0.36,1.7-.38,2-2.36-.18-3-0.24a7.42,7.42,0,0,0-1.28-.07,0.91,0.91,0,0,0-.66.19c-0.48.21-.57,0.07-0.67,0.31a1.2,1.2,0,0,0,.26.73,2.6,2.6,0,0,1,.11,1c0,0.61-1,1.34-.56,2.31a2.7,2.7,0,0,0,.52,1c0.41,0.58.83-.22,1.4,0.13a1.31,1.31,0,0,1,1,1c0.24,0.73-.18.1-0.39,0.56a1.69,1.69,0,0,1-.34.81c-0.42.55-1.77,0.58-2.32,1.9s-0.3,2.17-1.51,2.71-0.75.19-1.3,0.81-1.55,1.59-2,2.23,0.37-.42-0.43.93,0,1.38-.15,2.53,0.32,0.31,0,1.71-0.92.92-.95,1.94,0.4,0,.46,1,0.7,1.14,1.65,2-0.12,0,.56.4,0.57,1.16,1.1,1.78-0.37-.56,1.54,1,3,1,4.67.87,0-.36,1.29,0,2-.49,4.37-0.87,1.21,1,2.22,1.47,2.06-.35,2.69-0.19,0.29,0.33.5,0.87a1.88,1.88,0,0,1-.19,1.36,0.46,0.46,0,0,0-.05.14l-0.21.76c-0.15.55-.5,0,0,1.22s2.19,2.12,3,4.53-0.24-.22.16,1.36,0.51,1.27-.48,2.45,0.12,0-.6,1.52-0.27,1.46.58,3.26,1.06,2,1.15,3.26a5,5,0,0,0,.45,2,16.19,16.19,0,0,0,1.15,1.73,17.75,17.75,0,0,1,.85,2.06c0.37,0.92,0,.54,0,0.9a1.25,1.25,0,0,0,0,.41c0,0.17-.66.51,0.06,0.73s-0.07.62,2,.26,4.49-.44,5.71-1.22a17.41,17.41,0,0,0,3.78-3.9,3.85,3.85,0,0,1,.26-1.66c0.41-.79,1.6.68,2.11-1.35s-1.4-1.9.22-3.43,3.56-1.87,4.2-3.1,0.11-.2.15-1.06,0.56-1.36-.17-2.55-0.44-1.25-.63-2.35-0.21-.24-0.5-0.75,0.11-.2.2-0.38a3.44,3.44,0,0,1,.27-0.5c0.2-.33.27-0.39,0.61-0.92s-1,1.21,1.41-1.34,4.5-3.49,6.34-6.65,0.74-1.3.9-1.58,0,0,0-.11a1.06,1.06,0,0,0,.06-0.35c0-.2.78-1.05,0-1a29.48,29.48,0,0,0-4.17.83c-1.63.38-1.47,0.34-2.17-.45s-0.85-.43.19-0.77a8.09,8.09,0,0,1,2.06-.66,2.59,2.59,0,0,0,1.45-.33,22.32,22.32,0,0,1,2.15-.84,1,1,0,0,0,.74-0.22c0.85-.44.2-0.69,2.08-1.18s0.56-.36,1.26-0.86,0.17-.12.23-0.15-0.24.19,0.1-.09a1.75,1.75,0,0,1,1.07-.47c0.57-.09-0.2.2-0.19-0.38s0.27-.59.81-1.11,1.57-.23.72-1.2-0.26-.78-1.78-1.12-1.12-1.38-1.1-2-0.4.22-.5,0.27,0.07-.07-0.1.09-1.93,1.87-3.05,1.36,0.33-1.2-.38-1.54,0.13,1.08-.77.58-0.4-1.06-1-1.66a0.6,0.6,0,0,1-.29-0.29c-0.47-.56-1.08-1.45.12-1.62s1.14,1.39,2,1.78,1.11,0.59,1.86.86a1.63,1.63,0,0,0,1.52-.23c0.58-.23-0.11-1,0.6-0.18s0.53,1.12,2,1.3a15.55,15.55,0,0,0,3.31.17c1.18-.07,1.91-0.07,2.32-0.07s-0.18-.09.14,0.05,0.85,0.94,1.31,1.23a0.92,0.92,0,1,0,.24.14l0.44,0.3,0.11,0.08c0.16,0.12.26,0,.33,0.25s-1.22-.2-0.42.34,1-1,3.11.23,1.59,5.28,2.24,6.78,0.27,0.34.79,1.13,0.6,2.18,1.39,2.46,0.28,0,.91-0.63,0.8,0.13,1.2-1.1,0-.92.1-1.79-0.42-1.72-.1-2.24,0.75-.06,1.24-0.49,0.65-.56,1.58-1.49a5,5,0,0,1,1.37-1.15c0.84-.59,0-0.81.62-1.28s1.11-.07,1.71-0.2,1.39-.9,1.75-0.57,0,0.78.82,1.49,0.67,0.1.91,1.2,0.19-.35.77,0.38,0.1,0.2.06,1.08,0.33,0.44,2.25.07,0.94,2,1.33,3.09,0,2.9,0,3.63-0.15-.81.9,0.42,0.69,2.14,1.69,3.33,0.88,0,.48.67-0.85-.17-1.35-0.57-1.31-1.05-1.68-1.39a1.53,1.53,0,0,0-.52-0.44c-0.26-.11-1.72-1.07-1.82-0.29s1.16,1.32,2,2.27a2.52,2.52,0,1,0,.18.2,4.48,4.48,0,0,1,.81.92c0.28,0.46.41,0.68,0.51,0.83s-0.49-.62.09,0.1,0.7,1.64,1.52,2.32l1.79,1.49c0.73,0.61.65-.23,1.6,0.31s-1.28.4-.39,1,0.74,0.3,1.83.48a7.57,7.57,0,0,0,1,.11c0.64,0.08.2,0.14,1.06,0.28s2.45,0.26,3,.31,0.07,0,.1,0l0.11,0,0.12,0s0.73,0.57.65,0,0-.34-0.66-0.54-0.77,0-1.45-.22,1.56-.12,1-0.58-0.55.12-1.79-.16,0,0-1.5.16-0.91.77-3.05-.76,0.57-.84.77-1.92-1-1.75-1.15-1.15,0.21,1.18-.38.58a9.1,9.1,0,0,1-1-1c-0.62-.73.27-0.72-0.22-1.3a1.05,1.05,0,0,0-.51-0.46c-0.58-.44-0.79.19-0.61-0.54s0.15,0,.61.16,1.22,1.3,1.7.8-0.56-.86-1-1.7,0.14-1.68-1.82-2.8-0.59-.39-0.8-1a3.78,3.78,0,0,1-.43-0.86c-0.06-.45.15-0.25,0.22-0.38-0.07.13,0,.4-0.22,0.38s-0.43.41-.57-0.19a7.48,7.48,0,0,1,.43-2.53c0.17-.69-0.24-1.16.53-0.35a4.09,4.09,0,0,0,1.33,1c0.84,0.58-.05-0.11.23,0.18a5.52,5.52,0,0,0,1,1c0.35,0.17.8,0.27,0.7,1.43s0,0.11.55-.22a8.69,8.69,0,0,1,1.67-1.21c1.1-.52,1.65-0.37,1.33-2.3s-2-2.66-2.58-3.4a2.68,2.68,0,0,1-.59-0.74,0.61,0.61,0,0,1,0-.77,2.77,2.77,0,0,1,1.59-1.31c1-.34.89,0,1.13,0.31s0,0,.08.12,0.89,0.26.47,0.5-1.31.17-1.15,1,1.29,0.51,1.61.08,0.55-.21.31-0.66-1.76.06-.77-1.15,1.75-.86,2.3-1.34,0.69,0.27,1.18.15-0.35.29,0.11,0,2-1.3,2.68-1.92,0.14-1,.26-1.66,0.3,0,.6-0.36A0.64,0.64,0,0,0,240,192a2.87,2.87,0,0,0,.72-2c-0.16-.78-0.8-0.2-1-0.58s0.52,0.25.58-.38,0,0-.27-0.48,0-.14-0.07-0.42,0.5,0.06-.19-0.48-0.08.92-.63-0.16-1.28-1.24-1.54-1.92-0.17-1.14.88-1.78,2.17,0.06,1.23-1.1-2.21-.1-2.5.58-0.29.79-.58,0-1.46-.65-1.34-1.73,0.11,1.1,1,0a10.55,10.55,0,0,0,1.15-2.11c0.53-.89.75-0.32,1,0.19s-0.49,1.44-.38,1.92-0.19.18,0.28,0,0.26-.4,1-0.83,1.63-1.68,1.76,0,1,1.16,1.5,1.94-0.57-.13-0.35.74-0.81,1.14.77,2.3,1.22-.53,1.92-0.58,0.56-1.57-.24-2.64-1.64-.81-2.06-1.78,1.31-1.32,1-2.56,0.09-.41.68-1,0.08-.52.66-0.87,0,1.24,1.15.58,2.21-3.88,2.6-5.64a4.05,4.05,0,0,0,.08-2.52,1,1,0,0,0-.32-0.73,3.84,3.84,0,0,1-.25-2.24c0.17-.8.39,0.1,0.63,0.52a18.07,18.07,0,0,1,.82,1.68,4.63,4.63,0,0,1,.25,1.09c0.19,0.75.36,0.55,0.84,2.24s0.23,1.26.72,1.39-0.49-.81,0-0.77,0.32,1.1,1,.58,0.08-.46-0.27-0.88-1.93-1.31-1.27-2.76,0.68,0.23,1.15.38-0.08.18,0,.19a0.23,0.23,0,0,0,.22-0.16c0-.08.21,0.57-0.22,0a33.8,33.8,0,0,1-2.72-4.2,4,4,0,0,0-.38-1c-0.17-.35-0.68-2.25-1.32-1.56s2.31,1.48-.19,1.54-1.79-1-2.49-1,0.08,1.08-.58,1-0.15-.71-0.23-1.2-0.22-.79-0.73-0.72,0.2,0.51,0,.58-0.56-.91-0.58-0.38-0.07,1.43-.77.58,0.54-.45.95-2.12,0.72-1.71.78-2.39a0.57,0.57,0,1,1,0-.08c0-.06,0-0.23,0-0.29a0.48,0.48,0,0,1,0-.12l0.13-.52a0.21,0.21,0,0,0,0-.13,1.43,1.43,0,0,1,.13-1.06,2.66,2.66,0,0,1,1.18-.37,13.59,13.59,0,0,0,1.76-.32c1.59-.44-0.64-0.27,1.48-1s1.17,0.69,1.92,1a2,2,0,0,0,2.3-1c0.35-.81-0.48-0.1-1-0.77s0.26-.62.38-1.23a2.51,2.51,0,0,0-.08-0.94,1.18,1.18,0,0,1,.45-1.12,1.17,1.17,0,0,1,.67-0.26,9,9,0,0,0,1.07-.29c0.76-.21-0.38.82,0,1.15s0.6,0.66,1.15.38,0.07-.52.31-1.23,0.32-.38.65-0.69-0.08.18,0,.19a0.23,0.23,0,0,0,.22-0.16c0-.08-0.18.06-0.22,0s-0.5-.67,0-0.38,0.82,0.51.77,1.73-0.67.67-.58,1.65-0.36,1.33-.35,2a1.55,1.55,0,0,1-.45,1.49c-0.48.37-.88-0.85-0.54,0.24s0.37,0.26.24,1.58,0-.17.14,0.62a14.46,14.46,0,0,0,1.88,3.79c0.51,0.64.56,0.8,0.89,1.22a1.22,1.22,0,0,1,.35.41c0.46,0.67.48,1.9,1.29,1.59s0.35-.55.38-1.35-0.33-1-.19-1.53,0.84,0.23.76-.22-0.56-.35-0.59-1.14,0.5-.09,1-1-0.69-1.05-1-1.82-0.21-.55,0-0.67,0.6,0.63.76,0.21,0.41-.34-0.53-1.22-0.49-.34-0.68-1.12,0.21,0-.16-0.35-0.14-.12-0.4,0,0.11,0.91-.5,0-0.55-1.4-.8-2.76,0.15-.33.65-0.6-0.25-.45.5-0.67,0.28,2.51.77,0.77,2.63-.15,2.88-1,0-2.92.58-3.55,0.36-1,.92-1.5,1.18,0.11,1.77-.14-0.25-.84-0.32-1,0-.07-0.07-0.13a0.65,0.65,0,0,0-.16-0.22,7.7,7.7,0,0,0-1.38-.74c-0.33-.19.47-0.26,0-0.58a2.07,2.07,0,0,1-.88-0.47c-0.68-.61-0.54-0.12-1-0.3s-0.48-.3,0-0.38a0.89,0.89,0,0,0,1-1c0.05-.85.34-1.26-0.21-1.73s-0.93-.06-1.15-0.39a0.49,0.49,0,0,1,.21-0.76c0.26-.05.27,0.38,0.52,0.61s0.44,0.55.81,0.35,0.08-.45.27-0.69,0.09-.58.49-0.47,0.16,0.35.58,0.77,3.11-.1,2.2-1a2.93,2.93,0,0,1-.81-1.11c-0.37-.51-0.83.41-0.43-0.53s0.39-.74.18-1.5,0.43-.15,0-0.61-1.53-.33-1.95-0.32a0.52,0.52,0,0,0-.41.07l-0.13.05a0.9,0.9,0,1,0-.13.06,1.22,1.22,0,0,0-.65.71c-0.1.28,0.35,0.53-.19,0.19a4,4,0,0,0-2.69-.94,20,20,0,0,0-2.06-.15,4.26,4.26,0,0,1-1.68-.34,9.67,9.67,0,0,0-3.9.11c-0.95.23-1.25,0.13-1.79,0.25s-0.31-.06,0,0.77,1.66,0.64,1.62,1.63,0,0.17-.49.24-0.18,0-.4-0.12a0.59,0.59,0,0,1-.21-0.16,0.21,0.21,0,0,0-.12-0.08,1.41,1.41,0,0,1-.69-0.3c-0.63-.37.25-1-0.65-1.28s-0.15-.26-0.5.12,0.17,1.05-1.45,1.31-0.77.1-1.26,0.28,0.1,0.9-.77,1-0.75.59-1.73-.19-1.3-2.31-2.6-2-2.72,1.54-3.35,1.46-0.5-.85-1.2-0.79-0.78.78-1.29-.36-1.74-.48-2.9-0.4-3.14-.46-4,0,0,0.25.58,0.38,0.33,0.22,0,.38-0.56.19-.58,0.57,0.18,0.13.4,0.33,1,0,.94.82-0.33.12-1.36,0.52a1.15,1.15,0,1,1-.34.11,1.78,1.78,0,0,0-1-.06,0.94,0.94,0,0,1-.81.75c-0.65,0-1-1.28-1.3-.56s1.32,1.55.58,2.11-1.61-.55-2.3-1.34,0,0.28-.19-0.19-0.75-.2-1.15-0.77,0.36-.46-0.1-0.83a2.27,2.27,0,0,0-1.31-.67,5.7,5.7,0,0,1-1.84,0c-0.86-.29-0.39-0.09-0.59-0.39s-0.45-.63-0.38,0,0.69,0.32.58,1.92-0.58.53-1.82,0.27-0.6.25-1.25,0.12,0.63-1.2-.38-1a13.67,13.67,0,0,0-2.88,1c-1,.47-0.59-1.07-0.74-0.61s0.36,0.69-.22.8-0.42-.58-1.14-0.54-0.67.79,0,.74-0.22.47-.62,0.92a1.11,1.11,0,0,1-1.11.62c-0.58-.06,0-0.25.25-0.72a14.54,14.54,0,0,0,.68-1.79c0.33-1,1.11-2.4.27-3.3a8.06,8.06,0,0,0-2.77-1.67c-1-.48-1.29.31-2.08,0.37s0-.09.14,0.25,0.71,0.68,0,.71-0.07-.67-0.57-1.34-1.47.78-1.54,0.19,0.2-.74-0.21-0.94-0.58-1.32-1.32-.22,0.18,2.62.12,3-0.57.32-.89,0.42,0.13,0.17.17,0.34,0.44,0.69-.75,1,0.13-.34-0.38-0.77-0.35.12-.65,0.34a3.85,3.85,0,0,0-.79.35c-1.14.6,1,.12-0.64,1s-0.9.62-1.8,1.49a2.06,2.06,0,0,1-1.11.81c-0.34.16-.79,0.3,0,0.38s0.56,0.15.68,0.36a0.73,0.73,0,0,0,.12.19l0.08,0.11s0.12,0.08.08,0.11-0.18-.08-0.19,0a0.23,0.23,0,0,0,.16.22c0.08,0-.27-0.21,0-0.22s1-.31,1,0.19-0.92.59-1.45,0.85-1.46-.29-1.81.5-0.37-.17.31,1,1.81-.07,2.57,1.85-1.41-.23-2.61-0.67-1.38-.42-1.62.09,0.14,0.29.38,0.38,0,0,.11.08,1.2,0.37.65,0.5-0.81-.58-1.34-0.19,0.13,0.83.54,1,1.51,0,1.19.35-0.74,1-1.54,0-0.62-3-1.54-2.5,0.49,0.79.22,1.56-0.64.66,0.35,1.61,0.45,0.34.63,1.19a1.48,1.48,0,0,0,.23.73c0.24,0.58-.81.12,0.29,0.87s1.2-.4,1.92-0.38,0.15-.09-0.22.16-0.89-.08-0.93.8,0.61,0.78.58,1.65,0-.19-0.22.63-1,1.72-1.89,1.18,0.62,0,.85-0.51,0-.31.3-1.22a2,2,0,0,0-.68-2c-0.35-.32-0.43-0.41-0.93-2s-1-1.82-1.47-3.91-1.27.19-1.53-.19,0.76-.85-0.22-0.92-0.4,2.22-.43,3.06-0.52.41-.5,1.31,0.39,0.32.65,1.21a4.35,4.35,0,0,0,.09.59c0.29,0.9.66,0.61,0.79,0.64s-0.07-.1.09,0,0.76,0.59.93,0.73,0,0,.06.14,0.58,0.5.08,0.5a6.8,6.8,0,0,1-1.64-.86,4.74,4.74,0,0,1-.85-0.3c-1.62-.6-1.53-0.28-2.91-0.54s-1.15-1.55-1.89-.8,0.48,0.8,1.43,1.45a3.91,3.91,0,0,0,.68.47c0.47,0.28.14,0.44,0,.58s-0.49-.25-0.57,0,0.76,1.09.19,0.77,0-.73-0.58-1.15-1,.51-1.29.63a1.37,1.37,0,0,1-.29.1c-0.16.07,0.2-.14-0.41,0.17s-0.25.71-1.09,0.24,0-.29,0-0.49a0.29,0.29,0,0,1,0-.16s0.37-.2,0-0.12a1.18,1.18,0,0,0-.58.33,0.93,0.93,0,1,0-.08.06,1.3,1.3,0,1,1-.17.11,9.26,9.26,0,0,0-2.46,1.59c-0.81.85-.07,0-0.25,0.33s0.34,0.68-.3.85a0.93,0.93,0,0,1-1.34-.77c0-.72.4,0.78,0.77-0.38s-1.57-1.88-2.3-1.15,0.63,0.29.68,1.47,0.23,0.52.41,1.09,0.39,0.53.07,0.71a1.76,1.76,0,0,1-1.15-.38c-0.22-.09.18,0.08,0.19,0a0.23,0.23,0,0,0-.16-0.22c-0.08,0,.23-0.07,0,0.22a6.79,6.79,0,0,0-1.53,1.54c-0.18.54,0.89,1.1,0.1,1.06s-1.27-1-1.83-.68-0.3-.06-0.19.58,0.17,0.2.38,0.29,0-.22.13,0.09-0.1-.12.25,0.18,0.73-.17.38,0.41-1.09,1.14-1.92-.48a12,12,0,0,0-1.73-2.78c-0.54-.62.16,0,0.63,0.12a5.85,5.85,0,0,0,2.3.61,1.52,1.52,0,0,0,.43-3c-1.87-.56.28,0.32-0.72-0.37a7.74,7.74,0,0,0-3.41-.83c-0.89-.11-0.22-0.7-1-0.58s-1.1.44-1.09,0,0.65-.42,1-0.58,0.41-.28,0-0.38a8.78,8.78,0,0,0-1.57-.4c-0.29,0,0,0-.09,0s-0.49.51-.45,0.2,0.27-.78-0.33-0.68-0.41.69-.43,1.06a0.51,0.51,0,1,1-.11-0.28c-0.18-.29-0.15-0.34-0.46-0.3s0.2-.31,0-0.38a1.28,1.28,0,0,0-.71.09,0.83,0.83,0,0,0-.44.3c-0.25.22,0.08-.18,0-0.19a0.23,0.23,0,0,0-.22.16c0,0.08.52-.27,0.22,0s-1.31.09-1.15,0.47,0.66-.38.39,0.3-0.69,0-1,.19,0.38,0.35.19,0.38a4.45,4.45,0,0,1-.68-0.29c-0.33-.07-0.13,0-0.47.29s-0.39-.14-0.58-0.19,0.06,0.35,0,.4,0.06,0-.06.21-0.69-.25-0.95.35,0.37,0.38.38,1-0.46,0-.83-0.21,0.33,0.62-.09-0.25,0.45-.6-0.23-0.31-0.22.44-.4,0.75a2.76,2.76,0,0,0-.2.37,1.57,1.57,0,0,1-.17.41,0.72,0.72,0,0,1-.38.19c-0.3.09-.39,0.05-0.38,0.38s0.25-.29.38-0.38a0.43,0.43,0,0,1,.38-0.19c0.36-.06,1.31-1.13,1.34-0.38s0.13-.52-0.44.52S154.37,158,154,158.7s-0.16-.39-0.35-0.35a10.47,10.47,0,0,0-.63,1c-0.48.57,0.69,0.74-.36,1s-0.35-.11-1,0.22a2.55,2.55,0,0,0-.82.64,0.47,0.47,0,0,0-.23.18c-0.62.52-1.13,0.54-1.09,1.37a1.71,1.71,0,0,0,.38,1.31c0.3,0.42.14-.2,0.28,0.32h0Zm18,13.95c0.31-.81-0.35-0.52.58-0.89s1.07,0.31,1.92.38,0,0.4-.19.51-1.05,0-.38.26-0.54.09,0.77,0.58,2-.77,3.48,0a7.14,7.14,0,0,1,1.53,1c0.71,0.39,1.5.21,1.33,1.36s-1.35.68-2.15,0.71a2.31,2.31,0,0,1-1.33-.31c-0.39-.15.59,0.11-1.06-0.38s-3,.87-4.63.52-0.89-.29-1-0.85,0-.23.41-1.42,0.48-.59.78-1.4h0Zm3.84,0c-0.39-.13-0.47-0.36-0.22-0.7s2.33-1.56,2.71-1-0.09.73-.77,1.66-1.34.13-1.73,0h0Zm8.83,0c0.28-1,.64-0.54,1.59-1.23a2.29,2.29,0,0,1,2.14-.55c0.79,0.12,1.32.55,0.5,1.27s-0.92-.21-1.15.51-0.46-.64-0.57.45,1.33,0.36,1.92,1.54,0.24,1.08.49,2.12,0,0.17.13,0.34,0,0,.08.09-0.05-.14.29,0.32,1.68,1.76.93,2.5-1.82.11-2.74-.33-0.33-.15-0.4-0.18a1.32,1.32,0,0,1-.69-1.77c0.39-1.37.57,0,.76-0.8s-0.62-.32-1.07-0.84,0.7,0.57-.42-0.54-0.36-.64-1.26-1.83-0.79-.07-0.51-1.08h0Zm-20-9.44c0.23,0.56-.08.15,0.33,0.35a4.22,4.22,0,0,0,.82.14c0.36,0.13.69,0.47,0,.58s-2.07.17-2.69,0.19,0.48-.66-0.38-0.58-2.22,1.59-2.88,1.34,0.15-.44-0.39-1-1.59.36-1.92,0.42,0.11,0-.12,0-1-.23-0.64-0.78,0.94,1.06,1.54.58a1.34,1.34,0,0,0,.38-1.34c0.05-.48,0,0,0.07.12a3.39,3.39,0,0,0,.51.45c0.12,0.07,0,0,.11-0.08s0.53-.43.77-0.57,1.2,0.49,1.42-.31a1.51,1.51,0,0,0-.1-1.22,1.4,1.4,0,0,1,.1-1.47c0.45-.7,1.14-0.25,1.09-1.11s-0.89-.71-1.28-1.2,0.14-1.88.36-2.13a1.34,1.34,0,0,1,.29-0.27,2.69,2.69,0,0,0,1.65-2.27c0-1.55,1.4-1.4,2.5-1.09s0.47,0.3-.38,1.06a7.73,7.73,0,0,1-2.11,1.63c-1,.45,0,0.58.2,1.34a13.6,13.6,0,0,0,.19,1.93c0.24,0.67,1.15.32,1.25,0.52s-0.42.25,0.09,0.25a16.66,16.66,0,0,1,2.08-.62c2-.36,1.29.15,2.15,0s0.69,0.16,0,.39-0.44.51-1.3,0.51a4.36,4.36,0,0,0-1.74.09,1.7,1.7,0,0,0-.67.3,1,1,0,0,0-.26.14c-0.46.25-1.19,1.13-.65,1.45s0.25-1.13,1-.77,0.68,0.65.58,1.54-0.36.39-.58,0a1.27,1.27,0,0,0-.58-0.77c-0.34-.14,0-0.08-0.35.22a2.23,2.23,0,0,0-.42,2h0Zm39.55,27.93,0.41,0.11-0.41-.11h0Zm-52.8-12.67h0Zm99.85,5a4,4,0,0,1-.22.37,2.12,2.12,0,0,1,.22-0.37c0.08-.07.18,0.08,0.19,0a0.23,0.23,0,0,0-.16-0.22c-0.08,0,0,.12,0,0.22h0Zm-82.37-3.84a0.7,0.7,0,0,1-.19-0.19c-0.19-.19-0.8-0.76-1-1s0.18,0.08.19,0a0.23,0.23,0,0,0-.16-0.22c-0.08,0,.2.44,0,0.22s-0.94-.84-0.77-1.34,0.19,0.88.74,0.61,0.49-.65.88-0.81-0.25,0,.38-0.13-0.24,1.22.5,1.67,0.87-.19.77,0.38-1-.44-0.77,0a17.15,17.15,0,0,0,1.49,1.57c0.39,0.5-1.16.64,0,.74s0-1.08,1-.77-0.39.57,0.58,0.58-0.61-.19.77-0.58,1.47,0.82,2.92.06,0.6-.65,1.11-0.06,0,0.67,0,1.53-0.38,2.39-1.15,2.69-1.51-.45-2.78-0.11-0.82.29-2.48,0,0.06,0.27-1.63-.29-1.91-1.09-3.48-.75-0.43.18-.49,0.94,0.79,0.64-.28,1.17-1.24.35-2.88-1-2.52-1-3.43-1.57-0.07-.06-0.09-0.08,0.07,0-.09-0.06-0.11.6-.6,0,0.5-.25.58-1.15,0.64-.49,0-1.54-0.58-.15-1.32-0.15-1,.17-1.79.21-1.79.07-3.08,0.18a5.33,5.33,0,0,0-2.8,1c-1.27.69-.7,0.18-1.42,0.09s-1.3,1.05-1.69-.15,2.07-.83,2.77-1.26,0.37-.25.54-0.43,0.74,0.69.72-.81,1.34-1.75,1.88-2.72,0.08-1.44.93-1.48,1,1,1.8.37-0.2-.59,1.15-1.15,1,0.9,1.71,1.39,2.07,1.28,2.49,1.54a3.45,3.45,0,0,1,.46.27c0.6,0.4,1.13.32,1.19,1.25s-2,.81-2.58.93-0.55.42,0,.58,1.57,1.93,2.11.77a2.36,2.36,0,0,1,.92-1.38c0.8-.84-0.57-1.23.23-1.88s0.44,0.84,1.15.38-0.27-.7-1.3-1.21-0.16-.1-0.59-0.46a2,2,0,0,0-.88-0.35c-0.61-.27-0.32-0.48-1.22-1.29s-0.78-.61-0.81-1.49,0.6-.2.76-0.21,0,0.08,0,.12a0.32,0.32,0,0,0,0,.1s0,0,.06.2a0.76,0.76,0,0,0,.48.33c0.13,0,.08,0,0.1,0a0.27,0.27,0,1,1,.09,0,5.18,5.18,0,0,1,.89.84c0.71,0.63,2.54,1.13,2.83,1.78s0,0.75.34,1.61,0.59,0.27.81,1.33,0,0.48.32,0.58-0.6-.65,0-0.58,0.27,0.89,1.27,1.45a1.61,1.61,0,1,1,.25.17,0.23,0.23,0,0,1,.07.09s0.11,0.77.13,0.22-0.4-1,0-1.54,0.56,0.08.77,0a0.43,0.43,0,0,1,.38,0,0.34,0.34,0,0,1,.19.19c0,0.07-.08.18,0,0.19a0.23,0.23,0,0,0,.22-0.16c0-.08-0.15,0-0.22,0h0Zm-39.94-.77a0.12,0.12,0,0,0,.06-0.06s-0.08.06-.06,0.06h0ZM98.65,201a0.11,0.11,0,0,0,.06-0.06,0.12,0.12,0,0,0-.06.06h0Zm143.24-1.73a0.12,0.12,0,0,0,.06-0.06,0.12,0.12,0,0,0-.06.06h0Zm13.83-24.38a0.12,0.12,0,0,0,.06-0.06s-0.08.06-.06,0.06h0Zm-89.86,10.56a0.12,0.12,0,0,0,.06-0.06s-0.08.06-.06,0.06h0Zm-38.6-.38a0.12,0.12,0,0,0,.06-0.06s-0.08.06-.06,0.06h0Zm37.44-.77a0.12,0.12,0,0,0,.06-0.06s-0.09.06-.06,0.06h0Zm83.33-.58a0.12,0.12,0,0,0,.06-0.06s-0.09.06-.06,0.06h0ZM128,201.39a0.11,0.11,0,0,0,.06-0.06s-0.08.06-.06,0.06h0ZM90.2,197.16a0.12,0.12,0,0,0,.06-0.06s-0.08.06-.06,0.06h0Zm156.11-5.37a0.12,0.12,0,0,0,.06-0.06s-0.08.06-.06,0.06h0ZM83.48,199.47a0.12,0.12,0,0,0,.06-0.06,0.12,0.12,0,0,0-.06.06h0Zm14.4,1.34s0.06-.07.06-0.06,0,0,0,0-0.08,0-.06.06h0Zm0.77-.19s0.06-.07.06-0.06,0,0,0,0-0.08,0-.06.06h0Zm66.05-14.4a0.13,0.13,0,0,0,.06-0.06s0,0,0,0-0.08,0-.06.06h0Zm-37.06,15.17s0.06-.07.06-0.06,0,0,0,0-0.08,0-.06.06h0Zm6-12.09s0.06-.07.06-0.06,0,0,0,0-0.08,0-.06.06h0Zm32.64-3.07s0.06-.07.06-0.06,0,0,0,0-0.07,0-.06.06h0Zm77,8.64s0.06-.07.06-0.06,0,0,0,0-0.08,0-.06.06h0Zm-0.38.19a0.13,0.13,0,0,0,.06-0.06s0,0,0,0-0.08,0-.06.06h0ZM96,200.23c0.34-.13-0.08.18,0,0.19a0.23,0.23,0,0,0,.22-0.16,0.76,0.76,0,0,0-.22,0c-0.08-.07.38-0.3-0.21-0.37s-1.83-.11-1.33.57,1.2-.07,1.53-0.19h0Zm155-23.23c-0.09.17-.18-0.08-0.19,0a0.23,0.23,0,0,0,.16.22c0.08,0-.27-0.38,0-0.22s0,0.51.58,1,0.57-.21,1-0.38,0.3-.24,0-0.39-1.37.09-.77-0.38,0.11-.45,1-0.22,0.5,0.69,1.32.41,0.42-1,1.34-1.34-0.39-.29-0.38-0.58,0.8-.78.41-1-0.21,0-.37.22,0,0.88-.23.35-0.18.19-1.25-.07-0.54-.54-1.34-1-0.83-.2-0.59.6,1.08,0.94.3,1.65-0.53-.05-0.67.26-0.2.73-.29,0.89h0ZM136.09,192.17c0,0.51.21,0,.12,0s-0.12-.51-0.12,0h0Zm-38.4,8.06c0,0.51.21,0,.12,0s-0.12-.51-0.12,0h0Zm59.52-13.44c0,0.51.21,0,.12,0s-0.12-.51-0.12,0h0Zm9.6,0.19c0,0.51.21,0,.12,0s-0.12-.51-0.12,0h0ZM87.9,194.86c0,0.51.21,0,.12,0s-0.12-.51-0.12,0h0Zm17.67-18.43c0,0.51.21,0,.12,0s-0.12-.51-0.12,0h0ZM165.47,183c0,0.51.21,0,.12,0s-0.12-.51-0.12,0h0ZM128,202.54c0,0.23.19,0,.23,0s0.23,0.21.08-.05,0,0-.1,0-0.24-.17-0.21.06h0Zm117.13-15.36c0,0.23.2,0,.23,0s0.23,0.21.08-.05,0,0-.1,0-0.24-.17-0.21.06h0Zm1.34,4c-0.09.46,0.5-.1,0.19-0.08s-0.11-.39-0.19.08h0Zm-98.12-7.49c0,0.31.41,0.43,0.3,0s0.32,0-.09-0.06-0.21-.25-0.21.06h0Zm95.43,10.75c0.26,0.26.46-.19,0.22-0.1s-0.48-.16-0.22.1h0Zm-111-1.92c0.26,0.26.46-.19,0.22-0.1s-0.48-.16-0.22.1h0Zm-4.22,9.21c0.26,0.26.46-.19,0.22-0.1s-0.48-.16-0.22.1h0Zm36.67-15.93c0.26,0.26.46-.19,0.22-0.1s-0.48-.16-0.22.1h0Zm-0.38-2.5c0.26,0.26.46-.19,0.22-0.1s-0.48-.16-0.22.1h0Zm-78,11.52c0.26,0.26.46-.19,0.22-0.1s-0.48-.16-0.22.1h0Zm1.73,1c0-.62,0-0.54-0.38-0.58s0.35,1.19.38,0.58h0Zm163-14c-0.63,0,0-.76-0.39-0.38s0.13-.05.39,0.38,0.24,0.62-.49.85,0.12,0.32-.63-0.28,0.42-.06-0.22-0.19,0.41,1.53-.19,1.92-0.14-.32-1.33,0a5.11,5.11,0,0,0-2.47,2.16c-0.52.69-.42,0.19-0.43,0.53s0.39,0.27.57,0.77-0.17,1.08.58,1.15,0.63-.25.65-1-0.07-1.18-.07-1.69,0.06-.42.19,0,0.48,1.82,1,1-0.05-.55.44-0.68,0.07,0.39.39-.21-0.7-.63-0.05-0.64,0.09,0.07.42,0.35,0.05,0.62.54,0.42,0.2-.13.44-0.52-0.13-.51.33-0.63a7.11,7.11,0,0,0,1-.15,4.56,4.56,0,0,0,.62-0.37c0.25-.13,1.24-0.07,1.07-1s-0.11-.88-0.19-1.32-0.26-.25-0.34-0.63-0.21.38,0.24-.34-0.63-2.9-.81-3.5,0.11,0.08-.58.38-0.39,1.19-.21,1.56,0.26,2.09-.37,2.09h0Zm-102.53,1.54c0.07,0.36.37,0.31,0.26,0s-0.32-.4-0.26,0h0Zm-113.1.58c0.07,0.36.37,0.31,0.26,0s-0.33-.4-0.26,0h0Zm52.61,12.67c0,0.12.15,0.12,0.19,0a1.38,1.38,0,0,0,0-.58c0-.12-0.15-0.12-0.19,0a1.37,1.37,0,0,0,0,.58h0Zm46.85-3.65c0.43,0.19.62,0,.58-0.38s-1,.19-0.58.38h0Zm110,0.19c0.19,0.35,1-.4.62-0.53s-0.81.18-.62,0.53h0Zm-118.67,8.06a0.29,0.29,0,0,0,.58,0c0-.25-0.65-0.39-0.58,0h0Zm7.49-8.06a0.29,0.29,0,0,0,.57,0c0-.25-0.65-0.39-0.57,0h0Zm-47.62,2.3c0.12,0.53-.31,1.22.19,0.58s-0.09-.33-0.19-0.58,0.09-.44,0-0.58-0.39-.35-0.38,0,0.27,0,.38.58h0Zm-4.22,1.92c-0.11.11-.32,0.06,0,0.24s0.51,0.08.24-.24-0.13-.11-0.24,0h0ZM245.35,186c0,0.15.15,0.15,0.19,0a2.63,2.63,0,0,0,0-.77c0-.16-0.15-0.15-0.19,0a2.57,2.57,0,0,0,0,.77h0ZM89.24,197a0.46,0.46,0,0,0,.58-0.38c0.09-.34-0.44-0.09-0.58,0s-0.35.39,0,.38h0Zm9.41,4.8a0.46,0.46,0,0,0,.58-0.38c0.09-.34-0.44-0.09-0.58,0s-0.35.39,0,.38h0Zm144.59-15a0.46,0.46,0,0,0,.58-0.38c0.09-.34-0.44-0.09-0.58,0s-0.35.39,0,.38h0ZM89.63,198.12c0.1,0.26.44,0.09,0.58,0s0.24-.35,0-0.38-0.67.12-.58,0.38h0Zm-2.28-4c0.44-.1.31-0.58-0.22-0.76s-0.23.86,0.22,0.76h0Zm46.25-1.14c0.6,0.24.79,0.21,0.77-.38s-1.38.14-.77,0.38h0ZM86,193.71c0,0.31.6,0.09,0.77,0s0.29-.36,0-0.38-0.8.07-.77,0.38h0Zm-48.39-9c0.51-.37-0.2-1-0.77-0.58s0.26,0.94.77,0.58h0Zm61.83,18.43c0.42,0.22,0-.38-0.15-0.62s-0.32-1-.42-0.35a0.75,0.75,0,0,0,.58,1h0ZM37.59,186c0.57,0.58.81,0.07,0.77-.58s-0.09-1-.77-0.58-0.58.58,0,1.15h0Zm126.54,1c-0.31.18-.35,0.31,0,0.38a7.79,7.79,0,0,0,1.28.12c0.58,0,1.2-.23.83-0.32a5.78,5.78,0,0,0-2.11-.19h0ZM85.79,200.23a1.12,1.12,0,0,0,.77.38,2.84,2.84,0,0,0,1.15-.19c0.31,0-.09-0.13-0.1-0.09s0.25,0.17-.1-0.09a1.37,1.37,0,0,0-1.15-.39c-0.7,0-.91.1-0.58,0.38h0Zm14.59-26.88c-0.24.11-.15,0.18,0.54,0.61s0.93,1,1.19.35-1.49-1.07-1.73-1h0Zm70.47,13.82c-0.33.28-.25,0.58,0.38,0.58s1.63-.41,1.35-1-1.4.1-1.73,0.38h0ZM240,195.24a1.82,1.82,0,0,0,.31,1c0.21,0.26.43,1.14,0.65,0.69s0.89-3.07.19-3.07a1.54,1.54,0,0,0-1.15,1.34h0Zm-87-13.05c0.11,0.64-.47-0.32-0.77.19a1.94,1.94,0,0,0,.38,1.92c0.4,0.38.66,1.35,1-.19s-0.31-1.66-.27-2.38,1-1,.08-1.07-0.49.89-.38,1.54h0ZM90.2,199.66c0.26-.26.47,0.2,0.21,0.1s-0.48.16-.21-0.1h0Zm-0.19.19c-0.94.81-1.33-.53-1.15,0.19s0.21,0.11,1.17.18,0.25,0.14.95,0.4,0.33-.4,1.29-0.51,1.41,0.33,1.59-.07-0.24-.5-0.86-0.86a4.89,4.89,0,0,0-2.85-.35c-0.53.22,0.82,0.21-.12,1h0Zm-9.22-2.5c0.29,1.6,1.49-1,2.3-.58s0,0.15,2,.7,0.85,0.45,1.86.83-1.76.72-.38,0.77,2,0.66,2.69-.38-2.47-1.23-4-2-4.76-1-4.47.63h0Zm164,7.49h0Zm-0.38-.38a0.49,0.49,0,0,1,.38.38c0,0.16-.29.09-0.38,0s-0.15-.38,0-0.38h0Zm0,0h0Zm-0.77-.38h0Zm-0.38-.38v0h0Zm-1-.38a0.25,0.25,0,0,1,0,.38,0.24,0.24,0,1,1,0-.38h0Zm1,0.19h0Zm-1.34,0h0Zm0.38-.19h0Zm-1.15,0a1.31,1.31,0,0,0,.29.67c0.34,0.49.21,0.61,0.67,0.48s-0.3-.34.19-0.77,0.51-.15,1,0,0.4,0.13.38,0.38-0.51.26-.19,0.58,0.59-.11,1,0.19a0.93,0.93,0,0,1,.38,1.15c-0.21.47-.33,0.33-0.58,0.19s0.36-.49.22-0.76,0.16,0-.22.19-0.45.09-.77-0.19,0.57-.27.19-0.58-0.93-.67-1.15-0.19a1.29,1.29,0,0,0,.19,1.15c0.16,0.49.56-.24,0.68-0.29s0.15-.84.09-0.09-0.55.21-.39,1.15,0.67,0.2,1,.19,0-.14,0-0.17l0-.09,0.07-.2s-0.11-.2,0-0.11,0,0.26.58,0.19-0.25-.35,0-0.39,0.48-.44.58,0.19-0.06.49-.38,0.58,0.08-.18,0-0.19a0.23,0.23,0,0,0-.22.16c0,0.08.35-.61,0.22,0s-1.84.18-2.19,1.44,0.25,1.07.27,0.67-0.75-1,.19-1,0.8-.21,1.15.56,0.35,1.24,1.34,1-0.34-.64,0-1.15,0,0,.29.27,0,0.42.28,0.12a1.14,1.14,0,0,0,.07-1.21,3.91,3.91,0,0,0-.46-1.1c-0.15-.35.15-0.25,0.22-0.37-0.07.12,0,.48-0.22,0.37s-0.19-.08-0.19-0.58-0.38.88-.38,0.38-0.25.07-.19-0.58,0,0.08.25-.32a0.94,0.94,0,0,0-.34-1.12c-0.28-.17,0,0-0.14-0.06a1.78,1.78,0,0,1-.54-0.24,7.2,7.2,0,0,0-2.11-.95c-1.2-.34.49-0.24,0.16-0.64s-1.18.5-.35-0.7,1.53-1.25.38-2.11-1.3-.29-1.64,1.05-0.19,1.39.49,2.21-0.06.42-.19,0.58,0.08-.18,0-0.19a0.23,0.23,0,0,0-.22.16c0,0.08.12-.22,0.22,0h0ZM108.25,175.66h0Zm-0.38-.19h0Zm-1.73-2.11h0Zm-0.19-1.15c1.89,0.76-1.71,2.24-2.06,2.71s0,0,0,.09-0.87.38-.39,0.66,2.34-.14,2.88.19,0-.17-0.11.27-0.52.14-.08,0.31,0.87-1.18,1.15-.58,0,1.17.77,1,0.19-.21.26-0.52a0.93,0.93,0,1,0,0-.13s0,0.11,0-.13a0.33,0.33,0,0,0-.1-0.37c-0.15-.17-0.38.12-0.38-0.19s0.11-.24.38-0.38,0.54-.42,0-0.38-0.85.34-.58-0.19,1.06-.18.19-0.77-0.24.5-1,.23,0.19,0.35-.7-0.61,0.33-.44.56-0.68a0.81,0.81,0,0,0,.4-0.66c0-.33-0.77.42-0.77,0s0.64-.8.78-1.54-0.68-.71-0.9-1.31a1.15,1.15,0,1,1-.1-0.31s-0.26-.33,0,0,0.39,0.29-.06-0.11a1,1,0,0,0-.61-0.35,2.25,2.25,0,0,1-.68-0.4,1.26,1.26,0,0,1-.29-0.3c-0.4-.39-1.21-0.43-1.06-1.05s0.89,0.45.77-.38-0.59-3.68-1.15-4.41-0.83.79-1.31,1.38-1.15,1.55-1.76,1.12a1.24,1.24,0,0,1-.53-0.78,1.19,1.19,0,0,1-.26-0.44c0-.08,0,0.78,0-0.08a2.7,2.7,0,0,1,.59-1.57c0.18-.27,0-0.24-0.1-0.36a0.83,0.83,0,0,0-.33-0.23,2.74,2.74,0,0,1-.85-0.37,2.8,2.8,0,0,1-.36-0.66l-0.2-.37c-0.14-.26,1.28-0.14-0.27-0.51a23.05,23.05,0,0,0-2.51-.41c-0.94-.18-0.18-0.19-0.56.22s-0.22-.24-0.35.55,0.18,0,0,.69-0.17.16-.34,0.48-0.09-.11-0.06.26a5.36,5.36,0,0,1,.1.94c0,0.38,0,.16-0.32.49s-1.47-.06-1.13,1,0.72,1,.72,2.44,1,0.18.24,0.63-1.79.72-3.07,1.34,0.3,0.77.19,1.25a1.33,1.33,0,0,0-.15.35,4.87,4.87,0,0,1-.24,1.86c-0.37.7-.84,0.86-1.15,0.19s-1-.85-0.77-1.73,0.52,0.89,1,.19-0.5-.39-1-0.38,0.1-.09.19-0.48,0.78-1.34.39-1.82-1.59-.17-1.94-0.36,0.46,0.27-.64-0.51a11.25,11.25,0,0,0-3.94-1.82c-1.66-.42.33-0.94,0.19-2.3s-0.71,1.08-.77,0,1.1-2.47,1.52-2.9a6,6,0,0,0,.43-0.5,0.92,0.92,0,0,1,.58-0.47c0.68-.4.24-0.82,0.93-1.12s0.82,0.15,1.15-.58,0.46-.42,1-0.77,0.51,0.75,1.15.38A6,6,0,0,0,90,154.51c0.5-.6-0.16-0.52.61-0.54s-0.25.77-.55,1.37-1.72.7-.8,1.31-0.07.37,0.77,0.77,1.15-1.66,1.92-1.34,1.42,2,1.73.77-1.87-1.88-2.11-2.69,0.57-.33.38-0.77-0.6.46-1,.19,0.3-.24.24-0.48-0.58-.44-0.24-0.48a1.28,1.28,0,0,1,.82.33c0.31,0.18.49,0.29,0.6,0.36s0.2,0,.12.07-0.53-.42-0.38,0,0.15,1.07.77,0.77-0.66-.23-0.38-0.77,1.26-.55,1.71-0.78a1,1,0,0,0,.72-1,0.58,0.58,0,0,0,0-.42,1.33,1.33,0,0,1-.13-0.71c0.12-.35.75,0.3,1-0.23A2.52,2.52,0,0,0,96,149c0-.52-0.78-0.56-0.38-0.77s0.4-.06.82,0.14S96.2,149,96.92,149a1.57,1.57,0,0,0,1.34-1.15c0.26-.62.52-0.63,0.58,0.19a2.61,2.61,0,0,1-.38,1.73c-0.32.63,0.31,0,.38,0.19s-0.38.61,0,.58,0.66-1.15,1-.19-0.65-.19-0.38.77,0.83-1.17,1-.38a1.8,1.8,0,0,0,.38,1c0.33,0.74.35,1-.19,1.34a6.61,6.61,0,0,0-.9.44c-0.42.32,0,0-.45,0.32s0.26,0.65-.37,1.34-1-.26-2.5-0.38-1.47.21-1,1.34,1.56,0.23,2.41.29,0.7,0.08,1.3,1-0.14-.5.11,0.18-0.2,1.38.73,1.4,1.35,1.93,2.55,1.15-1-1.28-1-2.11,0.43,0.3,1,.69-0.37.26,0.7,1,0-.33.47-0.86,0.26,0.3.49-.29a2,2,0,0,0-.19-1.92c-0.44-.83-0.9-0.53-1-1.34s-0.26.36,0.2-.44-0.34-.8.38-0.52,0.48,0.79.67,1.25a2.67,2.67,0,0,1,.1.28c0.12,0.26.37,1.5,1,.77a6.89,6.89,0,0,1,1.25-1.44c0.65-.53.84-0.5,0.87-0.86s-0.61-.45-0.77-0.58a1.18,1.18,0,0,1-.19-0.19c-0.05,0,0,.08-0.12-0.08s-0.38-.54-0.66-0.92a2.53,2.53,0,0,0-1-.54c-0.11-.11.22,0.14,0-0.19a0.81,0.81,0,0,0-.77-0.38c-0.5-.11-0.33-0.19,0-0.38s0,0,.38-0.58,1,1.44,1,.19a3.65,3.65,0,0,0-.4-2c-0.29-.85-0.82-0.17-1.33-1.1s-1-.48-1.73-1.53a4.2,4.2,0,0,1-.77-1.92c-0.06-.31.5,0.35,0.58,0a2.54,2.54,0,0,0-.23-1.53,2.22,2.22,0,0,0-1.46-.43,1.23,1.23,0,0,0-.57,0c-0.24,0,.35.4-0.24-0.38s-1.31.14-2,.34a2.9,2.9,0,0,0-1.49.81c-0.31.38,0.1,0.7,0,1a2.93,2.93,0,0,0-.55.41c-0.07.3,0.59,1,.2,1.12s-0.63-.6-0.52-1.06a1.42,1.42,0,0,1,.3-0.63,0.28,0.28,0,1,0,0-.12,2.12,2.12,0,0,1,1-1.37c0.84-.58,1.7-0.15,1.07-0.85s-2.3-.23-3.05.59a25.53,25.53,0,0,0-2,2.44c-0.4.59-.49,0.09-0.15,0.61s1.86,0.27,1.34.77-0.71-.87-1.34-0.38,0,1,.19,1.54,0.31,0,.56,0,0.39,0,.4.18-0.8-.48-0.58,0,0.11,0.26.95,0.4,1.33-.25,1,0.37-0.5-.32-1-0.19,0,0.78-.34,1.38,0.26-.51-0.49.47,0.08,0.27-.33.83,0.05,0.3-.44,0,0.72-.73-0.33-0.38,0.58,0.78-.19,1.15-0.79.29-.77-0.77,1-2.15,0-2.3-0.65,2-1,1.34a1.08,1.08,0,0,1,.43-1.28c0.17-.16.24,0.18,0.34-0.26s-0.32-.12-0.72-0.27-1,.21-0.62-0.5,0.91,1.48,1.15-.38a4.52,4.52,0,0,0-.16-2.51c-0.16-1.07-1-.44-0.22-0.94s0.19-1.23,1.15-1.15,1.2,0.08,2.51-.95,1.4-.27.56-1-1.59-1.26-2.88-.58,0,0.24-.16.44a5.33,5.33,0,0,0-1.09,1.57,3.24,3.24,0,0,1-.41,1.32,6.49,6.49,0,0,1-1,.89,0.81,0.81,0,0,1-.58.38c-0.14.06-.22,0.05-0.22,0a0.23,0.23,0,0,1,.22-0.16c0.08,0,0,.13,0,0.19s0,0-.15.24a3.23,3.23,0,1,0-.18.39,2.41,2.41,0,0,0-.26,2.23c0.33,0.58-.19.23-0.26,0.34s0.72,0.25-.11,1-0.46-.39-1.54.19,0,0.06.33,0.44-0.58.11,0.25,0.33,1.27-.43,1.73-0.58,0-.05-0.08-0.12a1.07,1.07,0,0,1-.17-0.36c-0.07-.25.4-0.57,0.44-1.05s-0.25-.27-0.5-0.17-0.07.44-.08,0-0.43.36-.77,0,0.26-.85-0.58-0.77-1,.84-1.73,1-0.45.42,0,.58,1,0.06,1,.58-1.34,0-1.37.7,0.6-.1,0,0.26-0.3-.19-1.32-0.16-0.5,0-1.49-.68-1-.83-0.65-1.66,1,0.45,1.74.41,0.35-.73.75-1.37,0.61,0.13.77,0.38-0.15.25-.22,0.37a0.46,0.46,0,0,1,.22-0.37c0.24-.12.43,0.34,0.57-0.19A1.66,1.66,0,0,0,84,145c-0.21-.38,0,0-0.07-0.13l-0.36-.6c-0.08-.13-0.56-0.12-0.47-0.5s-0.16.26,0.26-.51,0.21-.86.77-2.11,2-1.09,1.66-2.18-1.08-.54-1.54-0.19,0.54,0.65,0,1-0.53-1.09-1.15-.58-1,2.39-1.15,3.07-0.36.58-.38,0,0.8-2.09.19-2.69-0.34.21-.48,0.59,0.11,0.39-.1.37-0.4.11-.58-0.19,0.29-.21.19-0.58S80.67,138.93,80,139s-1.15,1.67-1.11.53-0.26.13,0.29-.29,0.24,0,.48-0.29,0.42-.45,0-0.77-0.22-.71-0.43-1.49-0.58-.43-1.33-0.79-0.57-.63-1.08-0.67-1.73-1.06-2,.07-0.29.87-1.32,2.13-1.73.72-1.94,1.71,0.08,0.72.38,1.73,1-.29,1.15-0.38,0.25,0.56,1-.09-0.07-.28,1.31-1,0.79-.87,1.68-0.62-0.63.25-1.2,0.72a4,4,0,0,0-1.1.82c-0.22.4-.06,0.16,0.19,0.58s-0.12.12,0.8,0.37-0.26-.11.27,0.09,0.59,0.09.27,0.12-1.1-.48-1.75.18S76.33,143,76.74,143s2.08,0.46,1.17.94-0.89-.49-2.31-0.6-2,.28-1.53,1.37,0.67,0.08,1.54.58-0.13.05-.29,0.81-0.75-.14-0.09.73,1.75,0.27,2.68,0,1.35-.79,2.31-0.78,0,0.11.13,0.45,0.63,0,.25.51-0.48-.19-1.1-0.16-1.65.22-1.2,0.71,0.52-.94,1.15,0-1,.39-1.34,1-0.43.52-.77,0,1.61-.38-0.38-0.77-2.29,1.26-3.46-.38,0.88-.08,1.34-0.77,0-.93-0.79-1.13a2.25,2.25,0,0,1-.89-0.26,6,6,0,0,1-.79-0.56c-0.6-.43-0.3-1-1.16-1.37s-1.26.41-1.56,0.24,0,0,0-.14a1,1,0,0,0,.12-0.29c0.16-.44.84-0.62,0.24-0.92s-1.08.85-1.34,1.15-0.09-.21-0.12-0.28a0.15,0.15,0,0,1,0-.15,3.83,3.83,0,0,1,0-.86,1.59,1.59,0,0,0,0-1.4c-0.37-.58.1-0.2-0.23,0.35s-0.16.94-.93,1-0.48-.83-1.35-0.6a6.06,6.06,0,0,1-1.14.23,5.44,5.44,0,0,0-1.16.38c-0.42.1,0-.1,0-0.08s0,0,0-.08,0.15-.53-0.33-0.41a3.89,3.89,0,0,0-1.46.65c-0.66.44,0.21,0.47-.46,0.31s-0.68-.79-0.8-1.54,0.17,0.19,0-.19-0.07-.05-0.08,0,0.09,0.05-.08,0a5.65,5.65,0,0,1-1-.47c-0.53-.32,1.09-0.81-0.91-1.21s-2.7-1.42-4.42-1.53,0.86-.58,0-1.54-1.23-.84-1.73-1.54-0.76.41-1.23,0.49-0.68-.73-1.74,0-0.62.44-1.77,0.58-2.35,1.55-3.24,1.74-0.66-.4-1.42-0.28-0.78-.34-1.15.77,0.29,1.54.19,2.88,0.53,0.19.42,1-0.06.63,0.12,0.78,0.71,0.06.23,0.13-0.76.65-1.55,0-0.17-.31-0.15-0.58,0.16-.45-0.35-0.55a1,1,0,0,0-.77.07,3.48,3.48,0,0,1-.85.25c-1.08.27-1.3,0-1.9,0.6s0.6,0.41.58,1-0.7.62-.58,1.34S37.58,145,38,145a7.51,7.51,0,0,1,1,.1,1.9,1.9,0,0,0,1.51-.17c1-.35.28-0.5,0.58-0.2s-0.14.14-.25,0.32-0.22.38-.27,0.47a0.21,0.21,0,0,0,0,.11,5.11,5.11,0,0,1-.2.64c-0.11.26,0,.56-0.79,0.57s-0.14-.65-1-0.58,0.51,0.84-.38,1-0.85-.93-2,0.31-2.14,1.89-1.81,2.66a1.33,1.33,0,1,1,.15.28c-0.11.08-.5-0.16-0.57,0.19a1.31,1.31,0,0,0,.22,1.53c0.62,0.44.63-.55,1.31,0s-1.65,1.48-.77,2.11,0.52-.17,1.34-0.19,0.27,0.43.38,0.77,0.19,0.37.38,0,1.66-2.31,1-.19-2.11,2.09-3.92,3.2-0.38.25-1,.34a2,2,0,0,0-1.25.63c-0.8.53-2.15,0-2.24,1s1.29-.07,1.82-0.25a12.36,12.36,0,0,0,1.18-.43c0.46-.19.19,0,0.45,0s-0.08,0,.12,0A4.7,4.7,0,0,1,34,159c0.77-.11.4-0.13,0.5-0.17a1.07,1.07,0,0,0,.4-0.19,1.75,1.75,0,0,1,1-.71,6.53,6.53,0,0,0,2-1.09c1.37-.93,1.06-0.32,2-1s0.69,0.33.9-.45-0.56-.22-0.2-0.85,1-.31,1.71-0.9-0.06,0,.11-0.09,0.71-1.38.88-.66-0.32.45-.86,1.53-2.24.12-.48,1,2.36-1,3.13-.66-0.06.3,0.52,0.28,0.6-.49.38-1-0.69-1.61,0-1.15-0.09-.77.77,0.38A11,11,0,0,1,48,155.12c0.67,1.13.78-.22,1.48,0.25s0.46,0.05,1.4.52,0,0.82.19,1.14a1.45,1.45,0,0,1,.14.25,6,6,0,0,0,1,1.11c0.5,0.54-.2,1.49-0.23,1.8s0,0,0,.12a1.47,1.47,0,0,0,0,.77c0.15,0.24-.13-0.11.38,0s-0.27.29-.19,0.58,0.68-.08.76,0.22a1.75,1.75,0,0,1-.38.94c-0.09.19-.12,0-0.08,0.11s0.19,0.16.27,0.27a1.58,1.58,0,0,0,.22.37c0.11,0.07.29,0.57,0.36,0s-0.25-.75.19-0.58a4.63,4.63,0,0,1,.77.58c0.38,0.21-.28.33-0.38,0.38s0.08-.18,0-0.19a0.23,0.23,0,0,0-.22.16c0,0.08.2-.09,0.22,0a0.64,0.64,0,0,1-.14.52c-0.16.2-.08-0.24-0.18,0.3a0.8,0.8,0,0,0,.29.79,3,3,0,0,1,.22.57,2.9,2.9,0,0,0,.78.7c0.2,0.22-.27.4-0.33,0.49s0,0.07,0,.09l0,0.09a1.67,1.67,0,0,0,0,.19s-0.17.07,0.1,0.59,0.37-.15.52,0.57-0.39-1.19-1.34-.29,0.84,1.65,1.23,2a2.24,2.24,0,0,1,.28.29c0.18,0.2,1,.28.6,0.74s-0.46,2.57-1.48,4.86-0.63.9-.64,1.8a1.41,1.41,0,0,1-.15,1.08,1.51,1.51,0,0,0-.21,1.22c0.1,0.57,0,.06,0,0.13s0,0.21,0,.28,0-.38,0,0.15a1.74,1.74,0,0,0,.22,1.16,7.58,7.58,0,0,1,.44,1.16c0.08,0.21,0,.08,0,0.12s0,0.17,0,.24a2.29,2.29,0,1,0,0,.24,5.84,5.84,0,0,0,.53,2.17c0.46,0.93,1.08.22,1.35,0.37a1.08,1.08,0,0,1,.47.3,0.86,0.86,0,0,1,.49.67c0.15,0.53.1,0.69,0.24,1.09a5.49,5.49,0,1,1,.23.55c0.62,1.66,2,1.69,1.26,3s-1.35-.19.14,0.81,0.31,1,1.73,2.32,0.48,1.47,1.21,1.1,0.19-.59-0.45-1.28-0.35-1.56-1-2.46a3.79,3.79,0,0,1-.57-1c-0.5-.87-0.88-0.74-1-1.88s0.49-1.64,1.07-.16a8.22,8.22,0,0,0,1.47,2.76c0.78,1-.06,0,0.08.11a4.53,4.53,0,0,1,.76.86c0.25,0.42-.18.4,0.34,0.9a10.06,10.06,0,0,1,.78.76c0.28,0.32.39,0.55,0.78,1a2.46,2.46,0,0,1,.67,1.83,1.11,1.11,0,0,0,.27,1.47c0.65,0.53,0,0,.48.28a3.06,3.06,0,0,0,.91.62c0.79,0.34,1,.39,3.24,1.37s2.59-.63,4.5.88,0.79,0.88,2,1.11,1.67-.09,2.36.32,0.23,0.71.77,1.25-0.79.49,0.38,1.25,0.49,0.94,1.73,1.15a4.48,4.48,0,0,1,1.94.57c0.82,0.41.77-.16,1-0.46s-0.42-.31.36-0.68,0.71,0.15.91,0.73,0.23-.41.58,1.24a2.63,2.63,0,0,1-.63,2.74,16.14,16.14,0,0,0-1.37,1.51,3.12,3.12,0,0,0-.74,1.82c0,0.53.39,0.29,0.67,1s-0.77-1.14-1,.59,1.26,1.93,2.1,3.45,0,0.09.07,0.12-0.45-.88.07,0.13,1.66,2.47,1.94,3.25,0.06,0.27.82,0.86,2.09,1.28,3.36,2.26,1,2.05,1,3.11a9.53,9.53,0,0,1-.15,1.2,17.41,17.41,0,0,1,.08,2.77,10.38,10.38,0,0,0-.23,2c0,0.75,0-.5,0,0.14a6.2,6.2,0,0,0,.07,2.14,7,7,0,0,1-.46,3.8c-0.36.87-.17-0.2-0.43,0.53s0.22,0.42.47,1.27,0,0.57-.06,1.45,0.23,0.76.11,1.44a3.38,3.38,0,0,0-.13,1.4c0.1,0.31.41,0.18,0.58,0a0.75,0.75,0,0,0,.1-0.52c0-.18,0-0.41.07-0.71s0.19-.95.41-0.49a4.53,4.53,0,0,1,0,2.11c-0.12.43-.46,0-0.57,0s0.08-.18,0-0.19a0.23,0.23,0,0,0-.23.16c0,0.08.17,0,.23,0a0.13,0.13,0,0,1,0,.19c-0.07.08-.41-0.22-0.37,0.21s0.4,0.36.37,0.94-0.15.17-.25,0.33a0.4,0.4,0,0,0-.07.1c-0.11.2-.8,0.69-0.64,1.11s0.47-.24.77-0.19a1,1,0,0,1,.58.19c0.49,0.23,0,.68-0.13.8a0.88,0.88,0,0,0-.64.54,0.67,0.67,0,0,0,.19.59c0.15,0.35.28,0.63,0.34,0.77a0.2,0.2,0,0,1,0,.1l0.08,0.21,0.11,0.24c0,0.09-.11-0.25.2,0.39s-0.19,1.09.58,1,0-1.52.19-1a3.6,3.6,0,0,1,.38,1c0,0.56-.45.09-0.77,0.19s-0.26.25,0,.38a1,1,0,0,1,.43.15c0.35,0.24,1.67.53,1.3,1s-1-1.25-1.15-.38S96,258.39,96.59,259s0.34,0.36.91,0.36,0-.08.57,0.19,0.78,1.1,1.16.41-0.1-.5.77-0.77,0.86,0.51,1.15-.38-0.49.07-1.85-.84-0.91-1.4-1.8-1.46,0.77,0.17.77-.19a2.07,2.07,0,0,0-.55-0.79,1.35,1.35,0,0,1-.41-0.93c0.09-.42-0.18.19,0.47-0.5s0.31-.87,1.26-1.8,0.31-.81,0-1.15-1.24.15-1.54-.58,0.84-.39,1.34-1.34,0.2-1.92.38-2.11,0.44,0.18.58,0,0.1-.09-0.05-0.54-0.45.27-1.1-.23-0.75-.91-0.19-1.15,1.49,0.58,1.92-1.73,3.15-.2,3.6-1,1.19-.87.43-1.3-0.58-.22-0.65-0.47,0-.09,0-0.12a0.3,0.3,0,0,0,0-.13l-0.16-.34a0.23,0.23,0,0,0-.09-0.1s-0.75-.14-0.22-0.18a12.83,12.83,0,0,0,2.69.19c0.8-.21.5-0.66,0.8-1.12s0.33-.87.65-1.27a4.27,4.27,0,0,0,1-1,12.83,12.83,0,0,0,1.39-2.62c0.26-.88-0.33-0.82,0-1.53a4.86,4.86,0,0,1,2.32-1.54c0.7-.29-0.16,0,0.46-0.48s1.15,0.2,2.46-.65,0-.21,1-1.69-0.11-.33.4-1.51a3.56,3.56,0,0,0,.3-2.24c0-1.06-.72-1.11,0-1.49a2,2,0,0,0,1.16-1.14c0.38-.69.49-0.3,1.29-1.21s0.63-2.82.06-3.23,0,0-.88-0.28-1-.76-2-1.3-1.45-.25-2.34-0.36-0.23-.15-0.88-0.21-0.18.74-.86,0.24-0.15-.57-1.4-1.1-1.38-.17-1.86.14,0.27-.54,0-0.77-0.42.35-1-.19-0.14-1.07-.65-1.84a6.3,6.3,0,0,1-.6-1.13c-0.18-.31.18-0.23-1.14-1s-3.2-.09-4.92-1.8-1.89-.88-1.66-1.71,0.21,0.09.15-.43-0.44-.14-0.58,0,0.57,0.47,0,.58,0.12,0.35-.19-0.58-1.29-.17-1.73-0.19,0.54,0.19,0,.38-2,1-3.07,0-0.78-.47-1.46-1.42,0.09-.75-0.08-0.11-1.4,1.54-1.2.92,0.42-.18.43-0.73-0.12-.07-0.54,0,0.13,0.07-1.13.6-1.51.11-2,1.09a1.86,1.86,0,0,1-.92,1,0.72,0.72,0,1,0-.08.11c0,0.05,0,.52-0.15.23a1.87,1.87,0,0,0-1.15-1c-0.71-.22-0.75.07-1.65,0.3a2,2,0,0,1-2.1-1.15c-0.34-.68-0.51,1.13-0.09-0.56s1.16-2.8-.22-3.13-2.65.51-3.62,0,0.12-.17.26-0.51-0.1.25,0.21-.76,0.26-.14.49-0.84a3.66,3.66,0,0,0,.18-0.59c0.26-.9,1.24-0.67.78-1.71s-1.92-.12-2.88.19-0.57,1.32-.7,1.6,0,0.06-.08.11l-0.16.23c-0.14.22,0.72,0.61-.22,0.36s-2.5.32-3.4-.61a3,3,0,0,1-1-1.56c-0.33-.73-0.06-0.89,0-1.86a2.6,2.6,0,0,1,.38-1.54c0.29-.73,0-0.88.27-1.45s-0.23-.61.86-1.09,1-.62,1.37-0.71,0.12,0,.15,0-0.25,0,.09,0a17.6,17.6,0,0,1,2,0c0.55,0.08-.19-0.09.19,0.11a0.52,0.52,0,1,1,.1.07,0.46,0.46,0,1,0,.11.07,1.66,1.66,0,0,0,1.58.15c0.64-.34-0.67-0.36-0.19-1s0.62-.17,1.77-0.08a2.25,2.25,0,0,1,1.49.66c0.53,0.24.57-.95,1.15-0.38s0.31,0.1.5,1-0.22.48,0.14,1.21a1.14,1.14,0,0,0,.3.48c0.15,0.28.06,0.17,0.24,0.53s0.1,1.55.93,0.79a1.71,1.71,0,0,0,.39-2.08c-0.16-.71-0.27-1.08-0.36-1.58a3.93,3.93,0,0,1,0-1.71c0.16-.37,0,0,0.35-0.22s0.58-.32,1.24-0.68,0.6-.61,1.06-0.85,0.06,0.22.42-.16,1.77-.84,1.75-1.52-0.11-1-.15-1.51-0.2,0-.06-0.42-0.8,0,.19.77,0.41-.79,1.47-1.81,1-1.39,2.17-1.45-0.52-.26-0.64-0.32-0.44-.05-0.13-0.07l1.55-.07a1,1,0,0,0,.94-0.5c0.19-.36-0.15,0-0.25-0.1s-0.61.77-.33-0.29,1.53-1.65,3.07-2,0.06-.22.38-0.51,1-.39,1,0-1.13.84-.61,1.35,1.1-.4,1.52-0.63,1.44-.27,2.36-0.71,1.28-.22,1.15-0.77,0.16,0-.38-0.77-0.48.18-1,.74-0.25.7-.93,0.41,1.62-.36.38-0.77-0.88-.84-1.53-0.39,0.67,0.47.38,0.58-0.46.21-.58-0.19a4.34,4.34,0,0,1,.26-1.55c0.06-.28.13-0.14,0.15-0.16l0.07-.08s0,0.1.05-.08,0.27-.48-0.42-0.75-1.93,1.19-2.42.32,0.19-.1.84-0.51,0.2-.34.8-0.74-0.66-.31,2.36,0,2.95-1.59,4.84-.84h0Zm38.21,1a0.12,0.12,0,0,1,.06.06,0.12,0.12,0,0,1-.06-0.06h0Zm-1.34-3.84h0Zm-0.77-2.5c-0.22.64,0.17,0.53,0.19,1.13a0.94,0.94,0,1,1,0,.19s0-.07,0,0.09,0.06-.12,0,0.17,0.13-.1-0.1.24-0.7-.16-0.27.28,0.5,0.11,1,.38-1,.47,0,0.58,1.41,1.44.38,1.15,0.26,0.85.32,1,0.27,0,.06.12-0.8-.13-1,0.38,0.9,0.18,1.34.58-0.89.68-1.09,0.83,0,0-.1.09-1.07.28-.35,0.42a3.88,3.88,0,0,0,1.85-.47c0.43-.12,3-0.15,3.18-0.72s-0.1-.07,0-0.6,0.58-.38.2-1.09-0.67-.09-1-0.52-0.23-.58-0.58-1,0,0.06-.41-0.35-0.72-.62-1.25-1.25,0.87-1.15.58-1.73-1.05.17-1.34,0,0.31-.22.47-0.49,0.88-1.39.1-.86-1.12.4-1.52,1a0.71,0.71,0,0,0-.21.75c0,0.29-.47-0.2-0.38-0.38s0.93-.69.19-0.77-0.43.17-.58,0.77-0.23.06-.19,0.58,0.15,0.12.19,0a2.29,2.29,0,0,1,0-.58c0.09-.13.61-0.64,0.38,0h0ZM246.5,187.56h0Zm0.77-1.54h0Zm0.38,0c0.14,0.23-.52.23-0.38,0s0.25-.23.38,0h0Zm0.19,0c0-.41,0-0.39.38-0.38s-0.37.79-.38,0.38h0Zm0.38-.38c-0.15-.37,0-0.26.58-0.19s0.33,0.39,0,.38-0.43.17-.58-0.19h0Zm1.34-.19-0.22-.37,0.22,0.37h0Zm0.19-.38a0.12,0.12,0,0,1,.06.06s-0.09-.06-0.06-0.06h0Zm1.54,0h0Zm1-6.91h0Zm-73.93,21.12c0.53,0.6-.51-0.09.62,1.11s0.73,1.47,1.19,2.65,1.5,1.41.5,1.42-1.35-1.37-2.45-2-0.49-.26-0.76-0.58a7.33,7.33,0,0,0-.67-1.44c-0.56-.68-1-0.34-1.11-1.39s-0.74-1.41-1.54-2.3,0.19-.7-0.19-1.15a6.63,6.63,0,0,1-.81-1.11c-0.3-.49-1.71-1.36-0.72-1.58s0.13-.43,1.15-0.19,0.72,1,1.13,1.56a2.37,2.37,0,0,1,.5.85c0.36,0.73.11,0.19,0.86,0.47s-0.21-.37.32,0.64a3.8,3.8,0,0,1,.43,1.51c0.22,0.73,1,.89,1.56,1.5h0ZM89.24,183.34a0.11,0.11,0,0,1,.06.06s-0.08-.06-0.06-0.06h0Zm9.41-5.57,0.37-.22-0.37.22h0Zm1.35-1c0.11-.47,1.23.27,0.57,0.38s-0.69.09-.57-0.38h0Zm-4.61-1.34a0.12,0.12,0,0,1,.06.06,0.13,0.13,0,0,1-.06-0.06h0Zm3.46-.38a0.12,0.12,0,0,1,.06.06s-0.08-.06-0.06-0.06h0Zm-2.3-.38h0Zm0,0c-0.36-.39.21-0.78,0.58-0.38s-0.21.78-.58,0.38h0ZM56,171.63a0.12,0.12,0,0,1,.06.06,0.12,0.12,0,0,1-.06-0.06h0Zm0.38-1.15c-0.07-.42.41-0.66,0.58,0s0.44,2-.38,1.53-0.13-1.12-.19-1.53h0Zm0-.39a0.12,0.12,0,0,1,.06.06s-0.09-.06-0.06-0.06h0Zm48.2-.38-0.37.22,0.37-.22h0Zm0,0h0Zm-48.77-.38c0.07-.57.55-0.25,0.58,0.19a3.05,3.05,0,0,1-.19,1c-0.09.48-.15-0.27-0.27-0.6s-0.19,0-.12-0.55h0Zm49.54-.19a0.11,0.11,0,0,1,.06.06s-0.08-.06-0.06-0.06h0Zm-49.54.19-0.41-.11,0.41,0.11h0ZM84.06,216h0Zm157.45,1.92c0.18,0.08.07,0.28,0.11,0.41,0-.14-0.19,0-0.11-0.41s0.61-3,.58-2.11-0.28.33,0.08,0.88a2.6,2.6,0,0,0,1.2,1.08c0.55,0.25.67-.58,0.45-1.19s-0.12.15-.42-0.13a2.6,2.6,0,0,1-.51-0.87c-0.15-.3-0.36-0.28.09-0.56s0.88,0.26,1.21-.16,0.51-.34,0-0.77-1.36.27-2.07,0.41-1.17-.65-0.24-1,3,0.35,3.46-.57,0.05-.48-0.23-0.36,0.53-.19-0.3.17-2.58-.07-3.1.18a0.85,0.85,0,0,0-.56.41,6.31,6.31,0,0,0-1,2.66c0,0.85.45,0,.77,0.58s-0.35.86-.19,1.34,0.59-.09.77,0h0Zm1.15-13.63h0Zm-22.47,3.26a1.4,1.4,0,0,1,.11.41c0-.14-0.09-0.31-0.11-0.41s0.08-.18,0-0.19a0.23,0.23,0,0,0-.22.16c0,0.08.16-.06,0.22,0h0Zm31.3,10.17s0,0,0,.05,0,0,0-.05h0Zm2.5,4.41a0.11,0.11,0,0,0,.06-0.06s-0.08.06-.06,0.06h0Zm-7.1-2.88a0.11,0.11,0,0,0,.06-0.06s-0.08.06-.06,0.06h0ZM227.3,217.7a0.13,0.13,0,0,0,.06-0.06s-0.09.06-.06,0.06h0ZM243,204.46a0.12,0.12,0,0,0,.06-0.06s-0.08.06-.06,0.06h0Zm-18.63,9.21a0.12,0.12,0,0,0,.06-0.06,0.12,0.12,0,0,0-.06.06h0ZM91.55,249.19a0.12,0.12,0,0,0,.06-0.06s-0.08.06-.06,0.06h0ZM225.19,215.4a0.11,0.11,0,0,0,.06-0.06s-0.08.06-.06,0.06h0Zm4.8-3.84a0.12,0.12,0,0,0,.06-0.06s-0.09.06-.06,0.06h0Zm2.49,3.46a0.12,0.12,0,0,0,.06-0.06,0.13,0.13,0,0,0-.06.06h0Zm20.55-.58a0.11,0.11,0,0,0,.06-0.06,0.12,0.12,0,0,0-.06.06h0Zm-16.51,15a0.13,0.13,0,0,0,.06-0.06s-0.09.06-.06,0.06h0ZM99.8,259.94a0.13,0.13,0,0,0,.06-0.06s0,0,0,0-0.08,0-.06.06h0ZM99,204.07s0.06-.07.06-0.06,0,0,0,0-0.08,0-.06.06h0Zm-0.38.77s0.06-.07.06-0.06,0,0,0,0-0.08,0-.06.06h0Zm82.57,17.47s0.06-.07.06-0.06,0,0,0,0-0.08,0-.06.06h0Zm61.44-8.25s0.06-.07.06-0.06,0,0,0,0-0.08,0-.06.06h0ZM190,216.93s0.06-.07.06-0.06,0,0,0,0-0.08,0-.06.06h0ZM76,214.25s0.06-.07.06-0.06,0,0,0,0-0.08,0-.06.06h0Zm111.56-9.41s0.06-.07.06-0.06,0,0,0,0-0.08,0-.06.06h0Zm36.68,9.41s0.06-.07.06-0.06,0,0,0,0-0.08,0-.06.06h0Zm1.54,1.54a0.43,0.43,0,0,0,0,.19,0.23,0.23,0,0,0,.22-0.16c0-.08-0.17,0-0.22,0a0.45,0.45,0,0,0,0-.19,0.23,0.23,0,0,0-.22.16,0.44,0.44,0,0,0,.22,0h0Zm22.08-1.54c0.31,0.16-.08.18,0,0.19a0.23,0.23,0,0,0,.22-0.16c0-.08-0.14.12-0.22,0s-0.59-.54-0.22-0.76a1,1,0,0,0,.53-0.35c0.08-.18,0-0.08,0-0.11l0-.12,0.06-.12c0-.06.68-0.21,0.13-0.26s-0.46,0-.57-0.19,0.79-.33.42-0.34-0.24.09-.42,0.34,0.33-.69-0.22-0.37-0.29,1.37-.53,1.92-0.83.09-.21,0.38,0.65-.16,1,0h0Zm5.57,8.25c-0.22,0,.18.08,0.19,0a0.23,0.23,0,0,0-.16-0.22c-0.08,0,.88,0,0,0.22s-2-1.38-3.07-.58,1.55,0.16.58,0.77-2.51,1.21-2.69,2.11-0.43,0-.81-0.12-0.53-.76-1.11-0.84-0.65.18-1.42,0.69-0.13,1.29-.69,1.42-0.19-.25-0.57.58-0.72-1.09-1.26.06,0.11-.27-0.1.3,0,0.1,0,.15,0,0.1-.05.14,0.33-.68-0.06.13-3.27,1.51-4.84,2.07-1.46.34-1.9,0.79-0.26.92-.48,1.65,1,1.54.29,1.81-0.27-.24-0.77-0.38-0.07.33-.06,0.46-0.12-.18.06,0.36,0.59,0.32.77,3-1.16,2.52-.77,3.84,1.2,0.81,2.05.66,1.22-.66,2.13-0.91,2,0.23,2.57-.1a9.25,9.25,0,0,1,1.9-1.18c1-.39.82,0.2,2.16-0.34a5.27,5.27,0,0,1,3.77.35,0.91,0.91,0,0,1,.72.82,2.85,2.85,0,0,1,.33.82c0.19,0.66-.72.7,0.12,1s1.67-2.06,2.3-1.73-0.52,1-.92,1.58-1.28-.29-0.43.53,0.47-1.46,1.35-.77,0.36,0.82-.38,1.34-1.12-.27-1.35.19,0.25,0.07.78,0a0.88,0.88,0,0,0,.57-0.2c0.35-.15.2-0.81,0.58-0.19s0.41-.24.3,1.27,1,1.91,2.39,2.57,0.72-.65,1.15-0.57,0.47,1.19,1,1,0.08-.73,1.6-1.09,1.44-.55,2.18-2,0.66-.91.8-1.12a0.27,0.27,0,0,0,.08-0.11,16.55,16.55,0,0,1,.87-1.43c0.49-.69,1.42-1.23,1.8-2.42a2.36,2.36,0,0,1,.44-1.1,3.23,3.23,0,0,0,.37-2.2c0-1,.62-1.76.5-2.31s0.47,0.89-.58.38-1-1.76-1.15-2.69-0.69-.11-0.83-0.14,0-.05,0-0.07,0.2,0.6,0-.08A3.52,3.52,0,0,0,262,228.5c-0.85-.42-0.55.17-0.72-0.24s0-3.07-.71-3.71-0.48.38-.82-0.51-0.29-2.45-1.15-2.5-0.32,1.12-.52,1.79-1.48,4.49-2.36,3,0.46,0,.58,0,0.54-.16,0-0.19,0,0.13-.58.19a2.25,2.25,0,0,1-1.33-.72,0.27,0.27,0,1,0-.09,0c-0.07,0-.16-0.06-0.37-0.17s-0.28.22-.7-0.4,0.24-.82.58-1-0.09.29,0,.38a0.26,0.26,0,0,0,.38,0,0.57,0.57,0,0,0,0-.58c-0.12-.12-0.24.2-0.38,0.19s-0.65-.18-0.37-0.22,1.32-.81,1.14-1.12a1.72,1.72,0,0,0-1.15-.19h0ZM92.89,204.65c0,0.51.21,0,.12,0s-0.12-.51-0.12,0h0ZM234,233.44c0,0.51.22,0,.12,0s-0.12-.51-0.12,0h0Zm14.79-14c0,0.51.21,0,.12,0s-0.12-.51-0.12,0h0ZM93.47,204.65c0,0.51.21,0,.12,0s-0.12-.51-0.12,0h0Zm88.33,18c0,0.51.21,0,.12,0s-0.12-.51-0.12,0h0ZM99,203.5c0,0.22.2,0,.23,0s0.21,0.2.08-.05-0.34-.2-0.31,0h0Zm139.59,4.22c-0.09.47,0.5-.1,0.19-0.08s-0.1-.39-0.19.08h0Zm-6.72,2.88c0,0.31.41,0.43,0.3,0s0.32,0-.09-0.06-0.21-.25-0.21.06h0Zm-12.67-4.8c0,0.31.41,0.43,0.3,0s0.32,0-.09-0.06-0.21-.25-0.21.06h0Zm2.88,6c0.26,0.26.46-.19,0.22-0.1s-0.48-.16-0.22.1h0ZM91.55,248.23c0.26,0.26.46-.19,0.22-0.1s-0.48-.16-0.22.1h0Zm150.73-26.68c0.26,0.26.46-.19,0.22-0.1s-0.48-.16-0.22.1h0Zm5-1.73c0.26,0.26.46-.19,0.22-0.1s-0.48-.16-0.22.1h0Zm-10-1c0.26,0.26.46-.19,0.22-0.1s-0.48-.16-0.22.1h0Zm-85.83-5.38c0.26,0.26.46-.19,0.22-0.1s-0.48-.16-0.22.1h0Zm-75.08,1c0.26,0.26.46-.19,0.22-0.1s-0.48-.16-0.22.1h0Zm164.75-4.61c0.26,0.26.46-.19,0.22-0.1s-0.48-.16-0.22.1h0Zm0.77-.58c0.26,0.26.46-.19,0.22-0.1s-0.48-.16-0.22.1h0Zm-141.51-5.37c0.07,0.36.38,0.31,0.26,0s-0.32-.4-0.26,0h0ZM245.54,211c0.06,0.36.37,0.31,0.26,0s-0.32-.4-0.26,0h0ZM229,214.25c-0.16.64,0.1,0.22,0.39-.15s0.21,0,0-.23-0.22-.25-0.38.38h0Zm-8.26-5.57c0.42-.37,0-0.9-0.38-0.58s0,0.94.38,0.58h0Zm33.37,6c0.07-.45-0.1-0.67-0.54-0.62s0.46,1.06.54,0.62h0ZM101.53,258.78a1.37,1.37,0,0,0,.58,0c0.12,0,.12-0.15,0-0.19a1.41,1.41,0,0,0-.58,0c-0.12,0-.12.15,0,0.19h0ZM153,211.18c0.2,0,.1.22,0.39-0.15s0.2,0,0-.23,0-.16-0.19,0-0.39.41-.19,0.36h0Zm97.35,2.69c0.52-.22-0.92-0.66-0.77-0.19s0.25,0.41.77,0.19h0Zm-5.76,6c0.4,0.06,1.22.31,0.57-.19s0,0.19-.57.19-0.57-.18-0.77.19,0.17,0,.37,0,0-.24.4-0.18h0ZM244.2,203.5c0.43-.17.43-0.4,0-0.58s-0.43.75,0,.58h0Zm2.3,7.3c0.43-.17.43-0.4,0-0.58s-0.43.75,0,.58h0Zm-0.77,8.64a2.5,2.5,0,0,0,.77,0c0.15,0,.15-0.15,0-0.19a2.57,2.57,0,0,0-.77,0c-0.16,0-.16.15,0,0.19h0Zm-5-14.59c0.2,0.07.87-.14,0.58-0.38a0.58,0.58,0,0,0-.58-0.19c-0.33,0-.2.51,0,0.58h0Zm-60.49,17.28c0.35-.08.37-0.23,0.39-0.58s-0.3-.13-0.39,0-0.34.66,0,.58h0Zm73.35-7.1a4.17,4.17,0,0,0,1,0c0.19,0,.19-0.15,0-0.19a4,4,0,0,0-1,0c-0.19,0-.19.15,0,0.19h0Zm-6.53,0c0.09,0.48.72,0.31,0.77,0s-0.86-.48-0.77,0h0Zm8.06,33c0.65,0.44.85-.18,0.38-0.77s-1,.33-0.38.77h0ZM249,215.21a0.66,0.66,0,0,0,.58,0,0.23,0.23,0,0,0,0-.38,0.66,0.66,0,0,0-.58,0,0.23,0.23,0,0,0,0,.38h0ZM189.47,229c0.13,0.25.54,0.38,0.58,0s0-.53-0.38-0.58-0.32.33-.19,0.58h0Zm55.3-13.82a1.74,1.74,0,0,0,.49-0.07,0.86,0.86,0,0,1,.37,0c0.38,0.07.75,0.35,0.48-.36s-1.09.3-1.35,0.38h0Zm-20.93-2.11c0.13-.09.34,0,0-0.34s-0.72-1.09-.55-0.24,0.45,0.66.58,0.57h0ZM225,215c0.39,0,.13-0.44,0-0.58s-0.55-.38-0.58,0a0.49,0.49,0,0,0,.58.58h0Zm33.41,33.59c0.34-.06.16,0,0.12-0.34s0.13-.79-0.32-0.43-0.14.83,0.19,0.77h0ZM231.52,216c0.18,0.13.89,0.46,0.77,0a0.73,0.73,0,0,0-.77-0.58c-0.45-.1-0.18.44,0,0.58h0ZM75.61,214.44a0.8,0.8,0,0,0-.19-1c-0.14-.25-0.37.16-0.3,0.55s0.2,0.76.49,0.41h0Zm112.9-9.79c0.56,0.06.88,0.11,1-.38s-0.75-.08-1,0-0.55.33,0,.38h0Zm61.44,15c0.57,0.46,1-.26.58-0.77s-1.14.31-.58,0.77h0Zm-30.53-14.4c0,0.55.16,0.46,0.19,0s0.84-1.16.19-1.73-0.42,1.18-.38,1.73h0ZM249,222.31c0.29,0.42.39,0.19,0.77,0.19s0.75-.36.38-0.58-1.45,0-1.15.38h0Zm3.27-3.65c0.54,0.55,1.23-.93.57-1.15a0.66,0.66,0,0,0-.58,1.15h0Zm-6.34-2.3c0.44,0.69,1.27.53,1.15,0s-1.59-.7-1.15,0h0Zm-5.76,4.22c0.11,0.43,1,1.24,1.54.77s-0.1-.65-0.56-0.8-1.08-.4-1,0h0ZM239,207.34c1.4-.06,1.3-1.14,2.11-1.54s-0.5-1-.77-0.58a3.41,3.41,0,0,1-.59,1.14c-0.51.51-2.16,1-.76,1h0Zm4.8-1.54s0.08,0,.06.06a0.06,0.06,0,0,1-.06-0.06h0Zm3.84,10.75c0.17,0.45-.06-0.09.31-0.27s1.42,0.78,2,.28-0.31-.93-1.29-0.88-1.19.43-1,.88h0Zm-4.42,5.18c-0.57,1.39.85-.31,1.84-0.85s3.39-.81,1.81-1.07a3.3,3.3,0,0,0-3.65,1.92h0Zm-4.42-1.92c-0.84,0-2.84-.57-1,0.38s1.57,0,2.87,0,1.2,0,1.75,0,1.18,0.07,1.05-.51-0.06.12-1,.09-0.63-.28-1.41,0,0.27,0.37-.9,0-0.53,0-1.37,0h0Zm-29.38-12.29c0,1.64,1.73,1.43,1.73.77a1.59,1.59,0,0,0-.56-1.16,1.51,1.51,0,0,0-1-.75c-0.38,0,0,.17-0.09.39s-0.11-.87-0.11.76h0Zm46.08,44.54c0.6,0.59.34,0,.64-0.12s0.51-.22.62-0.27,0.07,0,.09,0-0.07.18,0.09,0,0.66-.87.9-1.26,1.14-1.06.37-1.36-1.69.38-2.24-.24,0.2-1.25-.45-0.53-0.6,3.25,0,3.84h0ZM243,216.93c0.26-.26.47,0.2,0.21,0.1s-0.48.16-.21-0.1h0Zm9-1.73a0.12,0.12,0,0,1,.06.06s-0.08-.06-0.06-0.06h0Zm-2.31-1c-0.93.77,0.11,0.33,0.79,0.74a1.55,1.55,0,0,0,1.13.41c0.7,0.08-1-.27-1,0.19a1.24,1.24,0,0,0,.77,1.15c0.58,0.29-1.37-1.47.58-.58s3.47,0.8,4,2.88-1.55.07-1,.77,1.27-.6,1.92-0.19,0.32,2.15.77,0.77,0.2-4.86-.28-5.1a7,7,0,0,0-2.58-.46,0.71,0.71,0,1,0-.11.07c-0.5.28-.44,0.75-1.06,1.07s-0.55-.18-0.94-0.45-0.11-.07-0.14-0.09-0.06,1.24-.07,0-1.95-1.93-2.88-1.15h0ZM230,215.4s0.08,0,.06.06a0.06,0.06,0,0,1-.06-0.06h0ZM183.9,224c-1,1-.39.43-1.84,0.85s-1.42.28-1.42,1.46,0.61,0.92-.36,2.34-0.72,1.7-.22,2.85,1.28,0.76,2.41.3,0.88-1.26,1.37-2.47,1-2.53,1.38-3.57-0.22-.58.59-0.79,0-.92-0.08-1.56,0.35-1.06-.5-1.32-0.16,0-.74.8,0.35,0.08-.6,1.12h0Zm50.5-11.52c-0.63.82-.25-1.31-1.34-0.38s-0.28,2.75.58,3.84,0.8,0.15,1.41.22,0.71-.26,1.34,0,0.16,0.21.51,0.57,0.7-.15,1.09-0.19-0.43.38,0.23,0,0,0.34.19-.79a3.35,3.35,0,0,1,.67-1.64c0.43-.89.54-0.6,1.27-1s-0.59-.32-0.64-0.93a7.77,7.77,0,0,1,.4-2c0.07-.34,0,0,0.06-0.07l0.16-.14c0.18-.16.37,0.25,0.4-0.35s-0.13,0-.74-0.24a1.61,1.61,0,0,1-.83-1c-0.26-.39,0-0.06-0.12-0.16s0.39-.93-0.23-0.17-1.86,1.82-2.22,2.2a2.69,2.69,0,0,1-1.06,1.05c-0.73.36-.51,0.35-1.14,1.17h0ZM100,259.17h0Zm-3.07-.77a0.12,0.12,0,0,1,.06.06s-0.09-.06-0.06-0.06h0Zm0.38-.19a0.12,0.12,0,0,1,.06.06,0.13,0.13,0,0,1-.06-0.06h0Zm-0.38-1.34c0.41,0.18.11,1.05-.19,1.34s-0.22-1.52.19-1.34h0ZM96,258a0.12,0.12,0,0,1,.06.06A0.13,0.13,0,0,1,96,258h0Zm-0.38-.19a0.12,0.12,0,0,1,.06.06s-0.08-.06-0.06-0.06h0Zm1.73-.19c0.26-.26.47,0.2,0.21,0.1s-0.48.16-.22-0.1h0Zm-2.3-.19h0Zm0.77-.19c0.26-.26.47,0.2,0.21,0.1s-0.48.16-.21-0.1h0Zm-0.58-.38s0.08,0,.06.06a0.06,0.06,0,0,1-.06-0.06h0Zm1.73,0,0.37-.22-0.37.22h0Zm-2.11-.77-0.37.22,0.37-.22h0Zm0,0h0Zm-1.92-1.34h0Zm0-2.11a0.12,0.12,0,0,1,.06.06,0.12,0.12,0,0,1-.06-0.06h0ZM92.51,249c0.54-.4.44-0.09,0.46,0.5s-0.26,1.32-.46.84-0.54-.94,0-1.34h0Zm-0.19-.58c0.33-.36.76,0.05,0.38,0.39s-0.71,0-.38-0.39h0Zm6.91-1.34L98.81,247l0.41,0.11h0Zm3.65-7.49h0Zm0,0h0Zm4.8-2.69-0.37.22,0.37-.22h0Zm0.19-.19-0.19.19,0.19-.19h0Zm0,0c-0.4-.36,0-1,0.38-0.57s0,0.93-.38.57h0Zm148.43,9c0.26-.26.47,0.2,0.21,0.1s-0.48.16-.21-0.1h0Zm-21.7-11.9s0.06,0,.06.06,0,0,0,0-0.08,0-.06-0.06h0ZM84.06,215.4a0.11,0.11,0,0,1,.06.06,0.12,0.12,0,0,1-.06-0.06h0Zm24.19-.58a0.12,0.12,0,0,1,.06.06s-0.08-.06-0.06-0.06h0Zm-1.34-1.15-0.11.41,0.11-.41h0Zm1.15-.19-0.37.22,0.37-.22h0Zm-0.77,0c0-.51.21,0,0.11,0s-0.11.51-.11,0h0Zm-0.38.19h0ZM90.78,206c0.36-.4,1.18.56,0.38,0.77s-0.75-.37-0.38-0.77h0Zm1.34-1a0.12,0.12,0,0,1,.06.06S92.09,205,92.12,205h0Zm81.41-19h0Zm-9-1h0Zm-2.5-.38h0Zm4.61-1.92c-0.61-.61.73-1,1.34-0.38s-0.73,1-1.34.38h0ZM201,196.59s0.08,0,.06.06a0.06,0.06,0,0,1-.06-0.06h0Zm-29.19-4.22a0.12,0.12,0,0,1,.06.06,0.12,0.12,0,0,1-.06-0.06h0Zm-0.19-.38a0.12,0.12,0,0,1,.06.06s-0.08-.06-0.06-0.06h0Zm68.16-2.5h0Zm18.63-18.62a0.12,0.12,0,0,0,.06-0.06s-0.08.06-.06,0.06h0Zm0.77-2.69a0.12,0.12,0,0,0,.06-0.06s-0.08.06-.06,0.06h0Zm-169.36,2.5a0.11,0.11,0,0,0,.06-0.06s-0.08.06-.06,0.06h0Zm17.47,1a0.12,0.12,0,0,0,.06-0.06s-0.09.06-.06,0.06h0ZM30.87,160.3a0.12,0.12,0,0,0,.06-0.06s-0.08.06-.06,0.06h0Zm6-1a0.11,0.11,0,0,0,.06-0.06s-0.08.06-.06,0.06h0Zm-18.24,2.88a0.12,0.12,0,0,0,.06-0.06s-0.08.06-.06,0.06h0Zm-1.54.19a0.12,0.12,0,0,0,.06-0.06s-0.08.06-.06,0.06h0Zm35.14,0.19a0.12,0.12,0,0,0,.06-0.06s-0.08.06-.06,0.06h0Zm206.8,6a0.13,0.13,0,0,0,.06-0.06s-0.08.06-.06,0.06h0Zm-169.16.58a0.11,0.11,0,0,0,.06-0.06s-0.08.06-.06,0.06h0Zm63.94-11.33a0.11,0.11,0,0,0,.06-0.06s-0.08.06-.06,0.06h0Zm-125,2.5a0.11,0.11,0,0,0,.06-0.06,0.13,0.13,0,0,0-.06.06h0Zm-4,1.34a0.12,0.12,0,0,0,.06-0.06s-0.08.06-.06,0.06h0Zm4.42-1.15a0.11,0.11,0,0,0,.06-0.06s-0.08.06-.06,0.06h0Zm130,5.57s0.06-.07.06-0.06,0,0,0,0-0.08,0-.06.06h0ZM133,160.5a0.13,0.13,0,0,0,.06-0.06s0,0,0,0-0.08,0-.06.06h0Zm-99.85-.77a0.45,0.45,0,0,0,.19,0,0.23,0.23,0,0,0-.16-0.22c-0.08,0,0,.17,0,0.22a0.44,0.44,0,0,0-.19,0,0.23,0.23,0,0,0,.16.22c0.08,0,0-.17,0-0.22h0ZM115.93,163c0,0.12-.18-0.08-0.19,0a0.23,0.23,0,0,0,.16.22c0.08,0-.55-0.79,0-0.22s0.57,0,1,.58-0.18-.08-0.19,0a0.23,0.23,0,0,0,.16.22c0.08,0-.53.11,0-0.22s0.66-.88,1.21-1.86a7.3,7.3,0,0,1,1.17-1.91c0.56-.58.42-0.17,0.59-0.72a1.18,1.18,0,0,0,.11-0.6c0-.11-0.05.14,0-0.1s-0.56,0,.14-0.76,0.3-.43,1.62-0.63a5.61,5.61,0,0,0,2.13-.6c1.06-.43,1.22-1.39,2-1.87s2.65-.67,3.8-1a21.42,21.42,0,0,0,3.15-1.65c0.5-.2.62-0.31,0-0.38a8.08,8.08,0,0,1-2.3-.19c-0.64-.3.43,0.07,0.77-0.38s-0.84-1.2-.19-1.15,0.35,0.71.91,1.22a1,1,0,0,0,1.4.32c0.74-.32,0-1.44-0.08-1.87s0.19,0.11-.2-0.37-1.2-.58-1.26-1.49,0-1.18.19-.5,0.49,1.55,1.15,1.54,0.43-1,.38-1.34-1.06.24-.38-0.19,1.41-.54,1.54-1.34-0.17,0-.37,0-0.58,0-.4-0.18a2.82,2.82,0,0,1,1-.1c0.19-.06.92-0.22,0.7-0.67s-0.3.13-.58-0.19-0.81-.22-0.19-0.58,0.28-1.92.16-2.07-0.06-.07-0.09-0.1l-0.09-.1c0-.05-0.22.11-0.18-0.23s-0.16-.66.38-0.77,0.4,0.11.77,0.38,0,2.13.25,1a4.89,4.89,0,0,1,.33-1.2c0.48-1.45-.76-0.12-1-0.94s0,0,.27-0.27,0.22,0.3.3-.3-0.76-.31-0.58-0.58a0.66,0.66,0,0,1,.58-0.19c0.17-.06-0.08.18,0,0.19a0.23,0.23,0,0,0,.22-0.16c0-.08-0.26.93-0.22,0a6,6,0,0,1,1.25-3.18,5.23,5.23,0,0,1,.85-1.06c0.5-.46.06,0,0.1-0.08a2,2,0,0,0,.15-0.19,7.54,7.54,0,0,1,1.25-1.31c0.36-.2.18-0.09,0.25-0.12l0.25-.14c0.27-.14.19,1.11,0.53-0.25s-2.63-.68-3.07-1.34,0-1.19-.38-0.58,0.82,0.56.58,1.15-0.52-.69-1-0.38a8.19,8.19,0,0,1-.84.89l-0.13.06a1.28,1.28,0,0,1-.28.1c-0.22.06-.56,0.77-0.67,0.1s2.75-.79,1.54-2.11-0.89.51-1.59,0.71-0.75.28-.71-0.13,0.36-.42.38-0.77-0.17,0-.37,0-0.57.08-.4-0.18,1.06-.09,1.91-0.19,2-.44,1.54-1.15-1.24-.34-1.92-0.77,0.49-.39,0-0.77-0.67.15-.82,0.15-1.15.32-.71-0.15,1.47,0,1.15-.58-0.37-.3-1.36-0.56-2.89-.83-3.84-0.38-0.12.38-.56,0.17,0.08-.18,0-0.19a0.23,0.23,0,0,0-.22.16c0,0.08.43-.33,0.22,0s-0.06-.11-0.77,0,1.2,0.64.38,0.77-0.94-.76-2.29-0.19-0.79.08-1,.57,0.51,0.31.53,0.51-0.11.07-.46,0.1-0.71,0-.69.41a2.82,2.82,0,0,0,.08.64c0.05,0.27,1,1.22.34,1.41s-0.4-.25-0.72-0.81a3.28,3.28,0,0,0-.3-0.47c-0.38-.6-0.07-1.69-1.09-1.21s0,1.19-.19,1.92-0.78-.1-0.93-0.13,0.08,0.19,0-.08-0.21-2.26-.42-1.52,0.21,1.37-.38,1.15,1.05-.82.19-1.34-2,.24-3.26.38,0.43,1,0,.77-0.56-1.77-1.15-.38,0.6,1-.58,1.73-0.82-.59-2,0.17-0.94.39-1.5,1.18-0.69,0-.19.58,1.62,0,1.15.58a4.94,4.94,0,0,1-1.09,1c-0.63.54-.9,0-1.76,0.14s-0.89.24-1.74,0.39-1.36,0-1.56.75,0.24,0.48.51,0.85,0.19,0.33.4,0.66a0.73,0.73,0,0,0,.83.36c0.55,0,1.24-.56,1.14,0s-1.87,0-2.88.38-0.39.48,0,.77,0.7-.49,1,0.38-0.73,0-.77.58a1.14,1.14,0,0,0,1,1.12c0.54,0.11-.6-0.11.35-0.54s0.6,0.43,1.23.38a1.06,1.06,0,1,1,.37,0c0.07,0-.42.05,0.08,0a4.22,4.22,0,0,1,2.54,1.19c0.69,0.72,0,.82.06,1.45s-0.12.39,0,.73,0,0,.12.22,0,0.12.05,0.15a0.27,0.27,0,0,1,0,.08,0.66,0.66,0,1,1,0,.08,5.28,5.28,0,0,0,0,1.89c0.21,0.95,1.29-.49.39,0.58a3.41,3.41,0,0,0-1,1.65c-0.32.76-.45-0.3-0.19,0.46s0.37,0,.77.38,0.05,0.76.39,0.39-0.44.21-.39-0.39,0.27-.26.39-0.58,0.46,0.24.38,0.38-0.84.26-.19,0.58,0.73-.12.58,0.57-0.17-.14-0.91-0.29-0.47,0-.82.29-0.29-.11-0.15.12,0.81,0.16.34,0.26-0.55,0-.69.32a0.76,0.76,0,0,0,0,.89c0.24,0.49,1.6.81,1.79,0.13s-1.74-1.16-.58-1,1.44-.81,1.15,1-0.56,1.2-1,1.2,0.09-.31-0.53,0,0.26-.38-0.47.58-0.45-.07-0.76,1.08,0.47,0,0,1.11,0.17,1.67.12,3,0.5-.43.38,0a1.53,1.53,0,0,0,.29,1.63c0.59,1,.18,1.43,1,2.26s0.11,0.1.19,0.26,0,0.05,0,.09-0.14.22,0,.18a1.71,1.71,0,0,1,1.25.13,1.39,1.39,0,0,1,.29.45h0Zm43.4,3.65c0.22-.45.18,0.08,0.19,0a0.22,0.22,0,0,0-.16-0.22c-0.08,0,.28.1,0,0.22a1.15,1.15,0,0,0-.77.38c-0.22.32,0.17,0.54,0.38,0.56s0,0.08.22-.31-0.06-.18.16-0.63h0Zm-56.26-6.33c-0.1-.18.08-0.18,0-0.19a0.23,0.23,0,0,0-.22.16c0,0.08.26-.12,0.22,0a1.41,1.41,0,0,0-.38.58c0.07,0.2.46,0.59,0.58,0s-0.09-.4-0.19-0.58h0Zm66.05-2.5c-0.18.18,0.16,0.07,0.05,0s0.13-.18-0.05,0h0ZM28.18,160.5c0.39-.28.39-0.05,0.38-0.38s-0.1.41-.38,0.38-0.31-.59-0.77-0.19-0.35.74-.77,0.77,0.12-.49-0.21-0.37-1.75.53-1.14,0.95,0.46-.41,1.34-0.58,0.31,0.23.8,0.05a2.21,2.21,0,0,0,.74-0.63h0ZM24,161.65c0,0.51.21,0,.12,0s-0.12-.51-0.12,0h0Zm132.3,7.87c0,0.23.2,0,.23,0s0.23,0.21.08-.05,0,0-.1,0-0.24-.17-0.21.06h0Zm102.53-3.65c0,0.22.2,0,.23,0s0.21,0.2.08-.05-0.34-.2-0.31,0h0ZM19,162.22c-0.09.47,0.5-.09,0.19-0.08s-0.1-.39-0.19.08h0Zm124,8.26c-0.09.47,0.5-.1,0.19-0.08s-0.11-.39-0.19.08h0ZM22.42,162c-0.09.47,0.5-.09,0.19-0.07s-0.1-.39-0.19.08h0ZM18,162c0,0.31.41,0.43,0.3,0s0.32,0-.09-0.06S18,161.72,18,162h0Zm20-3.65c0.26,0.26.46-.19,0.22-0.1s-0.48-.16-0.22.1h0Zm221,9.41c0.26,0.26.46-.19,0.22-0.1s-0.48-.16-0.22.1h0Zm-162.06-9c0.26,0.26.46-.19,0.22-0.1s-0.48-.16-0.22.1h0Zm-75.46,3.65a1.37,1.37,0,0,0,.58,0c0.12,0,.12-0.15,0-0.19a1.38,1.38,0,0,0-.58,0c-0.12,0-.12.15,0,0.19h0Zm244.63-3.07c0.54,0,0-.1-0.32-0.25s-0.53-.67-0.44-0.13,0.22,0.42.77,0.38h0ZM141.47,162c0.09,0.26.44,0.09,0.57,0s0.24-.35,0-0.38-0.67.12-.57,0.38h0Zm-41.32,0c0,0.24.47,0.17,0.62,0s0.23-.56,0-0.58a0.71,0.71,0,0,0-.62.53h0Zm45,2.15c-0.24.5,0.44,0.14,0.58,0s0.5-.63,0-0.58-0.33.08-.58,0.58h0ZM20.5,162.22c0.42,0.58,1.32-.12.77-0.58s-1.19,0-.77.58h0Zm75.65-4.61c0.63-.44-0.5-1.35-0.77-0.58s0.14,1,.77.58h0Zm160.91,15c0.42,0.58,1.38-.5.77-1s-1.19.38-.77,1h0Zm-97.16-8.25c0.79-.31-0.06-1.4-0.58-0.77s-0.22,1.08.58,0.77h0ZM95,158c0.62,0.07.45-.17,0.38-0.58s-0.63-.77-0.76-0.22-0.24.72,0.38,0.79h0Zm169.93,1.34c0.05-.52-0.81-1.4-1.34-1s0,0.28.52,0.63,0.77,0.85.82,0.33h0ZM259.17,167c0.68,0.49,1.25-.68.77-1.34s-1.45.85-.77,1.34h0ZM90.59,165.87c0.06,0.16-.18.39,0.19,0.58s0.79,0.6,1-.19-1.22-.54-1.15-0.38h0Zm2.3-6.34c0.63,0.23-.08.16,0.27-0.12s0.8-.74.28-0.93-1.17.82-.54,1h0Zm162.64,14.59c0.2,0.86,2.15-1.5,1.34-1.54a1.28,1.28,0,0,0-1.34,1.54h0ZM90.59,158.77c0.71,0.88,2-.11,1.73-1s-0.4-.6-1.15-0.19-1.28.27-.58,1.15h0Zm-38,8.06a4,4,0,0,0,.38-2.5c0-1-.45-1.1-1-0.38s0,4.12.58,2.88h0Zm-14-10c-0.35.55-.39,0.46-0.19,1s-0.18.28,0.38,0.38,1.08-.56,1.71-1,1.12-1.72.78-1.71a1,1,0,0,0-.79.65c-0.33.51,0.37,0.09-.3,0.34s-1.25-.2-1.6.35h0Zm102,13.25c-0.29.59-1.26-.8-1.15,0s-0.07.85,0.58,1.15-0.22.34-.32,0.47l-0.09.11s0.17-.22-0.09.1-0.74-.11-0.28.67a1.66,1.66,0,0,0,2.89-.2c0.9-1.47.15-1.31,0.58-1.92s-0.22-1.07-.9-1.22a1,1,0,0,0-1.22.83h0Zm-8.83-13.44h0Zm0,0a1.2,1.2,0,0,0-.52.29,0.65,0.65,0,0,0-.32.54c0,0.31.76-.58,1.22,0.13s-0.54.5-1.15,0.58-0.44.3,0,.38a2.58,2.58,0,0,1,1.15.38c0.23,0.21.07-.12-0.17,0.21s-1.22,0-.4.75,1.11,0.08,2,.28a2.44,2.44,0,0,0,1.88-.39l0.79-.36a2.1,2.1,0,0,0,1.21-1.19c0.16-.52.9-0.32,0.22-0.64s-0.43-.78-1-0.93a0.9,0.9,0,0,0-.64-0.05c-0.12,0-.08,0-0.11,0s0,0-.11.05a1.24,1.24,0,0,1-.77.16c-0.68,0-.81,0-1,0.53s-0.18-1.08-.58-0.58,0.54,1.86-.57,1,0.36-.85-0.58-1.34-0.22,0-.58.19h0ZM101.53,158l-0.19-.19,0.19,0.19h0Zm-0.19-.19h0Zm3.26-7.87a0.12,0.12,0,0,1,.06.06s-0.08-.06-0.06-0.06h0Zm-5.76,0c0.17-.43.4-0.43,0.58,0s-0.75.43-.58,0h0Zm5.57-1c0-.51.21,0,0.11,0s-0.11.51-.11,0h0Zm-6.34-1.34c0.2,0.08.09,0.06,0,0s-0.2-.08,0,0h0Zm-7.49,21.21h0Zm71.62-10.65a0.11,0.11,0,0,1,.06.06,0.13,0.13,0,0,1-.06-0.06h0Zm5-2.3L167,155.7l0.19,0.19h0ZM167,155.7h0Zm-7.87-3.84h0Zm-1.15,0c0.64-.18,1.22,0,0.58.19s-1.22,0-.58-0.19h0Zm3.65-1c0.18,0.64,0,1.22-.19.58s0-1.22.19-.58h0Zm-1.54.38a0.12,0.12,0,0,1,.06.06s-0.08-.06-0.06-0.06h0Zm1.73-.77-0.19.38,0.19-.38h0Zm-49,7.49h0Zm7.3-.38h0Zm1.92-1.15a0.12,0.12,0,0,1,.06.06,0.12,0.12,0,0,1-.06-0.06h0Zm4.22-2.69a0.12,0.12,0,0,1,.06.06,0.12,0.12,0,0,1-.06-0.06h0ZM114,153.59a0.11,0.11,0,0,1,.06.06s-0.08-.06-0.06-0.06h0Zm0.19-1a0.12,0.12,0,0,1,.06.06s-0.09-.06-0.06-0.06h0Zm-0.58-.38h0Zm1.34-.58a0.12,0.12,0,0,1,.06.06s-0.08-.06-0.06-0.06h0Zm14.21-.77a0.12,0.12,0,0,1,.06.06s-0.08-.06-0.06-0.06h0Zm-14-.19c0-.51.21,0,0.11,0s-0.11.51-.11,0h0Zm14.4-.38a0.12,0.12,0,0,1,.06.06,0.12,0.12,0,0,1-.06-0.06h0ZM114,150.13h0Zm1-.58a0.12,0.12,0,0,1,.06.06s-0.08-.06-0.06-0.06h0Zm15.74-.19a0.11,0.11,0,0,1,.06.06,0.12,0.12,0,0,1-.06-0.06h0ZM114.78,148l-0.19.19,0.19-.19h0Zm0,0h0ZM54.3,165.49c0-.48.53,0,0.17,0s-0.17.47-.17,0h0Zm0-1.92h0ZM53.91,163A0.12,0.12,0,0,1,54,163S53.88,163,53.91,163h0Zm-0.38,0h0Zm-0.19-.58c0.26-.26.47,0.2,0.21,0.1s-0.48.16-.21-0.1h0Zm0-1.15a0.48,0.48,0,0,1,.21.76c-0.24.14-.1,0.39-0.29-0.29s-0.21-.46.08-0.47h0Zm0.38,0a0.12,0.12,0,0,1,.06.06s-0.08-.06-0.06-0.06h0Zm-1,0a0.12,0.12,0,0,1,.06.06,0.12,0.12,0,0,1-.06-0.06h0Zm0.58,0h0Zm0.58-.38h0Zm-1.54.19h0Zm1.34-.58,0.19,0.38-0.19-.38h0Zm0,0-0.19-.19,0.19,0.19h0ZM53,160.3l-0.37.22L53,160.3h0Zm-1,0,0.11-.41L52,160.3h0Zm1.54,0c-0.16.16-.64,0.27-0.58,0a1.15,1.15,0,0,1,.77-0.77c0.31,0,0,.61-0.19.77h0Zm0.19-.77c-0.22-.31-0.16-0.36.19-0.38s0,0.69-.19.38h0Zm-1-.38a0.12,0.12,0,0,1,.06.06,0.12,0.12,0,0,1-.06-0.06h0Zm0.58-.58h0Zm-0.77.19c-0.12-.42.27-0.19,0.21-0.11s0,0,0,0-0.08.51-.2,0.09h0Zm0.77-.19c-0.21,0-.23.25-0.19-0.38s0.4,0.42.19,0.38h0Zm-1-.57h0Zm0,0-0.22-.38L52.38,158h0Zm1-.58c0-.51.21,0,0.11,0s-0.11.51-.11,0h0Zm33-1h0ZM38,154.54a0.12,0.12,0,0,1,.06.06s-0.09-.06-0.06-0.06h0Zm7.87-.38c0.15,0.37,0,.26-0.58.19s-0.33-.39,0-0.38,0.43-.17.58,0.19h0ZM46,154l-0.19.19L46,154h0Zm42.43-.77a0.62,0.62,0,0,1,.77,1,0.62,0.62,0,0,1-.77-1h0Zm4-1a0.12,0.12,0,0,1,.06.06s-0.09-.06-0.06-0.06h0Zm-49.16.58c-0.74-.49,1-1,1.54-0.58s0.82,0.38,0,.58-0.8.49-1.54,0h0Zm-7.68-1a0.12,0.12,0,0,1,.06.06,0.13,0.13,0,0,1-.06-0.06h0ZM86,150.51c-0.23.54,0.11,0.09-.46,0s-0.24.34-.12,0,0.15-1.14.77-1,0,0.42-.19,1h0Zm107.14-3.65h0Zm-19.2-15.55c0.57-.23.25,0.15,0.37,0.22a1,1,0,0,1-.37-0.22c-0.05-.11,0,0,0.14-0.26a0.83,0.83,0,0,0,0-.7c-0.09-.2,0-0.06,0-0.09a1.41,1.41,0,0,0-.23-0.13c-0.06,0-.24.41-0.27,0.21a6.28,6.28,0,0,0,0-1c-0.09-.35-0.21-0.49-0.73-0.33s0.39-.44-0.13.84-0.9.26-.45,1.47,1.16,0.23,1.73,0h0Zm-69.13,20.54v0h0Zm65.48-21.31h0Zm52.8,8.06a0.24,0.24,0,0,1,.19.19c0,0.07-.1,0-0.12.08s0.08,0.06-.11,0-0.26.06-.35-0.13,0.27-.19.38-0.19h0Zm39.55-3.84c0-.13-0.12-0.34.19-0.19s0.9,0.44.58,1-0.22-.07-0.45-0.31a0.86,0.86,0,0,1-.32-0.45h0Zm-102.92-.38c0-.52.28-0.07,0.41-0.11a0.54,0.54,0,0,1-.41.11c-0.27,0-.7-0.24-1.18-0.38s-0.51-.07-0.74.38,0-.13-0.19-0.39,0.14-.63-0.39-0.38,0.38,1.42-.19,1,0.14-.7-1.34-1,0-.13-0.58.58,0.52,0.76.38,1.34-0.84-1-1.34-.77,0.06,0.48-.19,1-0.54-.31-0.92-0.43-0.85-1-1.38.24,0.46,1.22.19,1.73-0.42-.47-0.38,0a2.07,2.07,0,0,0,1,1.34c0.38,0.17-.64-0.48,0-0.38s0.75,0.6,1.15,1.34,0.06,0.82.56,1.18a2.16,2.16,0,0,1,.78,1.13c0.25,0.52.45,0.34,0.58,0s0-.73.13-1.21,0.37-1.31.52-2-0.26-.6.12-1.05,0.59,0.22.89,1,0.13,0,.14.52-0.15.88,0.89,0.36-0.14,1,.19.77,1.24-.75.77-1.34-0.27,0-.59-0.09a0.85,0.85,0,1,1-.09,0l-0.12-.13a0.28,0.28,0,0,1,0-.09s0.23,0.2,0-.1-1.13-1.23-1.54-1.72-0.35.15-1.06-.32-0.86-.79-0.19-1,0.09,0.37,1.25.67-0.34.32,1.25,0.48,1.14-.3,1.64-1.44,0.12-.34.09-0.86h0Zm34.56,6.14s0,0.05,0,.05,0,0,0-.05h0Zm4-5.38s0,0.05,0,.05,0,0,0-.05h0Zm-18.05,16.89a0.12,0.12,0,0,0,.06-0.06,0.12,0.12,0,0,0-.06.06h0Zm0.39,0a0.12,0.12,0,0,0,.06-0.06s-0.08.06-.06,0.06h0Zm62.79-17.66a0.12,0.12,0,0,0,.06-0.06s-0.08.06-.06,0.06h0ZM97.11,150.51a0.12,0.12,0,0,0,.06-0.06,0.12,0.12,0,0,0-.06.06h0Zm25.15-22.46a0.11,0.11,0,0,0,.06-0.06,0.12,0.12,0,0,0-.06.06h0Zm120.58,6.53a0.12,0.12,0,0,0,.06-0.06,0.12,0.12,0,0,0-.06.06h0Zm1.15-.19a0.11,0.11,0,0,0,.06-0.06s-0.08.06-.06,0.06h0Zm-151.69,2.3a0.13,0.13,0,0,0,.06-0.06s-0.08.06-.06,0.06h0Zm2.11,3.84a0.12,0.12,0,0,0,.06-0.06s-0.08.06-.06,0.06h0Zm-4.61,6.91a0.11,0.11,0,0,0,.06-0.06s-0.08.06-.06,0.06h0Zm104.84-13.82a0.11,0.11,0,0,0,.06-0.06s-0.09.06-.06,0.06h0ZM47.58,155.12a0.11,0.11,0,0,0,.06-0.06s-0.08.06-.06,0.06h0ZM181,152.05a0.13,0.13,0,0,0,.06-0.06s0,0,0,0-0.08,0-.06.06h0Zm1.15-1.15s0.06-.07.06-0.06,0,0,0,0-0.08,0-.06.06h0Zm-68.55-5.95s0.06-.07.06-0.06,0,0,0,0-0.08,0-.06.06h0Zm80.07-3.46s0.06-.07.06-0.06,0,0,0,0-0.08,0-.06.06h0ZM95.39,156.85s0.06-.07.06-0.06,0,0,0,0-0.08,0-.06.06h0Zm18.05-14.4a0.14,0.14,0,0,0,.06-0.06s0,0,0,0-0.08,0-.06.06h0Zm80.84-.77s0.06-.07.06-0.06,0,0,0,0-0.08,0-.06.06h0ZM82.33,147.83a0.21,0.21,0,0,0,.09,0s0,0,0,0h0s-0.07,0-.05,0h0Zm100.42,3.26a0.45,0.45,0,0,0,0,.19,0.23,0.23,0,0,0,.22-0.16c0-.08-0.18,0-0.22,0a0.45,0.45,0,0,0,0-.19,0.23,0.23,0,0,0-.22.16c0,0.08.17,0,.22,0h0Zm-74.89-17.66c0.23-.2-0.08.18,0,0.19a0.23,0.23,0,0,0,.22-0.16c0-.08-0.12.23-0.22,0s-0.2.16-.38-0.38-0.5,0,.3-0.19-0.38.44,0.4,0-0.21,0-.5-0.54,0.51-.32.92-0.28-0.54-.57.61-0.49a4.44,4.44,0,0,0,1.92-.19c0.54-.12-0.59-0.1-0.19-0.29s0.86-.45,1.46-0.74,1.3-.53,1.91-0.77a12.22,12.22,0,0,0,1.23-.5c0.36-.2.59-0.46,0-0.58s-0.9.13-.58-0.19,1.06-.08,1.68-0.22a5,5,0,0,0,1.77-.74c0.47-.35.56-0.86,0-1.15s0-.49-0.38-1.15-0.36.15-1-.19a20.13,20.13,0,0,0-1.95-1.14c-0.88-.41-1.49.8-1.51,0.18s0.57-.41,0-0.58a2.77,2.77,0,0,0-1.73-.19c-0.61.2,0.77,1.29,0,1s0.14-.17-0.52-0.65-0.83-.88-1.21-0.31,0.24,0.75-.19.77,0.14-.44,0-0.58-0.32-.45-0.58,0-0.38,0-.67.5-0.11.67-.29,0.84-0.43.32-.58,0,0.87-.73-0.19-1-0.43-.19-1.34.58,0.34,0.43.38,0.77,0.32,0.12-.26-0.12a1.62,1.62,0,0,1-.9-0.65c-0.36-.4-0.47.36-0.51,0.37l-0.09,0h-0.09a2.12,2.12,0,0,0-1.8.39c-0.75.64,0.13-.25,0.38,0.58s-0.11.13-.29,1.21,0.33,0.84.87,1.1,0.11,0.46.7,0.66a1.3,1.3,0,0,0,1-.09c0.29,0-.42.28,0,0.38s1.07-.51,1.54.19-1.39-.26-1.92,0-0.13,2.21-.19,1.34-0.41-2.34-1.54-1.73,0.6,1.38-.38,2.11-0.51-.87-0.42-1.19,0.69-.83.42-1.5-1.1.12-1.15-.58,0.15-2.81-1-2.3,1.36,0.45.58,1-1.27.36-1.15,1-0.13-.16-0.33-0.2,0.21-.13-0.27,0,0.22-.33-0.74.17,0.68,0.52.58,1.15-0.58-1-1-.38a2.56,2.56,0,0,0-.58,2.11c0.29,0.68.53,0.11,1,.19s0.46,0.41,0,.38a1,1,0,0,0-1.15.48,0.81,0.81,0,0,0-.14.66,0.72,0.72,0,0,0,.26.84c0.39,0.39,1.24.13,1.8,0.32s1,0.19.38,0.77-0.28.79-.58,1.53-0.7-.16-1.24,0a4.14,4.14,0,0,1-1.52.39c-0.94,0-1.13.46-1.46-.16s-1.29-1.93-1.92-1-0.5.43,0.19,1.34,0.77-1.16,1.34.38-1.18,1.47-1,2.88,1,0.4,1.54.39-0.65-.21,0,0.57,2.55,0.29,3.27.45,0.18,0.3,1,.29,0.31,0.14.87-.21a0.73,0.73,0,0,0,.54-0.63c0.27-.54.58-0.42,0.29-0.86a3.55,3.55,0,0,0-2.77-.88c-1.14.14-.42,0.11-0.69,0.08s0.2,0.14-.57-0.14-1.55.17-1.53-1,0.37-.07,1.15-0.58,0.48,0.07,1.46.48,0.75,0,1.44.08a2.88,2.88,0,0,1,1.52.48c0.42,0.33,0-.44,0,0.24s-0.61-.13,0,0.26,2.46-.46,2.26-1.22,0.11,0.08-.19-0.22-1.42,1-.34-0.29a8,8,0,0,1,1.73-1.54c0.69-.65.85,0.33,1.34,0.19s-0.08,0,.22-0.36a15.84,15.84,0,0,1,1.13-1.17h0Zm65.86-4.22c0,0.51.21,0,.12,0s-0.12-.51-0.12,0h0Zm-81.8,9.6c0,0.51.21,0,.12,0s-0.12-.51-0.12,0h0Zm158,16.51c0,0.51.21,0,.12,0s-0.12-.51-0.12,0h0Zm-58.37-17.09c-0.23.07-.33-0.42-0.37-0.21s-0.2.16,0.11,0.26,0,0,.27-0.05a3.15,3.15,0,0,1,.58,0c0.12,0,.54-0.16,0-0.19s-0.34.12-.58,0.19h0Zm-66.82-11.52c0,0.22.2,0,.23,0s0.21,0.2.08-.05-0.34-.2-0.31,0h0Zm72.77,8.64c-0.09.47,0.5-.09,0.19-0.08s-0.1-.39-0.19.08h0Zm-7.87,7.87c0,0.31.41,0.43,0.3,0s0.32,0-.09-0.06-0.21-.25-0.21.06h0ZM83.48,138.8c0,0.31.41,0.43,0.3,0s0.32,0-.09-0.06-0.21-.25-0.21.06h0Zm109.64,2.69c0,0.31.41,0.43,0.3,0s0.32,0-.09-0.06-0.21-.25-0.21.06h0Zm10.18-9.41c0,0.31.41,0.43,0.3,0s0.32,0-.09-0.06-0.21-.25-0.21.06h0Zm-9.6,2.69c0,0.31.41,0.43,0.3,0s0.32,0-.09-0.06-0.21-.25-0.21.06h0Zm-103.3,3.84c0.26,0.26.46-.19,0.22-0.1s-0.48-.16-0.22.1h0Zm100,5.18c0.26,0.26.46-.19,0.22-0.1s-0.48-.16-0.22.1h0Zm0.58-2.88c0.26,0.26.46-.19,0.22-0.1s-0.48-.16-0.22.1h0Zm-94.09,10c0.26,0.26.46-.19,0.22-0.1s-0.48-.16-0.22.1h0ZM85,131.32c0.26,0.26.46-.19,0.22-0.1s-0.48-.16-0.22.1h0Zm86,1.92c-0.49-.19,0-0.76-0.39-0.38s0.13,0.19.39,0.38-0.38.26-.21,0.37,0.74,0.52.79,0-0.09-.19-0.58-0.38h0ZM85,144.95c0.07,0.36.37,0.31,0.26,0s-0.32-.4-0.26,0h0Zm75.08-7.29c0.42-.37,0-0.9-0.39-0.58s0,0.94.39,0.58h0Zm39.13-2.45c0.07-.45-0.1-0.67-0.54-0.62s0.47,1.06.54,0.62h0Zm-62.55,4.57c0,0.12.15,0.12,0.19,0a1.39,1.39,0,0,0,0-.58c0-.12-0.15-0.12-0.19,0a1.4,1.4,0,0,0,0,.58h0Zm20.16,5.76c0,0.12.15,0.12,0.19,0a1.38,1.38,0,0,0,0-.58c0-.12-0.15-0.12-0.19,0a1.36,1.36,0,0,0,0,.58h0ZM138,130.74c0,0.12.15,0.12,0.19,0a1.37,1.37,0,0,0,0-.57c0-.12-0.15-0.12-0.19,0a1.38,1.38,0,0,0,0,.57h0ZM29.14,150.32c0.42-.07-0.46-1.05-0.54-0.62s0.11,0.69.54,0.62h0Zm196.62-24.19c0.45,0.27.61-.16,0.38-0.58s-0.84.31-.38,0.58h0Zm-69.12,7.29c0.53,0-.07-0.08-0.21-0.18s-0.32-.58-0.37-0.21,0,0.41.58,0.38h0Zm-63.17,3.46c0.43-.17.43-0.4,0-0.58s-0.43.75,0,.58h0Zm-47,17.47c0.09,0.13.39,0.35,0.38,0a0.46,0.46,0,0,0-.38-0.58c-0.34-.09-0.09.44,0,0.58h0Zm77.77-26.3c0.09,0.13.39,0.35,0.38,0a0.45,0.45,0,0,0-.38-0.58c-0.34-.09-0.09.44,0,0.58h0Zm65.67,16.51c0.36,0.07.09-.44,0-0.58s-0.38-.33-0.38,0,0,0.51.38,0.58h0Zm-53-7.68c0.07,0.32.3,0.13,0.38,0s0.29-.6,0-0.58a0.43,0.43,0,0,0-.38.58h0Zm-44.36.19c-0.17-.1-0.27.88-0.58-0.19s1.2-1.65,1.15-2.11-0.2-.27-0.54-0.44a6.15,6.15,0,0,0-.91-0.35c-0.38-.13-0.68-0.76-0.86,0s0.45,0.32.37,0.62,0.07,0.61-.17.53-0.08,0-.19-0.58-0.43-.4-0.58,0,0.09,1.3-.38,1,0.12-1.52,0-1.92-0.45-.76-0.58,0a4.93,4.93,0,0,0-.23,1.93c0.13,0.81-.13.44,0,0.57a4.24,4.24,0,0,0,.79,0c0.58,0.1.3,0.24,0.16,0.5s-0.76.57-.37,0.83a1,1,0,0,0,1.29.14c0.84-.28.25-0.7,1-0.71s-0.09.29,0,.38,0.39-.26.39,0a0.42,0.42,0,0,1-.22.36c-0.11.14-.28,0.3-0.36,0.41s0.05,0.14.29,0.28,0.28,2.05,1.24.67-0.6-1.82-.77-1.92h0Zm96.39-10.37c0.61,0.24.79,0.21,0.77-.38s-1.37.14-.77,0.38h0Zm-13.63,1.92a0.66,0.66,0,0,0,.58,0,0.23,0.23,0,0,0,0-.38,0.65,0.65,0,0,0-.58,0,0.23,0.23,0,0,0,0,.38h0Zm9.22,3.45a0.65,0.65,0,0,0,.58,0,0.23,0.23,0,0,0,0-.38,0.66,0.66,0,0,0-.58,0,0.23,0.23,0,0,0,0,.38h0ZM224,133.81c0.41-.6-0.19-1-0.77-0.58s0.36,1.17.77,0.58h0Zm-32.45,5.57c0.13,0.25.54,0.38,0.58,0s0-.53-0.38-0.58-0.32.33-.19,0.58h0Zm-89.48-.77c0.63,0.39.91,0.18,0.77-.58s-1.4.18-.77,0.58h0Zm-17.86-6.53c0.14,0.14.6,0.43,0.58,0s0-.42-0.58-0.58-0.14.44,0,.58h0Zm76.23,5c0.14,0.3.6,0.09,0.77,0s0.29-.33,0-0.38-0.91.08-.77,0.38h0Zm-76.8,10.75c0.09,0.13,0,.34.34,0a0.52,0.52,0,0,0,.24-0.55c0-.22-0.29.05-0.52,0.27s-0.14.18-.06,0.31h0ZM173,128.63c0.12,0.34.44,0.14,0.58,0s0.32-.52,0-0.58a0.49,0.49,0,0,0-.58.58h0Zm-11.14,5.76a0.55,0.55,0,1,0,.77-0.77,0.55,0.55,0,1,0-.77.77h0Zm-53.19,2.11c0.54,0,.22-0.16,0-0.19s-1.31-.66-1.15,0,0.61,0.23,1.15.19h0Zm88.72-2.28c-0.15.12-.44,0.33,0,0.36s0.82-.09.77-0.57-0.61.1-.76,0.22h0ZM99.42,151.47c0.15,0.38.28,1.12,0.77,0.58s-0.27-.43-0.77-0.58,0-.63-0.54-0.62-2.07.94-1.38,1.58,1.34-.24,1.66-0.64,0-.06.08-0.11,0-.59.17-0.21h0ZM173,132.28c-0.11-.12.33-0.56,0-0.58s-0.71-.41-1,0.19,0.52,0.26,1,.38,0.48,0.15,0,.19-1.52,0-1,.58,0.35,0,.67-0.21-0.21-.12.29-0.37,0,0,.52.14,0.1,0.37.83,0.24,1.46-.52.77-1-1,0-1.54.15-0.08,0-.1,0l-0.11,0c-0.07,0-.25.3-0.36,0.18h0Zm2.3,0.77s1,0.3.58-.58-0.26-.18-0.59.2,0,0.34,0,.38h0Zm8.64-4.22c0.35,0.61,1.12-.06,1-0.19s-1.31-.42-1,0.19h0Zm9,15.36c0.48-.26,0-0.44-0.19-0.77s-0.49-.44-0.58,0,0.29,1,.77.77h0ZM87.32,136.5c0.06,0.48.4,0.34,0.77,0.19a0.4,0.4,0,0,0,0-.77,0.56,0.56,0,0,0-.77.58h0Zm65.09,1.73c0,0.4-.45-0.23-0.55-0.41s-0.31-.72,0-0.55a1.13,1.13,0,0,1,.58,1h0Zm69.13-7.1c0.42-.53-0.64-1.24-1.15-1.15s0.18,0.27.49,0.67,0.24,1,.67.49h0Zm-20.16-.38a0.77,0.77,0,0,0,.58,0c0.36,0,.94-0.07.57-0.38a1.31,1.31,0,0,0-1.15-.19c-0.32.06-.14,0.44,0,0.57h0ZM226,132.08c-0.29.22,0,.46,0.11,0.69s0.21,0.42.52,0.12-0.34-1-.63-0.8h0Zm-134-.38a0.78,0.78,0,0,0,1,.58c0.53-.22-0.08-0.77-0.38-0.77s-0.73-.11-0.58.19h0Zm5.38,3.07a0.64,0.64,0,0,0,1-.19c0.25-.35,0-0.35-0.19-0.57s-0.43-.28-0.58,0-0.68.56-.19,0.77h0Zm38.4,9.41c0.34,0.19,1,.14.9-0.16a0.45,0.45,0,0,0-.29-0.42c-0.27-.22-0.16-0.31-0.61-0.18s-0.34.57,0,.77h0Zm-38.79,5.76c0.21,0.91,2.28-.61,1.54-1.15s-0.2.12-.75,0.59-1-.35-0.78.56h0Zm0.38-21.5c0.41,0,.51-1.44-0.24-1s-0.18.4-.13,0.52,0,0.5.38,0.5h0Zm162.44,26.11c0.62-.9,1.07-0.88.19-1.54s-0.81,2.44-.19,1.54h0ZM89.82,132.66c0,0.48.36,0.87,0.55,0.41a3.84,3.84,0,0,0,.22-1.76c-0.07-.55-0.27-0.46-0.39,0a5.36,5.36,0,0,0-.38,1.34h0ZM33.56,151.28c-0.21-.56-0.81-0.5-1.34-0.19s0,0.67.62,0.76,0.94,0,.73-0.57h0Zm46.08-17.66c0.17,0.67.51,0.17,1-.14s1.57-.55.92-0.82-2.09.29-1.92,1h0ZM210,137.27c0.34,0.25.43,0.6,1,.19s0.22-.91-0.19-1.15a0.68,0.68,0,0,0-.9.62c0,0.37-.21.08,0.13,0.34h0Zm-34,15.36a1,1,0,0,0,1.35-.77c0-.57-0.46-0.38-0.77-0.38s-0.45-.26-0.58,0-0.63.91,0,1.15h0Zm0-22.46c0-.41.49,0.56,0.76,0.22a0.84,0.84,0,0,0,.39-0.79,0.93,0.93,0,0,0-.38-0.77c-0.2-.33-0.38-0.34-0.58,0s0.2,0.73-.19,1.34-0.24,0-.47-0.12-0.63-.26-0.64.46-0.79,1,.15,1.2,1-.17,1-0.73,0-.39,0-0.81h0Zm-79.11,3.65c0.58-.2.44-0.2,0-0.38s-1.07-1.4-1.92-.58,1.34,1.17,1.92,1h0ZM32.17,145.29c0.23,0.43.47-.12,1,0.23s-0.29.81,0.19,1,0.58,0.63,1-.19,0.27-.56-0.58-1.34-0.37-.16-0.77-0.38a0.6,0.6,0,0,0-.81.73h0ZM87.32,129c0.91,0.43.92,0.77,1.73,0.77s0.85-.73.58-1.34-0.7.06-1.22,0.09-2,.06-1.08.49h0Zm139.59,5.18c0.77-.06,1.41.4,2.3-0.38s-1.16-1.36-1.92-1.15-1.16,1.6-.38,1.54h0Zm2.88-4.61c0.91,0,1.4,0,.77-0.77a2.61,2.61,0,0,0-3.07-.38c-1,.55,1.39,1.15,2.3,1.15h0Zm-56.45,1a0.12,0.12,0,0,1,.06.06,0.12,0.12,0,0,1-.06-0.06h0Zm-0.38-.19a0.12,0.12,0,0,1,.06.06s-0.08-.06-0.06-0.06h0Zm-77.38,2.3c1.42,0,.88-0.39,1.54-0.19s-0.17-.37-0.2-0.46,0.09,0.41,0-.11a2,2,0,0,0-.73-1.73c-0.81-.58-0.78.53-1,1.15s-1,1.35.41,1.35h0Zm-6.91-2.3c0.75-.24.5-0.27,0-0.38a7.22,7.22,0,0,0-2.3,0c-0.64.13,0.48-.64,0-0.77s-0.36-.27-0.67.3,0.07,0.44.14,0.56,0.09,0.15.12,0.2a0.65,0.65,0,1,1,0,.1,0.87,0.87,0,0,0,.34.8c0.48,0.41.72,0.56,1.29,0.08s0.3-.64,1.05-0.89h0Zm80.26,1.73c0.23-.14.23,0.52,0,0.38s-0.23-.25,0-0.38h0Zm0.58,0a0.11,0.11,0,0,1,.06.06s-0.08-.06-0.06-0.06h0Zm-0.58,0,0.37-.22-0.37.22h0Zm0,0.38c0.76-.09-0.09,0,0.32.65s-0.19,1.59.83,0.5,0.79-.51,1.15-1.92-0.59-.69-1.15-0.58,0.58,0.74,0,.77-0.81-.74-1.73-0.38-1.17.47-.57,1.15,0.49,0,1,0-0.56-.1.19-0.19h0ZM198.5,129h0Zm0,0c-0.95-.24-0.4-0.87-1-0.38s-0.24.33,0.11,1.21,0.13,3.06,1,2.43,1.57-.71,1.92-1.92-1.17-1.1-2.11-1.34h0Zm-107,25.15h0Zm1.34-25h0Zm0,0c0.22,0.87-.65.05-1.15,0.77s0,0.31.55,0.7,0.86,0,1,.82,0,0.64.34,0.79,0.15,0.16.44-.13a4.5,4.5,0,0,0,.93-2.31A1,1,0,0,0,94.7,129c-0.42-.51.29-0.3-0.66-1s-1.49.3-1.34,1,0-.68.19,0.19h0Zm63.94,6.14a0.12,0.12,0,0,1,.06.06,0.13,0.13,0,0,1-.06-0.06h0Zm-77.19-3.26a0.13,0.13,0,0,1,.06.06s-0.09-.06-0.06-0.06h0Zm2.5,0.58c-0.27-1.12.81-.51,1.28-1s0.14-.23.24-0.33,0.44-.47.57-0.58,0.45,0.07.4-.17,1-.82-0.19-0.77-0.54-.08-1.52,0,0.65-.48-0.85.31-3.54,1.46-3.59,2.18,0.17-.1.43-0.08,0.64,0.55,1.11.66a1,1,0,0,0,.82-0.49,0.66,0.66,0,0,0,.27-0.16,1,1,0,0,0,.27-0.27c0.08-.08-0.37.4,0.09-0.1s-0.49.46,0.19-.21,0.18-.56.66-0.49-0.29.39-.54,0.82,0,0.31.35,0.71-0.23.51-.4,0.67A1.06,1.06,0,0,0,81,134c-0.09.55,1.2-.06,1,0.19a3.18,3.18,0,0,1-1.31.07c-0.17.07-.77,0.11-0.1,0.74s1.55,0.11,2,.54-0.82-.76-1.15.19,0.92,1.17,2.44.73,2.74,0.18,3.63-.61,0.19-.17.21-0.19,0.91-.67.13-1.08,0.09,0.25-.73,0,0-.69,0-1.65-1-.07-1.08.25,0.43,1.42-.56,1.75-0.94-.43-1-1.24-0.23-.52-0.35-0.65a2.67,2.67,0,0,1-.25-0.32c-0.05-.08.44-0.43-0.12-0.49s-1.26,1.51-1.54.38h0Zm8.83,2.5,0.22,0.37L91,135.16h0Zm1.15-.58a0.12,0.12,0,0,1,.06.06s-0.08-.06-0.06-0.06h0ZM225.38,130s0.08,0,.06.06a0.06,0.06,0,0,1-.06-0.06h0Zm-1.92-.58h0Zm0,0-0.19-.19,0.19,0.19h0Zm1-.58c0.57-.11.76,0.34,0.58,1s-1.15-.85-0.58-1h0Zm-1.15.38c-0.93.55-.16-0.05-0.8-0.36s-0.31-1-.93-0.22-0.21,1.07.22,1.68a2.62,2.62,0,0,0,.79.95,2,2,0,0,0,1.74.57c0.5-.17.36-0.64,1.16-1s2.63-1.1,1.07-2.19-2.75-.87-3.26-0.38,0.92,0.41,0,1h0ZM87.9,139.38c-0.4.13-.24,0.2-0.43,0.67s0.41,1.28-.34,1.44,0.66-.69-0.19-1a1,1,0,0,0-1.15,1.54c0.64,1,.46,1.56,1.15,2.11s0.1,0,.68-0.26a2.27,2.27,0,0,0,1.84-1.45c0.18-.32,1-1.17.36-1.37s-0.63.28-.77-0.19,0.55,0.6.77,0a3.09,3.09,0,0,1,.23-0.55,1.41,1.41,0,0,0,.18-0.64c0-.35.32,0-0.07-0.39s-0.55-.08-0.89,0a8.17,8.17,0,0,0-1.38.08h0Zm104.84-10.56-0.41-.11,0.41,0.11h0Zm0.58-.77-0.37.22,0.37-.22h0Zm0.19-.19-0.19.19,0.19-.19h0Zm0.19-.19-0.19.19,0.19-.19h0Zm-1,1.15c0.31-.32-0.95,1.11,0,1.15s0.65,0.39,1.68.52a11.2,11.2,0,0,0,2.16.25c0.49-.07.57-0.26,0.54-0.62s-0.41-.29-0.69-0.87a2.31,2.31,0,0,0-1.4-1.52,4.72,4.72,0,0,1-1.33-.07,16.46,16.46,0,0,1-1-1.33c-0.21-.13.16,0.11-0.41-0.17s-0.55-1.44-1.31-.61-0.18.46-.32,1.21a2.12,2.12,0,0,0,.13,1.47c0.2,0.58.79,0.29,1,.38s0,0-.11.08-0.76-.3-0.66.11a1.31,1.31,0,0,0,1.34,1c0.59-.19.07-0.64,0.38-1h0ZM82.91,135.54c0.19-.19.88,0.1,0.34,0.1s-0.54.09-.34-0.1h0Zm70.66,4c-0.26-.19.4-0.6,0.38-0.22s-0.12.41-.38,0.22h0Zm0.58-.38c0.26-.26.47,0.2,0.21,0.1s-0.48.16-.21-0.1h0Zm-0.77-.38c-0.46-.59-0.4-0.64.38-1s0.08,1.55-.38,1h0Zm1-.77c0.26-.26.47,0.2,0.21,0.1s-0.48.16-.21-0.1h0ZM154,136.5a0.11,0.11,0,0,1,.06.06s-0.08-.06-0.06-0.06h0Zm-1-.77a0.13,0.13,0,0,1,.06.06s-0.08-.06-0.06-0.06h0Zm24.39,6.34a10.16,10.16,0,0,1-.39,2.5c-0.27,1.17.65,0.12,0.58,0.77s-0.32-.08-0.49.7,0,0.43.3,0.64a0.35,0.35,0,0,1,0,.58c-0.14.14-.47-0.77-0.58,0s0.92,1.55,1.47,1.72-0.45-.41.26,0.39,1.55,0.51,2.5.38,0.81-.41,0-0.77a4.71,4.71,0,0,1-1.92-3.26c0-1.06-.14,1.19.36-1s-0.1-.62,1.48-3.12,2.5-1.94,3-3-0.1-.2-0.32-0.47a0.84,0.84,0,0,0-1.33-.24c-0.73.53-.46,1.22-1.83,1.53s-0.8.34-1.32,0.72-0.09.05-.12,0.08a0.73,0.73,0,1,0-.12.07,1.41,1.41,0,0,0-.55.91c-0.12.42,0,.06-0.06,0.2s0.11,0.07-.23.35-0.61-.78-0.64.3h0Zm-89.1,5.57a0.12,0.12,0,0,1,.06.06,0.12,0.12,0,0,1-.06-0.06h0ZM88.67,144h0Zm98.89,0.58c0.54,0.13,0,.34-0.58.19s0-.32.58-0.19h0Zm-90.82,3.65c0.26-.26.47,0.2,0.21,0.1s-0.48.16-.21-0.1h0Zm-1.15,0c-0.64.18-1.22,0-.58-0.19s1.21,0,.58.19h0Zm-1-.19h0Zm-1.34-.77h0Zm9-1c0.26-.26.47,0.2,0.22,0.1s-0.48.16-.22-0.1h0Zm-7.3-.58a0.12,0.12,0,0,1,.06.06S95,145.72,95,145.72h0Zm3.65-1.34a0.12,0.12,0,0,1,.06.06,0.12,0.12,0,0,1-.06-0.06h0Zm1.35-.19c-0.19-.21.11-0.13,0.4-0.17a1.2,1.2,0,0,1,.56,0c0.11,0,.19.15,0,0.19a1.27,1.27,0,0,1-1,0h0Zm-0.77-1a7.8,7.8,0,0,0,.77,1c0.27,0.46-.55.21-0.74,0.06s-0.18.39-.2-0.44-0.1-1.16.17-.59h0Zm-3.46.77h0Zm3.46-.77h0ZM99,142.64a0.12,0.12,0,0,1,.06.06S99,142.64,99,142.64h0Zm-1.73-6.14-0.19-.19,0.19,0.19h0Zm-0.19-.19-0.19-.19,0.19,0.19h0Zm-0.19-.19h0Zm0.38-.38a0.12,0.12,0,0,1,.06.06,0.13,0.13,0,0,1-.06-0.06h0Zm3.84-1a0.12,0.12,0,0,1,.06.06,0.12,0.12,0,0,1-.06-0.06h0Zm5.19-.38a0.12,0.12,0,0,1,.06.06,0.12,0.12,0,0,1-.06-0.06h0Zm-4.8-.77c0.49,0.06-.1,0-0.11.06s0.09-.11-0.1.07a3.37,3.37,0,0,0-.36,1c-0.22.58-.12-0.29-0.24-0.53s-0.82-.22-0.34-0.62,0.67-.06,1.15,0h0Zm0,0h0Zm-1.53-.77h0Zm3.26-.58h0Zm-2.11-.19a0.55,0.55,0,1,1-.77.77,0.55,0.55,0,1,1,.77-0.77h0Zm2.11,0.19h0Zm-1.92-.38-0.19.19,0.19-.19h0Zm0,0c-0.33,0,.33-0.79.34-0.42s0,0.39-.34.42h0Zm1.34-.58a0.29,0.29,0,0,1,0,.58c-0.42.09-.52-0.16-0.28-0.4s0-.21.28-0.18h0Zm0,0,0.37-.22-0.37.22h0ZM131.29,130c0.56,0.16-.79,1-1,0.59s0.4-.74,1-0.59h0Zm-5.76,0h0Zm0,0-0.19-.19,0.19,0.19h0Zm5.76,0c-0.56-.43,1.46-0.62,1.84-0.51s1.34,0.24.65,0.32-1.93.62-2.5,0.19h0Zm-7.1-1a0.12,0.12,0,0,1,.06.06s-0.08-.06-0.06-0.06h0Zm-6,0h0Zm3.07-.38-0.11.41,0.11-.41h0Zm-3.07.38-0.22-.37,0.22,0.37h0Zm17.09-1.34c0.54,0.13,0,.34-0.57.19s0-.32.57-0.19h0Zm-8.26-.38,0.22,0.37-0.22-.37h0Zm3.07-.19h0Zm-3.07.19h0Zm4.42-.38h0Zm-1.34.19,0.38-.22-0.38.22h0Zm3.65-.19c-0.64.18-1.22,0-.57-0.19s1.22,0,.57.19h0Zm-2.3,0c-0.18-.21.12-0.13,0.4-0.17a1.21,1.21,0,0,1,.56,0c0.11,0,.19.15,0,0.19a1.28,1.28,0,0,1-1,0h0Zm-5.18-.38a0.12,0.12,0,0,1,.06.06s-0.08-.06-0.06-0.06h0Zm5-.19a0.11,0.11,0,0,1,.06.06,0.12,0.12,0,0,1-.06-0.06h0Zm-2.11-.38a0.12,0.12,0,0,1,.06.06s-0.08-.06-0.06-0.06h0Zm4.42,5.18c-0.22-.44,0-0.51.58-0.38s-0.35.82-.58,0.38h0ZM82.52,146.29a0.11,0.11,0,0,1,.06.06s-0.08-.06-0.06-0.06h0Zm-1.92-6h0Zm-0.58,0a0.12,0.12,0,0,1,.06.06,0.12,0.12,0,0,1-.06-0.06h0Zm-6.91.19h0Zm4.61-1.92c0.58,0.16,0,.35-0.58.19s0-.35.58-0.19h0Zm0,0c0.14-.31-0.23-0.2.38-0.16s0.46-.08.38,0.16-0.91.31-.77,0h0Zm1.15-.38a0.12,0.12,0,0,1,.06.06s-0.08-.06-0.06-0.06h0Zm30-9.41a0.1,0.1,0,0,1,.06.06s-0.08-.06-0.06-0.06h0Zm-1.54.19,0.37-.22-0.37.22h0Zm1-.58c0,0.33-.05.39-0.38,0.38s0.38-.72.38-0.38h0Zm0,0h0Zm-2.5,0h0Zm-6-.19h0Zm4.22-.38h0Zm-0.38-1.15a0.12,0.12,0,0,1,.06.06,0.12,0.12,0,0,1-.06-0.06h0Zm0-1.34-0.19.19,0.19-.19h0Zm0,0h0ZM116.7,125h0Zm-10,0h0Zm10.37-.19-0.39.19,0.39-.19h0Zm77,25.53h0Zm0,0h0Zm4-1.92a0.12,0.12,0,0,1,.06.06,0.13,0.13,0,0,1-.06-0.06h0Zm58.37,0.77c-0.33.61-1-.67-1-1.15s0.49-.43.76-0.22a1.08,1.08,0,0,1,.2,1.37h0ZM197,147.63l-0.11.41,0.11-.41h0Zm0.19-.1a0.2,0.2,0,0,1-.19.1c-0.05,0,0-.07,0-0.1s0.19-.07.19,0h0Zm-63.94-.48h0Zm-0.58-.38h0Zm0,0-0.19-.19,0.19,0.19h0Zm-0.19-.19c-0.13.54-.34,0-0.19-0.58s0.32,0,.19.58h0Zm-18.63-.38a0.12,0.12,0,0,1,.06.06,0.13,0.13,0,0,1-.06-0.06h0Zm20.16-.58c-0.31.22-.36,0.16-0.38-0.19s0.69,0,.38.19h0Zm1.15-1h0Zm-0.57-.19a0.12,0.12,0,0,1,.06.06s-0.08-.06-0.06-0.06h0Zm0.38-.38h0Zm-0.19-2.5c0.3,0.19.09,0.29,0,.38s-0.35.49-.38,0,0.08-.57.38-0.38h0Zm0.77-2.69h0Zm0.77-4c0-.51.21,0,0.11,0s-0.11.51-.11,0h0Zm0.58-.38c0.26-.26.47,0.2,0.21,0.1s-0.48.16-.21-0.1h0Zm0.77-1c0.28-.28.67,0.2,0.24,0.08s-0.52.2-.24-0.08h0Zm-2.69-1.15-0.37.22,0.37-.22h0ZM77.53,149.55l-0.11.41,0.11-.41h0Zm0,0c-0.4,0-.09-0.6,0-0.77s0.33-.64.38,0,0,0.81-.38.77h0Zm2.11-2.11c0.21-.21.72,0.1,0.35,0.1s0.06,0,0,0-0.53.12-.32-0.1h0Zm-10.95-4h0Zm-6.53-.19a0.12,0.12,0,0,1,.06.06,0.13,0.13,0,0,1-.06-0.06h0Zm-24.39,0h0Zm25.73-.38a0.11,0.11,0,0,1,.06.06,0.13,0.13,0,0,1-.06-0.06h0Zm-1.34,0c0-.51.21,0,0.11,0s-0.12.51-.12,0h0Zm2.11-.38a0.11,0.11,0,0,1,.06.06,0.13,0.13,0,0,1-.06-0.06h0Zm1.15-.19c0.26-.26.47,0.2,0.21,0.1s-0.48.16-.21-0.1h0Zm-0.77,0c0.28-.28.67,0.2,0.24,0.08s-0.52.2-.24-0.08h0ZM43,142.07c-0.14-.47.6-0.09,0.77,0s0.51,0.35,0,.38-0.63.09-.77-0.38h0Zm-0.38-.38a0.12,0.12,0,0,1,.06.06s-0.08-.06-0.06-0.06h0Zm9.22-6.34c0.19-.19.89,0.1,0.35,0.1s-0.54.09-.35-0.1h0Zm144.39,10c0.17,0.67.84,1.74,0,1.73s-0.37-.65-0.24-1.2,0.07-1.2.24-.53h0Zm-4.22-.19h0Zm72.39-1.34h0Zm-2.5-1.73c0.54,0.13,0,.34-0.58.19s0-.32.58-0.19h0Zm-65.86,0s0.08,0,.06.06a0.06,0.06,0,0,1-.06-0.06h0Zm65.86,0h0Zm-65.48-.58c0-.51.21,0,0.11,0s-0.11.51-.11,0h0Zm11.71-1.15s0.08,0,.06.06a0.06,0.06,0,0,1-.06-0.06h0Zm14.59-1.54-0.41-.11,0.41,0.11h0Zm-12.87-.19h0Zm19.39-.58c-0.15.47-.25,0.41-0.77,0.19s0.92-.66.77-0.19h0Zm-30.15-1.54a0.13,0.13,0,0,1,.06.06s-0.08-.06-0.06-0.06h0Zm33.8-1c0,0.62,0,.54-0.39.57s0.35-1.19.39-.57h0Zm2.49-.38-0.37.22,0.37-.22h0Zm-3.84,0c0.05-.41.64,0,0.18,0s-0.23.39-.18,0h0Zm-22.66-.77a0.11,0.11,0,0,1,.06.06,0.12,0.12,0,0,1-.06-0.06h0Zm-1-1a0.12,0.12,0,0,1,.06.06s-0.09-.06-0.06-0.06h0Zm-5.38-.58h0Zm-40.71,32.64c0.26-.26.47,0.2,0.21,0.1s-0.48.16-.21-0.1h0Zm85.64-1.34c0.54-.39.6,0.87,0.58,1.34s0.11,0.2-.15-0.23-1-.72-0.43-1.11h0Zm-4-1.34c0-.19.9,0.49,0.19,1.15s-0.16-1-.19-1.15h0Z"/><circle class="cls-2" cx="125.48" cy="135.05" r="1.52"/><path class="cls-2" d="M125.48,130.22a4.86,4.86,0,0,0-4.86,4.86c0,2.45,3.58,7.25,4.86,9.17,1.34-1.93,4.86-6.4,4.86-9.17A4.86,4.86,0,0,0,125.48,130.22Zm0,7.3A2.47,2.47,0,1,1,128,135,2.47,2.47,0,0,1,125.48,137.52Z"/><circle class="cls-2" cx="73.87" cy="171.78" r="1.52"/><path class="cls-2" d="M73.87,167A4.86,4.86,0,0,0,69,171.81c0,2.45,3.58,7.25,4.86,9.17,1.34-1.93,4.86-6.4,4.86-9.17A4.86,4.86,0,0,0,73.87,167Zm0,7.3a2.47,2.47,0,1,1,2.47-2.47A2.47,2.47,0,0,1,73.87,174.26Z"/><circle class="cls-2" cx="162.16" cy="195.25" r="1.52"/><path class="cls-2" d="M162.16,190.42a4.86,4.86,0,0,0-4.86,4.86c0,2.45,3.58,7.25,4.86,9.17,1.34-1.93,4.86-6.4,4.86-9.17A4.86,4.86,0,0,0,162.16,190.42Zm0,7.3a2.47,2.47,0,1,1,2.47-2.47A2.47,2.47,0,0,1,162.16,197.72Z"/><circle class="cls-2" cx="220.27" cy="165.69" r="1.52"/><path class="cls-2" d="M220.27,160.86a4.86,4.86,0,0,0-4.86,4.86c0,2.45,3.58,7.25,4.86,9.17,1.34-1.93,4.86-6.4,4.86-9.17A4.86,4.86,0,0,0,220.27,160.86Zm0,7.3a2.47,2.47,0,1,1,2.47-2.47A2.47,2.47,0,0,1,220.27,168.16Z"/><path class="cls-3" d="M199.88,62.48v0a4,4,0,0,0-3.73-3.54V51.72h-3.39v7.14H176.24c-2.36,0-4.67-1.16-7.35-2.51-3.69-1.86-8.28-4.17-14.78-4.17S143,54.5,139.33,56.35c-2.67,1.35-5,2.51-7.35,2.51H115.47V51.72h-3.39v7.21a4,4,0,0,0-3.73,3.56,11.63,11.63,0,0,0,2.39,7.71,3.84,3.84,0,0,0,6,.06c1.79-1.91,2.43-5.12,2.46-7.09H134.7a8.27,8.27,0,0,0-3,4.75c-0.22.88-.76,4.45-1.38,8.58-0.77,5.09-1.64,10.86-2.07,12.65a3.53,3.53,0,0,0,.56,3.41,1.63,1.63,0,0,0,1.6.44,3.15,3.15,0,0,0,1.88-2.46l1.88-7.78c1.36-5.62,3-12.24,3.25-13.44,0.35-1.42,1.12-2,2.76-2h5c0.31,0.34.61,0.7,0.93,1.08,1.19,1.43,2.41,2.91,4.38,3a26.11,26.11,0,0,0,3.71,0,27,27,0,0,0,3.77,0c2-.14,3.19-1.62,4.38-3,0.32-.38.62-0.74,0.93-1.08h5.16c1.64,0,2.41.55,2.76,2,0.31,1.25,2,8.4,3.43,14.16l1.71,7.06A3.14,3.14,0,0,0,178.16,93a1.62,1.62,0,0,0,1.6-.44,3.52,3.52,0,0,0,.56-3.41c-0.43-1.8-1.3-7.56-2.07-12.65-0.62-4.14-1.16-7.71-1.38-8.59a8.27,8.27,0,0,0-3-4.74H189c0,2,.67,5.18,2.46,7.09a3.84,3.84,0,0,0,6-.06A11.63,11.63,0,0,0,199.88,62.48Z"/><path id="path8811" class="cls-4" d="M99.71,46.69a51.12,51.12,0,0,0-12.18,1.43,0.19,0.19,0,1,0,0,.38,51.11,51.11,0,0,0,12.18,1.43,51.06,51.06,0,0,0,12.17-1.43,0.19,0.19,0,1,0,0-.38A51.06,51.06,0,0,0,99.71,46.69Z"/><path id="path8811-2" data-name="path8811" class="cls-4" d="M129.1,46.69a51.12,51.12,0,0,0-12.18,1.43,0.19,0.19,0,1,0,0,.38,51.11,51.11,0,0,0,12.18,1.43,51.06,51.06,0,0,0,12.17-1.43,0.19,0.19,0,1,0,0-.38A51.06,51.06,0,0,0,129.1,46.69Z"/><path class="cls-4" d="M112.65,49.14c0-2.25.77-4.08,1.73-4.08s1.73,1.83,1.73,4.08h-3.45Z"/><rect class="cls-3" x="112.11" y="51.72" width="4.34" height="7.14"/><path id="path8811-3" data-name="path8811" class="cls-4" d="M179.43,46.69a51.12,51.12,0,0,0-12.18,1.43,0.19,0.19,0,1,0,0,.38,51.11,51.11,0,0,0,12.18,1.43A51.06,51.06,0,0,0,191.6,48.5a0.19,0.19,0,1,0,0-.38A51.06,51.06,0,0,0,179.43,46.69Z"/><path id="path8811-4" data-name="path8811" class="cls-4" d="M208.82,46.69a51.12,51.12,0,0,0-12.18,1.43,0.19,0.19,0,1,0,0,.38,51.11,51.11,0,0,0,12.18,1.43A51.06,51.06,0,0,0,221,48.5a0.19,0.19,0,1,0,0-.38A51.06,51.06,0,0,0,208.82,46.69Z"/><path class="cls-4" d="M192.37,49.14c0-2.25.77-4.08,1.73-4.08s1.73,1.83,1.73,4.08h-3.45Z"/><rect class="cls-3" x="191.83" y="51.72" width="4.34" height="7.14"/><rect class="cls-5" x="122.57" y="58.86" width="1.57" height="4.31"/><rect class="cls-5" x="125.81" y="58.86" width="1.57" height="4.31"/><rect class="cls-5" x="181.27" y="58.86" width="1.57" height="4.31"/><rect class="cls-5" x="184.51" y="58.86" width="1.57" height="4.31"/><path class="cls-6" d="M161.5,79.93a3.43,3.43,0,0,0-3.43-3.43h-9.14a3.43,3.43,0,0,0-3.43,3.43v9.14a3.43,3.43,0,0,0,3.43,3.43h9.14a3.43,3.43,0,0,0,3.43-3.43V79.93Zm-7.4,8.5a4.8,4.8,0,1,1,4.8-4.8A4.8,4.8,0,0,1,154.1,88.44Z"/><path class="cls-6" d="M154.12,80.5l-0.17,0a2,2,0,1,1-3,2.41,3.29,3.29,0,0,0-.14.91A3.33,3.33,0,1,0,154.12,80.5Z"/></svg>