<svg id="Layer_1" data-name="Layer 1" xmlns="http://www.w3.org/2000/svg" viewBox="0 0 300 300"><defs><style>.cls-1{fill:#aaa;}</style></defs><title>Infog</title><path class="cls-1" d="M248.92,102.22a5.07,5.07,0,0,0-3.4-1.94L108.68,83A5.12,5.12,0,0,0,103,87.47L91.55,178.11A5.11,5.11,0,0,0,96,183.82l136.85,17.25a5.28,5.28,0,0,0,.65,0,5.12,5.12,0,0,0,5.06-4.47L250,106A5.07,5.07,0,0,0,248.92,102.22ZM234,196.07a0.58,0.58,0,0,1-.63.49L96.55,179.32a0.57,0.57,0,0,1-.49-0.63L107.48,88a0.56,0.56,0,0,1,.22-0.37,0.54,0.54,0,0,1,.42-0.12L245,104.79a0.58,0.58,0,0,1,.49.63Z"/><path class="cls-1" d="M119.37,190.52l-44.11,2.89a0.55,0.55,0,0,1-.6-0.53l-6-91.17a0.58,0.58,0,0,1,.54-0.6l27.14-2a2.27,2.27,0,0,0,2.1-2.43A2.3,2.3,0,0,0,96,94.6l-27.13,2A5.12,5.12,0,0,0,64.15,102l6,91.17a5.12,5.12,0,0,0,5.1,4.78h0.34l44.11-2.89A2.27,2.27,0,0,0,119.37,190.52Z"/><path class="cls-1" d="M155.67,121.31h-0.15a1.14,1.14,0,0,1-1-1.28l0.54-4L138,113.7l-0.54,4a1.14,1.14,0,0,1-2.25-.3l0.67-4.94c0.05-.41.37-1.31,2.21-1.08l17.51,2.35a3.89,3.89,0,0,1,.89.22,1.3,1.3,0,0,1,1,1.4l-0.66,4.94A1.14,1.14,0,0,1,155.67,121.31Z"/><path class="cls-1" d="M122.23,167.41h-0.15a1.14,1.14,0,0,1-1-1.28l6.36-47.44a3.36,3.36,0,0,1,3.76-2.87l41.71,5.59a3.35,3.35,0,0,1,2.87,3.76l-2.08,14.73a1.14,1.14,0,0,1-2.25-.32l2.08-14.72a1.08,1.08,0,0,0-.92-1.2l-41.72-5.59a1.08,1.08,0,0,0-1.21.92l-6.36,47.44A1.14,1.14,0,0,1,122.23,167.41Z"/><path class="cls-1" d="M211.09,179.32h-0.15a1.14,1.14,0,0,1-1-1.28L214,147.62a1.08,1.08,0,0,0-.92-1.21L142,136.87a1.08,1.08,0,0,0-1.21.92l-4.08,30.41a1.14,1.14,0,1,1-2.25-.3l4.08-30.41a3.36,3.36,0,0,1,3.76-2.87l71.15,9.54a3.35,3.35,0,0,1,2.87,3.76l-4.08,30.41A1.14,1.14,0,0,1,211.09,179.32Z"/><path class="cls-1" d="M172.41,158h-0.23l-4.58-.61a1.74,1.74,0,0,1-1.49-2l1.12-8.35a1.74,1.74,0,0,1,2-1.49l4.58,0.61a1.74,1.74,0,0,1,1.49,2l-1.12,8.35A1.74,1.74,0,0,1,172.41,158Zm-4-2.81,3.52,0.47,1-7.29-3.52-.47Zm5-6.75h0Zm-4.58-.61h0Z"/><path class="cls-1" d="M138.44,131.08h-0.22l-4.76-.64a1.65,1.65,0,0,1-1.41-1.85l0.79-5.87a1.64,1.64,0,0,1,1.85-1.41h0l4.76,0.64a1.65,1.65,0,0,1,1.41,1.85l-0.79,5.87A1.65,1.65,0,0,1,138.44,131.08Zm-4.05-2.82,3.52,0.47,0.62-4.63-3.52-.47Z"/><path class="cls-1" d="M148.38,132.41l-0.23,0-4.75-.64a1.65,1.65,0,0,1-1.41-1.85l0.79-5.87a1.64,1.64,0,0,1,.63-1.09,1.62,1.62,0,0,1,1.22-.32l4.76,0.64a1.65,1.65,0,0,1,1.41,1.85L150,131A1.65,1.65,0,0,1,148.38,132.41Zm0.08-2.27h0Zm-4.13-.55,3.52,0.47,0.62-4.63-3.52-.47Zm4.76-4.07h0Z"/><path class="cls-1" d="M158.31,133.74h-0.22l-4.76-.64a1.65,1.65,0,0,1-1.41-1.85l0.79-5.87a1.65,1.65,0,0,1,1.85-1.41h0l4.76,0.64a1.65,1.65,0,0,1,1.41,1.85l-0.79,5.87A1.65,1.65,0,0,1,158.31,133.74Zm-4.05-2.82,3.52,0.47,0.62-4.63-3.52-.47Z"/><path class="cls-1" d="M168.24,135.07H168l-4.76-.64a1.65,1.65,0,0,1-1.41-1.85l0.79-5.87a1.65,1.65,0,0,1,1.85-1.41h0l4.76,0.64a1.65,1.65,0,0,1,1.41,1.85l-0.79,5.87A1.65,1.65,0,0,1,168.24,135.07Zm-4.06-2.82,3.52,0.47,0.62-4.63-3.52-.47Z"/><path class="cls-1" d="M182.94,159.47h-0.23l-4.58-.61a1.74,1.74,0,0,1-1.49-2l1.12-8.35a1.75,1.75,0,0,1,2-1.49h0l4.58,0.61a1.74,1.74,0,0,1,1.49,2L184.66,158A1.74,1.74,0,0,1,182.94,159.47Zm-4-2.81,3.52,0.47,1-7.29-3.52-.47Zm0.45-7.36h0Z"/><path class="cls-1" d="M206.48,162.62l-0.23,0-17.57-2.36a1.74,1.74,0,0,1-1.49-2l1.12-8.35a1.74,1.74,0,0,1,2-1.49l17.57,2.36a1.74,1.74,0,0,1,1.49,2l-1.12,8.35A1.74,1.74,0,0,1,206.48,162.62Zm-17-4.55L206,160.28l1-7.29-16.51-2.21Zm18-5h0ZM190,150.7h0Z"/><path class="cls-1" d="M161.62,156.59l-0.23,0-17.57-2.36a1.74,1.74,0,0,1-1.49-2l1.12-8.35a1.74,1.74,0,0,1,2-1.49L163,144.78a1.74,1.74,0,0,1,1.49,2l-1.12,8.35A1.74,1.74,0,0,1,161.62,156.59Zm-17-4.55,16.51,2.21,1-7.29-16.51-2.21Zm18-5h0Zm-17.57-2.36h0Zm0,0h0Z"/><path class="cls-1" d="M182.58,176.4h-0.15a1.14,1.14,0,0,1-1-1.28l1-7.82L166,165.08l-1,7.82a1.14,1.14,0,1,1-2.25-.3l1.12-8.35a1.74,1.74,0,0,1,2-1.49l17.57,2.36a1.74,1.74,0,0,1,1.49,2l-1.12,8.35A1.14,1.14,0,0,1,182.58,176.4Z"/><path class="cls-1" d="M193.73,127.12a9,9,0,0,1-1.18-.08,6,6,0,0,1-.62-0.13l-0.2,0a5.66,5.66,0,0,1-.62,0l-12.64-1.69a1.14,1.14,0,1,1,.3-2.25l12.64,1.69,0.37,0H192l0.19,0,0.24,0.06a3.2,3.2,0,0,0,.37.08c2.95,0.39,5.61-1.22,5.93-3.6s-1.82-4.64-4.77-5a3.48,3.48,0,0,0-.43,0H193.4l-0.23,0a1.15,1.15,0,0,1-.76-0.6,1.13,1.13,0,0,1-.08-0.79c0.32-2.68-2.1-5.22-5.42-5.67s-6.37,1.4-6.73,4.11a1.14,1.14,0,0,1-1.3,1s-3.22-.48-5.13.95a3.54,3.54,0,0,0-1.38,2.51,7.21,7.21,0,0,0-.06,1.42,1.14,1.14,0,0,1-2.27.14,9.46,9.46,0,0,1,.08-1.86,5.77,5.77,0,0,1,2.28-4,9.3,9.3,0,0,1,5.77-1.46c1.07-3.36,4.89-5.54,9-5s7.24,3.65,7.41,7.16c4,0.68,6.89,4,6.42,7.54C200.59,124.77,197.43,127.12,193.73,127.12ZM193.42,115h0Z"/><path class="cls-1" d="M219.34,181.59H219.2L114.28,167.87a1.14,1.14,0,0,1,.29-2.25l104.92,13.72A1.14,1.14,0,0,1,219.34,181.59Z"/></svg>