<?xml version="1.0" encoding="utf-8"?>
<!-- Generator: Adobe Illustrator 22.0.1, SVG Export Plug-In . SVG Version: 6.00 Build 0)  -->
<svg version="1.1" id="Layer_1" xmlns="http://www.w3.org/2000/svg" xmlns:xlink="http://www.w3.org/1999/xlink" x="0px" y="0px"
	 viewBox="0 0 174.5 132.7" style="enable-background:new 0 0 174.5 132.7;" xml:space="preserve">
<style type="text/css">
	.st0{fill:#8D95A2;}
	.st1{fill:#FFFFFF;}
</style>
<g id="paid_missions_infographic" transform="translate(-13607 -9302)">
	<g id="Group_31073" transform="translate(873 1041.723)">
		<path class="st0" d="M12884.6,8370.3H12734v-110h150.6V8370.3z M12736,8368.3h146.6v-106H12736V8368.3z"/>
		<rect id="Rectangle_6933" x="12797.8" y="8281.9" class="st0" width="56.9" height="6.8"/>
		<rect id="Rectangle_6934" x="12752.5" y="8325.6" class="st0" width="113.5" height="4.8"/>
		<rect id="Rectangle_6935" x="12797.8" y="8292.9" class="st0" width="33.6" height="4.8"/>
		<rect id="Rectangle_6936" x="12752.5" y="8336.5" class="st0" width="113.5" height="4.8"/>
		<rect id="Rectangle_6937" x="12752.5" y="8347.9" class="st0" width="113.5" height="4.8"/>
		<g>
			<path class="st0" d="M12757.4,8299.4l6.9-2.6l0.3-0.6l-0.1-0.1c-0.5-0.7-0.8-1.4-1.1-2.2l-0.1-0.2h-0.2c-0.2-0.1-0.3-0.3-0.4-0.5
				c-0.6-1.6-0.9-3.3-0.8-5c0-0.2,0.1-0.4,0.3-0.6l0.1-0.1v-0.1c0-0.7,0-1.5,0.1-2.2c0.1-0.2,0.1-0.5,0.1-0.8v-0.1
				c0.5-3.5,4.1-5,7.5-5s7,1.6,7.5,5v0.9c0.1,0.8,0.1,1.6,0.1,2.3v0.1l0.1,0.1c0.2,0.1,0.3,0.4,0.3,0.6c0.1,1.7-0.2,3.4-0.8,5
				c-0.1,0.2-0.2,0.4-0.4,0.5h-0.1l-0.1,0.2c-0.3,0.8-0.7,1.5-1.1,2.2l-0.3-0.2l0.2,0.6l6.9,2.7c1.4,0.5,2.4,1.8,2.6,3.2l0.4,2.2
				v0.1l0.2,1.5l0.4,2.5c3.1-3.7,5-8.4,5-13.6c0-11.6-9.4-21-21-21c-11.6,0-21,9.4-21,21c0,5.2,1.9,9.9,5,13.6l0.9-6.2
				C12755,8301.1,12756,8299.9,12757.4,8299.4z"/>
			<path class="st0" d="M12781.6,8301.1l-7.3-2.8c-0.2-0.1-0.4-0.3-0.6-0.5l-0.7-1.5c-0.1-0.3-0.1-0.7,0.1-1c0.6-0.8,1-1.7,1.3-2.6
				c0.1-0.3,0.2-0.5,0.5-0.6l0.2-0.1v-0.1c0.4-1.1,0.6-2.2,0.6-3.3v-0.1l-0.1-0.1c-0.3-0.2-0.4-0.6-0.3-1c0.1-0.8,0.1-1.6,0-2.4
				c-0.1-0.3-0.1-0.5-0.1-0.8c-0.3-2.3-3.1-3.3-5.5-3.3s-5.1,1.1-5.5,3.3v0.8c-0.1,0.8-0.1,1.6,0,2.4c0.1,0.4-0.1,0.7-0.3,1
				l-0.1,0.1v0.1c0,1.1,0.2,2.2,0.6,3.3v0.1l0.2,0.1c0.2,0.1,0.4,0.3,0.5,0.6c0.3,0.9,0.7,1.8,1.3,2.6c0.2,0.3,0.3,0.7,0.1,1
				l-0.6,1.5c-0.1,0.2-0.3,0.4-0.6,0.5l-7.3,2.8c-0.7,0.3-1.3,1-1.4,1.7l-1.2,7.5c3.8,3.6,8.9,5.8,14.5,5.8c5.6,0,10.7-2.2,14.4-5.8
				l-1.3-7.6C12782.9,8302.1,12782.4,8301.4,12781.6,8301.1z"/>
		</g>
	</g>
	<g id="Group_31097" transform="translate(968.114 1095.877)">
		<g id="Group_31076" transform="translate(0 0)">
			<g id="Group_31074" transform="translate(0 0)">
				<path id="Path_34370" class="st0" d="M12803.9,8337.1c-2.1,0-4.1-0.9-5.5-2.3l-16.2-16.2c-9.7,5.8-21.8,5.7-31.4-0.3
					c-6.8-4.2-11.6-10.9-13.3-18.7c-3.7-16.1,6.3-32.2,22.5-35.9c2.2-0.5,4.5-0.8,6.8-0.8c5.6,0,11.1,1.6,15.9,4.6
					c13.5,8.5,18,26,10.3,39.9c0.1,0,0.1,0.1,0.2,0.2l16.5,16.5c2.9,3.1,2.9,8-0.2,10.9C12807.9,8336.4,12806,8337.1,12803.9,8337.1
					L12803.9,8337.1z M12766.7,8273.6c-10.7,0-19.3,8.6-19.3,19.3s8.6,19.3,19.3,19.3c10.7,0,19.3-8.6,19.3-19.3
					C12786,8282.3,12777.3,8273.6,12766.7,8273.6z"/>
				<path id="Path_34371" class="st1" d="M12766.7,8264.7c5.3,0,10.5,1.5,14.9,4.3c13.2,8.3,17.2,25.7,9,38.9
					c0.5,0.2,0.9,0.6,1.2,0.9l16.3,16.3l0.2,0.2c2.3,2.4,2.2,6.1-0.1,8.4c-1.1,1.1-2.6,1.7-4.2,1.7c-1.6,0-3.2-0.7-4.3-1.8
					l-16.3-16.3c-0.3-0.3-0.6-0.6-0.8-1c-4.7,3.2-10.2,4.9-15.9,4.9c-5.3,0-10.5-1.5-15-4.3c-13.2-8.3-17.2-25.7-8.9-38.9
					C12747.9,8269.7,12757,8264.7,12766.7,8264.7 M12766.7,8314c11.6,0,21-9.4,21-21c0-11.6-9.4-21-21-21c-11.6,0-21,9.4-21,21
					c0,0,0,0,0,0C12745.6,8304.6,12755,8314,12766.7,8314C12766.7,8314,12766.7,8314,12766.7,8314 M12766.7,8261.3
					c-17.5,0-31.7,14.2-31.7,31.7c0,10.9,5.6,21.1,14.9,26.9c5,3.2,10.9,4.9,16.8,4.8c5.3,0,10.6-1.3,15.3-3.9l15.3,15.3
					c3.7,3.7,9.7,3.7,13.4,0c3.6-3.6,3.7-9.5,0.2-13.2l-0.2-0.2l-15.5-15.5c7.8-15.7,1.5-34.7-14.2-42.5
					C12776.4,8262.4,12771.6,8261.3,12766.7,8261.3z M12766.7,8310.6c-9.7,0-17.6-7.9-17.6-17.6c0-9.7,7.9-17.6,17.6-17.6
					c9.7,0,17.6,7.9,17.6,17.6C12784.3,8302.7,12776.4,8310.6,12766.7,8310.6z"/>
			</g>
			<g id="Group_31075" transform="translate(10.655 10.69)">
				<path id="Path_34372" class="st1" d="M12756,8303.3c-11.6,0-21-9.4-21-21s9.4-21,21-21s21,9.4,21,21l0,0
					C12777.1,8293.9,12767.7,8303.3,12756,8303.3C12756.1,8303.3,12756.1,8303.3,12756,8303.3z"/>
			</g>
		</g>
		<g id="Group_31078" transform="translate(21.172 15.518)">
			<g id="Group_31077" transform="translate(0 0)">
				<path id="Path_34373" class="st0" d="M12742.5,8293.2v-3c-3.6-0.9-6.1-4.2-5.8-7.9v-1.7h5.9c-0.3-0.1-0.6-0.3-0.9-0.4
					c-2.6-1.2-4.3-3.8-4.2-6.7c-0.1-1.9,0.6-3.7,1.9-5c0.9-0.9,2.1-1.6,3.4-2v-3.4h5.7v3.4c1.4,0.4,2.6,1.3,3.4,2.4
					c1.2,1.6,1.8,3.5,1.7,5.5v1.7h-4.7c0.2,0.1,0.5,0.2,0.7,0.3c0.8,0.4,1.5,1,2.2,1.6c0.6,0.6,1.1,1.4,1.5,2.2
					c0.4,0.9,0.5,1.9,0.5,2.8c0.1,1.9-0.7,3.7-2,5.1c-1,1-2.2,1.7-3.5,2v3L12742.5,8293.2L12742.5,8293.2z M12743.5,8282.3
					c0,0.6,0.1,1.1,0.4,1.6c0.3,0.3,0.8,0.5,1.3,0.4c0.5,0.1,0.9-0.1,1.3-0.3c0.2-0.2,0.3-0.5,0.3-0.8c0-0.3-0.1-0.6-0.3-0.8
					c-0.6-0.4-1.2-0.8-1.9-0.9c-0.4-0.2-0.8-0.3-1.1-0.4L12743.5,8282.3z M12745.5,8272.3c-0.3,0-0.7,0.1-0.9,0.3
					c-0.2,0.2-0.3,0.6-0.3,0.9c0,0.5,0.2,0.7,0.3,0.7c0.6,0.5,1.3,0.8,2,1c0.1,0,0.1,0,0.2,0.1v-0.9c0-0.6-0.1-1.2-0.4-1.7
					C12746.1,8272.4,12745.9,8272.3,12745.5,8272.3z"/>
				<path id="Path_34374" class="st1" d="M12746.7,8264.7v3.1c1.5,0.2,2.8,0.9,3.8,2.1c0.9,1.3,1.4,2.9,1.4,4.5h-3.4
					c0.1-1-0.2-2-0.8-2.8c-0.5-0.7-1.3-1.1-2.2-1c-0.8,0-1.5,0.2-2.1,0.7c-0.5,0.6-0.8,1.3-0.8,2.1c0,0.7,0.3,1.5,0.8,2
					c0.8,0.6,1.6,1.1,2.6,1.4c1,0.3,1.9,0.7,2.8,1.2c0.7,0.3,1.2,0.7,1.7,1.3c0.5,0.5,0.8,1,1.1,1.6c0.3,0.7,0.4,1.5,0.3,2.2
					c0,1.4-0.5,2.8-1.5,3.9c-1.1,1-2.5,1.6-4.1,1.7v2.8h-2.2v-2.8c-1.6-0.1-3.2-0.8-4.3-2c-1.1-1.2-1.6-2.9-1.5-4.5h3.4
					c-0.1,1,0.2,2,0.9,2.8c0.7,0.7,1.6,1,2.5,0.9c0.9,0.1,1.7-0.2,2.4-0.8c0.6-0.5,0.9-1.3,0.9-2.1c0-0.7-0.3-1.5-0.8-2
					c-0.7-0.6-1.6-1.1-2.5-1.4c-0.9-0.3-1.9-0.7-2.8-1.1c-2-0.9-3.3-3-3.3-5.2c-0.1-3,2.2-5.5,5.2-5.7c0,0,0.1,0,0.1,0v-3.1
					L12746.7,8264.7 M12750.2,8261.3h-9.1v3.9c-1.1,0.5-2.1,1.2-2.9,2.1c-1.6,1.7-2.4,3.9-2.3,6.2c0,1.9,0.6,3.9,1.7,5.4h-2.5v3.4
					c-0.1,2.5,0.7,4.9,2.3,6.7c1,1,2.1,1.9,3.4,2.4v3.5h9.1v-3.5c1.2-0.4,2.2-1.1,3.1-2c1.6-1.7,2.5-4,2.4-6.3
					c0-1.2-0.2-2.4-0.6-3.5c-0.2-0.7-0.6-1.3-1-1.8h1.6v-3.5c0.1-2.4-0.7-4.7-2.1-6.6c-0.8-1-1.9-1.9-3.1-2.5L12750.2,8261.3
					L12750.2,8261.3z"/>
			</g>
		</g>
	</g>
</g>
</svg>
