<?xml version="1.0" encoding="utf-8"?>
<!-- Generator: Adobe Illustrator 22.0.1, SVG Export Plug-In . SVG Version: 6.00 Build 0)  -->
<svg version="1.1" id="Layer_1" xmlns="http://www.w3.org/2000/svg" xmlns:xlink="http://www.w3.org/1999/xlink" x="0px" y="0px"
	 viewBox="0 0 193.5 141.9" style="enable-background:new 0 0 193.5 141.9;" xml:space="preserve">
<style type="text/css">
	.st0{clip-path:url(#SVGID_2_);fill:#8D95A2;}
	.st1{clip-path:url(#SVGID_2_);}
	.st2{fill:#FFFFFF;}
	.st3{fill:#8D95A2;}
	.st4{fill:#E4B58F;}
	.st5{clip-path:url(#SVGID_2_);fill:#EAECF0;}
	.st6{fill:#F1F2F2;}
	.st7{fill:#BCBEC0;}
	.st8{clip-path:url(#SVGID_2_);fill:#FFFFFF;}
</style>
<g>
	<defs>
		<rect id="SVGID_1_" y="0" width="193.5" height="141.9"/>
	</defs>
	<clipPath id="SVGID_2_">
		<use xlink:href="#SVGID_1_"  style="overflow:visible;"/>
	</clipPath>
	<path class="st0" d="M114.5,97.4H88.1V75h26.5V97.4z M89.1,96.4h24.5V76H89.1V96.4z"/>
	<g class="st1">
		<path id="Path_79359_1_" class="st2" d="M129.6,46.4c-1.4-14.9-13.4-26.2-28.3-26.2c-14.9,0-27.6,12-28.3,26.2
			c-4.2,1.4-7.1,5-7.1,9.2c-0.7,5.7,3.5,9.9,9.2,9.9h1.4c5,9.9,14.2,17.7,24.8,17.7c10.6,0,19.1-7.8,24.8-17.7h1.4
			c5.3,0.1,9.8-4.1,9.9-9.4c0-0.2,0-0.3,0-0.5C136.7,51.4,133.2,47.9,129.6,46.4z"/>
		<path class="st3" d="M101.3,83.8c-9.9,0-19.5-6.8-25.1-17.7h-1.1c-3,0-5.8-1.2-7.6-3.2c-1.7-1.9-2.5-4.5-2.1-7.2
			c0-4.2,2.8-7.9,7.1-9.5c0.9-14.3,14-26.3,28.8-26.3c14.9,0,27.2,11.3,28.8,26.3c3.3,1.4,7.1,4.9,7.8,9.5c0,0.2,0,0.4,0,0.6
			c-0.1,5.6-4.8,10.1-10.4,9.9h-1.1C119.8,77.5,110.9,83.8,101.3,83.8z M101.3,20.8c-14.4,0-27.1,11.8-27.8,25.7l0,0.3l-0.3,0.1
			c-4.1,1.4-6.7,4.8-6.7,8.7c-0.3,2.5,0.4,4.8,1.9,6.5c1.6,1.8,4.1,2.9,6.8,2.9h1.7l0.1,0.3c5.4,10.7,14.7,17.4,24.3,17.4
			c12.5,0,20.6-10.9,24.3-17.4l0.1-0.3h1.7c5.1,0.1,9.3-3.9,9.4-9c0-0.1,0-0.3,0-0.4c-0.7-4.2-4.4-7.5-7.5-8.7l-0.3-0.1l0-0.3
			C127.7,31.8,115.8,20.8,101.3,20.8z"/>
	</g>
	<path id="Union_1516" class="st0" d="M126.1,40.5c-9.1-2.6-16-5.1-21.8-6.8v4.6L98,32.1c-0.9-0.2-1.8-0.4-2.7-0.5l1.3,4.7l-7.2-4.9
		c-4.2,0.4-8.2,2.2-12.8,5.8l0.1,0v13.5L73,50l-1.4-14.9l0,0c0-13.4,10.6-26.2,24.1-26.2H107c13.4,0,24.1,12.7,24.1,26.2v0
		l-1.4,14.1l-3.5,1.4L126.1,40.5z"/>
	<g id="Group_31616" transform="translate(112.614 45.303)" class="st1">
		<path id="Path_79364" class="st4" d="M22.7,8.9c0,5-4.2,8.5-9.2,8.5c0.7-0.7,0.7-1.4,0.7-2.8C17.9,14.8,21.4,12.5,22.7,8.9z"/>
	</g>
	<g id="Group_31617" transform="translate(53.861 45.303)" class="st1">
		<path id="Path_79365" class="st4" d="M13.5,8.9c0,5,4.2,8.5,9.2,8.5l-1.4-2.8C17.7,14.6,14.9,12.5,13.5,8.9z"/>
	</g>
	<g class="st1">
		<path id="Path_79370_1_" class="st2" d="M153,72.6l-13.4,9.9l-9.2-12.7h-2.1c-3.2,0.1-6.4-0.7-9.2-2.1c-4.3-2.1-7.1-6.5-7.1-11.3
			c0-5-1.4-9.2-0.7-12.7c0.7-2.8,2.1-5,5.7-5.7c10.6-2.1,20.5,9.2,25.5,19.1L153,72.6z"/>
		<path class="st3" d="M139.4,83.3l-9.3-12.9h-1.9c-3.2,0.1-6.5-0.7-9.4-2.2c-4.5-2.2-7.3-6.8-7.4-11.8c0-2.1-0.3-4-0.5-5.9
			c-0.3-2.5-0.6-4.8-0.2-7c0.6-2.4,1.8-5.2,6.1-6.1c10.3-2.1,20.5,8.3,26,19.4l10.9,15.9L139.4,83.3z M130.3,69.3h0.3l9.1,12.5
			l12.7-9.3l-10.3-15.2c-5.4-10.8-15.2-20.9-25-18.9c-2.9,0.6-4.5,2.2-5.3,5.3c-0.4,1.9-0.1,4.1,0.2,6.6c0.2,1.9,0.5,3.9,0.5,6
			c0,4.6,2.7,8.9,6.8,10.9c2.8,1.4,5.9,2.1,9,2.1H130.3z"/>
	</g>
	<g class="st1">
		<path id="Path_79373_1_" class="st2" d="M90.7,56.4c0,4.8-2.7,9.2-7.1,11.3c-2.1,1.4-5.7,2.1-9.2,2.1h-2.1l-9.2,12.7l-13.5-9.9
			l9.9-15.6c5-9.9,14.9-21.2,26.2-19.1c3.5,0.7,5.7,2.8,5.7,5.7C92.1,47.2,90.7,52.1,90.7,56.4z"/>
		<path class="st3" d="M63.2,83.3L49,72.8l10.2-16c5.1-10.2,15.2-21.5,26.7-19.3c3.8,0.8,6.1,3.1,6.1,6.2c0.4,2.1,0.1,4.7-0.2,7.4
			c-0.2,1.8-0.5,3.6-0.5,5.3v0c0,5-2.9,9.6-7.4,11.8c-2,1.3-5.6,2.2-9.4,2.2h-1.9L63.2,83.3z M50.3,72.5L63,81.8L72,69.3h2.4
			c3.7,0,7-0.8,8.9-2c4.2-2,6.9-6.3,6.9-10.9c0-1.8,0.2-3.6,0.5-5.4c0.3-2.7,0.7-5.2,0.3-7.2c0-2.7-2-4.6-5.3-5.3
			c-11-2-20.7,8.9-25.6,18.8L50.3,72.5z"/>
	</g>
	<path id="Path_79376" class="st5" d="M91.4,43.6c0.7,3.5-0.7,8.5-0.7,12.7c0,4.8-2.7,9.2-7.1,11.3c-7,0.1-12.8-5.6-12.9-12.6
		s5.6-12.8,12.6-12.9c0.1,0,0.2,0,0.2,0C86.3,41.5,89.1,42,91.4,43.6z"/>
	<path id="Path_79377" class="st5" d="M131,54.9c0,7-5.6,12.7-12.6,12.7c0,0-0.1,0-0.1,0c-4.3-2.1-7.1-6.5-7.1-11.3
		c0-5-1.4-9.2-0.7-12.7c2.1-1.4,4.6-2.2,7.1-2.1C125,41.5,131,47.5,131,54.9C131,54.9,131,54.9,131,54.9z"/>
	<g id="Group_31620" transform="translate(60.232 32.562)" class="st1">
		<path id="Path_79378" class="st3" d="M67.3,21c0.1-6.6-5.2-12-11.8-12c-0.1,0-0.1,0-0.2,0c-4.1,0-7.9,2.1-9.9,5.7
			c-1.3-1.4-3.1-2.2-5-2.1c-1.9-0.1-3.7,0.7-5,2.1c-2-3.5-5.8-5.7-9.9-5.7c-6.6-0.1-12,5.2-12,11.8c0,0.1,0,0.1,0,0.2
			c0,7.1,5,12,12,12c4.1,0,7.9-2.1,9.9-5.7c1.3,1.4,3.1,2.2,5,2.1c1.9,0.1,3.7-0.7,5-2.1c2,3.5,5.8,5.7,9.9,5.7
			C62.3,32.3,67.3,27.3,67.3,21z"/>
		<circle id="Ellipse_2446" class="st6" cx="55.9" cy="21" r="9.2"/>
		<circle id="Ellipse_2447" class="st2" cx="41.1" cy="21" r="3.5"/>
		<path id="Path_79379" class="st7" d="M55.9,22.4c-2.8,0-5.7-2.1-7.1-4.2C48.3,19,48,20,48.1,21c0,4.3,3.5,7.8,7.8,7.8
			s7.8-3.5,7.8-7.8c0-1.4,0-2.1-0.7-2.8C61.6,20.3,58.8,22.4,55.9,22.4z"/>
		<circle id="Ellipse_2448" class="st6" cx="25.5" cy="21" r="9.2"/>
		<path id="Path_79380" class="st7" d="M25.2,22.4c-2.7,0-5.4-2.1-6.8-4.2V21c-0.1,4.2,3.3,7.7,7.5,7.8c4.2-0.1,7.5-3.6,7.4-7.8
			c0-1.4,0-2.1-0.7-2.8C31,20.7,28.2,22.3,25.2,22.4z"/>
	</g>
	<path class="st0" d="M177.8,108.7l-26.2-42.5l-19.8,12l13.5,21.2L116,87.7l1.4,2.8l-16.1,1.6l-17.7-2.8l-18.4,7.8l-8.5,3.1L70.2,79
		L50.3,66.3l-26.9,43.2c-1.4,2.1-1.4,5-0.7,7.8l2.1,5c2.8,6.4,9.9,9.9,16.3,7.1l23.4-7.6v20.2H136v-21.2l24.1,8.6
		c6.4,2.1,14.2-0.7,16.3-7.8l2.1-5C179.2,113.7,179.2,110.9,177.8,108.7z"/>
	<circle id="Ellipse_2444" class="st8" cx="101.3" cy="103.8" r="2.1"/>
	<circle id="Ellipse_2445" class="st8" cx="101.3" cy="115.1" r="2.1"/>
	<g id="Group_31619" transform="translate(87.839 75.033)" class="st1">
		<g>
			<path id="Path_79369_1_" class="st2" d="M26.9,8.9l-13.4,7.8l12,12.7l5.7-14.9C31.2,15.3,29,11.1,26.9,8.9z"/>
			<path class="st3" d="M25.7,30.4l-13-13.8L27,8.3l0.3,0.3c1.2,1.2,2.5,3.2,3.3,4.4c0.3,0.5,0.7,1.1,0.8,1.2l-0.2,0.2l0.5,0.1V15
				L31.5,15L25.7,30.4z M14.3,16.8l11.1,11.7l5.2-13.7c-0.2-0.3-0.5-0.7-0.8-1.2c-0.7-1.1-1.8-2.8-2.9-4L14.3,16.8z M30.7,14.4
				l0.3,0.1l-0.1-0.3C30.8,14.3,30.8,14.3,30.7,14.4z"/>
		</g>
	</g>
	<g id="Group_31618" transform="translate(70.031 75.033)" class="st1">
		<g>
			<path id="Path_79368_1_" class="st2" d="M17.8,8.9l13.4,7.8l-12,14.2l-5.7-16.3C12.9,15.3,15.7,11.1,17.8,8.9z"/>
			<path class="st3" d="M19.1,31.9l-5.8-16.8c-0.1,0-0.1-0.1-0.1-0.1c-0.8-0.8,4.3-6.4,4.4-6.4l0.3-0.3L32,16.6L19.1,31.9z
				 M14.1,14.5l5.3,15.4l11.1-13L17.9,9.6C16.4,11.2,14.6,13.7,14.1,14.5z"/>
		</g>
	</g>
	<path id="Path_79372" class="st8" d="M146.6,103.1l10.6,17c0,0-16.3-5.7-21.9-20.5L146.6,103.1z"/>
	<path id="Path_79375" class="st8" d="M56,103.1l-10.6,17c0,0,16.3-5.7,21.9-20.5L56,103.1z"/>
</g>
</svg>
