<?xml version="1.0" encoding="utf-8"?>
<!-- Generator: Adobe Illustrator 22.0.1, SVG Export Plug-In . SVG Version: 6.00 Build 0)  -->
<svg version="1.1" id="Layer_1" xmlns="http://www.w3.org/2000/svg" xmlns:xlink="http://www.w3.org/1999/xlink" x="0px" y="0px"
	 viewBox="0 0 38.5 48.2" style="enable-background:new 0 0 38.5 48.2;" xml:space="preserve">
<style type="text/css">
	.st0{fill:#FFFFFF;}
	.st1{fill:#FFCB05;}
</style>
<g id="Group_8338_4_" transform="translate(-5069 -2123.726)">
	<g id="Group_8337_4_" transform="translate(42)">
		<path class="st0" d="M5046.2,2161.7l-0.8-1.2c-0.3-0.5-0.7-1-1.1-1.7c-4.5-6.7-9.3-14.3-9.3-18.8v0c0-3,1.2-5.8,3.3-7.9
			c2.1-2.1,4.9-3.3,7.9-3.3c0,0,0,0,0,0c3,0,5.8,1.2,7.9,3.3c2.1,2.1,3.3,5,3.3,8c0,5.6-6.2,14.4-9.5,19.2c-0.3,0.5-0.6,0.9-0.9,1.3
			L5046.2,2161.7z M5037,2140c0,4.3,6.1,13.3,9,17.7c0.1,0.2,0.2,0.3,0.3,0.5c0,0,0-0.1,0.1-0.1c3-4.2,9.2-13,9.2-18
			c0-2.5-1-4.8-2.7-6.5c-1.7-1.8-4.1-2.7-6.5-2.7c0,0,0,0,0,0c-2.5,0-4.8,1-6.5,2.7C5038,2135.2,5037,2137.5,5037,2140z"/>
	</g>
</g>
<g transform="matrix(1, 0, 0, 1, 5023, 2065)">
	<path id="Path_21379-2_2_" class="st0" d="M-5003.8-2059c-5.7,0-10.2,4.6-10.2,10.2c0,5.2,7.6,15.9,10.2,19.9
		c2.9-4.1,10.2-14,10.2-19.9c0.1-5.6-4.5-10.2-10.1-10.3C-5003.6-2059-5003.7-2059-5003.8-2059z"/>
</g>
<g id="Group_8338_3_" transform="translate(-5069 -2123.726)">
	<g id="Group_8337_3_" transform="translate(42)">
		<path id="Union_1236_2_" class="st1" d="M5036,2140c0-5.7,4.6-10.2,10.3-10.2c5.7,0,10.2,4.6,10.2,10.3c0,5.8-7.4,15.8-10.2,19.9
			C5043.6,2155.8,5036,2145.2,5036,2140z M5040.6,2139.9c0,3.1,2.5,5.6,5.6,5.6c3.1,0,5.6-2.5,5.6-5.6c0-3.1-2.5-5.6-5.6-5.6
			C5043.2,2134.3,5040.6,2136.8,5040.6,2139.9z M5043.1,2139.9c0-1.8,1.4-3.2,3.2-3.2c1.8,0,3.2,1.4,3.2,3.2c0,1.8-1.4,3.2-3.2,3.2
			c0,0,0,0,0,0C5044.5,2143.1,5043.1,2141.7,5043.1,2139.9z"/>
	</g>
</g>
</svg>
