<svg id="Layer_1" data-name="Layer 1" xmlns="http://www.w3.org/2000/svg" viewBox="0 0 300 300"><defs><style>.cls-1,.cls-3{fill:#fff;}.cls-2{fill:#dcdcdc;}.cls-3,.cls-5{opacity:0.7;}.cls-4{fill:none;}.cls-5{fill:#ed6a4c;}</style></defs><title>Infog</title><path class="cls-1" d="M67.12,206.47a4,4,0,0,1-4-3.64l-9.6-102.48A4,4,0,0,1,57.15,96l74.66-7,9.73,12.24-19.62,20.14,16.34,19.79-10.65,18.31,14.5,16.71-14.58,15.49,6.23,8.58L67.5,206.45Z"/><path class="cls-2" d="M131.07,90.7l2.54,3.2,5.74,7.22-17.59,18.06-2,2.1,1.87,2.26,14.69,17.78-9.49,16.31-1.18,2,1.53,1.77,12.76,14.71-12.64,13.43-1.86,2,1.59,2.19,3.75,5.16-63.41,5.94H67.12a2.4,2.4,0,0,1-2.37-2.16L55.15,100.2a2.39,2.39,0,0,1,2.15-2.59l73.77-6.91m1.46-3.42L57,94.35a5.66,5.66,0,0,0-5.1,6.15L61.49,203a5.66,5.66,0,0,0,5.62,5.12l0.53,0,69.12-6.48L133.42,197l-3.77-5.19,14.67-15.58-14.7-16.94L140.24,141l-16.14-19.54,19.6-20.12-7.53-9.47-3.65-4.58h0Z"/><path class="cls-1" d="M230.18,207.56l-0.38,0-84.65-7.91-4.35-9.28L158,177.85l-11.49-19.58,13.87-15.89-12-22.13,23.06-16.3-7.47-14,76.15,7.12a4,4,0,0,1,3.63,4.37l-9.58,102.48a4,4,0,0,1-4,3.64h0Z"/><path class="cls-2" d="M166.85,91.86L240,98.69a2.38,2.38,0,0,1,2.15,2.59l-9.58,102.48a2.4,2.4,0,0,1-2.37,2.16H230l-83.72-7.82-3.38-7.21L157.74,180l2.4-1.74-1.5-2.56-10.15-17.29,12.35-14.15,1.49-1.71-1.08-2-10.73-19.86,20.7-14.63,2.35-1.67-1.36-2.54-5.36-10M161.11,88l8.22,15.4-23.06,16.31,12.11,22.41-13.89,15.93,11.34,19.32-17.07,12.43,5.32,11.34,85.59,8,0.53,0a5.66,5.66,0,0,0,5.62-5.13l9.58-102.48a5.66,5.66,0,0,0-5.1-6.15L161.11,88h0Z"/><path class="cls-3" d="M133.83,183l6.2-6.59-14.7-16.94,4.17-7.16,2.76-4.75,3.71-6.37-16.14-19.54,2.37-2.43,3.49-3.59,13.74-14.1L131.9,92l-3.65-4.58L52.72,94.51a5.66,5.66,0,0,0-5.1,6.15l9.6,102.48a5.66,5.66,0,0,0,6.15,5.1l69.12-6.48-3.35-4.61L125.37,192l3.38-3.59Z"/><path class="cls-1" d="M244.33,95.59l-79.17-7.4,2.73,5.18,5.65,10.71-16.12,11.31-4.1,2.88,0.05,0.12-2.68,1.86,12.13,22.25L158,148l0-.06-3.59,4.15-5.42,6.26,11.3,19.37-7.31,5.32-6,4.37-4,2.9,2.74,5.8,2.44,5.15,85.59,8a5.66,5.66,0,0,0,6.15-5.1l9.58-102.48A5.66,5.66,0,0,0,244.33,95.59Z"/><path class="cls-1" d="M125.33,159.44l4.17-7.16-6.86-10.54-4.34,15,0,0.08-0.06.15a2.44,2.44,0,0,1-.12.26l-0.07.13a2.41,2.41,0,0,1-.24.32l0,0a2.44,2.44,0,0,1-.33.29l0,0,0,0a3.2,3.2,0,0,1-.59.3h0a2.67,2.67,0,0,1-1.29.13l-0.19-.06c-0.07,0-.13-0.06-0.19-0.09l-0.17-.08a2.44,2.44,0,0,1-.44-0.27l0,0a2.43,2.43,0,0,1-.4-0.42l0,0-7.6-10.42L89.06,187.16,133.83,183l6.2-6.59Z"/><path class="cls-1" d="M119.89,115.76l-11.26,26.07,6.36,8.71,4.43-15.32s0-.08,0-0.12a2.44,2.44,0,0,1,.1-0.25l0.11-.19,0.14-.21,0.15-.18,0.17-.17,0.2-.16,0.11-.09,0.08,0,0.23-.12,0.2-.09,0.24-.07,0.22,0,0.24,0h0.24l0.23,0,0.25,0,0.09,0,0.13,0.05,0.24,0.1,0.2,0.11,0.2,0.13,0.19,0.16,0.16,0.16,0.16,0.2,0.09,0.11,8.43,13,3.71-6.37-16.14-19.54,2.37-2.43Z"/><path class="cls-1" d="M128.75,188.37L78.3,193.09a2.45,2.45,0,1,1-.46-4.88l6.06-.57a2.43,2.43,0,0,1,.17-1.32l33.08-76.61a2.45,2.45,0,0,1,4.28-.4l4.25,6.29,13.74-14.1L131.9,92,53.17,99.39a0.76,0.76,0,0,0-.67.81l9.6,102.48a0.76,0.76,0,0,0,.81.67l66.23-6.2L125.37,192Z"/><path class="cls-4" d="M188.29,159.75l0.07-.11a2.43,2.43,0,0,1,.15-0.23l0.14-.17,0.18-.18,0.18-.15,0.2-.14,0.22-.12,0.12-.07,0.08,0,0.24-.07,0.23-.05,0.23,0h0.25l0.22,0,0.25,0,0.21,0.06,0.25,0.1,0.08,0,0.11,0.07,0.22,0.14,0.17,0.14,0.18,0.17,0.15,0.18,0.13,0.19a2.44,2.44,0,0,1,.12.23l0.06,0.12,5.92,14.39,4.52-5-11.1-25.69L178.4,163.92l3.58,8.29Z"/><path class="cls-4" d="M199.68,180.48l0,0a2.42,2.42,0,0,1-.41.35h0a2.46,2.46,0,0,1-.43.23h0a2.43,2.43,0,0,1-.38.11l-0.18,0a2.46,2.46,0,0,1-.38,0h-0.19a2.45,2.45,0,0,1-.57-0.13l-0.1,0a2.43,2.43,0,0,1-.5-0.27l-0.09-.07-0.16-.12a2.42,2.42,0,0,1-.19-0.21l-0.1-.11a2.42,2.42,0,0,1-.31-0.52l0,0-5.35-13-5.73,11.33,3.59,8.31,23.38,2.18-6.17-14.27Z"/><polygon class="cls-1" points="157.98 148.05 158.99 150.54 164.63 144.41 153.49 118.31 150.7 120.24 162.83 142.5 157.98 148.05"/><path class="cls-1" d="M152.93,183.1l29.61,2.77-8.73-20.2a2.44,2.44,0,0,1-.79-1.83l-6.3-14.58L160,156.64l0,0a2.51,2.51,0,0,1-.41.35l-0.07,0a2.34,2.34,0,0,1-.37.21h0a2.43,2.43,0,0,1-.39.11l-0.17,0a3.16,3.16,0,0,1-.49-0.2S158,157,158,157h0a1.78,1.78,0,0,1-.58.08s-0.06.09-.09,0.08a2.22,2.22,0,0,1-.5-0.22l-0.1,0c-0.05,0-.11-0.06-0.16-0.11a2.33,2.33,0,0,1-.19-0.2l-0.11-.12a2.42,2.42,0,0,1-.31-0.52l0,0-1.55-3.78-5.42,6.26,11.3,19.37Z"/><path class="cls-1" d="M243.88,100.47l-76-7.1,5.65,10.71-16.12,11.31,18.66,43.19,14.43-21.36a2.45,2.45,0,0,1,4.28.4l22.25,51.47,2.17,0.2a2.45,2.45,0,0,1,2.21,2.67,2.52,2.52,0,0,1-2.67,2.29l-3.61-.26h0v-0.08l-68.22-6.41-4,2.88,2.74,5.79,88.48,8.26a0.76,0.76,0,0,0,.81-0.68l9.58-102.48A0.76,0.76,0,0,0,243.88,100.47Zm-53.3,25.63c-0.44,4.74-5.19,8.19-10.57,7.69a6.19,6.19,0,0,0-1.63-.15l-8.8-.82a2.45,2.45,0,1,1,.46-4.88l8.8,0.82h0.61a2.43,2.43,0,0,1,.42,0l0.31,0.06,0.29,0.05c2.65,0.25,5-1.25,5.23-3.26s-1.89-3.93-4.54-4.17a2.89,2.89,0,0,0-.35,0H180.6a2.49,2.49,0,0,1-2.16-1.21,2.45,2.45,0,0,1-.33-1.48c0-.06,0-0.12,0-0.19,0.13-2.34-2.26-4.53-5.3-4.81s-5.89,1.48-6.12,3.87a2.45,2.45,0,1,1-4.88-.46c0.48-5.12,5.62-8.84,11.45-8.3,4.9,0.46,8.77,3.79,9.59,7.87C187.62,117.78,191,121.74,190.58,126.1Z"/><path class="cls-5" d="M62.91,203.36a0.76,0.76,0,0,1-.81-0.67L52.5,100.21a0.76,0.76,0,0,1,.67-0.81L131.9,92l-3.65-4.58L52.72,94.51a5.66,5.66,0,0,0-5.1,6.15l9.6,102.48a5.66,5.66,0,0,0,6.15,5.1l69.12-6.48-3.35-4.61Z"/><path class="cls-5" d="M114,157.48a2.46,2.46,0,0,0,4.34-.76l4.34-15,6.86,10.54,2.76-4.75-8.43-13-0.09-.11-0.16-.2-0.16-.16-0.19-.16-0.2-.13-0.2-.11-0.24-.1-0.13-.05-0.09,0-0.25,0-0.23,0h-0.24l-0.24,0-0.22,0-0.24.07-0.2.09-0.23.12-0.08,0-0.11.09-0.2.16-0.17.17-0.15.18-0.14.21-0.11.19a2.44,2.44,0,0,0-.1.25s0,0.08,0,.12L115,150.55l-6.36-8.71,11.26-26.07,2.31,3.42,3.49-3.59-4.25-6.29a2.45,2.45,0,0,0-4.28.4L84.08,186.32a2.43,2.43,0,0,0-.17,1.32l-6.06.57a2.45,2.45,0,1,0,.46,4.88l50.44-4.73,5.09-5.4-44.77,4.19,17.31-40.09S112.61,155.63,114,157.48Z"/><path class="cls-5" d="M244.33,95.59l-79.17-7.4,2.73,5.18,76,7.1a0.76,0.76,0,0,1,.67.81L235,203.76a0.76,0.76,0,0,1-.81.67l-88.48-8.27,2.44,5.15,85.59,8a5.66,5.66,0,0,0,6.15-5.1l9.58-102.48A5.66,5.66,0,0,0,244.33,95.59Z"/><path class="cls-5" d="M215.15,194s0-.51,0-0.09l3.61,0.29a2.3,2.3,0,0,0,2.66-2,2.56,2.56,0,0,0-2.21-2.78l-2.17-.26-22.25-51.5a2.45,2.45,0,0,0-4.28-.42l-14.43,21.36-18.66-43.19-4.1,2.88,11.26,26.05L159,150.47,158,148l-3.59,4.15,1.55,3.78,0,0a2.43,2.43,0,0,0,.31.52l0.11,0.12a2.44,2.44,0,0,0,.34.33l0.1,0.07a2.43,2.43,0,0,0,.5.27l0.09,0a2.45,2.45,0,0,0,.58.13H158a2.46,2.46,0,0,0,.49,0l0.17,0a2,2,0,0,0,.8-0.32l0.07,0a2.46,2.46,0,0,0,.41-0.35l0,0,6.73-7.38,6.3,14.58,0.79,1.83,8.73,20.2-29.61-2.77-6,4.46L215.16,194h0ZM182,172.21l-3.58-8.29,13.68-20.25,11.1,25.69-4.52,5-5.92-14.39-0.06-.12a2.41,2.41,0,0,0-.12-0.23l-0.13-.19-0.15-.18-0.18-.17-0.17-.14-0.23-.14-0.11-.07-0.08,0-0.25-.1-0.21-.06-0.25,0-0.22,0h-0.25l-0.23,0-0.23.05-0.24.07-0.08,0-0.12.07-0.22.12-0.2.14-0.18.15-0.18.18-0.14.17a2.42,2.42,0,0,0-.15.23l-0.07.11Zm6.13,14.17-3.59-8.31,5.73-11.33,5.35,13,0,0a2.43,2.43,0,0,0,.31.52l0.1,0.11a2.45,2.45,0,0,0,.19.21l0.16,0.12,0.09,0.07a2.43,2.43,0,0,0,.5.27l0.1,0a2.45,2.45,0,0,0,.57.13h0.19a2.46,2.46,0,0,0,.38,0l0.18,0a2.43,2.43,0,0,0,.38-0.11h0a2.46,2.46,0,0,0,.43-0.23h0a2.41,2.41,0,0,0,.41-0.35l0,0,5.64-6.18,6.17,14.27Z"/><path class="cls-5" d="M164,119.87a2.45,2.45,0,0,0,2.67-2.21c0.22-2.39,3-4.16,6.12-3.87s5.43,2.47,5.3,4.81c0,0.06,0,.13,0,0.19a2.45,2.45,0,0,0,.33,1.48,2.49,2.49,0,0,0,2.16,1.21h0.21a2.89,2.89,0,0,1,.35,0c2.65,0.25,4.73,2.16,4.54,4.17s-2.58,3.51-5.23,3.26l-0.29-.05-0.31-.06a2.43,2.43,0,0,0-.42,0h-0.61l-8.8-.82a2.45,2.45,0,1,0-.46,4.88l8.8,0.82a6.19,6.19,0,0,1,1.63.15c5.39,0.5,10.13-2.95,10.57-7.69,0.41-4.36-3-8.32-7.7-9.32-0.83-4.09-4.69-7.42-9.59-7.87-5.84-.55-11,3.18-11.45,8.3A2.45,2.45,0,0,0,164,119.87Z"/><path class="cls-3" d="M192.08,143.67l11.1,25.69-4.52,5-5.92-14.39-0.06-.12a2.41,2.41,0,0,0-.12-0.23l-0.13-.19-0.15-.18-0.18-.17-0.17-.14-0.23-.14-0.11-.07-0.08,0-0.25-.1-0.21-.06-0.25,0-0.22,0h-0.25l-0.23,0-0.23.05-0.24.07-0.08,0-0.12.07-0.22.12-0.2.14-0.18.15-0.18.18-0.14.17a2.42,2.42,0,0,0-.15.23l-0.07.11L182,172.21l-3.58-8.29Zm-4,42.71-3.59-8.31,5.73-11.33,5.35,13,0,0a2.43,2.43,0,0,0,.31.52l0.1,0.11a2.45,2.45,0,0,0,.19.21l0.16,0.12,0.09,0.07a2.43,2.43,0,0,0,.5.27l0.1,0a2.45,2.45,0,0,0,.57.13h0.19a2.46,2.46,0,0,0,.38,0l0.18,0a2.43,2.43,0,0,0,.38-0.11h0a2.46,2.46,0,0,0,.43-0.23h0a2.41,2.41,0,0,0,.41-0.35l0,0,5.64-6.18,6.17,14.27Z"/></svg>