<svg id="Layer_1" data-name="Layer 1" xmlns="http://www.w3.org/2000/svg" viewBox="0 0 640 300"><defs><style>.cls-1{fill:#aaa;}.cls-2{fill:#f28c6e;}.cls-3{fill:#fff;}.cls-4{fill:#3fc0c2;opacity:0.5;}</style></defs><title>Infog</title><path class="cls-1" d="M448,169V154.36a1.54,1.54,0,0,0-1.33-1.36H396.54a1.77,1.77,0,0,0-1.54,1.36V210h12.94V173.53a4.47,4.47,0,0,1,4.25-4.53h0l34.75-.06Z"/><rect class="cls-2" x="329" y="146" width="7" height="2"/><rect class="cls-2" x="342" y="146" width="6" height="2"/><rect class="cls-2" x="354" y="146" width="7" height="2"/><rect class="cls-2" x="317" y="146" width="7" height="2"/><polygon class="cls-2" points="368 146 366 146 366 148 368 148 368 151.06 374.86 147.09 368 143.13 368 146"/><polygon class="cls-2" points="310 143.13 303.14 147.09 310 151.06 310 148 312 148 312 146 310 146 310 143.13"/><rect class="cls-2" x="329" y="197" width="7" height="2"/><rect class="cls-2" x="342" y="197" width="6" height="2"/><rect class="cls-2" x="354" y="197" width="7" height="2"/><rect class="cls-2" x="317" y="197" width="7" height="2"/><polygon class="cls-2" points="368 197 366 197 366 199 368 199 368 202.06 374.86 198.09 368 194.13 368 197"/><polygon class="cls-2" points="310 194.13 303.14 198.09 310 202.06 310 199 312 199 312 197 310 197 310 194.13"/><rect class="cls-2" x="329" y="172" width="7" height="2"/><rect class="cls-2" x="342" y="172" width="6" height="2"/><rect class="cls-2" x="354" y="172" width="7" height="2"/><rect class="cls-2" x="317" y="172" width="7" height="2"/><polygon class="cls-2" points="368 172 366 172 366 174 368 174 368 177.06 374.86 173.09 368 169.13 368 172"/><polygon class="cls-2" points="310 169.13 303.14 173.09 310 177.06 310 174 312 174 312 172 310 172 310 169.13"/><path class="cls-1" d="M278,126.23c0-.16-0.31-0.23-1-0.23H263.43a2.46,2.46,0,0,0-1.43.23V132h16v-5.77Z"/><rect class="cls-1" x="264" y="195" width="19" height="14"/><path class="cls-1" d="M281.74,135H248.61a2,2,0,0,0-1.61,1.48V153h36V136.48A1.6,1.6,0,0,0,281.74,135ZM258,146.23a0.77,0.77,0,0,1-.77.77h-4.45a0.77,0.77,0,0,1-.77-0.77v-5.45a0.77,0.77,0,0,1,.77-0.77h4.45a0.77,0.77,0,0,1,.77.77v5.45Zm10,0a0.77,0.77,0,0,1-.77.77h-4.45a0.77,0.77,0,0,1-.77-0.77v-5.45a0.77,0.77,0,0,1,.77-0.77h4.45a0.77,0.77,0,0,1,.77.77v5.45Zm11,0a0.77,0.77,0,0,1-.77.77h-4.45a0.77,0.77,0,0,1-.77-0.77v-5.45a0.77,0.77,0,0,1,.77-0.77h4.45a0.77,0.77,0,0,1,.77.77v5.45Z"/><path class="cls-1" d="M264,180h3.32a0.76,0.76,0,0,1,.68.84v5.88c0,0.43-.25.28-0.68,0.28H264v6h19V175H264v5Zm15,6.23a0.77,0.77,0,0,1-.77.77h-4.45a0.77,0.77,0,0,1-.77-0.77v-5.45a0.77,0.77,0,0,1,.77-0.77h4.45a0.77,0.77,0,0,1,.77.77v5.45Z"/><path class="cls-1" d="M247,165h5v-3.84c0-.43-0.15-1.16.28-1.16h4.29c0.43,0,.43.73,0.43,1.16V165h2.69c1,0,2.31.45,2.31,1v-4.81a1.45,1.45,0,0,1,1-1.16h4.29a1.14,1.14,0,0,1,.68,1.16V167a0.88,0.88,0,0,1-.68,1h-3.46c0.25,0,.14,1,0.14,1.64V173h19V155H247v10Zm32,1.23a0.77,0.77,0,0,1-.77.77h-4.45a0.77,0.77,0,0,1-.77-0.77v-5.45a0.77,0.77,0,0,1,.77-0.77h4.45a0.77,0.77,0,0,1,.77.77v5.45Z"/><path class="cls-1" d="M259.69,168H167.07c-0.62,0-1.07,1-1.07,1.64V209h35v-9.48c0-.43.52-0.52,0.94-0.52h22.88c0.43,0,1.18.1,1.18,0.52V209h35V169.64A1.84,1.84,0,0,0,259.69,168ZM194,187.23a0.77,0.77,0,0,1-.77.77H170.77a0.77,0.77,0,0,1-.77-0.77V176.77a0.77,0.77,0,0,1,.77-0.77h22.45a0.77,0.77,0,0,1,.77.77v10.45Zm12,0a0.77,0.77,0,0,1-.77.77h-6.45a0.77,0.77,0,0,1-.77-0.77V176.77a0.77,0.77,0,0,1,.77-0.77h6.45a0.77,0.77,0,0,1,.77.77v10.45Zm12,0a0.77,0.77,0,0,1-.77.77h-6.45a0.77,0.77,0,0,1-.77-0.77V176.77a0.77,0.77,0,0,1,.77-0.77h6.45a0.77,0.77,0,0,1,.77.77v10.45Zm11,0a0.77,0.77,0,0,1-.77.77h-6.45a0.77,0.77,0,0,1-.77-0.77V176.77a0.77,0.77,0,0,1,.77-0.77h6.45a0.77,0.77,0,0,1,.77.77v10.45Zm3,0.67V177a1.25,1.25,0,0,1,1-1h22.88a1.38,1.38,0,0,1,1.12,1v10.87a1.48,1.48,0,0,1-1.12,1.11H233A1.36,1.36,0,0,1,232,187.89Z"/><path class="cls-1" d="M151.6,117H107.86a2.54,2.54,0,0,0-2.86,2.64V137h5.43a4.41,4.41,0,0,1,4.57,4.36V142h40V119.64C155,117.93,153.3,117,151.6,117ZM120,134.23a0.77,0.77,0,0,1-.77.77h-6.45a0.77,0.77,0,0,1-.77-0.77v-8.45a0.77,0.77,0,0,1,.77-0.77h6.45a0.77,0.77,0,0,1,.77.77v8.45Zm14,0a0.77,0.77,0,0,1-.77.77h-6.45a0.77,0.77,0,0,1-.77-0.77v-8.45a0.77,0.77,0,0,1,.77-0.77h6.45a0.77,0.77,0,0,1,.77.77v8.45Zm14,0a0.77,0.77,0,0,1-.77.77h-6.45a0.77,0.77,0,0,1-.77-0.77v-8.45a0.77,0.77,0,0,1,.77-0.77h6.45a0.77,0.77,0,0,1,.77.77v8.45Z"/><rect class="cls-1" x="115" y="195" width="40" height="14"/><path class="cls-1" d="M115,151h3.89a1.1,1.1,0,0,1,1.11.72v8a1.7,1.7,0,0,1-1.11,1.28H115v7h40V144H115v7Zm33,9.23a0.77,0.77,0,0,1-.77.77h-6.45a0.77,0.77,0,0,1-.77-0.77v-8.45a0.77,0.77,0,0,1,.77-0.77h6.45a0.77,0.77,0,0,1,.77.77v8.45Zm-14,0a0.77,0.77,0,0,1-.77.77h-6.45a0.77,0.77,0,0,1-.77-0.77v-8.45a0.77,0.77,0,0,1,.77-0.77h6.45a0.77,0.77,0,0,1,.77.77v8.45Z"/><path class="cls-1" d="M115,176h3.89a1.38,1.38,0,0,1,1.11,1v8a1.33,1.33,0,0,1-1.11,1H115v7h40V170H115v6Zm33,9.23a0.77,0.77,0,0,1-.77.77h-6.45a0.77,0.77,0,0,1-.77-0.77v-8.45a0.77,0.77,0,0,1,.77-0.77h6.45a0.77,0.77,0,0,1,.77.77v8.45Zm-14,0a0.77,0.77,0,0,1-.77.77h-6.45a0.77,0.77,0,0,1-.77-0.77v-8.45a0.77,0.77,0,0,1,.77-0.77h6.45a0.77,0.77,0,0,1,.77.77v8.45Z"/><path class="cls-1" d="M76,160v18h36V160H76Zm10,11.23a0.77,0.77,0,0,1-.77.77H80.77a0.77,0.77,0,0,1-.77-0.77v-5.45a0.77,0.77,0,0,1,.77-0.77h4.45a0.77,0.77,0,0,1,.77.77v5.45Zm11,0a0.77,0.77,0,0,1-.77.77H91.77a0.77,0.77,0,0,1-.77-0.77v-5.45a0.77,0.77,0,0,1,.77-0.77h4.45a0.77,0.77,0,0,1,.77.77v5.45Zm9.76-6.23a1.57,1.57,0,0,1,1.24,1v5.88a1.6,1.6,0,0,1-1.24,1.07h-4.29c-0.43,0-.47-0.65-0.47-1.07V166c0-.43,0-1,0.47-1h4.29Z"/><polygon class="cls-1" points="76 200 76 209 112 209 112 209.1 112 200 104.76 200 76 200"/><path class="cls-1" d="M76,180v18h36V180H76Zm10,11.23a0.77,0.77,0,0,1-.77.77H80.77a0.77,0.77,0,0,1-.77-0.77v-5.45a0.77,0.77,0,0,1,.77-0.77h4.45a0.77,0.77,0,0,1,.77.77v5.45Zm11,0a0.77,0.77,0,0,1-.77.77H91.77a0.77,0.77,0,0,1-.77-0.77v-5.45a0.77,0.77,0,0,1,.77-0.77h4.45a0.77,0.77,0,0,1,.77.77v5.45Zm9.76-6.23a1.28,1.28,0,0,1,1.24.72v5.88c0,0.43-.81.39-1.24,0.39h-4.29c-0.43,0-.47,0-0.47-0.39v-5.88c0-.43,0-0.72.47-0.72h4.29Z"/><path class="cls-1" d="M110.43,140H77.3a1.51,1.51,0,0,0-1.3,1.36V158h36V141.36A1.79,1.79,0,0,0,110.43,140ZM86,151.23a0.77,0.77,0,0,1-.77.77H80.77a0.77,0.77,0,0,1-.77-0.77v-5.45a0.77,0.77,0,0,1,.77-0.77h4.45a0.77,0.77,0,0,1,.77.77v5.45Zm11,0a0.77,0.77,0,0,1-.77.77H91.77a0.77,0.77,0,0,1-.77-0.77v-5.45a0.77,0.77,0,0,1,.77-0.77h4.45a0.77,0.77,0,0,1,.77.77v5.45Zm11,0.53a1.81,1.81,0,0,1-1.24,1.24h-4.29c-0.43,0-.47-0.81-0.47-1.24v-5.88c0-.43,0-0.88.47-0.88h4.29a1.4,1.4,0,0,1,1.24.88v5.88Z"/><path class="cls-1" d="M527,176h4.13a1.11,1.11,0,0,1,.87,1v8a1.06,1.06,0,0,1-.87,1H527v7h38V170H527v6Zm33,9.23a0.77,0.77,0,0,1-.77.77h-6.45a0.77,0.77,0,0,1-.77-0.77v-8.45a0.77,0.77,0,0,1,.77-0.77h6.45a0.77,0.77,0,0,1,.77.77v8.45Zm-14,0a0.77,0.77,0,0,1-.77.77h-6.45a0.77,0.77,0,0,1-.77-0.77v-8.45a0.77,0.77,0,0,1,.77-0.77h6.45a0.77,0.77,0,0,1,.77.77v8.45Z"/><path class="cls-1" d="M527,151h4.13a0.82,0.82,0,0,1,.87.72v8a1.45,1.45,0,0,1-.87,1.28H527v7h38V144H527v7Zm33,9.23a0.77,0.77,0,0,1-.77.77h-6.45a0.77,0.77,0,0,1-.77-0.77v-8.45a0.77,0.77,0,0,1,.77-0.77h6.45a0.77,0.77,0,0,1,.77.77v8.45Zm-14,0a0.77,0.77,0,0,1-.77.77h-6.45a0.77,0.77,0,0,1-.77-0.77v-8.45a0.77,0.77,0,0,1,.77-0.77h6.45a0.77,0.77,0,0,1,.77.77v8.45Z"/><path class="cls-1" d="M563.84,118H520.1c-0.77,0-1.1.87-1.1,1.64V137h3.67a4.2,4.2,0,0,1,4.33,4.36V142h38V119.64A1.45,1.45,0,0,0,563.84,118ZM532,134.23a0.77,0.77,0,0,1-.77.77h-6.45a0.77,0.77,0,0,1-.77-0.77v-8.45a0.77,0.77,0,0,1,.77-0.77h6.45a0.77,0.77,0,0,1,.77.77v8.45Zm14,0a0.77,0.77,0,0,1-.77.77h-6.45a0.77,0.77,0,0,1-.77-0.77v-8.45a0.77,0.77,0,0,1,.77-0.77h6.45a0.77,0.77,0,0,1,.77.77v8.45Zm14,0a0.77,0.77,0,0,1-.77.77h-6.45a0.77,0.77,0,0,1-.77-0.77v-8.45a0.77,0.77,0,0,1,.77-0.77h6.45a0.77,0.77,0,0,1,.77.77v8.45Z"/><rect class="cls-1" x="527" y="195" width="38" height="14"/><path class="cls-1" d="M522.67,140H489.54a1.77,1.77,0,0,0-1.54,1.36V158h36V141.36A1.54,1.54,0,0,0,522.67,140ZM498,151.23a0.77,0.77,0,0,1-.77.77h-4.45a0.77,0.77,0,0,1-.77-0.77v-5.45a0.77,0.77,0,0,1,.77-0.77h4.45a0.77,0.77,0,0,1,.77.77v5.45Zm11,0a0.77,0.77,0,0,1-.77.77h-4.45a0.77,0.77,0,0,1-.77-0.77v-5.45a0.77,0.77,0,0,1,.77-0.77h4.45a0.77,0.77,0,0,1,.77.77v5.45Zm11,0.53a1.52,1.52,0,0,1-1,1.24h-4.29a1.27,1.27,0,0,1-.71-1.24v-5.88a0.82,0.82,0,0,1,.71-0.88H519a1.09,1.09,0,0,1,1,.88v5.88Z"/><path class="cls-1" d="M517,180H500.51l0,18H524V180h-7Zm-8,11.23a0.77,0.77,0,0,1-.77.77h-4.45a0.77,0.77,0,0,1-.77-0.77v-5.45a0.77,0.77,0,0,1,.77-0.77h4.45a0.77,0.77,0,0,1,.77.77v5.45ZM519,185a1,1,0,0,1,1,.72v5.88c0,0.43-.57.39-1,0.39h-4.29c-0.43,0-.71,0-0.71-0.39v-5.88a0.68,0.68,0,0,1,.71-0.72H519Z"/><polygon class="cls-1" points="517 200 515.29 200 500.48 200 500.46 209 524 209 524 209.1 524 200 518.71 200 517 200"/><path class="cls-1" d="M517,160H488v9.58h4V166a1.53,1.53,0,0,1,1.21-1h4.29c0.43,0,.5.62,0.5,1v4.14a1.24,1.24,0,0,1,1.12.66,4.09,4.09,0,0,1,1.32,2.93l0.06,4.22H524V160h-7Zm-8,11.23a0.77,0.77,0,0,1-.77.77h-4.45a0.77,0.77,0,0,1-.77-0.77v-5.45a0.77,0.77,0,0,1,.77-0.77h4.45a0.77,0.77,0,0,1,.77.77v5.45ZM519,165a1.27,1.27,0,0,1,1,1v5.88a1.3,1.3,0,0,1-1,1.07h-4.29a1,1,0,0,1-.71-1.07V166a1,1,0,0,1,.71-1H519Z"/><path class="cls-3" d="M435.94,157.53a0.6,0.6,0,0,1,.6-0.6h5.62a0.6,0.6,0,0,1,.6.6v6.93a0.6,0.6,0,0,1-.6.6h-5.62a0.6,0.6,0,0,1-.6-0.6v-6.93Zm-11.73,0a0.6,0.6,0,0,1,.6-0.6h5.62a0.6,0.6,0,0,1,.6.6v6.93a0.6,0.6,0,0,1-.6.6H424.8a0.6,0.6,0,0,1-.6-0.6v-6.93Zm-11.73,0a0.6,0.6,0,0,1,.6-0.6h5.62a0.6,0.6,0,0,1,.6.6v6.93a0.6,0.6,0,0,1-.6.6h-5.62a0.6,0.6,0,0,1-.6-0.6v-6.93Zm-4.93,6.93a0.6,0.6,0,0,1-.6.6h-5.62a0.6,0.6,0,0,1-.6-0.6v-6.93a0.6,0.6,0,0,1,.6-0.6H407a0.6,0.6,0,0,1,.6.6v6.93Z"/><path class="cls-1" d="M497,209.24l0-9.63V173.89a0.88,0.88,0,0,0-.88-0.88H485l-35-.05H446.6l-34.41,0a1,1,0,0,0-.88,1L411.26,210h-0.68l32.42-.11v-0.08l0-8.85a0.74,0.74,0,0,1,.72-0.72l2.78-.12,1.72-.12H450l14.57,0.13a0.76,0.76,0,0,1,.7.76v8.84l32.28,0.06H497v-0.57Zm-82.37-28.77a0.7,0.7,0,0,1,.7-0.7l20.75,0a0.71,0.71,0,0,1,.7.7v9.86a0.7,0.7,0,0,1-.7.7l-20.75,0a0.71,0.71,0,0,1-.7-0.7v-9.86Zm32.55,9.91a0.69,0.69,0,0,1-.61.66,0.63,0.63,0,0,1-.09,0h-5.41a0.7,0.7,0,0,1-.7-0.7V180.5a0.7,0.7,0,0,1,.7-0.7h5.41a0.61,0.61,0,0,1,.09,0,0.69,0.69,0,0,1,.61.67v9.86Zm10.4,0a0.7,0.7,0,0,1-.7.7h-5.41a0.71,0.71,0,0,1-.7-0.7v-9.86a0.7,0.7,0,0,1,.7-0.7h5.41a0.71,0.71,0,0,1,.7.7v9.86Zm10.1,0a0.7,0.7,0,0,1-.7.7h-5.41a0.7,0.7,0,0,1-.7-0.7v-9.86a0.71,0.71,0,0,1,.7-0.7H467a0.7,0.7,0,0,1,.7.7v9.86Zm3.59,0v-9.86a0.71,0.71,0,0,1,.7-0.7l12.3,0h8.45a0.62,0.62,0,0,1,.13.05,0.68,0.68,0,0,1,.57.65v9.79a0.65,0.65,0,0,1-.7.63h-0.3l-4,.06-1.71,0H472A0.7,0.7,0,0,1,471.28,190.41Z"/><path class="cls-4" d="M180.76,118.18c0.31,0,.77,0,1,0.07,6.36,0,11.53-4.46,11.54-10a9.3,9.3,0,0,0-3.49-7.15,12.45,12.45,0,0,0-7.58-2.88C181.25,93.06,176,89,169.72,89h0a13.71,13.71,0,0,0-8.8,3.13,10.42,10.42,0,0,0-3.69,6.18c-2.1.19-5.81,0.89-8.32,3.33a8.71,8.71,0,0,0-2.6,6.48,14.4,14.4,0,0,0,.25,2.8,1.71,1.71,0,1,0,3.35-.67,10.87,10.87,0,0,1-.19-2.11,5.34,5.34,0,0,1,1.56-4c2.56-2.5,7.42-2.42,7.47-2.42a1.72,1.72,0,0,0,1.75-1.71A6.33,6.33,0,0,1,163.09,95a10.09,10.09,0,0,1,6.61-2h0c5,0,9.14,3.07,9.21,7.14a0.26,0.26,0,0,0,0,.08,1.49,1.49,0,0,0,.18.7,1.71,1.71,0,0,0,1.54.92l0.46-.06a3.54,3.54,0,0,1,.63-0.06,9.06,9.06,0,0,1,5.84,2,5.93,5.93,0,0,1,2.27,4.53c0,3.61-3.65,6.54-8.11,6.54-0.15,0-.39,0-0.58,0l-0.67,0-0.4,0a5.52,5.52,0,0,1-.55.14l-19.2.07h0a1.63,1.63,0,0,0-1.71,1.61,1.67,1.67,0,0,0,1.71,1.66h19.2C179.83,118.27,180.13,118.21,180.76,118.18Z"/><path class="cls-4" d="M461.59,141h0c0.32,0,.63-0.28,1.26-0.31a8.7,8.7,0,0,0,.92-0.06l19.2-.09a1.77,1.77,0,0,0,0-3.54h0l-19.19.06a5,5,0,0,1-.55,0l-0.69,0-0.38,0a2.88,2.88,0,0,0-.58,0c-4.47,0-8.12-2.93-8.12-6.54a5.93,5.93,0,0,1,2.27-4.53,9.07,9.07,0,0,1,5.85-2c0.12,0,.42,0,0.63.05l0.46,0a1.74,1.74,0,0,0,1.44-.77,1.71,1.71,0,0,0,.29-0.95,0.35,0.35,0,0,0,0-.09c0.07-4.07,4.17-7.27,9.21-7.27h0a10.18,10.18,0,0,1,6.6,2.18,6.68,6.68,0,0,1,2.61,5.12,1.65,1.65,0,0,0,.52,1.2,1.76,1.76,0,0,0,1.24.47c0.07,0,4.92-.06,7.45,2.41a5.33,5.33,0,0,1,1.57,4,11,11,0,0,1-.18,2.12,1.71,1.71,0,1,0,3.35.66,14.18,14.18,0,0,0,.25-2.79,8.69,8.69,0,0,0-2.6-6.47c-2.51-2.44-6.21-3.13-8.32-3.31a10.79,10.79,0,0,0-3.69-6.34,13.84,13.84,0,0,0-8.8-3.27h0c-6.27,0-11.48,4.16-12.45,9.39a12.5,12.5,0,0,0-7.6,2.92,9.87,9.87,0,0,0-3.49,7.44C450,136.25,455.23,141,461.59,141Z"/><path class="cls-1" d="M546,109H527a2,2,0,0,0-2,2v4h23v-4A2,2,0,0,0,546,109Z"/><path class="cls-1" d="M425,144H406a2,2,0,0,0-2,2v4h23v-4A2,2,0,0,0,425,144Z"/></svg>