<?xml version="1.0" encoding="utf-8"?>
<!-- Generator: Adobe Illustrator 19.2.1, SVG Export Plug-In . SVG Version: 6.00 Build 0)  -->
<svg version="1.1" id="Layer_1" xmlns="http://www.w3.org/2000/svg" xmlns:xlink="http://www.w3.org/1999/xlink" x="0px" y="0px"
	 viewBox="0 0 100 100" style="enable-background:new 0 0 100 100;" xml:space="preserve">
<style type="text/css">
	.st0{fill:#999999;}
	.st1{fill:#747D89;}
	.st2{fill:#DCDCDC;}
	.st3{fill:#AAAAAA;}
	.st4{fill:#FFFFFF;}
	.st5{fill:$extra-light-gray;}
	.st6{fill:#F28C6E;}
	.st7{fill:#F26649;}
	.st8{fill:#EBEBEB;}
</style>
<g>
	<path class="st0" d="M63.2,80.9L63.2,80.9c-0.4,0.2-0.8,0-1-0.4L28.8,9.7c-0.2-0.4,0-0.8,0.4-1v0c0.4-0.2,0.8,0,1,0.4l33.4,70.8
		C63.8,80.2,63.6,80.7,63.2,80.9z"/>
	<path class="st1" d="M30.7,11.4c0,0,0,0.1,0,0.1l11.8,25.3c0-0.4,0.3-3.5,2.9-4.8c2.9-1.3,5.6,0.9,5.6,0.9s0,0,0,0
		C46.2,20.2,40.2,14.6,30.7,11.4z"/>
	<path class="st2" d="M30.7,11.4C30.7,11.4,30.7,11.4,30.7,11.4c9.5,3.2,15.5,8.8,20.2,21.6c0-0.1,0.2-3.5,2.9-4.8
		c2.8-1.3,5.5,0.9,5.5,0.9s0,0,0-0.1C52.8,13.4,39,10,30.7,11.4z"/>
	<path class="st1" d="M30.7,11.3C30.7,11.3,30.7,11.3,30.7,11.3C39,10,52.8,13.4,59.4,28.9c0-0.6,0.4-3.5,2.9-4.7
		c2.9-1.3,5.6,0.9,5.6,0.9l0,0C61.4,11,44.8,4.9,30.7,11.3z"/>
	<path class="st3" d="M34,40.5c0.1-0.9,0.7-3.4,2.9-4.5c2.8-1.3,5.5,0.9,5.5,0.9s0,0,0-0.1L30.6,11.6C27,20.8,27.4,28.9,34,40.5z"/>
	<path class="st1" d="M30.6,11.4c-14.1,6.6-20.2,23.3-13.6,37.4c0,0,0.2-3.5,2.9-4.8c2.8-1.3,5.5,0.9,5.5,0.9
		C17.7,29.7,24.2,16.8,30.6,11.4z"/>
	<path class="st2" d="M30.6,11.6l-0.1-0.2l0,0c-6.4,5.4-12.9,18.3-5.2,33.4c0,0,0.1-3.5,2.9-4.8c2.9-1.3,5.6,0.9,5.6,0.9
		s0-0.1,0-0.3C27.4,28.9,27,20.8,30.6,11.6z"/>
</g>
<g>
	<g>
		<path class="st4" d="M77.8,61l-7.3-4.5v-13c0-0.7-0.6-1.3-1.3-1.3S68,42.8,68,43.5v11.4l0,0V59l0,0v5.6c0,0.7,0.6,1.3,1.3,1.3
			s1.3-0.6,1.3-1.3v-4.1c1.3,0.7,2.4,1.4,3.4,2v8.9c0,0.7,0.6,1.3,1.3,1.3s1.3-0.6,1.3-1.3V64l0.1,0.1c0.9,0.3,2-0.1,2.3-1
			C79.2,62.3,78.7,61.3,77.8,61z M41.3,42.2c-0.7,0-1.3,0.6-1.3,1.3v13L32.8,61c-0.9,0.3-1.4,1.3-1.1,2.1c0.4,0.8,1.4,1.3,2.3,1
			l0.1-0.1v7.4c0,0.7,0.6,1.3,1.3,1.3c0.7,0,1.3-0.6,1.3-1.3v-8.9c1-0.6,2.1-1.3,3.4-2v4.2c0,0.7,0.6,1.3,1.3,1.3s1.3-0.6,1.3-1.3
			V43.5C42.6,42.8,42,42.2,41.3,42.2z"/>
	</g>
	<path class="st5" d="M71.1,68.3c0.4,0.7,0.2,1.6-0.6,2l-25.7,19c-0.7,0.4-1.6,0.2-2-0.5c-0.4-0.7-0.2-1.6,0.5-2l25.7-19
		C69.8,67.4,70.7,67.6,71.1,68.3L71.1,68.3z"/>
	<path class="st4" d="M39.4,68.3c-0.4,0.7-0.2,1.6,0.6,2l25.7,19c0.7,0.4,1.6,0.2,2-0.5c0.4-0.7,0.2-1.6-0.5-2l-25.7-19
		C40.8,67.4,39.8,67.6,39.4,68.3z"/>
	<path class="st6" d="M42.6,62.5H68l9.3,8.5l0,1.7c0,0.5-0.4,0.8-0.9,0.8H34.2c-0.4,0-0.9-0.4-0.9-0.8l0-1.7L42.6,62.5z M42.6,44.8
		H68v11.8H42.6V44.8z"/>
	<path class="st7" d="M66.3,44.8v11.8H68V44.8L66.3,44.8z M42.6,56.6h1.7V44.8h-1.7V56.6z"/>
	<path class="st4" d="M58.6,49.8c-0.1-0.2-0.2-0.3-0.4-0.3l-1.8-0.3l-0.8-1.6c-0.1-0.2-0.3-0.3-0.4-0.3c-0.2,0-0.4,0.1-0.4,0.3
		l-0.8,1.6l-1.8,0.3c-0.2,0-0.3,0.2-0.4,0.3c-0.1,0.2,0,0.4,0.1,0.5l1.3,1.3L53,53.5c0,0.2,0,0.4,0.2,0.5c0.1,0.1,0.2,0.1,0.3,0.1
		c0.1,0,0.2,0,0.2-0.1l1.5-0.9l1.5,0.9c0.1,0,0.2,0.1,0.2,0.1c0.1,0,0.2,0,0.3-0.1c0.2-0.1,0.2-0.3,0.2-0.5l-0.3-1.8l1.3-1.3
		C58.7,50.2,58.7,50,58.6,49.8z"/>
	<path class="st7" d="M77.3,72.6l0-1.7l0,0H33.3l0,1.7c0,0.4,0.5,0.8,0.9,0.8h42.2C76.8,73.5,77.3,73.1,77.3,72.6z"/>
	<path class="st8" d="M49.2,73.5h-5l3.4,2.5h5L49.2,73.5z"/>
	<path class="st2" d="M62.9,76l3.4-2.5h-5L57.9,76H62.9z"/>
</g>
</svg>
