<svg xmlns="http://www.w3.org/2000/svg" viewBox="41.45 -3540.565 260.887 146.445">
  <defs>
    <style>
      .cls-1 {
        fill: #109b9e;
      }

      .cls-2 {
        fill: #fff;
      }

      .cls-3 {
        fill: #41c0c2;
      }

      .cls-4 {
        fill: #7fcfd0;
      }

      .cls-5, .cls-6, .cls-9 {
        fill: none;
      }

      .cls-5, .cls-6 {
        stroke: #9fdfe0;
        stroke-linecap: round;
      }

      .cls-5 {
        stroke-linejoin: round;
      }

      .cls-5, .cls-9 {
        stroke-miterlimit: 10;
        stroke-width: 3px;
      }

      .cls-6 {
        stroke-width: 5px;
      }

      .cls-7 {
        fill: #f16649;
      }

      .cls-8 {
        fill: #999;
      }

      .cls-9 {
        stroke: #e1e3e7;
      }
    </style>
  </defs>
  <g id="Group_59763" data-name="Group 59763" transform="translate(-458.576 -4549.505)">
    <g id="Group_59764" data-name="Group 59764" transform="translate(517.878 1033.12)">
      <path id="Path_98001" data-name="Path 98001" class="cls-1" d="M77.1-19.916l49.454,71L115.091,82.935,9.465,83.97Z" transform="translate(39.603 21.094)"/>
      <path id="Path_98000" data-name="Path 98000" class="cls-2" d="M23.4,32.253l9.822,10.166L45.908,29.881l10.64,10.5,8.185-11.86L44.271.4Z" transform="translate(71.954 -0.4)"/>
      <path id="Path_98002" data-name="Path 98002" class="cls-3" d="M61.581-12.7l51.47,72.912L101.592,78.276H.1Z" transform="translate(-0.1 42.695)"/>
      <path id="Path_98003" data-name="Path 98003" class="cls-4" d="M83.2-12.27,24.9,76.344H148.491Z" transform="translate(76.592 44.628)"/>
      <path id="Path_98004" data-name="Path 98004" class="cls-2" d="M74.415,39.281l-8.594,10.5-13.5-8.133-9,5.422L33.9,41.653,55.181,9.8,76.461,38.6Z" transform="translate(104.424 22.053)"/>
      <path id="Path_98005" data-name="Path 98005" class="cls-2" d="M10.4,37.842,23.087,49.363,36.592,41.23l12.6,7.316,2.955-7.316L29.634,8.7Z" transform="translate(31.752 19.425)"/>
      <path id="Path_98006" data-name="Path 98006" class="cls-5" d="M111.814,80.838,60.249,9,38.969,40.514.5,98.119" transform="translate(1.137 20.142)"/>
      <path id="Path_98007" data-name="Path 98007" class="cls-5" d="M88.673,46.923,55.524.5,19.754,55.486" transform="translate(61.11 -0.161)"/>
      <path id="Path_98008" data-name="Path 98008" class="cls-5" d="M24.9,96.208,83.012,9.8l62.2,86.408" transform="translate(76.592 22.053)"/>
    </g>
    <path id="Path_98013" data-name="Path 98013" class="cls-6" d="M0,0H255.887" transform="translate(502.526 1152.885)"/>
    <g id="Group_59765" data-name="Group 59765" transform="translate(633.865 1008.94)">
      <path id="Path_98009" data-name="Path 98009" class="cls-7" d="M1.413,14.635c-.238,0-.475-.238-.713-.475,0-.475.238-.95.475-.95V2.28A1.8,1.8,0,0,1,.7,1.329c.238-.475.713-.713.95-.475l16.87,6.178c.238,0,.475.475.475.713s-.238.713-.475.713L1.65,14.635Z" transform="translate(0.963 1.047)"/>
      <path id="Path_98010" data-name="Path 98010" class="cls-8" d="M1.188,26.612a1.122,1.122,0,0,0,1.188-1.188V1.188A1.122,1.122,0,0,0,1.188,0,1.122,1.122,0,0,0,0,1.188v24A1.331,1.331,0,0,0,1.188,26.612Z" transform="translate(0 0)"/>
    </g>
    <path id="Path_98011" data-name="Path 98011" class="cls-9" d="M32.779,22.155H7.037A6.376,6.376,0,0,1,.5,16.027a5.332,5.332,0,0,1,4.9-5.312A5.179,5.179,0,0,1,7.037,7.037a4.611,4.611,0,0,1,4.495-1.226C13.166,2.543,18.069.5,22.155.5A12.015,12.015,0,0,1,32.779,6.629c4.086.409,8.172,2.452,8.172,7.763C40.951,20.112,36.048,22.155,32.779,22.155Z" transform="translate(569.331 1020.082)"/>
    <path id="Path_98012" data-name="Path 98012" class="cls-9" d="M.5,9.232c0-3.339,2.568-4.623,5.136-4.88A8.1,8.1,0,0,1,12.314.5c2.825,0,5.65,1.284,6.677,3.339a2.9,2.9,0,0,1,2.825.77,3.255,3.255,0,0,1,1.027,2.311,3.6,3.6,0,0,1,3.082,3.6,4.008,4.008,0,0,1-4.109,3.852H5.893C3.582,14.111.5,12.827.5,9.232Z" transform="translate(671.974 1042.089)"/>
  </g>
</svg>
