<svg xmlns="http://www.w3.org/2000/svg" viewBox="0 0 34 34">
  <defs>
    <style>
      .cls-1 {
        fill: none;
      }

      .cls-2 {
        fill: #fff;
      }

      .cls-3, .cls-5 {
        fill: #3fc0c2;
      }

      .cls-4, .cls-5 {
        stroke: none;
      }
    </style>
  </defs>
  <g id="Group_65984" data-name="Group 65984" transform="translate(21640 20419)">
    <rect id="Rectangle_8988" data-name="Rectangle 8988" class="cls-1" width="34" height="34" transform="translate(-21640 -20419)"/>
    <g id="Group_32655" data-name="Group 32655" transform="translate(67 4)">
      <g id="Group_32630" data-name="Group 32630" transform="translate(3101 -9461)">
        <g id="Path_79343" data-name="Path 79343" class="cls-2" transform="translate(-24801 -10957)">
          <path class="cls-4" d="M 18.00000190734863 23.3740234375 L 1.000002861022949 23.3740234375 C 0.7932227849960327 23.3740234375 0.6250028014183044 23.22376251220703 0.6250028014183044 23.0390625 L 0.6250028014183044 0.9599234461784363 C 0.6250028014183044 0.775223433971405 0.7932227849960327 0.6249634623527527 1.000002861022949 0.6249634623527527 L 12.70852279663086 0.6240435838699341 C 13.06119060516357 0.9789652824401855 13.61118412017822 1.563923358917236 14.23251247406006 2.2247633934021 C 16.06670570373535 4.175580978393555 17.56786346435547 5.751029014587402 18.38457489013672 6.38278865814209 L 18.37500190734863 23.03870391845703 C 18.37500190734863 23.22376251220703 18.20678329467773 23.3740234375 18.00000190734863 23.3740234375 Z"/>
          <path class="cls-5" d="M 12.44628143310547 1.249063491821289 L 1.250001907348633 1.249944686889648 L 1.250001907348633 22.7490234375 L 17.75016975402832 22.7490234375 L 17.75940322875977 6.681148529052734 C 16.97304153442383 6.017175674438477 15.753173828125 4.754526138305664 13.77717304229736 2.652883529663086 C 13.25704956054688 2.099689483642578 12.78730201721191 1.600076675415039 12.44628143310547 1.249063491821289 M 12.96484279632568 -0.0009765625 C 14.02031326293945 1.012233734130859 18.03631210327148 5.516452789306641 19.00976371765137 6.055973052978516 L 19.00000190734863 23.0390625 C 19.00000190734863 23.56923294067383 18.55228233337402 23.9990234375 18.00000381469727 23.9990234375 L 1.000001907348633 23.9990234375 C 0.4477119445800781 23.9990234375 1.9073486328125e-06 23.56923294067383 1.9073486328125e-06 23.0390625 L 1.9073486328125e-06 0.9599227905273438 C 1.9073486328125e-06 0.4297542572021484 0.4477119445800781 -3.62396240234375e-05 1.000001907348633 -3.62396240234375e-05 L 12.96484279632568 -0.0009765625 Z"/>
        </g>
        <g id="Group_31573" data-name="Group 31573" transform="translate(-24797.404 -10949.129)">
          <path id="Union_1473" data-name="Union 1473" class="cls-3" d="M21681.162,20419.266a.727.727,0,1,1,0-1.453h10.049a.746.746,0,0,1,.762.729.7.7,0,0,1-.762.725Zm0-3.838a.73.73,0,1,1,0-1.459h10.049a.746.746,0,0,1,.762.729.707.707,0,0,1-.762.73Zm0-3.844a.727.727,0,1,1,0-1.453h10.049a.746.746,0,0,1,.762.725.705.705,0,0,1-.762.729Z" transform="translate(-21680.404 -20410.129)"/>
        </g>
        <g id="Path_79342" data-name="Path 79342" class="cls-2" transform="translate(-24789 -10957)">
          <path class="cls-4" d="M 6 6.439722061157227 L 1 6.439722061157227 C 0.7932199835777283 6.439722061157227 0.625 6.267352104187012 0.625 6.055481910705566 L 0.625 1.009241938591003 C 0.625 0.8731248378753662 0.6944335103034973 0.7533110380172729 0.7989166378974915 0.6850347518920898 L 2.680900096893311 2.584421873092651 L 6.192190170288086 6.128181934356689 L 6.319426536560059 6.256593227386475 C 6.253344058990479 6.366395473480225 6.134879112243652 6.439722061157227 6 6.439722061157227 Z"/>
          <path class="cls-5" d="M 1.25 2.028272151947021 L 1.25 5.814722061157227 L 5.001758098602295 5.814722061157227 L 2.968719959259033 3.762881994247437 L 1.25 2.028272151947021 M 1 1.9073486328125e-06 C 4.718549728393555 3.752942085266113 3.012279987335205 2.030881881713867 7 6.055481910705566 C 7 6.612872123718262 6.552279949188232 7.064722061157227 6 7.064722061157227 L 1 7.064722061157227 C 0.4477200508117676 7.064722061157227 0 6.612872123718262 0 6.055481910705566 L 0 1.009242057800293 C 0 0.4518518447875977 0.4477200508117676 1.9073486328125e-06 1 1.9073486328125e-06 Z"/>
        </g>
      </g>
    </g>
  </g>
</svg>
