<svg xmlns="http://www.w3.org/2000/svg" viewBox="-1642.002 -15606.998 25.711 19.295">
  <defs>
    <style>
      .cls-1 {
        fill: #999;
      }
    </style>
  </defs>
  <path id="Union_1014" data-name="Union 1014" class="cls-1" d="M2020.517,15924.3s1.99-9.24,2.3-10.73a2.3,2.3,0,0,1,2.574-1.879l17.257-.044a2.031,2.031,0,0,1,2.022,2.259l-2.114,8.716a2.2,2.2,0,0,1-2.122,1.679Zm-1.519-2.59v-14.575a2.135,2.135,0,0,1,2.134-2.13h4.992a3.19,3.19,0,0,1,2.7,1.362c.032.032.056.064.076.088a.4.4,0,0,0,.128.116c.228.244.388.424.484.527.16.18.216.24.24.24l.04.04c.24.279.48.279,1.367.279h8.9a2.3,2.3,0,0,1,2.3,2.294v.7l-17.648.048a2.418,2.418,0,0,0-2.734,2c-.308,1.446-2.082,9.707-2.286,10.646A2.277,2.277,0,0,1,2019,15921.707Z" transform="translate(-3661 -31512)"/>
</svg>
