<svg xmlns="http://www.w3.org/2000/svg" viewBox="-1642 -15566 23.348 19">
  <defs>
    <style>
      .cls-1 {
        fill: #d0d0d0;
      }
    </style>
  </defs>
  <path id="Path_8245" data-name="Path 8245" class="cls-1" d="M21.013,19H2.295A2.293,2.293,0,0,1,0,16.706V2.134A2.148,2.148,0,0,1,2.134,0H7.125a3.168,3.168,0,0,1,2.7,1.369c.081.081.121.161.2.2a7.1,7.1,0,0,0,.725.765l.04.04c.242.282.483.282,1.369.282h8.9a2.293,2.293,0,0,1,2.295,2.295V16.746A2.376,2.376,0,0,1,21.013,19Z" transform="translate(-1642 -15566)"/>
</svg>
