<svg xmlns="http://www.w3.org/2000/svg" viewBox="10371.999 -8942.934 26.348 30.936">
  <defs>
    <style>
      .cls-1 {
        fill: #fff;
      }
    </style>
  </defs>
  <g id="notification_bell" transform="translate(10359.4 -8948.934)">
    <path id="Union_1607" data-name="Union 1607" class="cls-1" d="M-10335.263,8898.439h-6.423a2.712,2.712,0,0,1-2.716-2.715,2.72,2.72,0,0,1,1.194-2.243c.906-.579,2.389-2.57,2.389-9.084,0-6.08,3.691-8.541,6.407-9.518a4.361,4.361,0,0,1-.073-.69,3.244,3.244,0,0,1,3.259-3.256,3.244,3.244,0,0,1,3.258,3.256,4.483,4.483,0,0,1-.075.69c2.715,1.013,6.407,3.438,6.407,9.518,0,6.478,1.484,8.469,2.388,9.084a2.712,2.712,0,0,1,1.194,2.243,2.734,2.734,0,0,1-2.713,2.715h-5.7a4.56,4.56,0,0,1-4.4,3.43A4.556,4.556,0,0,1-10335.263,8898.439Zm4.4,1.981a3.067,3.067,0,0,0,2.788-1.81h-5.573A3.063,3.063,0,0,0-10330.865,8900.421Zm-8.5-15.987c0,5.465-1.013,8.9-3,10.278a1.218,1.218,0,0,0-.579,1.049,1.283,1.283,0,0,0,1.268,1.267h20.919a1.276,1.276,0,0,0,1.268-1.23,1.312,1.312,0,0,0-.579-1.049,4.055,4.055,0,0,1-.979-.942h-15.6a.726.726,0,0,1-.725-.722.727.727,0,0,1,.725-.725h14.8a20.383,20.383,0,0,1-1.194-7.892c0-5.5-3.4-7.6-6.226-8.4h-.036a6.183,6.183,0,0,0-1.882-.288,7,7,0,0,0-1.919.252h-.036C-10335.967,8876.832-10339.37,8878.933-10339.37,8884.434Zm9.917-9.953a.806.806,0,0,0,.036-.291,1.793,1.793,0,0,0-1.809-1.81,1.846,1.846,0,0,0-1.847,1.81c0,.109.037.182.037.291a9.408,9.408,0,0,1,1.84-.184A8.115,8.115,0,0,1-10329.453,8874.48Z" transform="translate(10357 -8864.934)"/>
  </g>
</svg>
