<svg id="Layer_1" data-name="Layer 1" xmlns="http://www.w3.org/2000/svg" viewBox="0 0 300 300"><defs><style>.cls-1{fill:#aaa;}</style></defs><title>Infog</title><path class="cls-1" d="M242.19,100.64a5.06,5.06,0,0,0-3.39-1.93L102.32,81.51a5.1,5.1,0,0,0-5.69,4.42l-11.39,90.4a5.1,5.1,0,0,0,4.42,5.7l136.48,17.2a5.12,5.12,0,0,0,.64,0,5.11,5.11,0,0,0,5-4.46l11.39-90.4A5.06,5.06,0,0,0,242.19,100.64Zm-14.85,93.6a0.57,0.57,0,0,1-.63.49L90.22,177.53a0.58,0.58,0,0,1-.49-0.63l11.39-90.41a0.56,0.56,0,0,1,.22-0.37,0.57,0.57,0,0,1,.35-0.12h0.07l136.48,17.2a0.57,0.57,0,0,1,.49.63Z"/><path class="cls-1" d="M113,188.71l-44,2.88a0.56,0.56,0,0,1-.6-0.53l-6-90.92a0.58,0.58,0,0,1,.54-0.6l27.07-2A2.26,2.26,0,0,0,89.72,93L62.67,95a5.1,5.1,0,0,0-4.75,5.42l6,90.93a5.11,5.11,0,0,0,5.08,4.76h0.33l44-2.88A2.27,2.27,0,0,0,113,188.71Z"/><path class="cls-1" d="M167.94,115.75a2.35,2.35,0,0,0,2.64-2,3.51,3.51,0,0,1,1.7-2.46,6.19,6.19,0,0,1,7.53,1,3.52,3.52,0,0,1,1,2.68,2.43,2.43,0,0,0,0,.26,2.36,2.36,0,0,0,2.29,2.6h0.23a2,2,0,0,1,.28,0,5.14,5.14,0,0,1,3.09,1.54,3,3,0,0,1,.85,2.34c-0.24,1.79-2.44,3-4.82,2.73l-0.23-.05-0.3-.07a2.25,2.25,0,0,0-.39-0.05h-0.56l-8.05-1.06a2.35,2.35,0,1,0-.61,4.66l8.05,1.06c0.21,0,.43,0,0.75,0a6.7,6.7,0,0,0,.74.15c5,0.66,9.5-2.38,10.08-6.78a7.65,7.65,0,0,0-2-6.13,9.66,9.66,0,0,0-4.71-2.78,8.45,8.45,0,0,0-2.16-4.3,10.88,10.88,0,0,0-13.53-1.78,8.23,8.23,0,0,0-3.84,5.81A2.35,2.35,0,0,0,167.94,115.75Z"/><path class="cls-1" d="M216.23,181.2L214.3,181l-18.63-48a2.35,2.35,0,0,0-4.09-.54l-13.89,19-18.11-46.64a2.35,2.35,0,0,0-4.09-.54l-45.29,61.88a2.28,2.28,0,0,0-.4,1.1l-5.48-.72a2.35,2.35,0,1,0-.61,4.66l111.89,14.71A2.35,2.35,0,0,0,216.23,181.2Zm-59.47-70.73,10.72,27.62-5.21,5.3-5.71-15.5a2.21,2.21,0,0,0-.18-0.29,1.57,1.57,0,0,0-.63-0.74,2.22,2.22,0,0,0-.26-0.22l-0.08,0a2.33,2.33,0,0,0-.44-0.14,2.43,2.43,0,0,0-.49-0.12h-0.08a2.21,2.21,0,0,0-.85.13h0l-0.06,0a2.25,2.25,0,0,0-.67.41,2.27,2.27,0,0,0-.27.32,2.37,2.37,0,0,0-.24.29l-7,12.65-3.81-8.87Zm-42,57.39,23.5-32.11,4.61,10.73a917.72,917.72,0,0,1,.38.58,2.3,2.3,0,0,0,.54.46s0.06,0.25.1,0.28,0,0.21,0,.21h0c0.3,0,.62,0,0.94.07,0.09,0,.17-0.12.26-0.12a2.37,2.37,0,0,0,.71-0.17l0.12,0a17.1,17.1,0,0,1,.64-0.46,2.28,2.28,0,0,0,.3-0.36,2.21,2.21,0,0,0,.19-0.22l6.84-12.35,5.21,14.17,0,0a2.38,2.38,0,0,0,.17.29,2.34,2.34,0,0,0,.32.47l0,0.06a2.38,2.38,0,0,0,.55.4,2.32,2.32,0,0,0,.84.24h0.24a2.33,2.33,0,0,0,.67-0.09c0.05,0,.11,0,0.16,0l0.09-.06a5.54,5.54,0,0,0,.73-0.47l0,0,6.33-6.44,5.26,13.54a2.28,2.28,0,0,0,.6,1.55l7.29,18.77Zm65-11.25,13.13-17.93,9.22,23.75-4.17,4.24L193,153.39a2.23,2.23,0,0,0-.18-0.29,1.57,1.57,0,0,0-.63-0.73,2.19,2.19,0,0,0-.26-0.22l-0.08,0a2.33,2.33,0,0,0-.51-0.16,2.55,2.55,0,0,0-.4-0.1l-0.18,0a2.22,2.22,0,0,0-.76.11h0l-0.08,0a2.22,2.22,0,0,0-.66.41,2.25,2.25,0,0,0-.26.32,2.34,2.34,0,0,0-.25.3l-6.12,11Zm8.1,20.86-3-7.66,5.53-10,4.39,11.94,0,0a8,8,0,0,0,.49.76l0,0.06a2.37,2.37,0,0,0,.55.4,2.32,2.32,0,0,0,.84.24h0.24a2.31,2.31,0,0,0,.67-0.09c0.05,0,.11,0,0.16,0l0.09-.06a2.32,2.32,0,0,0,.54-0.33c0.06-.05.14-0.09,0.19-0.14l0,0,5.29-5.37,5.06,13Z"/></svg>