<?xml version="1.0" encoding="utf-8"?>
<!-- Generator: Adobe Illustrator 20.1.0, SVG Export Plug-In . SVG Version: 6.00 Build 0)  -->
<svg version="1.1" id="Layer_1" xmlns="http://www.w3.org/2000/svg" xmlns:xlink="http://www.w3.org/1999/xlink" x="0px" y="0px"
	 viewBox="0 0 125.3 133.8" style="enable-background:new 0 0 125.3 133.8;" xml:space="preserve">
<style type="text/css">
	.st0{fill:#F28C6E;}
	.st1{fill:#FFCC08;}
	.st2{fill:#B1B3B6;}
	.st3{fill:#3FC0C2;}
</style>
<g>
	<path class="st0" d="M66.7,41H56.1c-0.8,0-1.3,0.6-1.3,1.3V58c0,0.8,0.6,1.3,1.3,1.3h10.6c0.8,0,1.3-0.6,1.3-1.3V42.4
		C68.1,41.8,67.5,41,66.7,41z"/>
	<polygon class="st0" points="58.4,60.5 57.2,63.4 65.4,63.4 64.2,60.5 	"/>
</g>
<g>
	<g>
		<g>
			<path class="st1" d="M28.9,20c-2.9-0.8-6.1-1.2-9.6-1.2c-3.3,0-6.5,0.4-9.6,1.2l-0.2,0.2c0,0.2,0.2,0.2,0.3,0.2
				c2.9,0.8,6.1,1.2,9.6,1.2c3.3,0,6.5-0.4,9.6-1.2c0.2,0,0.3-0.2,0.3-0.2C29,20.2,28.9,20,28.9,20z"/>
			<path class="st1" d="M52,20c-2.9-0.8-6.1-1.2-9.6-1.2c-3.3,0-6.5,0.4-9.6,1.2c-0.3,0-0.3,0.2-0.3,0.2c0,0.2,0.2,0.2,0.3,0.2
				c2.9,0.8,6.1,1.2,9.6,1.2c3.3,0,6.5-0.4,9.6-1.2c0.2,0,0.3-0.2,0.3-0.2C52.1,20.2,52.1,20,52,20z"/>
			<path class="st1" d="M30.8,17.6c-0.8,0-1.4,1.4-1.4,3.2h2.8C32.1,19,31.5,17.6,30.8,17.6z"/>
			<path class="st1" d="M91.7,20c-2.9-0.8-6.1-1.2-9.6-1.2c-3.3,0-6.5,0.4-9.6,1.2c-0.2,0-0.3,0.2-0.3,0.2c0,0.2,0.2,0.2,0.3,0.2
				c2.9,0.8,6.1,1.2,9.6,1.2c3.3,0,6.5-0.4,9.6-1.2c0.2,0,0.3-0.2,0.3-0.2C91.7,20.2,91.7,20,91.7,20z"/>
			<path class="st1" d="M114.8,20c-2.9-0.8-6.1-1.2-9.6-1.2c-3.3,0-6.5,0.4-9.6,1.2c-0.2,0-0.3,0.2-0.3,0.2c0,0.2,0.2,0.2,0.3,0.2
				c2.9,0.8,6.1,1.2,9.6,1.2c3.3,0,6.5-0.4,9.6-1.2c0.2,0,0.3-0.2,0.3-0.2C114.9,20.2,114.9,20,114.8,20z"/>
			<path class="st1" d="M93.6,17.6c-0.8,0-1.3,1.4-1.3,3.2h2.8C94.9,19,94.4,17.6,93.6,17.6z"/>
		</g>
		<path class="st2" d="M98.1,31.3c-0.3-1.6-1.3-2.5-2.9-2.8v-5.7h-2.6h-0.8v5.7h0.8c-3.9,0-5.5,0-7.7,0h-5.3c-1.9,0-3.7-0.9-5.7-2
			c-2.9-1.4-6.5-3.3-11.7-3.3s-8.8,1.8-11.7,3.3c-2,1.2-3.9,2-5.7,2h-5.3c-2,0-3.8,0-7.7,0h0.8v-5.7h-0.9H29v5.7
			c-1.6,0.3-2.8,1.3-2.9,2.8C26,33,26.7,35.8,28,37.4c0.8,0.8,1.4,1.2,2.5,1.2c0.9,0,1.6-0.4,2.3-1.2c1.4-1.6,1.9-3.9,1.9-5.5h11.8
			c-1.2,0.9-2,2.2-2.5,3.8c-0.2,0.6-0.4,3.5-1,6.7c-0.6,3.9-1.3,8.5-1.6,9.9c-0.3,1.2-0.2,2,0.4,2.6c0.3,0.3,0.8,0.4,1.2,0.3
			c0.8-0.3,1.2-0.9,1.4-2c0.3-0.9,0.8-3.3,1.4-6.1c1.2-4.4,2.3-9.6,2.5-10.6c0.3-1.2,0.9-1.6,2.2-1.6h3.9c0.3,0.3,2.2,3.7,4.5,3.7
			c0.3,0,0.5,0,0.6,0v12.3c0,0.8,0.6,1.3,1.3,1.3H62c0.8,0,1.3-0.6,1.3-1.3c0,0,0-10.8,0-12.2c1.4,0,2.1-0.2,4.5-2.6
			c0.3-0.3,0.4-0.6,0.8-0.9h4.1c1.3,0,1.9,0.4,2.2,1.6c0.3,1,1.6,6.5,2.6,11.1l1.3,5.5c0.3,1,0.8,1.8,1.4,1.9c0.2,0,0.3,0,0.3,0
			c0.3,0,0.8-0.2,0.9-0.4c0.6-0.6,0.8-1.6,0.4-2.6c-0.3-1.4-1-6-1.6-9.9c-0.4-3.2-0.9-6.1-1.2-6.7c-0.4-1.6-1.2-2.9-2.3-3.8h12
			c0,1.6,0.6,4.1,1.9,5.5c0.8,0.8,1.4,1.2,2.3,1.2s1.6-0.4,2.5-1.2C97.7,35.8,98.3,33,98.1,31.3z"/>
	</g>
	<rect x="37.2" y="28.5" class="st1" width="1.2" height="3.3"/>
	<rect x="39.7" y="28.5" class="st1" width="1.2" height="3.3"/>
	<rect x="83.6" y="28.5" class="st1" width="1.2" height="3.3"/>
	<rect x="86" y="28.5" class="st1" width="1.2" height="3.3"/>
</g>
<g>
	<polygon class="st3" points="65.6,94.3 62.7,94.3 62.3,70.3 60.6,70.3 61,94.3 58,94.3 61.9,100.9 	"/>
</g>
</svg>
