<svg id="Layer_1" data-name="Layer 1" xmlns="http://www.w3.org/2000/svg" viewBox="0 0 300 300"><defs><style>.cls-1{fill:#3fc0c2;}.cls-2{fill:#cadace;}.cls-3{fill:#f28c6e;}.cls-4{fill:#b1b3b6;}.cls-5{fill:#ffcc08;}.cls-6{fill:#f6cd24;}</style></defs><title>Infog</title><path class="cls-1" d="M237.73,185.1c0-13.26-42-21.27-82.71-21.27s-82.71,7.88-82.71,21.27c0,11.51,31.28,18.64,62.32,20.65l0.13-2.5c-29.16-1.88-60.06-8.76-60.06-18.14,0-9,32.28-18.77,80.21-18.77s80.21,9.64,80.21,18.77c0,7.88-25.15,16.77-67.32,18.39l-0.13-6.26L155,205l13.14,7.13L168,206C202.95,204.63,237.73,197.12,237.73,185.1Z"/><rect class="cls-2" x="169.5" y="166.6" width="1.25" height="1.88" transform="translate(-67.75 146.88) rotate(-39.6)"/><rect class="cls-2" x="188.59" y="188.76" width="1.25" height="3.88" transform="translate(-78.14 164.41) rotate(-39.61)"/><rect class="cls-2" x="193.53" y="194.6" width="1.25" height="3.88" transform="translate(-80.73 168.9) rotate(-39.61)"/><rect class="cls-2" x="178.82" y="176.81" width="1.25" height="3.88" transform="translate(-72.76 155.44) rotate(-39.61)"/><rect class="cls-2" x="173.8" y="170.87" width="1.25" height="3.88" transform="translate(-70.13 150.87) rotate(-39.61)"/><rect class="cls-2" x="183.68" y="182.73" width="1.25" height="3.88" transform="translate(-75.42 159.88) rotate(-39.6)"/><rect class="cls-2" x="197.84" y="200.86" width="1.25" height="1.88" transform="translate(-83.09 172.82) rotate(-39.6)"/><rect class="cls-2" x="174.52" y="157.25" width="1.25" height="1.88" transform="translate(-4.91 310.78) rotate(-82.37)"/><rect class="cls-2" x="188.37" y="158.19" width="1.25" height="3.75" transform="translate(5.25 326.13) rotate(-82.37)"/><rect class="cls-2" x="180.94" y="157.29" width="1.25" height="3.75" transform="translate(-0.3 317.98) rotate(-82.37)"/><rect class="cls-2" x="210.63" y="161.27" width="1.25" height="3.75" transform="translate(21.46 350.82) rotate(-82.36)"/><rect class="cls-2" x="218.05" y="162.17" width="1.25" height="3.75" transform="translate(27.04 359) rotate(-82.37)"/><rect class="cls-2" x="203.2" y="160.24" width="1.25" height="3.75" transform="translate(16.08 342.61) rotate(-82.37)"/><rect class="cls-2" x="195.79" y="159.21" width="1.25" height="3.75" transform="translate(10.66 334.37) rotate(-82.37)"/><rect class="cls-2" x="224.49" y="163.96" width="1.25" height="1.88" transform="translate(31.79 366.12) rotate(-82.37)"/><path class="cls-3" d="M172.29,148.32l-26.15-14.64a2.46,2.46,0,0,0-3.38,1l-10,18a2.46,2.46,0,0,0,1,3.38l26.15,14.64a2.46,2.46,0,0,0,3.38-1l10-18A2.46,2.46,0,0,0,172.29,148.32Z"/><polygon class="cls-3" points="172.91 156.7 167.41 166.71 171.04 171.22 178.67 157.45 172.91 156.7"/><path class="cls-4" d="M221.84,111.15h0c-0.38-2.88-2.38-4.88-5.63-5.38v-0.13h0V95H209.7v10.76H186.3c-3.5,0-7-1.75-11-3.75-5.51-2.75-12.51-6.26-22.27-6.26s-16.64,3.5-22.27,6.26c-4,2-7.51,3.75-11,3.75H96.21V95H89.7V105.9c-3.25.5-5.26,2.38-5.63,5.38-0.25,3.5,1,8.76,3.63,11.64a6.82,6.82,0,0,0,4.63,2.25,6.36,6.36,0,0,0,4.5-2.13c2.63-2.88,3.63-7.76,3.75-10.64h23.27a12.2,12.2,0,0,0-4.5,7.13c-0.38,1.38-1.13,6.76-2.13,12.89-1.13,7.63-2.5,16.39-3.13,19-0.5,2.13-.25,4.13.88,5.13a2.38,2.38,0,0,0,2.38.63c1.25-.38,2.38-1.75,2.88-3.75,0.38-1.75,1.5-6.38,2.88-11.76,2-8.51,4.5-18.39,4.88-20.27,0.5-2.13,1.75-3,4.13-3h7.51A18.72,18.72,0,0,1,141,120c1.75,2.13,3.63,4.38,6.63,4.63,0.75,0,1.38.13,2,.13v27.15a2.64,2.64,0,0,0,2.63,2.63h1.88a2.64,2.64,0,0,0,2.63-2.63v-27a12.87,12.87,0,0,0,2.13-.13c3-.25,4.75-2.38,6.63-4.63a18.72,18.72,0,0,1,1.38-1.63h7.76c2.5,0,3.63.88,4.13,3,0.5,1.88,3,12.64,5.13,21.27l2.63,10.64c0.5,2,1.5,3.38,2.88,3.75a5.42,5.42,0,0,1,.63.13,2.47,2.47,0,0,0,1.75-.75c1.13-1.13,1.38-3,.88-5.13-0.63-2.75-2-11.39-3.13-19-1-6.26-1.75-11.64-2.13-12.89a12.2,12.2,0,0,0-4.5-7.13H205.7c0,3,1,7.76,3.75,10.64a5.94,5.94,0,0,0,4.5,2.13,5.68,5.68,0,0,0,4.5-2.25C220.84,119.91,222.09,114.66,221.84,111.15Z"/><path class="cls-5" d="M89.33,89.63A76.23,76.23,0,0,0,71.06,87.5a76.23,76.23,0,0,0-18.27,2.13,0.27,0.27,0,1,0,0,.5,77,77,0,0,0,18.27,2.13,76.23,76.23,0,0,0,18.27-2.13A0.27,0.27,0,1,0,89.33,89.63Z"/><path class="cls-5" d="M133.62,89.63a80.05,80.05,0,0,0-36.66,0,0.27,0.27,0,1,0,0,.5,77,77,0,0,0,18.27,2.13,76.23,76.23,0,0,0,18.27-2.13,0.31,0.31,0,0,0,.38-0.25C134,89.75,133.87,89.63,133.62,89.63Z"/><path class="cls-5" d="M93.21,85c-1.38,0-2.63,2.75-2.63,6.13h5.26C95.71,87.75,94.58,85,93.21,85Z"/><path class="cls-5" d="M209.33,89.63a79.51,79.51,0,0,0-36.54,0,0.27,0.27,0,1,0,0,.5,77,77,0,0,0,18.27,2.13,76.23,76.23,0,0,0,18.27-2.13A0.27,0.27,0,1,0,209.33,89.63Z"/><path class="cls-5" d="M253.62,89.63a77,77,0,0,0-18.27-2.13,76.23,76.23,0,0,0-18.27,2.13,0.27,0.27,0,1,0,0,.5,77,77,0,0,0,18.27,2.13,76.23,76.23,0,0,0,18.27-2.13,0.31,0.31,0,0,0,.38-0.25A0.66,0.66,0,0,0,253.62,89.63Z"/><path class="cls-5" d="M213.08,85c-1.38,0-2.63,2.75-2.63,6.13h5.26C215.71,87.75,214.58,85,213.08,85Z"/><rect class="cls-6" x="105.47" y="105.77" width="2.38" height="6.51"/><rect class="cls-6" x="110.35" y="105.77" width="2.38" height="6.51"/><rect class="cls-6" x="193.81" y="105.77" width="2.38" height="6.51"/><rect class="cls-6" x="198.69" y="105.77" width="2.38" height="6.51"/></svg>