<svg id="Layer_1" data-name="Layer 1" xmlns="http://www.w3.org/2000/svg" viewBox="0 0 300 300"><defs><style>.cls-1{fill:#777;}</style></defs><title>Infog</title><path class="cls-1" d="M151.51,248.17L66.53,199V100.76l85-48.94,85,48.94V199ZM70.39,196.8l81.12,46.9,81.12-46.9V103L151.51,56.29,70.39,103v93.8Z"/><path class="cls-1" d="M215.27,209.73a1.72,1.72,0,0,1-1.77-1.57l-3.74-23.22c-0.79-3.94-2.76-7.08-6.1-8.66L202.48,179a2.37,2.37,0,0,1-1,1,1.68,1.68,0,0,1-1.38,0l-25.19-9.64a1.91,1.91,0,0,1-1.18-2.36l1.18-2.76-3.35-1.38a2,2,0,0,1-1-.79l-3.54-6.1a27.24,27.24,0,0,1-9.64,6.89,0.39,0.39,0,0,0-.39.2,37,37,0,0,1-11.41,0,0.39,0.39,0,0,1-.39-0.2,32.23,32.23,0,0,1-9.64-6.89l-3.35,6.3a1.31,1.31,0,0,1-1,.79l-3.54,1.38,1.18,2.76a1.83,1.83,0,0,1-1.18,2.36l-25,9.45a1.68,1.68,0,0,1-1.38,0,2.37,2.37,0,0,1-1-1l-1.18-2.76a10.73,10.73,0,0,0-6.1,8.66l-3.74,24.4a2.07,2.07,0,0,1-2,1.57,2.12,2.12,0,0,1-1.57-2l3.94-24.4a15.25,15.25,0,0,1,9.64-12l0.39-.2h0l29.72-11.22,3.94-6.69a39.8,39.8,0,0,1-5.9-10.82l-0.39-1.18-1.57-1a2.37,2.37,0,0,1-1-1,46.6,46.6,0,0,1-2.76-15.15,2.43,2.43,0,0,1,.79-1.57l1.18-.79-1.57-1.57a8.23,8.23,0,0,1-1.57-6.69l0.2-4.33c-0.2-1.57-1.18-2.16-3.35-2.76-1.57-.39-3.54-1-4.33-3l-0.2-.59c-0.59-1.57-1.18-3-.39-4.53,0.59-1.18,1.57-1.77,3.15-2.36a105.55,105.55,0,0,0,12.6-5.51c2.56-1.38,4.72-2.36,7.48-3.54a40.75,40.75,0,0,1,31.88,0c2.36,1.18,4.72,2.16,7.48,3.54,3.94,2,7.87,4.13,12.6,5.51a5.81,5.81,0,0,1,3.15,2.36c0.79,1.57.2,3.15-.39,4.53l-0.2.39c-0.79,2-2.76,2.36-4.33,3-2.16.59-3.15,1-3.35,2.76l0.2,4.33a7.71,7.71,0,0,1-1.57,6.69,6,6,0,0,1-1.57,1.57l1.18,0.79a1.79,1.79,0,0,1,.79,1.57,47.55,47.55,0,0,1-2.76,15.15,1.62,1.62,0,0,1-1,1l-1.38,1-0.39,1.18a32.79,32.79,0,0,1-5.9,10.82l3.94,6.69,28.93,11.41h0l0.39,0.2c5.12,1.77,8.66,6.3,9.64,12l3.74,23a2,2,0,0,1-1.57,2.16h0ZM102.9,175.09l0.59,1.38,21.84-8.27-0.59-1.38Zm75.18-7.28,21.84,8.27,0.59-1.38-22-8.07Zm-31.49-7.08a27.55,27.55,0,0,0,9.84,0c7.08-3,13.78-11.81,15.74-18.3l0.59-1.77a1.52,1.52,0,0,1,1-1.18l1.77-1a39.29,39.29,0,0,0,2.36-12l-1.77,1-1.38,5.12a4.12,4.12,0,0,1-.79,1.18l-1.57,1.18a1.86,1.86,0,0,1-2-3.15l1.18-.79,1-3.94a69.53,69.53,0,0,1-20.47,2.76,69.53,69.53,0,0,1-20.47-2.76l0.79,4.13,1.38,1.18a1.81,1.81,0,0,1-2.36,2.76l-1.77-1.57a1.19,1.19,0,0,1-.59-1.18l-1.18-5.51-1.77-.79h-0.2c0,4.13,1,7.87,2.36,12.2l1.77,1a2,2,0,0,1,1,1.18l0.59,1.77C132.81,148.72,139.7,157.77,146.59,160.72Zm-22.44-43.49a3.16,3.16,0,0,0,1,2.16c3.15,4.13,13.78,6.89,26.57,6.89s23.42-2.76,26.57-6.89a6.78,6.78,0,0,0,1-2.16,0.69,0.69,0,0,0-.39.2,166.47,166.47,0,0,1-54.12,0A0.56,0.56,0,0,1,124.15,117.23Zm0.59-3.35h0.39a159.34,159.34,0,0,0,52.94,0h0.79v-3.35c0.39-4.72,3.94-5.71,6.1-6.1a9.15,9.15,0,0,0,1.77-.59l0.2-.59a18.11,18.11,0,0,0,.59-1.77h0a4.39,4.39,0,0,0-1-.59,115.57,115.57,0,0,1-13.19-5.71,57.55,57.55,0,0,0-7.08-3.35,37.4,37.4,0,0,0-29.13,0c-2.36,1-4.53,2.16-7.08,3.35-4.13,2-8.07,4.13-13.19,5.71a1.45,1.45,0,0,0-1,.59,9.27,9.27,0,0,0,.59,1.77l0.2,0.59a9.15,9.15,0,0,0,1.77.59c2.16,0.59,5.71,1.57,6.1,6.1v0.2l0.2,3.15h0Zm19.79,112.41h0a1.92,1.92,0,0,1-1.77-2c0.2-1.57.87-18.34,1.27-24.24,0.79-12,1.18-19.88,1.57-21.25v-0.2c-2-2.16-2.56-3.15-2.76-4.13-0.2-1.18-.2-5.71,1.57-7.68a3.16,3.16,0,0,1,2.16-1H147a26.47,26.47,0,0,0,9.64,0H157a2.51,2.51,0,0,1,2.16,1c1.77,1.77,1.77,6.49,1.57,7.68-0.2,1-.79,1.77-2.76,4.13v0.2c0.39,1.38.79,9.45,1.57,21.45,0.39,5.9,1.54,22.44,1.73,24a1.78,1.78,0,1,1-3.54.39c-0.2-1.57-1.34-17.91-1.73-24.21-0.39-7.68-1.18-19.68-1.38-20.86a2.56,2.56,0,0,1,.59-3l0.39-.39a21.49,21.49,0,0,0,1.77-2.16,14.4,14.4,0,0,0-.59-4.33,26.47,26.47,0,0,1-9.64,0,13.53,13.53,0,0,0-.59,4.33c0.2,0.39,1,1.18,1.77,2.16l0.39,0.39a3.27,3.27,0,0,1,.59,2.76c-0.2,1.38-1,12.6-1.38,20.86-0.39,6.3-1.27,22.66-1.27,24.44C146.11,225.5,145.52,226.29,144.54,226.29ZM157,173.71h0Zm-10.82,0,5.51-58.65a6.28,6.28,0,0,1-5.51-3.15l-5.12-1.18a2.08,2.08,0,0,1-1.38-1.18l-1.57-3.94a1.18,1.18,0,0,1,.39-1.57,1.79,1.79,0,0,1,1.57-.79l6.49,0.79a6.05,6.05,0,0,1,4.92-2.16,6.71,6.71,0,0,1,4.92,2.16l6.49-.79a1.6,1.6,0,0,1,1.57.79,1.74,1.74,0,0,1,.39,1.57l-1.57,3.94a2.08,2.08,0,0,1-1.38,1.18L157,111.92A6,6,0,0,1,151.71,115.07Zm-8.86-7.68,4.72,1.18a2.65,2.65,0,0,1,1.38,1.18,3,3,0,0,0,2.76,1.77,3.33,3.33,0,0,0,2.76-1.77,2.08,2.08,0,0,1,1.38-1.18l4.72-1.18v-0.2l-4.72.59a1.35,1.35,0,0,1-1.57-1,3.07,3.07,0,0,0-2.56-1.57,2.84,2.84,0,0,0-2.56,1.57,2.36,2.36,0,0,1-1.57,1l-4.72-.39h0Z"/></svg>