<svg id="Layer_1" data-name="Layer 1" xmlns="http://www.w3.org/2000/svg" viewBox="0 0 300 300"><defs><style>.cls-1{fill:#e3e5e5;}.cls-2{fill:#e1574c;}.cls-3{fill:#edc55d;}.cls-4{fill:#3cb19c;}.cls-5{fill:#fff;}.cls-6{fill:#929497;}.cls-7{fill:#c9d9cc;}.cls-8{fill:#46babe;}.cls-9{fill:#b9dee0;}.cls-10{fill:#ed6a4c;stroke:#f28c6e;stroke-miterlimit:10;opacity:0.7;}</style></defs><title>Infog</title><path class="cls-1" d="M245.54,54H41.89C38.09,54,35,57.39,35,61.56V226H251v-1h1V61.56C252,57.25,249.22,54,245.54,54ZM250,77H37V61.56C37,58.89,38.87,56,41.89,56H245.54c2.93,0,4.46,2.8,4.46,5.56V77Z"/><path class="cls-2" d="M48.39,62.31a3.85,3.85,0,1,1-3.85,3.85A3.85,3.85,0,0,1,48.39,62.31Z"/><path class="cls-3" d="M59.39,62.31a3.85,3.85,0,1,1-3.85,3.85A3.85,3.85,0,0,1,59.39,62.31Z"/><path class="cls-4" d="M70.39,62.31a3.85,3.85,0,1,1-3.85,3.85A3.85,3.85,0,0,1,70.39,62.31Z"/><rect class="cls-5" x="47" y="138" width="193" height="74"/><rect class="cls-6" x="54" y="121" width="29" height="7"/><polygon class="cls-5" points="47 111 75.81 111 79.05 114.58 82.29 111 108 111 108 90 47 90 47 111"/><rect class="cls-5" x="113" y="90" width="60" height="21"/><rect class="cls-5" x="178" y="90" width="62" height="21"/><path class="cls-7" d="M147.06,180.33H130.84a3.91,3.91,0,0,1-3.91-3.91v-8.66H129v8.66a1.8,1.8,0,0,0,1.8,1.8h16.22a1.8,1.8,0,0,0,1.8-1.8v-8.66H151v8.66A3.91,3.91,0,0,1,147.06,180.33Z"/><rect class="cls-7" x="137.9" y="158.27" width="2.11" height="14.67"/><polygon class="cls-7" points="145.43 163.52 144.27 164.6 138.96 158.88 133.64 164.6 132.48 163.52 138.96 156.56 145.43 163.52"/><path class="cls-8" d="M219.45,192c-0.82-11.6-6.19-20.82-15.5-26.66-11.47-7.18-27.46-8.1-41.73-2.39l-0.61-1.53c14.75-5.9,31.32-4.93,43.22,2.53,6.82,4.27,15.18,12.59,16.27,27.94Z"/><polygon class="cls-8" points="166.28 167.09 153.98 166.19 160.91 155.98 166.28 167.09"/><path class="cls-9" d="M183.42,183.19h66.8a1.37,1.37,0,0,1,1.37,1.37v44.25a1.38,1.38,0,0,1-1.38,1.38h-66.8a1.37,1.37,0,0,1-1.37-1.37V184.57A1.37,1.37,0,0,1,183.42,183.19Z" transform="translate(-21.76 25.55) rotate(-6.42)"/><polyline class="cls-5" points="243.29 221.44 229.06 201.21 225.02 211.06 232.99 222.6 243.29 221.44"/><path class="cls-5" d="M233,223.15a0.55,0.55,0,0,1-.45-0.24l-8-11.54a0.55,0.55,0,0,1-.06-0.52l4-9.85a0.55,0.55,0,0,1,.45-0.34,0.56,0.56,0,0,1,.51.23l14.23,20.23a0.55,0.55,0,0,1-.39.86L233,223.15H233ZM225.64,211l7.61,11,9.05-1-13.12-18.65Z"/><path class="cls-7" d="M227.56,219.6a1.12,1.12,0,0,1-.29,0,1.1,1.1,0,0,1-.78-1.35l2.07-7.68a1.1,1.1,0,0,1,2-.33l3.71,5.48,2.61-4.41a1.1,1.1,0,0,1,1.89,1.12l-3.49,5.91a1.1,1.1,0,0,1-.91.54,1.13,1.13,0,0,1-.94-0.48l-3.34-4.93-1.44,5.36A1.1,1.1,0,0,1,227.56,219.6Z"/><path class="cls-5" d="M213.13,195a3.57,3.57,0,0,1,7-.79s0,0,0,0h0a3.19,3.19,0,0,1,.35-0.07,2.7,2.7,0,1,1,.59,5.29h-0.35l-0.35.07-3.77.42"/><path class="cls-5" d="M191.31,228.39a1.1,1.1,0,0,1-.12-2.19l55.62-6.26a1.1,1.1,0,1,1,.25,2.19l-55.62,6.26h-0.12Z"/><polyline class="cls-5" points="229.74 222.86 208.44 192.58 194.35 226.95"/><path class="cls-5" d="M194.35,227.5a0.55,0.55,0,0,1-.51-0.76l14.08-34.36a0.55,0.55,0,0,1,.45-0.34,0.56,0.56,0,0,1,.51.23l21.3,30.28a0.55,0.55,0,0,1-.9.63l-20.73-29.46-13.7,33.43A0.55,0.55,0,0,1,194.35,227.5Z"/><path class="cls-7" d="M207.31,213.21a1.1,1.1,0,0,1-.81-0.35L201.08,207a1.1,1.1,0,1,1,1.62-1.49l4.07,4.41,1.82-6.77a1.1,1.1,0,0,1,2-.33l4.33,6.4,3.1-5.25a1.1,1.1,0,1,1,1.89,1.12l-4,6.75a1.1,1.1,0,0,1-1.86.06l-4-5.85-1.72,6.38A1.1,1.1,0,0,1,207.31,213.21Z"/><path class="cls-5" d="M247.54,179.6a1.38,1.38,0,0,1,1.37,1.22l0.65,5.78,14.24-5.29a1.36,1.36,0,0,1,.48-0.09,1.38,1.38,0,0,1,1.29.9L281,223.6a1.38,1.38,0,0,1-.81,1.77l-62.63,23.25a1.36,1.36,0,0,1-.48.09,1.38,1.38,0,0,1-1.29-.9l-6.18-16.65-23.32,2.62h-0.15a1.38,1.38,0,0,1-1.37-1.22l-4.95-44a1.38,1.38,0,0,1,1.21-1.52l66.38-7.47h0.15m0-3.3h0l-0.52,0-66.38,7.47a4.68,4.68,0,0,0-4.12,5.17l4.95,44a4.67,4.67,0,0,0,4.65,4.15l0.52,0,20.75-2.34L212.67,249a4.68,4.68,0,0,0,6,2.76l62.63-23.25a4.68,4.68,0,0,0,2.76-6L268.66,181a4.68,4.68,0,0,0-6-2.76L252.36,182l-0.18-1.58a4.67,4.67,0,0,0-4.65-4.15h0Z"/><path class="cls-5" d="M207.26,191.46h66.8a1.38,1.38,0,0,1,1.38,1.38v44.25a1.37,1.37,0,0,1-1.37,1.37h-66.8a1.38,1.38,0,0,1-1.38-1.38V192.84A1.37,1.37,0,0,1,207.26,191.46Z" transform="translate(-59.76 97.19) rotate(-20.37)"/><path class="cls-9" d="M217.05,249.8a2.49,2.49,0,0,1-2.32-1.62l-15.4-41.48a2.48,2.48,0,0,1,1.46-3.18l62.63-23.25a2.48,2.48,0,0,1,3.18,1.46L282,223.22a2.48,2.48,0,0,1-1.46,3.18h0l-62.63,23.25A2.47,2.47,0,0,1,217.05,249.8Zm47.22-67.48-0.09,0-62.62,23.25a0.27,0.27,0,0,0-.15.14,0.28,0.28,0,0,0,0,.21l15.4,41.48a0.28,0.28,0,0,0,.35.16l62.63-23.25h0a0.28,0.28,0,0,0,.16-0.35l-15.4-41.48A0.28,0.28,0,0,0,264.27,182.32Zm15.88,43h0Z"/><g id="outdoor-mountains"><path class="cls-9" d="M225.1,239.45h-0.16a1.1,1.1,0,0,1-.93-1.25l5.21-35.5A1.1,1.1,0,0,1,231,202l28,24.25a1.1,1.1,0,0,1-1.44,1.66L231.1,205l-4.91,33.51A1.1,1.1,0,0,1,225.1,239.45Z"/><path class="cls-9" d="M233.91,223.17a1.09,1.09,0,0,1-.69-0.24l-5.3-4.28a1.1,1.1,0,1,1,1.38-1.71l5.3,4.28A1.1,1.1,0,0,1,233.91,223.17Z"/><path class="cls-9" d="M233.92,223.17h0a1.1,1.1,0,0,1-1.08-1.12l0.18-9a1.08,1.08,0,0,1,1.12-1.08,1.1,1.1,0,0,1,1.08,1.12l-0.18,9A1.1,1.1,0,0,1,233.92,223.17Z"/><path class="cls-9" d="M241.13,220.49a1.11,1.11,0,0,1-.32,0,1.1,1.1,0,0,1-.74-1.37l1.66-5.55a1.1,1.1,0,1,1,2.11.63l-1.66,5.55A1.1,1.1,0,0,1,241.13,220.49Z"/><path class="cls-9" d="M241.13,220.49a1.1,1.1,0,0,1-.74-0.28l-7-6.33a1.1,1.1,0,1,1,1.47-1.64l7,6.33A1.1,1.1,0,0,1,241.13,220.49Z"/><path class="cls-9" d="M270.08,223.93a1.09,1.09,0,0,1-.72-0.27l-17.17-14.89-1.61,11a1.09,1.09,0,0,1-1.25.93,1.1,1.1,0,0,1-.93-1.25l1.9-13a1.1,1.1,0,0,1,1.81-.67L270.8,222A1.1,1.1,0,0,1,270.08,223.93Z"/><path class="cls-9" d="M254.58,224.69h0a1.1,1.1,0,0,1-1.08-1.12l0.16-7.95a1.08,1.08,0,0,1,1.12-1.08,1.1,1.1,0,0,1,1.08,1.12l-0.16,7.95A1.1,1.1,0,0,1,254.58,224.69Z"/><path class="cls-9" d="M261,222.33a1.1,1.1,0,0,1-1.05-1.42l1.46-4.89a1.1,1.1,0,1,1,2.11.63L262,221.54A1.1,1.1,0,0,1,261,222.33Z"/><path class="cls-9" d="M261,222.33a1.1,1.1,0,0,1-.74-0.28L254,216.46a1.1,1.1,0,0,1,1.47-1.64l6.21,5.58A1.1,1.1,0,0,1,261,222.33Z"/><path class="cls-9" d="M241,208.79a1.1,1.1,0,0,1-.38-2.13l3.56-1.32,0.1,0,0.13-.06,0.17-.06,0.14,0,0.11,0a1.9,1.9,0,0,0,1.4-2.18,1.4,1.4,0,0,0-.86-0.78,2.4,2.4,0,0,0-1.61,0l-0.12.06-0.1,0a1.1,1.1,0,0,1-1.51-.58l0-.12a1.65,1.65,0,0,0-1-.88,2.89,2.89,0,0,0-3.33,1.24,1.64,1.64,0,0,0-.17,1.39,1.1,1.1,0,1,1-2.06.77,3.85,3.85,0,0,1,.32-3.24,5.09,5.09,0,0,1,6-2.22,4,4,0,0,1,1.84,1.31,4.52,4.52,0,0,1,2.56.12,3.58,3.58,0,0,1,2.19,2.09,4,4,0,0,1-2.69,5l-0.34.1-0.32.14-3.56,1.32A1.1,1.1,0,0,1,241,208.79Z"/><path class="cls-9" d="M222,241.76a1.1,1.1,0,0,1-.38-2.13l49.5-18.37a1.1,1.1,0,1,1,.77,2.06l-49.5,18.38A1.1,1.1,0,0,1,222,241.76Z"/></g><rect class="cls-10" x="124.5" y="188.5" width="28" height="7"/><rect class="cls-1" x="82" y="63" width="161" height="8" rx="1.56" ry="1.56"/></svg>