<?xml version="1.0" encoding="utf-8"?>
<!-- Generator: Adobe Illustrator 20.1.0, SVG Export Plug-In . SVG Version: 6.00 Build 0)  -->
<svg version="1.1" id="Layer_1" xmlns="http://www.w3.org/2000/svg" xmlns:xlink="http://www.w3.org/1999/xlink" x="0px" y="0px"
	 viewBox="0 0 125.3 133.8" style="enable-background:new 0 0 125.3 133.8;" xml:space="preserve">
<style type="text/css">
	.st0{fill:#DCDDDE;}
	.st1{fill:#F28C6E;}
	.st2{fill:#3FC0C2;}
	.st3{fill:#FFCC08;}
	.st4{fill:#B1B3B6;}
</style>
<g id="Layer_1_1_">
	<g>
		<path class="st0" d="M100.2,133.8V97.6c0-0.9-0.7-1.6-1.6-1.6H13.9c-0.9,0-1.6,0.7-1.6,1.6v36.2H12l0,0h33v-8.9
			c0-0.4,0.3-0.7,0.7-0.7h20.9c0.4,0,0.7,0.3,0.7,0.7v8.9h33.8l0,0H100.2z M38.8,114.3c0,0.4-0.3,0.7-0.7,0.7H17
			c-0.4,0-0.7-0.3-0.7-0.7v-9.9c0-0.4,0.3-0.7,0.7-0.7h21c0.4,0,0.7,0.3,0.7,0.7L38.8,114.3L38.8,114.3z M49.1,114.3
			c0,0.4-0.3,0.7-0.7,0.7H43c-0.4,0-0.7-0.3-0.7-0.7v-9.9c0-0.4,0.3-0.7,0.7-0.7h5.5c0.4,0,0.7,0.3,0.7,0.7v9.9H49.1z M59.6,114.3
			c0,0.4-0.3,0.7-0.7,0.7h-5.5c-0.4,0-0.7-0.3-0.7-0.7v-9.9c0-0.4,0.3-0.7,0.7-0.7H59c0.4,0,0.7,0.3,0.7,0.7v9.9H59.6z M69.8,114.3
			c0,0.4-0.3,0.7-0.7,0.7h-5.5c-0.4,0-0.7-0.3-0.7-0.7v-9.9c0-0.4,0.3-0.7,0.7-0.7h5.5c0.4,0,0.7,0.3,0.7,0.7V114.3z M95.8,114.3
			c0,0.4-0.3,0.7-0.7,0.7H74.2c-0.4,0-0.7-0.3-0.7-0.7v-9.9c0-0.4,0.3-0.7,0.7-0.7h20.9c0.4,0,0.7,0.3,0.7,0.7
			C95.8,104.4,95.8,114.3,95.8,114.3z"/>
		<polygon class="st0" points="94.5,93 84.8,86.5 2.3,86.5 12,93 		"/>
		<polygon class="st0" points="2.1,123.9 9.2,131.1 9.2,94.9 2.1,90.1 		"/>
	</g>
</g>
<g>
	<path class="st1" d="M82.2,28.3h-7.3c-0.5,0-0.9,0.4-0.9,0.9V40c0,0.5,0.4,0.9,0.9,0.9h7.3c0.5,0,0.9-0.4,0.9-0.9V29.2
		C83.1,28.8,82.7,28.3,82.2,28.3z"/>
	<polygon class="st1" points="76.5,41.6 75.7,43.6 81.3,43.6 80.5,41.6 	"/>
</g>
<g>
	<polygon class="st2" points="56.5,93.9 53.4,92.1 78.8,48.3 77.1,47.3 51.7,91.1 48.7,89.4 48.7,98.4 	"/>
</g>
<g>
	<g>
		<path class="st3" d="M55.9,13.9c-2-0.5-4.2-0.8-6.6-0.8c-2.3,0-4.5,0.3-6.6,0.8L42.6,14c0,0.1,0.1,0.1,0.2,0.1
			c2,0.5,4.2,0.8,6.6,0.8c2.3,0,4.5-0.3,6.6-0.8c0.1,0,0.2-0.1,0.2-0.1C56,14,55.9,13.9,55.9,13.9z"/>
		<path class="st3" d="M71.7,13.9c-2-0.5-4.2-0.8-6.6-0.8c-2.3,0-4.5,0.3-6.6,0.8c-0.1,0-0.2,0.1-0.2,0.1c0,0.1,0.1,0.1,0.2,0.1
			c2,0.5,4.2,0.8,6.6,0.8c2.3,0,4.5-0.3,6.6-0.8c0.1,0,0.2-0.1,0.2-0.1C71.8,14,71.8,13.9,71.7,13.9z"/>
		<path class="st3" d="M57.2,12.2c-0.5,0-1,1-1,2.2h1.9C58.1,13.2,57.7,12.2,57.2,12.2z"/>
		<path class="st3" d="M98.9,13.9c-2-0.5-4.2-0.8-6.6-0.8c-2.3,0-4.5,0.3-6.6,0.8c-0.1,0-0.2,0.1-0.2,0.1c0,0.1,0.1,0.1,0.2,0.1
			c2,0.5,4.2,0.8,6.6,0.8c2.3,0,4.5-0.3,6.6-0.8c0.1,0,0.2-0.1,0.2-0.1C98.9,14,98.9,13.9,98.9,13.9z"/>
		<path class="st3" d="M114.7,13.9c-2-0.5-4.2-0.8-6.6-0.8c-2.3,0-4.5,0.3-6.6,0.8c-0.1,0-0.2,0.1-0.2,0.1c0,0.1,0.1,0.1,0.2,0.1
			c2,0.5,4.2,0.8,6.6,0.8c2.3,0,4.5-0.3,6.6-0.8c0.1,0,0.2-0.1,0.2-0.1C114.8,14,114.8,13.9,114.7,13.9z"/>
		<path class="st3" d="M100.2,12.2c-0.5,0-0.9,1-0.9,2.2h1.9C101.1,13.2,100.7,12.2,100.2,12.2z"/>
	</g>
	<path class="st4" d="M103.3,21.6L103.3,21.6c-0.2-1.1-0.9-1.7-2-1.9l0,0l0,0v-3.9l0,0h-1.8H99v3.9h0.5l0,0c-2.7,0-3.8,0-5.3,0h-3.6
		c-1.3,0-2.5-0.6-3.9-1.4c-2-1-4.5-2.3-8-2.3s-6,1.2-8,2.3c-1.4,0.8-2.7,1.4-3.9,1.4h-3.6c-1.4,0-2.6,0-5.3,0l0,0h0.5v-3.9h-0.6H56
		l0,0v3.9c-1.1,0.2-1.9,0.9-2,1.9c-0.1,1.2,0.4,3.1,1.3,4.2c0.5,0.5,1,0.8,1.7,0.8c0.6,0,1.1-0.3,1.6-0.8c1-1.1,1.3-2.7,1.3-3.8H68
		c-0.8,0.6-1.4,1.5-1.7,2.6C66.2,25,66,27,65.6,29.2c-0.4,2.7-0.9,5.8-1.1,6.8c-0.2,0.8-0.1,1.4,0.3,1.8c0.2,0.2,0.5,0.3,0.8,0.2
		c0.5-0.2,0.8-0.6,1-1.4c0.2-0.6,0.5-2.3,1-4.2c0.8-3,1.6-6.6,1.7-7.3c0.2-0.8,0.6-1.1,1.5-1.1h2.7c0.2,0.2,0.3,0.4,0.5,0.6
		c0.6,0.8,1.3,1.6,2.3,1.7c0.2,0,0.5,0,0.6,0V35c0,0.5,0.4,0.9,0.9,0.9h0.8c0.5,0,0.9-0.4,0.9-0.9v-8.4c0.2,0,0.5,0,0.9-0.1
		c1.1-0.1,1.7-0.9,2.3-1.7c0.2-0.2,0.3-0.4,0.5-0.6H86c0.9,0,1.3,0.3,1.5,1.1c0.2,0.7,1.1,4.5,1.8,7.6l0.9,3.8
		c0.2,0.7,0.5,1.2,1,1.3c0.1,0,0.2,0,0.2,0c0.2,0,0.5-0.1,0.6-0.3c0.4-0.4,0.5-1.1,0.3-1.8c-0.2-1-0.7-4.1-1.1-6.8
		c-0.3-2.2-0.6-4.2-0.8-4.6c-0.3-1.1-0.8-2-1.6-2.6H97c0,1.1,0.4,2.8,1.3,3.8c0.5,0.5,1,0.8,1.6,0.8s1.1-0.3,1.7-0.8
		C103,24.7,103.4,22.8,103.3,21.6z"/>
</g>
<rect x="61.6" y="19.7" class="st3" width="0.8" height="2.3"/>
<rect x="63.3" y="19.7" class="st3" width="0.8" height="2.3"/>
<rect x="93.3" y="19.7" class="st3" width="0.8" height="2.3"/>
<rect x="95" y="19.7" class="st3" width="0.8" height="2.3"/>
</svg>
