<svg id="Layer_1" data-name="Layer 1" xmlns="http://www.w3.org/2000/svg" viewBox="0 0 642 300"><defs><style>.cls-1{fill:#aaa;}.cls-2{fill:#3fc0c2;opacity:0.5;}</style></defs><title>Infog</title><path class="cls-1" d="M495.55,111a1.29,1.29,0,0,0-1.05-.26l-20.48,0A1.29,1.29,0,0,0,473,111v5h22.58v-5Z"/><path class="cls-1" d="M335,127.27a1.42,1.42,0,0,0-1.16-.29H320.36a1.42,1.42,0,0,0-1.16.29v5.63H335v-5.63Z"/><rect class="cls-1" x="321.18" y="195.06" width="18.44" height="14.37"/><path class="cls-1" d="M338.49,136.28h-32.8a1.15,1.15,0,0,0-1.13,1.13v16.51h35.06V137.42A1.15,1.15,0,0,0,338.49,136.28Zm-24.15,11.42a0.77,0.77,0,0,1-.77.77h-4.25a0.77,0.77,0,0,1-.77-0.77v-5.82a0.77,0.77,0,0,1,.77-0.77h4.25a0.77,0.77,0,0,1,.77.77v5.82Zm10.64,0a0.77,0.77,0,0,1-.77.77H320a0.77,0.77,0,0,1-.77-0.77v-5.82a0.77,0.77,0,0,1,.77-0.77h4.25a0.77,0.77,0,0,1,.77.77v5.82Zm10.64,0a0.77,0.77,0,0,1-.77.77h-4.25a0.77,0.77,0,0,1-.77-0.77v-5.82a0.77,0.77,0,0,1,.77-0.77h4.25a0.77,0.77,0,0,1,.77.77v5.82Z"/><path class="cls-1" d="M321.18,180.56h3a0.77,0.77,0,0,1,.77.77v5.82a0.77,0.77,0,0,1-.77.77h-3v5.46h18.44V175.59H321.18v5Zm8.66,0.77a0.77,0.77,0,0,1,.77-0.77h4.25a0.77,0.77,0,0,1,.77.77v5.82a0.77,0.77,0,0,1-.77.77h-4.25a0.77,0.77,0,0,1-.77-0.77v-5.82Z"/><path class="cls-1" d="M304.56,165.73h4v-3.88a0.77,0.77,0,0,1,.77-0.77h4.25a0.77,0.77,0,0,1,.77.77v3.88h2.32a4.4,4.4,0,0,1,2.53.88v-4.76a0.77,0.77,0,0,1,.77-0.77h4.25a0.77,0.77,0,0,1,.77.77v5.82a0.77,0.77,0,0,1-.77.77H320.8a4.47,4.47,0,0,1,.39,1.81v3.65h18.44V155.62H304.56v10.1Zm25.28-3.88a0.77,0.77,0,0,1,.77-0.77h4.25a0.77,0.77,0,0,1,.77.77v5.82a0.77,0.77,0,0,1-.77.77h-4.25a0.77,0.77,0,0,1-.77-0.77v-5.82Z"/><path class="cls-1" d="M316.67,169.11H225a1.15,1.15,0,0,0-1.13,1.13v39.19h34.89v-9.61a0.77,0.77,0,0,1,.77-0.77h22.64a0.77,0.77,0,0,1,.77.77v9.61H317.8V170.24A1.15,1.15,0,0,0,316.67,169.11Zm-64.83,19.2a0.77,0.77,0,0,1-.77.77H228.43a0.77,0.77,0,0,1-.77-0.77V177.55a0.77,0.77,0,0,1,.77-0.77h22.64a0.77,0.77,0,0,1,.77.77v10.76Zm11.35,0a0.77,0.77,0,0,1-.77.77h-5.9a0.77,0.77,0,0,1-.77-0.77V177.55a0.77,0.77,0,0,1,.77-0.77h5.9a0.77,0.77,0,0,1,.77.77v10.76Zm11.35,0a0.77,0.77,0,0,1-.77.77h-5.9a0.77,0.77,0,0,1-.77-0.77V177.55a0.77,0.77,0,0,1,.77-0.77h5.9a0.77,0.77,0,0,1,.77.77v10.76Zm11,0a0.77,0.77,0,0,1-.77.77h-5.9a0.77,0.77,0,0,1-.77-0.77V177.55a0.77,0.77,0,0,1,.77-0.77h5.9a0.77,0.77,0,0,1,.77.77v10.76Zm3.92,0V177.55a0.77,0.77,0,0,1,.77-0.77H312.9a0.77,0.77,0,0,1,.77.77v10.76a0.77,0.77,0,0,1-.77.77H290.25A0.77,0.77,0,0,1,289.49,188.31Z"/><path class="cls-1" d="M209.67,117.68h-43.3a3.08,3.08,0,0,0-3.07,3.07v17h5.61a4.52,4.52,0,0,1,4.52,4.52v0.53h39.3v-22A3.08,3.08,0,0,0,209.67,117.68Zm-31.61,17.08a0.77,0.77,0,0,1-.77.77h-5.9a0.77,0.77,0,0,1-.77-0.77v-7.92a0.77,0.77,0,0,1,.77-0.77h5.9a0.77,0.77,0,0,1,.77.77v7.92Zm13.68,0a0.77,0.77,0,0,1-.77.77h-5.9a0.77,0.77,0,0,1-.77-0.77v-7.92a0.77,0.77,0,0,1,.77-0.77H191a0.77,0.77,0,0,1,.77.77v7.92Zm13.68,0a0.77,0.77,0,0,1-.77.77h-5.9a0.77,0.77,0,0,1-.77-0.77v-7.92a0.77,0.77,0,0,1,.77-0.77h5.9a0.77,0.77,0,0,1,.77.77v7.92Z"/><rect class="cls-1" x="173.44" y="195.19" width="39.3" height="14.11"/><path class="cls-1" d="M173.44,151.74h3.85a0.77,0.77,0,0,1,.77.77v7.92a0.77,0.77,0,0,1-.77.77h-3.85v7.26h39.3v-24h-39.3v7.26ZM198,152.5a0.77,0.77,0,0,1,.77-0.77h5.9a0.77,0.77,0,0,1,.77.77v7.92a0.77,0.77,0,0,1-.77.77h-5.9a0.77,0.77,0,0,1-.77-0.77V152.5Zm-13.68,0a0.77,0.77,0,0,1,.77-0.77H191a0.77,0.77,0,0,1,.77.77v7.92a0.77,0.77,0,0,1-.77.77h-5.9a0.77,0.77,0,0,1-.77-0.77V152.5Z"/><path class="cls-1" d="M173.44,176.78h3.85a0.77,0.77,0,0,1,.77.77v7.92a0.77,0.77,0,0,1-.77.77h-3.85v7.26h39.3V170.14h-39.3v6.64ZM198,177.55a0.77,0.77,0,0,1,.77-0.77h5.9a0.77,0.77,0,0,1,.77.77v7.92a0.77,0.77,0,0,1-.77.77h-5.9a0.77,0.77,0,0,1-.77-0.77v-7.92Zm-13.68,0a0.77,0.77,0,0,1,.77-0.77H191a0.77,0.77,0,0,1,.77.77v7.92a0.77,0.77,0,0,1-.77.77h-5.9a0.77,0.77,0,0,1-.77-0.77v-7.92Z"/><path class="cls-1" d="M135,160.46v18.27h35.06V160.46H135Zm9.78,12a0.77,0.77,0,0,1-.77.77h-4.25a0.77,0.77,0,0,1-.77-0.77v-5.82a0.77,0.77,0,0,1,.77-0.77H144a0.77,0.77,0,0,1,.77.77v5.82Zm10.64,0a0.77,0.77,0,0,1-.77.77H150.4a0.77,0.77,0,0,1-.77-0.77v-5.82a0.77,0.77,0,0,1,.77-0.77h4.25a0.77,0.77,0,0,1,.77.77v5.82Zm9.87-6.59a0.77,0.77,0,0,1,.77.77v5.82a0.77,0.77,0,0,1-.77.77H161a0.77,0.77,0,0,1-.77-0.77v-5.82a0.77,0.77,0,0,1,.77-0.77h4.25Z"/><polygon class="cls-1" points="134.99 199.9 134.99 209.43 170.06 209.43 170.06 209.3 170.06 199.9 163.31 199.9 134.99 199.9"/><path class="cls-1" d="M135,180.42v17.79h35.06V180.42H135ZM144.77,192a0.77,0.77,0,0,1-.77.77h-4.25A0.77,0.77,0,0,1,139,192v-5.82a0.77,0.77,0,0,1,.77-0.77H144a0.77,0.77,0,0,1,.77.77V192Zm10.64,0a0.77,0.77,0,0,1-.77.77H150.4a0.77,0.77,0,0,1-.77-0.77v-5.82a0.77,0.77,0,0,1,.77-0.77h4.25a0.77,0.77,0,0,1,.77.77V192Zm9.87-6.59a0.77,0.77,0,0,1,.77.77V192a0.77,0.77,0,0,1-.77.77H161a0.77,0.77,0,0,1-.77-0.77v-5.82a0.77,0.77,0,0,1,.77-0.77h4.25Z"/><path class="cls-1" d="M168.92,141.12h-32.8a1.15,1.15,0,0,0-1.13,1.13v16.51h35.06V142.25A1.14,1.14,0,0,0,168.92,141.12Zm-24.15,11.42a0.77,0.77,0,0,1-.77.77h-4.25a0.77,0.77,0,0,1-.77-0.77v-5.82a0.77,0.77,0,0,1,.77-0.77H144a0.77,0.77,0,0,1,.77.77v5.82Zm10.64,0a0.77,0.77,0,0,1-.77.77H150.4a0.77,0.77,0,0,1-.77-0.77v-5.82a0.77,0.77,0,0,1,.77-0.77h4.25a0.77,0.77,0,0,1,.77.77v5.82Zm10.64,0a0.77,0.77,0,0,1-.77.77H161a0.77,0.77,0,0,1-.77-0.77v-5.82A0.77,0.77,0,0,1,161,146h4.25a0.77,0.77,0,0,1,.77.77v5.82Z"/><path class="cls-1" d="M473.38,176.78h3.85a0.77,0.77,0,0,1,.77.77v7.92a0.77,0.77,0,0,1-.77.77h-3.85v7.26H511V170.14H473.38v6.64Zm24.55,0.77a0.77,0.77,0,0,1,.77-0.77h5.9a0.77,0.77,0,0,1,.77.77v7.92a0.77,0.77,0,0,1-.77.77h-5.9a0.77,0.77,0,0,1-.77-0.77v-7.92Zm-13.68,0a0.77,0.77,0,0,1,.77-0.77h5.9a0.77,0.77,0,0,1,.77.77v7.92a0.77,0.77,0,0,1-.77.77H485a0.77,0.77,0,0,1-.77-0.77v-7.92Z"/><path class="cls-1" d="M473.38,151.74h3.85a0.77,0.77,0,0,1,.77.77v7.92a0.77,0.77,0,0,1-.77.77h-3.85v7.26H511v-24H473.38v7.26Zm24.55,0.77a0.77,0.77,0,0,1,.77-0.77h5.9a0.77,0.77,0,0,1,.77.77v7.92a0.77,0.77,0,0,1-.77.77h-5.9a0.77,0.77,0,0,1-.77-0.77V152.5Zm-13.68,0a0.77,0.77,0,0,1,.77-0.77h5.9a0.77,0.77,0,0,1,.77.77v7.92a0.77,0.77,0,0,1-.77.77H485a0.77,0.77,0,0,1-.77-0.77V152.5Z"/><path class="cls-1" d="M509.62,119.37h-43.3a1.38,1.38,0,0,0-1.38,1.37v17h3.93a4.52,4.52,0,0,1,4.52,4.52v0.53H511v-22A1.38,1.38,0,0,0,509.62,119.37ZM478,134.76a0.77,0.77,0,0,1-.77.77h-5.9a0.77,0.77,0,0,1-.77-0.77v-7.92a0.77,0.77,0,0,1,.77-0.77h5.9a0.77,0.77,0,0,1,.77.77v7.92Zm13.68,0a0.77,0.77,0,0,1-.77.77H485a0.77,0.77,0,0,1-.77-0.77v-7.92a0.77,0.77,0,0,1,.77-0.77h5.9a0.77,0.77,0,0,1,.77.77v7.92Zm13.68,0a0.77,0.77,0,0,1-.77.77h-5.9a0.77,0.77,0,0,1-.77-0.77v-7.92a0.77,0.77,0,0,1,.77-0.77h5.9a0.77,0.77,0,0,1,.77.77v7.92Z"/><rect class="cls-1" x="473.38" y="195.19" width="37.61" height="14.11"/><path class="cls-1" d="M468.87,141.12h-32.8a1.15,1.15,0,0,0-1.13,1.13v16.51H470V142.25A1.15,1.15,0,0,0,468.87,141.12Zm-24.15,11.42a0.77,0.77,0,0,1-.77.77H439.7a0.77,0.77,0,0,1-.77-0.77v-5.82a0.77,0.77,0,0,1,.77-0.77H444a0.77,0.77,0,0,1,.77.77v5.82Zm10.64,0a0.77,0.77,0,0,1-.77.77h-4.25a0.77,0.77,0,0,1-.77-0.77v-5.82a0.77,0.77,0,0,1,.77-0.77h4.25a0.77,0.77,0,0,1,.77.77v5.82Zm10.64,0a0.77,0.77,0,0,1-.77.77H461a0.77,0.77,0,0,1-.77-0.77v-5.82A0.77,0.77,0,0,1,461,146h4.25a0.77,0.77,0,0,1,.77.77v5.82Z"/><path class="cls-1" d="M463.25,180.42H446.93l0,17.79H470V180.42h-6.75ZM455.36,192a0.77,0.77,0,0,1-.77.77h-4.25a0.77,0.77,0,0,1-.77-0.77v-5.82a0.77,0.77,0,0,1,.77-0.77h4.25a0.77,0.77,0,0,1,.77.77V192Zm9.87-6.59a0.77,0.77,0,0,1,.77.77V192a0.77,0.77,0,0,1-.77.77H461a0.77,0.77,0,0,1-.77-0.77v-5.82a0.77,0.77,0,0,1,.77-0.77h4.25Z"/><polygon class="cls-1" points="463.25 199.9 461.56 199.9 446.9 199.9 446.88 209.43 470 209.43 470 209.3 470 199.9 464.94 199.9 463.25 199.9"/><path class="cls-1" d="M463.25,160.46H434.94v9.72h4v-3.5a0.77,0.77,0,0,1,.77-0.77H444a0.77,0.77,0,0,1,.77.77v4.1a3.87,3.87,0,0,1,2.22,3.66v4.28H470V160.46h-6.75Zm-7.89,12a0.77,0.77,0,0,1-.77.77h-4.25a0.77,0.77,0,0,1-.77-0.77v-5.82a0.77,0.77,0,0,1,.77-0.77h4.25a0.77,0.77,0,0,1,.77.77v5.82Zm9.87-6.59a0.77,0.77,0,0,1,.77.77v5.82a0.77,0.77,0,0,1-.77.77H461a0.77,0.77,0,0,1-.77-0.77v-5.82a0.77,0.77,0,0,1,.77-0.77h4.25Z"/><path class="cls-1" d="M372.72,146a1.29,1.29,0,0,0-1.05-.26l-20.48,0a1.29,1.29,0,0,0-1.05.26v4.14l22.58,0V146Z"/><path class="cls-1" d="M355.2,209.87l0-35.55a4.26,4.26,0,0,1,4.26-4.25h0l34.05,0,0-15.65a0.87,0.87,0,0,0-.87-0.87L344,153.52a0.88,0.88,0,0,0-.87.87L343,209.85ZM383,158.25a0.59,0.59,0,0,1,.59-0.59h5.56a0.59,0.59,0,0,1,.59.59v6.86a0.59,0.59,0,0,1-.59.59H383.6a0.59,0.59,0,0,1-.59-0.59v-6.86Zm-11.61,0a0.59,0.59,0,0,1,.59-0.59h5.56a0.59,0.59,0,0,1,.59.59v6.86a0.59,0.59,0,0,1-.59.59H372a0.59,0.59,0,0,1-.59-0.59v-6.86Zm-11.61,0a0.59,0.59,0,0,1,.59-0.59H366a0.59,0.59,0,0,1,.59.59v6.86a0.59,0.59,0,0,1-.59.59h-5.56a0.59,0.59,0,0,1-.59-0.59v-6.86Zm-4.88,6.85a0.59,0.59,0,0,1-.59.59h-5.56a0.59,0.59,0,0,1-.59-0.59V158.2a0.59,0.59,0,0,1,.59-0.59h5.56a0.59,0.59,0,0,1,.59.59v6.86Z"/><path class="cls-1" d="M443.5,209.43v-35a0.87,0.87,0,0,0-.87-0.87H431.55l-34.61,0h-3.38l-34.06,0a0.87,0.87,0,0,0-.87.87l0,35.55h-0.67l32.16,0h0V201.2a0.7,0.7,0,0,1,.7-0.69h6.12l14.42,0a0.7,0.7,0,0,1,.69.7V210l32,0H443.5v-0.57ZM361.92,181a0.7,0.7,0,0,1,.7-0.69l20.54,0a0.7,0.7,0,0,1,.69.7v9.76a0.7,0.7,0,0,1-.7.69l-20.54,0a0.7,0.7,0,0,1-.69-0.7V181Zm32.22,9.81a0.68,0.68,0,0,1-.6.66,0.63,0.63,0,0,1-.09,0h-5.35a0.7,0.7,0,0,1-.69-0.7V181a0.7,0.7,0,0,1,.7-0.69h5.35a0.6,0.6,0,0,1,.09,0,0.68,0.68,0,0,1,.6.66v9.76Zm10.3,0a0.7,0.7,0,0,1-.7.69h-5.35a0.7,0.7,0,0,1-.69-0.7V181a0.7,0.7,0,0,1,.7-0.69h5.35a0.7,0.7,0,0,1,.69.7v9.76Zm10,0a0.7,0.7,0,0,1-.7.69h-5.35a0.7,0.7,0,0,1-.69-0.7V181a0.7,0.7,0,0,1,.7-0.69h5.35a0.7,0.7,0,0,1,.69.7v9.76Zm3.56,0V181a0.7,0.7,0,0,1,.7-0.69l12.18,0h8.36a0.61,0.61,0,0,1,.13.05,0.67,0.67,0,0,1,.57.64v9.76a0.7,0.7,0,0,1-.7.69h-7.68l-12.86,0A0.7,0.7,0,0,1,418,190.8Z"/><path class="cls-2" d="M238.54,119.3c0.31,0,.76,0,0.95.07,6.29,0,11.41-4.42,11.42-9.85a9.2,9.2,0,0,0-3.45-7.08,12.28,12.28,0,0,0-7.5-2.8c-0.94-5.15-6.11-9.11-12.34-9.12h0a13.53,13.53,0,0,0-8.71,3.05,10.26,10.26,0,0,0-3.65,6.09c-2.08.19-5.75,0.86-8.23,3.28a8.61,8.61,0,0,0-2.58,6.41,14.22,14.22,0,0,0,.25,2.76,1.69,1.69,0,0,0,3.32-.67,10.77,10.77,0,0,1-.19-2.09,5.29,5.29,0,0,1,1.54-4c2.53-2.47,7.35-2.4,7.39-2.4a1.7,1.7,0,0,0,1.73-1.69A6.71,6.71,0,0,1,221,96.16a10.16,10.16,0,0,1,6.54-2.26h0c5,0,9,3.27,9.12,7.31a1.43,1.43,0,0,0,0,.2,1.7,1.7,0,0,0,1.7,1.7l0.45,0a3.57,3.57,0,0,1,.63-0.05,9,9,0,0,1,5.78,2,5.87,5.87,0,0,1,2.25,4.49c0,3.58-3.61,6.48-8,6.48-0.15,0-.39,0-0.58,0l-0.66,0-0.4,0a5,5,0,0,1-.54,0l-19,0h0a1.69,1.69,0,0,0,0,3.38l19,0C237.61,119.37,237.91,119.34,238.54,119.3Z"/><path class="cls-2" d="M408.4,141.41h0c0.32,0,.62,0,1.25-0.07a8.28,8.28,0,0,0,.91.06l19,0a1.69,1.69,0,0,0,0-3.38h0l-19,0a5,5,0,0,1-.55,0l-0.68,0L409,138a2.86,2.86,0,0,0-.57,0c-4.43,0-8-2.9-8-6.48a5.87,5.87,0,0,1,2.25-4.49,9,9,0,0,1,5.79-2c0.12,0,.42,0,0.62.05l0.45,0a1.72,1.72,0,0,0,1.42-.76,1.69,1.69,0,0,0,.28-0.94,1.44,1.44,0,0,0,0-.2c0.07-4,4.13-7.3,9.12-7.31h0a10.16,10.16,0,0,1,6.54,2.26,6.71,6.71,0,0,1,2.58,5.12,1.69,1.69,0,0,0,.51,1.21,1.75,1.75,0,0,0,1.22.48c0.07,0,4.87-.05,7.38,2.39a5.28,5.28,0,0,1,1.55,4,10.89,10.89,0,0,1-.18,2.1,1.69,1.69,0,1,0,3.32.65,14,14,0,0,0,.25-2.76,8.6,8.6,0,0,0-2.57-6.41c-2.48-2.42-6.15-3.09-8.23-3.28a10.26,10.26,0,0,0-3.65-6.09,13.54,13.54,0,0,0-8.71-3.05h0c-6.21,0-11.37,3.93-12.32,9.12a12.29,12.29,0,0,0-7.52,2.8,9.2,9.2,0,0,0-3.45,7.08C397,137,402.11,141.41,408.4,141.41Z"/></svg>