<svg id="Layer_1" data-name="Layer 1" xmlns="http://www.w3.org/2000/svg" viewBox="0 0 300 300"><defs><style>.cls-1{fill:#ed6a4c;}.cls-2{fill:#919395;}.cls-3{fill:#f6cd21;}.cls-4{fill:#f5cc23;}.cls-5{fill:#40bfc1;}.cls-6,.cls-7{fill:none;stroke:#b9dee0;stroke-miterlimit:10;stroke-width:3.17px;}.cls-7{stroke-dasharray:4.6 4.6;}.cls-8{fill:#b9dee0;}</style></defs><title>Infog</title><path class="cls-1" d="M153.09,98.18H140.66A4.63,4.63,0,0,0,136,102.8v12.43a4.63,4.63,0,0,0,4.62,4.62h12.43a4.63,4.63,0,0,0,4.62-4.62V102.8A4.63,4.63,0,0,0,153.09,98.18Zm-6.22,17.3a6.46,6.46,0,1,1,6.46-6.46A6.46,6.46,0,0,1,146.88,115.48Z"/><path class="cls-1" d="M146.9,104.79l-0.23,0a2.68,2.68,0,1,1-4.06,3.24,4.43,4.43,0,0,0-.19,1.22A4.48,4.48,0,1,0,146.9,104.79Z"/><path class="cls-2" d="M208.51,80.54v0c-0.28-2.59-2.14-4.34-5-4.76v-9.7h-4.57v9.62H176.69c-3.18,0-6.29-1.57-9.89-3.38-5-2.5-11.15-5.62-19.9-5.62S132,69.79,127,72.29c-3.6,1.81-6.71,3.38-9.89,3.38H94.88V66.05H90.31v9.7c-2.88.42-4.75,2.18-5,4.79-0.2,3.09.85,7.78,3.22,10.38a5.17,5.17,0,0,0,8.11.08c2.4-2.57,3.27-6.89,3.31-9.54h20.85a11.13,11.13,0,0,0-4.07,6.39c-0.29,1.19-1,6-1.86,11.55-1,6.85-2.21,14.62-2.79,17-0.5,1.92-.22,3.64.75,4.6a2.19,2.19,0,0,0,2.16.59c1.15-.32,2.07-1.52,2.54-3.31L120,107.83c1.83-7.56,4-16.47,4.38-18.09,0.47-1.91,1.51-2.65,3.71-2.65h6.69c0.42,0.45.82,0.94,1.25,1.45,1.6,1.93,3.25,3.92,5.89,4.1a35.14,35.14,0,0,0,5,.07,36.28,36.28,0,0,0,5.08-.07c2.65-.18,4.3-2.17,5.89-4.1,0.43-.51.83-1,1.25-1.45h6.94c2.2,0,3.24.74,3.71,2.65,0.42,1.68,2.74,11.31,4.61,19.06l2.3,9.5c0.46,1.78,1.38,3,2.53,3.3a2.18,2.18,0,0,0,2.16-.59c1-1,1.25-2.67.75-4.59-0.58-2.42-1.76-10.18-2.79-17-0.84-5.57-1.57-10.38-1.86-11.57a11.13,11.13,0,0,0-4.05-6.38h20.41c0,2.65.9,7,3.31,9.54a5.17,5.17,0,0,0,8.11-.08C207.66,88.32,208.72,83.63,208.51,80.54Z"/><path id="path8811" class="cls-3" d="M73.67,59.28a68.82,68.82,0,0,0-16.39,1.92,0.26,0.26,0,1,0,0,.51,68.8,68.8,0,0,0,16.39,1.92A68.73,68.73,0,0,0,90,61.72a0.26,0.26,0,1,0,0-.51A68.74,68.74,0,0,0,73.67,59.28Z"/><path id="path8811-2" data-name="path8811" class="cls-3" d="M113.23,59.28a68.82,68.82,0,0,0-16.39,1.92,0.26,0.26,0,1,0,0,.51,68.8,68.8,0,0,0,16.39,1.92,68.73,68.73,0,0,0,16.38-1.92,0.26,0.26,0,1,0,0-.51A68.74,68.74,0,0,0,113.23,59.28Z"/><path class="cls-3" d="M91.09,62.58c0-3,1-5.49,2.32-5.49s2.32,2.46,2.32,5.49H91.09Z"/><rect class="cls-2" x="90.36" y="66.05" width="5.84" height="9.61"/><path id="path8811-3" data-name="path8811" class="cls-3" d="M181,59.28a68.82,68.82,0,0,0-16.39,1.92,0.26,0.26,0,1,0,0,.51A68.8,68.8,0,0,0,181,63.64a68.73,68.73,0,0,0,16.38-1.92,0.26,0.26,0,1,0,0-.51A68.74,68.74,0,0,0,181,59.28Z"/><path id="path8811-4" data-name="path8811" class="cls-3" d="M220.54,59.28a68.82,68.82,0,0,0-16.39,1.92,0.26,0.26,0,1,0,0,.51,68.8,68.8,0,0,0,16.39,1.92,68.73,68.73,0,0,0,16.38-1.92,0.26,0.26,0,1,0,0-.51A68.74,68.74,0,0,0,220.54,59.28Z"/><path class="cls-3" d="M198.4,62.58c0-3,1-5.49,2.32-5.49S203,59.55,203,62.58H198.4Z"/><rect class="cls-2" x="197.67" y="66.05" width="5.84" height="9.61"/><rect class="cls-4" x="104.44" y="75.66" width="2.11" height="5.8"/><rect class="cls-4" x="108.8" y="75.66" width="2.11" height="5.8"/><rect class="cls-4" x="183.46" y="75.66" width="2.11" height="5.8"/><rect class="cls-4" x="187.82" y="75.66" width="2.11" height="5.8"/><path class="cls-5" d="M139.49,203.27s-6.61-8.83-3.69-12,4.94,0.81,6.73.89,2.11-2.22,5.23-2.16,3,2.65,5.23,2.49,2.27-2.84,5.11-2.11,0.57,7.94-.73,10.21a6.74,6.74,0,0,1-2.43,2.8,28.14,28.14,0,0,1-7.94,1.05A27.12,27.12,0,0,1,139.49,203.27Z"/><path class="cls-5" d="M148.26,230.69v7.45a4.39,4.39,0,0,0,2.56-1.33,3.55,3.55,0,0,0,1-2.49,3.2,3.2,0,0,0-.83-2.21A5.43,5.43,0,0,0,148.26,230.69Z"/><path class="cls-5" d="M142.51,221.14a3,3,0,0,0,.67,1.88,4.63,4.63,0,0,0,2,1.4v-6.61a4,4,0,0,0-2,1.3A3.17,3.17,0,0,0,142.51,221.14Z"/><path class="cls-5" d="M155.42,205.83s-2.55,1.13-8.88,1.13-7.5-1.46-7.5-1.46-16,15.8-16.54,31.75c-0.24,6.91,4.29,13.64,9.58,13.64h29.63c5.29,0,9.88-5.46,9.58-13.64C170.75,222.28,155.42,205.83,155.42,205.83Zm-0.76,33.64a10.47,10.47,0,0,1-6.39,2.9v3.57h-3v-3.48a10.16,10.16,0,0,1-5.9-2.46,9.77,9.77,0,0,1-2.9-5.83l5.48-.54a6.08,6.08,0,0,0,1.26,2.64,5.64,5.64,0,0,0,2.06,1.6v-8a11.81,11.81,0,0,1-6-3.24,7.66,7.66,0,0,1-1.92-5.26,7.09,7.09,0,0,1,2.17-5.26,9.13,9.13,0,0,1,5.78-2.46v-1.89h3v1.89a9.46,9.46,0,0,1,5.31,2.07,7.78,7.78,0,0,1,2.52,4.58l-5.31.63a4,4,0,0,0-2.52-3.06v7.47q5,1.24,6.86,3.22a7.19,7.19,0,0,1,1.82,5.07A8.05,8.05,0,0,1,154.65,239.46Z"/><line class="cls-6" x1="147.54" y1="124.46" x2="147.54" y2="126.84"/><line class="cls-7" x1="147.54" y1="131.44" x2="147.54" y2="165.95"/><line class="cls-6" x1="147.54" y1="168.25" x2="147.54" y2="170.63"/><polygon class="cls-8" points="139.64 168.32 147.54 182 155.44 168.32 139.64 168.32"/></svg>