<svg id="Layer_1" data-name="Layer 1" xmlns="http://www.w3.org/2000/svg" viewBox="0 0 300 300"><defs><style>.cls-1{fill:none;}.cls-2{fill:#dcddde;}.cls-3{fill:#45bbbf;}.cls-4{fill:#ee6a4c;}.cls-5{fill:#929497;}.cls-6{fill:#f7cd1f;}.cls-7{fill:#f6cd21;}</style></defs><title>Infog</title><polygon class="cls-1" points="257.01 183.36 257.01 183.36 257.01 183.36 257.01 183.36"/><polygon class="cls-1" points="254.63 180.82 254.63 180.82 254.63 180.82 254.63 180.82"/><path class="cls-1" d="M152.46,64.08a4.42,4.42,0,1,0,4.42,4.42A4.42,4.42,0,0,0,152.46,64.08Zm0,7.67a3.07,3.07,0,0,1-3.07-3.07,3,3,0,0,1,.13-0.83,1.84,1.84,0,1,0,2.78-2.22l0.16,0A3.07,3.07,0,1,1,152.48,71.75Z"/><path class="cls-2" d="M251,176.14a1.43,1.43,0,0,0-1-1.14h-13.5a2.28,2.28,0,0,0-1.47,1.14V179h16v-2.86Z"/><path class="cls-2" d="M235,183v-2H221.78c-1.29,0-2.78,1.15-2.78,2.36V200h38V183.36h0a2.51,2.51,0,0,0-2.37-2.45V181H251v2H235Zm-4,11.23a0.77,0.77,0,0,1-.77.77h-4.46a0.77,0.77,0,0,1-.77-0.77v-6.46a0.77,0.77,0,0,1,.77-0.77h4.46a0.77,0.77,0,0,1,.77.77v6.46Zm10,0a0.77,0.77,0,0,1-.77.77h-4.46a0.77,0.77,0,0,1-.77-0.77v-6.46a0.77,0.77,0,0,1,.77-0.77h4.46a0.77,0.77,0,0,1,.77.77v6.46Zm12,0a0.77,0.77,0,0,1-.77.77h-4.46a0.77,0.77,0,0,1-.77-0.77v-6.46a0.77,0.77,0,0,1,.77-0.77h4.46a0.77,0.77,0,0,1,.77.77v6.46Z"/><path class="cls-2" d="M219,213h6v-5.4c0-.42-0.16-0.6.27-0.6h3.88a0.72,0.72,0,0,1,.85.6V213h2.77c1,0,2.23-.33,2.23.36V207.6a1,1,0,0,1,1.1-.6H240a0.9,0.9,0,0,1,1,.6v6.05a1.7,1.7,0,0,1-1,1.35H236.1s-0.27-.3-0.3-0.31a3.13,3.13,0,0,1,.19,1.55V220h21V201H219v12Zm34,1.23a0.77,0.77,0,0,1-.77.77h-4.46a0.77,0.77,0,0,1-.77-0.77v-6.46a0.77,0.77,0,0,1,.77-0.77h4.46a0.77,0.77,0,0,1,.77.77v6.46Z"/><path class="cls-2" d="M236,226h4a1.37,1.37,0,0,1,1,1.11v6.05a1.07,1.07,0,0,1-1,.84h-4v5h21V221H236v5Zm17,7.23a0.77,0.77,0,0,1-.77.77h-4.46a0.77,0.77,0,0,1-.77-0.77v-6.46a0.77,0.77,0,0,1,.77-0.77h4.46a0.77,0.77,0,0,1,.77.77v6.46Z"/><rect class="cls-2" x="236" y="240" width="21" height="16"/><rect class="cls-2" x="235" y="181" width="16" height="2"/><rect class="cls-3" x="152" y="185" width="2" height="11"/><rect class="cls-3" x="152" y="151" width="2" height="10"/><rect class="cls-3" x="152" y="168" width="2" height="10"/><polygon class="cls-3" points="154 135.13 152.64 133.69 152 134.41 152 144 154 144 154 135.13"/><rect class="cls-3" x="152" y="98" width="2" height="12"/><rect class="cls-3" x="152" y="115" width="2" height="12"/><rect class="cls-3" x="152" y="202" width="2" height="11"/><path class="cls-2" d="M217,240v-1h1v-4H206.84a0.82,0.82,0,0,1-.84-0.75V223.86a0.91,0.91,0,0,1,.84-0.86H218v-2h-1v-1h1v-5H140.93c-1,0-1.93.34-1.93,1.24V256h13v-1h2v1h21V245.54c0-.42,0-0.54.4-0.54h22.31c0.42,0,1.29.11,1.29,0.54V256h19V240h-1Zm-63,8h-2V237h2v11Zm13-13.75a0.71,0.71,0,0,1-.72.75H144a1,1,0,0,1-1-.75V223.86a1,1,0,0,1,1-.86h8v-3h2v3h12.28a0.81,0.81,0,0,1,.72.86v10.39Zm12-1a0.77,0.77,0,0,1-.77.77h-6.46a0.77,0.77,0,0,1-.77-0.77v-9.46a0.77,0.77,0,0,1,.77-0.77h6.46a0.77,0.77,0,0,1,.77.77v9.46Zm13,0a0.77,0.77,0,0,1-.77.77h-6.46a0.77,0.77,0,0,1-.77-0.77v-9.46a0.77,0.77,0,0,1,.77-0.77h6.46a0.77,0.77,0,0,1,.77.77v9.46Zm10,0a0.77,0.77,0,0,1-.77.77h-6.46a0.77,0.77,0,0,1-.77-0.77v-9.46a0.77,0.77,0,0,1,.77-0.77h6.46a0.77,0.77,0,0,1,.77.77v9.46Z"/><path class="cls-2" d="M219,221v2h10.15a0.93,0.93,0,0,1,.85.86v10.39a0.83,0.83,0,0,1-.85.75H219v4h15V221H219Z"/><path class="cls-2" d="M234,216.24a1,1,0,0,0-1.23-1.24H219v5h15v-3.76Z"/><rect class="cls-2" x="219" y="240" width="15" height="16"/><rect class="cls-2" x="218" y="235" width="1" height="4"/><rect class="cls-2" x="217.89" y="221.27" width="0.95" height="1.91"/><rect class="cls-2" x="218" y="215" width="1" height="5"/><rect class="cls-2" x="218" y="240" width="1" height="16"/><rect class="cls-2" x="216.91" y="219.84" width="1.08" height="1.08"/><rect class="cls-2" x="219" y="220" width="15" height="1"/><rect class="cls-2" x="217.99" y="219.84" width="1.08" height="1.08"/><rect class="cls-2" x="216.91" y="239.35" width="1.08" height="1.08"/><rect class="cls-2" x="219" y="239" width="15" height="1"/><rect class="cls-2" x="217.99" y="239.35" width="1.08" height="1.08"/><rect class="cls-2" x="152.07" y="254.66" width="1.91" height="0.95"/><rect class="cls-2" x="152" y="220" width="2" height="3"/><rect class="cls-2" x="152" y="237" width="2" height="11"/><path class="cls-2" d="M89,223h4.66a1.55,1.55,0,0,1,1.34.86v8.22a1.6,1.6,0,0,1-1.34.92H89v6h40V216H89v7Zm33,9.23a0.77,0.77,0,0,1-.77.77h-6.46a0.77,0.77,0,0,1-.77-0.77v-8.46a0.77,0.77,0,0,1,.77-0.77h6.46a0.77,0.77,0,0,1,.77.77v8.46Zm-14,0a0.77,0.77,0,0,1-.77.77h-6.46a0.77,0.77,0,0,1-.77-0.77v-8.46a0.77,0.77,0,0,1,.77-0.77h6.46a0.77,0.77,0,0,1,.77.77v8.46Z"/><path class="cls-2" d="M89,198h4.66a1.61,1.61,0,0,1,1.34.93v8.22a1.54,1.54,0,0,1-1.34.85H89v7h40V191H89v7Zm33,9.23a0.77,0.77,0,0,1-.77.77h-6.46a0.77,0.77,0,0,1-.77-0.77v-8.46a0.77,0.77,0,0,1,.77-0.77h6.46a0.77,0.77,0,0,1,.77.77v8.46Zm-14,0a0.77,0.77,0,0,1-.77.77h-6.46a0.77,0.77,0,0,1-.77-0.77v-8.46a0.77,0.77,0,0,1,.77-0.77h6.46a0.77,0.77,0,0,1,.77.77v8.46Z"/><rect class="cls-2" x="89" y="240" width="40" height="16"/><path class="cls-2" d="M89,188.21V190h40V166.66c0-1.69-1.71-3.66-3.4-3.66H82.23c-1.69,0-2.23,2-2.23,3.66V184h4.78A4.46,4.46,0,0,1,89,188.21Zm33-6a0.77,0.77,0,0,1-.77.77h-6.46a0.77,0.77,0,0,1-.77-0.77v-8.46a0.77,0.77,0,0,1,.77-0.77h6.46a0.77,0.77,0,0,1,.77.77v8.46Zm-14,0a0.77,0.77,0,0,1-.77.77h-6.46a0.77,0.77,0,0,1-.77-0.77v-8.46a0.77,0.77,0,0,1,.77-0.77h6.46a0.77,0.77,0,0,1,.77.77v8.46Zm-13,0a0.77,0.77,0,0,1-.77.77H87.77a0.77,0.77,0,0,1-.77-0.77v-8.46a0.77,0.77,0,0,1,.77-0.77h6.46a0.77,0.77,0,0,1,.77.77v8.46Z"/><path class="cls-4" d="M205.94,73.08c0-6.4-10.7-11.9-28.63-14.74L177,60.42C193.3,63,203.84,68,203.84,73.08c0,6-15.76,12.86-42.23,14.23l0.06,2.1C183.92,88.24,205.94,82.36,205.94,73.08Z"/><path class="cls-4" d="M160.07,87.39l1.54-.08-0.13-4.21-8.89,5.5,9.21,5-0.12-4.14-1.51.07Z"/><path class="cls-4" d="M160.07,87.39l0.09,2.09,1.51-.07-0.06-2.1Z"/><path class="cls-4" d="M127.72,60.5l-0.33-2.07c-17.62,2.86-28.14,8.34-28.14,14.66,0,9,20.21,14.55,40.24,16.07l0.16-2.09c-22.19-1.69-38.3-7.57-38.3-14C101.35,68,111.7,63.09,127.72,60.5Z"/><path class="cls-2" d="M76,240v-1h0.77c-0.42,0-.77,0-0.77-0.42v-6.05c0-.42.34-0.53,0.77-0.53H80v-6H50v19H80v-5H76Zm-15-.77a0.77,0.77,0,0,1-.77.77H55.77a0.77,0.77,0,0,1-.77-0.77v-6.46a0.77,0.77,0,0,1,.77-0.77h4.46a0.77,0.77,0,0,1,.77.77v6.46Zm10,0a0.77,0.77,0,0,1-.77.77H65.77a0.77,0.77,0,0,1-.77-0.77v-6.46a0.77,0.77,0,0,1,.77-0.77h4.46a0.77,0.77,0,0,1,.77.77v6.46Z"/><rect class="cls-2" x="50" y="246" width="30" height="10"/><path class="cls-2" d="M80,199H76.77c-0.42,0-.77-0.1-0.77-0.52v-6.05c0-.42.34-0.43,0.77-0.43H80v-1H76v-1h4v-4H51.93A2.39,2.39,0,0,0,50,188.21V205H80v-6Zm-19,.23a0.77,0.77,0,0,1-.77.77H55.77a0.77,0.77,0,0,1-.77-0.77v-6.46a0.77,0.77,0,0,1,.77-0.77h4.46a0.77,0.77,0,0,1,.77.77v6.46Zm10,0a0.77,0.77,0,0,1-.77.77H65.77a0.77,0.77,0,0,1-.77-0.77v-6.46a0.77,0.77,0,0,1,.77-0.77h4.46a0.77,0.77,0,0,1,.77.77v6.46Z"/><path class="cls-2" d="M80,220H76.77a0.92,0.92,0,0,1-.77-0.93V213c0-.42.34,0,0.77,0H80v-7H50v19H80v-5Zm-19,.23a0.77,0.77,0,0,1-.77.77H55.77a0.77,0.77,0,0,1-.77-0.77v-6.46a0.77,0.77,0,0,1,.77-0.77h4.46a0.77,0.77,0,0,1,.77.77v6.46Zm10,0a0.77,0.77,0,0,1-.77.77H65.77a0.77,0.77,0,0,1-.77-0.77v-6.46a0.77,0.77,0,0,1,.77-0.77h4.46a0.77,0.77,0,0,1,.77.77v6.46Z"/><path class="cls-2" d="M80,213h0.65c0.42,0,.35-0.4.35,0v2h6v-9H80v7Z"/><path class="cls-2" d="M80,192h0.65c0.42,0,.35,0,0.35.43v6.05c0,0.42.08,0.52-.35,0.52H80v6h7V191H80v1Z"/><rect class="cls-2" x="80" y="246" width="7" height="10"/><path class="cls-2" d="M87,226H80v6h0.65c0.42,0,.35.11,0.35,0.53v6.05c0,0.42.08,0.42-.35,0.42H87V226Z"/><path class="cls-2" d="M87,190v-1.79A2.66,2.66,0,0,0,84.78,186H80v4h7Z"/><path class="cls-2" d="M81,219.07c0,0.42.08,0.93-.35,0.93H80v5h7v-9H81v3.07Z"/><rect class="cls-2" x="80" y="240" width="7" height="5"/><rect class="cls-2" x="76" y="190" width="4" height="1"/><rect class="cls-2" x="80" y="190" width="7" height="1"/><rect class="cls-2" x="81" y="215" width="6" height="1"/><polygon class="cls-2" points="76 239 76 240 80 240 80 239 76.77 239 76 239"/><polygon class="cls-2" points="80 239 80 240 87 240 87 239 80.65 239 80 239"/><polygon class="cls-3" points="154 134 154 135.13 158.09 139.2 159.63 137.67 152.59 130.62 145.54 137.67 147.14 139.2 152 134.41 152 134 154 134"/><polygon class="cls-3" points="153.98 135.13 153.98 133.51 152.07 133.51 152.07 134.41 152.66 133.69 153.98 135.13"/><path class="cls-4" d="M160.22,73.6V64.75a3.16,3.16,0,0,0-3.16-3.16h-8.85A3.16,3.16,0,0,0,145,64.75V73.6a3.16,3.16,0,0,0,3.16,3.16h8.85A3.16,3.16,0,0,0,160.22,73.6Zm-8.08-.68a4.42,4.42,0,1,1,4.42-4.42A4.42,4.42,0,0,1,152.14,72.93Z"/><path class="cls-4" d="M152.48,65.62l-0.16,0a1.84,1.84,0,1,1-2.78,2.22,3,3,0,0,0-.13.83A3.07,3.07,0,1,0,152.48,65.62Z"/><path class="cls-5" d="M180,50V45.69a4.06,4.06,0,0,1-1.14.31H178v4h2Z"/><path class="cls-5" d="M134.59,49.65A7.61,7.61,0,0,0,131.81,54c-0.2.81-.69,4.1-1.27,7.91-0.71,4.69-1.51,10-1.91,11.65a3.25,3.25,0,0,0,.51,3.14,1.5,1.5,0,0,0,1.48.4,2.9,2.9,0,0,0,1.74-2.26l1.73-7.16c1.25-5.17,2.72-11,3-12.13,0.32-1.3,1-1.57,2.54-1.57h4.58a1.65,1.65,0,0,1,.85.75c1.09,1.32,2.22,2.56,4,2.68a21,21,0,0,0,3.41,0,26.61,26.61,0,0,0,3.47-.08c1.81-.13,2.94-1.26,4-2.57a1.7,1.7,0,0,1,.85-0.76h4.75c1.51,0,2.22.26,2.54,1.57,0.28,1.15,1.88,7.62,3.16,12.92l1.57,6.44a2.84,2.84,0,0,0,1.73,2.23,1.5,1.5,0,0,0,.4,0,1.53,1.53,0,0,0,1.07-.47,3.25,3.25,0,0,0,.51-3.14c-0.4-1.65-1.2-7-1.91-11.65-0.57-3.81-1.07-6.93-1.27-7.74a7.09,7.09,0,0,0-2.77-4.2H177V45.69h-4.15c-2.18,0-4.3-1.07-6.76-2.31-3.4-1.71-7.62-3.84-13.61-3.84s-10.21,2.13-13.61,3.84c-2.46,1.24-4.61,2.31-6.78,2.31H128v4h6.59Z"/><path class="cls-5" d="M127,50V46h-1a15.54,15.54,0,0,0-2-.31V50h3Z"/><path class="cls-5" d="M184.62,50c0,1,.62,4.6,2.26,6.36a3.75,3.75,0,0,0,2.76,1.23,3.9,3.9,0,0,0,2.78-1.42,10.77,10.77,0,0,0,2.2-7.13l-0.1,0A3.77,3.77,0,0,0,191,45.75V46h-4V45.69h-6V50h3.62Z"/><path class="cls-5" d="M110.44,49c-0.14,2.11.52,5.32,2.14,7.1a3.49,3.49,0,0,0,5.5.05c1.64-1.76,1.88-4.72,1.91-6.53h3v-4h-6V46h-3V45.75A3.79,3.79,0,0,0,110.44,49Z"/><path class="cls-6" d="M91.16,36.15a47.08,47.08,0,0,0,11.21,1.32,47,47,0,0,0,11.21-1.32,0.18,0.18,0,1,0,0-.35,48.43,48.43,0,0,0-22.42,0A0.18,0.18,0,1,0,91.16,36.15Z"/><path class="cls-6" d="M118.22,36.15a47.08,47.08,0,0,0,11.21,1.32,47,47,0,0,0,11.21-1.32,0.18,0.18,0,1,0,0-.35,48.43,48.43,0,0,0-22.42,0A0.18,0.18,0,1,0,118.22,36.15Z"/><path class="cls-6" d="M115.88,32.25c-0.88,0-1.59,1.75-1.59,3.75h3.18C117.47,34,116.76,32.25,115.88,32.25Z"/><rect class="cls-5" x="117" y="39" width="2" height="7"/><rect class="cls-5" x="114" y="39" width="3" height="7"/><path class="cls-6" d="M164.58,36.15a47.08,47.08,0,0,0,11.21,1.32A47,47,0,0,0,187,36.15a0.18,0.18,0,1,0,0-.35,48.43,48.43,0,0,0-22.42,0A0.18,0.18,0,1,0,164.58,36.15Z"/><path class="cls-6" d="M191.65,36.15a47.08,47.08,0,0,0,11.21,1.32,47,47,0,0,0,11.21-1.32,0.18,0.18,0,1,0,0-.35,48.43,48.43,0,0,0-22.42,0A0.18,0.18,0,1,0,191.65,36.15Z"/><path class="cls-6" d="M189.3,32.25c-0.88,0-1.59,1.75-1.59,3.75h3.18C190.89,34,190.18,32.25,189.3,32.25Z"/><rect class="cls-5" x="187" y="39" width="4" height="7"/><rect class="cls-7" x="123.69" y="49.65" width="1.08" height="0.01"/><path class="cls-7" d="M124.78,45.33h-1.08v0.36h1.08V45.33Z"/><path class="cls-7" d="M124,50V46h-1v4h1Z"/><rect class="cls-7" x="126.94" y="45.33" width="1.08" height="0.36"/><rect class="cls-7" x="126.94" y="49.65" width="1.08" height="0.01"/><rect class="cls-7" x="127" y="46" width="1" height="4"/><rect class="cls-7" x="176.8" y="45.33" width="1.08" height="0.36"/><rect class="cls-7" x="177" y="46" width="1" height="4"/><path class="cls-7" d="M181.14,45.33h-1.08v0.36h1.08V45.33Z"/><path class="cls-7" d="M181,50V46h-1v4h1Z"/></svg>