<svg id="Layer_1" data-name="Layer 1" xmlns="http://www.w3.org/2000/svg" xmlns:xlink="http://www.w3.org/1999/xlink" viewBox="0 0 300 300"><defs><style>.cls-1,.cls-6{fill:#fff;}.cls-2{fill:#e3e5e5;}.cls-3{fill:#ee6a4c;}.cls-4{clip-path:url(#clip-path);}.cls-5{fill:#dbdcdd;fill-rule:evenodd;}.cls-6{stroke:#999;stroke-linecap:round;stroke-linejoin:round;stroke-width:2.21px;}.cls-7{fill:#3fc0c2;}.cls-8{fill:#e1574c;}.cls-9{fill:#edc55d;}.cls-10{fill:#3cb19c;}</style><clipPath id="clip-path"><rect class="cls-1" x="54" y="75" width="193" height="46"/></clipPath></defs><title>Infog</title><path class="cls-2" d="M252.54,41H48.89C45.09,41,42,44.39,42,48.56V213H258v-1h1V48.56C259,44.25,256.22,41,252.54,41ZM257,64H44V48.56C44,45.89,45.87,43,48.89,43H252.54c2.93,0,4.46,2.8,4.46,5.56V64Z"/><rect class="cls-3" x="59" y="192" width="29" height="8"/><rect class="cls-1" x="54" y="75" width="193" height="46"/><g class="cls-4"><path class="cls-5" d="M193.32,94.85h0Zm-48.71,1.87h0Zm-1.47-2.16h0Zm4-.2a0.06,0.06,0,0,1,0,0,0.07,0.07,0,0,1,0,0h0Zm-0.2-.1a0.07,0.07,0,0,1,0,0s0,0,0,0h0Zm-3.83-.2h0ZM144.61,92a0.07,0.07,0,0,1,0,0s0,0,0,0h0Zm-1.47,2.06c0.07,0.27,0,.18-0.2.2s0-.09,0-0.1a0.12,0.12,0,0,0-.11.08s0.16-.14.11,0,0,0.16.2,0.29-0.38.08-.21,0.28a1.09,1.09,0,0,0,1,.33c0.34-.13.52-0.78,0.87-0.71s0.14,0.31.39,0.88,0.56,0.61.39,0.88-0.37-.26-0.49.1,0.53,0.12.2,0.49-0.43-.4-0.41-0.55a0.62,0.62,0,0,0,0-.24,0.42,0.42,0,1,1,0-.06,1.4,1.4,0,0,0,0-.63c-0.13-.25-0.35.16-0.53,0.26s0.16-.2-0.18.12,0.09,1.23.07,1.5-0.21.19-.42,0.24a2.29,2.29,0,1,0-.28.08c-0.81.24-.6,0.58-1.41,1.15a3.32,3.32,0,0,0-.6.58,0.57,0.57,0,0,0-.29.3c-0.24.23-.48-0.36-0.69-0.2s0.52,0.32.1,0.49-0.65-.54-1.08,0,0.34,0.31.7,0.58,0,0,.26.32,0.26,0,.32.44,0.19,0.87-.2,1a4.43,4.43,0,0,1-1.52-.12,3.8,3.8,0,0,0-.65,0,0.46,0.46,0,0,0-.34.1c-0.25.11-.29,0-0.34,0.16a0.61,0.61,0,0,0,.13.38,1.33,1.33,0,0,1,.06.51c0,0.31-.51.68-0.29,1.18a1.38,1.38,0,0,0,.27.52c0.21,0.3.42-.11,0.72,0.06a0.67,0.67,0,0,1,.49.49c0.12,0.37-.09,0-0.2.29a0.86,0.86,0,0,1-.18.41,2.92,2.92,0,0,0-1.19,1c-0.28.68-.15,1.11-0.77,1.39a1,1,0,0,0-.67.41c-0.28.32-.79,0.81-1,1.14s0.19-.22-0.22.48,0,0.7-.08,1.29a2.4,2.4,0,0,1,0,.87c-0.17.72-.47,0.47-0.49,1s0.2,0,.24.53,0.36,0.58.84,1-0.06,0,.29.21a3.41,3.41,0,0,1,.56.91c0.27,0.32-.19-0.29.79,0.49s1.53,0.5,2.39.44,0-.18.66,0,1-.25,2.23-0.44,0.62,0.5,1.14.75,1.05-.18,1.37-0.1,0.15,0.17.26,0.44a1,1,0,0,1-.1.7,0.24,0.24,0,0,0,0,.07l-0.11.39c-0.08.28-.26,0,0,0.62s1.12,1.08,1.55,2.32-0.12-.11.08,0.7,0.26,0.65-.25,1.25,0.06,0-.31.78-0.14.75,0.29,1.67a3.87,3.87,0,0,1,.59,1.67,2.56,2.56,0,0,0,.23,1,8.28,8.28,0,0,0,.59.89,9.08,9.08,0,0,1,.44,1.05c0.19,0.47,0,.27,0,0.46a0.64,0.64,0,0,0,0,.21c0,0.09-.34.26,0,0.37s0,0.32,1,.13a10,10,0,0,0,2.92-.62,8.9,8.9,0,0,0,1.93-2,2,2,0,0,1,.13-0.85c0.21-.4.82,0.35,1.08-0.69s-0.72-1,.11-1.75,1.82-1,2.15-1.58,0.06-.1.08-0.54a1.54,1.54,0,0,0-.09-1.31,2.1,2.1,0,0,1-.32-1.2c-0.1-.56-0.11-0.12-0.26-0.38s0.06-.1.1-0.19a1.76,1.76,0,0,1,.14-0.25c0.1-.17.14-0.2,0.31-0.47s-0.5.62,0.72-.69,2.3-1.79,3.24-3.4,0.38-.66.46-0.81,0,0,0-.06a0.54,0.54,0,0,0,0-.18c0-.1.4-0.54,0-0.53a15.08,15.08,0,0,0-2.13.42c-0.84.19-.75,0.17-1.11-0.23s-0.44-.22.1-0.39a4.14,4.14,0,0,1,1.05-.34,1.33,1.33,0,0,0,.74-0.17,11.42,11.42,0,0,1,1.1-.43,0.52,0.52,0,0,0,.38-0.11,2,2,0,0,1,1.06-.61c1-.25.29-0.18,0.64-0.44s0.09-.06.12-0.08l0.05,0a0.89,0.89,0,0,1,.55-0.24c0.29,0-.1.1-0.1-0.2a0.72,0.72,0,0,1,.42-0.57c0.28-.26.8-0.12,0.37-0.61a0.92,0.92,0,0,0-.91-0.57,0.71,0.71,0,0,1-.56-1c0-.29-0.2.11-0.25,0.14s0,0-.05,0-1,1-1.56.7,0.17-.61-0.2-0.79,0.07,0.55-.39.29-0.2-.54-0.53-0.85a0.31,0.31,0,0,1-.15-0.15c-0.24-.29-0.55-0.74.06-0.83s0.58,0.71,1,.91,0.57,0.3.95,0.44a0.83,0.83,0,0,0,.78-0.12c0.29-.12-0.06-0.5.31-0.09a1.12,1.12,0,0,0,1,.67,8,8,0,0,0,1.69.09c0.6,0,1,0,1.19,0s-0.09,0,.07,0,0.43,0.48.67,0.63a0.47,0.47,0,1,0,.12.07l0.23,0.16,0.06,0c0.08,0.06.13,0,.17,0.13s-0.63-.1-0.22.18,0.49-.49,1.59.12,0.81,2.7,1.15,3.47a1,1,0,0,0,.4.58c0.27,0.41.31,1.11,0.71,1.26s0.14,0,.46-0.32,0.41,0.07.62-.56a2.16,2.16,0,0,0,.05-0.92,5,5,0,0,1-.05-1.14,2.19,2.19,0,0,1,.63-0.25c0.25-.22.33-0.29,0.81-0.76a2.57,2.57,0,0,1,.7-0.59c0.43-.3,0-0.42.32-0.66a1.52,1.52,0,0,1,.87-0.1,1.6,1.6,0,0,1,.89-0.29,1.85,1.85,0,0,0,.42.76c0.44,0.36.34,0.05,0.46,0.61s0.09-.18.39,0.2,0.05,0.1,0,.55,0.17,0.23,1.15,0,0.48,1,.68,1.58a6.26,6.26,0,0,1,0,1.86c0,0.37-.08-0.41.46,0.22s0.35,1.1.86,1.7,0.45,0,.25.34-0.43-.09-0.69-0.29-0.67-.54-0.86-0.71a0.78,0.78,0,0,0-.27-0.22c-0.13-.06-0.88-0.55-0.93-0.15s0.59,0.68,1,1.16a1.29,1.29,0,1,0,.09.1,2.29,2.29,0,0,1,.42.47l0.26,0.43c0.05,0.08-.25-0.32,0,0.05a5.78,5.78,0,0,0,.78,1.19l0.91,0.76c0.37,0.31.33-.12,0.82,0.16s-0.66.2-.2,0.49a1.48,1.48,0,0,0,.93.24,3.87,3.87,0,0,0,.53.06c0.33,0,.1.07,0.54,0.15s1.25,0.13,1.51.16,0,0,.05,0h0.12s0.37,0.29.33,0,0-.18-0.34-0.28-0.4,0-.74-0.11,0.8-.06.49-0.29-0.28.06-.91-0.08,0,0-.77.08-0.46.4-1.56-.39,0.29-.43.39-1-0.49-.89-0.59-0.59,0.11,0.6-.2.29a4.66,4.66,0,0,1-.49-0.49c-0.32-.37.14-0.37-0.11-0.66a0.54,0.54,0,0,0-.26-0.24c-0.3-.23-0.4.1-0.31-0.28s0.08,0,.31.08,0.62,0.67.87,0.41-0.29-.44-0.5-0.87a1.7,1.7,0,0,0-.93-1.43c-1-.57-0.3-0.2-0.41-0.5a1.93,1.93,0,0,1-.22-0.44c0-.23.08-0.13,0.11-0.19s0,0.2-.11.19-0.22.21-.29-0.1a3.82,3.82,0,0,1,.22-1.3c0.09-.35-0.12-0.59.27-0.18a2.09,2.09,0,0,0,.68.51c0.43,0.3,0-.06.12,0.09a2.82,2.82,0,0,0,.51.53c0.18,0.09.41,0.14,0.36,0.73s0,0.06.28-.11a4.44,4.44,0,0,1,.86-0.62c0.56-.27.84-0.19,0.68-1.18a3.32,3.32,0,0,0-1.32-1.74,1.37,1.37,0,0,1-.3-0.38,0.31,0.31,0,0,1,0-.39,1.42,1.42,0,0,1,.81-0.67c0.51-.17.45,0,0.58,0.16s0,0,0,.06,0.46,0.13.24,0.26-0.67.09-.59,0.49,0.66,0.26.82,0,0.28-.11.16-0.34-0.9,0-.39-0.59a2.92,2.92,0,0,1,1.18-.69c0.29-.25.36,0.14,0.6,0.08s-0.18.15,0.06,0,1-.67,1.37-1,0.07-.5.13-0.85,0.15,0,.31-0.18a0.33,0.33,0,0,0,.11-0.18,1.47,1.47,0,0,0,.37-1c-0.08-.4-0.41-0.1-0.49-0.29s0.27,0.13.29-.2,0,0-.14-0.25,0-.07,0-0.21,0.25,0-.09-0.25,0,0.47-.32-0.08-0.66-.64-0.79-1-0.09-.58.45-0.91,1.11,0,.63-0.56a0.76,0.76,0,0,0-1.28.29c-0.15.35-.15,0.41-0.29,0s-0.75-.33-0.69-0.88,0.06,0.56.49,0a5.39,5.39,0,0,0,.59-1.08c0.27-.45.38-0.16,0.49,0.1a6.14,6.14,0,0,1-.2,1c0.06,0.25-.1.09,0.14,0s0.13-.2.53-0.42,0.84-.86.9,0,0.49,0.59.77,1-0.29-.06-0.18.38-0.41.58,0.39,1.18,0.62-.27,1-0.29,0.29-.8-0.12-1.35-0.84-.42-1.05-0.91,0.67-.68.49-1.31,0-.21.35-0.51a1.47,1.47,0,0,1,.34-0.44c0.3-.18,0,0.63.59,0.29s1.13-2,1.33-2.88a2.07,2.07,0,0,0,0-1.29,0.49,0.49,0,0,0-.17-0.37,2,2,0,0,1-.13-1.15c0.09-.41.2,0.05,0.32,0.27a9.24,9.24,0,0,1,.42.86,2.37,2.37,0,0,1,.13.56c0.1,0.39.19,0.28,0.43,1.14s0.12,0.64.37,0.71S194.74,98,195,98s0.16,0.56.49,0.29,0-.23-0.14-0.45-1-.67-0.65-1.41,0.35,0.12.59,0.2,0,0.09,0,.1a0.12,0.12,0,0,0,.11-0.08s0.11,0.29-.11,0a17.29,17.29,0,0,1-1.39-2.15A2,2,0,0,0,193.7,94c-0.09-.18-0.35-1.15-0.68-0.8s1.18,0.76-.1.79-0.92-.49-1.28-0.49,0,0.55-.29.49-0.08-.36-0.12-0.62-0.11-.4-0.37-0.37,0.1,0.26,0,.29-0.29-.47-0.3-0.2,0,0.73-.39.29,0.28-.23.49-1.09,0.37-.87.4-1.22a0.29,0.29,0,1,1,0,0s0-.12,0-0.15a0.24,0.24,0,0,1,0-.06l0.07-.27a0.11,0.11,0,0,0,0-.07,0.73,0.73,0,0,1,.07-0.54,1.36,1.36,0,0,1,.6-0.19,7,7,0,0,0,.9-0.16c0.81-.22-0.33-0.14.76-0.53s0.6,0.35,1,.49a1,1,0,0,0,1.18-.49c0.18-.41-0.25-0.05-0.49-0.39s0.14-.31.2-0.63a1.28,1.28,0,0,0,0-.48,0.6,0.6,0,0,1,.23-0.58,0.6,0.6,0,0,1,.34-0.13,4.63,4.63,0,0,0,.55-0.15c0.39-.11-0.19.42,0,0.59s0.31,0.34.59,0.2,0-.27.16-0.63,0.17-.2.33-0.35,0,0.09,0,.1a0.12,0.12,0,0,0,.11-0.08s-0.09,0-.11,0-0.26-.34,0-0.2a0.75,0.75,0,0,1,.39.88c0,0.62-.34.34-0.3,0.84a5.32,5.32,0,0,1-.18,1,0.79,0.79,0,0,1-.23.76c-0.25.19-.45-0.44-0.28,0.12a0.91,0.91,0,0,1,.12.81c-0.07.68,0-.09,0.07,0.32a7.39,7.39,0,0,0,1,1.94c0.26,0.33.29,0.41,0.46,0.62a0.62,0.62,0,0,1,.18.21c0.23,0.34.25,1,.66,0.81s0.18-.28.2-0.69a5.42,5.42,0,0,1-.1-0.78c0.07-.29.43,0.12,0.39-0.11a1.36,1.36,0,0,1-.3-0.58c0-.4.26,0,0.5-0.49s-0.35-.54-0.49-0.93-0.11-.28,0-0.34,0.31,0.32.39,0.11,0.21-.18-0.27-0.63-0.25-.17-0.35-0.57,0.11,0-.08-0.18-0.07-.06-0.2,0,0.06,0.46-.26,0a3,3,0,0,1-.41-1.41c-0.13-.7.08-0.17,0.33-0.3s-0.13-.23.26-0.34,0.14,1.28.39,0.39,1.35-.08,1.47-0.49,0-1.49.29-1.82,0.18-.53.47-0.77a2.47,2.47,0,0,1,.91-0.07c0.3-.13-0.13-0.43-0.16-0.53s0,0,0-.06a0.33,0.33,0,0,0-.08-0.11,3.94,3.94,0,0,0-.7-0.38c-0.17-.1.24-0.13,0-0.29a1.06,1.06,0,0,1-.45-0.24c-0.35-.31-0.28-0.06-0.53-0.15s-0.25-.15,0-0.2a0.45,0.45,0,0,0,.5-0.49A0.86,0.86,0,0,0,201,81.3c-0.28-.24-0.48,0-0.59-0.2a0.25,0.25,0,0,1,.11-0.39,0.57,0.57,0,0,1,.26.31c0.13,0.12.23,0.28,0.41,0.18a0.57,0.57,0,0,0,.14-0.35c0.1-.12,0-0.29.25-0.24a0.88,0.88,0,0,1,.29.39c0.21,0.21,1.59-.05,1.13-0.53a1.5,1.5,0,0,1-.41-0.57c-0.19-.26-0.43.21-0.22-0.27a0.71,0.71,0,0,0,.09-0.77c-0.11-.39.22-0.08,0-0.31a1.47,1.47,0,0,0-1-.16,0.27,0.27,0,0,0-.21,0l-0.07,0-0.07,0a0.63,0.63,0,0,0-.33.36c-0.05.14,0.18,0.27-.1,0.1a2,2,0,0,0-1.38-.48,10.24,10.24,0,0,0-1.06-.08,2.18,2.18,0,0,1-.86-0.17,5,5,0,0,0-2,.06c-0.48.12-.64,0.07-0.92,0.13s-0.16,0,0,.4,0.85,0.33.83,0.84,0,0.09-.25.12-0.09,0-.2-0.06a0.3,0.3,0,0,1-.11-0.08,0.11,0.11,0,0,0-.06,0,0.72,0.72,0,0,1-.35-0.15c-0.32-.19.13-0.53-0.33-0.66s-0.07-.13-0.26.06,0.09,0.54-.74.67a1,1,0,0,0-.64.14c-0.25.09,0,.46-0.39,0.49s-0.38.3-.88-0.1-0.67-1.18-1.33-1-1.39.79-1.72,0.75-0.25-.43-0.61-0.4-0.4.4-.66-0.19-0.89-.24-1.48-0.21a6.73,6.73,0,0,0-2.05,0c-0.44.25,0,.13,0.29,0.2s0.17,0.12,0,.2-0.29.1-.29,0.29,0.09,0.07.2,0.17,0.49,0,.48.42-0.17.06-.7,0.27a0.59,0.59,0,1,1-.17.06,0.91,0.91,0,0,0-.5,0,0.48,0.48,0,0,1-.41.38c-0.33,0-.51-0.65-0.67-0.29s0.68,0.79.29,1.08-0.82-.28-1.18-0.69,0,0.14-.1-0.1a5.12,5.12,0,0,0-.59-0.39c-0.21-.29.18-0.23-0.05-0.42a1.16,1.16,0,0,0-.67-0.34,2.92,2.92,0,0,1-.94,0c-0.44-.15-0.2,0-0.3-0.2s-0.23-.32-0.2,0a1.43,1.43,0,0,1,.3,1c-0.06.82-.3,0.27-0.93,0.14a1.4,1.4,0,0,0-.64.06c-0.34-.07.32-0.61-0.2-0.49a7,7,0,0,0-1.47.49c-0.52.24-.3-0.55-0.38-0.31s0.18,0.35-.11.41-0.22-.3-0.58-0.28-0.34.4,0,.38-0.11.24-.32,0.47a0.57,0.57,0,0,1-.57.32c-0.3,0,0-.13.13-0.37a7.44,7.44,0,0,0,.35-0.92c0.17-.52.57-1.23,0.14-1.69a4.12,4.12,0,0,0-1.42-.85c-0.5-.25-0.66.16-1.07,0.19s0,0,.07.13,0.36,0.35,0,.36,0-.34-0.29-0.69-0.75.4-.79,0.1,0.1-.38-0.11-0.48-0.3-.68-0.68-0.11,0.09,1.34.06,1.55-0.29.16-.46,0.21,0.06,0.09.09,0.17,0.22,0.36-.38.51,0.07-.17-0.2-0.39-0.18.06-.33,0.17a2,2,0,0,0-.4.18c-0.58.31,0.53,0.06-.33,0.53a1.94,1.94,0,0,0-.92.76,1.05,1.05,0,0,1-.57.41c-0.17.08-.4,0.15,0,0.2s0.29,0.08.35,0.18a0.37,0.37,0,0,0,.06.09l0,0.06s0.06,0,0,.06-0.09,0-.1,0a0.12,0.12,0,0,0,.08.11s-0.14-.11,0-0.11,0.52-.16.49,0.1a1.09,1.09,0,0,1-.74.43c-0.28.13-.75-0.15-0.93,0.25s-0.19-.09.16,0.53,0.93,0,1.31.94-0.72-.12-1.33-0.34-0.71-.22-0.83,0,0.07,0.15.2,0.2,0,0,.06,0,0.61,0.19.33,0.25-0.41-.3-0.69-0.1,0.07,0.42.28,0.51,0.77,0,.61.18-0.38.49-.79,0-0.32-1.52-.79-1.28,0.25,0.4.11,0.8-0.33.34,0.18,0.82,0.23,0.17.32,0.61a0.76,0.76,0,0,0,.12.37c0.12,0.3-.41.06,0.15,0.44s0.62-.2,1-0.2,0.08,0-.11.08-0.46,0-.47.41,0.31,0.4.29,0.84,0-.1-0.11.32-0.52.88-1,.6,0.32,0,.44-0.26,0-.16.15-0.62a1,1,0,0,0-.35-1,1.74,1.74,0,0,1-.47-1,12.87,12.87,0,0,1-.75-2c-0.23-1.07-.65.1-0.78-0.1s0.39-.43-0.11-0.47-0.2,1.14-.22,1.57a4.45,4.45,0,0,0-.26.67c0,0.46.2,0.16,0.33,0.62a2.23,2.23,0,0,0,0,.3c0.15,0.46.34,0.31,0.4,0.33s0-.05,0,0L163,87.36c0.09,0.07,0,0,0,.07s0.3,0.25,0,.26a3.48,3.48,0,0,1-.84-0.44,2.42,2.42,0,0,1-.44-0.15,5.17,5.17,0,0,0-1.49-.28c-0.7-.13-0.59-0.79-1-0.41s0.24,0.41.73,0.74a2,2,0,0,0,.35.24c0.24,0.14.07,0.22,0,.29s-0.25-.13-0.29,0,0.39,0.56.1,0.39,0-.37-0.29-0.59-0.54.26-.66,0.32a0.7,0.7,0,0,1-.15.05c-0.08,0,.1-0.07-0.21.09s-0.13.36-.56,0.12,0-.15,0-0.25a0.15,0.15,0,0,1,0-.08s0.19-.1,0-0.06a0.6,0.6,0,0,0-.3.17l0,0a0.67,0.67,0,1,1-.09.05,4.73,4.73,0,0,0-1.26.82c-0.41.44,0,0-.13,0.17s0.17,0.35-.15.43a0.48,0.48,0,0,1-.69-0.39c0-.37.21,0.4,0.39-0.2s-0.8-1-1.18-.59,0.32,0.15.35,0.75,0.12,0.26.21,0.56,0.2,0.27,0,.36a0.9,0.9,0,0,1-.59-0.2c-0.11,0,.09,0,0.1,0a0.12,0.12,0,0,0-.08-0.11s0.12,0,0,.11a3.47,3.47,0,0,0-.79.79c-0.09.28,0.45,0.56,0.05,0.54s-0.65-.49-0.93-0.35-0.15,0-.1.29,0.09,0.1.2,0.15,0-.11.07,0-0.05-.06.13,0.09,0.38-.08.19,0.21-0.56.58-1-.25a6.13,6.13,0,0,0-.88-1.42c-0.28-.32.08,0,0.32,0.06a3,3,0,0,0,1.18.31,0.78,0.78,0,0,0,.22-1.53c-1-.29.15,0.16-0.37-0.19a4,4,0,0,0-1.74-.42c-0.45-.05-0.11-0.36-0.52-0.3s-0.56.22-.56,0,0.33-.21.49-0.29,0.21-.14,0-0.2a4.49,4.49,0,0,0-.8-0.21c-0.15,0,0,0,0,0s-0.25.26-.23,0.1,0.14-.4-0.17-0.35-0.21.35-.22,0.54a0.26,0.26,0,1,1-.06-0.14C149.27,87,149.29,87,149.13,87s0.1-.16,0-0.2a0.65,0.65,0,0,0-.36,0,0.42,0.42,0,0,0-.22.15c-0.13.11,0-.09,0-0.1a0.12,0.12,0,0,0-.11.08s0.27-.14.11,0-0.67,0-.59.24,0.34-.19.2,0.15-0.35,0-.49.1,0.2,0.18.1,0.2a2.27,2.27,0,0,1-.35-0.15c-0.17,0-.07,0-0.24.15s-0.2-.07-0.29-0.1,0,0.18,0,.2,0,0,0,.11-0.35-.13-0.48.18,0.19,0.19.2,0.49-0.24,0-.42-0.11,0.17,0.32,0-.13,0.23-.31-0.12-0.16-0.11.22-.2,0.38a1.41,1.41,0,0,0-.1.19,0.8,0.8,0,0,1-.08.21,0.37,0.37,0,0,1-.2.1c-0.15,0-.2,0-0.2.2s0.13-.15.2-0.2a0.22,0.22,0,0,1,.2-0.1c0.19,0,.67-0.58.69-0.2s0.07-.27-0.23.26-0.74,1.78-1,2.16S145,91,144.92,91a5.36,5.36,0,0,0-.32.5c-0.25.29,0.35,0.38-.19,0.49a1,1,0,0,0-.52.11,1.3,1.3,0,0,0-.42.33,0.24,0.24,0,0,0-.12.09c-0.31.27-.58,0.28-0.56,0.7a0.87,0.87,0,0,0,.2.67c0.16,0.22.07-.1,0.14,0.17h0Zm9.23,7.13c0.16-.41-0.18-0.27.29-0.46s0.55,0.16,1,.2,0,0.2-.1.26-0.54,0-.2.13-0.27,0,.39.29,1-.39,1.78,0a3.65,3.65,0,0,1,.78.5c0.36,0.2.77,0.11,0.68,0.69s-0.69.35-1.1,0.36a1.18,1.18,0,0,1-.68-0.16c-0.2-.08.3,0.06-0.54-0.2s-1.55.44-2.37,0.26-0.45-.15-0.54-0.43,0-.12.21-0.73a3.34,3.34,0,0,1,.4-0.71h0Zm2,0c-0.2-.07-0.24-0.19-0.11-0.36s1.19-.8,1.39-0.49,0,0.37-.39.85-0.68.07-.88,0h0Zm4.52,0c0.14-.51.33-0.28,0.81-0.63a1.17,1.17,0,0,1,1.09-.28c0.41,0.06.68,0.28,0.25,0.65s-0.47-.11-0.59.26-0.24-.33-0.29.23,0.68,0.18,1,.79a2.72,2.72,0,0,1,.25,1.08c0.13,0.53,0,.09.07,0.18s0,0,0,0,0-.07.15,0.17,0.86,0.9.48,1.28a1.24,1.24,0,0,1-1.4-.17c-0.47-.22-0.17-0.08-0.2-0.09a0.67,0.67,0,0,1-.36-0.91c0.2-.7.29,0,0.39-0.41s-0.32-.17-0.55-0.43,0.36,0.29-.22-0.28a3.78,3.78,0,0,1-.64-0.93c-0.46-.61-0.4,0-0.26-0.55h0Zm-10.21-4.83c0.12,0.29,0,.08.17,0.18a2.16,2.16,0,0,0,.42.07c0.18,0.07.35,0.24,0,.29s-1.06.09-1.38,0.1,0.25-.34-0.2-0.29-1.13.81-1.47,0.69,0.08-.23-0.2-0.49-0.81.18-1,.22,0.06,0-.06,0-0.53-.12-0.33-0.4,0.48,0.54.79,0.29a0.68,0.68,0,0,0,.2-0.69c0-.25,0,0,0,0.06a1.73,1.73,0,0,0,.26.23c0.06,0,0,0,.06,0s0.27-.22.39-0.29,0.62,0.25.73-.16a0.77,0.77,0,0,0,0-.62,0.72,0.72,0,0,1,0-.75c0.23-.36.58-0.13,0.56-0.57s-0.46-.36-0.65-0.61a1.29,1.29,0,0,1,.19-1.09,0.69,0.69,0,0,1,.15-0.14,1.37,1.37,0,0,0,.84-1.16c0-.79.72-0.72,1.28-0.56s0.24,0.15-.2.54a4,4,0,0,1-1.08.83c-0.49.23,0,.3,0.1,0.68a7,7,0,0,0,.1,1c0.12,0.34.59,0.17,0.64,0.26s-0.22.13,0,.13a8.52,8.52,0,0,1,1.06-.32,2.54,2.54,0,0,1,1.1,0c0.44-.06.35,0.08,0,0.2a1.25,1.25,0,0,1-.67.26,2.23,2.23,0,0,0-.89,0,0.87,0.87,0,0,0-.34.16l-0.13.07c-0.23.13-.61,0.58-0.33,0.74s0.13-.58.49-0.39,0.35,0.33.29,0.79-0.18.2-.29,0a0.65,0.65,0,0,0-.29-0.39c-0.17-.07,0,0-0.18.11a1.14,1.14,0,0,0-.21,1h0Zm20.23,14.29,0.21,0.05-0.21-.05h0Zm-27-6.48h0Zm51.07,2.55a2.07,2.07,0,0,1-.11.19,1.09,1.09,0,0,1,.11-0.19s0.09,0,.1,0a0.12,0.12,0,0,0-.08-0.11s0,0.06,0,.11h0Zm-42.13-2a0.36,0.36,0,0,1-.1-0.1c-0.1-.1-0.41-0.39-0.49-0.49s0.09,0,.1,0a0.12,0.12,0,0,0-.08-0.11s0.1,0.22,0,.11a0.87,0.87,0,0,1-.39-0.69c0.09-.26.1,0.45,0.38,0.31s0.25-.33.45-0.41-0.13,0,.19-0.07-0.12.62,0.25,0.86,0.45-.1.39,0.2-0.5-.23-0.39,0a8.77,8.77,0,0,0,.76.8c0.2,0.26-.59.33,0,0.38s0-.55.49-0.39-0.2.29,0.29,0.29-0.31-.1.39-0.29,0.75,0.42,1.49,0,0.3-.33.57,0,0,0.34,0,.78a1.73,1.73,0,0,1-.59,1.38c-0.39.15-.77-0.23-1.42-0.05a1.68,1.68,0,0,1-1.27,0,1.88,1.88,0,0,1-.83-0.15c-0.86-.29-1-0.56-1.78-0.38s-0.22.09-.25,0.48,0.4,0.33-.14.6-0.63.18-1.47-.49a7,7,0,0,0-1.76-.8c-0.47-.31,0,0,0,0s0,0,0,0-0.06.31-.31,0,0.25-.13.29-0.59,0.33-.25,0-0.79-0.3-.08-0.67-0.08-0.51.08-.91,0.11-0.91,0-1.57.09a2.73,2.73,0,0,0-1.43.5c-0.65.35-.36,0.09-0.73,0s-0.67.54-.87-0.08,1.06-.42,1.42-0.65,0.19-.13.28-0.22,0.38,0.35.37-.41,0.69-.9,1-1.39,0-.74.47-0.76,0.49,0.53.92,0.19-0.1-.3.59-0.59,0.51,0.46.87,0.71,1.06,0.66,1.27.79a1.76,1.76,0,0,1,.24.14c0.31,0.2.58,0.16,0.61,0.64s-1,.42-1.32.47-0.28.21,0,.29,0.8,1,1.08.39a1.21,1.21,0,0,1,.47-0.71c0.41-.43-0.29-0.63.12-1s0.23,0.43.59,0.2-0.14-.36-0.67-0.62-0.08-.05-0.3-0.24a1,1,0,0,0-.45-0.18,3.28,3.28,0,0,1-.63-0.66c-0.46-.41-0.4-0.31-0.41-0.76s0.31-.1.39-0.11,0,0,0,.06a0.16,0.16,0,0,0,0,.05s0,0,0,.1a0.39,0.39,0,0,0,.25.17h0.05a0.14,0.14,0,1,1,0,0,2.65,2.65,0,0,1,.45.43,7.72,7.72,0,0,1,1.45.91c0.15,0.34,0,.38.17,0.82a1.82,1.82,0,0,1,.41.68c0.11,0.54,0,.25.16,0.3s-0.3-.33,0-0.29,0.14,0.45.65,0.74a0.82,0.82,0,1,1,.13.09,0.12,0.12,0,0,1,0,0s0.05,0.39.07,0.11a1.1,1.1,0,0,1,0-.79c0.21-.26.29,0,0.39,0a0.22,0.22,0,0,1,.2,0,0.18,0.18,0,0,1,.1.1s0,0.09,0,.1a0.12,0.12,0,0,0,.11-0.08s-0.08,0-.11,0h0Zm-20.43-.39a0.06,0.06,0,0,0,0,0s0,0,0,0h0Zm-13.55,8.44a0.06,0.06,0,0,0,0,0,0.06,0.06,0,0,0,0,0h0Zm73.26-.88a0.06,0.06,0,0,0,0,0,0.06,0.06,0,0,0,0,0h0Zm7.07-12.47a0.06,0.06,0,0,0,0,0s0,0,0,0h0Zm-46,5.4a0.06,0.06,0,0,0,0,0s0,0,0,0h0Zm-19.74-.2a0.06,0.06,0,0,0,0,0s0,0,0,0h0Zm19.15-.39a0.06,0.06,0,0,0,0,0s0,0,0,0h0Zm42.62-.29a0.06,0.06,0,0,0,0,0s0,0,0,0h0Zm-61.38,9a0.06,0.06,0,0,0,0,0s0,0,0,0h0Zm-19.35-2.16a0.06,0.06,0,0,0,0,0s0,0,0,0h0Zm79.84-2.75a0.06,0.06,0,0,0,0,0s0,0,0,0h0ZM109.06,112a0.06,0.06,0,0,0,0,0,0.06,0.06,0,0,0,0,0h0Zm7.37,0.69s0,0,0,0h0s0,0,0,0h0Zm0.39-.1s0,0,0,0h0s0,0,0,0h0Zm33.78-7.36a0.07,0.07,0,0,0,0,0h0s0,0,0,0h0Zm-19,7.76s0,0,0,0h0s0,0,0,0h0Zm3-6.19s0,0,0,0h0s0,0,0,0h0Zm16.7-1.57s0,0,0,0h0s0,0,0,0h0Zm39.38,4.42s0,0,0,0h0s0,0,0,0h0Zm-0.2.1a0.07,0.07,0,0,0,0,0h0s0,0,0,0h0Zm-75.13,2.65c0.17-.06,0,0.09,0,0.1a0.12,0.12,0,0,0,.11-0.08,0.39,0.39,0,0,0-.11,0s0.2-.15-0.11-0.19-0.94-.06-0.68.29,0.61,0,.78-0.1h0Zm79.25-11.88c0,0.08-.09,0-0.1,0a0.12,0.12,0,0,0,.08.11s-0.14-.19,0-0.11a1.83,1.83,0,0,0,.29.49c0.31,0.23.29-.11,0.49-0.2s0.16-.12,0-0.2-0.7,0-.39-0.2,0.06-.23.5-0.11,0.25,0.35.67,0.21,0.21-.51.69-0.69-0.2-.15-0.2-0.29,0.41-.4.21-0.49-0.11,0-.19.11,0,0.45-.12.18-0.09.1-.64,0a1.42,1.42,0,0,1-.68-0.53c-0.41-.25-0.43-0.1-0.3.31s0.55,0.48.15,0.84-0.27,0-.34.13-0.1.37-.15,0.46h0ZM136,108.3c0,0.26.11,0,.06,0s-0.06-.26-0.06,0h0Zm-19.64,4.12c0,0.26.11,0,.06,0s-0.06-.26-0.06,0h0Zm30.44-6.87c0,0.26.11,0,.06,0s-0.06-.26-0.06,0h0Zm4.91,0.1c0,0.26.11,0,.06,0s-0.06-.26-0.06,0h0Zm-40.36,4c0,0.26.11,0,.06,0s-0.06-.26-0.06,0h0Zm9-9.43c0,0.26.11,0,.06,0s-0.06-.26-0.06,0h0ZM151,103.59c0,0.26.11,0,.06,0s-0.06-.26-0.06,0h0Zm-19.15,10c0,0.12.1,0,.12,0s0.12,0.11,0,0,0,0-.05,0-0.12-.09-0.11,0h0Zm59.91-7.85c0,0.12.1,0,.12,0s0.12,0.11,0,0,0,0-.05,0-0.12-.09-0.11,0h0Zm0.69,2.06c0,0.24.26,0,.1,0s-0.05-.2-0.1,0h0ZM142.25,104c0,0.16.21,0.22,0.15,0s0.16,0,0,0-0.11-.13-0.11,0h0Zm48.81,5.5c0.13,0.13.24-.1,0.11-0.05s-0.25-.08-0.11.05h0Zm-56.76-1c0.13,0.13.24-.1,0.11-0.05s-0.25-.08-0.11.05h0Zm-2.16,4.71c0.13,0.13.24-.1,0.11-0.05s-0.25-.08-0.11.05h0Zm18.76-8.15c0.13,0.13.24-.1,0.11-0.05s-0.25-.08-0.11.05h0Zm-0.2-1.28c0.13,0.13.24-.1,0.11-0.05s-0.25-.08-0.11.05h0Zm-39.87,5.89c0.13,0.13.24-.1,0.11-0.05s-0.25-.08-0.11.05h0Zm0.88,0.49c0-.32,0-0.28-0.2-0.29s0.18,0.61.2,0.29h0ZM195.09,103c-0.32,0,0-.39-0.2-0.2s0.06,0,.2.2,0.12,0.32-.25.43,0.06,0.16-.32-0.14,0.22,0-.11-0.1,0.21,0.78-.1,1-0.07-.16-0.68,0a2.62,2.62,0,0,0-1.26,1.1c-0.26.35-.22,0.1-0.22,0.27a2.54,2.54,0,0,0,.29.39c0.09,0.25-.09.55,0.29,0.59s0.32-.13.33-0.51,0-.61,0-0.86,0-.21.1,0,0.24,0.93.49,0.49,0-.28.22-0.35,0,0.2.2-.11-0.36-.32,0-0.33,0,0,.21.18,0,0.32.28,0.21,0.1-.07.22-0.27-0.07-.26.17-0.32a3.64,3.64,0,0,0,.49-0.07,2.33,2.33,0,0,0,.32-0.19c0.13-.07.64,0,0.55-0.51s-0.05-.45-0.1-0.68-0.13-.13-0.17-0.32-0.11.19,0.12-.17-0.32-1.49-.42-1.79,0.05,0-.29.2-0.2.61-.11,0.8,0.13,1.07-.19,1.07h0Zm-52.44.79c0,0.18.19,0.16,0.13,0s-0.17-.2-0.13,0h0Zm-57.84.29c0,0.18.19,0.16,0.13,0s-0.17-.2-0.13,0h0Zm26.91,6.48c0,0.06.08,0.06,0.1,0a0.71,0.71,0,0,0,0-.29c0-.06-0.08-0.06-0.1,0a0.7,0.7,0,0,0,0,.29h0Zm24-1.87c0.22,0.1.32,0,.29-0.2s-0.51.1-.29,0.2h0Zm56.27,0.1c0.1,0.18.5-.21,0.32-0.27s-0.41.09-.32,0.27h0Zm-60.69,4.12a0.15,0.15,0,0,0,.29,0c0-.13-0.33-0.2-0.29,0h0Zm3.83-4.12a0.15,0.15,0,0,0,.29,0c0-.13-0.33-0.2-0.29,0h0ZM110.73,110c0.06,0.27-.16.63,0.1,0.29s0-.17-0.1-0.29,0-.23,0-0.29-0.2-.18-0.2,0,0.14,0,.2.29h0Zm-2.16,1c-0.06.06-.16,0,0,0.12s0.26,0,.12-0.12-0.07-.05-0.12,0h0Zm83.28-5.79c0,0.08.08,0.08,0.1,0a1.34,1.34,0,0,0,0-.39c0-.08-0.08-0.08-0.1,0a1.31,1.31,0,0,0,0,.39h0ZM112,110.76a0.23,0.23,0,0,0,.29-0.2c0-.17-0.23,0-0.29,0s-0.18.2,0,.2h0Zm4.81,2.45a0.23,0.23,0,0,0,.3-0.2c0-.17-0.23,0-0.3,0s-0.18.2,0,.2h0Zm74-7.66a0.23,0.23,0,0,0,.29-0.2c0-.17-0.23,0-0.29,0s-0.18.2,0,.2h0Zm-78.57,5.79c0,0.13.23,0,.29,0s0.12-.18,0-0.2-0.34.06-.29,0.2h0ZM111,109.28c0.23-.05.16-0.3-0.11-0.39s-0.12.44,0.11,0.39h0Zm23.66-.59c0.31,0.12.4,0.11,0.39-.2s-0.7.07-.39,0.2h0Zm-24.36.39c0,0.16.3,0,.39,0s0.15-.19,0-0.2-0.41,0-.39.2h0Zm-24.75-4.61c0.26-.19-0.1-0.51-0.39-0.29s0.13,0.48.39,0.29h0Zm31.62,9.43c0.21,0.11,0-.2-0.08-0.31s-0.16-.51-0.22-0.18a0.38,0.38,0,0,0,.29.49h0Zm-31.62-8.74c0.29,0.29.42,0,.39-0.29s0-.5-0.39-0.29-0.29.29,0,.59h0Zm64.72,0.49c-0.16.09-.18,0.16,0,0.2a4,4,0,0,0,.65.06c0.3,0,.61-0.12.43-0.16a3,3,0,0,0-1.08-.1h0Zm-40.07,6.77a0.57,0.57,0,0,0,.39.2,1.45,1.45,0,0,0,.59-0.1c0.16,0,0-.06-0.05,0s0.13,0.09-.05,0a0.7,0.7,0,0,0-.59-0.2c-0.36,0-.47.05-0.29,0.2h0Zm7.46-13.75c-0.12.06-.08,0.09,0.27,0.31s0.47,0.49.61,0.18-0.76-.55-0.88-0.49h0Zm36,7.07c-0.17.14-.13,0.3,0.2,0.3s0.83-.21.69-0.49-0.72.05-.88,0.2h0Zm35.35,4.12a0.93,0.93,0,0,0,.16.53c0.11,0.13.22,0.58,0.33,0.35s0.46-1.57.1-1.57a0.79,0.79,0,0,0-.59.69h0Zm-44.49-6.68c0.06,0.33-.24-0.16-0.39.1a1,1,0,0,0,.2,1c0.2,0.19.34,0.69,0.49-.1a2.61,2.61,0,0,0-.14-1.22c0-.37.49-0.51,0-0.55s-0.25.46-.2,0.79h0Zm-32.11,8.93c0.13-.13.24,0.1,0.11,0.05s-0.24.08-.11-0.05h0Zm-0.1.1c-0.48.41-.68-0.27-0.59,0.1s0.11,0.06.6,0.09,0.13,0.07.48,0.2,0.17-.21.66-0.26,0.72,0.17.81,0-0.12-.25-0.44-0.44a2.5,2.5,0,0,0-1.46-.18c-0.27.12,0.42,0.11-.06,0.52h0ZM107.68,111c0.15,0.82.76-.51,1.18-0.29a2.51,2.51,0,0,0,1,.36,2.71,2.71,0,0,1,1,.42c0.52,0.2-.9.37-0.2,0.39s1,0.34,1.37-.2-1.27-.63-2-1-2.43-.5-2.28.32h0Zm83.87,3.83h0Zm-0.2-.2a0.25,0.25,0,0,1,.2.2c0,0.08-.15,0-0.2,0s-0.08-.2,0-0.2h0Zm0,0h0Zm-0.39-.2h0Zm-0.2-.2v0h0Zm-0.49-.2a0.13,0.13,0,0,1,0,.2,0.12,0.12,0,1,1,0-.2h0Zm0.49,0.1h0Zm-0.69,0h0Zm0.2-.1h0Zm-0.59,0a0.67,0.67,0,0,0,.15.34c0.17,0.25.11,0.31,0.34,0.25s-0.15-.18.1-0.39,0.26-.08.49,0,0.21,0.07.2,0.2-0.26.13-.1,0.3,0.3-.06.49,0.1a0.47,0.47,0,0,1,.2.59c-0.11.24-.17,0.17-0.29,0.1a1.74,1.74,0,0,1,.11-0.39c-0.07-.14.08,0-0.11,0.09s-0.23,0-.39-0.1,0.29-.14.1-0.3-0.48-.34-0.59-0.1a0.66,0.66,0,0,0,.1.59c0.08,0.25.29-.12,0.35-0.15s0.08-.43,0,0-0.28.11-.2,0.59,0.34,0.1.49,0.1,0-.07,0-0.09v0l0-.1s-0.06-.1,0-0.05,0,0.13.29,0.1-0.13-.18,0-0.2,0.25-.23.3,0.1,0,0.25-.2.29,0-.09,0-0.1a0.12,0.12,0,0,0-.11.08s0.18-.31.11,0-0.94.09-1.12,0.74,0.13,0.55.14,0.34-0.38-.51.1-0.49,0.41-.11.59,0.29,0.18,0.64.69,0.5-0.17-.33,0-0.59,0,0,.15.14,0,0.21.14,0.06a0.58,0.58,0,0,0,0-.62,2,2,0,0,0-.23-0.56c-0.08-.18.08-0.13,0.11-0.19s0,0.24-.11.19-0.1,0-.1-0.3-0.19.45-.2,0.2-0.13,0-.1-0.29,0,0,.13-0.16a0.48,0.48,0,0,0-.17-0.57c-0.15-.09,0,0-0.07,0a0.91,0.91,0,0,1-.28-0.12,3.68,3.68,0,0,0-1.08-.48c-0.61-.18.25-0.12,0.08-0.33s-0.6.26-.18-0.36,0.78-.64.2-1.08-0.67-.15-0.84.54a0.9,0.9,0,0,0,.25,1.13c0.34,0.42,0,.21-0.1.29s0-.09,0-0.1a0.12,0.12,0,0,0-.11.08s0.06-.11.11,0h0Zm-68-14.14h0Zm-0.2-.1h0Zm-0.88-1.08h0Zm-0.1-.59c1,0.39-.88,1.15-1.06,1.38s0,0,0,0-0.45.2-.2,0.34,1.2-.07,1.47.1,0-.09-0.06.14-0.26.07,0,.16,0.44-.61.59-0.29,0,0.6.39,0.49,0.09-.11.13-0.27a0.48,0.48,0,1,0,0-.07s0,0.05,0-.07a0.17,0.17,0,0,0-.05-0.19c-0.08-.09-0.2.06-0.2-0.1s0.06-.12.2-0.2,0.28-.22,0-0.2-0.43.18-.29-0.1,0.54-.09.1-0.39-0.12.26-.53,0.12,0.1,0.18-.36-0.31,0.17-.23.28-0.35a0.41,0.41,0,0,0,.21-0.34c0-.17-0.39.21-0.39,0s0.33-.41.4-0.79-0.35-.36-0.46-0.67a0.59,0.59,0,1,1-.05-0.16s-0.13-.17,0,0,0.2,0.15,0-.05a0.53,0.53,0,0,0-.31-0.18,1.15,1.15,0,0,1-.35-0.21,0.65,0.65,0,0,1-.15-0.15c-0.21-.2-0.62-0.22-0.54-0.54s0.45,0.23.39-.2a7.84,7.84,0,0,0-.59-2.26c-0.29-.37-0.42.41-0.67,0.71s-0.59.79-.9,0.57a0.63,0.63,0,0,1-.27-0.4,0.61,0.61,0,0,1-.13-0.23s0,0.4,0,0a1.38,1.38,0,0,1,.3-0.8c0.09-.14,0-0.12-0.05-0.18a0.43,0.43,0,0,0-.17-0.12,1.4,1.4,0,0,1-.44-0.19,1.43,1.43,0,0,1-.18-0.34l-0.1-.19c-0.07-.13.65-0.07-0.14-0.26a11.79,11.79,0,0,0-1.29-.21c-0.48-.09-0.09-0.1-0.29.11s-0.11-.12-0.18.28a0.94,0.94,0,0,1,0,.35c-0.1.33-.09,0.08-0.17,0.25s0-.06,0,0.13a2.74,2.74,0,0,1,.05.48c0,0.19,0,.08-0.16.25s-0.75,0-.58.51a2.47,2.47,0,0,1,.37,1.25c0,0.75.49,0.09,0.12,0.32s-0.91.37-1.57,0.69,0.15,0.39.1,0.64a0.68,0.68,0,0,0-.08.18,2.49,2.49,0,0,1-.12,1c-0.19.36-.43,0.44-0.59,0.1a1.15,1.15,0,0,1-.39-0.88c0.11-.45.27,0.45,0.49,0.1s-0.25-.2-0.49-0.2,0,0,.1-0.25a1.22,1.22,0,0,0,.2-0.93,2.38,2.38,0,0,0-1-.18c-0.18-.1.23,0.14-0.33-0.26a5.75,5.75,0,0,0-2-.93c-0.85-.21.17-0.48,0.1-1.18s-0.36.55-.39,0a2.57,2.57,0,0,1,.78-1.48,3.09,3.09,0,0,0,.22-0.26,0.47,0.47,0,0,1,.29-0.24,5.72,5.72,0,0,1,.48-0.57c0.35-.15.42,0.08,0.59-0.29a0.69,0.69,0,0,1,.49-0.39c0.25-.18.26,0.38,0.59,0.2a3,3,0,0,0,.77-0.8c0.26-.31-0.08-0.26.31-0.28s-0.13.4-.28,0.7-0.88.36-.41,0.67a2.2,2.2,0,0,0,.39.39c0.43,0.21.59-.85,1-0.69s0.73,1,.88.39-1-1-1.08-1.37,0.29-.17.2-0.39-0.31.23-.49,0.1,0.15-.12.12-0.25-0.3-.23-0.12-0.24a0.65,0.65,0,0,1,.42.17l0.31,0.18c0.06,0,.1,0,0.06,0s-0.27-.22-0.2,0,0.08,0.55.39,0.39-0.34-.12-0.2-0.39a1.75,1.75,0,0,1,.87-0.4,0.52,0.52,0,0,0,.37-0.49,0.3,0.3,0,0,0,0-.21,0.68,0.68,0,0,1-.06-0.36c0.06-.18.38,0.15,0.49-0.12a1.29,1.29,0,0,0,.1-0.67c0-.26-0.4-0.29-0.2-0.39s0.2,0,.42.07-0.1.35,0.27,0.32a0.8,0.8,0,0,0,.69-0.59c0.13-.32.27-0.32,0.29,0.1a1.34,1.34,0,0,1-.2.88c-0.17.32,0.16,0,.2,0.1s-0.19.31,0,.29,0.34-.59.49-0.1-0.33-.1-0.2.39,0.42-.6.49-0.2a0.92,0.92,0,0,0,.2.49c0.17,0.38.18,0.52-.1,0.69a3.38,3.38,0,0,0-.46.23l-0.23.16c-0.25.18,0.13,0.33-.19,0.69s-0.53-.13-1.28-0.2-0.75.11-.49,0.69,0.8,0.12,1.23.15,0.36,0,.67.51-0.07-.26.06,0.09-0.1.71,0.37,0.72,0.69,1,1.31.59-0.5-.66-0.49-1.08,0.22,0.15.53,0.35-0.19.13,0.36,0.53,0-.17.24-0.44,0.13,0.15.25-.15a1,1,0,0,0-.1-1c-0.23-.42-0.46-0.27-0.49-0.69s-0.13.18,0.1-.22-0.17-.41.19-0.27a0.68,0.68,0,0,1,.34.64,1.37,1.37,0,0,1,.05.14c0.06,0.13.19,0.77,0.49,0.39a3.52,3.52,0,0,1,.64-0.74,0.74,0.74,0,0,0,.44-0.44,0.56,0.56,0,0,0-.39-0.29,0.61,0.61,0,0,1-.1-0.1s0,0-.06,0-0.19-.28-0.34-0.47a1.29,1.29,0,0,0-.49-0.28c-0.06-.05.11,0.07,0-0.1a0.42,0.42,0,0,0-.39-0.2c-0.25-.06-0.17-0.1,0-0.2s0,0,.2-0.29,0.49,0.74.49,0.1a1.87,1.87,0,0,0-.21-1c-0.15-.43-0.42-0.09-0.68-0.56s-0.53-.25-0.88-0.78a2.15,2.15,0,0,1-.39-1,1.64,1.64,0,0,0,.3,0,1.3,1.3,0,0,0-.12-0.78,1.13,1.13,0,0,0-.74-0.22,0.63,0.63,0,0,0-.29,0c-0.12,0,.18.21-0.12-0.2s-0.67.07-1,.17a1.48,1.48,0,0,0-.76.42,0.78,0.78,0,0,0,0,.49,1.5,1.5,0,0,0-.28.21c0,0.15.3,0.5,0.1,0.57s-0.32-.3-0.27-0.54a0.73,0.73,0,0,1,.15-0.32,0.14,0.14,0,1,0,0-.06,1.08,1.08,0,0,1,.51-0.7c0.43-.3.87-0.08,0.55-0.43a1.26,1.26,0,0,0-1.56.3,13.06,13.06,0,0,0-1,1.25c-0.2.3-.25,0-0.08,0.31s0.95,0.14.69,0.39-0.36-.44-0.69-0.2,0,0.53.1,0.79,0.16,0,.29,0,0.2,0,.2.09-0.41-.25-0.29,0,0.06,0.13.48,0.2,0.68-.13.5,0.19-0.25-.17-0.49-0.1,0,0.4-.17.71,0.13-.26-0.25.24,0,0.14-.17.42,0,0.15-.22,0,0.37-.37-0.17-0.19,0.29,0.4-.1.59-0.4.15-.39-0.39,0.51-1.1,0-1.18-0.33,1-.49.69a0.55,0.55,0,0,1,.22-0.65c0.08-.08.12,0.09,0.17-0.13s-0.16-.06-0.37-0.14-0.53.11-.32-0.26,0.47,0.76.59-.2a2.31,2.31,0,0,0-.08-1.28c-0.08-.55-0.54-0.23-0.11-0.48s0.1-.63.59-0.59a1.38,1.38,0,0,0,1.28-.48c0.67-.52.71-0.14,0.29-0.5a1.15,1.15,0,0,0-1.47-.29c-0.66.35,0,.12-0.08,0.22a2.73,2.73,0,0,0-.56.81,1.66,1.66,0,0,1-.21.68,3.32,3.32,0,0,1-.53.46,0.41,0.41,0,0,1-.29.2c-0.07,0-.11,0-0.11,0a0.12,0.12,0,0,1,.11-0.08s0,0.07,0,.1,0,0-.08.12a1.65,1.65,0,1,0-.09.2,1.23,1.23,0,0,0-.13,1.14c0.17,0.3-.09.12-0.13,0.17s0.37,0.13-.06.52-0.23-.2-0.79.1,0,0,.17.22-0.29.06,0.13,0.17a1.25,1.25,0,0,0,.88-0.29c0.24-.08,0,0,0-0.06a0.55,0.55,0,0,1-.09-0.18c0-.13.2-0.29,0.22-0.54s-0.13-.14-0.25-0.09,0,0.22,0,0-0.22.18-.39,0,0.13-.44-0.29-0.39a6,6,0,0,0-.88.49c-0.35.06-.23,0.22,0,0.29s0.53,0,.49.29-0.69,0-.7.36,0.31,0,0,.13-0.15-.1-0.68-0.08-0.25,0-.76-0.35-0.53-.43-0.33-0.85,0.52,0.23.89,0.21,0.18-.38.38-0.7,0.31,0.07.39,0.2-0.08.13-.11,0.19a0.23,0.23,0,0,1,.11-0.19c0.12-.06.22,0.17,0.29-0.1a0.85,0.85,0,0,0-.23-0.65l0-.06-0.18-.31c0-.06-0.29-0.06-0.24-0.25s-0.08.13,0.13-.26,0.11-.44.4-1.08,1-.56.85-1.12-0.55-.28-0.79-0.1,0.28,0.33,0,.49-0.27-.56-0.59-0.29a3.57,3.57,0,0,0-.59,1.57c-0.06.35-.18,0.3-0.2,0s0.41-1.07.1-1.37-0.17.11-.24,0.3,0.06,0.2-.05.19-0.21.06-.29-0.1a1.32,1.32,0,0,1,.1-0.29c-0.05-.18-0.06-0.43-0.41-0.37s-0.59.86-.57,0.27-0.13.07,0.15-.15,0.12,0,.25-0.15,0.21-.23,0-0.39a1.21,1.21,0,0,1-.22-0.76c-0.1-.4-0.3-0.22-0.68-0.4a1.87,1.87,0,0,0-.55-0.34c-0.26,0-.88-0.54-1,0a1.77,1.77,0,0,1-.68,1.09c-0.53.64-.89,0.37-1,0.87a1.11,1.11,0,0,0,.2.88c0.16,0.52.49-.15,0.59-0.2s0.13,0.29.53,0a1.49,1.49,0,0,1,.67-0.52c0.71-.37.4-0.45,0.86-0.32s-0.32.13-.61,0.37a2,2,0,0,0-.56.42c-0.11.2,0,.08,0.1,0.3s-0.06.06,0.41,0.19-0.14-.06.14,0,0.3,0,.14.06a0.93,0.93,0,0,0-.9.09c-0.34.33,0.87,0.66,1.08,0.71s1.06,0.24.6,0.48-0.45-.25-1.18-0.31-1,.14-0.78.7,0.34,0,.79.29-0.07,0-.15.41-0.38-.07,0,0.37,0.9,0.14,1.37,0a3.92,3.92,0,0,1,1.18-.4c0.49,0,0,.05.07,0.23s0.32,0,.13.26-0.24-.1-0.56-0.08-0.85.11-.62,0.37,0.27-.48.59,0-0.51.2-.69,0.49-0.22.27-.39,0,0.82-.19-0.2-0.39-1.17.64-1.77-.2,0.45,0,.69-0.39,0-.48-0.4-0.58a1.15,1.15,0,0,1-.46-0.13,3.08,3.08,0,0,1-.4-0.28,2.52,2.52,0,0,0-.59-0.7,1.27,1.27,0,0,0-.8.12c-0.15-.08,0,0,0-0.07a0.5,0.5,0,0,0,.06-0.15c0.08-.22.43-0.32,0.12-0.47s-0.55.43-.69,0.59,0-.11-0.06-0.14a0.08,0.08,0,0,1,0-.08,2,2,0,0,1,0-.44,0.81,0.81,0,0,0,0-.72c-0.19-.3.05-0.1-0.12,0.18s-0.08.48-.47,0.51-0.25-.42-0.69-0.31a3.1,3.1,0,0,1-.58.12,2.78,2.78,0,0,0-.59.19c-0.22,0,0-.05,0,0s0,0,0,0,0.07-.27-0.17-0.21a2,2,0,0,0-.75.33c-0.34.22,0.11,0.24-.23,0.16a0.74,0.74,0,0,1-.41-0.79c-0.06-.38.09,0.1,0-0.1s0,0,0,0,0,0,0,0a2.89,2.89,0,0,1-.53-0.24c-0.27-.16.56-0.42-0.47-0.62s-1.38-.73-2.26-0.78,0.44-.3,0-0.79-0.63-.43-0.88-0.79S92.76,79,92.52,79s-0.35-.37-0.89,0a1.09,1.09,0,0,1-.91.29c-0.59.07-1.2,0.79-1.66,0.89A3.42,3.42,0,0,1,88.34,80c-0.39.06-.4-0.17-0.59,0.39s0.15,0.79.1,1.47,0.27,0.1.21,0.52,0,0.32.06,0.4,0.37,0,.12.07-0.39.33-.79,0-0.09-.16-0.08-0.3,0.08-.23-0.18-0.28a0.54,0.54,0,0,0-.39,0,1.78,1.78,0,0,1-.44.13,1.5,1.5,0,0,0-1,.31c-0.31.31,0.31,0.21,0.29,0.49a1.77,1.77,0,0,0-.29.69c0.06,0.37.19,0.21,0.4,0.24a3.84,3.84,0,0,1,.5,0,1,1,0,0,0,.77-0.09c0.51-.18.14-0.26,0.3-0.1s-0.07.07-.13,0.16-0.11.2-.14,0.24a0.11,0.11,0,0,0,0,.05,2.61,2.61,0,0,1-.1.33c-0.06.13,0,.29-0.4,0.29s-0.07-.33-0.49-0.29,0.26,0.43-.2.49-0.44-.48-1,0.16-1.1,1-.93,1.36A0.68,0.68,0,1,1,84,87c-0.05,0-.26-0.08-0.29.1a0.67,0.67,0,0,0,.11.78c0.32,0.23.32-.28,0.67,0s-0.84.76-.39,1.08,0.26-.09.69-0.1,0.14,0.22.2,0.39,0.1,0.19.2,0,0.85-1.18.49-.1-1.08,1.07-2,1.64-0.19.13-.53,0.18a1,1,0,0,0-.64.32c-0.41.27-1.1,0-1.15,0.52s0.66,0,.93-0.13a6.32,6.32,0,0,0,.6-0.22c0.23-.1.1,0,0.23,0s0,0,.06,0a2.4,2.4,0,0,1,.57-0.17c0.39-.06.21-0.07,0.26-0.09a0.55,0.55,0,0,0,.21-0.1,0.89,0.89,0,0,1,.53-0.36,3.34,3.34,0,0,0,1-.56c0.7-.47.54-0.17,1-0.53s0.35,0.17.46-.23S87,89.34,87.16,89A3.11,3.11,0,0,1,88,88.56l0.05,0c0.08-.06.36-0.7,0.45-0.34s-0.17.23-.44,0.78-1.14.06-.25,0.49,1.21-.52,1.6-0.34,0,0.16.26,0.14,0.31-.25.2-0.49-0.35-.82,0-0.59,0-.39.39,0.2a5.64,5.64,0,0,1,.59,1c0.34,0.58.4-.11,0.76,0.13a4.16,4.16,0,0,0,.72.27c0.48,0.24,0,.42.1,0.58a0.74,0.74,0,0,1,.07.13,3.07,3.07,0,0,0,.52.57,1,1,0,0,1-.12.92c0,0.16,0,0,0,.06a0.75,0.75,0,0,0,0,.39c0.08,0.12-.07-0.05.2,0s-0.14.15-.1,0.29,0.35,0,.39.11a0.89,0.89,0,0,1-.19.48c0,0.1-.06,0,0,0.06s0.1,0.08.14,0.14a0.81,0.81,0,0,0,.11.19c0.06,0,.15.29,0.18,0s-0.13-.39.1-0.29a2.37,2.37,0,0,1,.39.29c0.19,0.11-.14.17-0.2,0.2s0-.09,0-0.1a0.12,0.12,0,0,0-.11.08s0.1,0,.11,0a0.33,0.33,0,0,1-.07.26c-0.08.1,0-.12-0.09,0.15a0.41,0.41,0,0,0,.15.4A1.55,1.55,0,0,1,94,95a1.48,1.48,0,0,0,.4.36c0.1,0.11-.14.2-0.17,0.25s0,0,0,0v0a0.85,0.85,0,0,0,0,.1s-0.09,0,.05.3,0.19-.08.27,0.29-0.2-.61-0.69-0.15,0.43,0.85.63,1l0.14,0.15c0.09,0.1.53,0.14,0.31,0.38s-0.24,1.32-.75,2.48-0.32.46-.33,0.92a0.72,0.72,0,0,1-.07.55,0.77,0.77,0,0,0-.11.62c0.05,0.29,0,0,0,.07s0,0.11,0,.14,0-.19,0,0.08a0.89,0.89,0,0,0,.11.59,3.88,3.88,0,0,1,.23.59c0,0.11,0,0,0,.06L94,104a1.17,1.17,0,1,0,0,.12,3,3,0,0,0,.27,1.11c0.23,0.47.55,0.11,0.69,0.19a0.55,0.55,0,0,1,.24.15,0.44,0.44,0,0,1,.25.34c0.08,0.27,0,.35.12,0.56a2.81,2.81,0,1,1,.12.28c0.32,0.85,1,.86.65,1.52s-0.69-.1.07,0.41,0.16,0.53.88,1.18,0.25,0.75.62,0.56,0.1-.3-0.23-0.65-0.18-.8-0.51-1.26a1.94,1.94,0,0,1-.29-0.49,1.57,1.57,0,0,1-.49-1c0-.58.25-0.84,0.55-0.08a4.21,4.21,0,0,0,.75,1.41c0.4,0.52,0,0,0,.06a2.32,2.32,0,0,1,.39.44,0.71,0.71,0,0,0,.17.46,5.14,5.14,0,0,1,.4.39c0.14,0.16.2,0.28,0.4,0.49a1.26,1.26,0,0,1,.34.94,0.57,0.57,0,0,0,.14.75c0.33,0.27,0,0,.25.14a1.56,1.56,0,0,0,.46.32c0.4,0.17.51,0.2,1.66,0.7s1.32-.32,2.3.45,0.4,0.45,1,.57a3.87,3.87,0,0,1,1.21.17,1.81,1.81,0,0,1,.39.64c0.27,0.27-.41.25,0.2,0.64s0.25,0.48.88,0.59a2.29,2.29,0,0,1,1,.29c0.42,0.21.4-.08,0.49-0.24s-0.21-.16.19-0.35,0.36,0.08.47,0.37,0.12-.21.3,0.63a1.34,1.34,0,0,1-.32,1.4,8.26,8.26,0,0,0-.7.77,1.6,1.6,0,0,0-.38.93,2.37,2.37,0,0,0,.34.51c0.15,0.36-.39-0.58-0.49.3s0.64,1,1.07,1.77,0,0,0,.06-0.23-.45,0,0.06,0.85,1.26,1,1.66,0,0.14.42,0.44,1.07,0.65,1.72,1.16a1.6,1.6,0,0,1,.52,1.59,4.87,4.87,0,0,1-.08.62,8.9,8.9,0,0,1,0,1.42,5.31,5.31,0,0,0-.12,1c0,0.39,0-.25,0,0.07a3.17,3.17,0,0,0,0,1.1,3.59,3.59,0,0,1-.23,1.94c-0.18.44-.09-0.1-0.22,0.27s0.11,0.21.24,0.65a1.17,1.17,0,0,1,0,.74c0,0.45.12,0.39,0.05,0.74a1.73,1.73,0,0,0-.07.72c0.05,0.16.21,0.09,0.3,0a0.38,0.38,0,0,0,.05-0.27c0-.09,0-0.21,0-0.36s0.1-.48.21-0.25a2.32,2.32,0,0,1,0,1.08c-0.06.22-.23,0-0.29,0s0-.09,0-0.1a0.12,0.12,0,0,0-.12.08s0.09,0,.12,0a0.06,0.06,0,0,1,0,.1s-0.21-.11-0.19.11a1.63,1.63,0,0,1,.19.48c0,0.3-.07.08-0.13,0.17a0.21,0.21,0,0,0,0,.05,0.83,0.83,0,0,0-.33.57c0.08,0.21.24-.12,0.39-0.1a0.52,0.52,0,0,1,.29.1c0.25,0.12,0,.35-0.07.41a0.45,0.45,0,0,0-.32.28,0.34,0.34,0,0,0,.1.3l0.17,0.39a0.1,0.1,0,0,1,0,.05l0,0.11,0.06,0.12s-0.06-.13.1,0.2-0.1.56,0.29,0.49,0-.78.1-0.49a1.84,1.84,0,0,1,.2.49c0,0.29-.23,0-0.39.1s-0.13.13,0,.2a0.48,0.48,0,0,1,.22.08c0.18,0.12.86,0.27,0.67,0.51s-0.53-.64-0.59-0.2,1.1,0.68,1.4,1,0.17,0.18.46,0.18,0,0,.29.1,0.4,0.56.59,0.21-0.05-.25.39-0.39,0.44,0.26.59-.2-0.25,0-.94-0.43-0.47-.71-0.92-0.75,0.39,0.09.39-.1a1.06,1.06,0,0,0-.28-0.41,0.69,0.69,0,0,1-.21-0.48c0-.21-0.09.1,0.24-0.26A8.3,8.3,0,0,1,117,139c0.48-.48.16-0.41,0-0.59s-0.64.07-.79-0.29,0.43-.2.69-0.69a4.13,4.13,0,0,0,.2-1.08c0.09-.1.23,0.09,0.29,0s0.05,0,0-.27-0.23.14-.56-0.12-0.38-.46-0.1-0.59,0.76,0.3,1-.88,1.61-.1,1.84-0.51,0.61-.44.22-0.67-0.3-.11-0.33-0.24,0,0,0-.06a0.16,0.16,0,0,0,0-.06l-0.08-.18a0.12,0.12,0,0,0,0-.05s-0.38-.07-0.11-0.09a6.56,6.56,0,0,0,1.37.1c0.41-.11.25-0.34,0.41-0.57s0.17-.45.33-0.65a2.18,2.18,0,0,0,.5-0.49,6.56,6.56,0,0,0,.71-1.34,4.43,4.43,0,0,1,0-.78,2.48,2.48,0,0,1,1.19-.79c0.36-.15-0.08,0,0.23-0.24s0.59,0.1,1.26-.33,0-.11.51-0.87-0.06-.17.21-0.77a1.82,1.82,0,0,0,.15-1.15c0-.54-0.37-0.57,0-0.76a1,1,0,0,0,.59-0.59,4.1,4.1,0,0,1,.66-0.62,1.42,1.42,0,0,0,0-1.65c-0.29-.21,0,0-0.45-0.14a5.5,5.5,0,0,1-1-.66,2.42,2.42,0,0,0-1.2-.19c-0.45-.06-0.12-0.08-0.45-0.11s-0.09.38-.44,0.12a1.61,1.61,0,0,0-.72-0.56,0.72,0.72,0,0,0-1,.07c-0.25.16,0.14-.28,0-0.39s-0.21.18-.49-0.1a6.38,6.38,0,0,1-.33-0.94,3.22,3.22,0,0,1-.31-0.58c-0.09-.16.09-0.12-0.58-0.5s-1.63,0-2.52-.92-1-.45-0.85-0.87,0.11,0,.07-0.22-0.23-.07-0.3,0,0.29,0.24,0,.29,0.06,0.18-.1-0.29-0.66-.08-0.88-0.1,0.28,0.1,0,.2a1.43,1.43,0,0,1-1.57,0,3.26,3.26,0,0,1-.75-0.73c-0.34-.49,0-0.39,0-0.06s-0.72.79-.61,0.47a0.91,0.91,0,0,0,.22-0.37c0-.28-0.06,0-0.28,0s0.07,0-.58.31-0.77.06-1,.56a1,1,0,0,1-.47.51,0.37,0.37,0,1,0,0,.06s0,0.27-.08.12a1,1,0,0,0-.59-0.5,1.21,1.21,0,0,0-.85.15,1,1,0,0,1-1.07-.59c-0.18-.35-0.26.58,0-0.29s0.59-1.43-.11-1.6-1.36.26-1.85,0,0.06-.09.13-0.26-0.05.13,0.11-.39a1.9,1.9,0,0,1,.25-0.43,1.87,1.87,0,0,0,.09-0.3c0.13-.46.63-0.34,0.4-0.88s-1-.06-1.47.1-0.29.68-.36,0.82,0,0,0,.06l-0.08.12c-0.07.11,0.37,0.31-.11,0.18s-1.28.16-1.74-.31a1.54,1.54,0,0,1-.5-0.8,1.68,1.68,0,0,1,0-1,1.33,1.33,0,0,1,.2-0.79c0.15-.37,0-0.45.14-0.74s-0.12-.31.44-0.56,0.51-.32.7-0.36,0.06,0,.08,0-0.13,0,0,0a9,9,0,0,1,1,0c0.28,0-.1,0,0.1.06a0.27,0.27,0,1,1,.05,0,0.24,0.24,0,1,0,.06,0,0.85,0.85,0,0,0,.81.07c0.33-.17-0.34-0.18-0.1-0.49s0.32-.09.91,0a1.15,1.15,0,0,1,.76.34c0.27,0.12.29-.48,0.59-0.2s0.16,0,.26.52a1.27,1.27,0,0,0,.07.62,0.58,0.58,0,0,0,.15.25c0.08,0.14,0,.09.12,0.27s0.05,0.79.48,0.41a0.88,0.88,0,0,0,.2-1.06c-0.08-.36-0.14-0.55-0.19-0.81a2,2,0,0,1,0-.88c0.08-.19,0,0,0.18-0.11s0.3-.16.63-0.35,0.3-.31.54-0.44,0,0.11.22-.08,0.91-.43.89-0.78-0.06-.53-0.08-0.77-0.1,0,0-.22-0.41,0,.1.39,0.21-.41.75-0.93,0.5-.71,1.11-0.74-0.27-.13-0.33-0.16-0.22,0-.06,0l0.79,0a0.52,0.52,0,0,0,.48-0.26c0.09-.19-0.08,0-0.13-0.05s-0.31.4-.17-0.15a1.86,1.86,0,0,1,1.57-1c0.79-.17,0-0.11.2-0.26s0.51-.2.49,0-0.58.43-.31,0.69,0.56-.2.78-0.32,0.74-.14,1.21-0.36,0.65-.11.59-0.39,0.08,0-.2-0.39-0.24.09-.51,0.38-0.13.36-.48,0.21,0.83-.18.2-0.39-0.45-.43-0.79-0.2,0.34,0.24.2,0.29-0.24.11-.29-0.1a2.22,2.22,0,0,1,.13-0.79c0-.14.07-0.07,0.08-0.08l0,0s0,0,0,0,0.14-.25-0.22-0.38-1,.61-1.24.16,0.1-.05.43-0.26,0.1-.17.41-0.38-0.34-.16,1.21,0,1.51-.82,2.48-0.43h0Zm19.54,0.49a0.06,0.06,0,0,1,0,0,0.06,0.06,0,0,1,0,0h0Zm-0.69-2h0ZM139,95.34a1,1,0,0,0,.1.58,0.48,0.48,0,1,1,0,.1s0,0,0,0,0-.06,0,0.09,0.07-.05-0.05.12-0.36-.08-0.14.15a1.1,1.1,0,0,0,.49.2c0.23,0.14-.5.24,0,0.29s0.72,0.74.2,0.59,0.13,0.44.16,0.53,0.14,0,0,.06-0.41-.07-0.49.2,0.46,0.09.69,0.29-0.46.35-.56,0.43,0,0,0,0-0.55.15-.18,0.21a2,2,0,0,0,.94-0.24c0.22-.06,1.52-0.08,1.62-0.37s0,0,0-.31,0.3-.19.1-0.56-0.34,0-.52-0.26-0.12-.3-0.3-0.49,0,0-.21-0.18-0.37-.32-0.64-0.64,0.44-.59.3-0.88-0.54.08-.69,0,0.16-.11.24-0.25,0.45-.71.05-0.44a2.23,2.23,0,0,0-.77.5,0.36,0.36,0,0,0-.11.38c0,0.15-.24-0.1-0.2-0.2s0.48-.35.1-0.39-0.22.08-.3,0.39-0.12,0-.1.3,0.08,0.06.1,0a1.17,1.17,0,0,1,0-.3c0-.07.31-0.33,0.2,0h0Zm53.43,10.6h0Zm0.39-.79h0Zm0.2,0c0.07,0.12-.27.12-0.2,0s0.13-.12.2,0h0Zm0.1,0c0-.21,0-0.2.2-0.2s-0.19.41-.2,0.2h0Zm0.2-.2c-0.07-.19,0-0.13.29-0.1s0.17,0.2,0,.2-0.22.09-.29-0.1h0Zm0.69-.1-0.11-.19,0.11,0.19h0Zm0.1-.2a0.06,0.06,0,0,1,0,0s0,0,0,0h0Zm0.79,0h0Zm0.49-3.53h0Zm-37.81,10.8c0.27,0.31-.26,0,0.32.57a2.42,2.42,0,0,1,.61,1.36c0.23,0.6.77,0.72,0.26,0.73s-0.69-.7-1.25-1-0.25-.13-0.39-0.3a3.75,3.75,0,0,0-.34-0.74c-0.29-.35-0.51-0.17-0.57-0.71a2,2,0,0,0-.79-1.18c-0.41-.46.1-0.36-0.1-0.59a3.39,3.39,0,0,1-.41-0.57c-0.15-.25-0.88-0.69-0.37-0.81s0.07-.22.59-0.1,0.37,0.52.58,0.8a1.21,1.21,0,0,1,.26.44c0.19,0.37.06,0.09,0.44,0.24s-0.11-.19.16,0.33a1.94,1.94,0,0,1,.22.77,2.64,2.64,0,0,0,.8.76h0ZM112,103.79a0.05,0.05,0,0,1,0,0s0,0,0,0h0Zm4.81-2.85,0.19-.11-0.19.11h0Zm0.69-.49c0.06-.24.63,0.14,0.29,0.2s-0.35,0-.29-0.2h0Zm-2.36-.69a0.06,0.06,0,0,1,0,0,0.07,0.07,0,0,1,0,0h0Zm1.77-.2a0.06,0.06,0,0,1,0,0s0,0,0,0h0Zm-1.18-.2h0Zm0,0c-0.19-.2.11-0.4,0.29-0.2s-0.11.4-.29,0.2h0ZM95,97.8a0.06,0.06,0,0,1,0,0,0.06,0.06,0,0,1,0,0h0Zm0.2-.59c0-.21.21-0.34,0.29,0s0.23,1-.2.79-0.06-.57-0.1-0.79h0Zm0-.2a0.06,0.06,0,0,1,0,0s0,0,0,0h0Zm24.65-.2-0.19.11,0.19-.11h0Zm0,0h0Zm-24.94-.2c0-.29.28-0.13,0.29,0.1a1.56,1.56,0,0,1-.1.49c0,0.24-.08-0.14-0.14-0.31s-0.1,0-.06-0.28h0Zm25.34-.1a0.06,0.06,0,0,1,0,0s0,0,0,0h0Zm-25.34.1-0.21-.05,0.21,0.05h0Zm14.44,23.86h0Zm80.53,1c0.09,0,0,.14.06,0.21s-0.1,0-.06-0.21,0.31-1.51.3-1.08-0.14.17,0,.45a1.33,1.33,0,0,0,.62.55c0.28,0.13.34-.3,0.23-0.61s-0.06.08-.21-0.07a1.33,1.33,0,0,1-.26-0.45c-0.07-.15-0.18-0.14,0-0.29a1.75,1.75,0,0,0,.62-0.08c0.17-.21.26-0.17,0-0.39a1.5,1.5,0,0,0-1.06.21c-0.36.07-.6-0.33-0.12-0.5s1.55,0.18,1.77-.29,0-.25-0.12-0.18,0.27-.1-0.15.09-1.32,0-1.59.09a0.43,0.43,0,0,0-.29.21,3.23,3.23,0,0,0-.51,1.36c0,0.43.23,0,.39,0.29a1.86,1.86,0,0,1-.1.69c0.08,0.25.3,0,.39,0h0Zm0.59-7h0ZM179,116.16a0.72,0.72,0,0,1,.05.21c0-.07,0-0.16-0.05-0.21s0-.09,0-0.1a0.12,0.12,0,0,0-.11.08s0.08,0,.11,0h0Zm16,5.2s0,0,0,0,0,0,0,0h0Zm1.28,2.26a0.06,0.06,0,0,0,0,0s0,0,0,0h0Zm-3.63-1.47a0.06,0.06,0,0,0,0,0s0,0,0,0h0Zm-10-.78a0.06,0.06,0,0,0,0,0s0,0,0,0h0Zm8.05-6.78a0.06,0.06,0,0,0,0,0s0,0,0,0h0Zm-9.53,4.71a0.06,0.06,0,0,0,0,0,0.06,0.06,0,0,0,0,0h0Zm-68,18.16a0.06,0.06,0,0,0,0,0s0,0,0,0h0Zm68.35-17.28a0.06,0.06,0,0,0,0,0s0,0,0,0h0Zm2.46-2a0.06,0.06,0,0,0,0,0s0,0,0,0h0Zm1.28,1.77a0.06,0.06,0,0,0,0,0,0.06,0.06,0,0,0,0,0h0Zm10.51-.29a0.06,0.06,0,0,0,0,0,0.06,0.06,0,0,0,0,0h0Zm-8.44,7.66a0.07,0.07,0,0,0,0,0s0,0,0,0h0ZM117.41,143a0.07,0.07,0,0,0,0,0h0s0,0,0,0h0ZM117,114.39s0,0,0,0h0s0,0,0,0h0Zm-0.2.39s0,0,0,0h0s0,0,0,0h0ZM159,123.72s0,0,0,0h0s0,0,0,0h0Zm31.43-4.22s0,0,0,0h0s0,0,0,0h0ZM163.56,121s0,0,0,0h0s0,0,0,0h0Zm-58.34-1.37s0,0,0,0h0s0,0,0,0h0Zm57.06-4.81s0,0,0,0h0s0,0,0,0h0ZM181,119.6s0,0,0,0h0s0,0,0,0h0Zm0.79,0.79a0.22,0.22,0,0,0,0,.1,0.12,0.12,0,0,0,.11-0.08s-0.09,0-.11,0a0.23,0.23,0,0,0,0-.1,0.12,0.12,0,0,0-.12.08,0.22,0.22,0,0,0,.12,0h0Zm11.29-.79c0.16,0.08,0,.09,0,0.1a0.12,0.12,0,0,0,.11-0.08s-0.07.06-.11,0-0.3-.28-0.11-0.39a0.5,0.5,0,0,0,.27-0.18c0-.09,0,0,0-0.05l0-.06,0-.06s0.35-.11.07-0.13-0.23,0-.29-0.1,0.4-.17.22-0.18-0.12,0-.22.18,0.17-.35-0.11-0.19a1.9,1.9,0,0,0-.27,1c-0.12.28-.43,0-0.11,0.19a1.14,1.14,0,0,0,.49,0h0Zm2.85,4.22c-0.11,0,.09,0,0.1,0a0.12,0.12,0,0,0-.08-0.11s0.45,0,0,.11-1-.71-1.57-0.29,0.79,0.08.29,0.39-1.28.62-1.38,1.08-0.22,0-.41-0.06a2.55,2.55,0,0,0-.57-0.43,1,1,0,0,0-.73.35c-0.4.26-.07,0.66-0.35,0.73s-0.1-.13-0.29.29-0.37-.56-0.65,0,0.06-.14-0.05.15,0,0.05,0,.08l0,0.07s0.17-.35,0,0.07-1.67.77-2.48,1.06a1.84,1.84,0,0,0-1,.41,1.74,1.74,0,0,0-.24.84c-0.11.37,0.53,0.79,0.15,0.92s-0.14-.12-0.39-0.2,0,0.17,0,.24-0.06-.09,0,0.18a2.44,2.44,0,0,1,.39,1.55c0.09,1.38-.59,1.29-0.39,2s0.62,0.42,1,.34,0.62-.34,1.09-0.47a12.87,12.87,0,0,0,1.31-.05,4.73,4.73,0,0,1,1-.61,9,9,0,0,0,1.1-.17,2.7,2.7,0,0,1,1.93.18,0.47,0.47,0,0,1,.37.42,1.46,1.46,0,0,1,.17.42c0.1,0.34-.37.36,0.06,0.53s0.86-1.05,1.18-.88-0.26.5-.47,0.81-0.66-.15-0.22.27,0.24-.74.69-0.39,0.18,0.42-.2.69-0.58-.14-0.69.1,0.13,0,.4,0a0.45,0.45,0,0,0,.29-0.1c0.18-.08.1-0.41,0.29-0.1s0.21-.12.15,0.65,0.53,1,1.22,1.32,0.37-.33.59-0.29,0.24,0.61.49,0.49a1.22,1.22,0,0,1,.82-0.56c0.78-.18.74-0.28,1.12-1s0.34-.47.41-0.57a0.14,0.14,0,0,0,0-.06,8.46,8.46,0,0,1,.45-0.73,4.06,4.06,0,0,0,.92-1.24,1.21,1.21,0,0,1,.23-0.56,1.65,1.65,0,0,0,.19-1.13c0-.53.32-0.9,0.25-1.18s0.24,0.46-.3.2a1.58,1.58,0,0,1-.59-1.38c-0.08-.48-0.35-0.06-0.42-0.07s0,0,0,0,0.1,0.31,0,0a1.8,1.8,0,0,0-.75-1.11c-0.44-.21-0.28.09-0.37-0.12s0-1.57-.36-1.9-0.25.19-.42-0.26-0.15-1.25-.59-1.28-0.16.57-.26,0.91-0.75,2.3-1.21,1.54,0.23,0,.3,0,0.27-.08,0-0.1a0.76,0.76,0,0,0-.3.1,1.15,1.15,0,0,1-.68-0.37,0.14,0.14,0,1,0,0,0l-0.19-.09c-0.11-.06-0.14.11-0.36-0.2s0.12-.42.3-0.49,0,0.15,0,.2a0.13,0.13,0,0,0,.2,0,0.29,0.29,0,0,0,0-.29c-0.06-.06-0.12.1-0.2,0.1s-0.33-.09-0.19-0.11a0.91,0.91,0,0,0,.58-0.57,0.88,0.88,0,0,0-.59-0.1h0Zm-82.1-9.13c0,0.26.11,0,.06,0s-0.06-.26-0.06,0h0Zm72.18,14.73c0,0.26.11,0,.06,0s-0.06-.26-0.06,0h0Zm7.56-7.17c0,0.26.11,0,.06,0s-0.06-.26-0.06,0h0Zm-79.45-7.56c0,0.26.11,0,.06,0s-0.06-.26-0.06,0h0Zm45.18,9.23c0,0.26.11,0,.06,0s-0.06-.26-0.06,0h0ZM117,114.1c0,0.11.1,0,.12,0s0.11,0.1,0,0-0.17-.1-0.16,0h0Zm71.4,2.16c0,0.24.26,0,.1,0s-0.05-.2-0.1,0h0ZM185,117.73c0,0.16.21,0.22,0.15,0s0.16,0,0,0-0.11-.13-0.11,0h0Zm-6.48-2.45c0,0.16.21,0.22,0.15,0s0.16,0,0,0-0.11-.13-0.11,0h0Zm1.47,3c0.13,0.13.24-.1,0.11-0.05s-0.25-.08-0.11.05h0ZM113.18,137c0.13,0.13.24-.1,0.11-0.05s-0.25-.08-0.11.05h0Zm77.09-13.65c0.13,0.13.24-.1,0.11-0.05s-0.25-.08-0.11.05h0Zm2.55-.88c0.13,0.13.24-.1,0.11-0.05s-0.25-.08-0.11.05h0Zm-5.11-.49c0.13,0.13.24-.1,0.11-0.05s-0.25-.08-0.11.05h0Zm-43.9-2.75c0.13,0.13.24-.1,0.11-0.05s-0.25-.08-0.11.05h0Zm-38.4.49c0.13,0.13.24-.1,0.11-0.05s-0.25-.08-0.11.05h0Zm84.26-2.36c0.13,0.13.24-.1,0.11-0.05s-0.25-.08-0.11.05h0Zm0.39-.29c0.13,0.13.24-.1,0.11-0.05s-0.25-.08-0.11.05h0Zm-72.38-2.75c0,0.18.19,0.16,0.13,0s-0.17-.2-0.13,0h0Zm74.25,3.63c0,0.18.19,0.16,0.13,0s-0.17-.2-0.13,0h0Zm-8.45,1.67c-0.08.33,0.05,0.11,0.2-.08s0.11,0,0-.12-0.11-.13-0.2.2h0Zm-4.22-2.85c0.22-.19,0-0.46-0.2-0.29s0,0.48.2,0.29h0Zm17.07,3.06c0-.23-0.05-0.34-0.27-0.32s0.24,0.54.27,0.32h0Zm-78.05,22.56a0.7,0.7,0,0,0,.29,0c0.06,0,.06-0.08,0-0.1a0.72,0.72,0,0,0-.29,0c-0.06,0-.06.08,0,0.1h0ZM144.61,118c0.1,0,.05.11,0.2-0.08s0.1,0,0-.12,0-.08-0.1,0-0.2.21-.1,0.18h0Zm49.79,1.37c0.27-.11-0.47-0.34-0.39-0.1s0.13,0.21.39,0.1h0Zm-2.95,3c0.2,0,.62.16,0.29-0.1s0,0.1-.29.1-0.29-.09-0.39.1,0.09,0,.19,0,0-.12.2-0.09h0Zm-0.2-8.35c0.22-.09.22-0.21,0-0.29s-0.22.38,0,.29h0Zm1.18,3.73c0.22-.09.22-0.21,0-0.29s-0.22.38,0,.29h0ZM192,122.25a1.28,1.28,0,0,0,.39,0c0.08,0,.08-0.08,0-0.1a1.32,1.32,0,0,0-.39,0c-0.08,0-.08.08,0,0.1h0Zm-2.55-7.46c0.1,0,.44-0.07.29-0.2a0.3,0.3,0,0,0-.29-0.1c-0.17,0-.1.26,0,0.29h0Zm-30.94,8.84c0.18,0,.19-0.12.2-0.29s-0.15-.07-0.2,0-0.18.34,0,.29h0ZM196.07,120a2.13,2.13,0,0,0,.49,0c0.1,0,.1-0.08,0-0.1a2.07,2.07,0,0,0-.49,0c-0.1,0-.1.08,0,0.1h0Zm-3.34,0c0,0.25.37,0.16,0.39,0s-0.44-.25-0.39,0h0Zm4.12,16.89c0.33,0.22.43-.09,0.2-0.39s-0.53.17-.2,0.39h0Zm-3.14-16.79a0.34,0.34,0,0,0,.29,0,0.12,0.12,0,0,0,0-.2,0.34,0.34,0,0,0-.29,0,0.12,0.12,0,0,0,0,.2h0Zm-30.44,7.07c0.07,0.13.28,0.19,0.29,0s0-.27-0.2-0.29-0.16.17-.1,0.29h0Zm28.28-7.07a0.89,0.89,0,0,0,.25,0,0.44,0.44,0,0,1,.19,0c0.19,0,.39.18,0.24-0.18s-0.56.15-.69,0.2h0ZM180.85,119c0.07,0,.18,0,0-0.17s-0.37-.56-0.28-0.12,0.23,0.34.29,0.29h0Zm0.59,1c0.2,0,.07-0.23,0-0.29s-0.28-.2-0.29,0a0.25,0.25,0,0,0,.29.29h0Zm17.09,17.18c0.17,0,.08,0,0.06-0.17s0.07-.4-0.16-0.22-0.07.42,0.1,0.39h0Zm-13.75-16.69c0.09,0.07.46,0.23,0.39,0a0.38,0.38,0,0,0-.39-0.29c-0.23-.05-0.09.23,0,0.29h0ZM105,119.69a0.41,0.41,0,0,0-.1-0.49c-0.07-.13-0.19.08-0.15,0.28s0.1,0.39.25,0.21h0Zm57.75-5c0.28,0,.45.06,0.49-0.2s-0.38,0-.49,0-0.28.17,0,.2h0Zm31.43,7.66c0.29,0.23.53-.13,0.29-0.39s-0.59.16-.29,0.39h0ZM178.59,115c0,0.28.08,0.23,0.1,0s0.43-.59.1-0.88-0.21.6-.2,0.88h0Zm15.12,8.74c0.15,0.21.2,0.1,0.39,0.1s0.38-.18.2-0.29-0.74,0-.59.2h0Zm1.67-1.86c0.28,0.28.63-.48,0.29-0.59a0.34,0.34,0,0,0-.29.59h0Zm-3.24-1.18c0.22,0.36.65,0.27,0.59,0s-0.81-.36-0.59,0h0Zm-2.95,2.16c0.05,0.22.51,0.63,0.79,0.39s-0.05-.33-0.29-0.41-0.55-.21-0.5,0h0Zm-0.59-6.77c0.72,0,.67-0.58,1.08-0.79s-0.25-.5-0.39-0.29a1.74,1.74,0,0,1-.3.58c-0.26.26-1.1,0.53-.39,0.5h0Zm2.45-.79s0,0,0,0a0,0,0,0,1,0,0h0Zm2,5.5c0.09,0.23,0,0,.16-0.14s0.73,0.4,1,.14-0.16-.48-0.66-0.45-0.61.22-.52,0.45h0Zm-2.26,2.65c-0.29.71,0.43-.16,0.94-0.43s1.73-.42.93-0.55a1.69,1.69,0,0,0-1.87,1h0Zm-2.26-1c-0.43,0-1.45-.29-0.49.2s0.8,0,1.47,0,0.61,0,.9,0,0.6,0,.54-0.26,0,0.06-.53,0a1.2,1.2,0,0,0-.72,0c-0.4.13,0.14,0.19-.46,0a0.86,0.86,0,0,0-.7,0h0Zm-15-6.28c0,0.84.88,0.73,0.88,0.39a0.81,0.81,0,0,0-.29-0.6,0.77,0.77,0,0,0-.5-0.39c-0.19,0,0,.09,0,0.2s-0.05-.45-0.05.39h0Zm23.57,22.78c0.31,0.3.18,0,.32-0.06s0.26-.11.32-0.14h0s0,0.09,0,0,0.34-.45.46-0.64,0.58-.54.19-0.7-0.86.2-1.14-.12,0.1-.64-0.23-0.27a2.13,2.13,0,0,0,0,2h0Zm-6.38-18c0.13-.13.24,0.1,0.11,0.05s-0.24.08-.11-0.05h0Zm4.62-.88a0.06,0.06,0,0,1,0,0s0,0,0,0h0Zm-1.18-.49c-0.48.4,0.06,0.17,0.41,0.38a0.79,0.79,0,0,0,.58.21c0.36,0-.5-0.14-0.49.1a0.63,0.63,0,0,0,.39.59c0.29,0.15-.7-0.75.29-0.29s1.77,0.41,2.06,1.47-0.79,0-.49.39,0.65-.31,1-0.1,0.16,1.1.39,0.39a4.45,4.45,0,0,0-.14-2.61,3.6,3.6,0,0,0-1.32-.24,0.37,0.37,0,1,0-.06,0c-0.26.15-.23,0.38-0.54,0.55s-0.28-.09-0.48-0.23l-0.07,0s0,0.63,0,0a1,1,0,0,0-1.47-.59h0Zm-10.11.59s0,0,0,0a0,0,0,0,1,0,0h0Zm-23.57,4.42c-0.49.54-.2,0.22-0.94,0.43s-0.73.15-.73,0.74,0.31,0.47-.18,1.19a1.1,1.1,0,0,0-.11,1.46c0.25,0.59.65,0.39,1.23,0.16s0.45-.64.7-1.26,0.52-1.3.71-1.83-0.11-.3.3-0.4,0-.47,0-0.8,0.18-.54-0.25-0.68-0.08,0-.38.41a1.32,1.32,0,0,1-.31.58h0Zm25.83-5.89c-0.32.42-.13-0.67-0.69-0.2s-0.14,1.41.29,2,0.41,0.08.72,0.11a2,2,0,0,1,.69,0c0.32,0.12.08,0.11,0.26,0.29s0.36-.08.56-0.1-0.22.19,0.12,0,0,0.18.1-.41a1.72,1.72,0,0,1,.34-0.84,0.89,0.89,0,0,1,.65-0.53c0.37-.22-0.3-0.16-0.33-0.47a4,4,0,0,1,.2-1c0-.17,0,0,0,0l0.08-.07c0.09-.08.19,0.13,0.21-0.18s-0.07,0-.38-0.12a0.82,0.82,0,0,1-.43-0.49c-0.13-.2,0,0-0.06-0.08s0.2-.48-0.12-0.09-1,.93-1.13,1.12a1.38,1.38,0,0,1-.54.54,1.18,1.18,0,0,0-.58.6h0Zm-68.74,23.86h0Zm-1.57-.39a0.06,0.06,0,0,1,0,0s0,0,0,0h0Zm0.2-.1a0.06,0.06,0,0,1,0,0,0.06,0.06,0,0,1,0,0h0Zm-0.2-.69c0.21,0.09.05,0.54-.1,0.69s-0.11-.78.1-0.69h0Zm-0.49.59a0.06,0.06,0,0,1,0,0,0.06,0.06,0,0,1,0,0h0Zm-0.2-.1a0.06,0.06,0,0,1,0,0s0,0,0,0h0Zm0.88-.1c0.13-.13.24,0.1,0.11,0.05s-0.24.08-.11-0.05h0Zm-1.18-.1h0Zm0.39-.1c0.13-.13.24,0.1,0.11,0.05s-0.24.08-.11-0.05h0Zm-0.29-.2s0,0,0,0a0,0,0,0,1,0,0h0Zm0.88,0,0.19-.11-0.19.11h0Zm-1.08-.39-0.19.11,0.19-.11h0Zm0,0h0Zm-1-.69h0Zm0-1.08a0.06,0.06,0,0,1,0,0,0.06,0.06,0,0,1,0,0h0Zm-0.2-1.87c0.28-.21.23,0,0.24,0.26s-0.13.67-.24,0.43-0.28-.48,0-0.69h0Zm-0.1-.29c0.17-.18.39,0,0.2,0.2s-0.36,0-.2-0.2h0Zm3.54-.69-0.21-.05,0.21,0.05h0Zm1.87-3.83h0Zm0,0h0Zm2.46-1.37-0.19.11,0.19-.11h0Zm0.1-.1-0.1.1,0.1-.1h0Zm0,0c-0.2-.18,0-0.49.2-0.29s0,0.48-.2.29h0Zm75.91,4.61c0.13-.13.24,0.1,0.11,0.05s-0.24.08-.11-0.05h0Zm-11.1-6.09s0,0,0,0h0s0,0,0,0h0Zm-77-9.43a0.06,0.06,0,0,1,0,0,0.06,0.06,0,0,1,0,0h0Zm12.37-.29a0.06,0.06,0,0,1,0,0s0,0,0,0h0ZM121,119.3l-0.05.21,0.05-.21h0Zm0.59-.1-0.19.11,0.19-.11h0Zm-0.39,0c0-.26.11,0,0.06,0s-0.06.26-.06,0h0Zm-0.2.1h0Zm-8.25-3.93c0.19-.21.6,0.29,0.2,0.39s-0.38-.19-0.2-0.39h0Zm0.69-.49a0.06,0.06,0,0,1,0,0s0,0,0,0h0Zm41.64-9.72h0Zm-4.62-.49h0Zm-1.28-.2h0Zm2.36-1c-0.31-.31.37-0.51,0.69-0.2s-0.37.51-.69,0.2h0Zm17.58,7.07s0,0,0,0a0,0,0,0,1,0,0h0Zm-14.93-2.16a0.06,0.06,0,0,1,0,0,0.06,0.06,0,0,1,0,0h0Zm-0.1-.2a0.06,0.06,0,0,1,0,0s0,0,0,0h0ZM189,106.93h0Zm9.53-9.52a0.06,0.06,0,0,0,0,0s0,0,0,0h0ZM198.92,96a0.06,0.06,0,0,0,0,0s0,0,0,0h0ZM112.3,97.31a0.06,0.06,0,0,0,0,0s0,0,0,0h0Zm8.94,0.49a0.06,0.06,0,0,0,0,0s0,0,0,0h0ZM82.15,92a0.06,0.06,0,0,0,0,0s0,0,0,0h0Zm3-.49a0.06,0.06,0,0,0,0,0s0,0,0,0h0ZM75.87,93a0.06,0.06,0,0,0,0,0s0,0,0,0h0Zm-0.79.1a0.06,0.06,0,0,0,0,0s0,0,0,0h0Zm18,0.1a0.06,0.06,0,0,0,0,0s0,0,0,0h0Zm105.77,3a0.06,0.06,0,0,0,0,0s0,0,0,0h0Zm-86.52.29a0.06,0.06,0,0,0,0,0s0,0,0,0h0ZM145,90.73a0.06,0.06,0,0,0,0,0s0,0,0,0h0ZM81.07,92a0.06,0.06,0,0,0,0,0,0.07,0.07,0,0,0,0,0h0ZM79,92.69a0.06,0.06,0,0,0,0,0s0,0,0,0h0Zm2.26-.59a0.06,0.06,0,0,0,0,0s0,0,0,0h0ZM147.75,95s0,0,0,0h0s0,0,0,0h0ZM134.4,92.1a0.07,0.07,0,0,0,0,0h0s0,0,0,0h0Zm-51.07-.39a0.23,0.23,0,0,0,.1,0,0.12,0.12,0,0,0-.08-0.11s0,0.09,0,.11a0.22,0.22,0,0,0-.1,0,0.12,0.12,0,0,0,.08.11s0-.09,0-0.11h0Zm42.33,1.67c0,0.06-.09,0-0.1,0a0.12,0.12,0,0,0,.08.11s-0.28-.4,0-0.11a1.82,1.82,0,0,1,.49.29c0.2,0.3-.09,0-0.1,0a0.12,0.12,0,0,0,.08.11s-0.27.06,0-.11a2.26,2.26,0,0,0,.62-1,3.73,3.73,0,0,1,.6-1c0.29-.29.21-0.09,0.3-0.37a0.6,0.6,0,0,0,.06-0.3c0-.06,0,0.07,0-0.05s-0.29,0,.07-0.39,0.16-.22.83-0.32a2.87,2.87,0,0,0,1.09-.31,5.18,5.18,0,0,0,1-1,10.35,10.35,0,0,1,1.94-.51,11,11,0,0,0,1.61-.85c0.26-.1.32-0.16,0-0.2a4.13,4.13,0,0,1-1.18-.1c-0.33-.15.22,0,0.39-0.2s-0.43-.62-0.1-0.59,0.18,0.36.46,0.62a0.49,0.49,0,0,0,.71.16c0.38-.16,0-0.73,0-1s0.1,0.05-.1-0.19a1.28,1.28,0,0,1-.64-0.76c0-.46,0-0.61.1-0.26a0.86,0.86,0,0,0,.59.79c0.34,0,.22-0.5.2-0.69s-0.54.12-.2-0.1a1.17,1.17,0,0,0,.79-0.69c0.06-.41-0.09,0-0.19,0s-0.3,0-.2-0.09a1.44,1.44,0,0,1,.52,0c0.09,0,.47-0.11.36-0.34s-0.16.07-.3-0.1-0.41-.11-0.1-0.29a1.08,1.08,0,0,0,.08-1.06l0,0,0-.05s-0.12.06-.09-0.12-0.08-.34.2-0.39,0.2,0.06.39,0.2,0,1.09.13,0.5a2.5,2.5,0,0,1,.17-0.62c0.24-.74-0.39-0.06-0.49-0.48s0,0,.14-0.14,0.11,0.15.16-.16-0.39-.16-0.29-0.29a0.34,0.34,0,0,1,.29-0.1c0.09,0,0,.09,0,0.1a0.12,0.12,0,0,0,.11-0.08s-0.13.47-.11,0a3.06,3.06,0,0,1,.64-1.63,2.68,2.68,0,0,1,.43-0.54c0.26-.23,0,0,0,0l0.07-.1a3.86,3.86,0,0,1,.64-0.67c0.18-.1.09,0,0.13-0.06l0.13-.07c0.14-.07.1,0.57,0.27-0.13S137,77.32,136.75,77s0-.61-0.2-0.29,0.42,0.29.29,0.59-0.27-.35-0.49-0.2a4.19,4.19,0,0,1-.43.45l-0.07,0-0.14.05c-0.11,0-.28.39-0.34,0.05s1.41-.4.79-1.08-0.46.26-.81,0.36-0.38.14-.36-0.07,0.18-.22.2-0.39-0.09,0-.19,0-0.29,0-.2-0.09a2.57,2.57,0,0,1,1-.1c0.44-.05,1-0.23.79-0.59a2.09,2.09,0,0,0-1-.39c-0.35-.22.25-0.2,0-0.39s-0.34.07-.42,0.08-0.59.17-.36-0.08,0.75,0,.59-0.29-0.19-.15-0.69-0.29a3.64,3.64,0,0,0-2-.19c-0.49.23-.06,0.19-0.29,0.09s0-.09,0-0.1a0.12,0.12,0,0,0-.11.08s0.22-.17.11,0,0-.06-0.39,0,0.61,0.33.2,0.39-0.48-.39-1.17-0.1-0.41,0-.5.29,0.26,0.16.27,0.26-0.06,0-.24,0-0.36,0-.35.21a1.44,1.44,0,0,0,0,.33c0,0.14.51,0.63,0.18,0.72s-0.21-.13-0.37-0.42a1.68,1.68,0,0,0-.15-0.24c-0.2-.31,0-0.86-0.56-0.62s0,0.61-.1,1-0.4-.05-0.48-0.07,0,0.09,0,0-0.11-1.15-.22-0.78,0.11,0.7-.2.59,0.54-.42.1-0.69-1,.12-1.67.2,0.22,0.54,0,.39-0.29-.91-0.59-0.2,0.31,0.53-.29.88-0.42-.3-1,0.09a1.65,1.65,0,0,0-.77.6c-0.29.4-.36,0-0.1,0.29s0.83,0,.59.29a2.53,2.53,0,0,1-.56.52,1.19,1.19,0,0,1-.9.07c-0.44,0-.46.12-0.89,0.2s-0.69,0-.8.38,0.12,0.25.26,0.44,0.1,0.17.21,0.34a0.37,0.37,0,0,0,.42.19c0.28,0,.63-0.29.58,0s-1,0-1.47.2-0.2.24,0,.39,0.36-.25.49,0.2-0.37,0-.39.29a0.58,0.58,0,0,0,.51.57c0.28,0.05-.31-0.06.18-0.28s0.31,0.22.63,0.19h0.23a2.16,2.16,0,0,1,1.3.61c0.36,0.37,0,.42,0,0.74s-0.06.2,0,.38,0,0,.06.11,0,0.06,0,.08a0.14,0.14,0,0,1,0,0,0.34,0.34,0,1,1,0,0,2.7,2.7,0,0,0,0,1c0.11,0.48.66-.25,0.2,0.29a1.74,1.74,0,0,0-.49.84c-0.16.39-.23-0.16-0.1,0.24s0.19,0,.39.2,0,0.39.2,0.2-0.23.11-.2-0.2,0.14-.14.2-0.29,0.23,0.12.2,0.2-0.43.13-.1,0.3,0.37-.06.29,0.29-0.09-.07-0.47-0.15-0.24,0-.42.15-0.15-.05-0.08.06,0.41,0.08.18,0.13-0.28,0-.35.16a0.39,0.39,0,0,0,0,.46c0.12,0.25.82,0.41,0.92,0.07s-0.89-.59-0.29-0.49,0.74-.41.59,0.49-0.29.61-.52,0.61,0-.16-0.27,0,0.13-.2-0.24.3-0.23,0-.39.55,0.24,0,0,.57,0.08,0.85.06,1.53,0.25-.22.2,0a0.78,0.78,0,0,0,.15.83,3.82,3.82,0,0,0,.5,1.15c0.41,0.43.06,0.05,0.1,0.13s0,0,0,0-0.07.11,0,.09a0.87,0.87,0,0,1,.64.06,0.71,0.71,0,0,1,.15.23h0Zm22.19,1.87c0.11-.23.09,0,0.1,0a0.11,0.11,0,0,0-.08-0.11s0.14,0.05,0,.11a0.59,0.59,0,0,0-.39.2c-0.11.16,0.09,0.28,0.2,0.29s0,0,.11-0.16,0-.09.08-0.32h0ZM119.08,92c0-.09,0-0.09,0-0.1A0.12,0.12,0,0,0,119,92s0.13-.06.11,0a0.72,0.72,0,0,0-.2.29c0,0.1.24,0.3,0.3,0s0-.2-0.1-0.29h0Zm33.78-1.28c-0.09.09,0.08,0,0,0s0.07-.09,0,0h0ZM80.78,92.1c0.2-.14.2,0,0.2-0.2a2,2,0,0,0-.2.2c-0.15,0-.16-0.3-0.39-0.1a0.86,0.86,0,0,1-.39.39c-0.21,0,.06-0.25-0.11-0.19s-0.9.27-.58,0.49,0.23-.21.69-0.29,0.16,0.12.41,0a1.13,1.13,0,0,0,.38-0.32h0Zm-2.16.59c0,0.26.11,0,.06,0s-0.06-.26-0.06,0h0Zm67.66,4c0,0.12.1,0,.12,0s0.12,0.11,0,0,0,0-.05,0-0.12-.09-0.11,0h0Zm52.44-1.87c0,0.11.1,0,.12,0s0.11,0.1,0,0-0.17-.1-0.16,0h0ZM76.06,93c0,0.24.26,0,.1,0s-0.05-.2-0.1,0h0Zm63.44,4.22c0,0.24.26,0,.1,0s-0.05-.2-0.1,0h0ZM77.83,92.89c0,0.24.26,0,.1,0s-0.05-.2-0.1,0h0Zm-2.26,0c0,0.16.21,0.22,0.15,0s0.16,0,0,0-0.11-.13-0.11,0h0ZM85.78,91c0.13,0.13.24-.1,0.11-0.05s-0.25-.08-0.11.05h0Zm113,4.81c0.13,0.13.24-.1,0.11-0.05s-0.25-.08-0.11.05h0Zm-82.89-4.61c0.13,0.13.24-.1,0.11-0.05s-0.25-.08-0.11.05h0Zm-38.6,1.87a0.7,0.7,0,0,0,.29,0c0.06,0,.06-0.08,0-0.1a0.71,0.71,0,0,0-.29,0c-0.06,0-.06.08,0,0.1h0Zm125.12-1.57c0.28,0,0-.05-0.17-0.13S202,91,202.06,91.32s0.11,0.22.39,0.2h0Zm-63.74,1.37c0,0.13.23,0,.29,0s0.12-.18,0-0.2-0.34.06-.29,0.2h0Zm-21.14,0c0,0.12.24,0.09,0.32,0s0.12-.29,0-0.29a0.36,0.36,0,0,0-.32.27h0Zm23,1.1c-0.12.25,0.22,0.07,0.29,0s0.26-.32,0-0.29-0.17,0-.29.29h0ZM76.85,93c0.22,0.3.67-.06,0.39-0.29s-0.61,0-.39.29h0Zm38.69-2.36c0.32-.22-0.26-0.69-0.39-0.29s0.07,0.52.39,0.29h0Zm82.3,7.66c0.22,0.29.71-.26,0.39-0.49s-0.61.2-.39,0.49h0Zm-49.69-4.22c0.41-.16,0-0.72-0.29-0.39s-0.11.55,0.29,0.39h0ZM115,90.83c0.31,0,.23-0.09.2-0.29s-0.32-.4-0.39-0.11-0.12.37,0.19,0.41h0Zm86.91,0.69c0-.27-0.41-0.72-0.69-0.49s0,0.14.27,0.32,0.39,0.43.42,0.17h0Zm-2.94,3.93c0.35,0.25.64-.35,0.39-0.69s-0.74.44-.39,0.69h0Zm-86.23-.59c0,0.08-.09.2,0.1,0.29s0.41,0.31.49-.1-0.62-.28-0.59-0.2h0Zm1.18-3.24c0.32,0.12,0,.08.14-0.06s0.41-.38.14-0.47-0.6.42-.28,0.54h0Zm83.18,7.46c0.1,0.44,1.1-.76.69-0.79a0.66,0.66,0,0,0-.69.79h0Zm-84.36-7.85c0.36,0.45,1-.06.88-0.49s-0.21-.31-0.59-0.1-0.66.14-.29,0.59h0ZM93.25,95.34a2.06,2.06,0,0,0,.2-1.28c0-.53-0.23-0.56-0.49-0.2s0,2.11.29,1.47h0Zm-7.17-5.11c-0.18.28-.2,0.23-0.1,0.49s-0.09.15,0.2,0.2a1.62,1.62,0,0,0,.88-0.5c0.32-.21.57-0.88,0.4-0.87a0.49,0.49,0,0,0-.41.33c-0.17.26,0.19,0-.15,0.17a1.27,1.27,0,0,0-.82.18h0ZM138.23,97c-0.15.3-.64-0.41-0.59,0s0,0.44.29,0.59-0.11.17-.16,0.24l0,0.06,0,0.05c-0.14.16-.38-0.06-0.14,0.34a0.85,0.85,0,0,0,1.48-.1,2.93,2.93,0,0,0,.3-1c0.22-.31-0.11-0.55-0.46-0.62a0.53,0.53,0,0,0-.62.43h0Zm-4.52-6.87h0Zm0,0a0.61,0.61,0,0,0-.26.15,0.33,0.33,0,0,0-.16.28c0,0.16.39-.3,0.62,0.07s-0.27.26-.59,0.29-0.23.15,0,.2a1.32,1.32,0,0,1,.59.2c0.12,0.11,0-.06-0.09.11s-0.63,0-.21.38,0.57,0,1,.15a1.25,1.25,0,0,0,1-.2l0.41-.19a1.07,1.07,0,0,0,.62-0.61c0.08-.26.46-0.16,0.11-0.33s-0.22-.4-0.5-0.48a0.46,0.46,0,0,0-.33,0c-0.06,0,0,0-.06,0s0,0-.06,0a0.63,0.63,0,0,1-.39.08c-0.35,0-.42,0-0.53.27s-0.09-.55-0.3-0.29,0.28,1-.29.49S134.48,90.3,134,90s-0.11,0-.29.1h0Zm-15.42.69-0.1-.1,0.1,0.1h0Zm-0.1-.1h0Zm1.67-4a0.06,0.06,0,0,1,0,0s0,0,0,0h0Zm-2.95,0c0.09-.22.21-0.22,0.29,0s-0.38.22-.29,0h0Zm2.85-.49c0-.26.11,0,0.06,0s-0.06.26-.06,0h0Zm-3.24-.69c0.1,0,0,0,0,0s-0.1,0,0,0h0ZM112.69,96h0Zm36.63-5.07a0.05,0.05,0,0,1,0,0,0.06,0.06,0,0,1,0,0h0Zm2.55-1.18-0.1-.1,0.1,0.1h0Zm-0.1-.1h0Zm-4-2h0Zm-0.59,0c0.33-.09.63,0,0.29,0.1s-0.62,0-.29-0.1h0Zm1.87-.49c0.09,0.33,0,.63-0.1.3s0-.62.1-0.3h0Zm-0.79.2a0.06,0.06,0,0,1,0,0s0,0,0,0h0Zm0.88-.39-0.1.2,0.1-.2h0Zm-25,3.83h0Zm3.73-.2h0Zm1-.59a0.06,0.06,0,0,1,0,0,0.06,0.06,0,0,1,0,0h0ZM131,88.67a0.06,0.06,0,0,1,0,0,0.06,0.06,0,0,1,0,0h0Zm-6.28-.1a0.06,0.06,0,0,1,0,0s0,0,0,0h0Zm0.1-.49a0.06,0.06,0,0,1,0,0s0,0,0,0h0Zm-0.3-.2h0Zm0.69-.29a0.06,0.06,0,0,1,0,0s0,0,0,0h0Zm7.27-.39a0.06,0.06,0,0,1,0,0s0,0,0,0h0Zm-7.17-.1c0-.26.11,0,0.06,0s-0.06.26-.06,0h0Zm7.37-.2a0.06,0.06,0,0,1,0,0,0.06,0.06,0,0,1,0,0h0Zm-8-.1h0Zm0.49-.29a0.06,0.06,0,0,1,0,0s0,0,0,0h0Zm8.05-.1a0.06,0.06,0,0,1,0,0,0.06,0.06,0,0,1,0,0h0Zm-8.15-.69-0.1.1,0.1-.1h0Zm0,0h0ZM94.13,94.66c0-.24.27,0,0.09,0s-0.09.24-.09,0h0Zm0-1h0Zm-0.2-.29a0.06,0.06,0,0,1,0,0s0,0,0,0h0Zm-0.2,0h0Zm-0.1-.29c0.13-.13.24,0.1,0.11,0.05s-0.24.08-.11-0.05h0Zm0-.59a0.25,0.25,0,0,1,.11.39c-0.12.07-.05,0.2-0.15-0.15s-0.11-.23,0-0.24h0Zm0.2,0a0.06,0.06,0,0,1,0,0s0,0,0,0h0Zm-0.49,0a0.06,0.06,0,0,1,0,0,0.06,0.06,0,0,1,0,0h0Zm0.3,0h0Zm0.29-.2h0Zm-0.79.1h0Zm0.69-.29,0.1,0.2-0.1-.2h0Zm0,0-0.1-.1,0.1,0.1h0ZM93.44,92l-0.19.11L93.44,92h0ZM93,92L93,91.8,93,92h0Zm0.79,0c-0.08.08-.33,0.14-0.29,0a0.59,0.59,0,0,1,.39-0.39c0.16,0,0,.31-0.1.39h0Zm0.1-.39c-0.11-.16-0.08-0.18.1-0.2s0,0.35-.1.2h0Zm-0.49-.2a0.06,0.06,0,0,1,0,0,0.06,0.06,0,0,1,0,0h0Zm0.3-.29h0Zm-0.39.1c-0.06-.21.14-0.1,0.11-0.05s0,0,0,0,0,0.26-.1,0h0Zm0.39-.1c-0.11,0-.12.13-0.1-0.2s0.21,0.21.1,0.2h0Zm-0.49-.29h0Zm0,0L93,90.64l0.11,0.19h0Zm0.49-.29c0-.26.11,0,0.06,0s-0.06.26-.06,0h0ZM110.53,90h0Zm-24.75-1a0.06,0.06,0,0,1,0,0s0,0,0,0h0Zm4-.2c0.07,0.19,0,.14-0.29.1s-0.17-.2,0-0.2,0.22-.09.29,0.1h0Zm0.1-.1-0.1.1,0.1-.1h0Zm21.7-.39a0.31,0.31,0,0,1,.39.49,0.31,0.31,0,0,1-.39-0.49h0Zm2.06-.49a0.06,0.06,0,0,1,0,0s0,0,0,0h0Zm-25.14.29c-0.38-.25.53-0.51,0.79-0.29s0.42,0.19,0,.29-0.41.25-.79,0h0Zm-3.93-.49a0.06,0.06,0,0,1,0,0,0.07,0.07,0,0,1,0,0h0ZM110.34,87c-0.12.28,0.06,0-.24,0s-0.12.18-.06,0,0.08-.58.39-0.49,0,0.22-.1.49h0Zm54.8-1.86h0Zm-9.82-8c0.29-.12.13,0.08,0.19,0.11a0.49,0.49,0,0,1-.19-0.11c0-.06,0,0,0.07-0.13a0.42,0.42,0,0,0,0-.36c0-.1,0,0,0,0l-0.12-.07s-0.12.21-.14,0.11a3.21,3.21,0,0,0,0-.52c0-.18-0.11-0.25-0.37-0.17s0.2-.22-0.07.43-0.46.14-.23,0.75,0.59,0.12.88,0h0ZM120,87.69v0h0Zm33.49-10.9h0Zm27,4.12a0.12,0.12,0,0,1,.1.1s-0.05,0-.06,0,0,0-.06,0-0.13,0-.18-0.07,0.14-.1.2-0.1h0Zm20.23-2c0-.06-0.06-0.17.1-0.1s0.46,0.22.29,0.49-0.11,0-.23-0.16a0.44,0.44,0,0,1-.16-0.23h0ZM148,78.75c0-.27.14,0,0.21-0.05a0.28,0.28,0,0,1-.21.05c-0.14,0-.36-0.12-0.6-0.19s-0.26,0-.38.19,0-.06-0.1-0.2,0.07-.32-0.2-0.19,0.19,0.73-.1.49,0.07-.36-0.69-0.49,0-.07-0.29.29,0.26,0.39.2,0.69-0.43-.49-0.69-0.39,0,0.24-.1.49-0.28-.16-0.47-0.22-0.44-.51-0.71.12,0.23,0.62.1,0.88-0.21-.24-0.2,0a1.06,1.06,0,0,0,.49.69c0.2,0.09-.33-0.25,0-0.2a0.93,0.93,0,0,1,.59.69,1.14,1.14,0,0,0,.29.6,1.11,1.11,0,0,1,.4.58c0.13,0.27.23,0.18,0.29,0s0-.38.07-0.62,0.19-.67.26-1-0.14-.31.06-0.54,0.3,0.11.46,0.53,0.07,0,.07.27-0.08.45,0.46,0.18-0.07.5,0.1,0.39,0.64-.39.39-0.69-0.14,0-.3,0l0,0L147.35,81a0.14,0.14,0,0,1,0,0s0.12,0.1,0-.05-0.58-.63-0.79-0.88a2,2,0,0,0-.54-0.16c-0.36-.24-0.44-0.41-0.1-0.49s0,0.19.64,0.34-0.17.16,0.64,0.24,0.58-.16.84-0.74,0.06-.18,0-0.44h0Zm17.68,3.14s0,0,0,0,0,0,0,0h0Zm2.06-2.75s0,0,0,0,0,0,0,0h0Zm-9.23,8.64a0.06,0.06,0,0,0,0,0,0.06,0.06,0,0,0,0,0h0Zm0.2,0a0.06,0.06,0,0,0,0,0s0,0,0,0h0Zm32.11-9a0.06,0.06,0,0,0,0,0s0,0,0,0h0ZM116,87a0.06,0.06,0,0,0,0,0,0.06,0.06,0,0,0,0,0h0ZM128.9,75.51a0.06,0.06,0,0,0,0,0,0.06,0.06,0,0,0,0,0h0Zm61.67,3.34a0.06,0.06,0,0,0,0,0,0.06,0.06,0,0,0,0,0h0Zm0.59-.1a0.06,0.06,0,0,0,0,0s0,0,0,0h0Zm-77.58,1.18a0.06,0.06,0,0,0,0,0s0,0,0,0h0Zm1.08,2a0.06,0.06,0,0,0,0,0s0,0,0,0h0Zm-2.36,3.53a0.06,0.06,0,0,0,0,0s0,0,0,0h0Zm53.62-7.07a0.06,0.06,0,0,0,0,0s0,0,0,0h0Zm-75.23,11a0.06,0.06,0,0,0,0,0s0,0,0,0h0Zm68.25-1.57a0.07,0.07,0,0,0,0,0s0,0,0,0,0,0,0,0h0Zm0.59-.59s0,0,0,0h0s0,0,0,0h0Zm-35.06-3s0,0,0,0h0s0,0,0,0h0Zm41-1.77s0,0,0,0h0s0,0,0,0h0Zm-50.28,7.86s0,0,0,0h0s0,0,0,0h0Zm9.23-7.36a0.07,0.07,0,0,0,0,0h0s0,0,0,0h0Zm41.35-.39s0,0,0,0h0s0,0,0,0h0Zm-57.26,3.14,0,0s0,0,0,0h0s0,0,0,0h0Zm51.36,1.67a0.23,0.23,0,0,0,0,.1,0.12,0.12,0,0,0,.11-0.08s-0.09,0-.11,0a0.23,0.23,0,0,0,0-.1,0.12,0.12,0,0,0-.11.08s0.09,0,.11,0h0Zm-38.3-9c0.12-.1,0,0.09,0,0.1a0.12,0.12,0,0,0,.11-0.08s-0.06.12-.11,0-0.1.08-.2-0.2-0.25,0,.15-0.1-0.2.23,0.2,0-0.11,0-.26-0.27,0.26-.16.47-0.14-0.28-.29.31-0.25a2.27,2.27,0,0,0,1-.1c0.27-.06-0.3-0.05-0.1-0.15l0.75-.38c0.31-.15.67-0.27,1-0.4a6.25,6.25,0,0,0,.63-0.25c0.18-.1.3-0.24,0-0.29s-0.46.06-.29-0.1A2.26,2.26,0,0,1,126,75.5a2.55,2.55,0,0,0,.91-0.38c0.24-.18.29-0.44,0-0.59s0-.25-0.2-0.59-0.18.07-.49-0.1a10.3,10.3,0,0,0-1-.58c-0.45-.21-0.76.41-0.77,0.09s0.29-.21,0-0.29a1.42,1.42,0,0,0-.88-0.1c-0.31.1,0.39,0.66,0,.49s0.07-.09-0.27-0.33-0.42-.45-0.62-0.16,0.12,0.39-.1.39,0.07-.23,0-0.29-0.16-.23-0.29,0-0.19,0-.34.25-0.06.34-.15,0.43-0.22.17-.29,0,0.44-.37-0.1-0.49-0.22-.1-0.69.29,0.17,0.22.2,0.39,0.16,0.06-.13-0.06a0.83,0.83,0,0,1-.46-0.33c-0.18-.2-0.24.18-0.26,0.19H120a1.09,1.09,0,0,0-.92.2c-0.38.33,0.07-.13,0.2,0.29s-0.05.07-.15,0.62,0.17,0.43.44,0.56a2,2,0,0,0,.36.34,0.66,0.66,0,0,0,.53,0c0.15,0-.22.14,0,0.2s0.55-.26.79,0.1-0.71-.13-1,0-0.06,1.13-.1.69-0.21-1.2-.79-0.88,0.31,0.71-.2,1.08-0.26-.44-0.22-0.61a1,1,0,0,0,.22-0.77c-0.14-.34-0.56.06-0.59-0.29s0.08-1.44-.49-1.18,0.69,0.23.3,0.49-0.65.19-.59,0.49-0.07-.08-0.17-0.1,0.11-.07-0.14,0,0.11-.17-0.38.09,0.35,0.27.29,0.59-0.3-.52-0.49-0.2a1.31,1.31,0,0,0-.29,1.08c0.15,0.35.27,0.06,0.49,0.1s0.24,0.21,0,.2a0.49,0.49,0,0,0-.59.25,0.42,0.42,0,0,0-.07.34,0.37,0.37,0,0,0,.13.43,2.57,2.57,0,0,0,.92.17c0.29,0.1.54,0.1,0.2,0.39a1.16,1.16,0,0,0-.29.79c-0.15.38-.36-0.08-0.64,0a2.12,2.12,0,0,1-.78.2c-0.48,0-.58.23-0.75-0.08s-0.66-1-1-.49-0.26.22,0.1,0.69,0.4-.59.69,0.2-0.6.75-.49,1.47,0.51,0.2.79,0.2-0.33-.11,0,0.29,1.3,0.15,1.67.23a1,1,0,0,0,.5.15c0.41,0,.16.07,0.45-0.11a0.37,0.37,0,0,0,.27-0.32c0.14-.28.3-0.21,0.15-0.44a1.82,1.82,0,0,0-1.42-.45c-0.58.07-.21,0.06-0.36,0s0.1,0.07-.29-0.07-0.79.09-.78-0.5,0.19,0,.59-0.29,0.25,0,.74.25a1.22,1.22,0,0,0,.74,0,1.47,1.47,0,0,1,.78.24c0.22,0.17,0-.22,0,0.12s-0.31-.07,0,0.13,1.26-.24,1.15-0.62,0.06,0-.1-0.11-0.73.51-.17-0.15a4.1,4.1,0,0,1,.88-0.79c0.36-.33.43,0.17,0.69,0.1s0,0,.11-0.18a8.1,8.1,0,0,1,.58-0.6h0Zm33.68-2.16c0,0.26.11,0,.06,0s-0.06-.26-0.06,0h0ZM113.38,81c0,0.26.11,0,.06,0s-0.06-.26-0.06,0h0Zm80.82,8.44c0,0.26.11,0,.06,0s-0.06-.26-0.06,0h0Zm-29.85-8.74a1,1,0,0,0-.19-0.11c0,0.11-.1.08,0.05,0.13s0,0,.14,0a1.61,1.61,0,0,1,.29,0c0.06,0,.28-0.08,0-0.1s-0.17.06-.29,0.1h0Zm-34.18-5.89c0,0.11.1,0,.12,0s0.11,0.1,0,0-0.17-.1-0.16,0h0Zm37.22,4.42c0,0.24.26,0,.1,0s-0.05-.2-0.1,0h0Zm-4,4c0,0.16.21,0.22,0.15,0s0.16,0,0,0-0.11-.13-0.11,0h0ZM109.06,81c0,0.16.21,0.22,0.15,0s0.16,0,0,0-0.11-.13-0.11,0h0Zm56.08,1.37c0,0.16.21,0.22,0.15,0s0.16,0,0,0-0.11-.13-0.11,0h0Zm5.2-4.81c0,0.16.21,0.22,0.15,0s0.16,0,0,0-0.11-.13-0.11,0h0Zm-4.91,1.37c0,0.16.21,0.22,0.15,0s0.16,0,0,0-0.11-.13-0.11,0h0Zm-52.84,2c0.13,0.13.24-.1,0.11-0.05s-0.25-.08-0.11.05h0Zm51.17,2.65c0.13,0.13.24-.1,0.11-0.05s-0.25-.08-0.11.05h0Zm0.29-1.47c0.13,0.13.24-.1,0.11-0.05s-0.25-.08-0.11.05h0Zm-48.12,5.11c0.13,0.13.24-.1,0.11-0.05s-0.25-.08-0.11.05h0Zm-6.09-10c0.13,0.13.24-.1,0.11-0.05s-0.25-.08-0.11.05h0Zm44,1c-0.25-.1,0-0.39-0.2-0.2s0.07,0.1.2,0.2-0.19.13-.11,0.19,0.38,0.27.4,0,0-.1-0.3-0.2h0Zm-44,6c0,0.18.19,0.16,0.13,0s-0.17-.2-0.13,0h0Zm38.4-3.73c0.22-.19,0-0.46-0.2-0.29s0,0.48.2,0.29h0Zm20-1.26c0-.23-0.05-0.34-0.27-0.32s0.24,0.54.27,0.32h0Zm-32,2.34c0,0.06.08,0.06,0.1,0a0.71,0.71,0,0,0,0-.29c0-.06-0.08-0.06-0.1,0a0.72,0.72,0,0,0,0,.29h0Zm10.31,2.95c0,0.06.08,0.06,0.1,0a0.7,0.7,0,0,0,0-.29c0-.06-0.08-0.06-0.1,0a0.7,0.7,0,0,0,0,.29h0ZM137,76.89c0,0.06.08,0.06,0.1,0a0.7,0.7,0,0,0,0-.29c0-.06-0.08-0.06-0.1,0a0.71,0.71,0,0,0,0,.29h0Zm-55.68,10c0.22,0-.23-0.54-0.27-0.32s0.06,0.35.27,0.32h0ZM181.83,74.53c0.23,0.14.31-.08,0.2-0.29s-0.43.16-.2,0.29h0Zm-35.35,3.73c0.27,0,0,0-.11-0.09s-0.17-.3-0.19-0.1,0,0.21.29,0.2h0ZM114.17,80c0.22-.09.22-0.21,0-0.29s-0.22.38,0,.29h0ZM90.11,89c0,0.07.2,0.18,0.2,0a0.23,0.23,0,0,0-.2-0.29c-0.17,0,0,.23,0,0.29h0Zm39.77-13.45c0,0.07.2,0.18,0.2,0a0.23,0.23,0,0,0-.2-0.29c-0.17,0,0,.23,0,0.29h0ZM163.47,84c0.18,0,0-.23,0-0.29s-0.2-.17-0.2,0,0,0.26.2,0.29h0ZM136.36,80c0,0.17.15,0.07,0.2,0s0.15-.31,0-0.29a0.22,0.22,0,0,0-.2.29h0Zm-22.69.1c-0.09-.05-0.14.45-0.29-0.1s0.61-.84.59-1.08-0.1-.14-0.27-0.22a3.14,3.14,0,0,0-.46-0.18c-0.2-.07-0.35-0.39-0.44,0s0.23,0.16.19,0.32,0,0.31-.09.27,0,0-.1-0.29-0.22-.21-0.3,0,0,0.66-.2.49,0.06-.78,0-1-0.23-.39-0.29,0a2.52,2.52,0,0,0-.12,1c0.07,0.41-.07.23,0,0.29a2.17,2.17,0,0,0,.4,0c0.3,0.05.15,0.12,0.08,0.25s-0.39.29-.19,0.42a0.53,0.53,0,0,0,.66.07c0.43-.14.13-0.36,0.52-0.37s0,0.15,0,.2,0.2-.13.2,0a0.21,0.21,0,0,1-.11.18c-0.05.07-.14,0.15-0.18,0.21s0,0.07.15,0.15,0.15,1,.64.35a0.61,0.61,0,0,0-.39-1h0Zm49.3-5.3c0.31,0.12.4,0.11,0.39-.2s-0.7.07-.39,0.2h0Zm-7,1a0.34,0.34,0,0,0,.29,0,0.12,0.12,0,0,0,0-.2,0.33,0.33,0,0,0-.29,0,0.12,0.12,0,0,0,0,.2h0Zm4.71,1.77a0.33,0.33,0,0,0,.29,0,0.12,0.12,0,0,0,0-.2,0.34,0.34,0,0,0-.29,0,0.12,0.12,0,0,0,0,.2h0Zm20.23,0.88c0.21-.31-0.1-0.52-0.39-0.29s0.18,0.6.39,0.29h0Zm-16.6,2.85c0.07,0.13.28,0.2,0.29,0s0-.27-0.2-0.29-0.16.17-.1,0.29h0Zm-45.76-.39c0.32,0.2.46,0.09,0.39-.29s-0.72.09-.39,0.29h0Zm-9.13-3.34c0.07,0.07.31,0.22,0.29,0s0-.21-0.29-0.29-0.07.23,0,.29h0Zm39,2.55c0.07,0.15.31,0,.39,0s0.15-.17,0-0.2-0.46,0-.39.2h0Zm-39.28,5.5c0,0.07,0,.18.17,0a0.27,0.27,0,0,0,.12-0.28c0-.12-0.15,0-0.26.14s-0.07.09,0,.16h0Zm45.67-9.82c0.06,0.18.23,0.07,0.29,0s0.16-.27,0-0.29a0.25,0.25,0,0,0-.29.29h0Zm-5.7,2.95a0.28,0.28,0,1,0,.39-0.39,0.28,0.28,0,1,0-.39.39h0Zm-27.2,1.08c0.28,0,.11-0.08,0-0.1s-0.67-.34-0.59,0,0.31,0.12.59,0.1h0Zm45.38-1.17c-0.08.06-.23,0.17,0,0.18s0.42,0,.39-0.29-0.31.05-.39,0.11h0Zm-50.09,8.82c0.07,0.19.14,0.57,0.39,0.3s-0.14-.22-0.39-0.29,0-.32-0.27-0.32-1.06.48-.71,0.81,0.68-.12.85-0.33l0-.05s0-.3.09-0.11h0Zm37.61-9.82c-0.06-.06.17-0.29,0-0.29s-0.36-.21-0.49.1,0.26,0.13.49,0.2,0.25,0.08,0,.1-0.78,0-.49.29,0.18,0,.34-0.11-0.11-.06.15-0.19,0,0,.27.07,0.05,0.19.42,0.12,0.75-.27.39-0.49a0.74,0.74,0,0,0-.79.08c-0.29.07,0,0-.05,0l-0.06,0s-0.13.15-.18,0.09h0ZM156,78.06s0.5,0.15.29-.29-0.13-.09-0.3.1,0,0.17,0,.19h0Zm4.42-2.16c0.18,0.31.57,0,.49-0.1s-0.67-.21-0.49.1h0ZM165,83.76c0.25-.14,0-0.22-0.1-0.39s-0.25-.23-0.29,0,0.15,0.53.39,0.39h0Zm-54-3.93c0,0.24.21,0.17,0.39,0.1a0.2,0.2,0,0,0,0-.39,0.29,0.29,0,0,0-.39.29h0Zm33.29,0.88c0,0.2-.23-0.12-0.28-0.21s-0.16-.37,0-0.28a0.58,0.58,0,0,1,.29.49h0Zm35.35-3.63c0.22-.27-0.33-0.63-0.59-0.59s0.09,0.14.25,0.34,0.12,0.52.34,0.25h0Zm-10.31-.2a0.39,0.39,0,0,0,.3,0c0.19,0,.48,0,0.29-0.2a0.67,0.67,0,0,0-.59-0.1c-0.16,0-.07.22,0,0.29h0Zm12.57,0.69c-0.15.11,0,.23,0.06,0.35s0.11,0.22.27,0.06-0.17-.52-0.32-0.41h0Zm-68.55-.2a0.4,0.4,0,0,0,.49.29c0.27-.11,0-0.39-0.2-0.39s-0.37-.05-0.29.1h0Zm2.75,1.57a0.33,0.33,0,0,0,.49-0.1c0.13-.18,0-0.18-0.1-0.29s-0.22-.15-0.29,0-0.35.28-.1,0.39h0Zm19.64,4.81c0.18,0.1.49,0.07,0.46-.08a0.23,0.23,0,0,0-.15-0.22c-0.14-.11-0.08-0.16-0.31-0.09s-0.18.29,0,.39h0ZM115.93,86.7c0.11,0.46,1.17-.31.79-0.59s-0.1.06-.39,0.3-0.51-.18-0.4.29h0Zm0.2-11c0.21,0,.26-0.74-0.12-0.52s-0.09.21-.07,0.27,0,0.25.19,0.25h0Zm83.08,13.35c0.32-.46.55-0.45,0.1-0.79s-0.42,1.25-.1.79h0ZM112.3,77.87c0,0.25.18,0.45,0.28,0.21a2,2,0,0,0,.11-0.9c0-.28-0.14-0.23-0.2,0a2.74,2.74,0,0,0-.2.69h0ZM83.53,87.39c-0.11-.29-0.42-0.25-0.69-0.1s0,0.34.32,0.39,0.48,0,.37-0.29h0Zm23.57-9c0.09,0.34.26,0.09,0.51-.07s0.8-.28.47-0.42-1.07.15-1,.49h0Zm66.68,1.87c0.17,0.13.22,0.31,0.49,0.1s0.11-.47-0.1-0.59a0.35,0.35,0,0,0-.46.32c0,0.19-.11,0,0.06.17h0ZM156.4,88.08a0.51,0.51,0,0,0,.69-0.39c0-.29-0.23-0.2-0.39-0.2s-0.23-.13-0.29,0-0.32.47,0,.59h0Zm0-11.49c0-.21.25,0.29,0.39,0.11a0.43,0.43,0,0,0,.2-0.4,0.47,0.47,0,0,0-.2-0.39c-0.1-.17-0.2-0.17-0.29,0a1.91,1.91,0,0,1-.1.69c-0.2.31-.12,0-0.24-0.06s-0.32-.13-0.33.23-0.4.49,0.08,0.61,0.49-.09.49-0.37,0-.2,0-0.41h0Zm-40.46,1.87c0.3-.1.22-0.1,0-0.2s-0.55-.71-1-0.29,0.68,0.6,1,.49h0ZM82.82,84.33c0.12,0.22.24-.06,0.51,0.12s-0.15.41,0.1,0.49,0.3,0.32.49-.1,0.14-.28-0.3-0.69-0.19-.08-0.39-0.2a0.31,0.31,0,0,0-.41.37h0ZM111,76a1.77,1.77,0,0,0,.88.39c0.41,0,.44-0.37.29-0.69s-0.36,0-.63,0-1,0-.55.25h0Zm71.4,2.65a1.41,1.41,0,0,0,1.18-.2c0.46-.4-0.6-0.69-1-0.59s-0.59.82-.2,0.79h0Zm1.47-2.36c0.47,0,.72,0,0.39-0.39a1.33,1.33,0,0,0-1.57-.2c-0.49.28,0.71,0.59,1.18,0.59h0ZM155,76.79a0.06,0.06,0,0,1,0,0,0.06,0.06,0,0,1,0,0h0Zm-0.2-.1a0.06,0.06,0,0,1,0,0s0,0,0,0h0Zm-39.58,1.18a3.59,3.59,0,0,1,.79-0.1c0.34,0.1-.08-0.19-0.1-0.24s0,0.21,0-.06a1,1,0,0,0-.38-0.89c-0.41-.3-0.4.27-0.5,0.59s-0.52.69,0.21,0.69h0Zm-3.54-1.18c0.38-.12.26-0.14,0-0.2a3.69,3.69,0,0,0-1.18,0c-0.33.07,0.25-.33,0-0.39s-0.19-.14-0.34.15,0,0.22.07,0.29l0.06,0.1a0.33,0.33,0,1,1,0,.05,0.44,0.44,0,0,0,.17.41c0.25,0.21.37,0.29,0.66,0a1.11,1.11,0,0,1,.54-0.45h0Zm41.05,0.88c0.12-.07.12,0.27,0,0.2s-0.12-.13,0-0.2h0Zm0.29,0a0.05,0.05,0,0,1,0,0s0,0,0,0h0Zm-0.29,0,0.19-.11-0.19.11h0Zm0,0.2c0.39,0,0,0,.17.33s-0.1.81,0.42,0.26a1.25,1.25,0,0,0,.59-1c0.19-.72-0.3-0.35-0.59-0.29s0.3,0.38,0,.39a1.41,1.41,0,0,0-.88-0.2c-0.47.18-.6,0.24-0.29,0.59s0.25,0,.49,0-0.29,0,.1-0.1h0ZM167.89,76h0Zm0,0c-0.48-.12-0.2-0.44-0.49-0.2s-0.12.17,0.06,0.62,0.06,1.56.53,1.24a1.62,1.62,0,0,0,1-1c0.18-.62-0.6-0.56-1.08-0.69h0Zm-54.7,12.86h0Zm0.69-12.76h0Zm0,0c0.11,0.45-.33,0-0.59.39s0,0.16.28,0.36,0.44,0,.52.42,0,0.33.18,0.4,0.08,0.08.22-.06a2.3,2.3,0,0,0,.47-1.18,0.52,0.52,0,0,0-.16-0.4c-0.21-.26.15-0.15-0.34-0.51s-0.76.15-.69,0.49,0-.35.1,0.1h0Zm32.7,3.14a0.06,0.06,0,0,1,0,0,0.06,0.06,0,0,1,0,0h0ZM107.1,77.57a0.06,0.06,0,0,1,0,0s0,0,0,0h0Zm1.28,0.29c-0.14-.57.41-0.26,0.65-0.52s0.07-.12.12-0.17l0.29-.3c0.06-.06.23,0,0.21-0.09s0.49-.42-0.1-0.39-0.28,0-.78,0,0.33-.25-0.43.16-1.81.74-1.83,1.11,0.09-.05.22,0,0.33,0.28.57,0.34a0.49,0.49,0,0,0,.42-0.25,0.34,0.34,0,0,0,.14-0.08,0.49,0.49,0,0,0,.14-0.14s-0.19.2,0-.05-0.25.24,0.1-.11,0.09-.28.34-0.25-0.15.2-.28,0.42,0,0.16.18,0.36-0.12.26-.2,0.34a0.54,0.54,0,0,0-.39.35c0,0.28.62,0,.49,0.1a1.63,1.63,0,0,1-.67,0c-0.09,0-.39.06-0.05,0.38s0.79,0.06,1,.28-0.42-.39-0.59.1,0.47,0.6,1.25.37,1.4,0.09,1.86-.31l0.11-.1s0.47-.34.07-0.55,0,0.13-.37,0,0-.35,0-0.84-0.5,0-.55.13,0.22,0.73-.28.9-0.48-.22-0.51-0.63-0.12-.27-0.18-0.33a1.37,1.37,0,0,1-.13-0.16s0.23-.22-0.06-0.25-0.65.77-.79,0.2h0Zm4.52,1.28L113,79.34l-0.11-.19h0Zm0.59-.29a0.06,0.06,0,0,1,0,0s0,0,0,0h0Zm68.16-2.36s0,0,0,0a0,0,0,0,1,0,0h0Zm-1-.29h0Zm0,0-0.1-.1,0.1,0.1h0Zm0.49-.29c0.29-.06.39,0.18,0.29,0.49s-0.59-.43-0.29-0.49h0Zm-0.59.2c-0.47.28-.08,0-0.41-0.18s-0.16-.51-0.48-0.11-0.11.55,0.12,0.86a1.34,1.34,0,0,0,.41.48,1,1,0,0,0,.89.29c0.26-.09.19-0.33,0.59-0.51s1.35-.56.55-1.12a1.33,1.33,0,0,0-1.67-.2c-0.27.25,0.47,0.21,0,.49h0Zm-69.24,5.2c-0.2.06-.12,0.1-0.22,0.34s0.21,0.66-.17.73,0.34-.35-0.1-0.49a0.51,0.51,0,0,0-.59.79,3.46,3.46,0,0,0,.59,1.08c0.36,0.28,0,0,.35-0.13a1.16,1.16,0,0,0,.94-0.74c0.09-.16.5-0.6,0.18-0.7s-0.32.14-.39-0.1,0.28,0.3.39,0a1.58,1.58,0,0,1,.12-0.28,0.72,0.72,0,0,0,.09-0.33c0-.18.16,0,0-0.2s-0.28,0-.46,0a4.18,4.18,0,0,0-.7,0h0Zm53.62-5.4-0.21-.05,0.21,0.05h0Zm0.29-.39-0.19.11,0.19-.11h0Zm0.1-.1-0.1.1,0.1-.1h0Zm0.1-.1-0.1.1,0.1-.1h0Zm-0.49.59c0.16-.17-0.48.57,0,0.59s0.33,0.2.86,0.27a5.73,5.73,0,0,0,1.11.13c0.25,0,.29-0.13.27-0.32a4.16,4.16,0,0,0-.35-0.45,1.18,1.18,0,0,0-.71-0.78,2.42,2.42,0,0,1-.68,0,8.42,8.42,0,0,1-.5-0.68c-0.11-.06.08,0.06-0.21-0.09s-0.28-.74-0.67-0.31-0.09.23-.16,0.62a1.09,1.09,0,0,0,.07.75c0.1,0.3.4,0.15,0.49,0.2s0,0-.06,0-0.39-.16-0.34.06a0.67,0.67,0,0,0,.69.49c0.3-.1,0-0.33.2-0.49h0Zm-56.17,3.44c0.1-.1.45,0.05,0.18,0.05s-0.27,0-.18-0.05h0ZM144.9,81.4c-0.13-.1.2-0.3,0.19-0.11s-0.06.21-.19,0.11h0Zm0.3-.2c0.13-.13.24,0.1,0.11,0.05s-0.24.08-.11-0.05h0Zm-0.39-.2c-0.24-.3-0.2-0.33.2-0.49s0,0.79-.2.49h0Zm0.49-.39c0.13-.13.24,0.1,0.11,0.05s-0.24.08-.11-0.05h0Zm-0.2-.79a0.06,0.06,0,0,1,0,0s0,0,0,0h0Zm-0.49-.39a0.07,0.07,0,0,1,0,0s0,0,0,0h0Zm12.47,3.24a5.2,5.2,0,0,1-.2,1.28c-0.14.6,0.33,0.06,0.29,0.39s-0.17,0-.25.36,0,0.22.16,0.33a0.18,0.18,0,0,1,0,.29c-0.07.07-.24-0.39-0.3,0a1.06,1.06,0,0,0,.75.88c0.28,0.09-.23-0.21.13,0.2a1.23,1.23,0,0,0,1.28.2c0.49-.06.42-0.21,0-0.39a2.41,2.41,0,0,1-1-1.67c0-.54-0.07.61,0.18-0.5s0-.32.76-1.6,1.28-1,1.51-1.53,0-.1-0.16-0.24a0.43,0.43,0,0,0-.68-0.12c-0.37.27-.24,0.62-0.94,0.78a0.77,0.77,0,0,0-.67.37c-0.26.19,0,0-.06,0a0.37,0.37,0,1,0-.06,0,0.72,0.72,0,0,0-.28.47c-0.06.21,0,0,0,.1s0.06,0-.12.18-0.31-.4-0.33.15h0Zm-45.57,2.85a0.06,0.06,0,0,1,0,0,0.06,0.06,0,0,1,0,0h0Zm0.2-1.87h0ZM162.29,84c0.28,0.07,0,.17-0.3.1s0-.16.3-0.1h0Zm-46.45,1.87c0.13-.13.24,0.1,0.11,0.05s-0.24.08-.11-0.05h0Zm-0.59,0c-0.33.09-.63,0-0.29-0.1s0.62,0,.29.1h0Zm-0.49-.1h0Zm-0.69-.39h0Zm4.62-.49c0.13-.13.24,0.1,0.11,0.05s-0.24.08-.11-0.05h0ZM115,84.54a0.06,0.06,0,0,1,0,0s0,0,0,0h0Zm1.87-.69a0.06,0.06,0,0,1,0,0,0.06,0.06,0,0,1,0,0h0Zm0.69-.1c-0.09-.11.06-0.07,0.2-0.09a0.61,0.61,0,0,1,.29,0c0.06,0,.1.08,0,0.1a0.65,0.65,0,0,1-.49,0h0Zm-0.39-.49a4,4,0,0,0,.39.49c0.14,0.24-.28.11-0.38,0s-0.09.2-.1-0.22-0.05-.59.09-0.3h0Zm-1.77.39h0Zm1.77-.39h0ZM117,83a0.06,0.06,0,0,1,0,0s0,0,0,0h0Zm-0.88-3.14-0.1-.1,0.1,0.1h0Zm-0.1-.1-0.1-.1,0.1,0.1h0Zm-0.1-.1h0Zm0.2-.2a0.06,0.06,0,0,1,0,0,0.07,0.07,0,0,1,0,0h0Zm2-.49a0.06,0.06,0,0,1,0,0,0.06,0.06,0,0,1,0,0h0Zm2.65-.2a0.06,0.06,0,0,1,0,0,0.06,0.06,0,0,1,0,0h0Zm-2.46-.39c0.25,0-.05,0-0.06,0s0-.06-0.05,0a1.72,1.72,0,0,0-.18.52c-0.11.3-.06-0.15-0.12-0.27s-0.42-.11-0.17-0.32,0.34,0,.59,0h0Zm0,0h0ZM117.51,78h0Zm1.67-.29h0Zm-1.08-.1a0.28,0.28,0,1,1-.39.39,0.28,0.28,0,1,1,.39-0.39h0Zm1.08,0.1h0Zm-1-.2-0.1.1,0.1-.1h0Zm0,0c-0.17,0,.17-0.4.18-0.22s0,0.2-.18.22h0Zm0.69-.29a0.15,0.15,0,0,1,0,.29c-0.21,0-.27-0.08-0.14-0.2s0-.11.14-0.09h0Zm0,0,0.19-.11-0.19.11h0Zm14.63-.69c0.29,0.08-.4.53-0.49,0.3s0.2-.38.49-0.3h0Zm-2.95,0h0Zm0,0-0.1-.1,0.1,0.1h0Zm2.95,0c-0.29-.22.74-0.32,0.94-0.26s0.69,0.12.33,0.16a2.2,2.2,0,0,1-1.28.1h0ZM129.88,76a0.06,0.06,0,0,1,0,0s0,0,0,0h0Zm-3,0h0Zm1.57-.2-0.05.21,0.05-.21h0Zm-1.57.2-0.11-.19L126.84,76h0Zm8.74-.69c0.28,0.07,0,.17-0.29.1s0-.16.29-0.1h0Zm-4.22-.2,0.11,0.19-0.11-.19h0Zm1.57-.1h0Zm-1.57.1h0Zm2.26-.2h0Zm-0.69.1,0.19-.11-0.19.11h0Zm1.87-.1c-0.33.09-.63,0-0.29-0.1s0.62,0,.29.1h0Zm-1.18,0c-0.09-.11.06-0.07,0.21-0.09a0.62,0.62,0,0,1,.29,0c0.06,0,.1.08,0,0.1a0.65,0.65,0,0,1-.49,0h0Zm-2.65-.2a0.06,0.06,0,0,1,0,0s0,0,0,0h0Zm2.55-.1a0.05,0.05,0,0,1,0,0,0.06,0.06,0,0,1,0,0h0Zm-1.08-.2a0.06,0.06,0,0,1,0,0s0,0,0,0h0Zm2.26,2.65c-0.11-.23,0-0.26.29-0.2s-0.18.42-.29,0.2h0Zm-26.12,7.76a0.06,0.06,0,0,1,0,0s0,0,0,0h0Zm-1-3h0Zm-0.29,0a0.06,0.06,0,0,1,0,0,0.06,0.06,0,0,1,0,0h0Zm-3.54.1h0Zm2.36-1c0.3,0.08,0,.18-0.29.1s0-.18.29-0.1h0Zm0,0c0.07-.16-0.12-0.1.2-0.08s0.24,0,.2.08-0.46.16-.39,0h0Zm0.59-.2a0.06,0.06,0,0,1,0,0s0,0,0,0h0ZM122,75.9a0.05,0.05,0,0,1,0,0s0,0,0,0h0Zm-0.79.1,0.19-.11-0.19.11h0Zm0.49-.29c0,0.17,0,.2-0.2.2s0.19-.37.2-0.2h0Zm0,0h0Zm-1.28,0h0Zm-3-.1h0Zm2.16-.2h0Zm-0.2-.59a0.06,0.06,0,0,1,0,0,0.06,0.06,0,0,1,0,0h0Zm0-.69-0.1.1,0.1-.1h0Zm0,0h0Zm6.68-.2h0Zm-5.11,0h0Zm5.3-.1-0.2.1,0.2-.1h0ZM165.63,86.9h0Zm0,0h0Zm2.06-1a0.06,0.06,0,0,1,0,0,0.06,0.06,0,0,1,0,0h0Zm29.86,0.39c-0.17.31-.52-0.34-0.49-0.59s0.25-.22.39-0.11a0.55,0.55,0,0,1,.1.7h0Zm-30.44-.79-0.05.21,0.05-.21h0Zm0.1,0a0.1,0.1,0,0,1-.1,0s0,0,0,0,0.1,0,.1,0h0Zm-32.7-.25h0ZM134.2,85h0Zm0,0-0.1-.1,0.1,0.1h0Zm-0.1-.1c-0.07.28-.17,0-0.1-0.29s0.16,0,.1.29h0Zm-9.53-.2a0.06,0.06,0,0,1,0,0,0.07,0.07,0,0,1,0,0h0Zm10.31-.29c-0.16.11-.18,0.08-0.2-0.1s0.35,0,.2.1h0Zm0.59-.49h0Zm-0.29-.1a0.06,0.06,0,0,1,0,0s0,0,0,0h0Zm0.2-.2h0Zm-0.1-1.28c0.16,0.1,0,.15,0,0.2s-0.18.25-.2,0,0-.29.2-0.2h0ZM135.67,81h0Zm0.39-2.06c0-.26.11,0,0.06,0s-0.06.26-.06,0h0Zm0.29-.2c0.13-.13.24,0.1,0.11,0.05s-0.24.08-.11-0.05h0Zm0.39-.49c0.14-.14.34,0.1,0.12,0s-0.26.1-.12,0h0Zm-1.38-.59-0.19.11,0.19-.11h0ZM106,86.51l-0.05.21,0.05-.21h0Zm0,0c-0.2,0,0-.31,0-0.39s0.17-.33.2,0,0,0.41-.2.39h0Zm1.08-1.08c0.11-.11.37,0.05,0.18,0.05s0,0,0,0-0.27.06-.16-0.05h0Zm-5.6-2.06h0Zm-3.34-.1a0.06,0.06,0,0,1,0,0,0.07,0.07,0,0,1,0,0h0Zm-12.47,0h0Zm13.16-.2a0.06,0.06,0,0,1,0,0,0.06,0.06,0,0,1,0,0h0Zm-0.69,0c0-.26.11,0,0.06,0s-0.06.26-.06,0h0Zm1.08-.2a0.06,0.06,0,0,1,0,0,0.07,0.07,0,0,1,0,0h0Zm0.59-.1c0.13-.13.24,0.1,0.11,0.05s-0.24.08-.11-0.05h0Zm-0.39,0c0.14-.14.34,0.1,0.12,0s-0.27.1-.12,0h0Zm-11.1-.1c-0.07-.24.31,0,0.39,0s0.26,0.18,0,.2-0.32,0-.39-0.2h0Zm-0.2-.2a0.06,0.06,0,0,1,0,0s0,0,0,0h0Zm4.71-3.24c0.1-.1.45,0.05,0.18,0.05s-0.27,0-.18-0.05h0Zm73.85,5.11c0.09,0.34.43,0.89,0,.88s-0.19-.33-0.12-0.61,0-.61.12-0.27h0Zm-2.16-.1h0Zm37-.69h0Zm-1.28-.88c0.28,0.07,0,.17-0.29.1s0-.16.29-0.1h0Zm-33.69,0s0,0,0,0a0,0,0,0,1,0,0h0Zm33.69,0h0Zm-33.49-.29c0-.26.11,0,0.06,0s-0.06.26-.06,0h0Zm6-.59s0,0,0,0a0,0,0,0,1,0,0h0Zm7.46-.79L180,81,180.26,81h0Zm-6.58-.1h0Zm9.92-.29c-0.08.24-.13,0.21-0.39,0.1s0.47-.34.39-0.1h0Zm-15.42-.79a0.06,0.06,0,0,1,0,0s0,0,0,0h0Zm17.28-.49c0,0.32,0,.28-0.2.29s0.18-.61.2-0.29h0Zm1.28-.2-0.19.11,0.19-.11h0Zm-2,0c0-.21.33,0,0.09,0s-0.12.2-.09,0h0Zm-11.59-.39a0.06,0.06,0,0,1,0,0,0.06,0.06,0,0,1,0,0h0Zm-0.49-.49a0.06,0.06,0,0,1,0,0s0,0,0,0h0ZM169.95,78h0ZM149.13,94.66c0.13-.13.24,0.1,0.11,0.05s-0.24.08-.11-0.05h0Zm43.8-.69c0.28-.2.3,0.44,0.3,0.69s0.05,0.1-.08-0.12-0.49-.37-0.22-0.57h0Zm-2.06-.69c0-.1.46,0.25,0.1,0.59s-0.08-.49-0.1-0.59h0Z"/></g><circle class="cls-3" cx="106.64" cy="90.25" r="2.43"/><path class="cls-3" d="M106.64,82.53a7.77,7.77,0,0,0-7.77,7.77c0,3.93,5.73,11.61,7.77,14.67,2.15-3.09,7.77-10.24,7.77-14.67A7.77,7.77,0,0,0,106.64,82.53Zm0,11.68a4,4,0,1,1,4-4A4,4,0,0,1,106.64,94.2Z"/><rect class="cls-1" x="55" y="132" width="37" height="7"/><rect class="cls-1" x="194" y="132" width="22" height="7"/><rect class="cls-1" x="55" y="146" width="128" height="5"/><rect class="cls-1" x="194" y="145" width="53" height="21"/><rect class="cls-1" x="194" y="171" width="53" height="21"/><rect class="cls-1" x="55" y="156" width="128" height="5"/><rect class="cls-1" x="55" y="169" width="128" height="5"/><rect class="cls-1" x="55" y="180" width="62" height="5"/><path class="cls-6" d="M164.91,170.3l-0.88.52a5.33,5.33,0,0,0-2.54,5.66l-0.08-.14a5.35,5.35,0,0,0-7.32-1.92l-0.9.51a5.35,5.35,0,0,0-2.53,5.68l-0.09-.15a5.34,5.34,0,0,0-7.32-1.94l-0.89.52a5.34,5.34,0,0,0-2.54,5.67l-14-24a5.34,5.34,0,0,0-7.32-1.92l-0.89.52a5.35,5.35,0,0,0-1.93,7.32l26.55,45.52-15.65-4.89a5.45,5.45,0,0,0-6.83,3.58l-0.31,1a5.48,5.48,0,0,0,3.59,6.84L155.4,228.8l0.22,0a13.9,13.9,0,0,0,10.55-.28l4.63,8,23-13.43-6.91-11.87a13.94,13.94,0,0,0,.43-12.34,5.08,5.08,0,0,0-.64-1.81l-14.48-24.83A5.37,5.37,0,0,0,164.91,170.3Z"/><rect class="cls-6" x="164.74" y="225.22" width="37.52" height="11.98" transform="translate(-91.49 123.92) rotate(-30.25)"/><polygon class="cls-7" points="204.95 223.65 166.36 246.16 186.91 281.68 225.5 259.17 204.95 223.65"/><path class="cls-8" d="M55.39,49.31a3.85,3.85,0,1,1-3.85,3.85A3.85,3.85,0,0,1,55.39,49.31Z"/><path class="cls-9" d="M66.39,49.31a3.85,3.85,0,1,1-3.85,3.85A3.85,3.85,0,0,1,66.39,49.31Z"/><path class="cls-10" d="M77.39,49.31a3.85,3.85,0,1,1-3.85,3.85A3.85,3.85,0,0,1,77.39,49.31Z"/><rect class="cls-2" x="89" y="50" width="161" height="8" rx="1.56" ry="1.56"/></svg>