<svg id="Layer_1" data-name="Layer 1" xmlns="http://www.w3.org/2000/svg" viewBox="0 0 300 300"><defs><style>.cls-1{fill:#3fc0c2;}.cls-2{fill:#cadace;}.cls-3{fill:#f28c6e;}.cls-4{fill:#b1b3b6;}.cls-5{fill:#f6cd24;}</style></defs><title>Infog</title><path class="cls-1" d="M233.91,173.63c0-13.32-42.22-21.36-83.05-21.36-6.41,0-12.82.13-19,.5-31.91,1.88-64.08,9-64.08,20.73s31.41,18.72,62.57,20.73l0.13-2.51c-29.28-1.88-60.31-8.8-60.31-18.22,0-8.42,26.51-16.21,61.69-18.22,6.16-.38,12.44-0.5,18.85-0.5,48.25,0,80.54,9.67,80.54,18.85,0,7.92-25.26,16.84-67.6,18.47l-0.13-6.28-12.82,7.79,13.19,7.29-0.13-6.16C199,193.36,233.91,185.7,233.91,173.63Z"/><rect class="cls-2" x="171.08" y="147.48" width="1.88" height="1.26" transform="translate(-42.22 73.08) rotate(-21.43)"/><rect class="cls-2" x="183.15" y="142.37" width="3.77" height="1.26" transform="translate(-39.45 77.48) rotate(-21.43)"/><rect class="cls-2" x="190.18" y="139.59" width="3.77" height="1.26" transform="translate(-37.95 79.85) rotate(-21.43)"/><rect class="cls-2" x="176.24" y="145.1" width="3.77" height="1.26" transform="translate(-40.92 75.14) rotate(-21.43)"/><rect class="cls-2" x="197.21" y="136.81" width="3.77" height="1.26" transform="translate(-36.45 82.23) rotate(-21.43)"/><rect class="cls-2" x="204.12" y="134.08" width="3.77" height="1.26" transform="matrix(0.93, -0.37, 0.37, 0.93, -34.97, 84.56)"/><rect class="cls-2" x="211.19" y="131.42" width="3.77" height="1.26" transform="translate(-33.51 86.96) rotate(-21.43)"/><rect class="cls-2" x="218.19" y="128.93" width="1.88" height="1.26" transform="translate(-32.18 89) rotate(-21.43)"/><polygon class="cls-2" points="171.21 158.56 172.97 159.19 173.34 158.05 171.59 157.43 171.21 158.56"/><polygon class="cls-2" points="176.36 160.57 179.88 162.07 180.38 160.82 176.86 159.44 176.36 160.57"/><rect class="cls-2" x="205.53" y="170" width="1.26" height="3.77" transform="translate(-30.08 299.32) rotate(-68.16)"/><rect class="cls-2" x="212.43" y="172.82" width="1.26" height="3.77" transform="translate(-28.39 307.42) rotate(-68.15)"/><rect class="cls-2" x="198.6" y="167.2" width="1.26" height="3.77" transform="translate(-31.86 291.06) rotate(-68.15)"/><polygon class="cls-2" points="190.31 166.22 193.82 167.6 194.2 166.47 190.81 164.97 190.31 166.22"/><polygon class="cls-2" points="183.4 163.46 186.79 164.84 187.29 163.58 183.77 162.2 183.4 163.46"/><rect class="cls-2" x="218.57" y="176.14" width="1.26" height="1.88" transform="translate(-26.88 314.38) rotate(-68.09)"/><path class="cls-3" d="M167,143.51a2.51,2.51,0,0,0-2.51-2.51h-30a2.51,2.51,0,0,0-2.51,2.51v21a2.51,2.51,0,0,0,2.51,2.51h30a2.51,2.51,0,0,0,2.51-2.51v-21Z"/><polygon class="cls-3" points="169 147.75 169 159.31 175 161.45 175 145.62 169 147.75"/><path class="cls-4" d="M219.71,111.69h0c-0.38-2.89-2.39-4.9-5.65-5.4v-0.13h0V95.48h-6.53v10.81H184c-3.52,0-7-1.76-11.06-3.77-5.53-2.76-12.56-6.28-22.37-6.28s-16.71,3.52-22.37,6.28c-4,2-7.54,3.77-11.06,3.77H93.56V95.48H87v10.93c-3.27.5-5.28,2.39-5.65,5.4-0.25,3.52,1,8.8,3.64,11.69a6.85,6.85,0,0,0,4.65,2.26,6.38,6.38,0,0,0,4.52-2.14c2.64-2.89,3.64-7.79,3.77-10.68h23.37a12.25,12.25,0,0,0-4.52,7.16c-0.38,1.38-1.13,6.78-2.14,12.94-1.13,7.66-1.13,10.55-1.76,13.19-0.5,2.14-.25,4.15.88,5.15a2.39,2.39,0,0,0,2.39.63c1.26-.38,2.39-1.76,2.89-3.77,0.38-1.76.25-.63,1.51-5.91,2-8.54,4.52-18.47,4.9-20.35,0.5-2.14,1.76-3,4.15-3h7.54a18.8,18.8,0,0,1,1.38,1.63c1.76,2.14,3.64,4.4,6.66,4.65,0.75,0,1.38.13,2,.13v27.27a2.65,2.65,0,0,0,2.64,2.64h1.88a2.65,2.65,0,0,0,2.64-2.64V125.51a12.92,12.92,0,0,0,2.14-.13c3-.25,4.77-2.39,6.66-4.65a18.8,18.8,0,0,1,1.38-1.63h7.79c2.51,0,3.64.88,4.15,3,0.5,1.88,3,12.69,5.15,21.36l1.38,5.15c0.5,2,1.51,3.39,2.89,3.77a5.44,5.44,0,0,1,.63.13,2.48,2.48,0,0,0,1.76-.75c1.13-1.13,1.38-2.51.88-5.15s-0.75-5.91-1.88-13.57c-1-6.28-1.76-11.69-2.14-12.94a12.25,12.25,0,0,0-4.52-7.16H203.5c0,3,1,7.79,3.77,10.68a6,6,0,0,0,4.52,2.14,5.71,5.71,0,0,0,4.52-2.26C218.7,120.49,220,115.21,219.71,111.69Z"/><path class="cls-5" d="M86.65,90.08A76.54,76.54,0,0,0,68.3,87.94,76.54,76.54,0,0,0,50,90.08a0.27,0.27,0,1,0,0,.5A77.32,77.32,0,0,0,68.3,92.72a76.54,76.54,0,0,0,18.34-2.14A0.27,0.27,0,1,0,86.65,90.08Z"/><path class="cls-5" d="M131.13,90.08a80.38,80.38,0,0,0-36.81,0,0.27,0.27,0,1,0,0,.5,77.32,77.32,0,0,0,18.34,2.14A76.54,76.54,0,0,0,131,90.58a0.32,0.32,0,0,0,.38-0.25C131.5,90.2,131.38,90.08,131.13,90.08Z"/><path class="cls-5" d="M90.54,85.43c-1.38,0-2.64,2.76-2.64,6.16h5.28C93.06,88.19,91.92,85.43,90.54,85.43Z"/><path class="cls-5" d="M207.14,90.08a79.84,79.84,0,0,0-36.69,0,0.27,0.27,0,1,0,0,.5,77.32,77.32,0,0,0,18.34,2.14,76.54,76.54,0,0,0,18.34-2.14A0.27,0.27,0,1,0,207.14,90.08Z"/><path class="cls-5" d="M251.62,90.08a77.32,77.32,0,0,0-18.34-2.14,76.54,76.54,0,0,0-18.34,2.14,0.27,0.27,0,1,0,0,.5,77.32,77.32,0,0,0,18.34,2.14,76.54,76.54,0,0,0,18.34-2.14,0.32,0.32,0,0,0,.38-0.25A0.67,0.67,0,0,0,251.62,90.08Z"/><path class="cls-5" d="M210.91,85.43c-1.38,0-2.64,2.76-2.64,6.16h5.28C213.55,88.19,212.42,85.43,210.91,85.43Z"/><rect class="cls-5" x="102.86" y="106.29" width="2.39" height="6.53"/><rect class="cls-5" x="107.76" y="106.29" width="2.39" height="6.53"/><rect class="cls-5" x="191.56" y="106.29" width="2.39" height="6.53"/><rect class="cls-5" x="196.46" y="106.29" width="2.39" height="6.53"/></svg>