<svg id="Layer_1" data-name="Layer 1" xmlns="http://www.w3.org/2000/svg" viewBox="0 0 150 150"><defs><style>.cls-1{fill:#3fc0c2;}.cls-2{fill:#cadace;}.cls-3{fill:#f28c6e;}.cls-4{fill:#b1b3b6;}.cls-5{fill:#ffcc08;}.cls-6{fill:#f6cd24;}.cls-7{fill:none;}</style></defs><title>Infographic_PanoInstructions_150x150</title><path class="cls-1" d="M126.88,97.75c0-8.14-25.81-13.06-50.77-13.06S25.34,89.53,25.34,97.75c0,7.07,19.2,11.44,38.25,12.67l.08-1.54c-17.9-1.15-36.87-5.38-36.87-11.14,0-5.53,19.82-11.52,49.23-11.52s49.23,5.91,49.23,11.52c0,4.84-15.44,10.29-41.32,11.29l-.08-3.84L76.11,110l8.06,4.38-.08-3.76C105.53,109.73,126.88,105.12,126.88,97.75Z"/><rect class="cls-2" x="85" y="86.39" width="0.77" height="1.15" transform="translate(-35.84 74.38) rotate(-39.6)"/><rect class="cls-2" x="96.72" y="99.99" width="0.77" height="2.38" transform="translate(-42.21 85.14) rotate(-39.61)"/><rect class="cls-2" x="99.75" y="103.58" width="0.77" height="2.38" transform="translate(-43.81 87.89) rotate(-39.61)"/><rect class="cls-2" x="90.72" y="92.66" width="0.77" height="2.38" transform="translate(-38.92 79.63) rotate(-39.61)"/><rect class="cls-2" x="87.64" y="89.01" width="0.77" height="2.38" transform="translate(-37.3 76.83) rotate(-39.61)"/><rect class="cls-2" x="93.7" y="96.29" width="0.77" height="2.38" transform="translate(-40.55 82.35) rotate(-39.6)"/><rect class="cls-2" x="102.4" y="107.42" width="0.77" height="1.15" transform="translate(-45.25 90.3) rotate(-39.6)"/><rect class="cls-2" x="88.08" y="80.66" width="0.77" height="1.15" transform="translate(-3.8 158.12) rotate(-82.37)"/><rect class="cls-2" x="96.58" y="81.23" width="0.77" height="2.3" transform="translate(2.44 167.55) rotate(-82.37)"/><rect class="cls-2" x="92.02" y="80.68" width="0.77" height="2.3" transform="translate(-0.97 162.55) rotate(-82.37)"/><rect class="cls-2" x="110.25" y="83.12" width="0.77" height="2.3" transform="translate(12.39 182.71) rotate(-82.36)"/><rect class="cls-2" x="114.8" y="83.67" width="0.77" height="2.3" transform="translate(15.82 187.73) rotate(-82.37)"/><rect class="cls-2" x="105.69" y="82.49" width="0.77" height="2.3" transform="translate(9.09 177.67) rotate(-82.37)"/><rect class="cls-2" x="101.14" y="81.86" width="0.77" height="2.3" transform="translate(5.76 172.61) rotate(-82.37)"/><rect class="cls-2" x="118.76" y="84.77" width="0.77" height="1.15" transform="matrix(0.13, -0.99, 0.99, 0.13, 18.73, 192.1)"/><path class="cls-3" d="M86.71,75.17l-16.05-9a1.51,1.51,0,0,0-2.07.61L62.44,77.86a1.51,1.51,0,0,0,.61,2.07l16.05,9a1.51,1.51,0,0,0,2.07-.61l6.14-11.06A1.51,1.51,0,0,0,86.71,75.17Z"/><polygon class="cls-3" points="87.1 80.31 83.72 86.46 85.94 89.22 90.63 80.78 87.1 80.31"/><path class="cls-4" d="M117.13,52.36h0a3.77,3.77,0,0,0-3.46-3.3V49h0V42.45h-4v6.61H95.32c-2.15,0-4.3-1.08-6.76-2.3-3.38-1.69-7.68-3.84-13.67-3.84s-10.22,2.15-13.67,3.84c-2.46,1.23-4.61,2.3-6.76,2.3H40V42.45H36v6.68a3.7,3.7,0,0,0-3.46,3.3,10.7,10.7,0,0,0,2.23,7.14A4.19,4.19,0,0,0,37.63,61a3.9,3.9,0,0,0,2.77-1.31c1.61-1.77,2.23-4.76,2.3-6.53H57a7.49,7.49,0,0,0-2.77,4.38c-.23.84-.69,4.15-1.31,7.91C52.23,70.1,51.38,75.48,51,77.09a3.26,3.26,0,0,0,.54,3.15,1.46,1.46,0,0,0,1.46.38,3,3,0,0,0,1.77-2.3c.23-1.08.92-3.92,1.77-7.22,1.23-5.22,2.77-11.29,3-12.44a2.21,2.21,0,0,1,2.53-1.84h4.61a11.49,11.49,0,0,1,.84,1c1.08,1.31,2.23,2.69,4.07,2.84.46,0,.84.08,1.23.08V77.4A1.62,1.62,0,0,0,74.42,79h1.15a1.62,1.62,0,0,0,1.61-1.61V60.81a7.9,7.9,0,0,0,1.31-.08c1.84-.15,2.92-1.46,4.07-2.84a11.49,11.49,0,0,1,.84-1h4.76c1.54,0,2.23.54,2.53,1.84.31,1.15,1.84,7.76,3.15,13.06l1.61,6.53a2.88,2.88,0,0,0,1.77,2.3,3.33,3.33,0,0,1,.38.08,1.52,1.52,0,0,0,1.08-.46,3.3,3.3,0,0,0,.54-3.15c-.38-1.69-1.23-7-1.92-11.67-.61-3.84-1.08-7.14-1.31-7.91a7.49,7.49,0,0,0-2.77-4.38h14a10.15,10.15,0,0,0,2.3,6.53A3.65,3.65,0,0,0,112.29,61a3.49,3.49,0,0,0,2.77-1.38A11.81,11.81,0,0,0,117.13,52.36Z"/><path class="cls-5" d="M35.79,39.15a46.79,46.79,0,0,0-11.21-1.31,46.79,46.79,0,0,0-11.21,1.31c-.15,0-.23.08-.23.15s.08.15.23.15a47.26,47.26,0,0,0,11.21,1.31,46.79,46.79,0,0,0,11.21-1.31c.15,0,.23-.08.23-.15S35.94,39.15,35.79,39.15Z"/><path class="cls-5" d="M63,39.15a49.14,49.14,0,0,0-22.5,0c-.15,0-.23.08-.23.15s.08.15.23.15a47.26,47.26,0,0,0,11.21,1.31A46.79,46.79,0,0,0,62.9,39.45c.15,0,.23-.08.23-.15S63.13,39.15,63,39.15Z"/><path class="cls-5" d="M38.17,36.3c-.84,0-1.61,1.69-1.61,3.76h3.23C39.71,38,39,36.3,38.17,36.3Z"/><path class="cls-5" d="M109.45,39.15a48.81,48.81,0,0,0-22.43,0c-.15,0-.23.08-.23.15s.08.15.23.15a47.26,47.26,0,0,0,11.21,1.31,46.79,46.79,0,0,0,11.21-1.31c.15,0,.23-.08.23-.15S109.6,39.15,109.45,39.15Z"/><path class="cls-5" d="M136.64,39.15a47.26,47.26,0,0,0-11.21-1.31,46.79,46.79,0,0,0-11.21,1.31c-.15,0-.23.08-.23.15s.08.15.23.15a47.26,47.26,0,0,0,11.21,1.31,46.79,46.79,0,0,0,11.21-1.31c.15,0,.23-.08.23-.15S136.71,39.15,136.64,39.15Z"/><path class="cls-5" d="M111.75,36.3c-.84,0-1.61,1.69-1.61,3.76h3.23C113.37,38,112.67,36.3,111.75,36.3Z"/><rect class="cls-6" x="45.7" y="49.05" width="1.46" height="3.99"/><rect class="cls-6" x="48.69" y="49.05" width="1.46" height="3.99"/><rect class="cls-6" x="99.92" y="49.05" width="1.46" height="3.99"/><rect class="cls-6" x="102.92" y="49.05" width="1.46" height="3.99"/><rect class="cls-7" x="-0.15" width="150" height="150"/></svg>