<?xml version="1.0" encoding="utf-8"?>
<!-- Generator: Adobe Illustrator 21.0.0, SVG Export Plug-In . SVG Version: 6.00 Build 0)  -->
<svg version="1.1" id="Layer_1" xmlns="http://www.w3.org/2000/svg" xmlns:xlink="http://www.w3.org/1999/xlink" x="0px" y="0px"
	 viewBox="0 0 300 300" style="enable-background:new 0 0 300 300;" xml:space="preserve">
<style type="text/css">
	.st0{fill:#FFFFFF;stroke:#FFFFFF;stroke-width:0.7166;stroke-miterlimit:10;}
	.st1{opacity:0.5;fill:none;stroke:#989898;stroke-width:1.4332;stroke-miterlimit:10;}
	.st2{opacity:0.75;fill:#C9DCCF;}
	.st3{fill:#AAAAAA;}
	.st4{fill:#FFFFFF;}
	.st5{fill:#EF6649;}
	.st6{fill:#DCDBDB;}
	.st7{fill:#787878;}
	.st8{fill:#1D2D47;}
	.st9{fill:none;stroke:#3FC0C2;stroke-width:1.1769;stroke-miterlimit:10;}
	.st10{fill:#3FC0C2;}
</style>
<polygon class="st0" points="39,79 39,147.2 76.5,147.2 84.1,154.8 91.8,147.2 259.3,147.2 259.3,79 "/>
<polygon class="st1" points="39,79 39,147.2 76.5,147.2 84.1,154.8 91.8,147.2 259.3,147.2 259.3,79 "/>
<rect x="220.1" y="79.1" class="st2" width="39.8" height="68.2"/>
<g>
	<g>
		<path class="st3" d="M56.5,104.4c-2.1,0-3.8,1.7-3.8,3.8c0,1.9,2.8,5.6,3.8,7.1c1-1.5,3.8-5,3.8-7.1
			C60.2,106.1,58.5,104.4,56.5,104.4z M56.5,110.1c-1.1,0-1.9-0.9-1.9-1.9c0-1.1,0.9-1.9,1.9-1.9c1.1,0,1.9,0.9,1.9,1.9
			C58.4,109.2,57.5,110.1,56.5,110.1z"/>
	</g>
</g>
<polygon class="st4" points="240.2,85.6 243.1,92.5 250.6,93.2 245,98.2 246.6,105.5 240.2,101.6 233.7,105.5 235.4,98.2 
	229.8,93.2 237.2,92.5 "/>
<rect x="53.1" y="89.2" class="st3" width="121.8" height="8.5"/>
<rect x="66.6" y="106.5" class="st3" width="119.6" height="4.8"/>
<rect x="66.6" y="116.7" class="st3" width="69.4" height="4.8"/>
<rect x="231.5" y="112.4" class="st4" width="17.4" height="3.8"/>
<rect x="229.9" y="119.3" class="st4" width="20.5" height="3.8"/>
<g>
	<polygon class="st3" points="255.6,135.2 247.7,141.4 246.4,109.1 270.5,130.7 260.6,132.9 267.5,147.5 262.5,149.8 	"/>
	<path class="st4" d="M247.4,111.3l21,18.8l-9.2,2.1l7,14.8l-3.3,1.5l-7-14.8l-7.4,5.8L247.4,111.3 M245.3,106.9l0.2,4.5l1.2,28.2
		l0.2,3.7l2.9-2.3l5.5-4.3l6,12.7l0.8,1.7l1.7-0.8l3.3-1.5l1.7-0.8l-0.8-1.7l-6-12.7l6.9-1.5l3.6-0.8l-2.8-2.5l-21-18.8L245.3,106.9
		L245.3,106.9z"/>
</g>
<rect x="53.1" y="131.9" class="st5" width="17.2" height="3.2"/>
<rect x="70.9" y="131.9" class="st5" width="17.2" height="3.2"/>
<rect x="88.7" y="131.9" class="st5" width="17.2" height="3.2"/>
<rect x="106.5" y="131.9" class="st6" width="17.2" height="3.2"/>
<rect x="124.4" y="131.9" class="st6" width="17.2" height="3.2"/>
<line class="st7" x1="116.7" y1="153.2" x2="116.1" y2="153.2"/>
<rect x="45" y="211" class="st5" width="37" height="6"/>
<rect x="83" y="211" class="st5" width="38" height="6"/>
<rect x="122" y="211" class="st5" width="36" height="6"/>
<rect x="159" y="211" class="st6" width="37" height="6"/>
<rect x="197" y="211" class="st6" width="37" height="6"/>
<rect x="159" y="211" class="st5" width="19" height="6"/>
<g>
	<path class="st8" d="M247.2,207.3v0.8h-0.1c-1.3,0-2.3,0.4-3,1.1s-1.1,1.8-1.2,3.1c0.3-0.4,0.7-0.7,1.1-0.9c0.5-0.2,1-0.3,1.5-0.3
		c0.9,0,1.7,0.3,2.2,1c0.6,0.6,0.8,1.5,0.8,2.5c0,0.7-0.1,1.3-0.4,1.9s-0.6,1-1.1,1.3c-0.5,0.3-1,0.5-1.7,0.5c-1,0-1.9-0.4-2.5-1.1
		c-0.6-0.7-1-1.7-1-2.9v-0.9c0-1.9,0.4-3.4,1.3-4.4c0.9-1,2.1-1.6,3.7-1.6H247.2z M245.4,211.8c-0.6,0-1.1,0.2-1.6,0.5
		c-0.5,0.3-0.8,0.7-1,1.3v0.7c0,0.9,0.2,1.7,0.7,2.3c0.5,0.6,1.1,0.9,1.9,0.9c0.7,0,1.2-0.3,1.7-0.8c0.4-0.5,0.6-1.2,0.6-2
		c0-0.8-0.2-1.5-0.6-2C246.6,212,246.1,211.8,245.4,211.8z"/>
	<path class="st8" d="M250.4,217.5c0-0.2,0.1-0.3,0.2-0.4c0.1-0.1,0.3-0.2,0.5-0.2s0.3,0.1,0.5,0.2c0.1,0.1,0.2,0.3,0.2,0.4
		s-0.1,0.3-0.2,0.4c-0.1,0.1-0.3,0.2-0.5,0.2s-0.3-0.1-0.5-0.2C250.4,217.8,250.4,217.6,250.4,217.5z"/>
	<path class="st8" d="M254.5,212.5l0.5-5.2h5.3v0.8h-4.6l-0.4,3.6c0.6-0.4,1.2-0.6,2-0.6c1,0,1.7,0.3,2.3,0.9
		c0.6,0.6,0.9,1.5,0.9,2.5c0,1.1-0.3,2-0.8,2.6s-1.3,0.9-2.4,0.9c-0.9,0-1.7-0.3-2.3-0.8s-0.9-1.2-1-2.2h0.8
		c0.1,0.7,0.3,1.3,0.7,1.7c0.4,0.4,1,0.6,1.7,0.6c0.8,0,1.3-0.2,1.7-0.7c0.4-0.5,0.6-1.2,0.6-2.1c0-0.8-0.2-1.4-0.7-1.9
		c-0.4-0.5-1-0.7-1.8-0.7c-0.4,0-0.8,0.1-1.1,0.2c-0.3,0.1-0.6,0.3-1,0.6L254.5,212.5z"/>
</g>
<g>
	<path class="st8" d="M76.3,196.2h5.3v0.8h-6.2v-10.7h0.9V196.2z"/>
	<path class="st8" d="M83.3,186.8c0-0.2,0.1-0.3,0.2-0.4c0.1-0.1,0.3-0.2,0.4-0.2s0.3,0.1,0.4,0.2c0.1,0.1,0.2,0.3,0.2,0.4
		s-0.1,0.3-0.2,0.4c-0.1,0.1-0.3,0.2-0.4,0.2s-0.3-0.1-0.4-0.2S83.3,187,83.3,186.8z M84.3,197h-0.9v-7.9h0.9V197z"/>
	<path class="st8" d="M88.9,193l-1,1v3H87v-11.2h0.9v7.2l0.8-0.9l3-3h1.1l-3.4,3.3l3.7,4.6h-1L88.9,193z"/>
	<path class="st8" d="M97.6,197.1c-0.7,0-1.3-0.2-1.8-0.5c-0.5-0.3-1-0.8-1.3-1.4c-0.3-0.6-0.5-1.3-0.5-2v-0.3
		c0-0.8,0.1-1.4,0.4-2.1c0.3-0.6,0.7-1.1,1.2-1.4c0.5-0.3,1.1-0.5,1.7-0.5c1,0,1.7,0.3,2.3,1c0.6,0.7,0.8,1.6,0.8,2.7v0.5h-5.7v0.2
		c0,0.9,0.3,1.6,0.8,2.2c0.5,0.6,1.2,0.9,1.9,0.9c0.5,0,0.9-0.1,1.2-0.3c0.4-0.2,0.7-0.4,1-0.8l0.5,0.4
		C99.7,196.7,98.8,197.1,97.6,197.1z M97.4,189.7c-0.7,0-1.2,0.2-1.7,0.7c-0.5,0.5-0.7,1.1-0.8,1.9h4.8v-0.1c0-0.8-0.2-1.4-0.7-1.9
		S98.1,189.7,97.4,189.7z"/>
	<path class="st8" d="M103.5,197h-0.9v-11.2h0.9V197z"/>
	<path class="st8" d="M106.2,186.8c0-0.2,0.1-0.3,0.2-0.4c0.1-0.1,0.3-0.2,0.4-0.2s0.3,0.1,0.4,0.2c0.1,0.1,0.2,0.3,0.2,0.4
		s-0.1,0.3-0.2,0.4c-0.1,0.1-0.3,0.2-0.4,0.2s-0.3-0.1-0.4-0.2S106.2,187,106.2,186.8z M107.2,197h-0.9v-7.9h0.9V197z"/>
	<path class="st8" d="M110.8,190.4c0.3-0.5,0.7-0.8,1.1-1.1c0.4-0.3,0.9-0.4,1.5-0.4c0.8,0,1.5,0.2,1.9,0.7s0.6,1.2,0.6,2.2v5.2H115
		v-5.2c0-0.7-0.2-1.2-0.5-1.6c-0.3-0.3-0.8-0.5-1.4-0.5c-0.5,0-1,0.2-1.4,0.5c-0.4,0.3-0.7,0.8-0.9,1.4v5.4h-0.9v-11.2h0.9V190.4z"
		/>
	<path class="st8" d="M117.9,192.9c0-0.8,0.1-1.4,0.4-2.1c0.3-0.6,0.7-1.1,1.3-1.4c0.5-0.3,1.2-0.5,1.8-0.5c1.1,0,1.9,0.4,2.6,1.1
		c0.7,0.7,1,1.7,1,2.9v0.2c0,0.8-0.1,1.5-0.4,2.1c-0.3,0.6-0.7,1.1-1.2,1.4c-0.5,0.3-1.2,0.5-1.8,0.5c-1,0-1.9-0.4-2.6-1.1
		c-0.7-0.7-1-1.7-1-2.9V192.9z M118.8,193.2c0,0.9,0.2,1.7,0.7,2.3c0.5,0.6,1.1,0.9,1.9,0.9c0.8,0,1.4-0.3,1.9-0.9
		c0.5-0.6,0.7-1.4,0.7-2.4v-0.2c0-0.6-0.1-1.2-0.3-1.7s-0.5-0.9-0.9-1.2c-0.4-0.3-0.9-0.4-1.4-0.4c-0.8,0-1.4,0.3-1.9,0.9
		c-0.5,0.6-0.7,1.4-0.7,2.4V193.2z"/>
	<path class="st8" d="M126.6,192.9c0-0.8,0.1-1.4,0.4-2.1c0.3-0.6,0.7-1.1,1.3-1.4c0.5-0.3,1.2-0.5,1.8-0.5c1.1,0,1.9,0.4,2.6,1.1
		c0.7,0.7,1,1.7,1,2.9v0.2c0,0.8-0.1,1.5-0.4,2.1c-0.3,0.6-0.7,1.1-1.2,1.4c-0.5,0.3-1.2,0.5-1.8,0.5c-1,0-1.9-0.4-2.6-1.1
		c-0.7-0.7-1-1.7-1-2.9V192.9z M127.5,193.2c0,0.9,0.2,1.7,0.7,2.3c0.5,0.6,1.1,0.9,1.9,0.9c0.8,0,1.4-0.3,1.9-0.9
		c0.5-0.6,0.7-1.4,0.7-2.4v-0.2c0-0.6-0.1-1.2-0.3-1.7s-0.5-0.9-0.9-1.2c-0.4-0.3-0.9-0.4-1.4-0.4c-0.8,0-1.4,0.3-1.9,0.9
		c-0.5,0.6-0.7,1.4-0.7,2.4V193.2z"/>
	<path class="st8" d="M135.5,193c0-1.2,0.3-2.2,0.8-2.9c0.5-0.7,1.3-1.1,2.2-1.1c1.1,0,1.9,0.4,2.4,1.3v-4.4h0.9V197H141l0-1.1
		c-0.6,0.8-1.4,1.2-2.5,1.2c-0.9,0-1.6-0.4-2.2-1.1c-0.6-0.7-0.8-1.7-0.8-3V193z M136.3,193.1c0,1,0.2,1.8,0.6,2.4
		c0.4,0.6,1,0.9,1.7,0.9c1.1,0,1.8-0.5,2.3-1.4v-3.7c-0.5-1-1.2-1.5-2.3-1.5c-0.7,0-1.3,0.3-1.7,0.9
		C136.6,191.1,136.3,192,136.3,193.1z"/>
	<path class="st8" d="M149,197v-7.2h-1.3v-0.7h1.3v-1c0-0.8,0.2-1.4,0.6-1.9c0.4-0.4,1-0.7,1.7-0.7c0.3,0,0.6,0,0.9,0.1l-0.1,0.7
		c-0.2-0.1-0.5-0.1-0.8-0.1c-0.5,0-0.9,0.2-1.1,0.5c-0.3,0.3-0.4,0.7-0.4,1.3v1h1.9v0.7h-1.9v7.2H149z"/>
	<path class="st8" d="M153.2,192.9c0-0.8,0.1-1.4,0.4-2.1c0.3-0.6,0.7-1.1,1.3-1.4c0.5-0.3,1.2-0.5,1.8-0.5c1.1,0,1.9,0.4,2.6,1.1
		c0.7,0.7,1,1.7,1,2.9v0.2c0,0.8-0.1,1.5-0.4,2.1c-0.3,0.6-0.7,1.1-1.2,1.4c-0.5,0.3-1.2,0.5-1.8,0.5c-1,0-1.9-0.4-2.6-1.1
		c-0.7-0.7-1-1.7-1-2.9V192.9z M154.1,193.2c0,0.9,0.2,1.7,0.7,2.3c0.5,0.6,1.1,0.9,1.9,0.9c0.8,0,1.4-0.3,1.9-0.9
		c0.5-0.6,0.7-1.4,0.7-2.4v-0.2c0-0.6-0.1-1.2-0.3-1.7s-0.5-0.9-0.9-1.2c-0.4-0.3-0.9-0.4-1.4-0.4c-0.8,0-1.4,0.3-1.9,0.9
		c-0.5,0.6-0.7,1.4-0.7,2.4V193.2z"/>
	<path class="st8" d="M166,189.8c-0.2,0-0.4-0.1-0.6-0.1c-0.5,0-1,0.2-1.4,0.5c-0.4,0.3-0.6,0.7-0.8,1.3v5.4h-0.9v-7.9h0.9l0,1.3
		c0.5-0.9,1.2-1.4,2.2-1.4c0.2,0,0.4,0,0.6,0.1L166,189.8z"/>
	<path class="st8" d="M178,193.1c0,1.2-0.3,2.2-0.8,2.9c-0.5,0.7-1.3,1.1-2.2,1.1c-1.1,0-1.9-0.4-2.5-1.1v4h-0.9v-11h0.8l0,1.1
		c0.6-0.8,1.4-1.3,2.5-1.3c0.9,0,1.7,0.4,2.2,1.1c0.5,0.7,0.8,1.7,0.8,3V193.1z M177.1,193c0-1-0.2-1.8-0.6-2.4
		c-0.4-0.6-1-0.9-1.7-0.9c-0.5,0-1,0.1-1.4,0.4c-0.4,0.3-0.7,0.6-0.9,1.1v3.8c0.2,0.5,0.5,0.8,0.9,1c0.4,0.2,0.9,0.4,1.4,0.4
		c0.7,0,1.3-0.3,1.7-0.9C176.9,194.9,177.1,194.1,177.1,193z"/>
	<path class="st8" d="M185.3,197c-0.1-0.2-0.1-0.6-0.2-1.1c-0.3,0.4-0.7,0.7-1.2,0.9c-0.5,0.2-1,0.3-1.5,0.3c-0.8,0-1.4-0.2-1.8-0.6
		c-0.5-0.4-0.7-1-0.7-1.6c0-0.8,0.3-1.4,1-1.8c0.6-0.4,1.5-0.7,2.7-0.7h1.6v-0.9c0-0.6-0.2-1-0.5-1.3c-0.3-0.3-0.9-0.5-1.5-0.5
		c-0.6,0-1.1,0.2-1.5,0.5c-0.4,0.3-0.6,0.7-0.6,1.1l-0.9,0c0-0.6,0.3-1.2,0.9-1.6c0.6-0.5,1.3-0.7,2.2-0.7c0.9,0,1.6,0.2,2.1,0.7
		c0.5,0.4,0.8,1.1,0.8,1.8v3.8c0,0.8,0.1,1.3,0.2,1.7v0.1H185.3z M182.5,196.4c0.6,0,1.1-0.1,1.6-0.4c0.5-0.3,0.8-0.7,1-1.1v-1.7
		h-1.6c-0.9,0-1.6,0.2-2.1,0.5c-0.5,0.3-0.7,0.7-0.7,1.3c0,0.4,0.2,0.8,0.5,1.1C181.6,196.2,182,196.4,182.5,196.4z"/>
	<path class="st8" d="M191,195.7l2.3-6.7h0.9l-3.4,9.3l-0.2,0.4c-0.4,1-1.1,1.4-2,1.4c-0.2,0-0.4,0-0.7-0.1l0-0.7l0.5,0
		c0.4,0,0.8-0.1,1-0.3c0.3-0.2,0.5-0.6,0.7-1.1l0.4-1.1l-3-7.9h1L191,195.7z"/>
	<path class="st8" d="M195.3,192.9c0-0.8,0.1-1.4,0.4-2.1c0.3-0.6,0.7-1.1,1.3-1.4c0.5-0.3,1.2-0.5,1.8-0.5c1.1,0,1.9,0.4,2.6,1.1
		c0.7,0.7,1,1.7,1,2.9v0.2c0,0.8-0.1,1.5-0.4,2.1c-0.3,0.6-0.7,1.1-1.2,1.4c-0.5,0.3-1.2,0.5-1.8,0.5c-1,0-1.9-0.4-2.6-1.1
		c-0.7-0.7-1-1.7-1-2.9V192.9z M196.2,193.2c0,0.9,0.2,1.7,0.7,2.3c0.5,0.6,1.1,0.9,1.9,0.9c0.8,0,1.4-0.3,1.9-0.9
		c0.5-0.6,0.7-1.4,0.7-2.4v-0.2c0-0.6-0.1-1.2-0.3-1.7s-0.5-0.9-0.9-1.2c-0.4-0.3-0.9-0.4-1.4-0.4c-0.8,0-1.4,0.3-1.9,0.9
		c-0.5,0.6-0.7,1.4-0.7,2.4V193.2z"/>
	<path class="st8" d="M209.6,196c-0.5,0.8-1.4,1.2-2.5,1.2c-0.8,0-1.5-0.2-1.9-0.7c-0.4-0.5-0.7-1.2-0.7-2.2v-5.2h0.9v5
		c0,1.5,0.6,2.3,1.8,2.3c1.3,0,2.1-0.5,2.4-1.6v-5.7h0.9v7.9h-0.8L209.6,196z"/>
	<path class="st8" d="M214.4,187v2h1.6v0.7h-1.6v5.3c0,0.4,0.1,0.8,0.2,1c0.2,0.2,0.4,0.3,0.8,0.3c0.1,0,0.4,0,0.7-0.1l0,0.7
		c-0.2,0.1-0.5,0.1-0.9,0.1c-0.6,0-1-0.2-1.3-0.5c-0.3-0.3-0.4-0.9-0.4-1.5v-5.3h-1.5v-0.7h1.5v-2H214.4z"/>
</g>
<g>
	<g>
		<path class="st9" d="M50,133.1c-27.9,9.9-36.3,45.4-9.5,66.3"/>
		<g>
			<polygon class="st10" points="35.8,203.1 47.5,204 42.4,193.4 			"/>
		</g>
	</g>
</g>
</svg>
