<svg id="Layer_1" data-name="Layer 1" xmlns="http://www.w3.org/2000/svg" viewBox="0 0 150 150"><defs><style>.cls-1{fill:#f28c6e;}.cls-2{fill:#ffcc08;}.cls-3{fill:#b1b3b6;}.cls-4{fill:#3fc0c2;}.cls-5{fill:none;}</style></defs><title>Infographic_PanoInstructions_150x150</title><path class="cls-1" d="M80.58,63.26H68.16a1.48,1.48,0,0,0-1.52,1.52v18.4a1.48,1.48,0,0,0,1.52,1.52H80.58a1.48,1.48,0,0,0,1.52-1.52V64.9A1.57,1.57,0,0,0,80.58,63.26Z"/><polygon class="cls-1" points="70.86 86.11 69.45 89.5 79.06 89.5 77.65 86.11 70.86 86.11"/><path class="cls-2" d="M36.29,38.65A42.24,42.24,0,0,0,25,37.24a44.84,44.84,0,0,0-11.25,1.41l-.23.23c0,.23.23.23.35.23a42.24,42.24,0,0,0,11.25,1.41,44.84,44.84,0,0,0,11.25-1.41.43.43,0,0,0,.35-.23A.51.51,0,0,1,36.29,38.65Z"/><path class="cls-2" d="M63.36,38.65a42.24,42.24,0,0,0-11.25-1.41,44.84,44.84,0,0,0-11.25,1.41c-.35,0-.35.23-.35.23,0,.23.23.23.35.23a42.24,42.24,0,0,0,11.25,1.41,44.84,44.84,0,0,0,11.25-1.41.43.43,0,0,0,.35-.23C63.48,38.88,63.48,38.65,63.36,38.65Z"/><path class="cls-2" d="M38.52,35.84c-.94,0-1.64,1.64-1.64,3.75h3.28C40,37.48,39.34,35.84,38.52,35.84Z"/><path class="cls-2" d="M109.88,38.65a42.24,42.24,0,0,0-11.25-1.41,44.84,44.84,0,0,0-11.25,1.41.43.43,0,0,0-.35.23c0,.23.23.23.35.23a42.24,42.24,0,0,0,11.25,1.41,44.84,44.84,0,0,0,11.25-1.41.43.43,0,0,0,.35-.23C109.88,38.88,109.88,38.65,109.88,38.65Z"/><path class="cls-2" d="M136.94,38.65a42.24,42.24,0,0,0-11.25-1.41,44.84,44.84,0,0,0-11.25,1.41.43.43,0,0,0-.35.23c0,.23.23.23.35.23a42.24,42.24,0,0,0,11.25,1.41,44.84,44.84,0,0,0,11.25-1.41.43.43,0,0,0,.35-.23C137.06,38.88,137.06,38.65,136.94,38.65Z"/><path class="cls-2" d="M112.1,35.84c-.94,0-1.52,1.64-1.52,3.75h3.28C113.63,37.48,113,35.84,112.1,35.84Z"/><path class="cls-3" d="M117.38,51.89a3.86,3.86,0,0,0-3.4-3.28V41.93h-4v6.68H95.7c-2.23,0-4.34-1.05-6.68-2.34-3.4-1.64-7.62-3.87-13.71-3.87S65,44.51,61.6,46.27a13.53,13.53,0,0,1-6.68,2.34H40.63V41.93H36.41v6.68c-1.87.35-3.28,1.52-3.4,3.28A12,12,0,0,0,35.24,59a3.71,3.71,0,0,0,2.93,1.41A3.45,3.45,0,0,0,40.86,59a10.25,10.25,0,0,0,2.23-6.44H56.91A8.54,8.54,0,0,0,54,57c-.23.7-.47,4.1-1.17,7.85-.7,4.57-1.52,10-1.87,11.6-.35,1.41-.23,2.34.47,3a1.54,1.54,0,0,0,1.41.35,2.64,2.64,0,0,0,1.64-2.34c.35-1.05.94-3.87,1.64-7.15C57.5,65.25,58.79,59.16,59,58c.35-1.41,1.05-1.87,2.58-1.87h4.57c.35.35,2.58,4.34,5.27,4.34h.7V74.86a1.48,1.48,0,0,0,1.52,1.52h1.41a1.48,1.48,0,0,0,1.52-1.52V60.56c1.64,0,2.46-.23,5.27-3a7.58,7.58,0,0,1,.94-1.05h4.8c1.52,0,2.23.47,2.58,1.87.35,1.17,1.87,7.62,3,13l1.52,6.44C95.11,79,95.7,79.9,96.4,80h.35a1.49,1.49,0,0,0,1.05-.47,2.8,2.8,0,0,0,.47-3c-.35-1.64-1.17-7-1.87-11.6A46.31,46.31,0,0,0,95,57a8.22,8.22,0,0,0-2.7-4.45h14.06A10.5,10.5,0,0,0,108.59,59a3.62,3.62,0,0,0,2.7,1.41A4.29,4.29,0,0,0,114.21,59,7.91,7.91,0,0,0,117.38,51.89Z"/><rect class="cls-2" x="46.02" y="48.61" width="1.41" height="3.87"/><rect class="cls-2" x="48.95" y="48.61" width="1.41" height="3.87"/><rect class="cls-2" x="100.39" y="48.61" width="1.41" height="3.87"/><rect class="cls-2" x="103.2" y="48.61" width="1.41" height="3.87"/><polygon class="cls-4" points="79.29 125.71 75.9 125.71 75.43 97.59 73.44 97.59 73.9 125.71 70.39 125.71 74.96 133.44 79.29 125.71"/><rect class="cls-5" x="0.21" width="150" height="150"/></svg>