<svg id="Layer_1" data-name="Layer 1" xmlns="http://www.w3.org/2000/svg" viewBox="0 0 300 300"><defs><style>.cls-1{fill:#dcddde;}.cls-2{fill:#cadacd;}.cls-3{fill:#bae0e1;}.cls-4{fill:#ee6a4c;}</style></defs><title>Infog</title><rect class="cls-1" x="122.94" y="139.73" width="28.35" height="28.35" transform="translate(-68.67 142.03) rotate(-45)"/><rect class="cls-1" x="97.88" y="114.67" width="28.35" height="28.35" transform="translate(-58.29 116.97) rotate(-45)"/><rect class="cls-1" x="73.7" y="139.73" width="28.35" height="28.35" transform="translate(-83.09 107.22) rotate(-45)"/><path class="cls-2" d="M241,212.33l-91.86-92.74L200.84,67.9l-5.58-6.09-51.95,51.95L78.43,49.53l-5.86,5.86,98.94,98.29-53.58,53.84,5.84,5.84,53.59-53.84,57.8,58.68Z"/><polygon class="cls-2" points="196.8 174.14 249.76 122.95 255.58 128.79 202.55 179.89 196.8 174.14"/><polygon class="cls-2" points="55.41 142.09 108.46 88.26 114.27 94.11 61.15 147.84 55.41 142.09"/><polygon class="cls-2" points="98.11 74.52 129.66 42.66 135.47 48.51 103.86 80.28 98.11 74.52"/><rect class="cls-1" x="174.8" y="95.1" width="50.04" height="50.04" transform="translate(-26.41 176.48) rotate(-45)"/><path class="cls-3" d="M44,165.52c21.2,9.55,51.06,37.09,65.63,52.89,19.73,21.41,46.55,32.6,77,37.6H44V165.52Z"/><path class="cls-3" d="M181.56,256c2.64,0,51.07,3.65,74.44-33.36V256H181.56Z"/><circle class="cls-4" cx="146.14" cy="119.04" r="5.74"/><path class="cls-4" d="M146.14,100.83a18.32,18.32,0,0,0-18.32,18.32c0,9.26,13.51,27.37,18.32,34.59,5.06-7.28,18.32-24.14,18.32-34.59A18.32,18.32,0,0,0,146.14,100.83Zm0,27.54a9.33,9.33,0,1,1,9.33-9.33A9.34,9.34,0,0,1,146.14,128.37Z"/></svg>