<svg xmlns="http://www.w3.org/2000/svg" xmlns:xlink="http://www.w3.org/1999/xlink" viewBox="58 2921 375 184">
  <defs>
    <style>
      .cls-1, .cls-5 {
        fill: #fff;
      }

      .cls-1 {
        stroke: #95989a;
      }

      .cls-2 {
        clip-path: url(#clip-path);
      }

      .cls-3 {
        opacity: 0.2;
      }

      .cls-4 {
        fill: #1d2d47;
      }
    </style>
    <clipPath id="clip-path">
      <rect id="Rectangle_194" data-name="Rectangle 194" class="cls-1" width="375" height="184" transform="translate(0 3530)"/>
    </clipPath>
  </defs>
  <g id="Mask_Group_41" data-name="Mask Group 41" class="cls-2" transform="translate(58 -609)">
    <g id="Group_3349" data-name="Group 3349">
      <g id="Group_129" data-name="Group 129" class="cls-3" transform="translate(0 27)">
        <path id="Path_2" data-name="Path 2" class="cls-4" d="M589,160.977a1.777,1.777,0,0,1-1.163-.465L445.03,22.82a4.952,4.952,0,0,0-6.512,0L329.9,113.995a1.817,1.817,0,0,1-2.326-2.791L436.191,20.029a8.494,8.494,0,0,1,11.164.233L590.4,157.954a1.825,1.825,0,0,1,0,2.558A3.307,3.307,0,0,1,589,160.977Z" transform="translate(-466.268 3487.198)"/>
        <g id="Group_2" data-name="Group 2" transform="translate(-0.073 3510.018)">
          <path id="Path_3" data-name="Path 3" class="cls-5" d="M420.03,153.243V20.9H387.7V150.219" transform="translate(-385.607 -19.039)"/>
          <path id="Path_4" data-name="Path 4" class="cls-4" d="M421.223,155.931a1.834,1.834,0,0,1-1.861-1.861V23.589H390.521V151.047a1.834,1.834,0,0,1-1.861,1.861,1.712,1.712,0,0,1-1.861-1.861V21.961a1.834,1.834,0,0,1,1.861-1.861h32.33a1.835,1.835,0,0,1,1.861,1.861V154.3C423.084,155.234,422.153,155.931,421.223,155.931Z" transform="translate(-386.8 -20.1)"/>
        </g>
        <g id="Group_3" data-name="Group 3" transform="translate(-31.705 3579.795)">
          <path id="Path_5" data-name="Path 5" class="cls-5" d="M405.732,112.071V50.9H374.1v61.171" transform="translate(-372.007 -49.039)"/>
          <path id="Path_6" data-name="Path 6" class="cls-4" d="M406.925,114.759a1.835,1.835,0,0,1-1.861-1.861V53.589H376.921V112.9a1.834,1.834,0,0,1-1.861,1.861A1.712,1.712,0,0,1,373.2,112.9V51.961a1.835,1.835,0,0,1,1.861-1.861h31.632a1.834,1.834,0,0,1,1.861,1.861v61.171C408.786,114.062,407.856,114.759,406.925,114.759Z" transform="translate(-373.2 -50.1)"/>
        </g>
        <g id="Group_4" data-name="Group 4" transform="translate(10.626 3565.607)">
          <path id="Path_7" data-name="Path 7" class="cls-5" d="M392.4,118.53V44.8h31.167v75.358" transform="translate(-390.074 -42.939)"/>
          <path id="Path_8" data-name="Path 8" class="cls-4" d="M424.893,122.847a1.835,1.835,0,0,1-1.861-1.861V47.721h-27.91v71.87a1.835,1.835,0,0,1-1.861,1.861,1.712,1.712,0,0,1-1.861-1.861V45.861A1.834,1.834,0,0,1,393.261,44h31.4a1.835,1.835,0,0,1,1.861,1.861v75.126C426.753,122.15,426.056,122.847,424.893,122.847Z" transform="translate(-391.4 -44)"/>
        </g>
        <g id="Group_5" data-name="Group 5" transform="translate(42.403 3561.188)">
          <path id="Path_9" data-name="Path 9" class="cls-5" d="M405.8,122.81c.233-.465,0-80.01,0-80.01h32.1v80.01" transform="translate(-404.085 -41.172)"/>
          <path id="Path_10" data-name="Path 10" class="cls-4" d="M406.778,125.367a1.4,1.4,0,0,1-.93-.233,1.558,1.558,0,0,1-.7-1.861c.233-2.791,0-49.076,0-79.545a1.59,1.59,0,0,1,1.628-1.628h32.1a1.835,1.835,0,0,1,1.861,1.861v80.01a1.834,1.834,0,0,1-1.861,1.861,1.712,1.712,0,0,1-1.861-1.861V45.356H408.406c.233,78.15,0,78.615-.233,79.08A1.275,1.275,0,0,1,406.778,125.367Z" transform="translate(-405.063 -42.1)"/>
        </g>
        <g id="Group_9" data-name="Group 9" transform="translate(50.864 3570.259)">
          <g id="Group_6" data-name="Group 6">
            <line id="Line_1" data-name="Line 1" class="cls-5" y2="14.653" transform="translate(1.861 2.093)"/>
            <path id="Path_11" data-name="Path 11" class="cls-4" d="M410.561,64.374a1.834,1.834,0,0,1-1.861-1.861V47.861A1.834,1.834,0,0,1,410.561,46a1.712,1.712,0,0,1,1.861,1.861V62.514C412.189,63.677,411.491,64.374,410.561,64.374Z" transform="translate(-408.7 -46)"/>
          </g>
          <g id="Group_7" data-name="Group 7" transform="translate(7.675)">
            <line id="Line_2" data-name="Line 2" class="cls-5" y2="14.653" transform="translate(1.861 2.093)"/>
            <path id="Path_12" data-name="Path 12" class="cls-4" d="M413.861,64.374A1.834,1.834,0,0,1,412,62.514V47.861A1.834,1.834,0,0,1,413.861,46a1.712,1.712,0,0,1,1.861,1.861V62.514C415.489,63.677,414.791,64.374,413.861,64.374Z" transform="translate(-412 -46)"/>
          </g>
          <g id="Group_8" data-name="Group 8" transform="translate(15.118)">
            <line id="Line_3" data-name="Line 3" class="cls-5" y2="14.653" transform="translate(1.861 2.093)"/>
            <path id="Path_13" data-name="Path 13" class="cls-4" d="M417.061,64.374a1.835,1.835,0,0,1-1.861-1.861V47.861A1.835,1.835,0,0,1,417.061,46a1.712,1.712,0,0,1,1.861,1.861V62.514A1.834,1.834,0,0,1,417.061,64.374Z" transform="translate(-415.2 -46)"/>
          </g>
        </g>
        <g id="Group_13" data-name="Group 13" transform="translate(18.534 3587.935)">
          <g id="Group_10" data-name="Group 10">
            <line id="Line_4" data-name="Line 4" class="cls-5" y2="4.652" transform="translate(1.861 1.861)"/>
            <path id="Path_14" data-name="Path 14" class="cls-4" d="M396.661,61.973a1.834,1.834,0,0,1-1.861-1.861V55.461a1.834,1.834,0,0,1,1.861-1.861,1.712,1.712,0,0,1,1.861,1.861v4.652C398.289,61.043,397.591,61.973,396.661,61.973Z" transform="translate(-394.8 -53.6)"/>
          </g>
          <g id="Group_11" data-name="Group 11" transform="translate(7.443)">
            <line id="Line_5" data-name="Line 5" class="cls-5" y2="4.652" transform="translate(1.861 1.861)"/>
            <path id="Path_15" data-name="Path 15" class="cls-4" d="M399.861,61.973A1.834,1.834,0,0,1,398,60.112V55.461a1.835,1.835,0,0,1,1.861-1.861,1.712,1.712,0,0,1,1.861,1.861v4.652A1.834,1.834,0,0,1,399.861,61.973Z" transform="translate(-398 -53.6)"/>
          </g>
          <g id="Group_12" data-name="Group 12" transform="translate(15.118)">
            <line id="Line_6" data-name="Line 6" class="cls-5" y2="4.652" transform="translate(1.861 1.861)"/>
            <path id="Path_16" data-name="Path 16" class="cls-4" d="M403.161,61.973a1.835,1.835,0,0,1-1.861-1.861V55.461a1.834,1.834,0,0,1,1.861-1.861,1.712,1.712,0,0,1,1.861,1.861v4.652A2,2,0,0,1,403.161,61.973Z" transform="translate(-401.3 -53.6)"/>
          </g>
        </g>
        <g id="Group_17" data-name="Group 17" transform="translate(18.534 3600.728)">
          <g id="Group_14" data-name="Group 14">
            <line id="Line_7" data-name="Line 7" class="cls-5" y2="4.652" transform="translate(1.861 2.093)"/>
            <path id="Path_17" data-name="Path 17" class="cls-4" d="M396.661,67.473a1.834,1.834,0,0,1-1.861-1.861V60.961a1.835,1.835,0,0,1,1.861-1.861,1.712,1.712,0,0,1,1.861,1.861v4.652C398.289,66.775,397.591,67.473,396.661,67.473Z" transform="translate(-394.8 -59.1)"/>
          </g>
          <g id="Group_15" data-name="Group 15" transform="translate(7.443)">
            <line id="Line_8" data-name="Line 8" class="cls-5" y2="4.652" transform="translate(1.861 2.093)"/>
            <path id="Path_18" data-name="Path 18" class="cls-4" d="M399.861,67.473A1.834,1.834,0,0,1,398,65.612V60.961a1.835,1.835,0,0,1,1.861-1.861,1.712,1.712,0,0,1,1.861,1.861v4.652A1.712,1.712,0,0,1,399.861,67.473Z" transform="translate(-398 -59.1)"/>
          </g>
          <g id="Group_16" data-name="Group 16" transform="translate(15.118)">
            <line id="Line_9" data-name="Line 9" class="cls-5" y2="4.652" transform="translate(1.861 2.093)"/>
            <path id="Path_19" data-name="Path 19" class="cls-4" d="M403.161,67.473a1.835,1.835,0,0,1-1.861-1.861V60.961a1.834,1.834,0,0,1,1.861-1.861,1.712,1.712,0,0,1,1.861,1.861v4.652A1.834,1.834,0,0,1,403.161,67.473Z" transform="translate(-401.3 -59.1)"/>
          </g>
        </g>
        <g id="Group_21" data-name="Group 21" transform="translate(18.534 3574.91)">
          <g id="Group_18" data-name="Group 18">
            <line id="Line_10" data-name="Line 10" class="cls-5" y2="4.652" transform="translate(1.861 2.093)"/>
            <path id="Path_20" data-name="Path 20" class="cls-4" d="M396.661,56.373a1.834,1.834,0,0,1-1.861-1.861V49.861A1.834,1.834,0,0,1,396.661,48a1.712,1.712,0,0,1,1.861,1.861v4.652C398.289,55.675,397.591,56.373,396.661,56.373Z" transform="translate(-394.8 -48)"/>
          </g>
          <g id="Group_19" data-name="Group 19" transform="translate(7.443)">
            <line id="Line_11" data-name="Line 11" class="cls-5" y2="4.652" transform="translate(1.861 2.093)"/>
            <path id="Path_21" data-name="Path 21" class="cls-4" d="M399.861,56.373A1.834,1.834,0,0,1,398,54.512V49.861A1.835,1.835,0,0,1,399.861,48a1.712,1.712,0,0,1,1.861,1.861v4.652A1.712,1.712,0,0,1,399.861,56.373Z" transform="translate(-398 -48)"/>
          </g>
          <g id="Group_20" data-name="Group 20" transform="translate(15.118)">
            <line id="Line_12" data-name="Line 12" class="cls-5" y2="4.652" transform="translate(1.861 2.093)"/>
            <path id="Path_22" data-name="Path 22" class="cls-4" d="M403.161,56.373a1.835,1.835,0,0,1-1.861-1.861V49.861A1.834,1.834,0,0,1,403.161,48a1.712,1.712,0,0,1,1.861,1.861v4.652A1.834,1.834,0,0,1,403.161,56.373Z" transform="translate(-401.3 -48)"/>
          </g>
        </g>
        <g id="Group_25" data-name="Group 25" transform="translate(18.534 3613.985)">
          <g id="Group_22" data-name="Group 22">
            <line id="Line_13" data-name="Line 13" class="cls-5" y2="4.652" transform="translate(1.861 1.861)"/>
            <path id="Path_23" data-name="Path 23" class="cls-4" d="M396.661,73.173a1.834,1.834,0,0,1-1.861-1.861V66.661a1.835,1.835,0,0,1,1.861-1.861,1.712,1.712,0,0,1,1.861,1.861v4.652C398.289,72.243,397.591,73.173,396.661,73.173Z" transform="translate(-394.8 -64.8)"/>
          </g>
          <g id="Group_23" data-name="Group 23" transform="translate(7.443)">
            <line id="Line_14" data-name="Line 14" class="cls-5" y2="4.652" transform="translate(1.861 1.861)"/>
            <path id="Path_24" data-name="Path 24" class="cls-4" d="M399.861,73.173A1.835,1.835,0,0,1,398,71.312V66.661a1.835,1.835,0,0,1,1.861-1.861,1.712,1.712,0,0,1,1.861,1.861v4.652A1.834,1.834,0,0,1,399.861,73.173Z" transform="translate(-398 -64.8)"/>
          </g>
          <g id="Group_24" data-name="Group 24" transform="translate(15.118)">
            <line id="Line_15" data-name="Line 15" class="cls-5" y2="4.652" transform="translate(1.861 1.861)"/>
            <path id="Path_25" data-name="Path 25" class="cls-4" d="M403.161,73.173a1.835,1.835,0,0,1-1.861-1.861V66.661a1.834,1.834,0,0,1,1.861-1.861,1.712,1.712,0,0,1,1.861,1.861v4.652A2,2,0,0,1,403.161,73.173Z" transform="translate(-401.3 -64.8)"/>
          </g>
        </g>
        <g id="Group_29" data-name="Group 29" transform="translate(18.534 3626.778)">
          <g id="Group_26" data-name="Group 26">
            <line id="Line_16" data-name="Line 16" class="cls-5" y2="4.652" transform="translate(1.861 2.093)"/>
            <path id="Path_26" data-name="Path 26" class="cls-4" d="M396.661,78.673a1.834,1.834,0,0,1-1.861-1.861V72.161a1.835,1.835,0,0,1,1.861-1.861,1.712,1.712,0,0,1,1.861,1.861v4.652C398.289,77.975,397.591,78.673,396.661,78.673Z" transform="translate(-394.8 -70.3)"/>
          </g>
          <g id="Group_27" data-name="Group 27" transform="translate(7.443)">
            <line id="Line_17" data-name="Line 17" class="cls-5" y2="4.652" transform="translate(1.861 2.093)"/>
            <path id="Path_27" data-name="Path 27" class="cls-4" d="M399.861,78.673A1.835,1.835,0,0,1,398,76.812V72.161a1.835,1.835,0,0,1,1.861-1.861,1.712,1.712,0,0,1,1.861,1.861v4.652A1.712,1.712,0,0,1,399.861,78.673Z" transform="translate(-398 -70.3)"/>
          </g>
          <g id="Group_28" data-name="Group 28" transform="translate(15.118)">
            <line id="Line_18" data-name="Line 18" class="cls-5" y2="4.652" transform="translate(1.861 2.093)"/>
            <path id="Path_28" data-name="Path 28" class="cls-4" d="M403.161,78.673a1.835,1.835,0,0,1-1.861-1.861V72.161a1.834,1.834,0,0,1,1.861-1.861,1.712,1.712,0,0,1,1.861,1.861v4.652A1.834,1.834,0,0,1,403.161,78.673Z" transform="translate(-401.3 -70.3)"/>
          </g>
        </g>
        <g id="Group_33" data-name="Group 33" transform="translate(50.864 3593.052)">
          <g id="Group_30" data-name="Group 30">
            <line id="Line_19" data-name="Line 19" class="cls-5" y2="14.653" transform="translate(1.861 2.093)"/>
            <path id="Path_29" data-name="Path 29" class="cls-4" d="M410.561,74.174a1.834,1.834,0,0,1-1.861-1.861V57.661a1.834,1.834,0,0,1,1.861-1.861,1.712,1.712,0,0,1,1.861,1.861V72.546A1.974,1.974,0,0,1,410.561,74.174Z" transform="translate(-408.7 -55.8)"/>
          </g>
          <g id="Group_31" data-name="Group 31" transform="translate(7.675)">
            <line id="Line_20" data-name="Line 20" class="cls-5" y2="14.653" transform="translate(1.861 2.093)"/>
            <path id="Path_30" data-name="Path 30" class="cls-4" d="M413.861,74.174A1.834,1.834,0,0,1,412,72.314V57.661a1.834,1.834,0,0,1,1.861-1.861,1.712,1.712,0,0,1,1.861,1.861V72.546A1.973,1.973,0,0,1,413.861,74.174Z" transform="translate(-412 -55.8)"/>
          </g>
          <g id="Group_32" data-name="Group 32" transform="translate(15.118)">
            <line id="Line_21" data-name="Line 21" class="cls-5" y2="14.653" transform="translate(1.861 2.093)"/>
            <path id="Path_31" data-name="Path 31" class="cls-4" d="M417.061,74.174a1.835,1.835,0,0,1-1.861-1.861V57.661a1.835,1.835,0,0,1,1.861-1.861,1.712,1.712,0,0,1,1.861,1.861V72.546A1.8,1.8,0,0,1,417.061,74.174Z" transform="translate(-415.2 -55.8)"/>
          </g>
        </g>
        <g id="Group_37" data-name="Group 37" transform="translate(50.864 3616.079)">
          <g id="Group_34" data-name="Group 34">
            <line id="Line_22" data-name="Line 22" class="cls-5" y2="14.42" transform="translate(1.861 2.093)"/>
            <path id="Path_32" data-name="Path 32" class="cls-4" d="M410.561,84.074a1.834,1.834,0,0,1-1.861-1.861V67.561a1.834,1.834,0,0,1,1.861-1.861,1.712,1.712,0,0,1,1.861,1.861V82.214C412.189,83.377,411.491,84.074,410.561,84.074Z" transform="translate(-408.7 -65.7)"/>
          </g>
          <g id="Group_35" data-name="Group 35" transform="translate(7.675)">
            <line id="Line_23" data-name="Line 23" class="cls-5" y2="14.42" transform="translate(1.861 2.093)"/>
            <path id="Path_33" data-name="Path 33" class="cls-4" d="M413.861,84.074A1.834,1.834,0,0,1,412,82.214V67.561a1.834,1.834,0,0,1,1.861-1.861,1.712,1.712,0,0,1,1.861,1.861V82.214C415.489,83.377,414.791,84.074,413.861,84.074Z" transform="translate(-412 -65.7)"/>
          </g>
          <g id="Group_36" data-name="Group 36" transform="translate(15.118)">
            <line id="Line_24" data-name="Line 24" class="cls-5" y2="14.42" transform="translate(1.861 2.093)"/>
            <path id="Path_34" data-name="Path 34" class="cls-4" d="M417.061,84.074a1.835,1.835,0,0,1-1.861-1.861V67.561a1.835,1.835,0,0,1,1.861-1.861,1.712,1.712,0,0,1,1.861,1.861V82.214A1.834,1.834,0,0,1,417.061,84.074Z" transform="translate(-415.2 -65.7)"/>
          </g>
        </g>
        <g id="Group_41" data-name="Group 41" transform="translate(8.532 3519.089)">
          <g id="Group_38" data-name="Group 38">
            <line id="Line_25" data-name="Line 25" class="cls-5" y2="14.42" transform="translate(1.861 2.093)"/>
            <path id="Path_35" data-name="Path 35" class="cls-4" d="M392.361,42.374a1.834,1.834,0,0,1-1.861-1.861V25.861A1.834,1.834,0,0,1,392.361,24a1.712,1.712,0,0,1,1.861,1.861V40.514A1.834,1.834,0,0,1,392.361,42.374Z" transform="translate(-390.5 -24)"/>
          </g>
          <g id="Group_39" data-name="Group 39" transform="translate(7.675)">
            <line id="Line_26" data-name="Line 26" class="cls-5" y2="14.42" transform="translate(1.861 2.093)"/>
            <path id="Path_36" data-name="Path 36" class="cls-4" d="M395.661,42.374a1.834,1.834,0,0,1-1.861-1.861V25.861A1.834,1.834,0,0,1,395.661,24a1.712,1.712,0,0,1,1.861,1.861V40.514C397.289,41.677,396.591,42.374,395.661,42.374Z" transform="translate(-393.8 -24)"/>
          </g>
          <g id="Group_40" data-name="Group 40" transform="translate(15.351)">
            <line id="Line_27" data-name="Line 27" class="cls-5" y2="14.42" transform="translate(1.861 2.093)"/>
            <path id="Path_37" data-name="Path 37" class="cls-4" d="M398.961,42.374a1.834,1.834,0,0,1-1.861-1.861V25.861A1.834,1.834,0,0,1,398.961,24a1.712,1.712,0,0,1,1.861,1.861V40.514C400.589,41.677,399.891,42.374,398.961,42.374Z" transform="translate(-397.1 -24)"/>
          </g>
        </g>
        <g id="Group_45" data-name="Group 45" transform="translate(8.532 3541.883)">
          <g id="Group_42" data-name="Group 42">
            <line id="Line_28" data-name="Line 28" class="cls-5" y2="14.653" transform="translate(1.861 2.093)"/>
            <path id="Path_38" data-name="Path 38" class="cls-4" d="M392.361,52.174a1.834,1.834,0,0,1-1.861-1.861V35.661a1.834,1.834,0,0,1,1.861-1.861,1.712,1.712,0,0,1,1.861,1.861V50.546A1.8,1.8,0,0,1,392.361,52.174Z" transform="translate(-390.5 -33.8)"/>
          </g>
          <g id="Group_43" data-name="Group 43" transform="translate(7.675)">
            <line id="Line_29" data-name="Line 29" class="cls-5" y2="14.653" transform="translate(1.861 2.093)"/>
            <path id="Path_39" data-name="Path 39" class="cls-4" d="M395.661,52.174a1.834,1.834,0,0,1-1.861-1.861V35.661a1.834,1.834,0,0,1,1.861-1.861,1.712,1.712,0,0,1,1.861,1.861V50.546A1.974,1.974,0,0,1,395.661,52.174Z" transform="translate(-393.8 -33.8)"/>
          </g>
          <g id="Group_44" data-name="Group 44" transform="translate(15.351)">
            <line id="Line_30" data-name="Line 30" class="cls-5" y2="14.653" transform="translate(1.861 2.093)"/>
            <path id="Path_40" data-name="Path 40" class="cls-4" d="M398.961,52.174a1.834,1.834,0,0,1-1.861-1.861V35.661a1.834,1.834,0,0,1,1.861-1.861,1.712,1.712,0,0,1,1.861,1.861V50.546A1.974,1.974,0,0,1,398.961,52.174Z" transform="translate(-397.1 -33.8)"/>
          </g>
        </g>
        <g id="Group_114" data-name="Group 114" transform="translate(292.057 3488.62)">
          <g id="Group_46" data-name="Group 46" transform="translate(10.001 33.958)">
            <path id="Path_41" data-name="Path 41" class="cls-5" d="M517.5,32.945s.233-6.745,3.024-6.745h7.443c2.093,0,2.791,5.815,2.791,5.815" transform="translate(-515.639 -24.572)"/>
            <path id="Path_42" data-name="Path 42" class="cls-4" d="M518.561,35.734h0a1.834,1.834,0,0,1-1.861-1.861c0-1.861.7-8.373,4.884-8.373h7.443c3.256,0,4.186,5.117,4.419,7.21a1.748,1.748,0,0,1-3.489.233c-.233-1.628-.7-3.721-1.163-4.187h-7.21c-.465.233-1.163,2.791-1.4,5.117A1.659,1.659,0,0,1,518.561,35.734Z" transform="translate(-516.7 -25.5)"/>
          </g>
          <g id="Group_76" data-name="Group 76" transform="translate(40.703 36.284)">
            <g id="Group_47" data-name="Group 47">
              <path id="Path_43" data-name="Path 43" class="cls-5" d="M530.8,102.193V27.3h28.608v75.824" transform="translate(-528.707 -25.439)"/>
              <path id="Path_44" data-name="Path 44" class="cls-4" d="M560.6,105.812a1.834,1.834,0,0,1-1.861-1.861V30.221h-25.12v73.033a1.835,1.835,0,0,1-1.861,1.861,1.712,1.712,0,0,1-1.861-1.861V28.361a1.834,1.834,0,0,1,1.861-1.861h28.608a1.834,1.834,0,0,1,1.861,1.861v75.591A1.549,1.549,0,0,1,560.6,105.812Z" transform="translate(-529.9 -26.5)"/>
            </g>
            <g id="Group_51" data-name="Group 51" transform="translate(7.908 22.561)">
              <g id="Group_48" data-name="Group 48">
                <line id="Line_31" data-name="Line 31" class="cls-5" y2="2.791" transform="translate(1.861 1.861)"/>
                <path id="Path_45" data-name="Path 45" class="cls-4" d="M535.161,42.712a1.834,1.834,0,0,1-1.861-1.861V38.061a1.835,1.835,0,0,1,1.861-1.861,1.712,1.712,0,0,1,1.861,1.861v2.791A1.834,1.834,0,0,1,535.161,42.712Z" transform="translate(-533.3 -36.2)"/>
              </g>
              <g id="Group_49" data-name="Group 49" transform="translate(6.513)">
                <line id="Line_32" data-name="Line 32" class="cls-5" y2="2.791" transform="translate(1.861 1.861)"/>
                <path id="Path_46" data-name="Path 46" class="cls-4" d="M537.961,42.712a1.834,1.834,0,0,1-1.861-1.861V38.061a1.834,1.834,0,0,1,1.861-1.861,1.712,1.712,0,0,1,1.861,1.861v2.791A2,2,0,0,1,537.961,42.712Z" transform="translate(-536.1 -36.2)"/>
              </g>
              <g id="Group_50" data-name="Group 50" transform="translate(13.025)">
                <line id="Line_33" data-name="Line 33" class="cls-5" y2="2.791" transform="translate(1.861 1.861)"/>
                <path id="Path_47" data-name="Path 47" class="cls-4" d="M540.761,42.712a1.834,1.834,0,0,1-1.861-1.861V38.061a1.834,1.834,0,0,1,1.861-1.861,1.712,1.712,0,0,1,1.861,1.861v2.791A2,2,0,0,1,540.761,42.712Z" transform="translate(-538.9 -36.2)"/>
              </g>
            </g>
            <g id="Group_55" data-name="Group 55" transform="translate(7.908 30.004)">
              <g id="Group_52" data-name="Group 52">
                <line id="Line_34" data-name="Line 34" class="cls-5" y2="2.791" transform="translate(1.861 2.093)"/>
                <path id="Path_48" data-name="Path 48" class="cls-4" d="M535.161,45.912a1.834,1.834,0,0,1-1.861-1.861V41.261a1.834,1.834,0,0,1,1.861-1.861,1.712,1.712,0,0,1,1.861,1.861v2.791A1.712,1.712,0,0,1,535.161,45.912Z" transform="translate(-533.3 -39.4)"/>
              </g>
              <g id="Group_53" data-name="Group 53" transform="translate(6.513)">
                <line id="Line_35" data-name="Line 35" class="cls-5" y2="2.791" transform="translate(1.861 2.093)"/>
                <path id="Path_49" data-name="Path 49" class="cls-4" d="M537.961,45.912a1.834,1.834,0,0,1-1.861-1.861V41.261a1.834,1.834,0,0,1,1.861-1.861,1.712,1.712,0,0,1,1.861,1.861v2.791A1.834,1.834,0,0,1,537.961,45.912Z" transform="translate(-536.1 -39.4)"/>
              </g>
              <g id="Group_54" data-name="Group 54" transform="translate(13.025)">
                <line id="Line_36" data-name="Line 36" class="cls-5" y2="2.791" transform="translate(1.861 2.093)"/>
                <path id="Path_50" data-name="Path 50" class="cls-4" d="M540.761,45.912a1.834,1.834,0,0,1-1.861-1.861V41.261a1.834,1.834,0,0,1,1.861-1.861,1.712,1.712,0,0,1,1.861,1.861v2.791A1.835,1.835,0,0,1,540.761,45.912Z" transform="translate(-538.9 -39.4)"/>
              </g>
            </g>
            <g id="Group_59" data-name="Group 59" transform="translate(7.908 37.679)">
              <g id="Group_56" data-name="Group 56">
                <line id="Line_37" data-name="Line 37" class="cls-5" y2="2.558" transform="translate(1.861 2.093)"/>
                <path id="Path_51" data-name="Path 51" class="cls-4" d="M535.161,49.212a1.834,1.834,0,0,1-1.861-1.861V44.561a1.835,1.835,0,0,1,1.861-1.861,1.712,1.712,0,0,1,1.861,1.861v2.791A1.834,1.834,0,0,1,535.161,49.212Z" transform="translate(-533.3 -42.7)"/>
              </g>
              <g id="Group_57" data-name="Group 57" transform="translate(6.513)">
                <line id="Line_38" data-name="Line 38" class="cls-5" y2="2.558" transform="translate(1.861 2.093)"/>
                <path id="Path_52" data-name="Path 52" class="cls-4" d="M537.961,49.212a1.834,1.834,0,0,1-1.861-1.861V44.561a1.834,1.834,0,0,1,1.861-1.861,1.712,1.712,0,0,1,1.861,1.861v2.791A2,2,0,0,1,537.961,49.212Z" transform="translate(-536.1 -42.7)"/>
              </g>
              <g id="Group_58" data-name="Group 58" transform="translate(13.025)">
                <line id="Line_39" data-name="Line 39" class="cls-5" y2="2.558" transform="translate(1.861 2.093)"/>
                <path id="Path_53" data-name="Path 53" class="cls-4" d="M540.761,49.212a1.834,1.834,0,0,1-1.861-1.861V44.561a1.834,1.834,0,0,1,1.861-1.861,1.712,1.712,0,0,1,1.861,1.861v2.791A2,2,0,0,1,540.761,49.212Z" transform="translate(-538.9 -42.7)"/>
              </g>
            </g>
            <g id="Group_63" data-name="Group 63" transform="translate(7.908 7.443)">
              <g id="Group_60" data-name="Group 60">
                <line id="Line_40" data-name="Line 40" class="cls-5" y2="2.791" transform="translate(1.861 2.093)"/>
                <path id="Path_54" data-name="Path 54" class="cls-4" d="M535.161,36.212a1.834,1.834,0,0,1-1.861-1.861V31.561a1.835,1.835,0,0,1,1.861-1.861,1.712,1.712,0,0,1,1.861,1.861v2.791A1.712,1.712,0,0,1,535.161,36.212Z" transform="translate(-533.3 -29.7)"/>
              </g>
              <g id="Group_61" data-name="Group 61" transform="translate(6.513)">
                <line id="Line_41" data-name="Line 41" class="cls-5" y2="2.791" transform="translate(1.861 2.093)"/>
                <path id="Path_55" data-name="Path 55" class="cls-4" d="M537.961,36.212a1.834,1.834,0,0,1-1.861-1.861V31.561a1.834,1.834,0,0,1,1.861-1.861,1.712,1.712,0,0,1,1.861,1.861v2.791A1.834,1.834,0,0,1,537.961,36.212Z" transform="translate(-536.1 -29.7)"/>
              </g>
              <g id="Group_62" data-name="Group 62" transform="translate(13.025)">
                <line id="Line_42" data-name="Line 42" class="cls-5" y2="2.791" transform="translate(1.861 2.093)"/>
                <path id="Path_56" data-name="Path 56" class="cls-4" d="M540.761,36.212a1.834,1.834,0,0,1-1.861-1.861V31.561a1.834,1.834,0,0,1,1.861-1.861,1.712,1.712,0,0,1,1.861,1.861v2.791A1.835,1.835,0,0,1,540.761,36.212Z" transform="translate(-538.9 -29.7)"/>
              </g>
            </g>
            <g id="Group_67" data-name="Group 67" transform="translate(7.908 14.886)">
              <g id="Group_64" data-name="Group 64">
                <line id="Line_43" data-name="Line 43" class="cls-5" y2="2.791" transform="translate(1.861 2.093)"/>
                <path id="Path_57" data-name="Path 57" class="cls-4" d="M535.161,39.412a1.834,1.834,0,0,1-1.861-1.861V34.761a1.835,1.835,0,0,1,1.861-1.861,1.712,1.712,0,0,1,1.861,1.861v3.024A1.659,1.659,0,0,1,535.161,39.412Z" transform="translate(-533.3 -32.9)"/>
              </g>
              <g id="Group_65" data-name="Group 65" transform="translate(6.513)">
                <line id="Line_44" data-name="Line 44" class="cls-5" y2="2.791" transform="translate(1.861 2.093)"/>
                <path id="Path_58" data-name="Path 58" class="cls-4" d="M537.961,39.412a1.834,1.834,0,0,1-1.861-1.861V34.761a1.834,1.834,0,0,1,1.861-1.861,1.712,1.712,0,0,1,1.861,1.861v3.024A1.8,1.8,0,0,1,537.961,39.412Z" transform="translate(-536.1 -32.9)"/>
              </g>
              <g id="Group_66" data-name="Group 66" transform="translate(13.025)">
                <line id="Line_45" data-name="Line 45" class="cls-5" y2="2.791" transform="translate(1.861 2.093)"/>
                <path id="Path_59" data-name="Path 59" class="cls-4" d="M540.761,39.412a1.834,1.834,0,0,1-1.861-1.861V34.761a1.834,1.834,0,0,1,1.861-1.861,1.712,1.712,0,0,1,1.861,1.861v3.024A1.8,1.8,0,0,1,540.761,39.412Z" transform="translate(-538.9 -32.9)"/>
              </g>
            </g>
            <g id="Group_75" data-name="Group 75" transform="translate(7.908 45.122)">
              <g id="Group_68" data-name="Group 68">
                <line id="Line_46" data-name="Line 46" class="cls-5" y2="2.791" transform="translate(1.861 2.093)"/>
                <path id="Path_60" data-name="Path 60" class="cls-4" d="M535.161,52.412a1.834,1.834,0,0,1-1.861-1.861V47.761a1.835,1.835,0,0,1,1.861-1.861,1.712,1.712,0,0,1,1.861,1.861v3.024A1.659,1.659,0,0,1,535.161,52.412Z" transform="translate(-533.3 -45.9)"/>
              </g>
              <g id="Group_69" data-name="Group 69" transform="translate(6.513)">
                <line id="Line_47" data-name="Line 47" class="cls-5" y2="2.791" transform="translate(1.861 2.093)"/>
                <path id="Path_61" data-name="Path 61" class="cls-4" d="M537.961,52.412a1.834,1.834,0,0,1-1.861-1.861V47.761a1.834,1.834,0,0,1,1.861-1.861,1.712,1.712,0,0,1,1.861,1.861v3.024A1.8,1.8,0,0,1,537.961,52.412Z" transform="translate(-536.1 -45.9)"/>
              </g>
              <g id="Group_70" data-name="Group 70" transform="translate(0 7.675)">
                <line id="Line_48" data-name="Line 48" class="cls-5" y2="2.791" transform="translate(1.861 1.861)"/>
                <path id="Path_62" data-name="Path 62" class="cls-4" d="M535.161,55.48a1.834,1.834,0,0,1-1.861-1.861V51.061a1.835,1.835,0,0,1,1.861-1.861,1.712,1.712,0,0,1,1.861,1.861v2.791A1.659,1.659,0,0,1,535.161,55.48Z" transform="translate(-533.3 -49.2)"/>
              </g>
              <g id="Group_71" data-name="Group 71" transform="translate(6.513 7.675)">
                <line id="Line_49" data-name="Line 49" class="cls-5" y2="2.791" transform="translate(1.861 1.861)"/>
                <path id="Path_63" data-name="Path 63" class="cls-4" d="M537.961,55.48a1.834,1.834,0,0,1-1.861-1.861V51.061a1.834,1.834,0,0,1,1.861-1.861,1.712,1.712,0,0,1,1.861,1.861v2.791A1.8,1.8,0,0,1,537.961,55.48Z" transform="translate(-536.1 -49.2)"/>
              </g>
              <g id="Group_72" data-name="Group 72" transform="translate(0 14.886)">
                <line id="Line_50" data-name="Line 50" class="cls-5" y2="2.791" transform="translate(1.861 2.093)"/>
                <path id="Path_64" data-name="Path 64" class="cls-4" d="M535.161,58.812a1.834,1.834,0,0,1-1.861-1.861V54.161a1.835,1.835,0,0,1,1.861-1.861,1.712,1.712,0,0,1,1.861,1.861v2.791A1.712,1.712,0,0,1,535.161,58.812Z" transform="translate(-533.3 -52.3)"/>
              </g>
              <g id="Group_73" data-name="Group 73" transform="translate(6.513 14.886)">
                <line id="Line_51" data-name="Line 51" class="cls-5" y2="2.791" transform="translate(1.861 2.093)"/>
                <path id="Path_65" data-name="Path 65" class="cls-4" d="M537.961,58.812a1.834,1.834,0,0,1-1.861-1.861V54.161a1.834,1.834,0,0,1,1.861-1.861,1.712,1.712,0,0,1,1.861,1.861v2.791A1.834,1.834,0,0,1,537.961,58.812Z" transform="translate(-536.1 -52.3)"/>
              </g>
              <g id="Group_74" data-name="Group 74" transform="translate(13.025)">
                <line id="Line_52" data-name="Line 52" class="cls-5" y2="2.791" transform="translate(1.861 2.093)"/>
                <path id="Path_66" data-name="Path 66" class="cls-4" d="M540.761,52.412a1.834,1.834,0,0,1-1.861-1.861V47.761a1.834,1.834,0,0,1,1.861-1.861,1.712,1.712,0,0,1,1.861,1.861v3.024A1.8,1.8,0,0,1,540.761,52.412Z" transform="translate(-538.9 -45.9)"/>
              </g>
            </g>
          </g>
          <g id="Group_77" data-name="Group 77" transform="translate(5.537 41.401)">
            <path id="Path_67" data-name="Path 67" class="cls-5" d="M515.5,36.145s.465-6.745,5.117-6.745h12.56c3.489,0,4.652,5.815,4.652,5.815" transform="translate(-513.827 -27.772)"/>
            <path id="Path_68" data-name="Path 68" class="cls-4" d="M516.453,38.934h0a1.534,1.534,0,0,1-1.628-1.861c.233-2.791,2.093-8.373,6.978-8.373h12.56c3.954,0,5.815,4.419,6.512,7.21a1.779,1.779,0,0,1-3.489.7c-.233-.93-1.163-4.419-3.024-4.419H521.8c-3.024,0-3.489,5.117-3.489,5.117A1.973,1.973,0,0,1,516.453,38.934Z" transform="translate(-514.781 -28.7)"/>
          </g>
          <g id="Group_78" data-name="Group 78" transform="translate(0 48.611)">
            <path id="Path_69" data-name="Path 69" class="cls-5" d="M574.836,135.636V89.351H546.227l-.233,46.75V32.6H513.2V136.1" transform="translate(-511.339 -30.739)"/>
            <path id="Path_70" data-name="Path 70" class="cls-4" d="M547.056,139.023h0a1.834,1.834,0,0,1-1.861-1.861V35.289H516.121V137.162a1.835,1.835,0,0,1-1.861,1.861,1.712,1.712,0,0,1-1.861-1.861V33.661a1.835,1.835,0,0,1,1.861-1.861h32.795a1.835,1.835,0,0,1,1.861,1.861V88.784H575.9a1.835,1.835,0,0,1,1.861,1.861V136.93a1.835,1.835,0,0,1-1.861,1.861,1.712,1.712,0,0,1-1.861-1.861V92.273H548.684v45.122C548.916,138.093,547.986,139.023,547.056,139.023Z" transform="translate(-512.4 -31.8)"/>
          </g>
          <g id="Group_79" data-name="Group 79" transform="translate(16.746 19.537)">
            <line id="Line_53" data-name="Line 53" class="cls-5" y1="13.955" transform="translate(1.861 2.093)"/>
            <path id="Path_71" data-name="Path 71" class="cls-4" d="M521.461,37.209a1.835,1.835,0,0,1-1.861-1.861V21.161a1.834,1.834,0,0,1,1.861-1.861,1.712,1.712,0,0,1,1.861,1.861V35.349A1.834,1.834,0,0,1,521.461,37.209Z" transform="translate(-519.6 -19.3)"/>
          </g>
          <g id="Group_80" data-name="Group 80" transform="translate(61.729 91.64)">
            <path id="Path_72" data-name="Path 72" class="cls-5" d="M539.859,112.171c-.232,0,0-61.171,0-61.171h31.632v59.31" transform="translate(-537.859 -49.372)"/>
            <path id="Path_73" data-name="Path 73" class="cls-4" d="M539.544,114.494c-.7-.7-.7-.7-.465-62.566A1.659,1.659,0,0,1,540.94,50.3h31.632a1.834,1.834,0,0,1,1.861,1.861v59.31a1.834,1.834,0,0,1-1.861,1.861,1.712,1.712,0,0,1-1.861-1.861V53.789H542.568c0,23.491-.232,57.449,0,59.31l-1.628.233Z" transform="translate(-538.94 -50.3)"/>
          </g>
          <g id="Group_81" data-name="Group 81" transform="translate(41.401 134.203)">
            <path id="Path_74" data-name="Path 74" class="cls-5" d="M543.195,87.309V69.4H531.1V87.309" transform="translate(-529.007 -67.539)"/>
            <path id="Path_75" data-name="Path 75" class="cls-4" d="M544.388,90.231a1.834,1.834,0,0,1-1.861-1.861V72.089h-8.606V88.37a1.834,1.834,0,0,1-1.861,1.861A1.712,1.712,0,0,1,530.2,88.37V70.461a1.834,1.834,0,0,1,1.861-1.861h12.095a1.834,1.834,0,0,1,1.861,1.861V88.37A1.648,1.648,0,0,1,544.388,90.231Z" transform="translate(-530.2 -68.6)"/>
          </g>
          <g id="Group_85" data-name="Group 85" transform="translate(8.373 90.244)">
            <g id="Group_82" data-name="Group 82">
              <line id="Line_54" data-name="Line 54" class="cls-5" y2="5.35" transform="translate(1.861 2.093)"/>
              <path id="Path_76" data-name="Path 76" class="cls-4" d="M517.861,58.771A1.834,1.834,0,0,1,516,56.91v-5.35a1.834,1.834,0,0,1,1.861-1.861,1.712,1.712,0,0,1,1.861,1.861v5.35C519.489,58.073,518.791,58.771,517.861,58.771Z" transform="translate(-516 -49.7)"/>
            </g>
            <g id="Group_83" data-name="Group 83" transform="translate(8.838)">
              <line id="Line_55" data-name="Line 55" class="cls-5" y2="5.35" transform="translate(1.861 2.093)"/>
              <path id="Path_77" data-name="Path 77" class="cls-4" d="M521.661,58.771A1.834,1.834,0,0,1,519.8,56.91v-5.35a1.834,1.834,0,0,1,1.861-1.861,1.712,1.712,0,0,1,1.861,1.861v5.35C523.289,58.073,522.591,58.771,521.661,58.771Z" transform="translate(-519.8 -49.7)"/>
            </g>
            <g id="Group_84" data-name="Group 84" transform="translate(17.677)">
              <line id="Line_56" data-name="Line 56" class="cls-5" y2="5.35" transform="translate(1.861 2.093)"/>
              <path id="Path_78" data-name="Path 78" class="cls-4" d="M525.461,58.771A1.835,1.835,0,0,1,523.6,56.91v-5.35a1.835,1.835,0,0,1,1.861-1.861,1.712,1.712,0,0,1,1.861,1.861v5.35C527.089,58.073,526.391,58.771,525.461,58.771Z" transform="translate(-523.6 -49.7)"/>
            </g>
          </g>
          <g id="Group_89" data-name="Group 89" transform="translate(8.373 105.362)">
            <g id="Group_86" data-name="Group 86">
              <line id="Line_57" data-name="Line 57" class="cls-5" y2="5.582" transform="translate(1.861 1.861)"/>
              <path id="Path_79" data-name="Path 79" class="cls-4" d="M517.861,65.271A1.834,1.834,0,0,1,516,63.41v-5.35a1.834,1.834,0,0,1,1.861-1.861,1.712,1.712,0,0,1,1.861,1.861v5.35C519.489,64.573,518.791,65.271,517.861,65.271Z" transform="translate(-516 -56.2)"/>
            </g>
            <g id="Group_87" data-name="Group 87" transform="translate(8.838)">
              <line id="Line_58" data-name="Line 58" class="cls-5" y2="5.582" transform="translate(1.861 1.861)"/>
              <path id="Path_80" data-name="Path 80" class="cls-4" d="M521.661,65.271A1.834,1.834,0,0,1,519.8,63.41v-5.35a1.834,1.834,0,0,1,1.861-1.861,1.712,1.712,0,0,1,1.861,1.861v5.35C523.289,64.573,522.591,65.271,521.661,65.271Z" transform="translate(-519.8 -56.2)"/>
            </g>
            <g id="Group_88" data-name="Group 88" transform="translate(17.677)">
              <line id="Line_59" data-name="Line 59" class="cls-5" y2="5.582" transform="translate(1.861 1.861)"/>
              <path id="Path_81" data-name="Path 81" class="cls-4" d="M525.461,65.271A1.835,1.835,0,0,1,523.6,63.41v-5.35a1.835,1.835,0,0,1,1.861-1.861,1.712,1.712,0,0,1,1.861,1.861v5.35C527.089,64.573,526.391,65.271,525.461,65.271Z" transform="translate(-523.6 -56.2)"/>
            </g>
          </g>
          <g id="Group_93" data-name="Group 93" transform="translate(8.373 120.481)">
            <g id="Group_90" data-name="Group 90">
              <line id="Line_60" data-name="Line 60" class="cls-5" y2="5.582" transform="translate(1.861 1.861)"/>
              <path id="Path_82" data-name="Path 82" class="cls-4" d="M517.861,71.771A1.834,1.834,0,0,1,516,69.91v-5.35a1.834,1.834,0,0,1,1.861-1.861,1.712,1.712,0,0,1,1.861,1.861v5.35C519.489,71.073,518.791,71.771,517.861,71.771Z" transform="translate(-516 -62.7)"/>
            </g>
            <g id="Group_91" data-name="Group 91" transform="translate(8.838)">
              <line id="Line_61" data-name="Line 61" class="cls-5" y2="5.582" transform="translate(1.861 1.861)"/>
              <path id="Path_83" data-name="Path 83" class="cls-4" d="M521.661,71.771A1.834,1.834,0,0,1,519.8,69.91v-5.35a1.834,1.834,0,0,1,1.861-1.861,1.712,1.712,0,0,1,1.861,1.861v5.35C523.289,71.073,522.591,71.771,521.661,71.771Z" transform="translate(-519.8 -62.7)"/>
            </g>
            <g id="Group_92" data-name="Group 92" transform="translate(17.677)">
              <line id="Line_62" data-name="Line 62" class="cls-5" y2="5.582" transform="translate(1.861 1.861)"/>
              <path id="Path_84" data-name="Path 84" class="cls-4" d="M525.461,71.771A1.835,1.835,0,0,1,523.6,69.91v-5.35a1.835,1.835,0,0,1,1.861-1.861,1.712,1.712,0,0,1,1.861,1.861v5.35C527.089,71.073,526.391,71.771,525.461,71.771Z" transform="translate(-523.6 -62.7)"/>
            </g>
          </g>
          <g id="Group_97" data-name="Group 97" transform="translate(8.373 60.24)">
            <g id="Group_94" data-name="Group 94">
              <line id="Line_63" data-name="Line 63" class="cls-5" y2="5.582" transform="translate(1.861 1.861)"/>
              <path id="Path_85" data-name="Path 85" class="cls-4" d="M517.861,45.871A1.834,1.834,0,0,1,516,44.01v-5.35a1.834,1.834,0,0,1,1.861-1.861,1.712,1.712,0,0,1,1.861,1.861v5.582A1.973,1.973,0,0,1,517.861,45.871Z" transform="translate(-516 -36.8)"/>
            </g>
            <g id="Group_95" data-name="Group 95" transform="translate(8.838)">
              <line id="Line_64" data-name="Line 64" class="cls-5" y2="5.582" transform="translate(1.861 1.861)"/>
              <path id="Path_86" data-name="Path 86" class="cls-4" d="M521.661,45.871A1.834,1.834,0,0,1,519.8,44.01v-5.35a1.834,1.834,0,0,1,1.861-1.861,1.712,1.712,0,0,1,1.861,1.861v5.582A1.973,1.973,0,0,1,521.661,45.871Z" transform="translate(-519.8 -36.8)"/>
            </g>
            <g id="Group_96" data-name="Group 96" transform="translate(17.677)">
              <line id="Line_65" data-name="Line 65" class="cls-5" y2="5.582" transform="translate(1.861 1.861)"/>
              <path id="Path_87" data-name="Path 87" class="cls-4" d="M525.461,45.871A1.835,1.835,0,0,1,523.6,44.01v-5.35a1.835,1.835,0,0,1,1.861-1.861,1.712,1.712,0,0,1,1.861,1.861v5.582A1.974,1.974,0,0,1,525.461,45.871Z" transform="translate(-523.6 -36.8)"/>
            </g>
          </g>
          <g id="Group_101" data-name="Group 101" transform="translate(8.373 75.359)">
            <g id="Group_98" data-name="Group 98">
              <line id="Line_66" data-name="Line 66" class="cls-5" y2="5.35" transform="translate(1.861 1.861)"/>
              <path id="Path_88" data-name="Path 88" class="cls-4" d="M517.861,52.371A1.834,1.834,0,0,1,516,50.51v-5.35a1.834,1.834,0,0,1,1.861-1.861,1.712,1.712,0,0,1,1.861,1.861v5.35C519.489,51.673,518.791,52.371,517.861,52.371Z" transform="translate(-516 -43.3)"/>
            </g>
            <g id="Group_99" data-name="Group 99" transform="translate(8.838)">
              <line id="Line_67" data-name="Line 67" class="cls-5" y2="5.35" transform="translate(1.861 1.861)"/>
              <path id="Path_89" data-name="Path 89" class="cls-4" d="M521.661,52.371A1.834,1.834,0,0,1,519.8,50.51v-5.35a1.834,1.834,0,0,1,1.861-1.861,1.712,1.712,0,0,1,1.861,1.861v5.35C523.289,51.673,522.591,52.371,521.661,52.371Z" transform="translate(-519.8 -43.3)"/>
            </g>
            <g id="Group_100" data-name="Group 100" transform="translate(17.677)">
              <line id="Line_68" data-name="Line 68" class="cls-5" y2="5.35" transform="translate(1.861 1.861)"/>
              <path id="Path_90" data-name="Path 90" class="cls-4" d="M525.461,52.371A1.835,1.835,0,0,1,523.6,50.51v-5.35a1.835,1.835,0,0,1,1.861-1.861,1.712,1.712,0,0,1,1.861,1.861v5.35C527.089,51.673,526.391,52.371,525.461,52.371Z" transform="translate(-523.6 -43.3)"/>
            </g>
          </g>
          <g id="Group_105" data-name="Group 105" transform="translate(8.373 135.599)">
            <g id="Group_102" data-name="Group 102">
              <line id="Line_69" data-name="Line 69" class="cls-5" y2="5.582" transform="translate(1.861 1.861)"/>
              <path id="Path_91" data-name="Path 91" class="cls-4" d="M517.861,78.271A1.834,1.834,0,0,1,516,76.41v-5.35a1.834,1.834,0,0,1,1.861-1.861,1.712,1.712,0,0,1,1.861,1.861v5.35C519.489,77.573,518.791,78.271,517.861,78.271Z" transform="translate(-516 -69.2)"/>
            </g>
            <g id="Group_103" data-name="Group 103" transform="translate(8.838)">
              <line id="Line_70" data-name="Line 70" class="cls-5" y2="5.582" transform="translate(1.861 1.861)"/>
              <path id="Path_92" data-name="Path 92" class="cls-4" d="M521.661,78.271A1.834,1.834,0,0,1,519.8,76.41v-5.35a1.834,1.834,0,0,1,1.861-1.861,1.712,1.712,0,0,1,1.861,1.861v5.35C523.289,77.573,522.591,78.271,521.661,78.271Z" transform="translate(-519.8 -69.2)"/>
            </g>
            <g id="Group_104" data-name="Group 104" transform="translate(17.677)">
              <line id="Line_71" data-name="Line 71" class="cls-5" y2="5.582" transform="translate(1.861 1.861)"/>
              <path id="Path_93" data-name="Path 93" class="cls-4" d="M525.461,78.271A1.835,1.835,0,0,1,523.6,76.41v-5.35a1.835,1.835,0,0,1,1.861-1.861,1.712,1.712,0,0,1,1.861,1.861v5.35C527.089,77.573,526.391,78.271,525.461,78.271Z" transform="translate(-523.6 -69.2)"/>
            </g>
          </g>
          <g id="Group_109" data-name="Group 109" transform="translate(68.846 99.548)">
            <g id="Group_106" data-name="Group 106">
              <line id="Line_72" data-name="Line 72" class="cls-5" y2="16.979" transform="translate(1.861 2.093)"/>
              <path id="Path_94" data-name="Path 94" class="cls-4" d="M543.861,74.4A1.835,1.835,0,0,1,542,72.54V55.561a1.835,1.835,0,0,1,1.861-1.861,1.712,1.712,0,0,1,1.861,1.861V72.54C545.489,73.7,544.791,74.4,543.861,74.4Z" transform="translate(-542 -53.7)"/>
            </g>
            <g id="Group_107" data-name="Group 107" transform="translate(8.606)">
              <line id="Line_73" data-name="Line 73" class="cls-5" y2="16.979" transform="translate(1.861 2.093)"/>
              <path id="Path_95" data-name="Path 95" class="cls-4" d="M547.561,74.4A1.834,1.834,0,0,1,545.7,72.54V55.561a1.835,1.835,0,0,1,1.861-1.861,1.712,1.712,0,0,1,1.861,1.861V72.54A1.712,1.712,0,0,1,547.561,74.4Z" transform="translate(-545.7 -53.7)"/>
            </g>
            <g id="Group_108" data-name="Group 108" transform="translate(17.444)">
              <line id="Line_74" data-name="Line 74" class="cls-5" y2="16.979" transform="translate(1.861 2.093)"/>
              <path id="Path_96" data-name="Path 96" class="cls-4" d="M551.361,74.4A1.834,1.834,0,0,1,549.5,72.54V55.561a1.834,1.834,0,0,1,1.861-1.861,1.712,1.712,0,0,1,1.861,1.861V72.54A1.834,1.834,0,0,1,551.361,74.4Z" transform="translate(-549.5 -53.7)"/>
            </g>
          </g>
          <g id="Group_113" data-name="Group 113" transform="translate(68.846 126.295)">
            <g id="Group_110" data-name="Group 110">
              <line id="Line_75" data-name="Line 75" class="cls-5" y2="16.979" transform="translate(1.861 1.861)"/>
              <path id="Path_97" data-name="Path 97" class="cls-4" d="M543.861,85.668A1.835,1.835,0,0,1,542,83.807V67.061a1.835,1.835,0,0,1,1.861-1.861,1.712,1.712,0,0,1,1.861,1.861V84.04A1.974,1.974,0,0,1,543.861,85.668Z" transform="translate(-542 -65.2)"/>
            </g>
            <g id="Group_111" data-name="Group 111" transform="translate(8.606)">
              <line id="Line_76" data-name="Line 76" class="cls-5" y2="16.979" transform="translate(1.861 1.861)"/>
              <path id="Path_98" data-name="Path 98" class="cls-4" d="M547.561,85.668a1.834,1.834,0,0,1-1.861-1.861V67.061a1.835,1.835,0,0,1,1.861-1.861,1.712,1.712,0,0,1,1.861,1.861V84.04A1.659,1.659,0,0,1,547.561,85.668Z" transform="translate(-545.7 -65.2)"/>
            </g>
            <g id="Group_112" data-name="Group 112" transform="translate(17.444)">
              <line id="Line_77" data-name="Line 77" class="cls-5" y2="16.979" transform="translate(1.861 1.861)"/>
              <path id="Path_99" data-name="Path 99" class="cls-4" d="M551.361,85.668a1.834,1.834,0,0,1-1.861-1.861V67.061a1.834,1.834,0,0,1,1.861-1.861,1.712,1.712,0,0,1,1.861,1.861V84.04A1.8,1.8,0,0,1,551.361,85.668Z" transform="translate(-549.5 -65.2)"/>
            </g>
          </g>
        </g>
        <g id="Group_126" data-name="Group 126" transform="translate(239.26 3567.235)">
          <g id="Group_115" data-name="Group 115" transform="translate(1.769 20.803)">
            <path id="Path_100" data-name="Path 100" class="cls-5" d="M501.666,84.629,491.2,56.021s2.791-2.326,10.932-1.4,19.3,8.838,19.3,8.838l2.559,25.817Z" transform="translate(-489.481 -52.634)"/>
            <path id="Path_101" data-name="Path 101" class="cls-4" d="M525.208,91.919h-.465l-22.328-4.652c-.7-.233-1.163-.465-1.4-1.163L490.552,57.5a1.809,1.809,0,0,1,.465-1.861c.233-.233,3.489-2.558,12.327-1.861,8.606.93,19.77,8.606,20.235,9.071a1.279,1.279,0,0,1,.7,1.163l2.558,25.817a2.494,2.494,0,0,1-.465,1.4C525.905,91.686,525.673,91.919,525.208,91.919Zm-21.165-7.908,19.072,3.954-2.326-22.794c-2.559-1.628-11.4-7.443-17.909-7.908-4.652-.465-7.21,0-8.606.465Z" transform="translate(-490.461 -53.644)"/>
          </g>
          <g id="Group_116" data-name="Group 116" transform="translate(74.428 20.726)">
            <path id="Path_102" data-name="Path 102" class="cls-5" d="M525.656,54.618a126.028,126.028,0,0,1,13.955,0,50.654,50.654,0,0,1,10.7,2.093l-9.536,33.027H522.4Z" transform="translate(-520.772 -52.55)"/>
            <path id="Path_103" data-name="Path 103" class="cls-4" d="M541.935,92.427H523.561a3.3,3.3,0,0,1-1.4-.465,3.308,3.308,0,0,1-.465-1.4l3.256-35.121a1.59,1.59,0,0,1,1.628-1.628,135.489,135.489,0,0,1,14.421,0,59.886,59.886,0,0,1,11.164,2.093A1.664,1.664,0,0,1,553.332,58L543.8,91.032A2.181,2.181,0,0,1,541.935,92.427Zm-16.514-3.489H540.54l8.606-30a82.953,82.953,0,0,0-8.606-1.628,72.013,72.013,0,0,0-12.327,0Z" transform="translate(-521.7 -53.611)"/>
          </g>
          <g id="Group_117" data-name="Group 117" transform="translate(31.399)">
            <path id="Path_104" data-name="Path 104" class="cls-5" d="M504,81.684V69.357s7.908-13.025,16.514-18.142c8.373-5.117,14.653-5.815,14.653-5.815s7.21,13.258,11.862,18.374A81.977,81.977,0,0,0,557.5,72.845l-7.908,22.561" transform="translate(-502.139 -43.772)"/>
            <path id="Path_105" data-name="Path 105" class="cls-4" d="M550.648,98.2h-.465a1.919,1.919,0,0,1-1.163-2.326l7.443-21.4a61.572,61.572,0,0,1-9.536-8.373c-4.187-4.419-9.769-14.42-11.63-17.677a44.694,44.694,0,0,0-12.792,5.35c-7.21,4.419-14.188,14.886-15.583,17.212V82.612a1.834,1.834,0,0,1-1.861,1.861,1.712,1.712,0,0,1-1.861-1.861V70.285a1.4,1.4,0,0,1,.233-.93c.233-.465,8.373-13.49,16.979-18.607S535.53,44.7,535.762,44.7a2.115,2.115,0,0,1,1.861.93c0,.233,7.21,13.258,11.629,18.142,4.652,4.884,10,8.606,10,8.838a1.766,1.766,0,0,1,.7,2.093l-7.908,22.561C552.043,97.73,551.346,98.2,550.648,98.2Z" transform="translate(-503.2 -44.7)"/>
          </g>
          <g id="Group_118" data-name="Group 118" transform="translate(56.474 1.118)">
            <line id="Line_78" data-name="Line 78" class="cls-5" x1="5.117" y2="39.54" transform="translate(1.673 1.673)"/>
            <path id="Path_106" data-name="Path 106" class="cls-4" d="M515.654,88.022h0c-1.163-.233-1.861-.93-1.628-1.861l5.117-39.54c.233-.93.93-1.628,1.861-1.4s1.628.93,1.4,1.861l-5.117,39.54C517.282,87.557,516.584,88.022,515.654,88.022Z" transform="translate(-513.981 -45.181)"/>
          </g>
          <g id="Group_119" data-name="Group 119" transform="translate(84.43 46.518)">
            <path id="Path_107" data-name="Path 107" class="cls-5" d="M527,76.1V67.028L548.4,65.4l-2.791,11.629" transform="translate(-524.674 -63.772)"/>
            <path id="Path_108" data-name="Path 108" class="cls-4" d="M546.933,79.818h-.465a1.811,1.811,0,0,1-1.4-2.093l2.093-9.3-17.444,1.163v7.443a1.834,1.834,0,0,1-1.861,1.861A1.712,1.712,0,0,1,526,77.027V67.956a1.59,1.59,0,0,1,1.628-1.628l21.4-1.628a1.657,1.657,0,0,1,1.4.7,1.962,1.962,0,0,1,.465,1.628l-2.558,11.629C548.561,79.12,547.863,79.818,546.933,79.818Z" transform="translate(-526 -64.7)"/>
          </g>
          <g id="Group_120" data-name="Group 120" transform="translate(18.84 56.984)">
            <path id="Path_109" data-name="Path 109" class="cls-5" d="M498.7,86.281V70h87.221V86.281" transform="translate(-496.607 -68.139)"/>
            <path id="Path_110" data-name="Path 110" class="cls-4" d="M587.114,88.97a1.834,1.834,0,0,1-1.861-1.861V72.689H501.521V87.342a1.835,1.835,0,0,1-1.861,1.861,1.712,1.712,0,0,1-1.861-1.861V71.061a1.835,1.835,0,0,1,1.861-1.861h87.221a1.59,1.59,0,0,1,1.628,1.628V87.342A1.309,1.309,0,0,1,587.114,88.97Z" transform="translate(-497.8 -69.2)"/>
          </g>
          <g id="Group_121" data-name="Group 121" transform="translate(86.29 55.589)">
            <path id="Path_111" data-name="Path 111" class="cls-5" d="M528.33,81.627h23.026L547.868,69.3H527.4Z" transform="translate(-526.004 -67.672)"/>
            <path id="Path_112" data-name="Path 112" class="cls-4" d="M552.152,84.416H529.126a1.59,1.59,0,0,1-1.628-1.628l-.7-12.327a3.3,3.3,0,0,1,.465-1.4c.232-.465.7-.465,1.163-.465h20.235a1.749,1.749,0,0,1,1.628,1.163L553.78,82.09a2.043,2.043,0,0,1-.233,1.628C553.082,83.951,552.617,84.416,552.152,84.416Zm-21.4-3.489h19.072l-2.558-8.838H530.056Z" transform="translate(-526.8 -68.6)"/>
          </g>
          <g id="Group_122" data-name="Group 122" transform="translate(1.628 47.215)">
            <path id="Path_113" data-name="Path 113" class="cls-5" d="M496.682,85.337s.233-8.141,0-10.466-5.582-5.582-5.582-5.582,2.559-3.489,9.536-3.489,13.49,4.884,13.49,4.884V79.29" transform="translate(-489.472 -63.939)"/>
            <path id="Path_114" data-name="Path 114" class="cls-4" d="M497.61,88.259h0a2,2,0,0,1-1.861-1.861c0-2.326.233-8.373,0-10.234,0-.7-2.326-2.791-4.652-4.419a1.279,1.279,0,0,1-.7-1.163,2.949,2.949,0,0,1,.233-1.4c.233-.233,3.256-4.187,10.932-4.187,7.443,0,14.188,5.117,14.421,5.35a1.658,1.658,0,0,1,.7,1.4v8.606a1.835,1.835,0,0,1-1.861,1.861,1.712,1.712,0,0,1-1.861-1.861V72.675c-1.861-1.163-6.745-4.187-11.629-4.187a14.162,14.162,0,0,0-6.745,1.628c1.861,1.4,4.187,3.489,4.419,5.582.233,2.326,0,10.234,0,10.7C499.471,87.328,498.773,88.259,497.61,88.259Z" transform="translate(-490.4 -65)"/>
          </g>
          <g id="Group_123" data-name="Group 123" transform="translate(0 53.495)">
            <path id="Path_115" data-name="Path 115" class="cls-5" d="M495.982,88.137s.233-8.141,0-10.466-5.582-5.582-5.582-5.582,2.559-3.489,9.536-3.489,13.49,4.884,13.49,4.884V88.137" transform="translate(-488.772 -66.507)"/>
            <path id="Path_116" data-name="Path 116" class="cls-4" d="M496.91,90.959h0a2,2,0,0,1-1.861-1.861c0-2.326.233-8.373,0-10.234,0-.7-2.326-2.791-4.652-4.419a1.279,1.279,0,0,1-.7-1.163,2.949,2.949,0,0,1,.233-1.4c.233-.233,3.256-4.187,10.932-4.187,7.443,0,14.188,5.117,14.421,5.35a1.658,1.658,0,0,1,.7,1.4V89.1a1.834,1.834,0,0,1-1.861,1.861,1.712,1.712,0,0,1-1.861-1.861V75.375c-1.861-1.163-6.745-4.187-11.629-4.187a14.163,14.163,0,0,0-6.745,1.628c1.861,1.4,4.187,3.489,4.419,5.582.233,2.326,0,10.234,0,10.7C498.771,90.261,497.841,90.959,496.91,90.959Z" transform="translate(-489.7 -67.7)"/>
          </g>
          <g id="Group_124" data-name="Group 124" transform="translate(61.868 57.217)">
            <path id="Path_117" data-name="Path 117" class="cls-5" d="M517.1,86.281V70h24.887V86.281" transform="translate(-515.24 -68.372)"/>
            <path id="Path_118" data-name="Path 118" class="cls-4" d="M543.047,88.837a1.834,1.834,0,0,1-1.861-1.861V72.556H520.021v14.42a1.835,1.835,0,0,1-1.861,1.861,1.712,1.712,0,0,1-1.861-1.861V70.928a1.59,1.59,0,0,1,1.628-1.628h24.654a1.834,1.834,0,0,1,1.861,1.861V87.209A1.309,1.309,0,0,1,543.047,88.837Z" transform="translate(-516.3 -69.3)"/>
          </g>
          <g id="Group_125" data-name="Group 125" transform="translate(23.724 36.051)">
            <path id="Path_119" data-name="Path 119" class="cls-5" d="M503.391,61c.233.465-2.791,27.445-2.791,27.445a186.005,186.005,0,0,1,39.075.93A36.784,36.784,0,0,1,551.3,93.1l6.28-16.049S544.559,68.21,532,65.187C519.672,61.7,503.391,61,503.391,61Z" transform="translate(-498.972 -59.139)"/>
            <path id="Path_120" data-name="Path 120" class="cls-4" d="M552.232,95.786a.854.854,0,0,1-.7-.233,40.138,40.138,0,0,0-11.164-3.489,182.291,182.291,0,0,0-38.61-.93,2.494,2.494,0,0,1-1.4-.465,1.709,1.709,0,0,1-.465-1.4c1.163-10.234,2.791-25.585,2.791-27.213,0-.465,0-.93.465-1.163a1.658,1.658,0,0,1,1.4-.7c.7,0,16.514.93,29.073,4.187s25.585,11.862,26.05,12.327a1.876,1.876,0,0,1,.7,2.093l-6.28,16.049c-.232.465-.465.93-.93.93ZM516.414,87.18a200.548,200.548,0,0,1,24.422,1.628A38.042,38.042,0,0,1,551.3,91.832l5.117-13.025c-3.489-2.093-13.955-8.373-23.724-10.932s-22.1-3.489-26.515-3.954c-.233,2.791-.93,9.071-2.558,23.724C505.947,87.413,510.6,87.18,516.414,87.18Z" transform="translate(-499.9 -60.2)"/>
          </g>
        </g>
        <g id="Group_128" data-name="Group 128" transform="translate(-899.724 3642.361)">
          <g id="Group_127" data-name="Group 127" transform="translate(899.724)">
            <line id="Line_79" data-name="Line 79" class="cls-5" x2="390.6" transform="translate(0.852 30.011)"/>
            <path id="Path_121" data-name="Path 121" class="cls-4" d="M391.451,134.879H.852c-.487,0-.852-12.862-.852-30.011S.365,77,.852,77H391.391c.487,0,.852,12.862.852,30.011S391.877,134.879,391.451,134.879Z" transform="translate(0 -77)"/>
          </g>
        </g>
        <path id="Path_122" data-name="Path 122" class="cls-4" d="M436.881,116.185h3.489V60.6h0c.233.233.465.233.93.465.233.233.7.465.93.7s.7.465.93.7.7.465.93.93c.465.233.7.7.93.93l.93.93,1.628,1.628.7.7c.233.233.465.465.465.7a4011.077,4011.077,0,0,1,.465.465v.233l.233.233c.233,0,.465,0,.465-.233V67.109c0-.465-.233-.7-.233-1.163-.233-.465-.233-.93-.465-1.4l-.7-1.4a7.271,7.271,0,0,0-2.093-2.558c-.465-.465-.93-.7-1.4-1.163-.465-.233-.93-.7-1.4-.93s-.7-.465-1.163-.465h.7a14.2,14.2,0,0,1,3.024.7A34.2,34.2,0,0,1,452,60.6c.465.233.7.233,1.163.465.233.233.7.233.7.465a6686.795,6686.795,0,0,0,.465.465.228.228,0,0,1,.233.233h.465c.233,0,.465-.233.233-.465v-.465a.72.72,0,0,0-.233-.465c-.233-.233-.233-.465-.465-.93-.233-.233-.465-.7-.93-.93a24.722,24.722,0,0,0-2.558-2.093,16.036,16.036,0,0,0-3.489-1.628c-.7-.233-1.163-.233-1.861-.465-.7,0-1.4-.233-1.861-.233h-1.628c.465-.233.7-.465,1.163-.465.465-.233.7-.465,1.163-.465a3.93,3.93,0,0,1,1.163-.465c.465-.233.93-.233,1.163-.465.93-.233,1.628-.465,2.326-.7.233,0,.7-.233.93-.233s.465-.233.7-.233h.7a.228.228,0,0,0,.233-.233.436.436,0,0,0,0-.7l-.233-.233a.812.812,0,0,0-.465-.233c-.233-.233-.465-.233-.93-.465a1.743,1.743,0,0,0-1.163-.233c-.465,0-.93-.233-1.4-.233h-1.628a16.3,16.3,0,0,0-3.256.7c-.465.233-1.163.465-1.628.7a4.866,4.866,0,0,0-1.4.93,2.8,2.8,0,0,0-1.163,1.163,4.083,4.083,0,0,0-.93,1.163c-.233.233-.233.465-.465.7,0-.233-.233-.233-.465-.465-.233-.465-.7-.7-.93-.93a14.118,14.118,0,0,0-2.326-1.628,3.306,3.306,0,0,0-1.4-.465,2.95,2.95,0,0,0-1.4-.233c-.465,0-.93-.233-1.4-.233h-1.163c-.465,0-.7,0-.93.233-.233,0-.465.233-.7.233a.812.812,0,0,0-.465.233h-.233l-.233.233c0,.233,0,.465.233.465h.7c.233,0,.465.233.7.233s.465.233.7.233a27.767,27.767,0,0,1,3.721,1.861c.233.233.465.233.7.465h-.93c-.7,0-1.163.233-1.861.233-.7.233-1.163.233-1.861.465-.465.233-1.163.465-1.628.7a5.83,5.83,0,0,0-1.628.93A10.478,10.478,0,0,0,422,59.2c-.233.233-.465.7-.7.93a1.763,1.763,0,0,0-.465.93.854.854,0,0,0-.233.7v.7a.854.854,0,0,0,.7.233h.233a.812.812,0,0,1,.465-.233c.233,0,.465-.233.7-.465s.7-.233.93-.465a28.711,28.711,0,0,1,5.349-1.861c.93-.233,1.861-.465,2.558-.7-.233.233-.465.233-.465.465-.465.465-.93.7-1.4,1.163a6.166,6.166,0,0,0-1.163,1.4,21.233,21.233,0,0,0-1.861,3.024c-.233.465-.465,1.163-.7,1.628s-.233.93-.465,1.4a10.073,10.073,0,0,1-.233,1.163v1.861c0,.233,0,.233.233.233.233.233.465,0,.7-.233v-.233c0-.233.233-.233.233-.465.233-.465.7-.93,1.163-1.628a12.779,12.779,0,0,1,1.628-2.093c.233-.465.7-.7.93-1.163s.7-.7.93-1.163a17.76,17.76,0,0,1,2.093-2.093,7.623,7.623,0,0,1,1.861-1.4c.233-.233.465-.233.7-.465h0v.7Z" transform="translate(-342.059 3528.501)"/>
        <path id="Path_123" data-name="Path 123" class="cls-4" d="M457.981,116.185h3.489V60.6h0c.233.233.465.233.93.465.233.233.7.465.93.7s.7.465.93.7.7.465.93.93c.465.233.7.7.93.93l.93.93,1.628,1.628.7.7c.233.233.465.465.465.7a1823.606,1823.606,0,0,0,.465.465v.233l.233.233c.233,0,.465,0,.465-.233V67.109c0-.465-.233-.7-.233-1.163-.233-.465-.233-.93-.465-1.4l-.7-1.4a7.27,7.27,0,0,0-2.093-2.558c-.465-.465-.93-.7-1.4-1.163-.465-.233-.93-.7-1.4-.93s-.7-.465-1.163-.465h.7a14.2,14.2,0,0,1,3.024.7A34.2,34.2,0,0,1,473.1,60.6c.465.233.7.233,1.163.465.233.233.7.233.7.465a1823.225,1823.225,0,0,0,.465.465.228.228,0,0,1,.233.233h.465c.233,0,.465-.233.233-.465v-.465a.72.72,0,0,0-.233-.465c-.233-.233-.233-.465-.465-.93-.233-.233-.465-.7-.93-.93a24.724,24.724,0,0,0-2.559-2.093,16.032,16.032,0,0,0-3.489-1.628c-.7-.233-1.163-.233-1.861-.465-.7,0-1.4-.233-1.861-.233h-1.628c.465-.233.7-.465,1.163-.465.465-.233.7-.465,1.163-.465a3.93,3.93,0,0,1,1.163-.465c.465-.233.93-.233,1.163-.465.93-.233,1.628-.465,2.326-.7.233,0,.7-.233.93-.233s.465-.233.7-.233h.7a.228.228,0,0,0,.233-.233.436.436,0,0,0,0-.7l-.233-.233a.812.812,0,0,0-.465-.233c-.233-.233-.465-.233-.93-.465a1.743,1.743,0,0,0-1.163-.233c-.465,0-.93-.233-1.4-.233h-1.628a16.3,16.3,0,0,0-3.256.7c-.465.233-1.163.465-1.628.7a4.865,4.865,0,0,0-1.4.93,2.8,2.8,0,0,0-1.163,1.163,4.083,4.083,0,0,0-.93,1.163c-.233.233-.233.465-.465.7,0-.233-.233-.233-.465-.465-.233-.465-.7-.7-.93-.93a14.115,14.115,0,0,0-2.326-1.628,3.306,3.306,0,0,0-1.4-.465,2.95,2.95,0,0,0-1.4-.233c-.465,0-.93-.233-1.4-.233h-1.163c-.465,0-.7,0-.93.233-.233,0-.465.233-.7.233a.812.812,0,0,0-.465.233h-.233l-.233.233c0,.233,0,.465.233.465h.7c.233,0,.465.233.7.233s.465.233.7.233a27.766,27.766,0,0,1,3.721,1.861c.233.233.465.233.7.465h-.93c-.7,0-1.163.233-1.861.233-.7.233-1.163.233-1.861.465-.465.233-1.163.465-1.628.7a5.829,5.829,0,0,0-1.628.93A10.474,10.474,0,0,0,443.1,59.2c-.233.233-.465.7-.7.93a1.763,1.763,0,0,0-.465.93.854.854,0,0,0-.233.7v.7a.855.855,0,0,0,.7.233h.233a.812.812,0,0,1,.465-.233c.233,0,.465-.233.7-.465s.7-.233.93-.465a28.712,28.712,0,0,1,5.349-1.861c.93-.233,1.861-.465,2.558-.7-.233.233-.465.233-.465.465-.465.465-.93.7-1.4,1.163a6.166,6.166,0,0,0-1.163,1.4,21.233,21.233,0,0,0-1.861,3.024c-.233.465-.465,1.163-.7,1.628s-.233.93-.465,1.4a10.074,10.074,0,0,1-.233,1.163v1.861c0,.233,0,.233.233.233.233.233.465,0,.7-.233v-.233c0-.233.233-.233.233-.465.233-.465.7-.93,1.163-1.628a12.784,12.784,0,0,1,1.628-2.093c.233-.465.7-.7.93-1.163s.7-.7.93-1.163a17.762,17.762,0,0,1,2.093-2.093,7.624,7.624,0,0,1,1.861-1.4c.233-.233.465-.233.7-.465h0v.7Z" transform="translate(-314.083 3528.501)"/>
        <path id="Path_124" data-name="Path 124" class="cls-4" d="M445.881,103.824h3.489V70.8h0c.233.233.465.233.93.465.233.233.7.465.93.7s.7.465.93.7.7.465.93.93c.465.233.7.7.93.93l.93.93,1.628,1.628.7.7c.233.233.465.465.465.7a20054.463,20054.463,0,0,0,.465.465v.233l.233.233c.233,0,.465,0,.465-.233V77.309c0-.465-.233-.7-.233-1.163-.233-.465-.233-.93-.465-1.4l-.7-1.4a7.272,7.272,0,0,0-2.093-2.558c-.465-.465-.93-.7-1.4-1.163-.465-.233-.93-.7-1.4-.93s-.7-.465-1.163-.465h.7a14.2,14.2,0,0,1,3.024.7A34.193,34.193,0,0,1,461,70.8c.465.233.7.233,1.163.465.233.233.7.233.7.465a10027.971,10027.971,0,0,0,.465.465.228.228,0,0,1,.233.233h.465c.233,0,.465-.233.233-.465v-.465a.72.72,0,0,0-.233-.465c-.233-.233-.233-.465-.465-.93-.233-.233-.465-.7-.93-.93a24.731,24.731,0,0,0-2.559-2.093,16.033,16.033,0,0,0-3.489-1.628c-.7-.233-1.163-.233-1.861-.465-.7,0-1.4-.233-1.861-.233h-1.628c.465-.233.7-.465,1.163-.465.465-.233.7-.465,1.163-.465a3.931,3.931,0,0,1,1.163-.465c.465-.233.93-.233,1.163-.465.93-.233,1.628-.465,2.326-.7.233,0,.7-.233.93-.233s.465-.233.7-.233h.7a.228.228,0,0,0,.233-.233.436.436,0,0,0,0-.7l-.233-.233a.812.812,0,0,0-.465-.233c-.233-.233-.465-.233-.93-.465a1.743,1.743,0,0,0-1.163-.233c-.465,0-.93-.233-1.4-.233h-1.628a16.294,16.294,0,0,0-3.256.7c-.465.233-1.163.465-1.628.7a4.866,4.866,0,0,0-1.4.93,2.8,2.8,0,0,0-1.163,1.163,4.082,4.082,0,0,0-.93,1.163c-.233.233-.233.465-.465.7,0-.233-.233-.233-.465-.465-.233-.465-.7-.7-.93-.93a14.121,14.121,0,0,0-2.326-1.628,3.306,3.306,0,0,0-1.4-.465,2.95,2.95,0,0,0-1.4-.233c-.465,0-.93-.233-1.4-.233h-1.163c-.465,0-.7,0-.93.233-.233,0-.465.233-.7.233a.812.812,0,0,0-.465.233h-.233l-.233.233c0,.233,0,.465.233.465h.7c.233,0,.465.233.7.233s.465.233.7.233a27.768,27.768,0,0,1,3.721,1.861c.233.233.465.233.7.465h-.93c-.7,0-1.163.233-1.861.233-.7.233-1.163.233-1.861.465-.465.233-1.163.465-1.628.7a5.829,5.829,0,0,0-1.628.93A10.476,10.476,0,0,0,431,69.4c-.233.233-.465.7-.7.93a1.763,1.763,0,0,0-.465.93.854.854,0,0,0-.233.7v.7a.854.854,0,0,0,.7.233h.233a.812.812,0,0,1,.465-.233c.233,0,.465-.233.7-.465s.7-.233.93-.465a28.711,28.711,0,0,1,5.35-1.861c.93-.233,1.861-.465,2.558-.7-.233.233-.465.233-.465.465-.465.465-.93.7-1.4,1.163a6.168,6.168,0,0,0-1.163,1.4,21.23,21.23,0,0,0-1.861,3.024c-.233.465-.465,1.163-.7,1.628s-.233.93-.465,1.4a10.072,10.072,0,0,1-.233,1.163v1.861c0,.233,0,.233.233.233.233.233.465,0,.7-.233v-.233c0-.233.233-.233.233-.465.233-.465.7-.93,1.163-1.628a12.78,12.78,0,0,1,1.628-2.093c.233-.465.7-.7.93-1.163s.7-.7.93-1.163a17.769,17.769,0,0,1,2.093-2.093,7.624,7.624,0,0,1,1.861-1.4c.233-.233.465-.233.7-.465h0v.7Z" transform="translate(-330.126 3542.025)"/>
      </g>
    </g>
  </g>
</svg>
