<svg xmlns="http://www.w3.org/2000/svg" xmlns:xlink="http://www.w3.org/1999/xlink" viewBox="57 1959 376 142">
  <defs>
    <style>
      .cls-1, .cls-5 {
        fill: #fff;
      }

      .cls-1 {
        stroke: #95989a;
      }

      .cls-2 {
        clip-path: url(#clip-path);
      }

      .cls-3 {
        opacity: 0.2;
      }

      .cls-4 {
        fill: #1d2d47;
      }
    </style>
    <clipPath id="clip-path">
      <rect id="Rectangle_193" data-name="Rectangle 193" class="cls-1" width="376" height="142" transform="translate(-1 2568)"/>
    </clipPath>
  </defs>
  <g id="Mask_Group_40" data-name="Mask Group 40" class="cls-2" transform="translate(58 -609)">
    <g id="Group_780" data-name="Group 780" class="cls-3" transform="translate(17841 8016.544)">
      <path id="Path_859" data-name="Path 859" class="cls-4" d="M22.512,104.646h2.872V58.882h0c.191.191.383.191.766.383.191.191.574.383.766.574s.574.383.766.574.574.383.766.766c.383.191.574.574.766.766l.766.766,1.34,1.34.574.574c.191.191.383.383.383.574a4530.528,4530.528,0,0,0,.383.383v.191l.191.191c.191,0,.383,0,.383-.191V64.244c0-.383-.191-.574-.191-.957-.191-.383-.191-.766-.383-1.149l-.574-1.149a5.985,5.985,0,0,0-1.723-2.106c-.383-.383-.766-.574-1.149-.957-.383-.191-.766-.574-1.149-.766s-.574-.383-.957-.383h.574a11.691,11.691,0,0,1,2.489.574,28.152,28.152,0,0,1,4.787,1.532c.383.191.574.191.957.383.191.191.574.191.574.383a9061.281,9061.281,0,0,0,.383.383.188.188,0,0,1,.191.191h.383c.191,0,.383-.191.191-.383v-.383a.593.593,0,0,0-.191-.383c-.191-.191-.191-.383-.383-.766-.191-.191-.383-.574-.766-.766a20.35,20.35,0,0,0-2.106-1.723,13.2,13.2,0,0,0-2.872-1.34c-.574-.191-.957-.191-1.532-.383-.574,0-1.149-.191-1.532-.191h-1.34c.383-.191.574-.383.957-.383.383-.191.574-.383.957-.383a3.235,3.235,0,0,1,.957-.383c.383-.191.766-.191.957-.383.766-.191,1.34-.383,1.915-.574.191,0,.574-.191.766-.191s.383-.191.574-.191h.574a.188.188,0,0,0,.191-.191.359.359,0,0,0,0-.574l-.191-.191a.669.669,0,0,0-.383-.191c-.191-.191-.383-.191-.766-.383a1.435,1.435,0,0,0-.957-.191c-.383,0-.766-.191-1.149-.191H29.98a13.416,13.416,0,0,0-2.681.574c-.383.191-.957.383-1.34.574a4.005,4.005,0,0,0-1.149.766,2.307,2.307,0,0,0-.957.957,3.362,3.362,0,0,0-.766.957c-.191.191-.191.383-.383.574,0-.191-.191-.191-.383-.383-.191-.383-.574-.574-.766-.766a11.624,11.624,0,0,0-1.915-1.34,2.722,2.722,0,0,0-1.149-.383,2.429,2.429,0,0,0-1.149-.191c-.383,0-.766-.191-1.149-.191h-.957c-.383,0-.574,0-.766.191-.191,0-.383.191-.574.191a.669.669,0,0,0-.383.191h-.191l-.191.191c0,.191,0,.383.191.383H13.9c.191,0,.383.191.574.191s.383.191.574.191a22.859,22.859,0,0,1,3.064,1.532c.191.191.383.191.574.383h-.766c-.574,0-.957.191-1.532.191-.574.191-.957.191-1.532.383-.383.191-.957.383-1.34.574a4.8,4.8,0,0,0-1.34.766,8.624,8.624,0,0,0-1.915,1.723c-.191.191-.383.574-.574.766a1.452,1.452,0,0,0-.383.766c.766.574.766.766.766.766v.574a.7.7,0,0,0,.574.191h.191a.669.669,0,0,1,.383-.191c.191,0,.383-.191.574-.383s.574-.191.766-.383a23.636,23.636,0,0,1,4.4-1.532c.766-.191,1.532-.383,2.106-.574-.191.191-.383.191-.383.383-.383.383-.766.574-1.149.957a5.077,5.077,0,0,0-.957,1.149,17.481,17.481,0,0,0-1.532,2.489c-.574.191-.574.766-.766,1.149s-.191.766-.383,1.149a8.293,8.293,0,0,1-.191.957V67.5c0,.191,0,.191.191.191.191.191.383,0,.574-.191v-.191c0-.191.191-.191.191-.383.191-.383.574-.766.957-1.34a10.523,10.523,0,0,1,1.34-1.723c.191-.383.574-.574.766-.957s.574-.574.766-.957a14.623,14.623,0,0,1,1.723-1.723,6.277,6.277,0,0,1,1.532-1.149c.191-.191.383-.191.574-.383h0v.574Z" transform="translate(-17666.215 -5414.183)"/>
      <path id="Path_860" data-name="Path 860" class="cls-4" d="M63.915,70.207a1.655,1.655,0,0,1-1.149-.574,1.516,1.516,0,0,1,.191-2.106l67.017-51.316a6.158,6.158,0,0,1,8.234.191L170.185,45.89A1.489,1.489,0,0,1,168.079,48L136.293,18.7a3.242,3.242,0,0,0-4.4,0L64.872,70.016A1.726,1.726,0,0,1,63.915,70.207Z" transform="translate(-17617.623 -5445.997)"/>
      <path id="Path_861" data-name="Path 861" class="cls-4" d="M361.954,151.058a1.463,1.463,0,0,1-.957-.383L209.154,4.577a4.077,4.077,0,0,0-5.361,0l-89.42,75.06a1.5,1.5,0,1,1-1.915-2.3l89.42-75.06a6.992,6.992,0,0,1,9.191.191l151.842,146.1a1.5,1.5,0,0,1,0,2.106A1.463,1.463,0,0,1,361.954,151.058Z" transform="translate(-17572.342 -5458.872)"/>
      <path id="Path_862" data-name="Path 862" class="cls-5" d="M227.063,11.383h-2.872a2.7,2.7,0,0,0-2.681,2.106,6.391,6.391,0,0,0-4.787-2.3,6.537,6.537,0,0,0-5.361,3.064A5.894,5.894,0,0,0,206,11.191a5.815,5.815,0,0,0-4.021,1.532c0-.191-.191-.191-.191-.383a3.171,3.171,0,0,0-2.3-.957h-1.34a3.273,3.273,0,0,0-2.489,1.34,2.988,2.988,0,0,0-2.489-1.34h-1.34a3.55,3.55,0,0,0-1.34.383,2.767,2.767,0,0,0-1.34-.383h-1.34a2.429,2.429,0,0,0-1.149.191,2.428,2.428,0,0,0-1.149-.191h-1.34a2.73,2.73,0,0,0-2.3,1.149,2.73,2.73,0,0,0-2.3-1.149h-1.34a2.73,2.73,0,0,0-2.3,1.149,1.452,1.452,0,0,0-.383.766,3.071,3.071,0,0,0-2.681-2.106h-.957a2.945,2.945,0,0,0-2.872,2.872V26.7c-.191,0-.574-.191-.766-.191H167.13V14.064a2.945,2.945,0,0,0-2.872-2.872h-1.34a2.7,2.7,0,0,0-2.681,2.106,6.135,6.135,0,0,0-9.574,0,3.071,3.071,0,0,0-2.681-2.106h-1.34a2.458,2.458,0,0,0-1.915.766,3.4,3.4,0,0,0-1.915-.766h-1.34a2.945,2.945,0,0,0-2.872,2.872V30.722a2.945,2.945,0,0,0,2.872,2.872h1.34a2.458,2.458,0,0,0,1.915-.766,3.4,3.4,0,0,0,1.915.766h1.34a2.7,2.7,0,0,0,2.681-2.106,6.135,6.135,0,0,0,9.574,0,3.071,3.071,0,0,0,2.681,2.106h5.361a3.235,3.235,0,0,0,1.915-.574,3.235,3.235,0,0,0,1.915.574h5.361a2.729,2.729,0,0,0,2.3-1.149,3.338,3.338,0,0,0,2.3,1.149h1.34a2.945,2.945,0,0,0,2.872-2.872V23.638l.766-2.489L188.767,31.3a2.887,2.887,0,0,0,2.872,2.3h1.532a3.542,3.542,0,0,1,2.3,0H197a3.05,3.05,0,0,0,2.872-2.3l.574-3.447a6.009,6.009,0,0,0,6.127,5.936,6.537,6.537,0,0,0,5.361-3.064,5.894,5.894,0,0,0,5.361,3.064,6.391,6.391,0,0,0,4.787-2.3,3.071,3.071,0,0,0,2.681,2.106h2.872a6.375,6.375,0,0,0,6.319-6.319V17.51A7.183,7.183,0,0,0,227.063,11.383ZM175.938,26.7V15.6l2.681,8.042v3.447a2.063,2.063,0,0,0-1.532-.383h-1.149Z" transform="translate(-17547.936 -5449.402)"/>
      <g id="Group_564" data-name="Group 564" transform="translate(-17406.652 -5435.722)">
        <path id="Path_863" data-name="Path 863" class="cls-4" d="M144.978,20.159h-3.064V12.5H140V29.925h1.915V22.074h3.064v7.851h2.106V12.5h-2.106Z" transform="translate(-140 -12.309)"/>
        <path id="Path_864" data-name="Path 864" class="cls-4" d="M149.138,12.4a3.636,3.636,0,0,0-3.638,3.638V26.761a3.638,3.638,0,1,0,7.276,0V16.038A3.636,3.636,0,0,0,149.138,12.4Zm1.532,3.447V26.569a1.532,1.532,0,0,1-3.064,0V15.847a1.532,1.532,0,1,1,3.064,0Z" transform="translate(-134.969 -12.4)"/>
        <path id="Path_865" data-name="Path 865" class="cls-4" d="M153.206,12.5H151.1V29.925h6.127V27.818h-4.021Z" transform="translate(-129.846 -12.309)"/>
        <path id="Path_866" data-name="Path 866" class="cls-4" d="M157.715,12.5H155.8V29.925h5.936V27.818h-4.021Z" transform="translate(-125.546 -12.309)"/>
        <path id="Path_867" data-name="Path 867" class="cls-4" d="M163.412,18.819,161.306,12.5H159.2l3.255,9.382v8.042h1.915V21.882l3.064-9.382h-1.915Z" transform="translate(-122.436 -12.309)"/>
        <path id="Path_868" data-name="Path 868" class="cls-4" d="M172.342,24.755,170.236,12.5H168.13l1.34,6.893-.957,5.361-2.3-12.255H164.3l3.064,17.425h2.106l.957-5.17.957,5.17h2.106L176.555,12.5h-2.106Z" transform="translate(-117.771 -12.309)"/>
        <path id="Path_869" data-name="Path 869" class="cls-4" d="M175.638,12.4A3.636,3.636,0,0,0,172,16.038V26.761a3.638,3.638,0,0,0,7.276,0V16.038A3.763,3.763,0,0,0,175.638,12.4Zm1.532,3.447V26.569a1.532,1.532,0,0,1-3.064,0V15.847a1.51,1.51,0,0,1,1.532-1.532A1.647,1.647,0,0,1,177.17,15.847Z" transform="translate(-110.727 -12.4)"/>
        <path id="Path_870" data-name="Path 870" class="cls-4" d="M181.138,12.4a3.636,3.636,0,0,0-3.638,3.638V26.761a3.638,3.638,0,1,0,7.276,0V16.038A3.763,3.763,0,0,0,181.138,12.4Zm1.532,3.447V26.569a1.532,1.532,0,0,1-3.064,0V15.847a1.51,1.51,0,0,1,1.532-1.532A1.647,1.647,0,0,1,182.67,15.847Z" transform="translate(-105.696 -12.4)"/>
        <path id="Path_871" data-name="Path 871" class="cls-4" d="M186.355,12.5H183.1V29.733h3.255a3.841,3.841,0,0,0,3.83-3.83V16.138A3.806,3.806,0,0,0,186.355,12.5Zm1.915,3.83v9.765a1.716,1.716,0,0,1-1.723,1.723h-1.34v-13.4h1.34A1.889,1.889,0,0,1,188.27,16.33Z" transform="translate(-100.573 -12.309)"/>
      </g>
      <g id="Group_566" data-name="Group 566" transform="translate(-17487.648 -5396.086)">
        <g id="Group_565" data-name="Group 565">
          <path id="Path_872" data-name="Path 872" class="cls-5" d="M130.577,120.157V33.8H98.6v86.357" transform="translate(-96.877 -32.46)"/>
          <path id="Path_873" data-name="Path 873" class="cls-4" d="M131.4,122.137a1.51,1.51,0,0,1-1.532-1.532V35.972h-29.1V120.8a1.51,1.51,0,0,1-1.532,1.532A1.409,1.409,0,0,1,97.7,120.8V34.632A1.51,1.51,0,0,1,99.232,33.1H131.4a1.51,1.51,0,0,1,1.532,1.532V120.8A1.48,1.48,0,0,1,131.4,122.137Z" transform="translate(-97.7 -33.1)"/>
        </g>
      </g>
      <g id="Group_568" data-name="Group 568" transform="translate(-17413.355 -5404.128)">
        <g id="Group_567" data-name="Group 567">
          <path id="Path_874" data-name="Path 874" class="cls-5" d="M180.1,108.781V29.7H137.4v79.081" transform="translate(-135.677 -28.168)"/>
          <path id="Path_875" data-name="Path 875" class="cls-4" d="M180.923,111.044a1.51,1.51,0,0,1-1.532-1.532V31.772H139.564v77.74a1.51,1.51,0,0,1-1.532,1.532,1.409,1.409,0,0,1-1.532-1.532V30.432a1.51,1.51,0,0,1,1.532-1.532h42.7a1.51,1.51,0,0,1,1.532,1.532v79.081A1.357,1.357,0,0,1,180.923,111.044Z" transform="translate(-136.5 -28.9)"/>
        </g>
      </g>
      <g id="Group_570" data-name="Group 570" transform="translate(-17516.371 -5408.34)">
        <g id="Group_569" data-name="Group 569">
          <path id="Path_876" data-name="Path 876" class="cls-5" d="M83.7,123.148V27.791l28.53-.191v96.505" transform="translate(-81.785 -25.877)"/>
          <path id="Path_877" data-name="Path 877" class="cls-4" d="M113.145,126.269a1.51,1.51,0,0,1-1.532-1.532V29.764l-25.85.191V123.78a1.51,1.51,0,0,1-1.532,1.532A1.409,1.409,0,0,1,82.7,123.78V28.615a1.625,1.625,0,0,1,1.34-1.532l28.722-.383h0a1.309,1.309,0,0,1,1.34,1.34v96.888C114.677,125.694,114.1,126.269,113.145,126.269Z" transform="translate(-82.7 -26.7)"/>
        </g>
      </g>
      <g id="Group_625" data-name="Group 625" transform="translate(-17456.055 -5457.934)">
        <g id="Group_571" data-name="Group 571" transform="translate(6.319)">
          <path id="Path_878" data-name="Path 878" class="cls-5" d="M134.859,12.323,135.05,1.6H118.2V12.323" transform="translate(-116.86 -0.068)"/>
          <path id="Path_879" data-name="Path 879" class="cls-4" d="M135.5,14.586h0a1.51,1.51,0,0,1-1.532-1.532V3.864H120.372v9.191a1.366,1.366,0,0,1-1.532,1.34h0a1.366,1.366,0,0,1-1.34-1.532l.191-10.723A1.366,1.366,0,0,1,119.223.8h16.85a1.463,1.463,0,0,1,.957.383,1.463,1.463,0,0,1,.383.957l-.191,10.723A2.021,2.021,0,0,1,135.5,14.586Z" transform="translate(-117.5 -0.8)"/>
        </g>
        <g id="Group_572" data-name="Group 572" transform="translate(3.83 11.872)">
          <path id="Path_880" data-name="Path 880" class="cls-5" d="M138.446,27.805V7.7H117V27.805" transform="translate(-115.468 -6.36)"/>
          <path id="Path_881" data-name="Path 881" class="cls-4" d="M117.732,29.977h0a1.51,1.51,0,0,1-1.532-1.532l.191-20.105A1.366,1.366,0,0,1,117.923,7h21.446a1.463,1.463,0,0,1,.957.383,1.462,1.462,0,0,1,.383.957l-.191,20.105a1.366,1.366,0,0,1-1.532,1.34h0a1.366,1.366,0,0,1-1.34-1.532l.191-18.765H119.264l-.191,18.765A1.547,1.547,0,0,1,117.732,29.977Z" transform="translate(-116.2 -7)"/>
        </g>
        <g id="Group_573" data-name="Group 573" transform="translate(1.723 32.743)">
          <path id="Path_882" data-name="Path 882" class="cls-5" d="M141.275,39.38V18.7H116V39.38" transform="translate(-114.277 -17.168)"/>
          <path id="Path_883" data-name="Path 883" class="cls-4" d="M142.1,41.643a1.51,1.51,0,0,1-1.532-1.532V20.964h-22.4V40.3a1.51,1.51,0,0,1-1.532,1.532A1.409,1.409,0,0,1,115.1,40.3V19.432a1.51,1.51,0,0,1,1.532-1.532h25.275a1.51,1.51,0,0,1,1.532,1.532v20.68A1.48,1.48,0,0,1,142.1,41.643Z" transform="translate(-115.1 -17.9)"/>
        </g>
        <g id="Group_574" data-name="Group 574" transform="translate(0 54.38)">
          <path id="Path_884" data-name="Path 884" class="cls-5" d="M115.1,120.761V30.383L143.822,30v91.527" transform="translate(-113.377 -28.468)"/>
          <path id="Path_885" data-name="Path 885" class="cls-4" d="M144.645,123.6a1.51,1.51,0,0,1-1.532-1.532V32.072l-25.85.574v88.846a1.51,1.51,0,0,1-1.532,1.532,1.409,1.409,0,0,1-1.532-1.532V31.115a1.625,1.625,0,0,1,1.34-1.532l28.722-.383h0a1.309,1.309,0,0,1,1.34,1.34v91.335C145.985,123.024,145.411,123.6,144.645,123.6Z" transform="translate(-114.2 -29.2)"/>
        </g>
        <g id="Group_578" data-name="Group 578" transform="translate(7.851 69.89)">
          <g id="Group_575" data-name="Group 575">
            <line id="Line_227" data-name="Line 227" class="cls-5" y2="2.489" transform="translate(1.532 1.723)"/>
            <path id="Path_886" data-name="Path 886" class="cls-4" d="M119.832,42.853a1.51,1.51,0,0,1-1.532-1.532V38.832a1.51,1.51,0,0,1,1.532-1.532,1.409,1.409,0,0,1,1.532,1.532v2.489A1.409,1.409,0,0,1,119.832,42.853Z" transform="translate(-118.3 -37.3)"/>
          </g>
          <g id="Group_576" data-name="Group 576" transform="translate(6.702)">
            <line id="Line_228" data-name="Line 228" class="cls-5" y2="2.489" transform="translate(1.532 1.723)"/>
            <path id="Path_887" data-name="Path 887" class="cls-4" d="M123.332,42.853a1.51,1.51,0,0,1-1.532-1.532V38.832a1.51,1.51,0,0,1,1.532-1.532,1.409,1.409,0,0,1,1.532,1.532v2.489C124.672,42.278,124.1,42.853,123.332,42.853Z" transform="translate(-121.8 -37.3)"/>
          </g>
          <g id="Group_577" data-name="Group 577" transform="translate(13.212)">
            <line id="Line_229" data-name="Line 229" class="cls-5" y2="2.489" transform="translate(1.532 1.723)"/>
            <path id="Path_888" data-name="Path 888" class="cls-4" d="M126.732,42.853a1.51,1.51,0,0,1-1.532-1.532V38.832a1.51,1.51,0,0,1,1.532-1.532,1.409,1.409,0,0,1,1.532,1.532v2.489A1.409,1.409,0,0,1,126.732,42.853Z" transform="translate(-125.2 -37.3)"/>
          </g>
        </g>
        <g id="Group_582" data-name="Group 582" transform="translate(7.851 76.783)">
          <g id="Group_579" data-name="Group 579">
            <line id="Line_230" data-name="Line 230" class="cls-5" y2="2.489" transform="translate(1.532 1.723)"/>
            <path id="Path_889" data-name="Path 889" class="cls-4" d="M119.832,46.453a1.51,1.51,0,0,1-1.532-1.532V42.432a1.51,1.51,0,0,1,1.532-1.532,1.409,1.409,0,0,1,1.532,1.532v2.489A1.409,1.409,0,0,1,119.832,46.453Z" transform="translate(-118.3 -40.9)"/>
          </g>
          <g id="Group_580" data-name="Group 580" transform="translate(6.702)">
            <line id="Line_231" data-name="Line 231" class="cls-5" y2="2.489" transform="translate(1.532 1.723)"/>
            <path id="Path_890" data-name="Path 890" class="cls-4" d="M123.332,46.453a1.51,1.51,0,0,1-1.532-1.532V42.432a1.51,1.51,0,0,1,1.532-1.532,1.409,1.409,0,0,1,1.532,1.532v2.489C124.672,45.878,124.1,46.453,123.332,46.453Z" transform="translate(-121.8 -40.9)"/>
          </g>
          <g id="Group_581" data-name="Group 581" transform="translate(13.212)">
            <line id="Line_232" data-name="Line 232" class="cls-5" y2="2.489" transform="translate(1.532 1.723)"/>
            <path id="Path_891" data-name="Path 891" class="cls-4" d="M126.732,46.453a1.51,1.51,0,0,1-1.532-1.532V42.432a1.51,1.51,0,0,1,1.532-1.532,1.409,1.409,0,0,1,1.532,1.532v2.489A1.409,1.409,0,0,1,126.732,46.453Z" transform="translate(-125.2 -40.9)"/>
          </g>
        </g>
        <g id="Group_586" data-name="Group 586" transform="translate(7.851 83.868)">
          <g id="Group_583" data-name="Group 583">
            <line id="Line_233" data-name="Line 233" class="cls-5" y2="2.489" transform="translate(1.532 1.532)"/>
            <path id="Path_892" data-name="Path 892" class="cls-4" d="M119.832,50.153a1.51,1.51,0,0,1-1.532-1.532V46.132a1.51,1.51,0,0,1,1.532-1.532,1.409,1.409,0,0,1,1.532,1.532v2.489A1.51,1.51,0,0,1,119.832,50.153Z" transform="translate(-118.3 -44.6)"/>
          </g>
          <g id="Group_584" data-name="Group 584" transform="translate(6.702)">
            <line id="Line_234" data-name="Line 234" class="cls-5" y2="2.489" transform="translate(1.532 1.532)"/>
            <path id="Path_893" data-name="Path 893" class="cls-4" d="M123.332,50.153a1.51,1.51,0,0,1-1.532-1.532V46.132a1.51,1.51,0,0,1,1.532-1.532,1.409,1.409,0,0,1,1.532,1.532v2.489C124.672,49.387,124.1,50.153,123.332,50.153Z" transform="translate(-121.8 -44.6)"/>
          </g>
          <g id="Group_585" data-name="Group 585" transform="translate(13.212)">
            <line id="Line_235" data-name="Line 235" class="cls-5" y2="2.489" transform="translate(1.532 1.532)"/>
            <path id="Path_894" data-name="Path 894" class="cls-4" d="M126.732,50.153a1.51,1.51,0,0,1-1.532-1.532V46.132a1.51,1.51,0,0,1,1.532-1.532,1.409,1.409,0,0,1,1.532,1.532v2.489A1.51,1.51,0,0,1,126.732,50.153Z" transform="translate(-125.2 -44.6)"/>
          </g>
        </g>
        <g id="Group_590" data-name="Group 590" transform="translate(7.851 39.445)">
          <g id="Group_587" data-name="Group 587">
            <line id="Line_236" data-name="Line 236" class="cls-5" x1="0.191" y2="10.531" transform="translate(1.532 1.532)"/>
            <path id="Path_895" data-name="Path 895" class="cls-4" d="M119.832,34.8h0a1.51,1.51,0,0,1-1.532-1.532V22.74a1.366,1.366,0,0,1,1.532-1.34h0a1.366,1.366,0,0,1,1.34,1.532V33.463C121.364,34.229,120.6,34.8,119.832,34.8Z" transform="translate(-118.3 -21.4)"/>
          </g>
          <g id="Group_588" data-name="Group 588" transform="translate(6.702)">
            <line id="Line_237" data-name="Line 237" class="cls-5" y2="10.531" transform="translate(1.532 1.532)"/>
            <path id="Path_896" data-name="Path 896" class="cls-4" d="M123.332,34.8h0a1.51,1.51,0,0,1-1.532-1.532V22.74a1.366,1.366,0,0,1,1.532-1.34h0a1.366,1.366,0,0,1,1.34,1.532V33.463A1.309,1.309,0,0,1,123.332,34.8Z" transform="translate(-121.8 -21.4)"/>
          </g>
          <g id="Group_589" data-name="Group 589" transform="translate(13.212)">
            <line id="Line_238" data-name="Line 238" class="cls-5" y2="10.531" transform="translate(1.532 1.532)"/>
            <path id="Path_897" data-name="Path 897" class="cls-4" d="M126.732,34.8h0a1.51,1.51,0,0,1-1.532-1.532V22.74a1.366,1.366,0,0,1,1.532-1.34h0a1.366,1.366,0,0,1,1.34,1.532V33.463C128.264,34.229,127.5,34.8,126.732,34.8Z" transform="translate(-125.2 -21.4)"/>
          </g>
        </g>
        <g id="Group_594" data-name="Group 594" transform="translate(7.851 62.996)">
          <g id="Group_591" data-name="Group 591">
            <line id="Line_239" data-name="Line 239" class="cls-5" y2="2.489" transform="translate(1.532 1.723)"/>
            <path id="Path_898" data-name="Path 898" class="cls-4" d="M119.832,39.253a1.51,1.51,0,0,1-1.532-1.532V35.232a1.51,1.51,0,0,1,1.532-1.532,1.409,1.409,0,0,1,1.532,1.532v2.489A1.409,1.409,0,0,1,119.832,39.253Z" transform="translate(-118.3 -33.7)"/>
          </g>
          <g id="Group_592" data-name="Group 592" transform="translate(6.702)">
            <line id="Line_240" data-name="Line 240" class="cls-5" y2="2.489" transform="translate(1.532 1.723)"/>
            <path id="Path_899" data-name="Path 899" class="cls-4" d="M123.332,39.253a1.51,1.51,0,0,1-1.532-1.532V35.232a1.51,1.51,0,0,1,1.532-1.532,1.409,1.409,0,0,1,1.532,1.532v2.489C124.672,38.678,124.1,39.253,123.332,39.253Z" transform="translate(-121.8 -33.7)"/>
          </g>
          <g id="Group_593" data-name="Group 593" transform="translate(13.212)">
            <line id="Line_241" data-name="Line 241" class="cls-5" y2="2.489" transform="translate(1.532 1.723)"/>
            <path id="Path_900" data-name="Path 900" class="cls-4" d="M126.732,39.253a1.51,1.51,0,0,1-1.532-1.532V35.232a1.51,1.51,0,0,1,1.532-1.532,1.409,1.409,0,0,1,1.532,1.532v2.489A1.409,1.409,0,0,1,126.732,39.253Z" transform="translate(-125.2 -33.7)"/>
          </g>
        </g>
        <g id="Group_597" data-name="Group 597" transform="translate(11.297 17.616)">
          <g id="Group_595" data-name="Group 595">
            <line id="Line_242" data-name="Line 242" class="cls-5" y2="2.489" transform="translate(1.532 1.723)"/>
            <path id="Path_901" data-name="Path 901" class="cls-4" d="M121.632,15.553a1.51,1.51,0,0,1-1.532-1.532V11.532A1.51,1.51,0,0,1,121.632,10a1.409,1.409,0,0,1,1.532,1.532v2.489C122.972,14.978,122.4,15.553,121.632,15.553Z" transform="translate(-120.1 -10)"/>
          </g>
          <g id="Group_596" data-name="Group 596" transform="translate(6.51)">
            <line id="Line_243" data-name="Line 243" class="cls-5" y2="2.489" transform="translate(1.532 1.723)"/>
            <path id="Path_902" data-name="Path 902" class="cls-4" d="M125.032,15.553a1.51,1.51,0,0,1-1.532-1.532V11.532A1.51,1.51,0,0,1,125.032,10a1.409,1.409,0,0,1,1.532,1.532v2.489A1.51,1.51,0,0,1,125.032,15.553Z" transform="translate(-123.5 -10)"/>
          </g>
        </g>
        <g id="Group_600" data-name="Group 600" transform="translate(11.297 24.509)">
          <g id="Group_598" data-name="Group 598">
            <line id="Line_244" data-name="Line 244" class="cls-5" y2="2.489" transform="translate(1.532 1.723)"/>
            <path id="Path_903" data-name="Path 903" class="cls-4" d="M121.632,19.153a1.51,1.51,0,0,1-1.532-1.532V15.132a1.51,1.51,0,0,1,1.532-1.532,1.409,1.409,0,0,1,1.532,1.532v2.489C122.972,18.578,122.4,19.153,121.632,19.153Z" transform="translate(-120.1 -13.6)"/>
          </g>
          <g id="Group_599" data-name="Group 599" transform="translate(6.51)">
            <line id="Line_245" data-name="Line 245" class="cls-5" y2="2.489" transform="translate(1.532 1.723)"/>
            <path id="Path_904" data-name="Path 904" class="cls-4" d="M125.032,19.153a1.51,1.51,0,0,1-1.532-1.532V15.132a1.51,1.51,0,0,1,1.532-1.532,1.409,1.409,0,0,1,1.532,1.532v2.489A1.51,1.51,0,0,1,125.032,19.153Z" transform="translate(-123.5 -13.6)"/>
          </g>
        </g>
        <g id="Group_604" data-name="Group 604" transform="translate(7.851 90.761)">
          <g id="Group_601" data-name="Group 601">
            <line id="Line_246" data-name="Line 246" class="cls-5" y2="2.489" transform="translate(1.532 1.532)"/>
            <path id="Path_905" data-name="Path 905" class="cls-4" d="M119.832,53.753a1.51,1.51,0,0,1-1.532-1.532V49.732a1.51,1.51,0,0,1,1.532-1.532,1.409,1.409,0,0,1,1.532,1.532v2.489A1.409,1.409,0,0,1,119.832,53.753Z" transform="translate(-118.3 -48.2)"/>
          </g>
          <g id="Group_602" data-name="Group 602" transform="translate(6.702)">
            <line id="Line_247" data-name="Line 247" class="cls-5" y2="2.489" transform="translate(1.532 1.532)"/>
            <path id="Path_906" data-name="Path 906" class="cls-4" d="M123.332,53.753a1.51,1.51,0,0,1-1.532-1.532V49.732a1.51,1.51,0,0,1,1.532-1.532,1.409,1.409,0,0,1,1.532,1.532v2.489C124.672,53.178,124.1,53.753,123.332,53.753Z" transform="translate(-121.8 -48.2)"/>
          </g>
          <g id="Group_603" data-name="Group 603" transform="translate(13.212)">
            <line id="Line_248" data-name="Line 248" class="cls-5" y2="2.489" transform="translate(1.532 1.532)"/>
            <path id="Path_907" data-name="Path 907" class="cls-4" d="M126.732,53.753a1.51,1.51,0,0,1-1.532-1.532V49.732a1.51,1.51,0,0,1,1.532-1.532,1.409,1.409,0,0,1,1.532,1.532v2.489A1.409,1.409,0,0,1,126.732,53.753Z" transform="translate(-125.2 -48.2)"/>
          </g>
        </g>
        <g id="Group_608" data-name="Group 608" transform="translate(7.851 104.93)">
          <g id="Group_605" data-name="Group 605">
            <line id="Line_249" data-name="Line 249" class="cls-5" y2="2.489" transform="translate(1.532 1.532)"/>
            <path id="Path_908" data-name="Path 908" class="cls-4" d="M119.832,61.153a1.51,1.51,0,0,1-1.532-1.532V57.132a1.51,1.51,0,0,1,1.532-1.532,1.409,1.409,0,0,1,1.532,1.532v2.489A1.51,1.51,0,0,1,119.832,61.153Z" transform="translate(-118.3 -55.6)"/>
          </g>
          <g id="Group_606" data-name="Group 606" transform="translate(6.702)">
            <line id="Line_250" data-name="Line 250" class="cls-5" y2="2.489" transform="translate(1.532 1.532)"/>
            <path id="Path_909" data-name="Path 909" class="cls-4" d="M123.332,61.153a1.51,1.51,0,0,1-1.532-1.532V57.132a1.51,1.51,0,0,1,1.532-1.532,1.409,1.409,0,0,1,1.532,1.532v2.489C124.672,60.387,124.1,61.153,123.332,61.153Z" transform="translate(-121.8 -55.6)"/>
          </g>
          <g id="Group_607" data-name="Group 607" transform="translate(13.212)">
            <line id="Line_251" data-name="Line 251" class="cls-5" y2="2.489" transform="translate(1.532 1.532)"/>
            <path id="Path_910" data-name="Path 910" class="cls-4" d="M126.732,61.153a1.51,1.51,0,0,1-1.532-1.532V57.132a1.51,1.51,0,0,1,1.532-1.532,1.409,1.409,0,0,1,1.532,1.532v2.489A1.51,1.51,0,0,1,126.732,61.153Z" transform="translate(-125.2 -55.6)"/>
          </g>
        </g>
        <g id="Group_612" data-name="Group 612" transform="translate(7.851 111.823)">
          <g id="Group_609" data-name="Group 609">
            <line id="Line_252" data-name="Line 252" class="cls-5" y2="2.489" transform="translate(1.532 1.532)"/>
            <path id="Path_911" data-name="Path 911" class="cls-4" d="M119.832,64.753a1.51,1.51,0,0,1-1.532-1.532V60.732a1.51,1.51,0,0,1,1.532-1.532,1.409,1.409,0,0,1,1.532,1.532v2.489A1.51,1.51,0,0,1,119.832,64.753Z" transform="translate(-118.3 -59.2)"/>
          </g>
          <g id="Group_610" data-name="Group 610" transform="translate(6.702)">
            <line id="Line_253" data-name="Line 253" class="cls-5" y2="2.489" transform="translate(1.532 1.532)"/>
            <path id="Path_912" data-name="Path 912" class="cls-4" d="M123.332,64.753a1.51,1.51,0,0,1-1.532-1.532V60.732a1.51,1.51,0,0,1,1.532-1.532,1.409,1.409,0,0,1,1.532,1.532v2.489C124.672,63.987,124.1,64.753,123.332,64.753Z" transform="translate(-121.8 -59.2)"/>
          </g>
          <g id="Group_611" data-name="Group 611" transform="translate(13.212)">
            <line id="Line_254" data-name="Line 254" class="cls-5" y2="2.489" transform="translate(1.532 1.532)"/>
            <path id="Path_913" data-name="Path 913" class="cls-4" d="M126.732,64.753a1.51,1.51,0,0,1-1.532-1.532V60.732a1.51,1.51,0,0,1,1.532-1.532,1.409,1.409,0,0,1,1.532,1.532v2.489A1.51,1.51,0,0,1,126.732,64.753Z" transform="translate(-125.2 -59.2)"/>
          </g>
        </g>
        <g id="Group_616" data-name="Group 616" transform="translate(7.851 118.717)">
          <g id="Group_613" data-name="Group 613">
            <line id="Line_255" data-name="Line 255" class="cls-5" y2="2.681" transform="translate(1.532 1.532)"/>
            <path id="Path_914" data-name="Path 914" class="cls-4" d="M119.832,68.353a1.51,1.51,0,0,1-1.532-1.532V64.332a1.51,1.51,0,0,1,1.532-1.532,1.409,1.409,0,0,1,1.532,1.532v2.681A1.366,1.366,0,0,1,119.832,68.353Z" transform="translate(-118.3 -62.8)"/>
          </g>
          <g id="Group_614" data-name="Group 614" transform="translate(6.702)">
            <line id="Line_256" data-name="Line 256" class="cls-5" y2="2.681" transform="translate(1.532 1.532)"/>
            <path id="Path_915" data-name="Path 915" class="cls-4" d="M123.332,68.353a1.51,1.51,0,0,1-1.532-1.532V64.332a1.51,1.51,0,0,1,1.532-1.532,1.409,1.409,0,0,1,1.532,1.532v2.681A1.625,1.625,0,0,1,123.332,68.353Z" transform="translate(-121.8 -62.8)"/>
          </g>
          <g id="Group_615" data-name="Group 615" transform="translate(13.212)">
            <line id="Line_257" data-name="Line 257" class="cls-5" y2="2.681" transform="translate(1.532 1.532)"/>
            <path id="Path_916" data-name="Path 916" class="cls-4" d="M126.732,68.353a1.51,1.51,0,0,1-1.532-1.532V64.332a1.51,1.51,0,0,1,1.532-1.532,1.409,1.409,0,0,1,1.532,1.532v2.681A1.366,1.366,0,0,1,126.732,68.353Z" transform="translate(-125.2 -62.8)"/>
          </g>
        </g>
        <g id="Group_620" data-name="Group 620" transform="translate(7.851 98.037)">
          <g id="Group_617" data-name="Group 617">
            <line id="Line_258" data-name="Line 258" class="cls-5" y2="2.489" transform="translate(1.532 1.532)"/>
            <path id="Path_917" data-name="Path 917" class="cls-4" d="M119.832,57.553a1.51,1.51,0,0,1-1.532-1.532V53.532A1.51,1.51,0,0,1,119.832,52a1.409,1.409,0,0,1,1.532,1.532v2.489A1.51,1.51,0,0,1,119.832,57.553Z" transform="translate(-118.3 -52)"/>
          </g>
          <g id="Group_618" data-name="Group 618" transform="translate(6.702)">
            <line id="Line_259" data-name="Line 259" class="cls-5" y2="2.489" transform="translate(1.532 1.532)"/>
            <path id="Path_918" data-name="Path 918" class="cls-4" d="M123.332,57.553a1.51,1.51,0,0,1-1.532-1.532V53.532A1.51,1.51,0,0,1,123.332,52a1.409,1.409,0,0,1,1.532,1.532v2.489C124.672,56.787,124.1,57.553,123.332,57.553Z" transform="translate(-121.8 -52)"/>
          </g>
          <g id="Group_619" data-name="Group 619" transform="translate(13.212)">
            <line id="Line_260" data-name="Line 260" class="cls-5" y2="2.489" transform="translate(1.532 1.532)"/>
            <path id="Path_919" data-name="Path 919" class="cls-4" d="M126.732,57.553a1.51,1.51,0,0,1-1.532-1.532V53.532A1.51,1.51,0,0,1,126.732,52a1.409,1.409,0,0,1,1.532,1.532v2.489A1.51,1.51,0,0,1,126.732,57.553Z" transform="translate(-125.2 -52)"/>
          </g>
        </g>
        <g id="Group_624" data-name="Group 624" transform="translate(7.851 125.61)">
          <g id="Group_621" data-name="Group 621">
            <line id="Line_261" data-name="Line 261" class="cls-5" y2="2.489" transform="translate(1.532 1.723)"/>
            <path id="Path_920" data-name="Path 920" class="cls-4" d="M119.832,71.953a1.51,1.51,0,0,1-1.532-1.532V67.932a1.51,1.51,0,0,1,1.532-1.532,1.409,1.409,0,0,1,1.532,1.532v2.489A1.409,1.409,0,0,1,119.832,71.953Z" transform="translate(-118.3 -66.4)"/>
          </g>
          <g id="Group_622" data-name="Group 622" transform="translate(6.702)">
            <line id="Line_262" data-name="Line 262" class="cls-5" y2="2.489" transform="translate(1.532 1.723)"/>
            <path id="Path_921" data-name="Path 921" class="cls-4" d="M123.332,71.953a1.51,1.51,0,0,1-1.532-1.532V67.932a1.51,1.51,0,0,1,1.532-1.532,1.409,1.409,0,0,1,1.532,1.532v2.489C124.672,71.378,124.1,71.953,123.332,71.953Z" transform="translate(-121.8 -66.4)"/>
          </g>
          <g id="Group_623" data-name="Group 623" transform="translate(13.212)">
            <line id="Line_263" data-name="Line 263" class="cls-5" y2="2.489" transform="translate(1.532 1.723)"/>
            <path id="Path_922" data-name="Path 922" class="cls-4" d="M126.732,71.953a1.51,1.51,0,0,1-1.532-1.532V67.932a1.51,1.51,0,0,1,1.532-1.532,1.409,1.409,0,0,1,1.532,1.532v2.489A1.409,1.409,0,0,1,126.732,71.953Z" transform="translate(-125.2 -66.4)"/>
          </g>
        </g>
      </g>
      <g id="Group_646" data-name="Group 646" transform="translate(-17480.182 -5387.661)">
        <g id="Group_629" data-name="Group 629" transform="translate(0 30.637)">
          <g id="Group_626" data-name="Group 626">
            <line id="Line_264" data-name="Line 264" class="cls-5" y2="5.553" transform="translate(1.34 1.34)"/>
            <path id="Path_923" data-name="Path 923" class="cls-4" d="M102.94,61.734a1.309,1.309,0,0,1-1.34-1.34V54.84a1.34,1.34,0,1,1,2.681,0v5.553A1.309,1.309,0,0,1,102.94,61.734Z" transform="translate(-101.6 -53.5)"/>
          </g>
          <g id="Group_627" data-name="Group 627" transform="translate(8.425)">
            <line id="Line_265" data-name="Line 265" class="cls-5" y2="5.553" transform="translate(1.34 1.34)"/>
            <path id="Path_924" data-name="Path 924" class="cls-4" d="M107.34,61.734a1.309,1.309,0,0,1-1.34-1.34V54.84a1.34,1.34,0,1,1,2.681,0v5.553A1.309,1.309,0,0,1,107.34,61.734Z" transform="translate(-106 -53.5)"/>
          </g>
          <g id="Group_628" data-name="Group 628" transform="translate(16.659)">
            <line id="Line_266" data-name="Line 266" class="cls-5" y2="5.553" transform="translate(1.34 1.34)"/>
            <path id="Path_925" data-name="Path 925" class="cls-4" d="M111.64,61.734a1.309,1.309,0,0,1-1.34-1.34V54.84a1.34,1.34,0,1,1,2.681,0v5.553A1.309,1.309,0,0,1,111.64,61.734Z" transform="translate(-110.3 -53.5)"/>
          </g>
        </g>
        <g id="Group_633" data-name="Group 633" transform="translate(0 45.955)">
          <g id="Group_630" data-name="Group 630">
            <line id="Line_267" data-name="Line 267" class="cls-5" y2="5.553" transform="translate(1.34 1.34)"/>
            <path id="Path_926" data-name="Path 926" class="cls-4" d="M102.94,69.734a1.309,1.309,0,0,1-1.34-1.34V62.84a1.34,1.34,0,1,1,2.681,0v5.553A1.309,1.309,0,0,1,102.94,69.734Z" transform="translate(-101.6 -61.5)"/>
          </g>
          <g id="Group_631" data-name="Group 631" transform="translate(8.425)">
            <line id="Line_268" data-name="Line 268" class="cls-5" y2="5.553" transform="translate(1.34 1.34)"/>
            <path id="Path_927" data-name="Path 927" class="cls-4" d="M107.34,69.734a1.309,1.309,0,0,1-1.34-1.34V62.84a1.34,1.34,0,1,1,2.681,0v5.553A1.309,1.309,0,0,1,107.34,69.734Z" transform="translate(-106 -61.5)"/>
          </g>
          <g id="Group_632" data-name="Group 632" transform="translate(16.659)">
            <line id="Line_269" data-name="Line 269" class="cls-5" y2="5.553" transform="translate(1.34 1.34)"/>
            <path id="Path_928" data-name="Path 928" class="cls-4" d="M111.64,69.734a1.309,1.309,0,0,1-1.34-1.34V62.84a1.34,1.34,0,1,1,2.681,0v5.553A1.309,1.309,0,0,1,111.64,69.734Z" transform="translate(-110.3 -61.5)"/>
          </g>
        </g>
        <g id="Group_637" data-name="Group 637" transform="translate(0 61.465)">
          <g id="Group_634" data-name="Group 634">
            <line id="Line_270" data-name="Line 270" class="cls-5" y2="5.553" transform="translate(1.34 1.34)"/>
            <path id="Path_929" data-name="Path 929" class="cls-4" d="M102.94,77.834a1.309,1.309,0,0,1-1.34-1.34V70.94a1.34,1.34,0,0,1,2.681,0v5.553A1.439,1.439,0,0,1,102.94,77.834Z" transform="translate(-101.6 -69.6)"/>
          </g>
          <g id="Group_635" data-name="Group 635" transform="translate(8.425)">
            <line id="Line_271" data-name="Line 271" class="cls-5" y2="5.553" transform="translate(1.34 1.34)"/>
            <path id="Path_930" data-name="Path 930" class="cls-4" d="M107.34,77.834a1.309,1.309,0,0,1-1.34-1.34V70.94a1.34,1.34,0,0,1,2.681,0v5.553A1.439,1.439,0,0,1,107.34,77.834Z" transform="translate(-106 -69.6)"/>
          </g>
          <g id="Group_636" data-name="Group 636" transform="translate(16.659)">
            <line id="Line_272" data-name="Line 272" class="cls-5" y2="5.553" transform="translate(1.34 1.34)"/>
            <path id="Path_931" data-name="Path 931" class="cls-4" d="M111.64,77.834a1.309,1.309,0,0,1-1.34-1.34V70.94a1.34,1.34,0,0,1,2.681,0v5.553A1.439,1.439,0,0,1,111.64,77.834Z" transform="translate(-110.3 -69.6)"/>
          </g>
        </g>
        <g id="Group_641" data-name="Group 641">
          <g id="Group_638" data-name="Group 638">
            <line id="Line_273" data-name="Line 273" class="cls-5" y2="5.553" transform="translate(1.34 1.34)"/>
            <path id="Path_932" data-name="Path 932" class="cls-4" d="M102.94,45.734a1.309,1.309,0,0,1-1.34-1.34V38.84a1.34,1.34,0,1,1,2.681,0v5.553A1.309,1.309,0,0,1,102.94,45.734Z" transform="translate(-101.6 -37.5)"/>
          </g>
          <g id="Group_639" data-name="Group 639" transform="translate(8.425)">
            <line id="Line_274" data-name="Line 274" class="cls-5" y2="5.553" transform="translate(1.34 1.34)"/>
            <path id="Path_933" data-name="Path 933" class="cls-4" d="M107.34,45.734a1.309,1.309,0,0,1-1.34-1.34V38.84a1.34,1.34,0,1,1,2.681,0v5.553A1.309,1.309,0,0,1,107.34,45.734Z" transform="translate(-106 -37.5)"/>
          </g>
          <g id="Group_640" data-name="Group 640" transform="translate(16.659)">
            <line id="Line_275" data-name="Line 275" class="cls-5" y2="5.553" transform="translate(1.34 1.34)"/>
            <path id="Path_934" data-name="Path 934" class="cls-4" d="M111.64,45.734a1.309,1.309,0,0,1-1.34-1.34V38.84a1.34,1.34,0,1,1,2.681,0v5.553A1.309,1.309,0,0,1,111.64,45.734Z" transform="translate(-110.3 -37.5)"/>
          </g>
        </g>
        <g id="Group_645" data-name="Group 645" transform="translate(0 15.318)">
          <g id="Group_642" data-name="Group 642">
            <line id="Line_276" data-name="Line 276" class="cls-5" y2="5.553" transform="translate(1.34 1.34)"/>
            <path id="Path_935" data-name="Path 935" class="cls-4" d="M102.94,53.734a1.309,1.309,0,0,1-1.34-1.34V46.84a1.34,1.34,0,1,1,2.681,0v5.553A1.309,1.309,0,0,1,102.94,53.734Z" transform="translate(-101.6 -45.5)"/>
          </g>
          <g id="Group_643" data-name="Group 643" transform="translate(8.425)">
            <line id="Line_277" data-name="Line 277" class="cls-5" y2="5.553" transform="translate(1.34 1.34)"/>
            <path id="Path_936" data-name="Path 936" class="cls-4" d="M107.34,53.734a1.309,1.309,0,0,1-1.34-1.34V46.84a1.34,1.34,0,1,1,2.681,0v5.553A1.309,1.309,0,0,1,107.34,53.734Z" transform="translate(-106 -45.5)"/>
          </g>
          <g id="Group_644" data-name="Group 644" transform="translate(16.659)">
            <line id="Line_278" data-name="Line 278" class="cls-5" y2="5.553" transform="translate(1.34 1.34)"/>
            <path id="Path_937" data-name="Path 937" class="cls-4" d="M111.64,53.734a1.309,1.309,0,0,1-1.34-1.34V46.84a1.34,1.34,0,1,1,2.681,0v5.553A1.309,1.309,0,0,1,111.64,53.734Z" transform="translate(-110.3 -45.5)"/>
          </g>
        </g>
      </g>
      <g id="Group_676" data-name="Group 676" transform="translate(-17404.164 -5394.363)">
        <g id="Group_666" data-name="Group 666">
          <g id="Group_650" data-name="Group 650" transform="translate(0 30.445)">
            <g id="Group_647" data-name="Group 647">
              <line id="Line_279" data-name="Line 279" class="cls-5" y2="5.553" transform="translate(1.34 1.34)"/>
              <path id="Path_938" data-name="Path 938" class="cls-4" d="M142.64,58.134a1.309,1.309,0,0,1-1.34-1.34V51.24a1.34,1.34,0,1,1,2.681,0v5.553C144.172,57.559,143.406,58.134,142.64,58.134Z" transform="translate(-141.3 -49.9)"/>
            </g>
            <g id="Group_648" data-name="Group 648" transform="translate(8.617)">
              <line id="Line_280" data-name="Line 280" class="cls-5" y2="5.553" transform="translate(1.34 1.34)"/>
              <path id="Path_939" data-name="Path 939" class="cls-4" d="M147.14,58.134a1.309,1.309,0,0,1-1.34-1.34V51.24a1.34,1.34,0,1,1,2.681,0v5.553A1.309,1.309,0,0,1,147.14,58.134Z" transform="translate(-145.8 -49.9)"/>
            </g>
            <g id="Group_649" data-name="Group 649" transform="translate(16.85)">
              <line id="Line_281" data-name="Line 281" class="cls-5" y2="5.553" transform="translate(1.34 1.34)"/>
              <path id="Path_940" data-name="Path 940" class="cls-4" d="M151.44,58.134a1.309,1.309,0,0,1-1.34-1.34V51.24a1.34,1.34,0,0,1,2.681,0v5.553A1.309,1.309,0,0,1,151.44,58.134Z" transform="translate(-150.1 -49.9)"/>
            </g>
          </g>
          <g id="Group_654" data-name="Group 654" transform="translate(0 45.763)">
            <g id="Group_651" data-name="Group 651">
              <line id="Line_282" data-name="Line 282" class="cls-5" y2="5.553" transform="translate(1.34 1.34)"/>
              <path id="Path_941" data-name="Path 941" class="cls-4" d="M142.64,66.134a1.309,1.309,0,0,1-1.34-1.34V59.24a1.34,1.34,0,1,1,2.681,0v5.553C144.172,65.559,143.406,66.134,142.64,66.134Z" transform="translate(-141.3 -57.9)"/>
            </g>
            <g id="Group_652" data-name="Group 652" transform="translate(8.617)">
              <line id="Line_283" data-name="Line 283" class="cls-5" y2="5.553" transform="translate(1.34 1.34)"/>
              <path id="Path_942" data-name="Path 942" class="cls-4" d="M147.14,66.134a1.309,1.309,0,0,1-1.34-1.34V59.24a1.34,1.34,0,1,1,2.681,0v5.553A1.309,1.309,0,0,1,147.14,66.134Z" transform="translate(-145.8 -57.9)"/>
            </g>
            <g id="Group_653" data-name="Group 653" transform="translate(16.85)">
              <line id="Line_284" data-name="Line 284" class="cls-5" y2="5.553" transform="translate(1.34 1.34)"/>
              <path id="Path_943" data-name="Path 943" class="cls-4" d="M151.44,66.134a1.309,1.309,0,0,1-1.34-1.34V59.24a1.34,1.34,0,0,1,2.681,0v5.553A1.309,1.309,0,0,1,151.44,66.134Z" transform="translate(-150.1 -57.9)"/>
            </g>
          </g>
          <g id="Group_658" data-name="Group 658" transform="translate(0 61.273)">
            <g id="Group_655" data-name="Group 655">
              <line id="Line_285" data-name="Line 285" class="cls-5" y2="5.553" transform="translate(1.34 1.34)"/>
              <path id="Path_944" data-name="Path 944" class="cls-4" d="M142.64,74.234a1.309,1.309,0,0,1-1.34-1.34V67.34a1.34,1.34,0,1,1,2.681,0v5.553C144.172,73.659,143.406,74.234,142.64,74.234Z" transform="translate(-141.3 -66)"/>
            </g>
            <g id="Group_656" data-name="Group 656" transform="translate(8.617)">
              <line id="Line_286" data-name="Line 286" class="cls-5" y2="5.553" transform="translate(1.34 1.34)"/>
              <path id="Path_945" data-name="Path 945" class="cls-4" d="M147.14,74.234a1.309,1.309,0,0,1-1.34-1.34V67.34a1.34,1.34,0,1,1,2.681,0v5.553A1.309,1.309,0,0,1,147.14,74.234Z" transform="translate(-145.8 -66)"/>
            </g>
            <g id="Group_657" data-name="Group 657" transform="translate(16.85)">
              <line id="Line_287" data-name="Line 287" class="cls-5" y2="5.553" transform="translate(1.34 1.34)"/>
              <path id="Path_946" data-name="Path 946" class="cls-4" d="M151.44,74.234a1.309,1.309,0,0,1-1.34-1.34V67.34a1.34,1.34,0,0,1,2.681,0v5.553A1.309,1.309,0,0,1,151.44,74.234Z" transform="translate(-150.1 -66)"/>
            </g>
          </g>
          <g id="Group_662" data-name="Group 662">
            <g id="Group_659" data-name="Group 659">
              <line id="Line_288" data-name="Line 288" class="cls-5" y2="5.553" transform="translate(1.34 1.34)"/>
              <path id="Path_947" data-name="Path 947" class="cls-4" d="M142.64,42.234a1.309,1.309,0,0,1-1.34-1.34V35.34a1.34,1.34,0,1,1,2.681,0v5.553C144.172,41.659,143.406,42.234,142.64,42.234Z" transform="translate(-141.3 -34)"/>
            </g>
            <g id="Group_660" data-name="Group 660" transform="translate(8.617)">
              <line id="Line_289" data-name="Line 289" class="cls-5" y2="5.553" transform="translate(1.34 1.34)"/>
              <path id="Path_948" data-name="Path 948" class="cls-4" d="M147.14,42.234a1.309,1.309,0,0,1-1.34-1.34V35.34a1.34,1.34,0,1,1,2.681,0v5.553A1.309,1.309,0,0,1,147.14,42.234Z" transform="translate(-145.8 -34)"/>
            </g>
            <g id="Group_661" data-name="Group 661" transform="translate(16.85)">
              <line id="Line_290" data-name="Line 290" class="cls-5" y2="5.553" transform="translate(1.34 1.34)"/>
              <path id="Path_949" data-name="Path 949" class="cls-4" d="M151.44,42.234a1.309,1.309,0,0,1-1.34-1.34V35.34a1.34,1.34,0,0,1,2.681,0v5.553A1.309,1.309,0,0,1,151.44,42.234Z" transform="translate(-150.1 -34)"/>
            </g>
          </g>
          <g id="Group_665" data-name="Group 665" transform="translate(0 15.318)">
            <g id="Group_663" data-name="Group 663">
              <line id="Line_291" data-name="Line 291" class="cls-5" y2="5.553" transform="translate(1.34 1.34)"/>
              <path id="Path_950" data-name="Path 950" class="cls-4" d="M142.64,50.234a1.309,1.309,0,0,1-1.34-1.34V43.34a1.34,1.34,0,1,1,2.681,0v5.553C144.172,49.468,143.406,50.234,142.64,50.234Z" transform="translate(-141.3 -42)"/>
            </g>
            <g id="Group_664" data-name="Group 664" transform="translate(16.85)">
              <line id="Line_292" data-name="Line 292" class="cls-5" y2="5.553" transform="translate(1.34 1.34)"/>
              <path id="Path_951" data-name="Path 951" class="cls-4" d="M151.44,50.234a1.309,1.309,0,0,1-1.34-1.34V43.34a1.34,1.34,0,1,1,2.681,0v5.553A1.439,1.439,0,0,1,151.44,50.234Z" transform="translate(-150.1 -42)"/>
            </g>
          </g>
        </g>
        <g id="Group_675" data-name="Group 675" transform="translate(25.084)">
          <g id="Group_668" data-name="Group 668" transform="translate(0 30.445)">
            <g id="Group_667" data-name="Group 667">
              <line id="Line_293" data-name="Line 293" class="cls-5" y2="5.553" transform="translate(1.34 1.34)"/>
              <path id="Path_952" data-name="Path 952" class="cls-4" d="M155.74,58.134a1.309,1.309,0,0,1-1.34-1.34V51.24a1.34,1.34,0,1,1,2.681,0v5.553A1.309,1.309,0,0,1,155.74,58.134Z" transform="translate(-154.4 -49.9)"/>
            </g>
          </g>
          <g id="Group_670" data-name="Group 670" transform="translate(0 45.763)">
            <g id="Group_669" data-name="Group 669">
              <line id="Line_294" data-name="Line 294" class="cls-5" y2="5.553" transform="translate(1.34 1.34)"/>
              <path id="Path_953" data-name="Path 953" class="cls-4" d="M155.74,66.134a1.309,1.309,0,0,1-1.34-1.34V59.24a1.34,1.34,0,1,1,2.681,0v5.553A1.309,1.309,0,0,1,155.74,66.134Z" transform="translate(-154.4 -57.9)"/>
            </g>
          </g>
          <g id="Group_672" data-name="Group 672" transform="translate(0 61.273)">
            <g id="Group_671" data-name="Group 671">
              <line id="Line_295" data-name="Line 295" class="cls-5" y2="5.553" transform="translate(1.34 1.34)"/>
              <path id="Path_954" data-name="Path 954" class="cls-4" d="M155.74,74.234a1.309,1.309,0,0,1-1.34-1.34V67.34a1.34,1.34,0,1,1,2.681,0v5.553A1.309,1.309,0,0,1,155.74,74.234Z" transform="translate(-154.4 -66)"/>
            </g>
          </g>
          <g id="Group_674" data-name="Group 674">
            <g id="Group_673" data-name="Group 673">
              <line id="Line_296" data-name="Line 296" class="cls-5" y2="5.553" transform="translate(1.34 1.34)"/>
              <path id="Path_955" data-name="Path 955" class="cls-4" d="M155.74,42.234a1.309,1.309,0,0,1-1.34-1.34V35.34a1.34,1.34,0,1,1,2.681,0v5.553A1.309,1.309,0,0,1,155.74,42.234Z" transform="translate(-154.4 -34)"/>
            </g>
          </g>
        </g>
      </g>
      <g id="Group_721" data-name="Group 721" transform="translate(-17508.33 -5395.895)">
        <g id="Group_680" data-name="Group 680" transform="translate(0 13.595)">
          <g id="Group_677" data-name="Group 677">
            <line id="Line_297" data-name="Line 297" class="cls-5" y2="2.489" transform="translate(1.532 1.723)"/>
            <path id="Path_956" data-name="Path 956" class="cls-4" d="M88.432,45.853A1.51,1.51,0,0,1,86.9,44.321V41.832A1.51,1.51,0,0,1,88.432,40.3a1.409,1.409,0,0,1,1.532,1.532v2.489A1.409,1.409,0,0,1,88.432,45.853Z" transform="translate(-86.9 -40.3)"/>
          </g>
          <g id="Group_678" data-name="Group 678" transform="translate(6.702)">
            <line id="Line_298" data-name="Line 298" class="cls-5" y2="2.489" transform="translate(1.532 1.723)"/>
            <path id="Path_957" data-name="Path 957" class="cls-4" d="M91.932,45.853A1.51,1.51,0,0,1,90.4,44.321V41.832A1.51,1.51,0,0,1,91.932,40.3a1.409,1.409,0,0,1,1.532,1.532v2.489C93.272,45.278,92.7,45.853,91.932,45.853Z" transform="translate(-90.4 -40.3)"/>
          </g>
          <g id="Group_679" data-name="Group 679" transform="translate(13.212)">
            <line id="Line_299" data-name="Line 299" class="cls-5" y2="2.489" transform="translate(1.532 1.723)"/>
            <path id="Path_958" data-name="Path 958" class="cls-4" d="M95.332,45.853A1.51,1.51,0,0,1,93.8,44.321V41.832A1.51,1.51,0,0,1,95.332,40.3a1.409,1.409,0,0,1,1.532,1.532v2.489A1.409,1.409,0,0,1,95.332,45.853Z" transform="translate(-93.8 -40.3)"/>
          </g>
        </g>
        <g id="Group_684" data-name="Group 684" transform="translate(0 20.68)">
          <g id="Group_681" data-name="Group 681">
            <line id="Line_300" data-name="Line 300" class="cls-5" y2="2.489" transform="translate(1.532 1.532)"/>
            <path id="Path_959" data-name="Path 959" class="cls-4" d="M88.432,49.553A1.51,1.51,0,0,1,86.9,48.021V45.532A1.51,1.51,0,0,1,88.432,44a1.409,1.409,0,0,1,1.532,1.532v2.489A1.51,1.51,0,0,1,88.432,49.553Z" transform="translate(-86.9 -44)"/>
          </g>
          <g id="Group_682" data-name="Group 682" transform="translate(6.702)">
            <line id="Line_301" data-name="Line 301" class="cls-5" y2="2.489" transform="translate(1.532 1.532)"/>
            <path id="Path_960" data-name="Path 960" class="cls-4" d="M91.932,49.553A1.51,1.51,0,0,1,90.4,48.021V45.532A1.51,1.51,0,0,1,91.932,44a1.409,1.409,0,0,1,1.532,1.532v2.489C93.272,48.787,92.7,49.553,91.932,49.553Z" transform="translate(-90.4 -44)"/>
          </g>
          <g id="Group_683" data-name="Group 683" transform="translate(13.212)">
            <line id="Line_302" data-name="Line 302" class="cls-5" y2="2.489" transform="translate(1.532 1.532)"/>
            <path id="Path_961" data-name="Path 961" class="cls-4" d="M95.332,49.553A1.51,1.51,0,0,1,93.8,48.021V45.532A1.51,1.51,0,0,1,95.332,44a1.409,1.409,0,0,1,1.532,1.532v2.489A1.51,1.51,0,0,1,95.332,49.553Z" transform="translate(-93.8 -44)"/>
          </g>
        </g>
        <g id="Group_688" data-name="Group 688" transform="translate(0 27.573)">
          <g id="Group_685" data-name="Group 685">
            <line id="Line_303" data-name="Line 303" class="cls-5" y2="2.489" transform="translate(1.532 1.532)"/>
            <path id="Path_962" data-name="Path 962" class="cls-4" d="M88.432,53.153A1.51,1.51,0,0,1,86.9,51.621V49.132A1.51,1.51,0,0,1,88.432,47.6a1.409,1.409,0,0,1,1.532,1.532v2.489C89.772,52.578,89.2,53.153,88.432,53.153Z" transform="translate(-86.9 -47.6)"/>
          </g>
          <g id="Group_686" data-name="Group 686" transform="translate(6.51)">
            <line id="Line_304" data-name="Line 304" class="cls-5" y2="2.489" transform="translate(1.532 1.532)"/>
            <path id="Path_963" data-name="Path 963" class="cls-4" d="M91.832,53.153A1.51,1.51,0,0,1,90.3,51.621V49.132A1.51,1.51,0,0,1,91.832,47.6a1.409,1.409,0,0,1,1.532,1.532v2.489A1.51,1.51,0,0,1,91.832,53.153Z" transform="translate(-90.3 -47.6)"/>
          </g>
          <g id="Group_687" data-name="Group 687" transform="translate(13.212)">
            <line id="Line_305" data-name="Line 305" class="cls-5" y2="2.489" transform="translate(1.532 1.532)"/>
            <path id="Path_964" data-name="Path 964" class="cls-4" d="M95.332,53.153A1.51,1.51,0,0,1,93.8,51.621V49.132A1.51,1.51,0,0,1,95.332,47.6a1.409,1.409,0,0,1,1.532,1.532v2.489C96.672,52.578,96.1,53.153,95.332,53.153Z" transform="translate(-93.8 -47.6)"/>
          </g>
        </g>
        <g id="Group_692" data-name="Group 692">
          <g id="Group_689" data-name="Group 689">
            <line id="Line_306" data-name="Line 306" class="cls-5" y2="2.489" transform="translate(1.532 1.532)"/>
            <path id="Path_965" data-name="Path 965" class="cls-4" d="M88.432,38.561A1.51,1.51,0,0,1,86.9,37.03v-2.3A1.51,1.51,0,0,1,88.432,33.2a1.409,1.409,0,0,1,1.532,1.532v2.489A1.366,1.366,0,0,1,88.432,38.561Z" transform="translate(-86.9 -33.2)"/>
          </g>
          <g id="Group_690" data-name="Group 690" transform="translate(6.702)">
            <line id="Line_307" data-name="Line 307" class="cls-5" y2="2.489" transform="translate(1.532 1.532)"/>
            <path id="Path_966" data-name="Path 966" class="cls-4" d="M91.932,38.561A1.51,1.51,0,0,1,90.4,37.03v-2.3A1.51,1.51,0,0,1,91.932,33.2a1.409,1.409,0,0,1,1.532,1.532v2.489A1.625,1.625,0,0,1,91.932,38.561Z" transform="translate(-90.4 -33.2)"/>
          </g>
          <g id="Group_691" data-name="Group 691" transform="translate(13.212)">
            <line id="Line_308" data-name="Line 308" class="cls-5" y2="2.489" transform="translate(1.532 1.532)"/>
            <path id="Path_967" data-name="Path 967" class="cls-4" d="M95.332,38.561A1.51,1.51,0,0,1,93.8,37.03v-2.3A1.51,1.51,0,0,1,95.332,33.2a1.409,1.409,0,0,1,1.532,1.532v2.489A1.366,1.366,0,0,1,95.332,38.561Z" transform="translate(-93.8 -33.2)"/>
          </g>
        </g>
        <g id="Group_696" data-name="Group 696" transform="translate(0 6.702)">
          <g id="Group_693" data-name="Group 693">
            <line id="Line_309" data-name="Line 309" class="cls-5" y2="2.489" transform="translate(1.532 1.723)"/>
            <path id="Path_968" data-name="Path 968" class="cls-4" d="M88.432,42.253A1.51,1.51,0,0,1,86.9,40.721V38.232A1.51,1.51,0,0,1,88.432,36.7a1.409,1.409,0,0,1,1.532,1.532v2.489A1.409,1.409,0,0,1,88.432,42.253Z" transform="translate(-86.9 -36.7)"/>
          </g>
          <g id="Group_694" data-name="Group 694" transform="translate(6.702)">
            <line id="Line_310" data-name="Line 310" class="cls-5" y2="2.489" transform="translate(1.532 1.723)"/>
            <path id="Path_969" data-name="Path 969" class="cls-4" d="M91.932,42.253A1.51,1.51,0,0,1,90.4,40.721V38.232A1.51,1.51,0,0,1,91.932,36.7a1.409,1.409,0,0,1,1.532,1.532v2.489C93.272,41.678,92.7,42.253,91.932,42.253Z" transform="translate(-90.4 -36.7)"/>
          </g>
          <g id="Group_695" data-name="Group 695" transform="translate(13.212)">
            <line id="Line_311" data-name="Line 311" class="cls-5" y2="2.489" transform="translate(1.532 1.723)"/>
            <path id="Path_970" data-name="Path 970" class="cls-4" d="M95.332,42.253A1.51,1.51,0,0,1,93.8,40.721V38.232A1.51,1.51,0,0,1,95.332,36.7a1.409,1.409,0,0,1,1.532,1.532v2.489A1.409,1.409,0,0,1,95.332,42.253Z" transform="translate(-93.8 -36.7)"/>
          </g>
        </g>
        <g id="Group_700" data-name="Group 700" transform="translate(0 34.466)">
          <g id="Group_697" data-name="Group 697">
            <line id="Line_312" data-name="Line 312" class="cls-5" y2="2.681" transform="translate(1.532 1.532)"/>
            <path id="Path_971" data-name="Path 971" class="cls-4" d="M88.432,56.753A1.51,1.51,0,0,1,86.9,55.221V52.732A1.51,1.51,0,0,1,88.432,51.2a1.409,1.409,0,0,1,1.532,1.532v2.489C89.772,56.178,89.2,56.753,88.432,56.753Z" transform="translate(-86.9 -51.2)"/>
          </g>
          <g id="Group_698" data-name="Group 698" transform="translate(6.51)">
            <line id="Line_313" data-name="Line 313" class="cls-5" y2="2.681" transform="translate(1.532 1.532)"/>
            <path id="Path_972" data-name="Path 972" class="cls-4" d="M91.832,56.753A1.51,1.51,0,0,1,90.3,55.221V52.732A1.51,1.51,0,0,1,91.832,51.2a1.409,1.409,0,0,1,1.532,1.532v2.489A1.51,1.51,0,0,1,91.832,56.753Z" transform="translate(-90.3 -51.2)"/>
          </g>
          <g id="Group_699" data-name="Group 699" transform="translate(13.212)">
            <line id="Line_314" data-name="Line 314" class="cls-5" y2="2.681" transform="translate(1.532 1.532)"/>
            <path id="Path_973" data-name="Path 973" class="cls-4" d="M95.332,56.753A1.51,1.51,0,0,1,93.8,55.221V52.732A1.51,1.51,0,0,1,95.332,51.2a1.409,1.409,0,0,1,1.532,1.532v2.489C96.672,56.178,96.1,56.753,95.332,56.753Z" transform="translate(-93.8 -51.2)"/>
          </g>
        </g>
        <g id="Group_704" data-name="Group 704" transform="translate(0 48.636)">
          <g id="Group_701" data-name="Group 701">
            <line id="Line_315" data-name="Line 315" class="cls-5" y2="2.489" transform="translate(1.532 1.532)"/>
            <path id="Path_974" data-name="Path 974" class="cls-4" d="M88.432,64.153A1.51,1.51,0,0,1,86.9,62.621V60.132A1.51,1.51,0,0,1,88.432,58.6a1.409,1.409,0,0,1,1.532,1.532v2.489C89.772,63.387,89.2,64.153,88.432,64.153Z" transform="translate(-86.9 -58.6)"/>
          </g>
          <g id="Group_702" data-name="Group 702" transform="translate(6.51)">
            <line id="Line_316" data-name="Line 316" class="cls-5" y2="2.489" transform="translate(1.532 1.532)"/>
            <path id="Path_975" data-name="Path 975" class="cls-4" d="M91.832,64.153A1.51,1.51,0,0,1,90.3,62.621V60.132A1.51,1.51,0,0,1,91.832,58.6a1.409,1.409,0,0,1,1.532,1.532v2.489A1.647,1.647,0,0,1,91.832,64.153Z" transform="translate(-90.3 -58.6)"/>
          </g>
          <g id="Group_703" data-name="Group 703" transform="translate(13.212)">
            <line id="Line_317" data-name="Line 317" class="cls-5" y2="2.489" transform="translate(1.532 1.532)"/>
            <path id="Path_976" data-name="Path 976" class="cls-4" d="M95.332,64.153A1.51,1.51,0,0,1,93.8,62.621V60.132A1.51,1.51,0,0,1,95.332,58.6a1.409,1.409,0,0,1,1.532,1.532v2.489C96.672,63.387,96.1,64.153,95.332,64.153Z" transform="translate(-93.8 -58.6)"/>
          </g>
        </g>
        <g id="Group_708" data-name="Group 708" transform="translate(0 55.529)">
          <g id="Group_705" data-name="Group 705">
            <line id="Line_318" data-name="Line 318" class="cls-5" y2="2.489" transform="translate(1.532 1.532)"/>
            <path id="Path_977" data-name="Path 977" class="cls-4" d="M88.432,67.753A1.51,1.51,0,0,1,86.9,66.221V63.732A1.51,1.51,0,0,1,88.432,62.2a1.409,1.409,0,0,1,1.532,1.532v2.489C89.772,66.987,89.2,67.753,88.432,67.753Z" transform="translate(-86.9 -62.2)"/>
          </g>
          <g id="Group_706" data-name="Group 706" transform="translate(6.51)">
            <line id="Line_319" data-name="Line 319" class="cls-5" y2="2.489" transform="translate(1.532 1.532)"/>
            <path id="Path_978" data-name="Path 978" class="cls-4" d="M91.832,67.753A1.51,1.51,0,0,1,90.3,66.221V63.732A1.51,1.51,0,0,1,91.832,62.2a1.409,1.409,0,0,1,1.532,1.532v2.489A1.647,1.647,0,0,1,91.832,67.753Z" transform="translate(-90.3 -62.2)"/>
          </g>
          <g id="Group_707" data-name="Group 707" transform="translate(13.212)">
            <line id="Line_320" data-name="Line 320" class="cls-5" y2="2.489" transform="translate(1.532 1.532)"/>
            <path id="Path_979" data-name="Path 979" class="cls-4" d="M95.332,67.753A1.51,1.51,0,0,1,93.8,66.221V63.732A1.51,1.51,0,0,1,95.332,62.2a1.409,1.409,0,0,1,1.532,1.532v2.489C96.672,66.987,96.1,67.753,95.332,67.753Z" transform="translate(-93.8 -62.2)"/>
          </g>
        </g>
        <g id="Group_712" data-name="Group 712" transform="translate(0 62.422)">
          <g id="Group_709" data-name="Group 709">
            <line id="Line_321" data-name="Line 321" class="cls-5" y2="2.489" transform="translate(1.532 1.723)"/>
            <path id="Path_980" data-name="Path 980" class="cls-4" d="M88.432,71.353A1.51,1.51,0,0,1,86.9,69.821V67.332A1.51,1.51,0,0,1,88.432,65.8a1.409,1.409,0,0,1,1.532,1.532v2.681A1.625,1.625,0,0,1,88.432,71.353Z" transform="translate(-86.9 -65.8)"/>
          </g>
          <g id="Group_710" data-name="Group 710" transform="translate(6.51)">
            <line id="Line_322" data-name="Line 322" class="cls-5" y2="2.489" transform="translate(1.532 1.723)"/>
            <path id="Path_981" data-name="Path 981" class="cls-4" d="M91.832,71.353A1.51,1.51,0,0,1,90.3,69.821V67.332A1.51,1.51,0,0,1,91.832,65.8a1.409,1.409,0,0,1,1.532,1.532v2.681A1.48,1.48,0,0,1,91.832,71.353Z" transform="translate(-90.3 -65.8)"/>
          </g>
          <g id="Group_711" data-name="Group 711" transform="translate(13.212)">
            <line id="Line_323" data-name="Line 323" class="cls-5" y2="2.489" transform="translate(1.532 1.723)"/>
            <path id="Path_982" data-name="Path 982" class="cls-4" d="M95.332,71.353A1.51,1.51,0,0,1,93.8,69.821V67.332A1.51,1.51,0,0,1,95.332,65.8a1.409,1.409,0,0,1,1.532,1.532v2.681A1.625,1.625,0,0,1,95.332,71.353Z" transform="translate(-93.8 -65.8)"/>
          </g>
        </g>
        <g id="Group_716" data-name="Group 716" transform="translate(0 41.742)">
          <g id="Group_713" data-name="Group 713">
            <line id="Line_324" data-name="Line 324" class="cls-5" y2="2.489" transform="translate(1.532 1.532)"/>
            <path id="Path_983" data-name="Path 983" class="cls-4" d="M88.432,60.553A1.51,1.51,0,0,1,86.9,59.021V56.532A1.51,1.51,0,0,1,88.432,55a1.409,1.409,0,0,1,1.532,1.532v2.489C89.772,59.787,89.2,60.553,88.432,60.553Z" transform="translate(-86.9 -55)"/>
          </g>
          <g id="Group_714" data-name="Group 714" transform="translate(6.51)">
            <line id="Line_325" data-name="Line 325" class="cls-5" y2="2.489" transform="translate(1.532 1.532)"/>
            <path id="Path_984" data-name="Path 984" class="cls-4" d="M91.832,60.553A1.51,1.51,0,0,1,90.3,59.021V56.532A1.51,1.51,0,0,1,91.832,55a1.409,1.409,0,0,1,1.532,1.532v2.489A1.647,1.647,0,0,1,91.832,60.553Z" transform="translate(-90.3 -55)"/>
          </g>
          <g id="Group_715" data-name="Group 715" transform="translate(13.212)">
            <line id="Line_326" data-name="Line 326" class="cls-5" y2="2.489" transform="translate(1.532 1.532)"/>
            <path id="Path_985" data-name="Path 985" class="cls-4" d="M95.332,60.553A1.51,1.51,0,0,1,93.8,59.021V56.532A1.51,1.51,0,0,1,95.332,55a1.409,1.409,0,0,1,1.532,1.532v2.489C96.672,59.787,96.1,60.553,95.332,60.553Z" transform="translate(-93.8 -55)"/>
          </g>
        </g>
        <g id="Group_720" data-name="Group 720" transform="translate(0 69.315)">
          <g id="Group_717" data-name="Group 717">
            <line id="Line_327" data-name="Line 327" class="cls-5" y2="2.489" transform="translate(1.532 1.723)"/>
            <path id="Path_986" data-name="Path 986" class="cls-4" d="M88.432,74.953A1.51,1.51,0,0,1,86.9,73.421V70.932A1.51,1.51,0,0,1,88.432,69.4a1.409,1.409,0,0,1,1.532,1.532v2.489C89.772,74.378,89.2,74.953,88.432,74.953Z" transform="translate(-86.9 -69.4)"/>
          </g>
          <g id="Group_718" data-name="Group 718" transform="translate(6.51)">
            <line id="Line_328" data-name="Line 328" class="cls-5" y2="2.489" transform="translate(1.532 1.723)"/>
            <path id="Path_987" data-name="Path 987" class="cls-4" d="M91.832,74.953A1.51,1.51,0,0,1,90.3,73.421V70.932A1.51,1.51,0,0,1,91.832,69.4a1.409,1.409,0,0,1,1.532,1.532v2.489A1.51,1.51,0,0,1,91.832,74.953Z" transform="translate(-90.3 -69.4)"/>
          </g>
          <g id="Group_719" data-name="Group 719" transform="translate(13.212)">
            <line id="Line_329" data-name="Line 329" class="cls-5" y2="2.489" transform="translate(1.532 1.723)"/>
            <path id="Path_988" data-name="Path 988" class="cls-4" d="M95.332,74.953A1.51,1.51,0,0,1,93.8,73.421V70.932A1.51,1.51,0,0,1,95.332,69.4a1.409,1.409,0,0,1,1.532,1.532v2.489C96.672,74.378,96.1,74.953,95.332,74.953Z" transform="translate(-93.8 -69.4)"/>
          </g>
        </g>
      </g>
      <g id="Group_722" data-name="Group 722" transform="translate(-17465.438 -5369.471)">
        <rect id="Rectangle_16" data-name="Rectangle 16" class="cls-5" width="49.976" height="59.741" transform="translate(1.34 1.34)"/>
        <path id="Path_989" data-name="Path 989" class="cls-4" d="M160.425,109.422H110.64a1.309,1.309,0,0,1-1.34-1.34V48.34A1.309,1.309,0,0,1,110.64,47h49.784a1.309,1.309,0,0,1,1.34,1.34v59.741A1.309,1.309,0,0,1,160.425,109.422Zm-48.444-2.681h47.1V49.681h-47.1Z" transform="translate(-109.3 -47)"/>
      </g>
      <g id="Group_741" data-name="Group 741" transform="translate(-17455.289 -5356.45)">
        <g id="Group_726" data-name="Group 726">
          <g id="Group_723" data-name="Group 723">
            <line id="Line_330" data-name="Line 330" class="cls-5" y2="5.553" transform="translate(1.34 1.34)"/>
            <path id="Path_990" data-name="Path 990" class="cls-4" d="M115.94,62.034a1.309,1.309,0,0,1-1.34-1.34V55.14a1.34,1.34,0,1,1,2.681,0v5.553A1.309,1.309,0,0,1,115.94,62.034Z" transform="translate(-114.6 -53.8)"/>
          </g>
          <g id="Group_724" data-name="Group 724" transform="translate(8.999)">
            <line id="Line_331" data-name="Line 331" class="cls-5" y2="5.553" transform="translate(1.34 1.34)"/>
            <path id="Path_991" data-name="Path 991" class="cls-4" d="M120.64,62.034a1.309,1.309,0,0,1-1.34-1.34V55.14a1.34,1.34,0,1,1,2.681,0v5.553A1.309,1.309,0,0,1,120.64,62.034Z" transform="translate(-119.3 -53.8)"/>
          </g>
          <g id="Group_725" data-name="Group 725" transform="translate(17.999)">
            <line id="Line_332" data-name="Line 332" class="cls-5" y2="5.553" transform="translate(1.34 1.34)"/>
            <path id="Path_992" data-name="Path 992" class="cls-4" d="M125.34,62.034a1.309,1.309,0,0,1-1.34-1.34V55.14a1.34,1.34,0,1,1,2.681,0v5.553A1.309,1.309,0,0,1,125.34,62.034Z" transform="translate(-124 -53.8)"/>
          </g>
        </g>
        <g id="Group_730" data-name="Group 730" transform="translate(0 15.318)">
          <g id="Group_727" data-name="Group 727">
            <line id="Line_333" data-name="Line 333" class="cls-5" y2="5.553" transform="translate(1.34 1.34)"/>
            <path id="Path_993" data-name="Path 993" class="cls-4" d="M115.94,70.034a1.309,1.309,0,0,1-1.34-1.34V63.14a1.34,1.34,0,1,1,2.681,0v5.553A1.309,1.309,0,0,1,115.94,70.034Z" transform="translate(-114.6 -61.8)"/>
          </g>
          <g id="Group_728" data-name="Group 728" transform="translate(8.999)">
            <line id="Line_334" data-name="Line 334" class="cls-5" y2="5.553" transform="translate(1.34 1.34)"/>
            <path id="Path_994" data-name="Path 994" class="cls-4" d="M120.64,70.034a1.309,1.309,0,0,1-1.34-1.34V63.14a1.34,1.34,0,1,1,2.681,0v5.553A1.309,1.309,0,0,1,120.64,70.034Z" transform="translate(-119.3 -61.8)"/>
          </g>
          <g id="Group_729" data-name="Group 729" transform="translate(17.999)">
            <line id="Line_335" data-name="Line 335" class="cls-5" y2="5.553" transform="translate(1.34 1.34)"/>
            <path id="Path_995" data-name="Path 995" class="cls-4" d="M125.34,70.034a1.309,1.309,0,0,1-1.34-1.34V63.14a1.34,1.34,0,1,1,2.681,0v5.553A1.309,1.309,0,0,1,125.34,70.034Z" transform="translate(-124 -61.8)"/>
          </g>
        </g>
        <g id="Group_734" data-name="Group 734" transform="translate(0 30.637)">
          <g id="Group_731" data-name="Group 731">
            <line id="Line_336" data-name="Line 336" class="cls-5" y2="5.553" transform="translate(1.34 1.34)"/>
            <path id="Path_996" data-name="Path 996" class="cls-4" d="M115.94,78.034a1.309,1.309,0,0,1-1.34-1.34V71.14a1.34,1.34,0,1,1,2.681,0v5.553A1.309,1.309,0,0,1,115.94,78.034Z" transform="translate(-114.6 -69.8)"/>
          </g>
          <g id="Group_732" data-name="Group 732" transform="translate(8.999)">
            <line id="Line_337" data-name="Line 337" class="cls-5" y2="5.553" transform="translate(1.34 1.34)"/>
            <path id="Path_997" data-name="Path 997" class="cls-4" d="M120.64,78.034a1.309,1.309,0,0,1-1.34-1.34V71.14a1.34,1.34,0,1,1,2.681,0v5.553A1.309,1.309,0,0,1,120.64,78.034Z" transform="translate(-119.3 -69.8)"/>
          </g>
          <g id="Group_733" data-name="Group 733" transform="translate(17.999)">
            <line id="Line_338" data-name="Line 338" class="cls-5" y2="5.553" transform="translate(1.34 1.34)"/>
            <path id="Path_998" data-name="Path 998" class="cls-4" d="M125.34,78.034a1.309,1.309,0,0,1-1.34-1.34V71.14a1.34,1.34,0,1,1,2.681,0v5.553A1.309,1.309,0,0,1,125.34,78.034Z" transform="translate(-124 -69.8)"/>
          </g>
        </g>
        <g id="Group_736" data-name="Group 736" transform="translate(26.424)">
          <g id="Group_735" data-name="Group 735">
            <line id="Line_339" data-name="Line 339" class="cls-5" y2="5.553" transform="translate(1.34 1.34)"/>
            <path id="Path_999" data-name="Path 999" class="cls-4" d="M129.74,62.034a1.309,1.309,0,0,1-1.34-1.34V55.14a1.34,1.34,0,1,1,2.681,0v5.553C131.272,61.459,130.506,62.034,129.74,62.034Z" transform="translate(-128.4 -53.8)"/>
          </g>
        </g>
        <g id="Group_738" data-name="Group 738" transform="translate(26.424 15.318)">
          <g id="Group_737" data-name="Group 737">
            <line id="Line_340" data-name="Line 340" class="cls-5" y2="5.553" transform="translate(1.34 1.34)"/>
            <path id="Path_1000" data-name="Path 1000" class="cls-4" d="M129.74,70.034a1.309,1.309,0,0,1-1.34-1.34V63.14a1.34,1.34,0,1,1,2.681,0v5.553C131.272,69.459,130.506,70.034,129.74,70.034Z" transform="translate(-128.4 -61.8)"/>
          </g>
        </g>
        <g id="Group_740" data-name="Group 740" transform="translate(26.424 30.637)">
          <g id="Group_739" data-name="Group 739">
            <line id="Line_341" data-name="Line 341" class="cls-5" y2="5.553" transform="translate(1.34 1.34)"/>
            <path id="Path_1001" data-name="Path 1001" class="cls-4" d="M129.74,78.034a1.309,1.309,0,0,1-1.34-1.34V71.14a1.34,1.34,0,1,1,2.681,0v5.553C131.272,77.459,130.506,78.034,129.74,78.034Z" transform="translate(-128.4 -69.8)"/>
          </g>
        </g>
      </g>
      <g id="Group_767" data-name="Group 767" transform="translate(-17421.59 -5385.938)">
        <g id="Group_746" data-name="Group 746" transform="translate(63.571 19.148)">
          <g id="Group_742" data-name="Group 742">
            <path id="Path_1002" data-name="Path 1002" class="cls-5" d="M187.263,103.2v-54H166.2v54" transform="translate(-164.668 -47.668)"/>
            <path id="Path_1003" data-name="Path 1003" class="cls-4" d="M187.994,105.269a1.51,1.51,0,0,1-1.532-1.532V51.464h-18v52.465a1.51,1.51,0,0,1-1.532,1.532,1.409,1.409,0,0,1-1.532-1.532v-54a1.51,1.51,0,0,1,1.532-1.532h21.063a1.51,1.51,0,0,1,1.532,1.532v53.805A1.51,1.51,0,0,1,187.994,105.269Z" transform="translate(-165.4 -48.4)"/>
          </g>
          <g id="Group_743" data-name="Group 743" transform="translate(8.234 20.68)">
            <rect id="Rectangle_17" data-name="Rectangle 17" class="cls-5" width="1.915" height="2.681" transform="translate(2.872 2.872)"/>
            <path id="Path_1004" data-name="Path 1004" class="cls-4" d="M174.487,62.072v2.681h-1.915V62.072h1.915m0-2.872h-1.915a2.945,2.945,0,0,0-2.872,2.872v2.681a2.945,2.945,0,0,0,2.872,2.872h1.915a2.945,2.945,0,0,0,2.872-2.872V62.072a2.82,2.82,0,0,0-2.872-2.872Z" transform="translate(-169.7 -59.2)"/>
          </g>
          <g id="Group_744" data-name="Group 744" transform="translate(8.234 32.168)">
            <rect id="Rectangle_18" data-name="Rectangle 18" class="cls-5" width="1.915" height="2.681" transform="translate(2.872 2.872)"/>
            <path id="Path_1005" data-name="Path 1005" class="cls-4" d="M174.487,68.072v2.681h-1.915V68.072h1.915m0-2.872h-1.915a2.945,2.945,0,0,0-2.872,2.872v2.681a2.945,2.945,0,0,0,2.872,2.872h1.915a2.945,2.945,0,0,0,2.872-2.872V68.072a2.82,2.82,0,0,0-2.872-2.872Z" transform="translate(-169.7 -65.2)"/>
          </g>
          <g id="Group_745" data-name="Group 745" transform="translate(8.234 43.849)">
            <rect id="Rectangle_19" data-name="Rectangle 19" class="cls-5" width="1.915" height="2.681" transform="translate(2.872 2.872)"/>
            <path id="Path_1006" data-name="Path 1006" class="cls-4" d="M174.487,74.172v2.681h-1.915V74.172h1.915m0-2.872h-1.915a2.945,2.945,0,0,0-2.872,2.872v2.681a2.945,2.945,0,0,0,2.872,2.872h1.915a2.945,2.945,0,0,0,2.872-2.872V74.172a2.714,2.714,0,0,0-2.872-2.872Z" transform="translate(-169.7 -71.3)"/>
          </g>
        </g>
        <g id="Group_747" data-name="Group 747" transform="translate(64.72 25.85)">
          <line id="Line_342" data-name="Line 342" class="cls-5" x2="23.552" transform="translate(1.34 1.723)"/>
          <path id="Path_1007" data-name="Path 1007" class="cls-4" d="M190.892,54.964h-23.36A1.51,1.51,0,0,1,166,53.432a1.409,1.409,0,0,1,1.532-1.532h23.36a1.532,1.532,0,1,1,0,3.064Z" transform="translate(-166 -51.9)"/>
        </g>
        <g id="Group_748" data-name="Group 748" transform="translate(64.72 32.36)">
          <line id="Line_343" data-name="Line 343" class="cls-5" x2="23.552" transform="translate(1.34 1.532)"/>
          <path id="Path_1008" data-name="Path 1008" class="cls-4" d="M190.892,58.364h-23.36A1.51,1.51,0,0,1,166,56.832a1.409,1.409,0,0,1,1.532-1.532h23.36a1.532,1.532,0,1,1,0,3.064Z" transform="translate(-166 -55.3)"/>
        </g>
        <g id="Group_755" data-name="Group 755" transform="translate(3.255 3.064)">
          <g id="Group_749" data-name="Group 749" transform="translate(20.68 19.531)">
            <path id="Path_1009" data-name="Path 1009" class="cls-5" d="M166.563,102.308V50.8H145.5l.191,51.508" transform="translate(-143.968 -49.651)"/>
            <path id="Path_1010" data-name="Path 1010" class="cls-4" d="M167.294,104.2a1.48,1.48,0,0,1-1.532-1.34V52.881h-18.19v49.976a1.48,1.48,0,0,1-1.34,1.532h0a1.48,1.48,0,0,1-1.532-1.34V51.54a1.309,1.309,0,0,1,1.34-1.34H167.1a1.48,1.48,0,0,1,1.532,1.34v51.508c.191.574-.383,1.149-1.34,1.149Z" transform="translate(-144.7 -50.2)"/>
          </g>
          <g id="Group_750" data-name="Group 750">
            <path id="Path_1011" data-name="Path 1011" class="cls-5" d="M155.863,110.69V40.8H134.8v69.89" transform="translate(-133.077 -39.268)"/>
            <path id="Path_1012" data-name="Path 1012" class="cls-4" d="M156.686,112.953a1.51,1.51,0,0,1-1.532-1.532V43.064h-18.19v68.549a1.51,1.51,0,0,1-1.532,1.532,1.409,1.409,0,0,1-1.532-1.532V41.532A1.51,1.51,0,0,1,135.432,40h21.063a1.51,1.51,0,0,1,1.532,1.532v69.89A1.275,1.275,0,0,1,156.686,112.953Z" transform="translate(-133.9 -40)"/>
          </g>
          <g id="Group_751" data-name="Group 751" transform="translate(8.425 22.403)">
            <rect id="Rectangle_20" data-name="Rectangle 20" class="cls-5" width="1.915" height="2.681" transform="translate(2.872 2.872)"/>
            <path id="Path_1013" data-name="Path 1013" class="cls-4" d="M143.087,54.572v2.681h-1.915V54.572h1.915m0-2.872h-1.915a2.945,2.945,0,0,0-2.872,2.872v2.681a2.945,2.945,0,0,0,2.872,2.872h1.915a2.945,2.945,0,0,0,2.872-2.872V54.572a2.714,2.714,0,0,0-2.872-2.872Z" transform="translate(-138.3 -51.7)"/>
          </g>
          <g id="Group_752" data-name="Group 752" transform="translate(8.425 33.7)">
            <rect id="Rectangle_21" data-name="Rectangle 21" class="cls-5" width="1.915" height="2.681" transform="translate(2.872 2.872)"/>
            <path id="Path_1014" data-name="Path 1014" class="cls-4" d="M143.087,60.472v2.681h-1.915V60.472h1.915m0-2.872h-1.915a2.945,2.945,0,0,0-2.872,2.872v2.681a2.945,2.945,0,0,0,2.872,2.872h1.915a2.945,2.945,0,0,0,2.872-2.872V60.472a2.82,2.82,0,0,0-2.872-2.872Z" transform="translate(-138.3 -57.6)"/>
          </g>
          <g id="Group_753" data-name="Group 753" transform="translate(8.425 45.38)">
            <rect id="Rectangle_22" data-name="Rectangle 22" class="cls-5" width="1.915" height="2.681" transform="translate(2.872 2.872)"/>
            <path id="Path_1015" data-name="Path 1015" class="cls-4" d="M143.087,66.572v2.681h-1.915V66.572h1.915m0-2.872h-1.915a2.945,2.945,0,0,0-2.872,2.872v2.681a2.945,2.945,0,0,0,2.872,2.872h1.915a2.945,2.945,0,0,0,2.872-2.872V66.572a2.82,2.82,0,0,0-2.872-2.872Z" transform="translate(-138.3 -63.7)"/>
          </g>
          <g id="Group_754" data-name="Group 754" transform="translate(8.425 58.209)">
            <rect id="Rectangle_23" data-name="Rectangle 23" class="cls-5" width="1.915" height="2.681" transform="translate(2.872 2.872)"/>
            <path id="Path_1016" data-name="Path 1016" class="cls-4" d="M143.087,73.272v2.681h-1.915V73.272h1.915m0-2.872h-1.915a2.945,2.945,0,0,0-2.872,2.872v2.681a2.945,2.945,0,0,0,2.872,2.872h1.915a2.945,2.945,0,0,0,2.872-2.872V73.272a2.714,2.714,0,0,0-2.872-2.872Z" transform="translate(-138.3 -70.4)"/>
          </g>
        </g>
        <g id="Group_761" data-name="Group 761" transform="translate(44.806)">
          <g id="Group_756" data-name="Group 756">
            <path id="Path_1017" data-name="Path 1017" class="cls-5" d="M177.471,112.153V39.2H156.6v72.953" transform="translate(-154.685 -37.668)"/>
            <path id="Path_1018" data-name="Path 1018" class="cls-4" d="M178.386,114.417a1.51,1.51,0,0,1-1.532-1.532V41.272h-18.19v71.613a1.51,1.51,0,0,1-1.532,1.532,1.409,1.409,0,0,1-1.532-1.532V39.932a1.51,1.51,0,0,1,1.532-1.532h21.063a1.51,1.51,0,0,1,1.532,1.532v72.953C179.918,113.842,179.343,114.417,178.386,114.417Z" transform="translate(-155.6 -38.4)"/>
          </g>
          <g id="Group_757" data-name="Group 757" transform="translate(8.617 25.467)">
            <rect id="Rectangle_24" data-name="Rectangle 24" class="cls-5" width="1.915" height="2.681" transform="translate(2.681 2.872)"/>
            <path id="Path_1019" data-name="Path 1019" class="cls-4" d="M164.887,54.572v2.681h-1.915V54.572h1.915m0-2.872h-1.915a2.945,2.945,0,0,0-2.872,2.872v2.681a2.945,2.945,0,0,0,2.872,2.872h1.915a2.945,2.945,0,0,0,2.872-2.872V54.572a2.82,2.82,0,0,0-2.872-2.872Z" transform="translate(-160.1 -51.7)"/>
          </g>
          <g id="Group_758" data-name="Group 758" transform="translate(8.617 36.764)">
            <rect id="Rectangle_25" data-name="Rectangle 25" class="cls-5" width="1.915" height="2.681" transform="translate(2.681 2.872)"/>
            <path id="Path_1020" data-name="Path 1020" class="cls-4" d="M164.887,60.472v2.681h-1.915V60.472h1.915m0-2.872h-1.915a2.945,2.945,0,0,0-2.872,2.872v2.681a2.945,2.945,0,0,0,2.872,2.872h1.915a2.945,2.945,0,0,0,2.872-2.872V60.472a2.945,2.945,0,0,0-2.872-2.872Z" transform="translate(-160.1 -57.6)"/>
          </g>
          <g id="Group_759" data-name="Group 759" transform="translate(8.617 48.444)">
            <rect id="Rectangle_26" data-name="Rectangle 26" class="cls-5" width="1.915" height="2.681" transform="translate(2.681 2.872)"/>
            <path id="Path_1021" data-name="Path 1021" class="cls-4" d="M164.887,66.572v2.681h-1.915V66.572h1.915m0-2.872h-1.915a2.945,2.945,0,0,0-2.872,2.872v2.681a2.945,2.945,0,0,0,2.872,2.872h1.915a2.945,2.945,0,0,0,2.872-2.872V66.572a2.945,2.945,0,0,0-2.872-2.872Z" transform="translate(-160.1 -63.7)"/>
          </g>
          <g id="Group_760" data-name="Group 760" transform="translate(8.617 61.273)">
            <rect id="Rectangle_27" data-name="Rectangle 27" class="cls-5" width="1.915" height="2.681" transform="translate(2.681 2.872)"/>
            <path id="Path_1022" data-name="Path 1022" class="cls-4" d="M164.887,73.272v2.681h-1.915V73.272h1.915m0-2.872h-1.915a2.945,2.945,0,0,0-2.872,2.872v2.681a2.945,2.945,0,0,0,2.872,2.872h1.915a2.945,2.945,0,0,0,2.872-2.872V73.272a2.82,2.82,0,0,0-2.872-2.872Z" transform="translate(-160.1 -70.4)"/>
          </g>
        </g>
        <path id="Path_1023" data-name="Path 1023" class="cls-4" d="M159.189,87.39a1.51,1.51,0,0,1-1.532-1.532V75.327c0-3.638-4.021-4.021-5.744-2.3a4.043,4.043,0,0,0-1.149,3.064v9.574a1.51,1.51,0,0,1-1.532,1.532,1.409,1.409,0,0,1-1.532-1.532V76.093a6.877,6.877,0,0,1,2.106-5.17,6.39,6.39,0,0,1,4.4-1.723,5.924,5.924,0,0,1,6.127,6.127V86.05C160.721,86.816,159.955,87.39,159.189,87.39Z" transform="translate(-118.021 -10.225)"/>
        <path id="Path_1024" data-name="Path 1024" class="cls-4" d="M166.937,67.464H146.832a1.51,1.51,0,0,1-1.532-1.532,1.409,1.409,0,0,1,1.532-1.532h20.105a1.532,1.532,0,1,1,0,3.064Z" transform="translate(-120.216 -14.616)"/>
        <g id="Group_762" data-name="Group 762" transform="translate(32.551 34.658)">
          <rect id="Rectangle_28" data-name="Rectangle 28" class="cls-5" width="1.915" height="2.681" transform="translate(2.681 2.872)"/>
          <path id="Path_1025" data-name="Path 1025" class="cls-4" d="M153.987,59.372v2.681h-1.915V59.372h1.915m0-2.872h-1.915a2.945,2.945,0,0,0-2.872,2.872v2.681a2.945,2.945,0,0,0,2.872,2.872h1.915a2.945,2.945,0,0,0,2.872-2.872V59.372a2.945,2.945,0,0,0-2.872-2.872Z" transform="translate(-149.2 -56.5)"/>
        </g>
        <g id="Group_763" data-name="Group 763" transform="translate(0 10.148)">
          <line id="Line_344" data-name="Line 344" class="cls-5" x2="28.147" transform="translate(1.532 1.723)"/>
          <path id="Path_1026" data-name="Path 1026" class="cls-4" d="M161.879,46.764H133.732a1.51,1.51,0,0,1-1.532-1.532,1.409,1.409,0,0,1,1.532-1.532h28.147a1.532,1.532,0,1,1,0,3.064Z" transform="translate(-132.2 -43.7)"/>
        </g>
        <g id="Group_764" data-name="Group 764" transform="translate(0 16.659)">
          <line id="Line_345" data-name="Line 345" class="cls-5" x2="28.147" transform="translate(1.532 1.532)"/>
          <path id="Path_1027" data-name="Path 1027" class="cls-4" d="M161.879,50.164H133.732a1.51,1.51,0,0,1-1.532-1.532,1.409,1.409,0,0,1,1.532-1.532h28.147a1.532,1.532,0,1,1,0,3.064Z" transform="translate(-132.2 -47.1)"/>
        </g>
        <g id="Group_765" data-name="Group 765" transform="translate(41.934 6.702)">
          <line id="Line_346" data-name="Line 346" class="cls-5" x2="27.381" transform="translate(1.532 1.532)"/>
          <path id="Path_1028" data-name="Path 1028" class="cls-4" d="M183.013,44.964H155.632a1.51,1.51,0,0,1-1.532-1.532,1.409,1.409,0,0,1,1.532-1.532h27.381a1.532,1.532,0,1,1,0,3.064Z" transform="translate(-154.1 -41.9)"/>
        </g>
        <g id="Group_766" data-name="Group 766" transform="translate(41.934 13.021)">
          <line id="Line_347" data-name="Line 347" class="cls-5" x2="27.381" transform="translate(1.532 1.723)"/>
          <path id="Path_1029" data-name="Path 1029" class="cls-4" d="M183.013,48.264H155.632a1.51,1.51,0,0,1-1.532-1.532,1.409,1.409,0,0,1,1.532-1.532h27.381a1.532,1.532,0,1,1,0,3.064Z" transform="translate(-154.1 -45.2)"/>
        </g>
      </g>
      <path id="Path_1030" data-name="Path 1030" class="cls-4" d="M64.171,100.941A29.871,29.871,0,1,1,94.041,71.071,29.909,29.909,0,0,1,64.171,100.941Zm0-56.869a27,27,0,1,0,27,27A26.967,26.967,0,0,0,64.171,44.072Z" transform="translate(-17643.346 -5421.776)"/>
      <g id="Group_770" data-name="Group 770" transform="translate(-17584.729 -5389.193)">
        <path id="Path_1031" data-name="Path 1031" class="cls-4" d="M50.632,101.8a1.51,1.51,0,0,1-1.532-1.532V42.632A1.51,1.51,0,0,1,50.632,41.1a1.409,1.409,0,0,1,1.532,1.532v57.635A1.51,1.51,0,0,1,50.632,101.8Z" transform="translate(-45.079 -32.675)"/>
        <g id="Group_768" data-name="Group 768">
          <circle id="Ellipse_3" data-name="Ellipse 3" class="cls-5" cx="4.021" cy="4.021" r="4.021" transform="translate(1.532 1.532)"/>
          <path id="Path_1032" data-name="Path 1032" class="cls-4" d="M52.553,47.806a5.553,5.553,0,1,1,5.553-5.553A5.557,5.557,0,0,1,52.553,47.806Zm0-8.234a2.681,2.681,0,1,0,2.681,2.681A2.618,2.618,0,0,0,52.553,39.572Z" transform="translate(-47 -36.7)"/>
        </g>
        <g id="Group_769" data-name="Group 769" transform="translate(0 64.528)">
          <circle id="Ellipse_4" data-name="Ellipse 4" class="cls-5" cx="4.021" cy="4.021" r="4.021" transform="translate(1.532 1.532)"/>
          <path id="Path_1033" data-name="Path 1033" class="cls-4" d="M52.553,81.506a5.553,5.553,0,1,1,5.553-5.553A5.557,5.557,0,0,1,52.553,81.506Zm0-8.234a2.681,2.681,0,1,0,2.681,2.681A2.618,2.618,0,0,0,52.553,73.272Z" transform="translate(-47 -70.4)"/>
        </g>
      </g>
      <g id="Group_773" data-name="Group 773" transform="translate(-17607.42 -5379.931)">
        <path id="Path_1034" data-name="Path 1034" class="cls-4" d="M39.663,89.271a1.463,1.463,0,0,1-.957-.383,1.5,1.5,0,0,1,0-2.106l40.4-40.976a1.489,1.489,0,0,1,2.106,2.106L40.621,88.888A1.463,1.463,0,0,1,39.663,89.271Z" transform="translate(-32.289 -38.026)"/>
        <g id="Group_771" data-name="Group 771" transform="translate(45.188 0)">
          <circle id="Ellipse_5" data-name="Ellipse 5" class="cls-5" cx="4.021" cy="4.021" r="4.021" transform="matrix(0.702, -0.712, 0.712, 0.702, 0, 5.729)"/>
          <path id="Path_1035" data-name="Path 1035" class="cls-4" d="M64.319,52.672a5.693,5.693,0,0,1-3.83-1.532,5.551,5.551,0,1,1,7.851,0A6.18,6.18,0,0,1,64.319,52.672Zm0-8.234A2.458,2.458,0,0,0,62.4,45.2a2.708,2.708,0,1,0,3.83,3.83h0a2.909,2.909,0,0,0,0-3.83A2.458,2.458,0,0,0,64.319,44.438Z" transform="translate(-58.668 -41.445)"/>
        </g>
        <g id="Group_772" data-name="Group 772" transform="translate(0 45.908)">
          <circle id="Ellipse_6" data-name="Ellipse 6" class="cls-5" cx="4.021" cy="4.021" r="4.021" transform="matrix(0.702, -0.712, 0.712, 0.702, 0, 5.729)"/>
          <path id="Path_1036" data-name="Path 1036" class="cls-4" d="M40.753,76.672a5.693,5.693,0,0,1-3.83-1.532A5.1,5.1,0,0,1,35.2,71.31a6.179,6.179,0,0,1,1.532-4.021,5.491,5.491,0,0,1,7.851,0,5.457,5.457,0,0,1-3.83,9.382Zm0-8.234a2.618,2.618,0,0,0-2.681,2.681,3.4,3.4,0,0,0,.766,1.915,2.708,2.708,0,0,0,3.83-3.83A2.743,2.743,0,0,0,40.753,68.438Z" transform="translate(-35.102 -65.399)"/>
        </g>
      </g>
      <g id="Group_776" data-name="Group 776" transform="translate(-17616.896 -5357.216)">
        <path id="Path_1037" data-name="Path 1037" class="cls-4" d="M35.032,59.421a1.625,1.625,0,0,1-1.532-1.34,1.48,1.48,0,0,1,1.34-1.532L92.475,55.4h0a1.625,1.625,0,0,1,1.532,1.34,1.48,1.48,0,0,1-1.34,1.532L35.032,59.421Z" transform="translate(-27.181 -51.57)"/>
        <g id="Group_774" data-name="Group 774" transform="translate(64.337)">
          <circle id="Ellipse_7" data-name="Ellipse 7" class="cls-5" cx="4.021" cy="4.021" r="4.021" transform="translate(1.456 1.412) rotate(-1.05)"/>
          <path id="Path_1038" data-name="Path 1038" class="cls-4" d="M69.353,64.314a5.346,5.346,0,0,1-3.83-1.532,5.1,5.1,0,0,1-1.723-3.83A5.4,5.4,0,0,1,69.161,53.4a6.179,6.179,0,0,1,4.021,1.532,5.1,5.1,0,0,1,1.723,3.83,6.586,6.586,0,0,1-1.532,4.021c-.957,1.149-2.3,1.34-4.021,1.532Zm0-8.234h0a3.4,3.4,0,0,0-1.915.766,2.22,2.22,0,0,0-.766,1.915,2.618,2.618,0,0,0,2.681,2.681h0a3.4,3.4,0,0,0,1.915-.766,2.458,2.458,0,0,0,.766-1.915,3.4,3.4,0,0,0-.766-1.915A2.458,2.458,0,0,0,69.353,56.081Z" transform="translate(-63.8 -53.4)"/>
        </g>
        <g id="Group_775" data-name="Group 775" transform="translate(0 0.957)">
          <circle id="Ellipse_8" data-name="Ellipse 8" class="cls-5" cx="4.021" cy="4.021" r="4.021" transform="translate(1.458 1.602) rotate(-1.05)"/>
          <path id="Path_1039" data-name="Path 1039" class="cls-4" d="M35.753,65.006a5.346,5.346,0,0,1-3.83-1.532,5.1,5.1,0,0,1-1.723-3.83,6.179,6.179,0,0,1,1.532-4.021,5.1,5.1,0,0,1,3.83-1.723,6.179,6.179,0,0,1,4.021,1.532,5.1,5.1,0,0,1,1.723,3.83,6.586,6.586,0,0,1-1.532,4.021,6.382,6.382,0,0,1-4.021,1.723Zm0-8.234h0a3.4,3.4,0,0,0-1.915.766,2.458,2.458,0,0,0-.766,1.915,3.4,3.4,0,0,0,.766,1.915,2.22,2.22,0,0,0,1.915.766h0a3.4,3.4,0,0,0,1.915-.766,2.458,2.458,0,0,0,.766-1.915A2.877,2.877,0,0,0,35.753,56.772Z" transform="translate(-30.2 -53.9)"/>
        </g>
      </g>
      <g id="Group_779" data-name="Group 779" transform="translate(-17608.205 -5379.194)">
        <path id="Path_1040" data-name="Path 1040" class="cls-4" d="M81.006,87.531a1.463,1.463,0,0,1-.957-.383L38.306,47.512a1.489,1.489,0,0,1,2.106-2.106L82.154,85.042a1.5,1.5,0,0,1,0,2.106A1.407,1.407,0,0,1,81.006,87.531Z" transform="translate(-31.871 -39.129)"/>
        <g id="Group_777" data-name="Group 777" transform="translate(46.747 44.437)">
          <circle id="Ellipse_9" data-name="Ellipse 9" class="cls-5" cx="4.021" cy="4.021" r="4.021" transform="matrix(0.689, -0.725, 0.725, 0.689, 0, 5.831)"/>
          <path id="Path_1041" data-name="Path 1041" class="cls-4" d="M64.765,76.318a6.081,6.081,0,0,1-3.83-1.532,5.553,5.553,0,1,1,7.851-.191,6.5,6.5,0,0,1-4.021,1.723Zm0-8.234a2.618,2.618,0,0,0-2.681,2.681,3.4,3.4,0,0,0,.766,1.915,2.711,2.711,0,1,0,3.638-4.021A2.341,2.341,0,0,0,64.765,68.084Z" transform="translate(-59.123 -65.076)"/>
        </g>
        <g id="Group_778" data-name="Group 778" transform="translate(0 0)">
          <circle id="Ellipse_10" data-name="Ellipse 10" class="cls-5" cx="4.021" cy="4.021" r="4.021" transform="matrix(0.689, -0.725, 0.725, 0.689, 0, 5.831)"/>
          <path id="Path_1042" data-name="Path 1042" class="cls-4" d="M40.353,53.118a6.081,6.081,0,0,1-3.83-1.532h0a5.1,5.1,0,0,1-1.723-3.83,6.179,6.179,0,0,1,1.532-4.021,5.553,5.553,0,1,1,4.021,9.382Zm-1.915-3.638a2.458,2.458,0,0,0,1.915.766,3.4,3.4,0,0,0,1.915-.766,2.781,2.781,0,0,0-2.106-4.6,3.4,3.4,0,0,0-1.915.766,2.458,2.458,0,0,0-.766,1.915,5.989,5.989,0,0,0,.957,1.915Z" transform="translate(-34.684 -41.862)"/>
        </g>
      </g>
      <path id="Path_1043" data-name="Path 1043" class="cls-4" d="M75.329,99.814a1.44,1.44,0,0,1-1.34-.957l-14.744-38.1-15.893,38.1a1.458,1.458,0,1,1-2.681-1.149L57.9,56.157a1.417,1.417,0,0,1,2.681,0L76.67,97.708a1.568,1.568,0,0,1-.766,1.915C75.521,99.814,75.521,99.814,75.329,99.814Z" transform="translate(-17637.654 -5408.969)"/>
      <path id="Path_1044" data-name="Path 1044" class="cls-4" d="M646.949,82.387H1.408C.6,82.387,0,81.19,0,79.594S.6,77,1.408,77H646.848c.8,0,1.408,1.2,1.408,2.793S647.653,82.387,646.949,82.387Z" transform="translate(-17841.256 -5389.027)"/>
      <path id="Path_1045" data-name="Path 1045" class="cls-4" d="M75.829,96H78.7V69.574h0c.191.191.383.191.766.383.191.191.574.383.766.574s.574.383.766.574.574.383.766.766c.383.191.574.574.766.766l.766.766,1.34,1.34.574.574c.191.191.383.383.383.574a4530.482,4530.482,0,0,0,.383.383v.191l.191.191c.191,0,.383,0,.383-.191V74.935c0-.383-.191-.574-.191-.957-.191-.383-.191-.766-.383-1.149L85.4,71.68a5.985,5.985,0,0,0-1.723-2.106c-.383-.383-.766-.574-1.149-.957-.383-.191-.766-.574-1.149-.766s-.574-.383-.957-.383H81a11.694,11.694,0,0,1,2.489.574,28.149,28.149,0,0,1,4.787,1.532c.383.191.574.191.957.383.191.191.574.191.574.383a6795.791,6795.791,0,0,0,.383.383.188.188,0,0,1,.191.191h.383c.191,0,.383-.191.191-.383v-.383a.593.593,0,0,0-.191-.383c-.191-.191-.191-.383-.383-.766-.191-.191-.383-.574-.766-.766a20.353,20.353,0,0,0-2.106-1.723,13.2,13.2,0,0,0-2.872-1.34c-.574-.191-.957-.191-1.532-.383-.574,0-1.149-.191-1.532-.191h-1.34c.383-.191.574-.383.957-.383.383-.191.574-.383.957-.383a3.235,3.235,0,0,1,.957-.383c.383-.191.766-.191.957-.383.766-.191,1.34-.383,1.915-.574.191,0,.574-.191.766-.191s.383-.191.574-.191h.574a.188.188,0,0,0,.191-.191.359.359,0,0,0,0-.574l-.191-.191a.669.669,0,0,0-.383-.191c-.191-.191-.383-.191-.766-.383a1.435,1.435,0,0,0-.957-.191C85.977,60,85.594,60,85.211,60h-1.34a13.415,13.415,0,0,0-2.681.574c-.383.191-.957.383-1.34.574a4.006,4.006,0,0,0-1.149.766,2.307,2.307,0,0,0-.957.957,3.362,3.362,0,0,0-.766.957c-.191.191-.191.383-.383.574,0-.191-.191-.191-.383-.383-.191-.383-.574-.574-.766-.766a11.623,11.623,0,0,0-1.915-1.34,2.722,2.722,0,0,0-1.149-.383,2.429,2.429,0,0,0-1.149-.191c-.383,0-.766-.191-1.149-.191h-.957c-.383,0-.574,0-.766.191-.191,0-.383.191-.574.191a.669.669,0,0,0-.383.191h-.191l-.191.191c0,.191,0,.383.191.383h.574c.191,0,.383.191.574.191s.383.191.574.191A22.858,22.858,0,0,1,72,64.213c.191.191.383.191.574.383h-.766c-.574,0-.957.191-1.532.191-.574.191-.957.191-1.532.383-.383.191-.957.383-1.34.574a4.8,4.8,0,0,0-1.34.766,8.624,8.624,0,0,0-1.915,1.723c-.191.191-.383.574-.574.766a1.452,1.452,0,0,0-.383.766A.7.7,0,0,0,63,70.34v.574a.7.7,0,0,0,.574.191h.191a.669.669,0,0,1,.383-.191c.191,0,.383-.191.574-.383s.574-.191.766-.383a23.636,23.636,0,0,1,4.4-1.532c.766-.191,1.532-.383,2.106-.574-.191.191-.383.191-.383.383-.383.383-.766.574-1.149.957a5.077,5.077,0,0,0-.957,1.149,17.483,17.483,0,0,0-1.532,2.489c-.191.383-.383.957-.574,1.34s-.191.766-.383,1.149a8.294,8.294,0,0,1-.191.957V78c0,.191,0,.191.191.191.191.191.383,0,.574-.191v-.191c0-.191.191-.191.191-.383.191-.383.574-.766.957-1.34a10.524,10.524,0,0,1,1.34-1.723c.191-.383.574-.574.766-.957s.574-.574.766-.957a14.625,14.625,0,0,1,1.723-1.723,6.276,6.276,0,0,1,1.532-1.149c.191-.191.383-.191.574-.383h0v.574Z" transform="translate(-17617.092 -5404.578)"/>
      <path id="Path_1046" data-name="Path 1046" class="cls-4" d="M82.1,104.346h2.872V58.582h0c.191.191.383.191.766.383.191.191.574.383.766.574s.574.383.766.574.574.383.766.766c.383.191.574.574.766.766l.766.766,1.34,1.34.574.574c.191.191.383.383.383.574a13592.26,13592.26,0,0,1,.383.383v.191l.191.191c.191,0,.383,0,.383-.191V63.944c0-.383-.191-.574-.191-.957-.191-.383-.191-.766-.383-1.149l-.574-1.149a5.985,5.985,0,0,0-1.723-2.106c-.383-.383-.766-.574-1.149-.957-.383-.191-.766-.574-1.149-.766s-.574-.383-.957-.383h.574a11.694,11.694,0,0,1,2.489.574,28.152,28.152,0,0,1,4.787,1.532c.383.191.574.191.957.383.191.191.574.191.574.383a6795.521,6795.521,0,0,0,.383.383.188.188,0,0,1,.191.191h.383c.191,0,.383-.191.191-.383v-.383a.593.593,0,0,0-.191-.383c-.191-.191-.191-.383-.383-.766-.191-.191-.383-.574-.766-.766a20.354,20.354,0,0,0-2.106-1.723,13.2,13.2,0,0,0-2.872-1.34c-.574-.191-.957-.191-1.532-.383-.574,0-1.149-.191-1.532-.191h-1.34c.383-.191.574-.383.957-.383.383-.191.574-.383.957-.383a3.235,3.235,0,0,1,.957-.383c.383-.191.766-.191.957-.383.766-.191,1.34-.383,1.915-.574.191,0,.574-.191.766-.191s.383-.191.574-.191h.574a.188.188,0,0,0,.191-.191.359.359,0,0,0,0-.574l-.191-.191a.669.669,0,0,0-.383-.191c-.191-.191-.383-.191-.766-.383a1.435,1.435,0,0,0-.957-.191c-.383,0-.766-.191-1.149-.191h-1.34a13.415,13.415,0,0,0-2.681.574c-.383.191-.957.383-1.34.574a4.006,4.006,0,0,0-1.149.766,2.307,2.307,0,0,0-.957.957,3.362,3.362,0,0,0-.766.957c-.191.191-.191.383-.383.574,0-.191-.191-.191-.383-.383-.191-.383-.574-.574-.766-.766a11.625,11.625,0,0,0-1.915-1.34,2.722,2.722,0,0,0-1.149-.383,2.429,2.429,0,0,0-1.149-.191c-.383,0-.766-.191-1.149-.191h-.957c-.383,0-.574,0-.766.191-.191,0-.383.191-.574.191a.668.668,0,0,0-.383.191h-.191l-.191.191c0,.191,0,.383.191.383h.574c.191,0,.383.191.574.191s.383.191.574.191A22.859,22.859,0,0,1,77.7,53.412c.191.191.383.191.574.383h-.766c-.574,0-.957.191-1.532.191-.574.191-.957.191-1.532.383-.383.191-.957.383-1.34.574a4.8,4.8,0,0,0-1.34.766,8.623,8.623,0,0,0-1.915,1.723c-.191.191-.383.574-.574.766a1.452,1.452,0,0,0-.383.766.7.7,0,0,0-.191.574v.574a.7.7,0,0,0,.574.191h.191a.669.669,0,0,1,.383-.191c.191,0,.383-.191.574-.383s.574-.191.766-.383a23.637,23.637,0,0,1,4.4-1.532c.766-.191,1.532-.383,2.106-.574-.191.191-.383.191-.383.383-.383.383-.766.574-1.149.957a5.077,5.077,0,0,0-.957,1.149,17.482,17.482,0,0,0-1.532,2.489c-.191.383-.383.957-.574,1.34s-.191.766-.383,1.149a8.293,8.293,0,0,1-.191.957V67.2c0,.191,0,.191.191.191.191.191.383,0,.574-.191v-.191c0-.191.191-.191.191-.383.191-.383.574-.766.957-1.34a10.523,10.523,0,0,1,1.34-1.723c.191-.383.574-.574.766-.957s.574-.574.766-.957a14.624,14.624,0,0,1,1.723-1.723,6.276,6.276,0,0,1,1.532-1.149c.191-.191.383-.191.574-.383h0v.574Z" transform="translate(-17611.877 -5414.458)"/>
      <path id="Path_1047" data-name="Path 1047" class="cls-4" d="M32.8,95.972h2.872V68.782h0c.191.191.383.191.766.383.191.191.574.383.766.574s.574.383.766.574.574.383.766.766c.383.191.574.574.766.766l.766.766,1.34,1.34.574.574c.191.191.383.383.383.574a27184.926,27184.926,0,0,0,.383.383v.191l.191.191c.191,0,.383,0,.383-.191V74.144c0-.383-.191-.574-.191-.957-.191-.383-.191-.766-.383-1.149l-.574-1.149a5.985,5.985,0,0,0-1.723-2.106c-.383-.383-.766-.574-1.149-.957-.383-.191-.766-.574-1.149-.766s-.574-.383-.957-.383h.574a11.693,11.693,0,0,1,2.489.574,28.149,28.149,0,0,1,4.787,1.532c.383.191.574.191.957.383.191.191.574.191.574.383a81551.8,81551.8,0,0,1,.574.574h.383c.191,0,.383-.191.191-.383v-.383a.593.593,0,0,0-.191-.383c-.191-.191-.191-.383-.383-.766-.191-.191-.383-.574-.766-.766a20.35,20.35,0,0,0-2.106-1.723,13.2,13.2,0,0,0-2.872-1.34c-.574-.191-.957-.191-1.532-.383-.574,0-1.149-.191-1.532-.191h-1.34c.383-.191.574-.383.957-.383.383-.191.574-.383.957-.383a3.235,3.235,0,0,1,.957-.383c.383-.191.766-.191.957-.383.766-.191,1.34-.383,1.915-.574.191,0,.574-.191.766-.191s.383-.191.574-.191h.574a.188.188,0,0,0,.191-.191.359.359,0,0,0,0-.574l-.191-.191a.669.669,0,0,0-.383-.191c-.191-.191-.383-.191-.766-.383a1.435,1.435,0,0,0-.957-.191c-.383,0-.766-.191-1.149-.191h-1.34a13.414,13.414,0,0,0-2.681.574c-.383.191-.957.383-1.34.574a4.006,4.006,0,0,0-1.149.766,2.307,2.307,0,0,0-.957.957,3.362,3.362,0,0,0-.766.957c-.191.191-.191.383-.383.574,0-.191-.191-.191-.383-.383-.191-.383-.574-.574-.766-.766a11.623,11.623,0,0,0-1.915-1.34,2.721,2.721,0,0,0-1.149-.383,2.429,2.429,0,0,0-1.149-.191c-.383,0-.766-.191-1.149-.191h-.957c-.383,0-.574,0-.766.191-.191,0-.383.191-.574.191a.669.669,0,0,0-.383.191h-.191l-.191.191c0,.191,0,.383.191.383h.574c.191,0,.383.191.574.191s.383.191.574.191A22.86,22.86,0,0,1,28.4,63.613c.191.191.383.191.574.383h-.766c-.574,0-.957.191-1.532.191-.574.191-.957.191-1.532.383-.383.191-.957.383-1.34.574a4.8,4.8,0,0,0-1.34.766,8.624,8.624,0,0,0-1.915,1.723c-.191.191-.383.574-.574.766a1.452,1.452,0,0,0-.383.766.7.7,0,0,0-.191.574v.574a.7.7,0,0,0,.574.191h.191a.669.669,0,0,1,.383-.191c.191,0,.383-.191.574-.383s.574-.191.766-.383a23.636,23.636,0,0,1,4.4-1.532c.766-.191,1.532-.383,2.106-.574-.191.191-.383.191-.383.383-.383.383-.766.574-1.149.957a5.076,5.076,0,0,0-.957,1.149,17.479,17.479,0,0,0-1.532,2.489c-.191.383-.383.957-.574,1.34s-.191.766-.383,1.149a8.293,8.293,0,0,1-.191.957V77.4c0,.191,0,.191.191.191.191.191.383,0,.574-.191v-.191c0-.191.191-.191.191-.383.191-.383.574-.766.957-1.34a10.523,10.523,0,0,1,1.34-1.723c.191-.383.574-.574.766-.957s.574-.574.766-.957a14.624,14.624,0,0,1,1.723-1.723,6.276,6.276,0,0,1,1.532-1.149c.191-.191.383-.191.574-.383h0v.574Z" transform="translate(-17656.977 -5405.127)"/>
      <path id="Path_1048" data-name="Path 1048" class="cls-4" d="M14.438,95.972H17.5V68.782h0c.191.191.383.191.766.383.191.191.574.383.766.574s.574.383.766.574.574.383.766.766c.383.191.574.574.766.766l.766.766,1.34,1.34.574.574c.191.191.383.383.383.574a9527734916538.93,9527734916538.93,0,0,1,.383.383v.191l.191.191c.191,0,.383,0,.383-.191V74.144c0-.383-.191-.574-.191-.957-.191-.383-.191-.766-.383-1.149L24.2,70.889a5.985,5.985,0,0,0-1.723-2.106c-.383-.383-.766-.574-1.149-.957-.383-.191-.766-.574-1.149-.766s-.574-.383-.957-.383H19.8a11.693,11.693,0,0,1,2.489.574,28.149,28.149,0,0,1,4.787,1.532c.383.191.574.191.957.383.191.191.574.191.574.383a9061.266,9061.266,0,0,1,.383.383.188.188,0,0,1,.191.191h.383c.191,0,.383-.191.191-.383v-.383a.593.593,0,0,0-.191-.383c-.191-.191-.191-.383-.383-.766-.191-.191-.383-.574-.766-.766a20.349,20.349,0,0,0-2.106-1.723,13.2,13.2,0,0,0-2.872-1.34c-.574-.191-.957-.191-1.532-.383-.574,0-1.149-.191-1.532-.191h-1.34c.383-.191.574-.383.957-.383.383-.191.574-.383.957-.383a3.235,3.235,0,0,1,.957-.383c.383-.191.766-.191.957-.383.766-.191,1.34-.383,1.915-.574.191,0,.574-.191.766-.191s.383-.191.574-.191h.574a.188.188,0,0,0,.191-.191.359.359,0,0,0,0-.574l-.191-.191a.669.669,0,0,0-.383-.191c-.191-.191-.383-.191-.766-.383a1.435,1.435,0,0,0-.957-.191c-.383,0-.766-.191-1.149-.191H22.1a13.414,13.414,0,0,0-2.681.574c-.383.191-.957.383-1.34.574a4.006,4.006,0,0,0-1.149.766,2.307,2.307,0,0,0-.957.957,3.362,3.362,0,0,0-.766.957c-.191.191-.191.383-.383.574,0-.191-.191-.191-.383-.383-.191-.383-.574-.574-.766-.766a11.623,11.623,0,0,0-1.915-1.34,2.721,2.721,0,0,0-1.149-.383,2.429,2.429,0,0,0-1.149-.191c-.383,0-.766-.191-1.149-.191H7.353c-.383,0-.574,0-.766.191-.191,0-.383.191-.574.191a.669.669,0,0,0-.383.191H5.438l-.191.191c0,.191,0,.383.191.383h.574c.191,0,.383.191.574.191s.383.191.574.191a22.86,22.86,0,0,1,3.064,1.532c.191.191.383.191.574.383h-.766c-.574,0-.957.191-1.532.191-.574.191-.957.191-1.532.383-.383.191-.957.383-1.34.574a4.8,4.8,0,0,0-1.34.766,8.624,8.624,0,0,0-1.915,1.723c-.191.191-.383.574-.574.766.574.574.383.766.383.957a.7.7,0,0,0-.191.574v.574a.7.7,0,0,0,.574.191h.191a.669.669,0,0,1,.383-.191c.191,0,.383-.191.574-.383s.574-.191.766-.383a23.637,23.637,0,0,1,4.4-1.532c.766-.191,1.532-.383,2.106-.574-.191.191-.383.191-.383.383-.383.383-.766.574-1.149.957A5.077,5.077,0,0,0,8.5,70.123,17.481,17.481,0,0,0,6.97,72.612c-.191.383-.383.957-.574,1.34-.383,0-.574.383-.574.766a8.292,8.292,0,0,1-.191.957v1.532c0,.191,0,.191.191.191.191.191.383,0,.574-.191v-.191c0-.191.191-.191.191-.383.191-.383.574-.766.957-1.34a10.523,10.523,0,0,1,1.34-1.723c.191-.383.574-.574.766-.957s.574-.574.766-.957a14.624,14.624,0,0,1,1.723-1.723,6.276,6.276,0,0,1,1.532-1.149c.191-.191.383-.191.574-.383h0v.574Z" transform="translate(-17673.078 -5405.127)"/>
    </g>
  </g>
</svg>
