<svg xmlns="http://www.w3.org/2000/svg" viewBox="8238 1993 238.26 187.46">
  <defs>
    <style>
      .cls-1 {
        fill: #41c0c2;
        opacity: 0.5;
      }

      .cls-2 {
        fill: #fff;
      }

      .cls-3 {
        fill: #dcddde;
      }

      .cls-4 {
        fill: #ee6a4d;
      }

      .cls-5 {
        fill: #929497;
      }

      .cls-6 {
        fill: #f7ce22;
      }

      .cls-7 {
        fill: #f6cd24;
      }
    </style>
  </defs>
  <g id="Drone_on_a_Shelf" transform="translate(8238 1993.03)">
    <circle id="Ellipse_81" data-name="Ellipse 81" class="cls-1" cx="2.02" cy="2.02" r="2.02" transform="translate(187.5 176.91)"/>
    <path id="Path_6785" data-name="Path 6785" class="cls-1" d="M307.82,385.48H307l-34.71-20H105.08l-34.71,20h-.79V394h43.28v29.46h11V394h129.7v29.46h11V394h43.28ZM105.66,367.59H271.74l31,17.89h-228Zm15.83,53.52H115.2V394h6.28Zm140.7,0h-6.28V394h6.28Zm43.47-29.27H71.73v-4.21H305.66Z" transform="translate(-69.58 -236.03)"/>
    <circle id="Ellipse_82" data-name="Ellipse 82" class="cls-1" cx="2.02" cy="2.02" r="2.02" transform="translate(46.79 176.91)"/>
    <rect id="Rectangle_212" data-name="Rectangle 212" class="cls-2" width="7.57" height="46.33" transform="translate(68.56 93.01)"/>
    <path id="Path_6786" data-name="Path 6786" class="cls-2" d="M50.12,80.21H39.91V140.6H50.12v-1.27h8.23V88.82H50.12Z"/>
    <path id="Path_6787" data-name="Path 6787" class="cls-3" d="M146.43,328.31h-7.72v-7.76H127.35v3.57h-6.93v-8.6H108.76v12.94h-7.42v47.48h7.42v1.41h11.66v-1.27h6.93v1.12h11.36v-1.12h7.72ZM110.21,317H119v58.9h-8.77Zm17,57.68h-6.78V325.56h6.78Zm17.78,0h-6.13V329.75H145Z" transform="translate(-69.58 -236.03)"/>
    <path id="Path_6788" data-name="Path 6788" class="cls-3" d="M115.69,366.41a.82.82,0,0,1,.82.82v.7h-3.94v-.7a.82.82,0,0,1,.82-.82Zm-2.31.3a.51.51,0,0,0-.51.51v.4h3.34v-.4a.51.51,0,0,0-.51-.51Z" transform="translate(-69.58 -236.03)"/>
    <path id="Path_6789" data-name="Path 6789" class="cls-3" d="M116.5,363.79v.3h-1.3a.51.51,0,0,0-.51.51v.4h1.82v.3h-3.94v-.67a.82.82,0,0,1,.82-.82h.48a.82.82,0,0,1,.67.34.83.83,0,0,1,.67-.34Zm-2.13.82a.51.51,0,0,0-.51-.51h-.48a.51.51,0,0,0-.51.51V365h1.51Z" transform="translate(-69.58 -236.03)"/>
    <path id="Path_6790" data-name="Path 6790" class="cls-3" d="M113.26,362.71a.76.76,0,0,1,0-1.52h2.54a.76.76,0,1,1,0,1.52Zm2.54-.3a.46.46,0,1,0,0-.91h-2.54a.46.46,0,1,0,0,.91Z" transform="translate(-69.58 -236.03)"/>
    <path id="Path_6791" data-name="Path 6791" class="cls-3" d="M112.56,360v-.37l3-.93h-3v-.3h3.94v.3l-3.15,1h3.15v.3Z" transform="translate(-69.58 -236.03)"/>
    <path id="Path_6792" data-name="Path 6792" class="cls-3" d="M112.86,357h1.51v-.71h.31V357h1.51v-1h.3v1.31h-3.94V356h.3Z" transform="translate(-69.58 -236.03)"/>
    <path id="Path_6793" data-name="Path 6793" class="cls-3" d="M112.86,353.3h1.51v-.71h.31v.71h1.51v-1h.3v1.31h-3.94v-1.26h.3Z" transform="translate(-69.58 -236.03)"/>
    <path id="Path_6794" data-name="Path 6794" class="cls-3" d="M114.54,350.44l2-.65v.3l-1.66.55h0l1.66.55v.3l-2-.65-2,.65v-.3l1.66-.55h0l-1.66-.55v-.3Z" transform="translate(-69.58 -236.03)"/>
    <path id="Path_6795" data-name="Path 6795" class="cls-3" d="M114.79,348.52h1.72v.3h-3.94v-.67a.82.82,0,0,1,.82-.82H114a.82.82,0,0,1,.82.82Zm-.3-.37a.51.51,0,0,0-.51-.51h-.59a.51.51,0,0,0-.51.51v.37h1.62Z" transform="translate(-69.58 -236.03)"/>
    <path id="Path_6796" data-name="Path 6796" class="cls-3" d="M112.86,346h1.51v-.71h.31V346h1.51v-1h.3v1.31h-3.94v-1.26h.3Z" transform="translate(-69.58 -236.03)"/>
    <path id="Path_6797" data-name="Path 6797" class="cls-3" d="M116.5,342.51v.3h-1.3a.51.51,0,0,0-.51.51v.37h1.82v.3h-3.94v-.67a.82.82,0,0,1,.82-.82h.48a.82.82,0,0,1,.67.34.83.83,0,0,1,.67-.34Zm-2.13.82a.51.51,0,0,0-.51-.51h-.48a.51.51,0,0,0-.51.51v.37h1.51Z" transform="translate(-69.58 -236.03)"/>
    <path id="Path_6798" data-name="Path 6798" class="cls-3" d="M112.86,340.24v.54h3.64v.31h-3.64v.55h-.3v-1.4Z" transform="translate(-69.58 -236.03)"/>
    <path id="Path_6799" data-name="Path 6799" class="cls-2" d="M134.52,362.4a.82.82,0,0,1,.82.82v.7H131.4v-.7a.82.82,0,0,1,.82-.82Zm-2.31.3a.51.51,0,0,0-.51.51v.4H135v-.4a.51.51,0,0,0-.51-.51Z" transform="translate(-69.58 -236.03)"/>
    <path id="Path_6800" data-name="Path 6800" class="cls-2" d="M135.34,359.78v.3H134a.51.51,0,0,0-.51.51V361h1.82v.3h-3.94v-.67a.82.82,0,0,1,.82-.82h.48a.82.82,0,0,1,.67.34.83.83,0,0,1,.67-.34Zm-2.13.82a.51.51,0,0,0-.51-.51h-.48a.51.51,0,0,0-.51.51v.4h1.51Z" transform="translate(-69.58 -236.03)"/>
    <path id="Path_6801" data-name="Path 6801" class="cls-2" d="M132.09,358.7a.76.76,0,0,1,0-1.52h2.54a.76.76,0,0,1,0,1.52Zm2.54-.3a.46.46,0,0,0,0-.91h-2.54a.46.46,0,0,0,0,.91Z" transform="translate(-69.58 -236.03)"/>
    <path id="Path_6802" data-name="Path 6802" class="cls-2" d="M131.39,356v-.37l3-.93h-3v-.3h3.94v.3l-3.15,1h3.15v.3Z" transform="translate(-69.58 -236.03)"/>
    <path id="Path_6803" data-name="Path 6803" class="cls-2" d="M131.7,353h1.51v-.71h.31V353H135v-1h.3v1.31h-3.94V352h.3Z" transform="translate(-69.58 -236.03)"/>
    <path id="Path_6804" data-name="Path 6804" class="cls-2" d="M135.34,348.1v.3H134a.51.51,0,0,0-.51.51v.37h1.82v.3h-3.94v-.67a.82.82,0,0,1,.82-.82h.48a.82.82,0,0,1,.67.34.83.83,0,0,1,.67-.34Zm-2.13.82a.51.51,0,0,0-.51-.51h-.48a.51.51,0,0,0-.51.51v.37h1.51Z" transform="translate(-69.58 -236.03)"/>
    <path id="Path_6805" data-name="Path 6805" class="cls-2" d="M135.34,345.49v.3l-1,.16v.8l1,.15v.3l-3.94-.6v-.51ZM134,346.71V346l-2.29.34h0Z" transform="translate(-69.58 -236.03)"/>
    <path id="Path_6806" data-name="Path 6806" class="cls-2" d="M132.71,343.35h-.62a.46.46,0,0,0,0,.91h2.54a.46.46,0,0,0,0-.91h-.54V343h.54a.76.76,0,0,1,0,1.52h-2.54a.76.76,0,1,1,0-1.52h.58Z" transform="translate(-69.58 -236.03)"/>
    <path id="Path_6807" data-name="Path 6807" class="cls-2" d="M135.34,342H131.4v-.3h3.94Z" transform="translate(-69.58 -236.03)"/>
    <path id="Path_6808" data-name="Path 6808" class="cls-2" d="M131.39,340.5v-.37l3-.93h-3v-.3h3.94v.3l-3.15,1h3.15v.3Z" transform="translate(-69.58 -236.03)"/>
    <path id="Path_6809" data-name="Path 6809" class="cls-2" d="M133.31,337v-.76h2.08l-.05.26h-.13a.76.76,0,0,1-.57,1.26H132.1a.76.76,0,1,1,0-1.52h.47v.3h-.5a.46.46,0,0,0,0,.91h2.54a.46.46,0,0,0,0-.91h-1V337Z" transform="translate(-69.58 -236.03)"/>
    <path id="Path_6810" data-name="Path 6810" class="cls-2" d="M104.66,361v.42h2.8v.24h-2.8v.42h-.23V361Z" transform="translate(-69.58 -236.03)"/>
    <path id="Path_6811" data-name="Path 6811" class="cls-2" d="M104.66,360h1.16v-.54h.24V360h1.16v-.77h.23v1h-3v-1h.23Z" transform="translate(-69.58 -236.03)"/>
    <path id="Path_6812" data-name="Path 6812" class="cls-2" d="M105.44,357.61H105a.35.35,0,0,0,0,.7h2a.35.35,0,0,0,0-.7h-.41v-.23H107a.585.585,0,1,1,0,1.17h-2a.585.585,0,0,1,0-1.17h.45Z" transform="translate(-69.58 -236.03)"/>
    <path id="Path_6813" data-name="Path 6813" class="cls-2" d="M104.43,355.38h3v.23h-1.4v.7h1.4v.23h-3v-.23h1.4v-.7h-1.4Z" transform="translate(-69.58 -236.03)"/>
    <path id="Path_6814" data-name="Path 6814" class="cls-2" d="M104.43,354.49v-.28l2.3-.72h-2.3v-.23h3v.23l-2.43.76h2.43v.23Z" transform="translate(-69.58 -236.03)"/>
    <path id="Path_6815" data-name="Path 6815" class="cls-2" d="M105,352.37a.585.585,0,1,1,0-1.17h2a.585.585,0,1,1,0,1.17Zm2-.23a.35.35,0,0,0,0-.7h-2a.35.35,0,0,0,0,.7Z" transform="translate(-69.58 -236.03)"/>
    <path id="Path_6816" data-name="Path 6816" class="cls-2" d="M107.23,349.36h.23v1h-3v-.23h2.8Z" transform="translate(-69.58 -236.03)"/>
    <path id="Path_6817" data-name="Path 6817" class="cls-2" d="M105,348.63a.585.585,0,1,1,0-1.17h2a.585.585,0,1,1,0,1.17Zm2-.23a.35.35,0,0,0,0-.7h-2a.35.35,0,0,0,0,.7Z" transform="translate(-69.58 -236.03)"/>
    <path id="Path_6818" data-name="Path 6818" class="cls-2" d="M105.91,346v-.58h1.6v.2h-.1a.59.59,0,0,1-.44,1h-2a.585.585,0,1,1,0-1.17h.36v.23H105a.35.35,0,0,0,0,.7h2a.35.35,0,0,0,0-.7h-.78V346Z" transform="translate(-69.58 -236.03)"/>
    <path id="Path_6819" data-name="Path 6819" class="cls-2" d="M104.43,344.82v-.23l1.28-.42h0l-1.28-.42v-.23l1.64.54h1.39v.23h-1.39Z" transform="translate(-69.58 -236.03)"/>
    <path id="Path_6820" data-name="Path 6820" class="cls-3" d="M122.39,364v-.26l2.09-.65h-2.09v-.21h2.75v.21l-2.2.69h2.2V364Z" transform="translate(-69.58 -236.03)"/>
    <path id="Path_6821" data-name="Path 6821" class="cls-3" d="M125.14,361v.21l-.71.11v.56l.71.11v.21l-2.75-.42v-.36Zm-.92.85v-.49l-1.6.24h0Z" transform="translate(-69.58 -236.03)"/>
    <path id="Path_6822" data-name="Path 6822" class="cls-3" d="M122.6,359.59V360h2.54v.22H122.6v.38h-.21v-1Z" transform="translate(-69.58 -236.03)"/>
    <path id="Path_6823" data-name="Path 6823" class="cls-3" d="M122.39,357.85h2.26a.53.53,0,1,1,0,1.06h-2.26v-.21h2.26a.32.32,0,1,0,0-.64h-2.26Z" transform="translate(-69.58 -236.03)"/>
    <path id="Path_6824" data-name="Path 6824" class="cls-3" d="M125.14,356v.21h-.91a.36.36,0,0,0-.36.36v.26h1.27V357h-2.75v-.47A.57.57,0,0,1,123,356h.34a.57.57,0,0,0,.93,0Zm-1.48.57a.36.36,0,0,0-.36-.36H123a.36.36,0,0,0-.36.36v.26h1.06Z" transform="translate(-69.58 -236.03)"/>
    <path id="Path_6825" data-name="Path 6825" class="cls-3" d="M122.6,355h1.06v-.49h.22V355h1.06v-.7h.21v.91H122.4v-.88h.21Z" transform="translate(-69.58 -236.03)"/>
    <path id="Path_6826" data-name="Path 6826" class="cls-3" d="M122.6,352.47h1.06V352h.22v.49h1.06v-.7h.21v.91H122.4v-.88h.21Z" transform="translate(-69.58 -236.03)"/>
    <path id="Path_6827" data-name="Path 6827" class="cls-3" d="M123.77,350.47l1.37-.46v.21l-1.16.38h0l1.16.38v.21l-1.37-.46-1.38.46V351l1.16-.38h0l-1.16-.38V350Z" transform="translate(-69.58 -236.03)"/>
    <path id="Path_6828" data-name="Path 6828" class="cls-3" d="M123.94,349.14h1.2v.21h-2.75v-.47a.57.57,0,0,1,.57-.57h.41a.57.57,0,0,1,.57.57Zm-.21-.26a.36.36,0,0,0-.36-.36H123a.36.36,0,0,0-.36.36v.26h1.13Z" transform="translate(-69.58 -236.03)"/>
    <path id="Path_6829" data-name="Path 6829" class="cls-3" d="M124.93,346.72h.21v.88h-2.75v-.21h2.54Z" transform="translate(-69.58 -236.03)"/>
    <path id="Path_6830" data-name="Path 6830" class="cls-3" d="M122.88,346.06a.53.53,0,1,1,0-1.06h1.77a.53.53,0,0,1,0,1.06Zm1.77-.21a.32.32,0,1,0,0-.64h-1.77a.32.32,0,0,0,0,.64Z" transform="translate(-69.58 -236.03)"/>
    <path id="Path_6831" data-name="Path 6831" class="cls-3" d="M125.14,343.17v.21h-.91a.36.36,0,0,0-.36.36V344h1.27v.21h-2.75v-.47a.57.57,0,0,1,.57-.57h.34a.57.57,0,0,0,.93,0Zm-1.48.57a.36.36,0,0,0-.36-.36H123a.36.36,0,0,0-.36.36V344h1.06Z" transform="translate(-69.58 -236.03)"/>
    <path id="Path_6832" data-name="Path 6832" class="cls-3" d="M122.6,342.18h1.06v-.49h.22v.49h1.06v-.7h.21v.91H122.4v-.88h.21Z" transform="translate(-69.58 -236.03)"/>
    <path id="Path_6833" data-name="Path 6833" class="cls-3" d="M125.14,339.75V340h-.91a.36.36,0,0,0-.36.36v.26h1.27v.21h-2.75v-.47a.57.57,0,0,1,.57-.57h.34a.57.57,0,0,0,.93,0Zm-1.48.57a.36.36,0,0,0-.36-.36H123a.36.36,0,0,0-.36.36v.26h1.06Z" transform="translate(-69.58 -236.03)"/>
    <path id="Path_6834" data-name="Path 6834" class="cls-3" d="M142.87,370.32a.53.53,0,0,1,.53.53v.45h-2.54v-.45a.53.53,0,0,1,.53-.53Zm-1.49.2a.33.33,0,0,0-.33.33v.26h2.15v-.26a.33.33,0,0,0-.33-.33Z" transform="translate(-69.58 -236.03)"/>
    <path id="Path_6835" data-name="Path 6835" class="cls-3" d="M143.4,368.63v.2h-.84a.33.33,0,0,0-.33.33v.24h1.18v.2h-2.54v-.43a.53.53,0,0,1,.53-.53h.31a.53.53,0,0,0,.86,0Zm-1.37.53a.33.33,0,0,0-.33-.33h-.31a.33.33,0,0,0-.33.33v.24h1Z" transform="translate(-69.58 -236.03)"/>
    <path id="Path_6836" data-name="Path 6836" class="cls-3" d="M141.31,367.93a.5.5,0,0,1,0-1h1.64a.5.5,0,0,1,0,1Zm1.64-.2a.295.295,0,0,0,0-.59h-1.64a.3.3,0,0,0,0,.59Z" transform="translate(-69.58 -236.03)"/>
    <path id="Path_6837" data-name="Path 6837" class="cls-3" d="M140.85,366.21V366l1.93-.6h-1.93v-.2h2.54v.2l-2,.64h2v.2Z" transform="translate(-69.58 -236.03)"/>
    <path id="Path_6838" data-name="Path 6838" class="cls-3" d="M141.05,364.22h1v-.46h.2v.46h1v-.65h.2v.84h-2.54v-.81h.2Z" transform="translate(-69.58 -236.03)"/>
    <path id="Path_6839" data-name="Path 6839" class="cls-3" d="M143.4,361.08v.2h-.84a.33.33,0,0,0-.33.33v.24h1.18v.2h-2.54v-.43a.53.53,0,0,1,.53-.53h.31a.53.53,0,0,0,.86,0Zm-1.37.53a.33.33,0,0,0-.33-.33h-.31a.33.33,0,0,0-.33.33v.24h1Z" transform="translate(-69.58 -236.03)"/>
    <path id="Path_6840" data-name="Path 6840" class="cls-3" d="M141.05,360.17h1v-.46h.2v.46h1v-.65h.2v.84h-2.54v-.81h.2Z" transform="translate(-69.58 -236.03)"/>
    <path id="Path_6841" data-name="Path 6841" class="cls-3" d="M142.1,358.43v-.49h1.34v.17h-.09a.48.48,0,0,1,.12.32.49.49,0,0,1-.49.49h-1.64a.5.5,0,0,1,0-1h.3v.2h-.32a.295.295,0,1,0,0,.59h1.64a.3.3,0,0,0,0-.59h-.66v.29Z" transform="translate(-69.58 -236.03)"/>
    <path id="Path_6842" data-name="Path 6842" class="cls-3" d="M140.85,356.24h2.09a.5.5,0,0,1,0,1h-2.09V357h2.09a.3.3,0,0,0,0-.59h-2.09Z" transform="translate(-69.58 -236.03)"/>
    <path id="Path_6843" data-name="Path 6843" class="cls-3" d="M143.2,354.68h.2v.81h-2.54v-.2h2.35Z" transform="translate(-69.58 -236.03)"/>
    <path id="Path_6844" data-name="Path 6844" class="cls-3" d="M143.4,353.08v.2l-.65.1v.52l.65.1v.2l-2.54-.39v-.33Zm-.85.78v-.46l-1.48.22h0Z" transform="translate(-69.58 -236.03)"/>
    <path id="Path_6845" data-name="Path 6845" class="cls-3" d="M141.05,351.76v.35h2.35v.2h-2.35v.35h-.2v-.9Z" transform="translate(-69.58 -236.03)"/>
    <path id="Path_6846" data-name="Path 6846" class="cls-3" d="M143.4,351.12h-2.54v-.2h2.54Z" transform="translate(-69.58 -236.03)"/>
    <path id="Path_6847" data-name="Path 6847" class="cls-3" d="M141.31,350.19a.5.5,0,0,1,0-1h1.64a.5.5,0,0,1,0,1Zm1.64-.2a.3.3,0,0,0,0-.59h-1.64a.295.295,0,1,0,0,.59Z" transform="translate(-69.58 -236.03)"/>
    <path id="Path_6848" data-name="Path 6848" class="cls-3" d="M140.85,348.47v-.24l1.93-.6h-1.93v-.2h2.54v.2l-2,.64h2v.2Z" transform="translate(-69.58 -236.03)"/>
    <path id="Path_6849" data-name="Path 6849" class="cls-3" d="M141.79,346.62a.55.55,0,0,1-.32.11h-.17a.5.5,0,0,1,0-1h.32v.2h-.34a.295.295,0,1,0,0,.59h.17a.32.32,0,0,0,.19-.07l.71-.6a.56.56,0,0,1,.32-.12h.24a.5.5,0,1,1,0,1h-.37v-.2h.39a.3.3,0,0,0,0-.59h-.24a.34.34,0,0,0-.2.07Z" transform="translate(-69.58 -236.03)"/>
    <path id="Path_6850" data-name="Path 6850" class="cls-3" d="M267,348.59a17.06,17.06,0,0,0,11.23-5.09c6.38-6.62,6.06-17.11,6-17.55v-1.24h-11.4v-3.32H246.58v3.32H235.2v1.24c0,.44-.33,10.93,6,17.55a17.05,17.05,0,0,0,11.23,5.09,13.15,13.15,0,0,0,5.25,2.11v19.61h-8.76c-.92,0-3.32,3.69-3.32,3.69h28.21s-2.4-3.69-3.32-3.69h-8.76V350.69A13.111,13.111,0,0,0,267,348.59Zm5.85-11.14V327.28h8.83c-.12,2.83-.89,9.85-5.31,14.43a13.72,13.72,0,0,1-6.06,3.64,13.52,13.52,0,0,0,2.52-7.9Zm-29.76,4.27c-4.42-4.58-5.19-11.6-5.31-14.43h8.83v10.16a13.49,13.49,0,0,0,2.54,7.91,13.75,13.75,0,0,1-6.08-3.65Zm16.66-2.32-5.12,3.71,1.64-6-4.83-3.7,6.05-.17,2.22-5.87,2.23,5.85,6.07.15-4.8,3.71,1.66,6Z" transform="translate(-69.58 -236.03)"/>
    <path id="Path_6851" data-name="Path 6851" class="cls-4" d="M198.59,365.07h-7.91a3,3,0,0,0-2.94,2.94v7.91a3,3,0,0,0,2.94,2.94h7.91a3,3,0,0,0,2.94-2.94V368a3,3,0,0,0-2.94-2.93Zm-4,11a4.085,4.085,0,1,1,.05,0Z" transform="translate(-69.58 -236.03)"/>
    <path id="Path_6852" data-name="Path 6852" class="cls-4" d="M194.65,369.27h-.15a1.71,1.71,0,1,1-2.58,2.06,2.82,2.82,0,0,0-.12.78,2.85,2.85,0,1,0,2.85-2.85Z" transform="translate(-69.58 -236.03)"/>
    <path id="Path_6853" data-name="Path 6853" class="cls-5" d="M233.84,353.85h0a3.42,3.42,0,0,0-3.2-3v-6.17h-2.91v6.12H213.6c-2,0-4-1-6.29-2.15-3.16-1.59-7.09-3.57-12.66-3.57s-9.5,2-12.66,3.57c-2.29,1.15-4.27,2.15-6.29,2.15H161.57v-6.12h-2.91v6.17a3.43,3.43,0,0,0-3.2,3,10,10,0,0,0,2,6.6,3.29,3.29,0,0,0,5.16.05,9.82,9.82,0,0,0,2.1-6.07H178a7.08,7.08,0,0,0-2.59,4.06c-.19.76-.65,3.81-1.18,7.35-.66,4.36-1.4,9.3-1.77,10.83a3,3,0,0,0,.48,2.92,1.39,1.39,0,0,0,1.37.37,2.69,2.69,0,0,0,1.61-2.11l1.61-6.66c1.16-4.81,2.53-10.48,2.78-11.5a2.052,2.052,0,0,1,2.36-1.69H187c.27.29.52.6.79.92,1,1.22,2.06,2.49,3.75,2.61a22.356,22.356,0,0,0,3.17,0,23.086,23.086,0,0,0,3.23,0c1.68-.12,2.73-1.38,3.75-2.61.27-.33.53-.64.79-.92h4.42c1.4,0,2.06.47,2.36,1.69s1.74,7.19,2.93,12.12l1.46,6a2.69,2.69,0,0,0,1.61,2.1,1.38,1.38,0,0,0,1.37-.37,3,3,0,0,0,.48-2.92c-.37-1.54-1.12-6.47-1.77-10.83-.53-3.54-1-6.6-1.18-7.36a7.08,7.08,0,0,0-2.58-4.06h13a9.821,9.821,0,0,0,2.1,6.071,3.29,3.29,0,0,0,5.159-.051,10,10,0,0,0,2-6.54Z" transform="translate(-69.58 -236.03)"/>
    <path id="path8811" class="cls-6" d="M148.07,340.33a43.771,43.771,0,0,0-10.42,1.22.2.2,0,0,0-.19.16c0,.06.08.13.19.16a45,45,0,0,0,20.84,0,.2.2,0,0,0,.19-.16c0-.06-.08-.13-.19-.16A43.72,43.72,0,0,0,148.07,340.33Z" transform="translate(-69.58 -236.03)"/>
    <path id="path8811-2" data-name="path8811" class="cls-6" d="M173.23,340.33a43.771,43.771,0,0,0-10.42,1.22.2.2,0,0,0-.19.16c0,.06.08.13.19.16a45,45,0,0,0,20.84,0,.2.2,0,0,0,.19-.16c0-.06-.08-.13-.19-.16A43.72,43.72,0,0,0,173.23,340.33Z" transform="translate(-69.58 -236.03)"/>
    <path id="Path_6854" data-name="Path 6854" class="cls-6" d="M159.15,342.43c0-1.93.66-3.49,1.48-3.49s1.48,1.56,1.48,3.49Z" transform="translate(-69.58 -236.03)"/>
    <rect id="Rectangle_213" data-name="Rectangle 213" class="cls-5" width="3.72" height="6.11" transform="translate(89.11 108.61)"/>
    <path id="path8811-3" data-name="path8811" class="cls-6" d="M216.33,340.33a43.771,43.771,0,0,0-10.42,1.22.2.2,0,0,0-.19.16c0,.06.08.13.19.16a45,45,0,0,0,20.84,0,.2.2,0,0,0,.19-.16c0-.06-.08-.13-.19-.16A43.72,43.72,0,0,0,216.33,340.33Z" transform="translate(-69.58 -236.03)"/>
    <path id="path8811-4" data-name="path8811" class="cls-6" d="M241.49,340.33a43.771,43.771,0,0,0-10.42,1.22.2.2,0,0,0-.19.16c0,.06.08.13.19.16a45,45,0,0,0,20.84,0,.2.2,0,0,0,.19-.16c0-.06-.08-.13-.19-.16A43.72,43.72,0,0,0,241.49,340.33Z" transform="translate(-69.58 -236.03)"/>
    <path id="Path_6855" data-name="Path 6855" class="cls-6" d="M227.41,342.43c0-1.93.66-3.49,1.48-3.49s1.48,1.56,1.48,3.49Z" transform="translate(-69.58 -236.03)"/>
    <rect id="Rectangle_214" data-name="Rectangle 214" class="cls-5" width="3.72" height="6.11" transform="translate(157.37 108.61)"/>
    <rect id="Rectangle_215" data-name="Rectangle 215" class="cls-7" width="1.34" height="3.69" transform="translate(98.07 114.72)"/>
    <rect id="Rectangle_216" data-name="Rectangle 216" class="cls-7" width="1.34" height="3.69" transform="translate(100.84 114.72)"/>
    <rect id="Rectangle_217" data-name="Rectangle 217" class="cls-7" width="1.34" height="3.69" transform="translate(148.33 114.72)"/>
    <rect id="Rectangle_218" data-name="Rectangle 218" class="cls-7" width="1.34" height="3.69" transform="translate(151.1 114.72)"/>
    <path id="Path_6856" data-name="Path 6856" class="cls-3" d="M195.86,268.35c0-.06-.18-.1-.4-.1h-4.69c-.22,0-.4,0-.4.1v1.34h5.49Z" transform="translate(-69.58 -236.03)"/>
    <path id="Path_6857" data-name="Path 6857" class="cls-3" d="M186.67,279.35a.27.27,0,0,1,.27-.27h1.48a.27.27,0,0,1,.27.27v1.56h.81a1.35,1.35,0,0,1,.88.33v-1.89a.27.27,0,0,1,.27-.27h1.48a.27.27,0,0,1,.27.27v2a.27.27,0,0,1-.27.27H190.7a1.34,1.34,0,0,1,.16.63v1.38h7v-6.56h-13v3.83h1.79Zm7.4,0a.27.27,0,0,1,.27-.27h1.48a.27.27,0,0,1,.27.27v2a.27.27,0,0,1-.27.27h-1.48a.27.27,0,0,1-.27-.27Z" transform="translate(-69.58 -236.03)"/>
    <path id="Path_6858" data-name="Path 6858" class="cls-3" d="M192.11,288.42h-1.27v2h7V284h-7v1.83h1.27a.27.27,0,0,1,.27.27v2a.27.27,0,0,1-.27.32Zm2-2.29a.27.27,0,0,1,.27-.27h1.48a.27.27,0,0,1,.27.27v2a.27.27,0,0,1-.27.27h-1.48a.27.27,0,0,1-.27-.27Z" transform="translate(-69.58 -236.03)"/>
    <path id="Path_6859" data-name="Path 6859" class="cls-3" d="M197.86,270.86a.79.79,0,0,0-.79-.79h-11.4a.8.8,0,0,0-.79.79v5.85h13Zm-9.19,3.58a.27.27,0,0,1-.27.27h-1.48a.27.27,0,0,1-.27-.27v-2a.27.27,0,0,1,.27-.27h1.48a.27.27,0,0,1,.27.27Zm3.7,0a.27.27,0,0,1-.27.27h-1.48a.27.27,0,0,1-.27-.27v-2a.27.27,0,0,1,.27-.27h1.48a.27.27,0,0,1,.27.27Zm3.7,0a.27.27,0,0,1-.27.27h-1.48a.27.27,0,0,1-.27-.27v-2a.27.27,0,0,1,.27-.27h1.48a.27.27,0,0,1,.27.27Z" transform="translate(-69.58 -236.03)"/>
    <path id="Path_6860" data-name="Path 6860" class="cls-3" d="M141,287.83h-1.55v2.63h13.87v-8.33H139.48v2.41H141a.27.27,0,0,1,.27.27v2.75A.27.27,0,0,1,141,287.83Zm7.19-3a.27.27,0,0,1,.27-.27h2.05a.27.27,0,0,1,.27.27v2.75a.27.27,0,0,1-.27.27h-2.05a.27.27,0,0,1-.27-.27Zm-4.76,0a.27.27,0,0,1,.27-.27h2.05a.27.27,0,0,1,.27.27v2.75a.27.27,0,0,1-.27.27H143.7a.27.27,0,0,1-.27-.27Z" transform="translate(-69.58 -236.03)"/>
    <path id="Path_6861" data-name="Path 6861" class="cls-3" d="M153.35,273.21H139.48v2.63H141a.27.27,0,0,1,.27.27v2.75a.27.27,0,0,1-.27.27h-1.55v2.63h13.87Zm-7.3,5.65a.27.27,0,0,1-.27.27h-2.05a.27.27,0,0,1-.27-.27V276.1a.27.27,0,0,1,.27-.27h2.05a.27.27,0,0,1,.27.27Zm4.76,0a.27.27,0,0,1-.27.27h-2.05a.27.27,0,0,1-.27-.27V276.1a.27.27,0,0,1,.27-.27h2.05a.27.27,0,0,1,.27.27Z" transform="translate(-69.58 -236.03)"/>
    <path id="Path_6862" data-name="Path 6862" class="cls-3" d="M139.48,272.54v.29h13.87v-7.77a1.07,1.07,0,0,0-1.07-1.07H137.23a1.07,1.07,0,0,0-1.07,1.07v6.12h2A1.36,1.36,0,0,1,139.48,272.54Zm8.75-5.36a.27.27,0,0,1,.27-.27h2.05a.27.27,0,0,1,.27.27v2.75a.27.27,0,0,1-.27.27H148.5a.27.27,0,0,1-.27-.27Zm-4.76,0a.27.27,0,0,1,.27-.27h2.05a.27.27,0,0,1,.27.27v2.75a.27.27,0,0,1-.27.27h-2.05a.27.27,0,0,1-.27-.27Zm-4.76,0a.27.27,0,0,1,.27-.27H141a.27.27,0,0,1,.27.27v2.75a.27.27,0,0,1-.27.27h-2a.27.27,0,0,1-.27-.27Z" transform="translate(-69.58 -236.03)"/>
    <path id="Path_6863" data-name="Path 6863" class="cls-3" d="M138.71,278.39h0v-5.85a.61.61,0,0,0-.6-.61h-11.4a.61.61,0,0,0-.6.61v5.85Zm-9-2.27a.27.27,0,0,1-.27.27H128a.27.27,0,0,1-.27-.27v-2a.27.27,0,0,1,.27-.27h1.48a.27.27,0,0,1,.27.27Zm3.7,0a.27.27,0,0,1-.27.27h-1.48a.27.27,0,0,1-.27-.27v-2a.27.27,0,0,1,.27-.27h1.48a.27.27,0,0,1,.27.27Zm1.69,0v-2a.27.27,0,0,1,.27-.27h1.48a.27.27,0,0,1,.27.27v2a.27.27,0,0,1-.27.27h-1.48a.27.27,0,0,1-.26-.27Z" transform="translate(-69.58 -236.03)"/>
    <path id="Path_6864" data-name="Path 6864" class="cls-3" d="M138.71,285.33h0v-6.56h-12.6v6.56Zm-9-2.27a.27.27,0,0,1-.27.27H128a.27.27,0,0,1-.27-.27v-2a.27.27,0,0,1,.27-.27h1.48a.27.27,0,0,1,.27.27Zm3.7,0a.27.27,0,0,1-.27.27h-1.48a.27.27,0,0,1-.27-.27v-2a.27.27,0,0,1,.27-.27h1.48a.27.27,0,0,1,.27.27Zm1.69,0v-2a.27.27,0,0,1,.27-.27h1.48a.27.27,0,0,1,.27.27v2a.27.27,0,0,1-.27.27h-1.48a.27.27,0,0,1-.26-.27Z" transform="translate(-69.58 -236.03)"/>
    <path id="Path_6865" data-name="Path 6865" class="cls-3" d="M138.73,292.1v-6.4H126.11v6.4h12.61Zm-9-2.27a.27.27,0,0,1-.27.27H128a.27.27,0,0,1-.27-.27v-2a.27.27,0,0,1,.27-.27h1.48a.27.27,0,0,1,.27.27Zm3.7,0a.27.27,0,0,1-.27.27h-1.48a.27.27,0,0,1-.27-.27v-2a.27.27,0,0,1,.27-.27h1.48a.27.27,0,0,1,.27.27Zm1.69,0v-2a.27.27,0,0,1,.27-.27h1.48a.27.27,0,0,1,.27.27v2a.27.27,0,0,1-.27.27h-1.48a.27.27,0,0,1-.28-.27Z" transform="translate(-69.58 -236.03)"/>
    <path id="Path_6866" data-name="Path 6866" class="cls-3" d="M213.75,287.83H212.2v2.63h13.87v-8.33H212.19v2.41h1.55a.27.27,0,0,1,.27.27v2.75A.27.27,0,0,1,213.75,287.83Zm7.19-3a.27.27,0,0,1,.27-.27h2.05a.27.27,0,0,1,.27.27v2.75a.27.27,0,0,1-.27.27h-2.05a.27.27,0,0,1-.27-.27Zm-4.76,0a.27.27,0,0,1,.27-.27h2.05a.27.27,0,0,1,.27.27v2.75a.27.27,0,0,1-.27.27h-2.05a.27.27,0,0,1-.27-.27Z" transform="translate(-69.58 -236.03)"/>
    <path id="Path_6867" data-name="Path 6867" class="cls-3" d="M226.07,273.21H212.19v2.63h1.55a.27.27,0,0,1,.27.27v2.75a.27.27,0,0,1-.27.27h-1.55v2.63h13.87Zm-7.3,5.65a.27.27,0,0,1-.27.27h-2.05a.27.27,0,0,1-.27-.27V276.1a.27.27,0,0,1,.27-.27h2.05a.27.27,0,0,1,.27.27Zm4.76,0a.27.27,0,0,1-.27.27h-2.05a.27.27,0,0,1-.27-.27V276.1a.27.27,0,0,1,.27-.27h2.05a.27.27,0,0,1,.27.27Z" transform="translate(-69.58 -236.03)"/>
    <path id="Path_6868" data-name="Path 6868" class="cls-3" d="M212.19,272.54v.29h13.87v-7.77A1.07,1.07,0,0,0,225,264H210a1.07,1.07,0,0,0-1.07,1.07v6.12h2a1.36,1.36,0,0,1,1.26,1.35Zm8.75-5.36a.27.27,0,0,1,.27-.27h2.05a.27.27,0,0,1,.27.27v2.75a.27.27,0,0,1-.27.27h-2.05a.27.27,0,0,1-.27-.27Zm-4.76,0a.27.27,0,0,1,.27-.27h2.05a.27.27,0,0,1,.27.27v2.75a.27.27,0,0,1-.27.27h-2.05a.27.27,0,0,1-.27-.27Zm-4.76,0a.27.27,0,0,1,.27-.27h2.05a.27.27,0,0,1,.27.27v2.75a.27.27,0,0,1-.27.27H211.7a.27.27,0,0,1-.27-.27Z" transform="translate(-69.58 -236.03)"/>
    <path id="Path_6869" data-name="Path 6869" class="cls-3" d="M211.43,278.39h0v-5.85a.61.61,0,0,0-.6-.61h-11.4a.61.61,0,0,0-.6.61v5.85Zm-9-2.27a.27.27,0,0,1-.27.27H200.7a.27.27,0,0,1-.27-.27v-2a.27.27,0,0,1,.27-.27h1.48a.27.27,0,0,1,.27.27Zm3.7,0a.27.27,0,0,1-.27.27H204.4a.27.27,0,0,1-.27-.27v-2a.27.27,0,0,1,.27-.27h1.48a.27.27,0,0,1,.27.27Zm1.69,0v-2a.27.27,0,0,1,.27-.27h1.48a.27.27,0,0,1,.27.27v2a.27.27,0,0,1-.27.27H208.1a.27.27,0,0,1-.27-.27Z" transform="translate(-69.58 -236.03)"/>
    <path id="Path_6870" data-name="Path 6870" class="cls-3" d="M211.43,285.33h0v-6.56h-12.6v6.56h12.6Zm-9-2.27a.27.27,0,0,1-.27.27H200.7a.27.27,0,0,1-.27-.27v-2a.27.27,0,0,1,.27-.27h1.48a.27.27,0,0,1,.27.27Zm3.7,0a.27.27,0,0,1-.27.27H204.4a.27.27,0,0,1-.27-.27v-2a.27.27,0,0,1,.27-.27h1.48a.27.27,0,0,1,.27.27Zm1.69,0v-2a.27.27,0,0,1,.27-.27h1.48a.27.27,0,0,1,.27.27v2a.27.27,0,0,1-.27.27H208.1a.27.27,0,0,1-.27-.27Z" transform="translate(-69.58 -236.03)"/>
    <path id="Path_6871" data-name="Path 6871" class="cls-3" d="M211.44,292.1v-6.4H198.83v6.4Zm-9-2.27a.27.27,0,0,1-.27.27H200.7a.27.27,0,0,1-.27-.27v-2a.27.27,0,0,1,.27-.27h1.48a.27.27,0,0,1,.27.27Zm3.7,0a.27.27,0,0,1-.27.27H204.4a.27.27,0,0,1-.27-.27v-2a.27.27,0,0,1,.27-.27h1.48a.27.27,0,0,1,.27.27Zm1.69,0v-2a.27.27,0,0,1,.27-.27h1.48a.27.27,0,0,1,.27.27v2a.27.27,0,0,1-.27.27H208.1a.27.27,0,0,1-.27-.27Z" transform="translate(-69.58 -236.03)"/>
    <path id="Path_6872" data-name="Path 6872" class="cls-3" d="M261.57,236v65.4l-5.1-4.79V236h-2.15v45.64h-24a.61.61,0,0,0-.61.61v13.58h-3.65v-5H212.19v5h-.75v-3.37H198.83v3.38h-1V290.8h-7v5.06h-.75V282.27a.61.61,0,0,0-.61-.61H157.61a.61.61,0,0,0-.61.61v13.58h-3.65v-5H139.48v5h-.75v-3.37H126.11v3.38H126V236h-2.15v60.59l-5.1,4.79V236H116.6v68.8H263.73V236Zm-8.82,48.79a.27.27,0,0,1,.27-.27h1.26v4.27H253a.27.27,0,0,1-.27-.27Zm-3.95,0a.27.27,0,0,1,.27-.27h2.05a.27.27,0,0,1,.27.27v3.74a.27.27,0,0,1-.27.27h-2.05a.27.27,0,0,1-.27-.27Zm1.66,7.74v3.3h-8.41v-3.3a.27.27,0,0,1,.27-.27h7.87a.27.27,0,0,1,.28.3ZM245,284.81a.27.27,0,0,1,.27-.27h2.05a.27.27,0,0,1,.27.27v3.74a.27.27,0,0,1-.27.27h-2.05a.27.27,0,0,1-.27-.27Zm-3.95,0a.27.27,0,0,1,.27-.27h2.05a.27.27,0,0,1,.27.27v3.74a.27.27,0,0,1-.27.27h-2.05a.27.27,0,0,1-.27-.27Zm-9.77,0a.27.27,0,0,1,.27-.27h7.87a.27.27,0,0,1,.27.27v3.74a.27.27,0,0,1-.27.27h-7.87a.27.27,0,0,1-.27-.27Zm-51.22,0a.27.27,0,0,1,.27-.27h7.87a.27.27,0,0,1,.27.27v3.74a.27.27,0,0,1-.27.27h-7.9a.27.27,0,0,1-.27-.27Zm-3.95,0a.27.27,0,0,1,.27-.27h2.05a.27.27,0,0,1,.27.27v3.74a.27.27,0,0,1-.27.27h-2.05a.27.27,0,0,1-.27-.27Zm1.66,7.74v3.3h-8.41v-3.3a.27.27,0,0,1,.27-.27h7.87a.27.27,0,0,1,.25.28Zm-5.49-7.74a.27.27,0,0,1,.27-.27h2.05a.27.27,0,0,1,.27.27v3.74a.27.27,0,0,1-.27.27h-2.05a.27.27,0,0,1-.27-.27Zm-3.95,0a.27.27,0,0,1,.27-.27h2.05a.27.27,0,0,1,.27.27v3.74a.27.27,0,0,1-.27.27H168.6a.27.27,0,0,1-.27-.27Zm-9.77,0a.27.27,0,0,1,.27-.27h7.87a.27.27,0,0,1,.27.27v3.74a.27.27,0,0,1-.27.27h-7.87a.27.27,0,0,1-.27-.27ZM120.2,302.67l5-4.66h130l5,4.66Z" transform="translate(-69.58 -236.03)"/>
  </g>
</svg>
