<svg xmlns="http://www.w3.org/2000/svg" viewBox="-74 -2989.221 139 23.806">
  <defs>
    <style>
      .cls-1 {
        fill: #fff;
        fill-rule: evenodd;
      }
    </style>
  </defs>
  <g id="Group_9407" data-name="Group 9407" transform="translate(-1094 -3194.221)">
    <path id="Path_36" data-name="Path 36" class="cls-1" d="M20.555,11.012c.08-1.917,1.118-3.036,2.716-3.036s2.636,1.118,2.716,3.036Zm8.468,2.237V11.89c0-3.355-2.077-6.471-5.752-6.391-3.834,0-6.071,2.8-6.071,7.27s2.317,7.27,5.911,7.27c2.716,0,4.633-.879,5.911-2.876l-2.4-1.518a3.74,3.74,0,0,1-3.116,1.678c-1.6,0-2.876-1.118-2.956-4.074Z" transform="translate(1016.54 203.894)"/>
    <path id="Path_37" data-name="Path 37" class="cls-1" d="M56.8,22.076a8.682,8.682,0,0,0,1.438.08c1.2,0,1.837-.32,2.237-1.118a3.783,3.783,0,0,0,.559-1.678,7.247,7.247,0,0,0-.4-1.678L56.88,5.7h3.275l2.317,8.628h.08l2.4-8.628H68.3L63.91,19.76c-1.518,3.994-2.636,5.113-5.432,5.113-.8,0-1.2-.08-1.6-.08l-.08-2.716Z" transform="translate(1008.575 203.853)"/>
    <path id="Path_38" data-name="Path 38" class="cls-1" d="M35,15.657c0,2,.959,3.275,3.435,3.275a14.709,14.709,0,0,0,2.636-.24V15.977a9.989,9.989,0,0,1-1.518.24c-.8,0-1.2-.24-1.2-.959V7.349h6.231v8.308c0,2,.959,3.275,3.435,3.275a14.709,14.709,0,0,0,2.636-.24V15.977a9.988,9.988,0,0,1-1.518.24c-.8,0-1.2-.24-1.2-.959V7.349h2.716V4.633H47.941V0H44.586V4.633H38.355V0H35V15.657Z" transform="translate(1012.96 205)"/>
    <path id="Path_39" data-name="Path 39" class="cls-1" d="M76.1,19.78H74.5V5.8h1.6Z" transform="translate(1005.014 203.833)"/>
    <path id="Path_40" data-name="Path 40" class="cls-1" d="M74.5,2.417V.1h1.6V2.417Z" transform="translate(1005.014 204.98)"/>
    <path id="Path_41" data-name="Path 41" class="cls-1" d="M80.9,19.7V5.72h1.6V7.8c1.438-1.518,2.476-2.4,4.713-2.4a3.435,3.435,0,0,1,3.435,2.556C91.924,6.439,93.282,5.4,95.279,5.4c2.476,0,3.675,1.358,3.675,3.834V19.779h-1.6V9.075a2.094,2.094,0,0,0-2.4-2.317c-1.278,0-3.275,1.358-4.154,2.716V19.859h-1.6V9.075c0-1.6-.879-2.317-2.476-2.317-1.278,0-3.275,1.358-4.154,2.716V19.859H80.9Z" transform="translate(1003.727 203.914)"/>
    <path id="Path_42" data-name="Path 42" class="cls-1" d="M115.727,16.424a7.315,7.315,0,0,1-4.793,2.317,2.35,2.35,0,0,1-2.556-2.4c0-1.757.879-3.116,7.349-4.474v4.553Zm1.837,3.275a16.012,16.012,0,0,1-.24-2.556V9.794c0-3.116-1.518-4.394-4.713-4.394a5.388,5.388,0,0,0-5.193,3.2l1.038.639a4.863,4.863,0,0,1,4.074-2.556c2.4,0,3.2.959,3.2,2.8v.959c-5.911,1.278-9.027,2-9.027,5.832a3.564,3.564,0,0,0,3.834,3.675,7.247,7.247,0,0,0,5.113-2l.24,1.678h1.678Z" transform="translate(998.537 203.914)"/>
    <path id="Path_43" data-name="Path 43" class="cls-1" d="M142.1,11.471c0-1.837,1.278-4.793,4.074-4.793,2.476,0,3.755,1.837,4.074,4.793Zm9.746,1.278c0-4.314-1.837-7.349-5.592-7.349-3.595,0-5.752,2.956-5.752,7.27,0,4.953,2.317,7.27,5.991,7.27,2.636,0,4.074-.959,5.592-3.435l-1.358-.719c-1.438,2.237-2.317,2.876-4.074,2.876-3.2,0-4.474-2.8-4.474-5.991h9.666Z" transform="translate(991.739 203.914)"/>
    <path id="Path_44" data-name="Path 44" class="cls-1" d="M158.3,16.344a4.7,4.7,0,0,0,4.394,2.4,2.9,2.9,0,0,0,3.116-2.716c0-4.074-8.308-1.757-8.308-6.79,0-2.636,2.077-3.834,4.474-3.834a5.235,5.235,0,0,1,4.873,2.556l-1.278.879a4.325,4.325,0,0,0-3.675-2.077c-1.6,0-2.8.719-2.8,2.476,0,3.435,8.308,1.438,8.308,6.87,0,2.556-2.317,3.994-4.873,3.994a6.4,6.4,0,0,1-5.432-2.8l1.2-.959Z" transform="translate(988.399 203.914)"/>
    <path id="Path_45" data-name="Path 45" class="cls-1" d="M8.388,10.371a2.318,2.318,0,0,1-2.317,2.317,2.318,2.318,0,1,1,0-4.633,2.222,2.222,0,0,1,2.317,2.317ZM.16,20.6A3.545,3.545,0,0,0,0,21.635c.08,2.237,2.476,3.275,6.231,3.275,4.474,0,6.471-2.157,6.471-4.154,0-5.592-9.187-2.556-9.187-4.793,0-.8,1.2-.879,2.636-.879,3.515,0,5.272-1.917,5.272-4.553A4.15,4.15,0,0,0,10.7,8.054a4.226,4.226,0,0,1,2.077-.32V5.5A3.677,3.677,0,0,0,9.506,6.7,5.773,5.773,0,0,0,6.071,5.5C2.4,5.5.559,7.894.559,10.371a4.656,4.656,0,0,0,2.077,3.755A3.161,3.161,0,0,0,.479,16.682c0,1.837,2.476,2.556,5.512,2.716,2.476.16,3.755.8,3.755,1.757,0,.639-.8,1.518-2.956,1.6-3.515.08-3.834-.959-3.675-2L.16,20.6Z" transform="translate(1020 203.896)"/>
    <path id="Path_46" data-name="Path 46" class="cls-1" d="M129.332,18.6c4.234,0,5.113,1.118,5.113,2.317,0,1.438-1.518,2.4-5.033,2.4-2.876,0-4.234-.959-4.234-2.317,0-1.2.959-2.4,4.154-2.4Zm6.63-13.5a3.878,3.878,0,0,0-2.956,1.278,5.884,5.884,0,0,0-3.275-.959c-3.355,0-5.512,2-5.512,5.033a4.454,4.454,0,0,0,2,3.675,2.638,2.638,0,0,0-2.077,2.4c0,1.2.8,1.6,1.837,1.837v.08c-2,.719-2.476,1.757-2.476,2.956,0,1.678,1.278,3.275,6.151,3.275,4.793,0,6.391-1.757,6.391-3.755,0-2.317-1.757-3.675-5.991-3.675-3.755,0-4.314-.4-4.314-1.2,0-.479.4-1.039,1.278-1.358a6.559,6.559,0,0,0,2.237.4c2.956,0,5.432-1.438,5.432-4.873a4.668,4.668,0,0,0-.959-2.956,3.211,3.211,0,0,1,2.237-.639V5.1ZM125.9,10.293A3.378,3.378,0,0,1,129.571,6.7c2.237,0,3.595,1.118,3.595,3.595,0,2.4-1.358,3.515-3.595,3.515a3.351,3.351,0,0,1-3.675-3.515Z" transform="translate(995.158 203.974)"/>
    <path id="Path_47" data-name="Path 47" class="cls-1" d="M173.155,3.778A1.678,1.678,0,1,1,171.478,2.1a1.687,1.687,0,0,1,1.678,1.678Zm-.24,0a1.431,1.431,0,1,0-2.862,0,1.415,1.415,0,0,0,1.424,1.432,1.48,1.48,0,0,0,1.438-1.432Zm-1.758.959h-.24v-2h.719c.4,0,.639.16.639.559a.6.6,0,0,1-.479.559l.559.879h-.32l-.479-.879h-.4v.879Zm.32-1.118c.24,0,.559,0,.559-.32,0-.24-.24-.32-.4-.32h-.4v.639Z" transform="translate(985.845 204.578)"/>
  </g>
</svg>
