<svg xmlns="http://www.w3.org/2000/svg" viewBox="0 0 16 16">
  <defs>
    <style>
      .cls-1 {
        fill: #8d95a2;
      }
    </style>
  </defs>
  <path id="Union_1" data-name="Union 1" class="cls-1" d="M-5489.353,1322a.112.112,0,0,1-.1-.1l-.283-2.01-.206-.077c-.257-.1-.489-.206-.722-.31l-.18-.077-1.623,1.237a.115.115,0,0,1-.129,0l-1.958-1.958a.166.166,0,0,1,0-.154l1.211-1.623-.1-.18a3.586,3.586,0,0,1-.309-.721l-.077-.206-2.036-.309a.171.171,0,0,1-.128-.1v-2.782a.171.171,0,0,1,.128-.1l2.036-.284.051-.206c.1-.232.18-.49.309-.721l.1-.18-1.21-1.623a.161.161,0,0,1,0-.155l1.958-1.984a.114.114,0,0,1,.128,0l1.623,1.237.181-.077a3.579,3.579,0,0,1,.722-.309l.207-.077.283-2.035a.111.111,0,0,1,.1-.1h2.757a.111.111,0,0,1,.1.1l.283,2.009.206.077c.258.1.49.206.722.309l.18.077,1.624-1.211a.114.114,0,0,1,.128,0l1.958,1.958a.116.116,0,0,1,0,.129l-1.21,1.649.077.181a6.14,6.14,0,0,1,.283.721l.052.206,2.035.283a.385.385,0,0,1,.181.181v2.782a.172.172,0,0,1-.129.1l-2.01.283-.077.181a3.616,3.616,0,0,1-.31.721l-.077.18,1.21,1.649c.052.026.026.1,0,.128l-1.957,1.958a.115.115,0,0,1-.129,0l-1.624-1.237-.18.077a3.572,3.572,0,0,1-.721.31l-.206.077-.283,2.01a.1.1,0,0,1-.1.1Zm1.288-12.315a4.277,4.277,0,0,0-4.276,4.328,4.278,4.278,0,0,0,4.329,4.277,4.288,4.288,0,0,0,4.276-4.3v-.026a4.277,4.277,0,0,0-4.28-4.277Zm0,7.188a2.88,2.88,0,0,1-2.859-2.911,2.881,2.881,0,0,1,2.912-2.86,2.859,2.859,0,0,1,2.859,2.886v.026a2.881,2.881,0,0,1-2.864,2.86Z" transform="translate(5496 -1306)"/>
</svg>
