<svg xmlns="http://www.w3.org/2000/svg" viewBox="0 0 20 20.753">
  <defs>
    <style>
      .cls-1 {
        fill: #8d95a2;
      }
    </style>
  </defs>
  <path id="Path_98462" data-name="Path 98462" class="cls-1" d="M193.334,358.4h0l-.772-4.508a1.56,1.56,0,0,0-.447-.934,1.347,1.347,0,0,0-.569-.406l-5-1.949a.366.366,0,0,1-.244-.244l-.447-1.015a.436.436,0,0,1,.041-.447,6.2,6.2,0,0,0,.934-1.868.317.317,0,0,1,.162-.162c.081-.081.244-.162.284-.366a19.587,19.587,0,0,0,.406-2.315.93.93,0,0,0-.2-.569c-.081-.081-.081-.122-.081-.162a6.288,6.288,0,0,0,0-1.746,2.316,2.316,0,0,1-.041-.528c-.244-1.706-2.234-2.477-3.98-2.477s-3.736.772-3.98,2.477v.2c0,.122-.041.244-.041.325a6,6,0,0,0,0,1.706c0,.041,0,.041-.081.162a1.3,1.3,0,0,0-.2.528,12.313,12.313,0,0,0,.406,2.356.4.4,0,0,0,.284.325.286.286,0,0,1,.162.2,8.82,8.82,0,0,0,.934,1.868.513.513,0,0,1,.041.487l-.406,1.015a.474.474,0,0,1-.244.244l-5,1.949a1.545,1.545,0,0,0-.528.366,1.653,1.653,0,0,0-.528,1.015s-.609,3.615-.731,4.346c0,.122-.041.2,0,.284v.041a.833.833,0,0,0,.853.853h18.236a.366.366,0,0,0,.2-.041.869.869,0,0,0,.69-.853C193.334,358.52,193.334,358.479,193.334,358.4Z" transform="translate(-173.456 -338.7)"/>
</svg>
