<?xml version="1.0" encoding="utf-8"?>
<!-- Generator: Adobe Illustrator 20.1.0, SVG Export Plug-In . SVG Version: 6.00 Build 0)  -->
<svg version="1.1" id="Layer_1" xmlns="http://www.w3.org/2000/svg" xmlns:xlink="http://www.w3.org/1999/xlink" x="0px" y="0px"
	 viewBox="0 0 170 196.4" style="enable-background:new 0 0 170 196.4;" xml:space="preserve">
<style type="text/css">
	.st0{fill:#FFFFFF;}
</style>
<title>Infog</title>
<g>
	<path class="st0" d="M85,0L0,48.9v98.3l85,49.2l85-49.2V49L85,0z M23.5,156.4l4.2-25.2c0.7-3.9,2.8-6.9,6.1-8.5l1.1,2.8
		c0.2,0.4,0.5,0.8,0.9,1s0.9,0.2,1.3,0l24.7-9.4c0.4-0.2,0.8-0.5,1-0.9s0.2-0.9,0-1.3l-1.1-2.8l3.4-1.3c0.4-0.1,0.7-0.4,0.9-0.8
		l3.5-6.1c2.8,2.9,6,5.4,9.4,6.8c0.1,0.1,0.2,0.1,0.4,0.1c3.7,0.6,7.6,0.6,11.3,0c0.1,0,0.3-0.1,0.4-0.1c3.4-1.4,6.6-3.9,9.4-6.8
		l3.5,6.1c0.2,0.4,0.5,0.6,0.9,0.8l3.4,1.3l-1.1,2.8c-0.2,0.4-0.2,0.9,0,1.3s0.5,0.8,1,0.9l24.7,9.4c0.4,0.2,0.9,0.2,1.3,0
		s0.8-0.5,0.9-1l1.1-2.8c3.3,1.6,5.4,4.6,6.1,8.5l4.3,25.2L84.9,192L23.5,156.4z M37.1,121.3l21.5-8.1l0.4,1.2l-21.5,8.2L37.1,121.3
		z M111.9,61.2c-0.3-0.1-0.5-0.1-0.8-0.1C94.3,64,75.8,64,59,61.1c-0.1,0-0.2,0-0.3,0c-0.2,0-0.4,0-0.5,0.1l0.1-3.2
		c0-0.1,0-0.1,0-0.2c-0.3-4.5-3.8-5.4-5.9-5.9c-0.6-0.1-1.6-0.4-1.8-0.6l-0.2-0.5c-0.2-0.6-0.6-1.5-0.5-1.8c0,0,0.2-0.2,0.9-0.5
		c4.8-1.6,8.9-3.6,12.9-5.7c2.4-1.2,4.7-2.4,7-3.4c4.6-1.9,9.4-2.9,14.4-2.9s9.8,1,14.4,2.9c2.3,1,4.6,2.1,7,3.4c4,2,8,4.1,12.8,5.6
		c0.8,0.3,0.9,0.5,0.9,0.5c0.1,0.3-0.3,1.2-0.5,1.8l-0.2,0.5c-0.2,0.2-1.2,0.5-1.8,0.6c-2.1,0.5-5.6,1.4-5.9,5.9c0,0.1,0,0.1,0,0.2
		L111.9,61.2z M58.4,64.6c17.2,3,36.1,3,53.3,0c0.2,0,0.3-0.1,0.5-0.2c-0.1,0.8-0.4,1.5-0.9,2.2c-3.1,4.1-13.7,6.8-26.2,6.8
		S62,70.7,58.9,66.6c-0.5-0.7-0.8-1.4-0.9-2.2C58,64.5,58.2,64.5,58.4,64.6z M59.4,73.3l1.8,0.7l1,5.5c0.1,0.4,0.3,0.8,0.6,1
		l1.7,1.4c0.7,0.6,1.8,0.5,2.5-0.2s0.5-1.8-0.2-2.5l-1.3-1l-0.8-4c6,2,13.5,2.8,20.2,2.8s14.3-0.8,20.3-2.8l-0.9,3.9l-1.1,0.8
		c-0.8,0.5-1,1.6-0.5,2.4s1.6,1,2.4,0.5l1.7-1.2c0.4-0.2,0.6-0.6,0.7-1l1.2-5.1l2-0.9c-0.1,3.9-0.9,7.8-2.3,12l-1.8,0.9
		c-0.4,0.2-0.7,0.6-0.9,1.1l-0.5,1.8c-1.8,6.3-8.4,15-15.4,18c-3.2,0.5-6.5,0.5-9.7,0c-7-3-13.6-11.7-15.4-18l-0.5-1.8
		c-0.1-0.5-0.4-0.8-0.9-1.1l-1.8-0.9c-1.5-4.2-2.2-8.1-2.3-12.1L59.4,73.3z M111,114.3l0.4-1.2l21.5,8.1l-0.5,1.2L111,114.3z
		 M166.1,145l-16.3,9.4l-4-23.9c-0.9-5.6-4.4-9.8-9.4-11.7l-0.4-0.2c0,0,0,0-0.1,0l-29.2-11l-3.8-6.6c2.8-3.6,4.9-7.5,5.8-10.8
		l0.3-1l1.7-0.9c0.4-0.2,0.7-0.5,0.8-0.9c1.9-5.1,2.8-10,2.8-14.8c0-0.6-0.3-1.1-0.7-1.4l-1.1-0.8c0.6-0.5,1.1-1,1.5-1.6
		c1.5-1.9,2-4.2,1.4-6.5l-0.1-4.3c0.1-1.7,1-2.1,3.3-2.7c1.6-0.4,3.5-0.9,4.2-2.8L123,52c0.5-1.4,1.1-3,0.3-4.5
		c-0.5-1-1.5-1.8-3-2.3c-4.6-1.5-8.5-3.5-12.4-5.4c-2.5-1.2-4.8-2.4-7.2-3.5c-5-2.1-10.3-3.2-15.7-3.2s-10.7,1.1-15.7,3.2
		c-2.4,1-4.8,2.2-7.2,3.5c-3.8,1.9-7.8,4-12.4,5.4c-1.5,0.5-2.5,1.2-3,2.3C46,49,46.5,50.6,47,52l0.2,0.5c0.7,1.9,2.6,2.4,4.2,2.8
		c2.2,0.6,3.1,0.9,3.3,2.7l-0.1,4.3c-0.6,2.3-0.1,4.6,1.4,6.5c0.4,0.6,0.9,1.1,1.5,1.6l-1.1,0.8c-0.5,0.3-0.7,0.9-0.7,1.4
		c0,4.9,0.9,9.7,2.8,14.8c0.2,0.4,0.4,0.7,0.8,0.9l1.7,0.9l0.3,1c1,3.3,3,7.2,5.8,10.8l-3.8,6.6l-29.2,11c0,0,0,0-0.1,0l-0.4,0.2
		c-5.1,1.9-8.5,6.2-9.4,11.7l-4,24L3.8,145V51.2L84.9,4.5L166,51.2V145H166.1z"/>
	<path class="st0" d="M96.2,50.8l-6.3,0.7c-1.2-1.4-3-2.2-4.8-2.2s-3.6,0.8-4.8,2.2L74,50.8c-0.6-0.1-1.2,0.2-1.6,0.7
		s-0.5,1.1-0.3,1.7l1.4,3.8c0.2,0.6,0.7,1,1.2,1.1l4.9,1.1c1.2,1.9,3.2,3,5.5,3s4.3-1.2,5.5-3l4.9-1.1c0.6-0.1,1-0.6,1.2-1.1
		l1.4-3.8c0.2-0.6,0.1-1.2-0.3-1.7C97.4,51,96.8,50.7,96.2,50.8z M93.7,54.8L89,55.9c-0.5,0.1-1,0.5-1.2,1c-0.5,1.1-1.5,1.8-2.7,1.8
		s-2.2-0.7-2.7-1.8c-0.2-0.5-0.7-0.9-1.2-1l-4.7-1.1l-0.1-0.3l4.5,0.5c0.7,0.1,1.3-0.3,1.7-0.8c0.5-0.9,1.5-1.4,2.5-1.4
		s2,0.5,2.5,1.4c0.4,0.6,1,0.9,1.7,0.8l4.5-0.5L93.7,54.8z"/>
	<path class="st0" d="M90,112.5c-0.1,0-0.2,0-0.3,0c-2.6,0.6-6.8,0.6-9.4,0c-0.1,0-0.2,0-0.3,0c-0.8-0.1-1.5,0.2-2.1,0.8
		c-1.8,1.8-1.7,6.3-1.6,7.5c0.1,0.9,0.7,1.8,2.7,3.9l0,0v0.2c-0.3,1.3-0.7,9.2-1.4,21c-0.3,5.9-0.6,11.4-0.8,12.9
		c-0.1,1,0.6,1.8,1.6,1.9c1,0.1,1.8-0.6,1.9-1.6c0.1-1.6,0.4-6.9,0.8-13.1c0.5-8.1,1.1-19.3,1.3-20.4v-0.1c0.1-0.5,0.4-1.8-0.5-2.8
		c-0.1-0.1-0.2-0.2-0.4-0.4c-1-1.1-1.6-1.8-1.8-2.2c-0.1-1.4,0.2-3.3,0.5-4.2c2.8,0.5,6.7,0.5,9.5,0c0.3,0.9,0.6,2.8,0.5,4.2
		c-0.2,0.4-0.8,1.1-1.8,2.2c-0.1,0.2-0.3,0.3-0.3,0.4c-0.9,1-0.6,2.3-0.5,2.8v0.1c0.2,1.2,0.9,12.3,1.3,20.4
		c0.3,6.2,0.6,11.6,0.8,13.1c0.1,0.9,0.8,1.6,1.7,1.6c0.1,0,0.1,0,0.2,0c1-0.1,1.7-0.9,1.6-1.9c-0.1-1.4-0.5-7-0.8-12.9
		c-0.7-11.8-1.1-19.7-1.4-21v-0.2l0,0c2-2.2,2.6-3.1,2.7-4c0.1-1.1,0.1-5.6-1.6-7.5C91.5,112.7,90.8,112.4,90,112.5z"/>
</g>
</svg>
